<svg xmlns="http://www.w3.org/2000/svg" xmlns:xlink="http://www.w3.org/1999/xlink" id="svgmap" width="100%" height="100%" style="touch-action: none;" viewBox="113.8 -17.8 557.7 554.6"><style>
polygon[id^="spoly_"] { fill: #d0d8e4; stroke: #7a8fa6; stroke-width: 2; }
polygon[id^="spoly_"]:hover { fill: #5b8ccc; cursor: pointer; }
.svgText { font-family: Arial, sans-serif; fill: #333; font-size: 9px; }
</style>
         <g id="svgdefs"><defs id="svgdefstyle">
      <linearGradient id="ticketGradient" x1="0%" y1="0%" x2="100%" y2="0%"><stop offset="0%" stop-color="#840ac9"></stop><stop offset="30%" stop-color="#d60eb2"></stop><stop offset="50%" stop-color="#fa0b81"></stop><stop offset="100%" stop-color="#fa0b81"></stop></linearGradient>
      <radialGradient id="markerGradient" cx="50%" cy="50%" r="50%"><stop offset="0%" stop-color="#fa0b81"></stop><stop offset="95%" stop-color="#d60eb2"></stop><stop offset="100%" stop-color="#840ac9"></stop></radialGradient>
      <linearGradient id="flagGradient" x1="0%" y1="0%" x2="100%" y2="100%">
         <stop offset="0%" stop-color="#840ac9"></stop>
         <stop offset="40%" stop-color="#d60eb2"></stop>
         <stop offset="80%" stop-color="#fa0b81"></stop>
         <stop offset="100%" stop-color="#c40665"></stop> 
      </linearGradient>      
      <linearGradient id="svgmapticket" x1="0%" y1="0%" x2="0%" y2="100%"><stop offset="0%" style="stop-color:#5BADFF;stop-opacity:1"></stop><stop offset="100%" style="stop-color:#0066CC;stop-opacity:1"></stop></linearGradient><linearGradient id="svgdealticket" x1="0%" y1="0%" x2="0%" y2="100%"> <stop offset="0%" style="stop-color:#66FF00;stop-opacity:1"></stop><stop offset="100%" style="stop-color:#61C100;stop-opacity:1"></stop></linearGradient><linearGradient id="svggreatticket" x1="0%" y1="0%" x2="0%" y2="100%"><stop offset="0%" style="stop-color:#00CC33;stop-opacity:1"></stop><stop offset="100%" style="stop-color:#009100;stop-opacity:1"></stop></linearGradient><filter id="coinShadow" x="-40%" y="-40%" width="200%" height="200%">            <feGaussianBlur in="SourceAlpha" stdDeviation="3"></feGaussianBlur><feOffset dx="2" dy="2" result="offsetblur"></feOffset><feMerge><feMergeNode></feMergeNode><feMergeNode in="SourceGraphic"></feMergeNode></feMerge></filter><path id="flag-with-arrow" d="M 9.33,0 L 32,0 A 8,8 0 0 1 32,16 L 25.33,16 L 20,20.67 L 14.67,16 L 8,16 A 8,8 0 0 1 8,0 Z"></path><path id="flag-with-arrow-medium" d="M 8,0 L 28,0 A 8,8 0 0 1 28,16 L 23.33,16 L 18,20.67 L 12.67,16 L 8,16 A 8,8 0 0 1 8,0 Z"></path><path id="flag-with-arrow-small" d="M 8,0 L 24,0 A 8,8 0 0 1 24,16 L 20,16 L 16,20.67 L 12,16 L 8,16 A 8,8 0 0 1 8,0 Z"></path></defs>  </g>
         <g class="testmask" mask="url(#fade)" style="scale: 0.95; transform-origin:center;">
         <g id="viewport" transform="matrix(1,0,0,1,0,0)" data-zoomfactor="100"><g id="scaleSVG" data-scale="1" transform="scale(1)" class="testrotate"><g id="svgelements"><image id="svgOverlay" class="nopointereventsmap" xlink:href="/assets/images/venues/overlays/ralph-wilson-stadium-nfl_8-2019_2.png" x="-131.2" y="-113.9" width="1049.9px" height="745.7px"></image><g id="svgpolygroup"><polygon id="spoly_101" data-role="section" data-sectionid="101" data-angle="360" points="210,246.8 210,272.1 267.8,272.1 267.8,246.8 210,246.8 "></polygon><polygon id="spoly_102" data-role="section" data-sectionid="102" data-angle="360" points="210,220.4 210,221.8 210,244 267.8,244 267.8,235.2 267.8,224.2 210.2,219.1 210,220.4 210,220.4 "></polygon><polygon id="spoly_103" data-role="section" data-sectionid="103" data-angle="11" points="267.8,221.4 268.1,219 268.8,216.6 215.9,196.4 213.8,202.5 212.3,207.9 211.2,212.6 210.5,216.3 267.8,221.4 267.8,221.4 "></polygon><polygon id="spoly_104" data-role="section" data-sectionid="104" data-angle="24.6" points="269.9,214.1 271,212.3 272.3,210.5 225.4,177.9 222.9,181.9 220.7,185.9 218.7,189.9 217,193.8 269.9,214.1 269.9,214.1 "></polygon><polygon id="spoly_105" data-role="section" data-sectionid="105" data-angle="39.1" points="274.2,208.4 276.9,206.1 280,203.8 240.5,160.9 236.6,164.4 233,168 229.9,171.8 227,175.6 274.2,208.4 274.2,208.4 "></polygon><polygon id="spoly_106" data-role="section" data-sectionid="106" data-angle="52.3" points="282.5,202.3 286.3,200.2 259.5,149.1 257.1,150.3 253.2,152.2 249.4,154.4 245.9,156.7 242.7,159.1 282.5,202.3 282.5,202.3 "></polygon><polygon id="spoly_107" data-role="section" data-sectionid="107" data-angle="60" points="288.9,198.9 294.1,196.8 299.8,194.8 283.6,140.2 278.1,141.9 272.7,143.8 267.3,145.9 262.1,148 288.9,198.9 288.9,198.9 "></polygon><polygon id="spoly_108" data-role="section" data-sectionid="108" data-angle="29.5" points="302.6,194 311.9,191.6 321.7,189.5 310.1,133.4 298.2,136.1 286.3,139.3 302.6,194 302.6,194 "></polygon><polygon id="spoly_109" data-role="section" data-sectionid="109" data-angle="114.9" points="324.5,188.9 334.7,187.3 345,186 337.3,128.9 325.2,130.7 312.9,132.9 324.5,188.9 324.5,188.9 "></polygon><polygon id="spoly_110" data-role="section" data-sectionid="110" data-angle="97.7" points="347.8,185.7 358.6,184.7 368.8,184 364.4,126.4 352.5,127.2 340.1,128.6 347.8,185.7 347.8,185.7 "></polygon><polygon id="spoly_111" data-role="section" data-sectionid="111" data-angle="93" points="371.7,183.8 381.6,183.4 390.2,183.3 390.2,125.5 379.2,125.6 367.2,126.2 371.7,183.8 371.7,183.8 "></polygon><polygon id="spoly_112" data-role="section" data-sectionid="112" data-angle="86" points="393,183.3 393.3,183.3 403,183.5 414.8,184 418.6,126.4 405.1,125.7 393,125.5 393,183.3 393,183.3 "></polygon><polygon id="spoly_113" data-role="section" data-sectionid="113" data-angle="66.6" points="417.6,184.2 427.3,184.9 437.4,185.9 445.4,128.8 433.1,127.5 421.4,126.5 417.6,184.2 417.6,184.2 "></polygon><polygon id="spoly_114" data-role="section" data-sectionid="114" data-angle="109.5" points="440.2,186.1 450.4,187.5 460.6,189.2 471.9,133 459.9,130.9 448.1,129.2 440.2,186.1 440.2,186.1 "></polygon><polygon id="spoly_115" data-role="section" data-sectionid="115" data-angle="105.6" points="463.4,189.7 473.5,191.9 478.4,193.2 483.2,194.6 498.4,139.6 492.6,138 486.6,136.4 474.7,133.7 463.4,189.7 463.4,189.7 "></polygon><polygon id="spoly_116" data-role="section" data-sectionid="116" data-angle="111.1" points="485.8,195.4 490.4,197.1 494.7,198.9 498.6,200.8 502.3,202.8 523.1,148.7 517.7,146.4 512.3,144.3 506.8,142.4 501.2,140.5 485.8,195.4 485.8,195.4 "></polygon><polygon id="spoly_117" data-role="section" data-sectionid="117" data-angle="131.2" points="504.7,204.4 506.8,205.9 541.7,159.8 538.3,157.1 534.6,154.7 530.7,152.4 526.4,150.3 525.7,149.9 504.7,204.4 504.7,204.4 "></polygon><polygon id="spoly_118" data-role="section" data-sectionid="118" data-angle="159.4" points="508.9,207.7 510.3,209.1 556.8,175.8 554,172.1 551,168.5 547.6,164.9 543.9,161.6 508.9,207.7 508.9,207.7 "></polygon><polygon id="spoly_119" data-role="section" data-sectionid="119" data-angle="143.3" points="512.1,211.3 514,214.1 567.2,195 565.4,190.9 563.4,186.7 561,182.4 558.4,178.1 512.1,211.3 512.1,211.3 "></polygon><polygon id="spoly_120" data-role="section" data-sectionid="120" data-angle="142.2" points="515.1,216.8 515.6,218.6 516,220.6 573,216.2 572.4,212.6 571.4,208.3 570.1,203.2 568.1,197.6 515.1,216.8 515.1,216.8 "></polygon><polygon id="spoly_121" data-role="section" data-sectionid="121" data-angle="180" points="516.1,223.5 516.1,235.2 516.1,244 573.6,244 573.6,221.8 573.6,220.4 573.5,219 516.1,223.5 516.1,223.5 "></polygon><polygon id="spoly_122" data-role="section" data-sectionid="122" data-angle="180" points="516.1,246.8 516.1,254.9 551.1,254.9 551.1,264.7 516.1,264.7 516.1,272.1 573.6,272.1 573.6,246.8 516.1,246.8 "></polygon><polygon id="spoly_123" data-role="section" data-sectionid="123" data-angle="180" points="516.1,274.9 516.1,285.1 516.1,296.2 573.4,300 573.6,297.9 573.6,296.5 573.6,274.9 516.1,274.9 516.1,274.9 "></polygon><polygon id="spoly_124" data-role="section" data-sectionid="124" data-angle="215.5" points="516.1,299 515.8,301 515.4,302.9 567.4,322.7 569.5,316.8 571,311.4 572.2,306.7 573,302.8 516.1,299 516.1,299 "></polygon><polygon id="spoly_125" data-role="section" data-sectionid="125" data-angle="214" points="514.3,305.5 513.2,307.5 511.8,309.6 557.9,340.9 560.3,336.9 562.6,333.1 564.5,329.1 566.3,325.4 514.3,305.5 514.3,305.5 "></polygon><polygon id="spoly_126" data-role="section" data-sectionid="126" data-angle="198.1" points="509.9,311.7 507.7,313.7 544.1,356.5 547.5,353.3 550.7,350 553.6,346.7 556.2,343.2 509.9,311.7 509.9,311.7 "></polygon><polygon id="spoly_127" data-role="section" data-sectionid="127" data-angle="223.6" points="505.5,315.4 502.1,317.6 525,368.6 526.4,367.9 530.7,365.8 534.7,363.4 538.5,360.9 541.9,358.3 505.5,315.4 505.5,315.4 "></polygon><polygon id="spoly_129" data-role="section" data-sectionid="129" data-angle="248.4" points="499.7,319 496.4,320.7 492.9,322.3 489.2,323.7 485.4,325 500.5,377.9 506.1,376.1 511.7,374.1 517.1,372 522.5,369.7 499.7,319 499.7,319 "></polygon><polygon id="spoly_130" data-role="section" data-sectionid="130" data-angle="256" points="482.7,325.9 477.9,327.3 473,328.5 462.8,330.8 474,384.7 485.9,381.9 497.8,378.7 482.7,325.9 482.7,325.9 "></polygon><polygon id="spoly_131" data-role="section" data-sectionid="131" data-angle="253" points="460,331.2 449.9,332.9 439.7,334.2 447.4,389 459.2,387.4 471.2,385.2 460,331.2 460,331.2 "></polygon><polygon id="spoly_132" data-role="section" data-sectionid="132" data-angle="276" points="436.9,334.6 427,335.5 417.6,336.1 420.5,395.3 423.6,395.1 424.5,414.3 435.4,413.2 441.7,412.4 440,390.2 441,389.8 444.7,389.4 436.9,334.6 436.9,334.6 "></polygon><polygon id="spoly_133" data-role="section" data-sectionid="133" data-angle="272.6" points="393,395.3 396.1,395.3 396.1,415.6 406.3,415.3 415.5,414.9 414.4,395.5 417.7,395.4 414.8,336.3 403,336.8 393.3,337 393,337 393,395.3 393,395.3 "></polygon><polygon id="spoly_134" data-role="section" data-sectionid="134" data-angle="267.1" points="367.4,395.4 370.1,395.5 369,414.9 377.5,415.3 387,415.6 387,395.3 390.2,395.3 390.2,337 381.5,336.8 371.1,336.5 367.4,395.4 367.4,395.4 "></polygon><polygon id="spoly_135" data-role="section" data-sectionid="135" data-angle="264.5" points="341,389.7 344.8,390.1 346,390.1 344.6,412.4 350.2,413.2 360,414.2 361,395.1 364.6,395.3 368.3,336.3 358.4,335.6 348,334.7 341,389.7 341,389.7 "></polygon><polygon id="spoly_136" data-role="section" data-sectionid="136" data-angle="247.4" points="313.3,385.4 325.9,387.5 338.2,389.3 345.2,334.4 335.2,333.1 325.3,331.5 313.3,385.4 313.3,385.4 "></polygon><polygon id="spoly_137" data-role="section" data-sectionid="137" data-angle="326.6" points="287.9,379.3 299.2,382.3 310.6,384.8 322.5,331.1 312.3,328.9 307.4,327.7 302.6,326.3 287.9,379.3 287.9,379.3 "></polygon><polygon id="spoly_138" data-role="section" data-sectionid="138" data-angle="295.7" points="262.4,370.3 267.9,372.5 273.6,374.7 279.4,376.7 285.2,378.5 299.9,325.5 295.9,324.2 292,322.7 288.4,321.1 285,319.5 262.4,370.3 262.4,370.3 "></polygon><polygon id="spoly_139" data-role="section" data-sectionid="139" data-angle="304.3" points="242.9,359.3 246.2,361.7 249.6,363.9 253.3,366 257.1,367.9 259.8,369.1 282.6,318.2 279.4,316.2 242.9,359.3 242.9,359.3 "></polygon><polygon id="spoly_140" data-role="section" data-sectionid="140" data-angle="319.7" points="227.9,343.9 230.7,347.5 233.7,351 237.1,354.3 240.8,357.6 277.1,314.6 274.2,311.9 227.9,343.9 227.9,343.9 "></polygon><polygon id="spoly_141" data-role="section" data-sectionid="141" data-angle="334.8" points="217.6,325.9 219.4,329.7 221.4,333.7 223.7,337.6 226.3,341.6 272.3,309.8 270.7,307.6 269.4,305.4 217.6,325.9 217.6,325.9 "></polygon><polygon id="spoly_142" data-role="section" data-sectionid="142" data-angle="350" points="210.7,302.6 211.4,306.7 212.6,311.5 214.3,317.1 216.5,323.3 268.5,302.7 268,300.9 267.8,298.9 210.7,302.6 210.7,302.6 "></polygon><polygon id="spoly_143" data-role="section" data-sectionid="143" data-angle="360" points="210,274.9 210,296.5 210,297.9 210.2,299.9 267.8,296.1 267.8,285.1 267.8,274.9 210,274.9 210,274.9 "></polygon><polygon id="spoly_200" data-role="section" data-sectionid="200" data-angle="180" points="175.2,253.5 179.4,253.5 179.4,258 202.5,258 202.5,232.8 175.2,232.8 175.2,253.5 "></polygon><polygon id="spoly_201" data-role="section" data-sectionid="201" data-angle="177.6" points="202.5,229.9 202.5,219.8 202.5,218.4 202.9,215.3 203.5,211.8 204.5,207 176.7,200.1 175.4,206.3 175.2,208.5 175.2,229.9 202.5,229.9 202.5,229.9 "></polygon><polygon id="spoly_202" data-role="section" data-sectionid="202" data-angle="149.6" points="205.2,204.3 206.3,200.1 207.8,195.6 209.6,190.8 211.8,185.8 186.3,172.4 183.1,179.4 180.7,185.9 178.8,192 177.3,197.4 205.2,204.3 205.2,204.3 "></polygon><polygon id="spoly_203" data-role="section" data-sectionid="203" data-angle="11.9" points="213,183.2 215.2,179 217.8,174.9 220.6,170.7 223.7,166.5 202.7,147.9 198.1,153.3 194.2,158.8 190.7,164.3 187.6,169.9 213,183.2 213,183.2 "></polygon><polygon id="spoly_204" data-role="section" data-sectionid="204" data-angle="45.9" points="225.5,164.4 228.9,160.7 232.7,157.2 236.7,153.8 241.1,150.6 224.9,123.5 216.6,128.4 220.1,132.6 215.8,135.8 211.8,138.9 208,142.4 204.5,145.8 225.5,164.4 225.5,164.4 "></polygon><polygon id="spoly_205" data-role="section" data-sectionid="205" data-angle="57.7" points="243.5,149 246.7,147.1 250.1,145.3 235.6,117.2 227.3,122.1 243.5,149 243.5,149 "></polygon><polygon id="spoly_206" data-role="section" data-sectionid="206" data-angle="67.3" points="252.7,144.1 259.6,141 266.7,138.2 258.7,115.5 247.4,119.3 241,121.6 252.7,144.1 252.7,144.1 "></polygon><polygon id="spoly_207" data-role="section" data-sectionid="207" data-angle="69.9" points="269.3,137.3 274.9,135.3 280.6,133.5 292.2,130.2 287.6,107.4 273.5,111.1 261.4,114.7 269.3,137.3 269.3,137.3 "></polygon><polygon id="spoly_208" data-role="section" data-sectionid="208" data-angle="41" points="294.9,129.5 307.8,126.6 320.8,124.2 316.2,101 302.8,103.8 290.3,106.7 294.9,129.5 294.9,129.5 "></polygon><polygon id="spoly_209" data-role="section" data-sectionid="209" data-angle="106" points="323.5,123.8 335.8,122 347.8,120.7 346.1,96.3 332.3,98.2 319,100.5 323.5,123.8 323.5,123.8 "></polygon><polygon id="spoly_210" data-role="section" data-sectionid="210" data-angle="94.3" points="350.6,120.5 363.8,119.5 376.1,118.9 376.1,93.6 362.4,94.5 348.9,95.9 350.6,120.5 350.6,120.5 "></polygon><polygon id="spoly_211" data-role="section" data-sectionid="211" data-angle="90" points="378.9,118.8 391.7,118.5 391.9,118.5 404.9,118.8 404.9,93.5 392.6,93.2 385.8,93.3 378.9,93.5 378.9,118.8 378.9,118.8 "></polygon><polygon id="spoly_212" data-role="section" data-sectionid="212" data-angle="70.4" points="407.7,118.9 420.1,119.5 433.4,120.5 435.7,96 421.8,94.5 414.8,94 407.7,93.6 407.7,118.9 407.7,118.9 "></polygon><polygon id="spoly_213" data-role="section" data-sectionid="213" data-angle="107.9" points="436.2,120.7 448.2,122.1 460.6,123.9 464.9,100.7 452,98.4 438.5,96.4 436.2,120.7 436.2,120.7 "></polygon><polygon id="spoly_214" data-role="section" data-sectionid="214" data-angle="103.9" points="463.4,124.3 475.7,126.6 488.2,129.4 493.7,107.3 481.2,104.2 467.7,101.2 463.4,124.3 463.4,124.3 "></polygon><polygon id="spoly_215" data-role="section" data-sectionid="215" data-angle="112.8" points="490.9,130.1 497,131.7 503.1,133.6 509.1,135.5 515,137.5 522.1,115.7 510.3,111.9 496.4,108 490.9,130.1 490.9,130.1 "></polygon><polygon id="spoly_216" data-role="section" data-sectionid="216" data-angle="129.6" points="517.6,138.5 524.8,141.4 531.8,144.6 542.1,122.9 535.8,120.5 524.8,116.6 517.6,138.5 517.6,138.5 "></polygon><polygon id="spoly_217" data-role="section" data-sectionid="217" data-angle="158" points="534.4,145.8 540,148.9 554.9,125.1 546.7,119.7 534.4,145.8 534.4,145.8 "></polygon><polygon id="spoly_218" data-role="section" data-sectionid="218" data-angle="23" points="542.4,150.4 546.3,153.3 549.9,156.2 553.3,159.3 556.5,162.6 573.2,145.8 568.4,141.3 564.5,138 560.9,135.4 563.1,130.5 557.3,126.6 542.4,150.4 542.4,150.4 "></polygon><polygon id="spoly_219" data-role="section" data-sectionid="219" data-angle="21.6" points="558.3,164.7 561.9,169.2 565.1,173.6 567.9,178.2 570.3,182.8 592.2,170.7 590.2,167.2 588.1,163.9 583.8,157.8 579.4,152.5 575.2,147.8 558.3,164.7 558.3,164.7 "></polygon><polygon id="spoly_220" data-role="section" data-sectionid="220" data-angle="10.9" points="571.6,185.2 573.8,190.1 575.5,194.6 577,199 578.2,203.2 610.3,197 609.2,192.1 608.6,190.2 600.2,191.7 598.9,186.7 597.3,182 595.5,177.5 593.5,173.2 571.6,185.2 571.6,185.2 "></polygon><polygon id="spoly_221" data-role="section" data-sectionid="221" data-angle="5.5" points="578.9,205.9 580,211 580.7,214.9 581.1,218.4 581.1,219.8 581.1,229.9 613.6,229.9 613.6,226.8 613.3,219 612.7,211.8 611.8,205.3 610.8,199.7 578.9,205.9 578.9,205.9 "></polygon><polygon id="spoly_222" data-role="section" data-sectionid="222" data-angle="360" points="581.1,232.8 581.1,258 606.5,258 606.5,253.5 613.6,253.5 613.6,232.8 581.1,232.8 "></polygon><polygon id="spoly_223" data-role="section" data-sectionid="223" data-angle="360" points="581.1,260.9 581.1,287.5 613.6,287.5 613.6,266.1 606.5,266.1 606.5,260.9 581.1,260.9 "></polygon><polygon id="spoly_224" data-role="section" data-sectionid="224" data-angle="356" points="581.1,290.3 581.1,298.4 581.1,299.8 580.7,303.3 580,307.3 578.9,312.4 611.4,319 612.2,315.2 612.9,311.1 613.4,306.6 613.6,301.9 613.6,290.3 581.1,290.3 581.1,290.3 "></polygon><polygon id="spoly_225" data-role="section" data-sectionid="225" data-angle="345.3" points="578.1,315.1 576.9,319.6 575.2,324.2 573.3,329.2 570.9,334.4 592.2,345.8 595.9,338.5 598.7,332.6 600.9,327.2 607.9,329.3 608.7,327.3 610.7,321.7 578.1,315.1 578.1,315.1 "></polygon><polygon id="spoly_226" data-role="section" data-sectionid="226" data-angle="337.5" points="569.6,336.8 567.1,341.4 564.1,346 560.8,350.5 557.1,354.9 574.5,371.8 579.3,366.1 583.6,360.1 587.4,354.1 590.8,348.3 569.6,336.8 569.6,336.8 "></polygon><polygon id="spoly_227" data-role="section" data-sectionid="227" data-angle="333.9" points="555.2,357 552,360.1 548.6,363.1 544.9,365.9 541,368.5 556.2,394.7 563.8,390.4 560.2,384.7 563.5,382.5 566.7,379.8 569.7,377 572.7,374 555.2,357 555.2,357 "></polygon><polygon id="spoly_228" data-role="section" data-sectionid="228" data-angle="197.6" points="538.7,370 535.4,371.8 532,373.5 531.1,374 545.4,400.9 553.8,396.1 538.7,370 538.7,370 "></polygon><polygon id="spoly_229" data-role="section" data-sectionid="229" data-angle="232.1" points="528.5,375.2 522.2,377.8 515.8,380.4 523.5,404 534.1,400.5 540.8,398.2 528.5,375.2 528.5,375.2 "></polygon><polygon id="spoly_230" data-role="section" data-sectionid="230" data-angle="252.1" points="513.2,381.3 507.2,383.3 501.2,385.2 495,386.9 488.9,388.5 494.2,412.5 508.3,408.7 520.8,404.9 513.2,381.3 513.2,381.3 "></polygon><polygon id="spoly_231" data-role="section" data-sectionid="231" data-angle="259.8" points="486.2,389.1 474.1,391.8 462,393.9 466.3,418.6 472.6,417.5 479,416.1 491.5,413.2 486.2,389.1 486.2,389.1 "></polygon><polygon id="spoly_232" data-role="section" data-sectionid="232" data-angle="256.3" points="459.2,394.4 451.2,395.6 443.3,396.6 444.8,415.8 450.1,420.5 456.7,419.9 463.5,419 459.2,394.4 459.2,394.4 "></polygon><polygon id="spoly_235" data-role="section" data-sectionid="235" data-angle="254.3" points="323.2,419.3 335.8,421.2 341.6,416.6 342.8,396.8 335,395.9 327,394.8 323.2,419.3 323.2,419.3 "></polygon><polygon id="spoly_236" data-role="section" data-sectionid="236" data-angle="333.5" points="293.8,413.7 308,416.6 320.4,418.9 324.2,394.4 311.8,392.3 299.2,389.6 293.8,413.7 293.8,413.7 "></polygon><polygon id="spoly_237" data-role="section" data-sectionid="237" data-angle="291.1" points="265.3,406.3 271.6,408.2 278,409.9 291,413.1 296.5,389 284.9,385.9 279.1,384.1 273.4,382.3 265.3,406.3 265.3,406.3 "></polygon><polygon id="spoly_238" data-role="section" data-sectionid="238" data-angle="291.5" points="244.6,398.5 248.6,400.4 253,402.1 257.8,403.9 262.7,405.5 270.6,381.3 263.1,378.5 255.7,375.4 244.6,398.5 244.6,398.5 "></polygon><polygon id="spoly_239" data-role="section" data-sectionid="239" data-angle="299.4" points="230.8,398.9 239.2,403.4 253.2,374.3 251.6,373.5 245.7,370.4 230.8,398.9 230.8,398.9 "></polygon><polygon id="spoly_240" data-role="section" data-sectionid="240" data-angle="311.1" points="208.9,379 213.7,383.4 217.3,386.5 220.8,389 218.7,392.5 228.4,397.6 243.3,369 239.5,366.5 236,363.9 232.8,361.1 229.7,358.2 208.9,379 208.9,379 "></polygon><polygon id="spoly_241" data-role="section" data-sectionid="241" data-angle="352.8" points="188.1,350.5 190.3,354.7 192.7,358.6 195.1,362.3 197.5,365.7 202.3,371.8 206.9,376.9 227.7,356.2 223.5,351.3 219.7,346.2 216.4,341.1 213.6,336.1 188.1,350.5 188.1,350.5 "></polygon><polygon id="spoly_242" data-role="section" data-sectionid="242" data-angle="213.7" points="177.6,321.7 179.5,328.9 181.7,335.7 184.1,342 186.8,348 212.3,333.5 210.1,328.7 208.2,324 206.7,319.5 205.5,315.4 177.6,321.7 177.6,321.7 "></polygon><polygon id="spoly_243" data-role="section" data-sectionid="243" data-angle="182.4" points="175.2,289.6 175.2,306.1 176,312.7 177.1,319 204.8,312.6 203.7,307.4 203,303.3 202.5,299.8 202.5,298.4 202.5,289.6 175.2,289.6 175.2,289.6 "></polygon><polygon id="spoly_244" data-role="section" data-sectionid="244" data-angle="180" points="179.4,260.9 179.4,264.7 175.2,264.7 175.2,286.8 202.5,286.8 202.5,260.9 179.4,260.9 "></polygon><polygon id="spoly_306" data-role="section" data-sectionid="306" data-angle="67" points="220.8,44.6 245,108.9 254,105.8 231.5,40.7 223.6,43.6 220.8,44.6 220.8,44.6 "></polygon><polygon id="spoly_307" data-role="section" data-sectionid="307" data-angle="72.8" points="256.6,105 266.4,102 277.8,98.6 260.1,31.9 245.7,36.2 234.3,39.9 256.6,105 256.6,105 "></polygon><polygon id="spoly_308" data-role="section" data-sectionid="308" data-angle="70.4" points="280.5,97.9 291.6,95.1 303.6,92.3 289.5,24.5 275.6,27.8 262.8,31.1 280.5,97.9 280.5,97.9 "></polygon><polygon id="spoly_309" data-role="section" data-sectionid="309" data-angle="100.8" points="306.4,91.7 319.7,89.1 333.6,86.8 324.4,17.8 307.9,20.7 292.3,23.9 306.4,91.7 306.4,91.7 "></polygon><polygon id="spoly_310" data-role="section" data-sectionid="310" data-angle="98.6" points="336.3,86.3 349.2,84.7 362.4,83.3 356.6,13.9 341.7,15.5 327.2,17.4 336.3,86.3 336.3,86.3 "></polygon><polygon id="spoly_311" data-role="section" data-sectionid="311" data-angle="92.6" points="365.3,83.1 377.6,82.3 390.2,82 390.2,12.3 382.4,12.4 374.6,12.6 367,13.1 359.4,13.6 365.3,83.1 365.3,83.1 "></polygon><polygon id="spoly_312" data-role="section" data-sectionid="312" data-angle="85.5" points="393,81.9 405.8,82.3 418.4,83 423.9,13.5 416.3,13 408.6,12.6 400.8,12.4 393,12.2 393,81.9 393,81.9 "></polygon><polygon id="spoly_313" data-role="section" data-sectionid="313" data-angle="126.8" points="421.2,83.3 434.1,84.6 446.6,86.2 455.1,17 441.1,15.2 426.7,13.8 421.2,83.3 421.2,83.3 "></polygon><polygon id="spoly_314" data-role="section" data-sectionid="314" data-angle="101.8" points="449.4,86.7 463.5,89.1 476.7,91.9 489.8,23.3 474.2,20.2 457.8,17.5 449.4,86.7 449.4,86.7 "></polygon><polygon id="spoly_315" data-role="section" data-sectionid="315" data-angle="105.6" points="479.5,92.5 491.1,95.4 501.8,98.2 520.9,30.8 507.4,27.3 492.5,23.8 479.5,92.5 479.5,92.5 "></polygon><polygon id="spoly_316" data-role="section" data-sectionid="316" data-angle="122" points="504.5,99 516.1,102.5 526.1,105.8 549.7,39.3 538.2,35.7 523.6,31.5 504.5,99 504.5,99 "></polygon><polygon id="spoly_317" data-role="section" data-sectionid="317" data-angle="104.4" points="528.7,106.7 537.9,110.1 563.1,43.9 560.3,42.9 552.4,40.2 528.7,106.7 528.7,106.7 "></polygon><polygon id="spoly_328" data-role="section" data-sectionid="328" data-angle="256.7" points="528.7,412.7 537.9,409.3 563.1,475.2 560.3,476.3 552.4,479 528.7,412.7 528.7,412.7 "></polygon><polygon id="spoly_329" data-role="section" data-sectionid="329" data-angle="237.1" points="504.5,420.3 516.1,416.8 526.1,413.6 549.7,479.9 538.2,483.5 523.6,487.7 504.5,420.3 504.5,420.3 "></polygon><polygon id="spoly_330" data-role="section" data-sectionid="330" data-angle="255.2" points="479.5,426.8 491.1,424 501.8,421.1 520.9,488.4 507.4,491.9 492.5,495.3 479.5,426.8 479.5,426.8 "></polygon><polygon id="spoly_331" data-role="section" data-sectionid="331" data-angle="259.3" points="449.4,432.7 463.5,430.3 476.7,427.4 489.8,495.8 474.2,498.9 457.8,501.6 449.4,432.7 449.4,432.7 "></polygon><polygon id="spoly_332" data-role="section" data-sectionid="332" data-angle="237.9" points="421.2,436.1 434.1,434.8 446.6,433.1 455.1,502.1 441.1,503.9 426.7,505.3 421.2,436.1 421.2,436.1 "></polygon><polygon id="spoly_333" data-role="section" data-sectionid="333" data-angle="274.8" points="393,437.4 405.8,437.1 418.4,436.3 423.9,505.6 416.3,506.1 408.6,506.4 400.8,506.7 393,506.8 393,437.4 393,437.4 "></polygon><polygon id="spoly_334" data-role="section" data-sectionid="334" data-angle="267.1" points="365.3,436.3 377.6,437 390.2,437.4 390.2,506.8 382.4,506.7 374.6,506.4 367,506 359.4,505.5 365.3,436.3 365.3,436.3 "></polygon><polygon id="spoly_335" data-role="section" data-sectionid="335" data-angle="262.1" points="336.3,433.1 349.2,434.7 362.4,436 356.6,505.2 341.7,503.6 327.2,501.7 336.3,433.1 336.3,433.1 "></polygon><polygon id="spoly_336" data-role="section" data-sectionid="336" data-angle="264" points="306.4,427.6 319.7,430.3 333.6,432.6 324.4,501.3 307.9,498.4 292.3,495.2 306.4,427.6 306.4,427.6 "></polygon><polygon id="spoly_337" data-role="section" data-sectionid="337" data-angle="289.9" points="280.5,421.4 291.6,424.3 303.6,427 289.5,494.6 275.6,491.3 262.8,487.9 280.5,421.4 280.5,421.4 "></polygon><polygon id="spoly_338" data-role="section" data-sectionid="338" data-angle="287.9" points="256.6,414.5 266.4,417.5 277.8,420.7 260.1,487.2 245.7,483 234.3,479.4 256.6,414.5 256.6,414.5 "></polygon><polygon id="spoly_339" data-role="section" data-sectionid="339" data-angle="292.8" points="220.8,474.5 245,410.5 254,413.6 231.5,478.5 223.6,475.6 220.8,474.5 220.8,474.5 "></polygon><polygon id="spoly_GL10" data-role="section" data-sectionid="GL10" data-angle="35.3" points="571.4,123 565.7,130.9 567.8,132.4 570.7,134.6 576.7,127.1 571.4,123 571.4,123 "></polygon><polygon id="spoly_GL11" data-role="section" data-sectionid="GL11" data-angle="36.6" points="587.7,131.4 583.5,127.3 582.3,128.8 579.2,126.1 571.7,135.4 574.8,138 578.1,141.2 587.7,131.4 587.7,131.4 "></polygon><polygon id="spoly_GL12" data-role="section" data-sectionid="GL12" data-angle="38.4" points="595.8,140 592.2,136 588.7,132.3 579.1,142.2 582,145.2 585.1,148.6 595.8,140 595.8,140 "></polygon><polygon id="spoly_GL13" data-role="section" data-sectionid="GL13" data-angle="34" points="602.9,149 599.9,144.9 596.7,141 585.8,149.6 588.6,153 591.4,156.7 602.9,149 602.9,149 "></polygon><polygon id="spoly_GL14" data-role="section" data-sectionid="GL14" data-angle="29" points="609.1,158.3 606.4,154.1 603.7,150.1 592.2,157.8 596.6,165 609.1,158.3 609.1,158.3 "></polygon><polygon id="spoly_GL15" data-role="section" data-sectionid="GL15" data-angle="26.3" points="612.3,164.3 609.8,159.4 597.3,166.1 600.7,172.5 611.4,167.5 610.3,165.3 612.3,164.3 612.3,164.3 "></polygon><polygon id="spoly_GL16" data-role="section" data-sectionid="GL16" data-angle="21.7" points="615.4,170.8 614,167.8 601.2,173.7 603.7,179.5 615.2,175.3 613.8,171.7 615.4,170.8 615.4,170.8 "></polygon><polygon id="spoly_GL17" data-role="section" data-sectionid="GL17" data-angle="18.1" points="606.3,186.7 617,183.4 616.1,180.2 618.4,179.3 617.4,175.8 604.2,180.7 606.3,186.7 606.3,186.7 "></polygon><polygon id="spoly_GL20" data-role="section" data-sectionid="GL20" data-angle="40.8" points="578.5,113.1 575,117.9 580.5,122.4 586.3,115.3 584.1,113.4 578.5,113.1 578.5,113.1 "></polygon><polygon id="spoly_GL21" data-role="section" data-sectionid="GL21" data-angle="42.7" points="596.4,116.4 591,111.6 581.6,123.3 585.1,126.5 589,130.1 597.6,121.2 594.5,118.2 596.4,116.4 596.4,116.4 "></polygon><polygon id="spoly_GL22" data-role="section" data-sectionid="GL22" data-angle="42.8" points="606.4,126.6 600.4,120.2 589.9,131 593.6,135 597.6,139.4 607.5,131.6 604.7,128.3 606.4,126.6 606.4,126.6 "></polygon><polygon id="spoly_GL23" data-role="section" data-sectionid="GL23" data-angle="32.9" points="605.9,134.6 598.5,140.4 598.6,140.5 602.7,145.8 606.8,151.4 613.1,147.2 613,147.2 607.3,139.8 608.7,138.2 605.9,134.6 605.9,134.6 "></polygon><polygon id="spoly_GL24" data-role="section" data-sectionid="GL24" data-angle="27.3" points="626.2,155 623.2,149.4 619.9,144.3 607.5,152.5 611.2,158.5 614.6,165 626.1,159.3 624.4,156.1 626.2,155 626.2,155 "></polygon><polygon id="spoly_GL25" data-role="section" data-sectionid="GL25" data-angle="20.7" points="626.5,160.6 615.2,166.2 617.1,170.3 618.7,174.7 630.4,169.8 626.5,160.6 626.5,160.6 "></polygon><polygon id="spoly_GL26" data-role="section" data-sectionid="GL26" data-angle="19.7" points="621.1,182.1 624.9,180.9 627.2,175.4 626.3,173 619.1,175.8 621.1,182.1 621.1,182.1 "></polygon><polygon id="spoly_RZ20" data-role="section" data-sectionid="RZ20" data-angle="342.6" points="603.2,329.1 601.5,334.8 609,338 609.9,334.9 608.4,330.8 603.2,329.1 603.2,329.1 "></polygon><polygon id="spoly_RZ21" data-role="section" data-sectionid="RZ21" data-angle="334.9" points="613.2,341 601.1,336 599.7,339.9 598,343.6 609.6,349.6 611.4,345.5 613.2,341 613.2,341 "></polygon><polygon id="spoly_RZ22" data-role="section" data-sectionid="RZ22" data-angle="332.4" points="609.1,350.7 597.5,344.7 594.6,350.6 591.4,356.1 602.2,363.7 605.8,357.5 609.1,350.7 609.1,350.7 "></polygon><polygon id="spoly_RZ23" data-role="section" data-sectionid="RZ23" data-angle="323.7" points="597.7,362 590.8,357.1 587.2,362.2 583.6,367 583.5,367.1 591.9,374.2 595,369.4 593.5,368.2 597.7,362 597.7,362 "></polygon><polygon id="spoly_RZ24" data-role="section" data-sectionid="RZ24" data-angle="324.3" points="593.1,376.6 582.8,368 579.3,372.1 576.1,375.7 585.2,385.5 589,381.4 593.1,376.6 593.1,376.6 "></polygon><polygon id="spoly_RZ25" data-role="section" data-sectionid="RZ25" data-angle="322" points="584.4,386.4 575.3,376.5 571.9,379.9 568.9,382.7 577,393.4 580.4,390.2 584.4,386.4 584.4,386.4 "></polygon><polygon id="spoly_RZ26" data-role="section" data-sectionid="RZ26" data-angle="327.9" points="572.9,389.9 567.9,383.6 563.1,387.6 564.8,390.1 571,391.9 572.9,389.9 572.9,389.9 "></polygon><polygon id="spoly_west_end_suites" data-role="section" data-sectionid="west_end_suites" data-angle="101.8" points="170.8,262.8 170.8,260.3 170.8,254.7 170.8,224.2 171.5,209.9 173.4,197.4 176.5,186.2 180.9,175.7 190.3,158.9 200.4,145.8 194.1,140.2 183.4,154.5 172.7,173.2 168.3,183.7 165.2,196.2 162.7,209.3 162.1,224.2 162.1,254.7 162.1,260.3 162.1,262.8 162.1,268.4 162.1,298.9 163.3,313.8 165.8,326.9 169.6,339.3 174,350.5 185.3,369.2 196.6,382.9 202.9,377.3 192.2,364.2 182.2,347.4 177.8,337.4 174,325.6 171.5,313.2 170.8,298.9 170.8,268.4 170.8,262.8 170.8,262.8 "></polygon><polygon class="is-d epoly_east_endzone_lounge" data-role="dynamic" points="617.1,195 617.1,332.2 641.5,332.2 641.5,195 " style="fill:#F4F4F4; stroke:#BEBEBE; stroke-width:1; fill-opacity:1.0;"></polygon><polygon class="is-d epoly_jim_kellys_club_12" data-role="dynamic" points="257.6,114.1 290.3,104.8 323.6,97.9 357.5,94.1 391.5,92.2 426,93.5 459.4,97.9 492.7,104.8 525.3,114.1 527.2,107.3 494.5,97.2 460.6,90.4 426,86 391.5,84.7 356.9,86.6 323,90.4 289,97.9 255.7,107.3 257.6,114.1 257.6,114.1 " style="fill:#F4F4F4; stroke:#BEBEBE; stroke-width:1; fill-opacity:1.0;"></polygon><polygon class="is-d epoly_press_box" data-role="dynamic" points="345.2,415.2 360.8,416.4 391.5,418.3 424,416.4 442.1,415.2 442.1,418.9 448.4,423.8 449.6,430 429.6,432.5 410.8,434.3 391.5,434.9 372.7,434.3 355.2,432.5 336.4,430.6 337,425.1 344.6,418.9 345.2,415.2 345.2,415.2 " style="fill:#F4F4F4; stroke:#BEBEBE; stroke-width:1; fill-opacity:1.0;"></polygon><polygon class="is-d epoly_bench_home" data-role="dynamic" points="349.1,310.4 349.1,322 436.8,322 436.8,310.4 " style="fill:#143D75; stroke:#000; stroke-width:0; fill-opacity:1;"></polygon><polygon class="is-d epoly_west_videoboard" data-role="dynamic" points="143.8,297.4 158.3,297.4 158.3,227.5 143.8,227.5 " style="fill:#F4F4F4; stroke:#BEBEBE; stroke-width:1; fill-opacity:1.0;"></polygon><polygon class="is-d epoly_bench_visitor" data-role="dynamic" points="349.1,194.4 349.1,205.9 436.8,205.9 436.8,194.4 " style="fill:#DDD; stroke:#DDD; stroke-width:0; fill-opacity:1.0;"></polygon></g><circle id="mctrmrk" cx="391.4" cy="259.8" r="1" stroke-width="0" stroke="#FFF" opacity="0"></circle><g id="svgsectionnames" style="opacity:1; font-size:5.766666666666667px;"><text data-sectionid="101" data-role="section" x="227.7" y="259.8">101</text><text data-sectionid="102" data-role="section" x="227" y="232.6">102</text><text data-sectionid="103" data-role="section" x="228.4" y="212">103</text><text data-sectionid="104" data-role="section" x="234.8" y="194.5">104</text><text data-sectionid="105" data-role="section" x="244.9" y="179.5">105</text><text data-sectionid="106" data-role="section" x="258.6" y="166.8">106</text><text data-sectionid="107" data-role="section" x="278.4" y="158.1">107</text><text data-sectionid="108" data-role="section" x="302.7" y="151.1">108</text><text data-sectionid="109" data-role="section" x="329" y="146.3">109</text><text data-sectionid="110" data-role="section" x="353.8" y="143.4">110</text><text data-sectionid="111" data-role="section" x="379.3" y="142">111</text><text data-sectionid="112" data-role="section" x="406.4" y="142.1">112</text><text data-sectionid="113" data-role="section" x="432.2" y="143.6">113</text><text data-sectionid="114" data-role="section" x="458" y="147.9">114</text><text data-sectionid="115" data-role="section" x="483.5" y="152.8">115</text><text data-sectionid="116" data-role="section" x="507.7" y="159.7">116</text><text data-sectionid="117" data-role="section" x="527.2" y="169">117</text><text data-sectionid="118" data-role="section" x="539.4" y="180.2">118</text><text data-sectionid="119" data-role="section" x="549.5" y="194">119</text><text data-sectionid="120" data-role="section" x="556.6" y="210.2">120</text><text data-sectionid="121" data-role="section" x="559.3" y="233.2">121</text><text data-sectionid="122" data-role="section" x="560.6" y="260.4">122</text><text data-sectionid="123" data-role="section" x="560" y="286.4">123</text><text data-sectionid="124" data-role="section" x="554.7" y="310.5">124</text><text data-sectionid="125" data-role="section" x="548.3" y="326.6">125</text><text data-sectionid="126" data-role="section" x="539.3" y="341.5">126</text><text data-sectionid="127" data-role="section" x="524" y="349.6">127</text><text data-sectionid="129" data-role="section" x="504.6" y="357.3">129</text><text data-sectionid="130" data-role="section" x="480.9" y="365.3">130</text><text data-sectionid="131" data-role="section" x="457.2" y="370.8">131</text><text data-sectionid="132" data-role="section" x="431.1" y="376.4">132</text><text data-sectionid="133" data-role="section" x="405.3" y="376.8">133</text><text data-sectionid="134" data-role="section" x="378.8" y="376.6">134</text><text data-sectionid="135" data-role="section" x="354.6" y="375.6">135</text><text data-sectionid="136" data-role="section" x="327.9" y="373.1">136</text><text data-sectionid="137" data-role="section" x="303.9" y="368.3">137</text><text data-sectionid="138" data-role="section" x="277.9" y="360.4">138</text><text data-sectionid="139" data-role="section" x="257.9" y="356.4">139</text><text data-sectionid="140" data-role="section" x="245.2" y="340.6">140</text><text data-sectionid="141" data-role="section" x="235.7" y="327.5">141</text><text data-sectionid="142" data-role="section" x="229.7" y="310.7">142</text><text data-sectionid="143" data-role="section" x="227.7" y="287">143</text><text data-sectionid="200" data-role="section" x="188.8" y="247.4">200</text><text data-sectionid="201" data-role="section" x="189.8" y="218.1">201</text><text data-sectionid="202" data-role="section" x="194.5" y="190.9">202</text><text data-sectionid="203" data-role="section" x="205.7" y="167.6">203</text><text data-sectionid="204" data-role="section" x="222.8" y="146">204</text><text data-sectionid="205" data-role="section" x="235.4" y="133.8" transform="rotate(420.453 235.4 133.8)">205</text><text data-sectionid="206" data-role="section" x="253.9" y="131.8">206</text><text data-sectionid="207" data-role="section" x="276.8" y="124.3">207</text><text data-sectionid="208" data-role="section" x="305.5" y="117.3">208</text><text data-sectionid="209" data-role="section" x="333.4" y="112">209</text><text data-sectionid="210" data-role="section" x="362.5" y="109">210</text><text data-sectionid="211" data-role="section" x="391.9" y="108">211</text><text data-sectionid="212" data-role="section" x="421.7" y="109">212</text><text data-sectionid="213" data-role="section" x="450.6" y="112.1">213</text><text data-sectionid="214" data-role="section" x="478.5" y="117.3">214</text><text data-sectionid="215" data-role="section" x="506.5" y="124.7">215</text><text data-sectionid="216" data-role="section" x="529.9" y="132.6">216</text><text data-sectionid="217" data-role="section" x="547.3" y="134.2" transform="rotate(-60.4612 547.3 134.2)">217</text><text data-sectionid="218" data-role="section" x="559.1" y="146">218</text><text data-sectionid="219" data-role="section" x="575.2" y="167.3">219</text><text data-sectionid="220" data-role="section" x="588.3" y="190">220</text><text data-sectionid="221" data-role="section" x="596.2" y="217.9">221</text><text data-sectionid="222" data-role="section" x="597.3" y="247.4">222</text><text data-sectionid="223" data-role="section" x="597.3" y="276.2">223</text><text data-sectionid="224" data-role="section" x="596.2" y="303.6">224</text><text data-sectionid="225" data-role="section" x="587.5" y="330.6">225</text><text data-sectionid="226" data-role="section" x="574" y="356.3">226</text><text data-sectionid="227" data-role="section" x="557.5" y="375.2">227</text><text data-sectionid="228" data-role="section" x="540.4" y="384.2" transform="rotate(420.489 540.4 384.2)">228</text><text data-sectionid="229" data-role="section" x="527" y="390.3">229</text><text data-sectionid="230" data-role="section" x="504.7" y="398.8">230</text><text data-sectionid="231" data-role="section" x="476.8" y="405.9">231</text><text data-sectionid="232" data-role="section" x="453.4" y="409.5">232</text><text data-sectionid="235" data-role="section" x="333" y="410">235</text><text data-sectionid="236" data-role="section" x="309" y="406.2">236</text><text data-sectionid="237" data-role="section" x="280.9" y="399.7">237</text><text data-sectionid="238" data-role="section" x="258.9" y="392.5">238</text><text data-sectionid="239" data-role="section" x="244" y="387.6" transform="rotate(297.485 244 387.6)">239</text><text data-sectionid="240" data-role="section" x="226.1" y="379.9">240</text><text data-sectionid="241" data-role="section" x="207.9" y="358.5">241</text><text data-sectionid="242" data-role="section" x="194.9" y="330.5">242</text><text data-sectionid="243" data-role="section" x="190" y="303.2">243</text><text data-sectionid="244" data-role="section" x="188.8" y="275.8">244</text><text data-sectionid="306" data-role="section" x="236.7" y="75.7" transform="rotate(429.958 236.7 75.7)">306</text><text data-sectionid="307" data-role="section" x="258" y="71">307</text><text data-sectionid="308" data-role="section" x="285.2" y="63.8">308</text><text data-sectionid="309" data-role="section" x="314.9" y="56.8">309</text><text data-sectionid="310" data-role="section" x="344.8" y="52.1">310</text><text data-sectionid="311" data-role="section" x="374.8" y="49.7">311</text><text data-sectionid="312" data-role="section" x="408.4" y="49.6">312</text><text data-sectionid="313" data-role="section" x="438.2" y="52">313</text><text data-sectionid="314" data-role="section" x="468.3" y="57.4">314</text><text data-sectionid="315" data-role="section" x="498.2" y="63.7">315</text><text data-sectionid="316" data-role="section" x="525.8" y="71.2">316</text><text data-sectionid="317" data-role="section" x="548.5" y="78.8" transform="rotate(-69.3657 548.5 78.8)">317</text><text data-sectionid="328" data-role="section" x="543.9" y="440.6" transform="rotate(429.742 543.9 440.6)">328</text><text data-sectionid="329" data-role="section" x="525.1" y="450">329</text><text data-sectionid="330" data-role="section" x="498.1" y="457.2">330</text><text data-sectionid="331" data-role="section" x="467.6" y="463.2">331</text><text data-sectionid="332" data-role="section" x="438.2" y="471.2">332</text><text data-sectionid="333" data-role="section" x="408.4" y="473.6">333</text><text data-sectionid="334" data-role="section" x="374.8" y="473.6">334</text><text data-sectionid="335" data-role="section" x="344.8" y="471.1">335</text><text data-sectionid="336" data-role="section" x="314.3" y="463.8">336</text><text data-sectionid="337" data-role="section" x="284.5" y="458.1">337</text><text data-sectionid="338" data-role="section" x="258" y="450.3">338</text><text data-sectionid="339" data-role="section" x="242" y="443" transform="rotate(289.96 242 443)">339</text><text data-sectionid="GL10" data-role="section" x="573.1" y="128.5" transform="rotate(-50 573.1 128.5)">BL10</text><text data-sectionid="GL11" data-role="section" x="579.7" y="135.6" transform="rotate(-48 579.7 135.6)">BL11</text><text data-sectionid="GL12" data-role="section" x="587.5" y="142.5" transform="rotate(-40 587.5 142.5)">BL12</text><text data-sectionid="GL13" data-role="section" x="594.4" y="150.9" transform="rotate(-30 594.4 150.9)">BL13</text><text data-sectionid="GL14" data-role="section" x="600.6" y="159.5" transform="rotate(-25 600.6 159.5)">BL14</text><text data-sectionid="GL15" data-role="section" x="604.8" y="168" transform="rotate(-20 604.8 168)">BL15</text><text data-sectionid="GL16" data-role="section" x="608.3" y="175.7" transform="rotate(-17 608.3 175.7)">BL16</text><text data-sectionid="GL17" data-role="section" x="611.3" y="183.3" transform="rotate(-15 611.3 183.3)">L17</text><text data-sectionid="GL20" data-role="section" x="582.8" y="116.1" transform="rotate(-50 582.8 116.1)">CS20</text><text data-sectionid="GL21" data-role="section" x="590.9" y="122" transform="rotate(-48 590.9 122)">CS21</text><text data-sectionid="GL22" data-role="section" x="600" y="130.9" transform="rotate(-40 600 130.9)">CS22</text><text data-sectionid="GL23" data-role="section" x="603.8" y="143.4" transform="rotate(55 603.8 143.4)">CS23</text><text data-sectionid="GL24" data-role="section" x="618.3" y="156.1" transform="rotate(-24 618.3 156.1)">CS24</text><text data-sectionid="GL25" data-role="section" x="623.6" y="168.7" transform="rotate(-17 623.6 168.7)">CS25</text><text data-sectionid="GL26" data-role="section" x="625.8" y="178.5" transform="rotate(-15 625.8 178.5)">CS26</text><text data-sectionid="RZ20" data-role="section" x="605.7" y="334.5" transform="rotate(20 605.7 334.5)">MT20</text><text data-sectionid="RZ21" data-role="section" x="604.5" y="343.1" transform="rotate(24 604.5 343.1)">MT21</text><text data-sectionid="RZ22" data-role="section" x="599.7" y="353.9" transform="rotate(28 599.7 353.9)">MT22</text><text data-sectionid="RZ23" data-role="section" x="592.3" y="364.7" transform="rotate(-52 592.3 364.7)">MT23</text><text data-sectionid="RZ24" data-role="section" x="582.3" y="376.5" transform="rotate(42 582.3 376.5)">MT24</text><text data-sectionid="RZ25" data-role="section" x="575.5" y="384.6" transform="rotate(45 575.5 384.6)">MT25</text><text data-sectionid="RZ26" data-role="section" x="565.7" y="388.1" transform="rotate(50 565.7 388.1)">MT26</text><text data-sectionid="west_end_suites" data-role="section" x="166.6" y="262.8" transform="rotate(270 166.6 262.8)">West End Suites</text><text class="is-d " text-anchor="middle" x="629.3" y="260.6" style="fill:#999; font-size:5.9px; " dominant-baseline="central" data-offset="0|0.3" transform="rotate(90 629.3 260.6)">EAST ENDZONE LOUNGE</text><text class="is-d " text-anchor="middle" x="393.5" y="90.2" style="fill:#999; font-size:5.9px; " dominant-baseline="central" data-offset="0|0.3" null="">CLUB</text><text class="is-d " text-anchor="middle" x="393" y="427.1" style="fill:#999; font-size:5.9px; " dominant-baseline="central" data-offset="0|0.3" null="">PRESS BOX</text><text class="is-d dyn-name-bench bench_home" text-anchor="middle" x="393" y="318.2" style="fill:#FFF; font-size:5.9px; " dominant-baseline="central" data-offset="0|0.3" null="">BILLS</text><text class="is-d " text-anchor="middle" x="153" y="262.8" style="fill:#999; font-size:5.9px; " dominant-baseline="central" data-offset="0|0.3" transform="rotate(270 153 262.8)">VIDEOBOARD</text><text class="is-d dyn-name-bench bench_visitor" text-anchor="middle" x="393" y="202.1" style="fill:#666; font-size:5.9px; " dominant-baseline="central" data-offset="0|0.3" null="">VISITOR</text></g></g><circle id="svgZoomCenter" r="1" stroke-width="0" fill-opacity="0" cx="320.75" cy="259.5"></circle><circle id="svgNorthWest" r="1" stroke-width="0" fill-opacity="0" cx="0" cy="0"></circle><circle id="svgSouthEast" r="1" stroke-width="0" fill-opacity="0" cx="794" cy="519"></circle><g id="svgmarkers" style="font-size: 10.3px;"><circle id="svg-marker-hover" data-ticket="" style="display: none;"></circle></g>undefined</g><circle id="svgZoomCenterLoad" r="1" stroke-width="0" fill-opacity="0" cx="397" cy="259.5"></circle></g></g></svg>