<svg xmlns="http://www.w3.org/2000/svg" xmlns:xlink="http://www.w3.org/1999/xlink" id="svgmap" width="100%" height="100%" style="touch-action: none;" viewBox="92.0 -13.8 610.0 544.7"><style>
polygon[id^="spoly_"] { fill: #d0d8e4; stroke: #7a8fa6; stroke-width: 2; }
polygon[id^="spoly_"]:hover { fill: #5b8ccc; cursor: pointer; }
.svgText { font-family: Arial, sans-serif; fill: #333; font-size: 9px; }
</style>
         <g id="svgdefs"><defs id="svgdefstyle">
      <linearGradient id="ticketGradient" x1="0%" y1="0%" x2="100%" y2="0%"><stop offset="0%" stop-color="#840ac9"></stop><stop offset="30%" stop-color="#d60eb2"></stop><stop offset="50%" stop-color="#fa0b81"></stop><stop offset="100%" stop-color="#fa0b81"></stop></linearGradient>
      <radialGradient id="markerGradient" cx="50%" cy="50%" r="50%"><stop offset="0%" stop-color="#fa0b81"></stop><stop offset="95%" stop-color="#d60eb2"></stop><stop offset="100%" stop-color="#840ac9"></stop></radialGradient>
      <linearGradient id="flagGradient" x1="0%" y1="0%" x2="100%" y2="100%">
         <stop offset="0%" stop-color="#840ac9"></stop>
         <stop offset="40%" stop-color="#d60eb2"></stop>
         <stop offset="80%" stop-color="#fa0b81"></stop>
         <stop offset="100%" stop-color="#c40665"></stop> 
      </linearGradient>      
      <linearGradient id="svgmapticket" x1="0%" y1="0%" x2="0%" y2="100%"><stop offset="0%" style="stop-color:#5BADFF;stop-opacity:1"></stop><stop offset="100%" style="stop-color:#0066CC;stop-opacity:1"></stop></linearGradient><linearGradient id="svgdealticket" x1="0%" y1="0%" x2="0%" y2="100%"> <stop offset="0%" style="stop-color:#66FF00;stop-opacity:1"></stop><stop offset="100%" style="stop-color:#61C100;stop-opacity:1"></stop></linearGradient><linearGradient id="svggreatticket" x1="0%" y1="0%" x2="0%" y2="100%"><stop offset="0%" style="stop-color:#00CC33;stop-opacity:1"></stop><stop offset="100%" style="stop-color:#009100;stop-opacity:1"></stop></linearGradient><filter id="coinShadow" x="-40%" y="-40%" width="200%" height="200%">            <feGaussianBlur in="SourceAlpha" stdDeviation="3"></feGaussianBlur><feOffset dx="2" dy="2" result="offsetblur"></feOffset><feMerge><feMergeNode></feMergeNode><feMergeNode in="SourceGraphic"></feMergeNode></feMerge></filter><path id="flag-with-arrow" d="M 9.33,0 L 32,0 A 8,8 0 0 1 32,16 L 25.33,16 L 20,20.67 L 14.67,16 L 8,16 A 8,8 0 0 1 8,0 Z"></path><path id="flag-with-arrow-medium" d="M 8,0 L 28,0 A 8,8 0 0 1 28,16 L 23.33,16 L 18,20.67 L 12.67,16 L 8,16 A 8,8 0 0 1 8,0 Z"></path><path id="flag-with-arrow-small" d="M 8,0 L 24,0 A 8,8 0 0 1 24,16 L 20,16 L 16,20.67 L 12,16 L 8,16 A 8,8 0 0 1 8,0 Z"></path></defs>  </g>
         <g class="testmask" mask="url(#fade)" style="scale: 0.95; transform-origin:center;">
         <g id="viewport" transform="matrix(1,0,0,1,0,0)" data-zoomfactor="100"><g id="scaleSVG" data-scale="1" transform="scale(1)" class="testrotate"><g id="svgelements"><image id="svgOverlay" class="nopointereventsmap" xlink:href="/assets/images/venues/overlays/cleveland-browns-stadium-nfl_5-2023_2.png" x="-117.8" y="-107.1" width="1029.4px" height="731.1px"></image><g id="svgpolygroup"><polygon id="spoly_101" data-role="section" data-sectionid="101" data-angle="343.1" points="236.1,354.7 236.5,354.6 258.7,337.6 262.4,341.6 281,325.9 278,319.4 287.5,314.7 287.2,313.7 253.2,317.1 253.2,321.9 255.4,327.6 243.2,332 240.3,325.1 225.1,328.8 227,335.9 228.8,341.7 230.7,346.2 232.4,349.6 233.9,352 235.1,353.6 236.1,354.7 236.1,354.7 "></polygon><polygon id="spoly_102" data-role="section" data-sectionid="102" data-angle="320.3" points="261.7,351.3 264.7,353.1 269.6,355.9 276.4,359.1 280.6,360.9 285.4,362.7 294.5,324.7 290.5,323.1 288.7,322.2 263.9,343.2 266.4,345.8 261.7,351.3 261.7,351.3 "></polygon><polygon id="spoly_104" data-role="section" data-sectionid="104" data-angle="306.8" points="287.5,363.5 296.4,366.4 306.8,369.3 314.7,330.5 309.2,329.1 304.2,327.8 296.6,325.4 287.5,363.5 287.5,363.5 "></polygon><polygon id="spoly_105" data-role="section" data-sectionid="105" data-angle="245" points="308.9,369.7 318.3,371.8 328.5,373.8 334.3,334.1 325,332.5 316.9,330.9 308.9,369.7 308.9,369.7 "></polygon><polygon id="spoly_106" data-role="section" data-sectionid="106" data-angle="258" points="330.7,374.1 340.7,375.6 351.5,376.8 355.2,336.5 345.4,335.5 336.5,334.3 330.7,374.1 330.7,374.1 "></polygon><polygon id="spoly_107" data-role="section" data-sectionid="107" data-angle="265.4" points="353.7,377 363.4,377.8 373.5,378.4 375.1,337.7 366,337.3 357.4,336.6 353.7,377 353.7,377 "></polygon><polygon id="spoly_108" data-role="section" data-sectionid="108" data-angle="268.5" points="375.7,378.5 385.4,378.8 395.6,378.9 395.6,338.1 386.3,338 377.3,337.8 375.7,378.5 375.7,378.5 "></polygon><polygon id="spoly_109" data-role="section" data-sectionid="109" data-angle="272.3" points="397.8,378.9 407.6,378.8 416.9,378.5 415.6,337.8 406.9,338 397.8,338.1 397.8,378.9 397.8,378.9 "></polygon><polygon id="spoly_110" data-role="section" data-sectionid="110" data-angle="295.9" points="419.1,378.5 429.8,377.9 439.9,377.1 436,336.6 427.1,337.2 417.8,337.7 419.1,378.5 419.1,378.5 "></polygon><polygon id="spoly_111" data-role="section" data-sectionid="111" data-angle="246.9" points="442,376.9 452.7,375.7 462.5,374.3 456.5,334.3 447.8,335.5 438.2,336.5 442,376.9 442,376.9 "></polygon><polygon id="spoly_112" data-role="section" data-sectionid="112" data-angle="256.1" points="464.7,374 474.7,372.2 483.8,370.3 476.5,330.9 468.2,332.5 458.7,334.1 464.7,374 464.7,374 "></polygon><polygon id="spoly_113" data-role="section" data-sectionid="113" data-angle="258" points="486,369.7 496.5,367 505.6,364.1 496.5,325.3 488.9,327.7 484.2,329 478.7,330.4 486,369.7 486,369.7 "></polygon><polygon id="spoly_115" data-role="section" data-sectionid="115" data-angle="239.2" points="507.6,363.4 513.5,361.2 518.4,359.1 522.6,357.1 525.9,355.4 530.1,352.8 531.5,351.9 526.5,346.4 529,343.4 504.7,321.7 504.5,322.1 503,322.9 498.6,324.6 507.6,363.4 507.6,363.4 "></polygon><polygon id="spoly_117" data-role="section" data-sectionid="117" data-angle="195.7" points="530.4,341.7 533.7,337.6 555.7,354.7 556.8,353.4 557.9,351.6 559.5,349 561.2,345.4 563.2,340.7 565.1,334.8 567,327.6 552.8,324 550.1,332.5 538.5,329 540.7,320.7 540.7,317.1 506.6,313.1 505.9,316.8 505.4,319.4 530.4,341.7 530.4,341.7 "></polygon><polygon id="spoly_118" data-role="section" data-sectionid="118" data-angle="183.7" points="567.6,325.4 569.5,316.1 571.1,305 545.4,301.3 545.4,295.1 556.4,295.1 556.4,300.7 571.3,302.8 572.2,294.6 572.8,285.6 543.2,284 543.1,294.6 508.7,293 507.9,303.2 507,310.8 540.6,314.7 540.6,296.4 543.1,296.4 543.1,301 543.1,301 542.7,315.1 543.3,319.1 567.6,325.4 567.6,325.4 "></polygon><polygon id="spoly_119" data-role="section" data-sectionid="119" data-angle="180" points="572.8,283.5 573.3,273.5 573.4,262.6 543.6,262.6 543.6,273.7 509.3,272.7 509.1,282.4 508.7,290.8 540.8,292.3 540.8,281.9 572.8,283.5 572.8,283.5 "></polygon><polygon id="spoly_120" data-role="section" data-sectionid="120" data-angle="180" points="573.4,260.4 573.1,246.6 556.3,246.6 556.3,251.5 545.2,251.5 545.2,246.6 542.8,246.6 542.8,251.2 540.6,251.2 509.3,251.8 509.4,260.9 509.3,270.5 541.4,271.4 541.4,260.4 573.4,260.4 573.4,260.4 "></polygon><polygon id="spoly_121" data-role="section" data-sectionid="121" data-angle="179" points="540.5,249 540.4,246.5 540.4,232.4 542.6,232.3 542.6,234.3 542.6,244.3 573.1,244.3 572.4,231.7 545.4,233.2 545.4,226.1 556.4,226.1 556.4,230.4 572.3,229.5 571.6,222.1 570.8,215.3 542.6,217.7 542.6,230.5 508.7,232.1 509.2,240.2 509.4,249.6 540.5,249 540.5,249 "></polygon><polygon id="spoly_122" data-role="section" data-sectionid="122" data-angle="177.6" points="570.4,213.2 569.3,206.4 568.2,200.2 567,194.8 565.7,189.9 540.4,198.3 541.5,207.8 506.5,212 507.6,219.7 508.5,229.9 540.3,228.4 540.3,215.7 570.4,213.2 570.4,213.2 "></polygon><polygon id="spoly_124" data-role="section" data-sectionid="124" data-angle="165.9" points="565.1,187.8 562.8,181 560.6,176 558.8,172.7 557.5,170.7 545.1,179.4 547.3,182.5 537.3,189.5 535.1,186.4 505.6,207.1 506.1,209.9 539.1,205.9 538,196.7 565.1,187.8 565.1,187.8 "></polygon><polygon id="spoly_125" data-role="section" data-sectionid="125" data-angle="142.2" points="548.4,174.4 547.2,172.6 544.7,169.6 543,167.8 540.7,165.8 538,163.6 534.9,161.2 531.9,165 534.8,167.2 527.2,176.7 524.5,174.5 503.8,201 504.3,202.5 505,204.8 533.9,184.6 531.7,181.4 541.6,174.4 543.8,177.6 548.4,174.4 548.4,174.4 "></polygon><polygon id="spoly_127" data-role="section" data-sectionid="127" data-angle="116.8" points="533,160 528.5,157.2 523.3,154.5 517.3,151.6 510.5,148.8 509.2,154.3 512.5,155.2 509.4,166.9 505.9,166 497.4,198.1 502.1,199.6 522.7,173.1 519.4,170.7 527,161.1 530.2,163.6 533,160 533,160 "></polygon><polygon id="spoly_129" data-role="section" data-sectionid="129" data-angle="105.8" points="508.5,148.1 499.5,145.2 489.4,142.3 488.2,147.9 491.7,148.7 489.2,160.5 485.6,159.8 478.7,192.9 488.1,195.3 495.3,197.3 503.8,165.4 499.9,164.3 503,152.6 506.9,153.7 508.5,148.1 508.5,148.1 "></polygon><polygon id="spoly_130" data-role="section" data-sectionid="130" data-angle="105.8" points="487.2,141.9 477.3,139.6 466.4,137.7 465.6,143.6 469.7,144.2 468,156.2 463.9,155.7 459.2,189.3 468.4,190.9 476.5,192.5 483.5,159.3 479.5,158.5 482,146.6 486,147.5 487.2,141.9 487.2,141.9 "></polygon><polygon id="spoly_131" data-role="section" data-sectionid="131" data-angle="111.1" points="464.2,137.4 453.9,136 451.5,154.5 440.7,153.8 437.7,186.6 447.8,187.7 457,189 461.8,155.3 458.2,154.8 459.8,142.8 463.4,143.3 464.2,137.4 464.2,137.4 "></polygon><polygon id="spoly_132" data-role="section" data-sectionid="132" data-angle="72" points="416.9,185.1 426.5,185.7 435.5,186.3 438.6,153.6 430.2,153 430.2,150.8 430.5,150.9 449.6,152.1 451.8,135.6 442,134.6 431.6,133.9 430.6,149.6 428.4,149.5 429.4,133.8 415,133.1 414.7,150 428.3,150.7 428.4,150.7 428.4,152.9 418.2,152.4 416.9,185.1 416.9,185.1 "></polygon><polygon id="spoly_133" data-role="section" data-sectionid="133" data-angle="90" points="412.9,133.1 397.8,132.8 397.8,138.9 401.4,138.9 401.4,151.1 397.8,151.1 397.8,184.7 406.5,184.8 414.6,185.1 416,152.3 412.4,152.1 412.9,133.1 412.9,133.1 "></polygon><polygon id="spoly_134" data-role="section" data-sectionid="134" data-angle="90" points="395.6,132.8 379,133.1 379.4,152.6 375.9,152.9 377.2,185.2 386.2,184.9 395.6,184.7 395.6,151.1 391.5,151.1 391.5,138.9 395.6,138.9 395.6,132.8 395.6,132.8 "></polygon><polygon id="spoly_135" data-role="section" data-sectionid="135" data-angle="94.6" points="356.3,186.5 365.3,185.8 375,185.2 373.7,152.9 363.4,153.5 363.3,151.3 363.5,151.3 377.2,150.5 376.7,133.1 362.4,133.8 363.5,149.8 361.3,150 360.2,133.9 349.8,134.6 340,135.6 342.3,152.6 361.3,151.5 361.6,151.4 361.7,153.6 353.3,154.1 356.3,186.5 356.3,186.5 "></polygon><polygon id="spoly_136" data-role="section" data-sectionid="136" data-angle="100.5" points="337.8,136 328.4,137.2 329.3,143.9 332.8,143.3 334.5,155.4 331,155.8 335.6,189.1 344.5,187.9 354.1,186.9 351.1,154.4 340.4,155 337.8,136 337.8,136 "></polygon><polygon id="spoly_137" data-role="section" data-sectionid="137" data-angle="124.9" points="326.2,137.5 315.7,139.3 306.2,141.3 307.5,148 311.6,147.2 314.1,159.1 310.1,159.9 317,192.5 323.4,191.1 321.7,181 327.4,179.8 329.2,190.1 333.4,189.4 328.8,156.2 324.7,156.8 323,144.7 327.1,144.2 326.2,137.5 326.2,137.5 "></polygon><polygon id="spoly_138" data-role="section" data-sectionid="138" data-angle="56.1" points="304,141.8 293.8,144.4 284.8,147.3 286.6,154.3 290.6,153.2 293.8,164.9 289.8,166 298.1,197.2 303.9,195.6 310.3,193.9 314.8,192.9 307.9,160.4 304.4,161.1 301.9,149.2 305.4,148.5 304,141.8 304,141.8 "></polygon><polygon id="spoly_139" data-role="section" data-sectionid="139" data-angle="40.9" points="282.6,148 275.6,150.8 269.3,153.5 264,156.3 259.5,159.1 263.4,164.1 266.7,161.6 274.2,171.2 270.9,173.7 286.8,194.3 285.6,196.1 291.8,199.2 296,197.8 287.6,166.5 284.2,167.4 281.1,155.8 284.5,154.8 282.6,148 282.6,148 "></polygon><polygon id="spoly_141" data-role="section" data-sectionid="141" data-angle="21.3" points="284.7,194.4 269.1,175.1 266.3,177.3 258.9,167.7 261.7,165.5 257.6,160.3 254.2,162.7 251.4,165.1 249.2,167.2 247.5,169 245.4,171.7 244.9,172.6 237.2,167.1 236,168.4 234.7,170.2 233,173 277.7,198.2 280.4,193.5 284.1,195.3 "></polygon><polygon id="spoly_144" data-role="section" data-sectionid="144" data-angle="15.4" points="287.5,209.5 287.7,207.9 275.2,203.5 276.8,200.2 231.9,174.9 230.3,178.7 228.5,183.4 226.7,189.2 225,196 253.8,200.4 253.3,205.9 287.5,209.5 287.5,209.5 "></polygon><polygon id="spoly_145" data-role="section" data-sectionid="145" data-angle="4.6" points="284.9,230.3 286,220.2 287.1,211.7 252.6,208 252.8,209.6 238.3,209.6 238.3,200.3 224.4,198.2 223,205.6 221.7,214.2 255.4,216.9 255.4,228.4 284.9,230.3 284.9,230.3 "></polygon><polygon id="spoly_146" data-role="section" data-sectionid="146" data-angle="4.4" points="283.7,250.1 284.1,241 284.8,232.5 253.2,230.5 253.2,218.9 221.5,216.3 220.5,226 219.6,236.8 253.7,238.4 253.7,249.6 283.7,250.1 283.7,250.1 "></polygon><polygon id="spoly_147" data-role="section" data-sectionid="147" data-angle="360" points="283.5,271.2 283.4,260.3 283.5,252.2 253.7,251.8 253.7,260.7 251.4,260.7 251.4,254.2 238.2,254.2 238.2,247 251.4,247 251.4,240.4 219.5,238.9 219,249.2 218.9,260.6 250.1,260.6 250.1,262.8 218.9,262.8 219,273.8 219.5,283.9 251.4,282.9 251.4,262.6 253.7,262.6 253.7,271.6 283.5,271.2 283.5,271.2 "></polygon><polygon id="spoly_148" data-role="section" data-sectionid="148" data-angle="357.9" points="284.7,290.8 284.1,282.6 283.7,273.5 253.7,273.9 253.7,285.2 219.6,286.2 220.1,293.5 220.6,300.4 237.2,299.3 237.2,291.2 249.3,291.2 249.3,292.3 284.7,290.8 284.7,290.8 "></polygon><polygon id="spoly_149" data-role="section" data-sectionid="149" data-angle="355.6" points="286.9,311.5 286,304.1 284.8,293 251,294.6 251,300.5 220.8,302.6 221.7,309.5 222.6,315.8 223.5,321.5 224.6,326.6 251,320.2 251,315 286.9,311.5 286.9,311.5 "></polygon><polygon id="spoly_301" data-role="section" data-sectionid="301" data-angle="316.2" points="231.7,386.2 237.1,378.8 234.1,376.5 241.1,367.1 244.2,369.4 249,362.7 246.5,360.6 244,358.4 222.8,378.6 227.1,382.5 231.7,386.2 231.7,386.2 "></polygon><polygon id="spoly_302" data-role="section" data-sectionid="302" data-angle="300.2" points="248.1,373.8 241.8,382.4 238.8,380.1 233.4,387.5 236.7,389.8 240.2,392.1 243.8,394.3 247.6,396.3 255.9,378.3 248.1,373.8 248.1,373.8 "></polygon><polygon id="spoly_303" data-role="section" data-sectionid="303" data-angle="293.3" points="264.7,403.5 267.1,394.6 263.5,393.6 266.5,382.1 270.1,383.1 272.5,373.8 266.7,371.7 261.2,369.4 256.3,367.1 251.8,364.6 250.8,363.9 246,370.5 258.3,377.5 249.2,397.1 250.6,397.8 257.5,400.8 264.7,403.5 264.7,403.5 "></polygon><polygon id="spoly_304" data-role="section" data-sectionid="304" data-angle="298.8" points="291,410.9 292.8,400 289.3,399.4 291.3,387.7 294.9,388.4 296.3,380.2 285,377.5 274.6,374.4 272.2,383.7 275.8,384.7 272.7,396.2 269.1,395.2 266.8,404.2 272.5,406 278.5,407.8 291,410.9 291,410.9 "></polygon><polygon id="spoly_305" data-role="section" data-sectionid="305" data-angle="212.5" points="316.9,415.8 318.2,405.6 314.5,405.1 315.9,393.2 319.6,393.7 320.7,384.7 309.4,382.9 298.4,380.7 297,388.7 300.6,389.4 298.6,401.1 295,400.4 293,411.3 304.9,413.7 316.9,415.8 316.9,415.8 "></polygon><polygon id="spoly_306" data-role="section" data-sectionid="306" data-angle="258.4" points="343.8,419.2 344.6,408.8 340.9,408.6 341.7,396.6 345.4,396.9 346,387.9 334.4,386.6 322.8,385.1 321.7,394 325.4,394.4 324,406.2 320.3,405.7 319,416.1 331.5,417.9 343.8,419.2 343.8,419.2 "></polygon><polygon id="spoly_307" data-role="section" data-sectionid="307" data-angle="266.4" points="369.7,421.2 369.9,410.5 366.1,410.4 366.4,398.6 370.1,398.7 370.3,389.8 359.2,389 348.1,388.1 347.5,397.1 351.2,397.4 350.3,409.2 346.7,409 345.9,419.4 358.1,420.4 369.7,421.2 369.7,421.2 "></polygon><polygon id="spoly_308" data-role="section" data-sectionid="308" data-angle="265.7" points="395.3,421.9 395.3,410.5 391.6,410.5 391.6,398.7 395.3,398.7 395.3,390.5 384,390.3 372.4,389.8 372.2,398.7 375.9,398.8 375.7,410.6 372,410.5 371.8,421.3 384,421.7 395.3,421.9 395.3,421.9 "></polygon><polygon id="spoly_309" data-role="section" data-sectionid="309" data-angle="276" points="421.9,421.3 421.7,410.5 418,410.6 417.8,398.8 421.5,398.7 421.3,389.7 409.1,390.3 397.4,390.5 397.4,398.7 401,398.7 401,410.5 397.4,410.5 397.4,421.9 409.2,421.7 421.9,421.3 421.9,421.3 "></polygon><polygon id="spoly_310" data-role="section" data-sectionid="310" data-angle="278.3" points="447.7,419.3 447.1,409 443.3,409.2 442.6,397.4 446.2,397.1 445.6,387.5 434.5,388.7 423.5,389.5 423.6,398.7 427.3,398.6 427.5,410.4 423.8,410.5 424,421.1 435.7,420.3 447.7,419.3 447.7,419.3 "></polygon><polygon id="spoly_311" data-role="section" data-sectionid="311" data-angle="256.4" points="474.6,415.9 473.4,405.7 469.7,406.2 468.3,394.4 472,394 470.8,384.1 459.4,385.8 447.7,387.3 448.3,396.9 452,396.6 452.8,408.6 449.2,408.8 449.8,419.1 462.2,417.7 474.6,415.9 474.6,415.9 "></polygon><polygon id="spoly_312" data-role="section" data-sectionid="312" data-angle="259.6" points="500.6,411.1 498.8,400.4 495.1,401.1 493.1,389.4 496.8,388.7 495.2,379.7 484.4,381.9 472.9,383.8 474.1,393.7 477.7,393.2 479.2,405.1 475.5,405.6 476.7,415.6 488.8,413.5 500.6,411.1 500.6,411.1 "></polygon><polygon id="spoly_313" data-role="section" data-sectionid="313" data-angle="254.5" points="526.9,403.9 524.6,395.2 521,396.2 518,384.7 521.6,383.7 519,374 508.9,376.6 497.2,379.3 498.8,388.4 502.4,387.7 504.5,399.4 500.8,400 502.6,410.6 515,407.5 521.1,405.7 526.9,403.9 526.9,403.9 "></polygon><polygon id="spoly_314" data-role="section" data-sectionid="314" data-angle="246.4" points="547.7,370.7 547.9,370.6 542.2,363 539.7,364.9 537.2,366.6 534.5,368.2 531.8,369.4 526.9,371.4 521,373.3 523.6,383.1 527.2,382.1 530.2,393.6 526.6,394.6 528.9,403.3 536.1,400.6 542.9,397.8 544.9,396.8 536.2,377.4 547.7,370.7 547.7,370.7 "></polygon><polygon id="spoly_315" data-role="section" data-sectionid="315" data-angle="216.2" points="560.4,387.6 554.9,380.1 552,382.4 545.7,374 538.6,378.2 546.5,396.1 550.2,394.2 553.8,392.1 557.2,389.9 560.4,387.6 560.4,387.6 "></polygon><polygon id="spoly_316" data-role="section" data-sectionid="316" data-angle="195.4" points="549.4,356.4 546.7,359.1 543.9,361.6 549.6,369.4 552.5,367.1 559.6,376.5 556.5,378.8 562.1,386.4 566.3,383.1 570.1,379.7 549.4,356.4 549.4,356.4 "></polygon><polygon id="spoly_317" data-role="section" data-sectionid="317" data-angle="354.9" points="579.7,327.2 578.8,335 600.8,339.8 617.5,339.8 618.2,334 601.8,331.1 601.2,334.9 589.2,332.8 589.9,329 579.7,327.2 579.7,327.2 "></polygon><polygon id="spoly_318" data-role="section" data-sectionid="318" data-angle="355.9" points="582.1,302.3 581.1,314.2 580,325 590.3,326.8 591,323 602.9,325.2 602.2,328.9 618.5,331.8 621.2,305.8 604.1,304.2 603.8,308.1 591.7,307.1 592.1,303.2 582.1,302.3 582.1,302.3 "></polygon><polygon id="spoly_319" data-role="section" data-sectionid="319" data-angle="357.6" points="583.6,276.3 583,288.4 582.3,300.2 592.3,301 592.6,297.1 604.7,298.2 604.3,302.1 621.4,303.6 622.6,289.8 623.5,276.3 607.5,276.3 607.5,280.2 595.4,280.2 595.4,276.3 583.6,276.3 583.6,276.3 "></polygon><polygon id="spoly_320" data-role="section" data-sectionid="320" data-angle="360" points="583.7,250.4 583.8,261.5 583.6,274.1 595.4,274.1 595.4,270.3 607.5,270.3 607.5,274.1 619.6,274.1 619.6,250.4 607.5,250.4 607.5,254.3 595.4,254.3 595.4,250.4 583.7,250.4 583.7,250.4 "></polygon><polygon id="spoly_321" data-role="section" data-sectionid="321" data-angle="2.9" points="582.4,224.6 583.1,235.8 583.6,248.2 595.4,248.2 595.4,244.4 607.5,244.4 607.5,248.2 623.7,248.2 622.7,234.9 621.4,221.2 606.5,222.5 606.9,226.3 594.8,227.3 594.5,223.5 582.4,224.6 582.4,224.6 "></polygon><polygon id="spoly_322" data-role="section" data-sectionid="322" data-angle="1.4" points="579.5,199.9 580.8,209.7 582.2,222.4 594.3,221.3 593.9,217.4 606,216.4 606.3,220.3 621.1,219 620.8,216.4 607,212.3 603.2,199.6 593.2,201.4 592.5,197.6 579.5,199.9 579.5,199.9 "></polygon><polygon id="spoly_323" data-role="section" data-sectionid="323" data-angle="7" points="577.7,189.6 577.8,189.7 579.1,197.7 592.1,195.4 591.5,191.6 600.3,190.1 598.7,184.8 577.7,189.6 577.7,189.6 "></polygon><polygon id="spoly_324" data-role="section" data-sectionid="324" data-angle="6.5" points="601.7,163.4 596.8,156.3 585.1,162.7 587,166.2 576.4,172 574.5,168.6 567.3,172.7 571.5,178.9 576.8,176.6 584.7,172.4 601.7,163.4 601.7,163.4 "></polygon><polygon id="spoly_325" data-role="section" data-sectionid="325" data-angle="6.9" points="595.5,154.6 590.4,148.2 584.6,141.8 569.6,155.5 573.4,162.4 582.2,157.5 584.1,160.8 595.5,154.6 595.5,154.6 "></polygon><polygon id="spoly_326" data-role="section" data-sectionid="326" data-angle="126.6" points="550.1,153.5 554.5,157.6 558.8,161.9 562.5,166.4 566,170.9 573.3,166.8 566.7,155 583,140.2 583,140.2 583,140.2 579.8,137.1 576.4,134 572.9,131.1 569.1,128.2 563.3,136 566.5,138.3 559.1,147.9 556.1,145.6 550.1,153.5 548.4,152.2 554.1,144.6 543.6,137.8 543.6,137.8 543.6,137.8 539.6,146.5 544.1,149.1 548.4,152.2 "></polygon><polygon id="spoly_327" data-role="section" data-sectionid="327" data-angle="150.7" points="567.4,126.9 563.9,124.5 560.2,122.3 556.5,120.2 552.6,118.2 544.6,135.7 552.2,140.7 558.5,132.3 561.6,134.6 567.4,126.9 567.4,126.9 "></polygon><polygon id="spoly_328" data-role="section" data-sectionid="328" data-angle="120.2" points="550.5,117.2 549,116.5 541.9,113.7 534.5,111 532.1,119.8 535.9,120.9 532.8,132.6 529,131.5 526.3,141.6 532.5,143.6 537.5,145.5 537.5,145.5 550.5,117.2 550.5,117.2 "></polygon><polygon id="spoly_329" data-role="section" data-sectionid="329" data-angle="110.7" points="532.4,110.3 526.3,108.4 520.1,106.6 507.2,103.4 505.3,114.2 509.1,114.9 506.9,126.8 503.2,126.2 501.5,135.5 513.7,138.2 524.2,140.9 526.9,131 523.1,130 526.2,118.3 530,119.2 532.4,110.3 532.4,110.3 "></polygon><polygon id="spoly_330" data-role="section" data-sectionid="330" data-angle="100.3" points="505,103 492.7,100.5 480.2,98.4 478.9,108.7 482.8,109.2 481.3,121.2 477.5,120.8 476.2,130.9 488.1,132.8 499.4,135 501,125.8 497.2,125.2 499.3,113.2 503.1,113.9 505,103 505,103 "></polygon><polygon id="spoly_331" data-role="section" data-sectionid="331" data-angle="99.3" points="478,98 465.1,96.3 452.2,94.8 451.5,105.3 455.3,105.6 454.5,117.7 450.6,117.4 449.9,127.3 462.1,128.9 474.1,130.5 475.3,120.5 471.4,120 472.9,107.9 476.7,108.4 478,98 478,98 "></polygon><polygon id="spoly_332" data-role="section" data-sectionid="332" data-angle="157.6" points="450,94.5 437.4,93.5 425.3,92.7 425.1,103.5 429,103.6 428.8,115.8 424.9,115.7 424.7,125 436.2,125.9 447.7,127.1 448.4,117.3 444.6,117 445.4,104.8 449.3,105.1 450,94.5 450,94.5 "></polygon><polygon id="spoly_333" data-role="section" data-sectionid="333" data-angle="90" points="423.1,92.6 409.9,92 397.6,91.8 397.6,103.5 401.4,103.5 401.4,115.7 397.6,115.7 397.6,124 409.9,124.3 422.5,124.9 422.7,115.7 418.9,115.6 419,103.4 422.9,103.5 423.1,92.6 423.1,92.6 "></polygon><polygon id="spoly_334" data-role="section" data-sectionid="334" data-angle="90" points="395.3,91.8 383.6,92 370.9,92.6 371.2,103.5 375,103.4 375.2,115.6 371.4,115.7 371.6,124.6 383.7,124.2 395.3,124 395.3,115.7 391.5,115.7 391.5,103.5 395.3,103.5 395.3,91.8 395.3,91.8 "></polygon><polygon id="spoly_335" data-role="section" data-sectionid="335" data-angle="93" points="368.7,92.7 356.6,93.4 344,94.4 344.7,105.1 348.6,104.8 349.5,117 345.7,117.3 346.3,126.5 357.9,125.5 369.4,124.7 369.2,115.7 365.3,115.8 365.1,103.6 369,103.5 368.7,92.7 368.7,92.7 "></polygon><polygon id="spoly_336" data-role="section" data-sectionid="336" data-angle="100.2" points="341.8,94.6 328.9,96.1 316,97.8 317.3,108.4 321.1,107.9 322.6,120 318.7,120.5 319.9,129.6 332,128 344.1,126.7 343.5,117.4 339.6,117.7 338.8,105.6 342.6,105.3 341.8,94.6 341.8,94.6 "></polygon><polygon id="spoly_337" data-role="section" data-sectionid="337" data-angle="155.3" points="313.8,98.1 301.3,100.2 289,102.6 290.9,113.9 294.8,113.2 296.8,125.2 293,125.8 294.5,134 305.9,131.8 317.7,130 316.6,120.8 312.8,121.2 311.3,109.2 315.2,108.7 313.8,98.1 313.8,98.1 "></polygon><polygon id="spoly_338" data-role="section" data-sectionid="338" data-angle="63.9" points="286.8,103.2 280.3,104.6 273.8,106.3 267.6,108.1 261.6,110 264,119.2 267.8,118.3 270.9,130 267.2,131 269.7,140.5 280.6,137.3 292.3,134.5 290.8,126.2 287.1,126.8 284.9,114.9 288.8,114.2 286.8,103.2 286.8,103.2 "></polygon><polygon id="spoly_339" data-role="section" data-sectionid="339" data-angle="68" points="259.5,110.7 251.9,113.5 244.7,116.5 244.3,116.7 256.5,145.3 261.8,143.1 267.6,141.1 265,131.5 261.3,132.6 258.2,120.9 261.9,119.8 259.5,110.7 259.5,110.7 "></polygon><polygon id="spoly_340" data-role="section" data-sectionid="340" data-angle="61.5" points="242.7,117.5 238.5,119.7 234.4,122.1 230.6,124.5 226.8,127.1 232.5,134.6 235.5,132.3 242.9,141.9 239.7,144.3 244.9,151.2 246,150.5 250.1,148.2 254.7,146 242.7,117.5 242.7,117.5 "></polygon><polygon id="spoly_341" data-role="section" data-sectionid="341" data-angle="48.2" points="225.1,128.4 221.7,131.1 218.4,133.7 212.4,139.4 228.3,154.6 220.7,166.9 227.7,170.7 230.8,165.4 232.6,162.9 234.4,160.5 236.4,158.3 238.6,156.2 240.8,154.3 243.1,152.4 238,145.6 234.9,147.9 227.6,138.3 230.7,136 225.1,128.4 225.1,128.4 "></polygon><polygon id="spoly_342" data-role="section" data-sectionid="342" data-angle="32.5" points="210.8,141 207.5,144.5 204.4,147.9 198.9,154.7 210,160.8 211.8,157.5 220.8,162.5 225.3,155 210.8,141 210.8,141 "></polygon><polygon id="spoly_343" data-role="section" data-sectionid="343" data-angle="10.3" points="197.6,156.5 192.2,164.1 186.5,161.7 183.2,160.4 182.8,161.2 181.9,163.5 180.7,167.3 179.2,172.5 222.4,183.4 224.4,177.8 226.7,172.7 219.5,168.6 217.6,172 207.1,166.2 208.9,162.7 197.6,156.5 197.6,156.5 "></polygon><polygon id="spoly_344" data-role="section" data-sectionid="344" data-angle="6.2" points="178.7,174.7 177.1,181.7 175.5,190.2 195.5,193.3 196,189.5 208.1,191.4 207.4,195.2 218.7,197 220.1,191.2 221.7,185.6 178.7,174.7 178.7,174.7 "></polygon><polygon id="spoly_345" data-role="section" data-sectionid="345" data-angle="2.8" points="175.1,192.3 173.4,204.8 172.7,211.8 172.1,219.2 194.3,220.7 194.6,216.9 206.6,217.8 206.3,221.6 215.3,222.2 215.9,216.3 216.5,210.4 217.3,204.7 218.3,199.2 207.1,197.4 206.5,201.2 194.6,199.3 195.1,195.5 175.1,192.3 175.1,192.3 "></polygon><polygon id="spoly_346" data-role="section" data-sectionid="346" data-angle="360" points="171.9,221.4 171.2,233.5 171,246.6 171,247.7 194.2,247.7 194.2,243.8 206.3,243.8 206.3,247.7 214.1,247.7 214.5,236 215.1,224.4 206.2,223.8 205.9,227.7 193.8,226.8 194.1,222.9 171.9,221.4 171.9,221.4 "></polygon><polygon id="spoly_347" data-role="section" data-sectionid="347" data-angle="360" points="177.7,249.9 177.7,274.7 194.2,274.7 194.2,270.8 206.3,270.8 206.3,274.7 214.2,274.7 214,260.9 214.1,249.9 206.3,249.9 206.3,253.7 194.2,253.7 194.2,249.9 177.7,249.9 177.7,249.9 "></polygon><polygon id="spoly_348" data-role="section" data-sectionid="348" data-angle="353.6" points="177.7,276.9 177.7,289.6 159.5,302.3 159.7,304 193.5,301.6 193.3,297.8 205.4,296.9 205.7,300.8 215.5,300.1 214.8,289.1 214.3,276.9 206.3,276.9 206.3,280.8 194.2,280.8 194.2,276.9 177.7,276.9 177.7,276.9 "></polygon><polygon id="spoly_349" data-role="section" data-sectionid="349" data-angle="354.8" points="159.9,306.2 162.9,332.8 197.4,328.6 196.9,324.7 208.9,323.2 209.4,327.1 218.3,326 217,316 215.7,302.3 205.9,303 206.1,306.9 194,307.7 193.7,303.8 159.9,306.2 159.9,306.2 "></polygon><polygon id="spoly_350" data-role="section" data-sectionid="350" data-angle="355.9" points="163.1,335 163.7,340.6 198.2,340.6 198,339.8 219.6,334.8 219.5,333.7 218.6,328.2 209.6,329.3 210.2,333.2 198.1,334.6 197.6,330.8 163.1,335 163.1,335 "></polygon><polygon id="spoly_351" data-role="section" data-sectionid="351" data-angle="357.8" points="167.5,342.8 171.6,368.4 200.9,355.1 198.6,342.8 167.5,342.8 "></polygon><polygon id="spoly_501" data-role="section" data-sectionid="501" data-angle="322" points="170.9,450.8 196,417.4 192.9,415 200.3,405.4 203.3,407.7 212,396.2 205.5,390.7 158.6,440.2 164.5,445.6 170.9,450.8 170.9,450.8 "></polygon><polygon id="spoly_502" data-role="section" data-sectionid="502" data-angle="315.7" points="198.1,467.9 227,406.3 220.1,402.1 213.8,397.6 205.1,409 208.2,411.3 200.9,421 197.8,418.7 172.5,452.1 178.5,456.5 184.7,460.6 191.3,464.4 198.1,467.9 198.1,467.9 "></polygon><polygon id="spoly_503" data-role="section" data-sectionid="503" data-angle="292.4" points="228.6,479.3 238.7,438.6 235.1,437.7 238,425.9 241.7,426.9 244.8,414.5 239.7,412.4 235,410.3 228.9,407.4 200.2,468.8 206.9,471.7 213.8,474.4 221.1,476.9 228.6,479.3 228.6,479.3 "></polygon><polygon id="spoly_504" data-role="section" data-sectionid="504" data-angle="287.3" points="260.8,487.4 268.7,446.6 264.9,445.9 267.2,434 271,434.8 273.3,423.2 266.4,421.4 259.6,419.4 253.2,417.4 246.9,415.2 243.9,427.4 247.6,428.3 244.6,440.1 240.9,439.2 230.7,480 238,482 245.4,483.9 260.8,487.4 260.8,487.4 "></polygon><polygon id="spoly_505" data-role="section" data-sectionid="505" data-angle="294.9" points="294.7,493.4 299.7,452.5 295.9,452 297.3,440 301.2,440.5 302.6,429.2 288.8,426.7 275.4,423.7 273.2,435.1 276.9,435.9 274.7,447.8 270.9,447.1 262.9,487.9 278.7,490.8 294.7,493.4 294.7,493.4 "></polygon><polygon id="spoly_506" data-role="section" data-sectionid="506" data-angle="244.7" points="327.7,497.4 331.2,456.3 327.4,455.9 328.5,443.9 332.2,444.1 333.3,433.4 319,431.6 304.8,429.5 303.4,440.7 307.3,441.2 305.7,453.2 301.9,452.8 296.9,493.7 312.3,495.8 327.7,497.4 327.7,497.4 "></polygon><polygon id="spoly_507" data-role="section" data-sectionid="507" data-angle="263.5" points="361.1,499.9 363.3,459 359.4,458.7 360.1,446.7 363.9,446.9 364.5,436.1 350.2,435 335.5,433.7 334.4,444.4 338.3,444.7 337.3,456.8 333.4,456.4 329.9,497.6 345.7,499 361.1,499.9 361.1,499.9 "></polygon><polygon id="spoly_508" data-role="section" data-sectionid="508" data-angle="268.8" points="394.2,437.1 381,436.8 366.7,436.1 366.1,447 370,447.2 369.4,459.3 365.5,459.1 363.3,500 379.4,500.6 394.2,500.9 394.2,459.1 390.4,459.1 390.4,447 394.2,447 394.2,437.1 394.2,437.1 "></polygon><polygon id="spoly_509" data-role="section" data-sectionid="509" data-angle="273.6" points="396.4,437.1 396.4,437.1 396.4,447 400.3,447 400.3,459.1 396.4,459.1 396.4,500.9 411.6,500.6 428,500 425.8,459.7 422,459.8 421.3,447.7 425.2,447.5 424.6,436.2 410,436.9 396.4,437.1 396.4,437.1 396.4,437.1 "></polygon><polygon id="spoly_510" data-role="section" data-sectionid="510" data-angle="244" points="461.4,497.5 457.9,457 454,457.4 452.9,445.2 456.8,445 455.8,433.8 441.1,435.1 426.8,436.1 427.4,447.4 431.3,447.3 431.8,459.3 428,459.6 430.2,499.9 445.5,498.9 461.4,497.5 461.4,497.5 "></polygon><polygon id="spoly_511" data-role="section" data-sectionid="511" data-angle="261.6" points="494.3,493.6 489.4,453.3 485.5,453.8 484.1,441.7 487.8,441.3 486.5,429.6 472.2,431.7 458,433.5 459,444.7 462.9,444.4 463.9,456.4 460,456.8 463.6,497.3 478.9,495.7 494.3,493.6 494.3,493.6 "></polygon><polygon id="spoly_512" data-role="section" data-sectionid="512" data-angle="261.1" points="528.2,487.7 520.4,447.6 516.7,448.4 514.3,436.4 518.2,435.7 515.8,423.8 502.4,426.7 488.7,429.3 490,441 493.9,440.6 495.4,452.6 491.5,453 496.5,493.3 512.5,490.7 528.2,487.7 528.2,487.7 "></polygon><polygon id="spoly_513" data-role="section" data-sectionid="513" data-angle="249.9" points="560.3,479.8 550.4,439.7 546.6,440.6 543.7,428.9 547.5,428 544.3,415.6 538,417.7 531.5,419.7 524.8,421.5 518,423.3 520.3,435.3 524,434.6 526.4,446.4 522.6,447.2 530.4,487.2 545.6,483.7 553.1,481.8 560.3,479.8 560.3,479.8 "></polygon><polygon id="spoly_514" data-role="section" data-sectionid="514" data-angle="256.6" points="591.7,468.8 562.7,408 557.7,410.3 552.2,412.6 546.4,414.8 549.6,427.4 553.3,426.5 556.3,438.3 552.5,439.2 562.4,479.2 570.2,476.8 577.7,474.3 584.8,471.6 591.7,468.8 591.7,468.8 "></polygon><polygon id="spoly_515" data-role="section" data-sectionid="515" data-angle="336.9" points="618.9,453 593.5,419.2 590.4,421.5 583.1,411.9 586.2,409.6 578,398.8 571.6,403.1 564.7,407 593.7,467.8 600.5,464.6 607.1,460.9 613.1,457.1 618.9,453 618.9,453 "></polygon><polygon id="spoly_516" data-role="section" data-sectionid="516" data-angle="320.5" points="588.7,390 584.4,393.8 579.8,397.4 588,408.2 591.1,405.9 598.3,415.6 595.2,418 620.7,451.7 624.5,448.6 628.1,445.5 634.9,439.2 588.7,390 588.7,390 "></polygon><polygon id="spoly_524" data-role="section" data-sectionid="524" data-angle="25.5" points="614.9,157.3 672,129 670.2,124.9 667.8,120.3 664.5,114.3 627.5,135.8 629.4,139.1 618.8,145.2 616.9,141.9 607.9,147 611.7,152.3 614.9,157.3 614.9,157.3 "></polygon><polygon id="spoly_525" data-role="section" data-sectionid="525" data-angle="32.9" points="663.3,112.4 659.9,106.9 655.8,101 651.2,94.7 645.9,88.2 596,132.9 601.6,139.1 606.6,145.3 615.8,139.9 613.9,136.5 624.4,130.4 626.4,133.8 663.3,112.4 663.3,112.4 "></polygon><polygon id="spoly_526" data-role="section" data-sectionid="526" data-angle="37.1" points="644.4,86.6 639.6,81.2 634.3,75.9 628.5,70.6 622.3,65.6 596.9,99.4 600,101.8 592.7,111.5 589.6,109.2 581.4,120 584.9,122.8 588.2,125.6 594.4,131.4 644.4,86.6 644.4,86.6 "></polygon><polygon id="spoly_527" data-role="section" data-sectionid="527" data-angle="22.8" points="620.6,64.3 614.8,60.1 608.7,56.3 602.2,52.6 595.4,49.4 566.4,110.4 573.3,114.3 579.7,118.6 587.9,107.8 584.7,105.5 592.1,95.8 595.1,98.1 620.6,64.3 620.6,64.3 "></polygon><polygon id="spoly_528" data-role="section" data-sectionid="528" data-angle="111.1" points="593.4,48.4 586.5,45.6 579.3,42.9 571.9,40.3 564.1,37.9 554.2,78.1 557.9,79 555,90.8 551.2,89.9 548.1,102.5 553.9,104.7 559.4,107 564.4,109.3 593.4,48.4 593.4,48.4 "></polygon><polygon id="spoly_529" data-role="section" data-sectionid="529" data-angle="113.2" points="562,37.4 554.7,35.3 547.3,33.4 532,29.9 524.2,70.1 528.1,70.8 525.7,82.7 521.9,82 519.6,94.1 526.4,95.8 533.1,97.6 539.6,99.7 546,101.8 549.1,89.4 545.3,88.4 548.3,76.6 552,77.6 562,37.4 562,37.4 "></polygon><polygon id="spoly_530" data-role="section" data-sectionid="530" data-angle="102.1" points="529.8,29.4 514.1,26.4 498.1,23.8 493.2,64.2 497,64.7 495.6,76.7 491.7,76.3 490.3,88.1 504,90.6 517.4,93.5 519.8,81.6 515.9,80.9 518.3,68.9 522.1,69.6 529.8,29.4 529.8,29.4 "></polygon><polygon id="spoly_531" data-role="section" data-sectionid="531" data-angle="97.8" points="495.9,23.5 480.6,21.4 465.2,19.8 461.7,60.4 465.5,60.8 464.5,72.9 460.7,72.6 459.6,83.8 473.9,85.6 488.1,87.7 489.5,76 485.7,75.5 487.2,63.5 491.1,63.9 495.9,23.5 495.9,23.5 "></polygon><polygon id="spoly_532" data-role="section" data-sectionid="532" data-angle="114.1" points="463,19.6 447.2,18.2 431.8,17.2 429.7,57.7 433.5,57.9 432.9,70 429.1,69.8 428.4,81.2 442.7,82.2 457.4,83.5 458.4,72.3 454.6,72 455.7,59.9 459.6,60.2 463,19.6 463,19.6 "></polygon><polygon id="spoly_533" data-role="section" data-sectionid="533" data-angle="90" points="398,80.2 398.1,80.2 411.6,80.4 426.2,81.1 426.9,69.7 423,69.5 423.6,57.4 427.5,57.6 429.6,17.1 413.3,16.4 398.1,16.2 398.1,58.1 402,58.1 402,70.3 398.1,70.3 398.1,80.2 398,80.2 398,80.2 "></polygon><polygon id="spoly_534" data-role="section" data-sectionid="534" data-angle="90" points="395.9,80.2 395.9,70.3 392,70.3 392,58.1 395.9,58.1 395.9,16.2 381,16.4 364.9,17.1 367.1,58.1 371,57.9 371.6,70.1 367.8,70.3 368.3,81.2 382.7,80.5 395.9,80.2 395.9,80.2 "></polygon><polygon id="spoly_535" data-role="section" data-sectionid="535" data-angle="95.4" points="362.7,17.2 347.4,18.1 331.5,19.5 335.1,60.8 338.9,60.4 340,72.6 336.1,72.9 337.1,83.6 351.8,82.3 366.1,81.2 365.6,70.4 361.7,70.6 361.1,58.5 364.9,58.2 362.7,17.2 362.7,17.2 "></polygon><polygon id="spoly_536" data-role="section" data-sectionid="536" data-angle="109.3" points="329.3,19.7 314,21.3 298.5,23.4 303.6,64.5 307.4,64 308.9,76.1 305.1,76.5 306.4,87.8 320.7,85.7 334.9,83.9 333.9,73.1 330.1,73.4 329,61.3 332.9,61 329.3,19.7 329.3,19.7 "></polygon><polygon id="spoly_537" data-role="section" data-sectionid="537" data-angle="66" points="296.3,23.7 280.3,26.3 264.5,29.3 272.5,70.2 276.3,69.5 278.6,81.4 274.8,82.2 277,93.6 290.5,90.6 304.2,88.2 302.9,76.8 299,77.3 297.5,65.2 301.4,64.7 296.3,23.7 296.3,23.7 "></polygon><polygon id="spoly_538" data-role="section" data-sectionid="538" data-angle="75.3" points="262.4,29.7 247.1,33.2 239.7,35.2 232.4,37.2 242.6,78.1 246.3,77.2 249.2,89 245.5,89.9 248.6,102.1 254.8,99.9 261.2,97.9 268,96 274.9,94.1 272.6,82.5 268.9,83.3 266.6,71.4 270.3,70.6 262.4,29.7 262.4,29.7 "></polygon><polygon id="spoly_539" data-role="section" data-sectionid="539" data-angle="69.3" points="230.3,37.8 222.8,40.2 215.5,42.8 208.5,45.5 201.8,48.3 230.6,110 236.6,107 241.4,104.9 246.5,102.9 243.3,90.5 239.7,91.4 236.7,79.6 240.4,78.7 230.3,37.8 230.3,37.8 "></polygon><polygon id="spoly_540" data-role="section" data-sectionid="540" data-angle="49.8" points="199.8,49.3 192.9,52.8 186.4,56.6 180.1,60.7 174.2,65 199.4,98.7 202.5,96.4 209.8,106 206.8,108.3 215.4,119.8 221.7,115.3 228.6,111.1 199.8,49.3 199.8,49.3 "></polygon><polygon id="spoly_541" data-role="section" data-sectionid="541" data-angle="43.5" points="172.5,66.4 166.6,71.3 161.1,76.3 156.1,81.4 151.3,86.5 202.3,131.4 207.7,126.2 213.7,121.2 204.9,109.7 201.9,112 194.6,102.3 197.7,99.9 172.5,66.4 172.5,66.4 "></polygon><polygon id="spoly_542" data-role="section" data-sectionid="542" data-angle="100.4" points="149.8,88.2 144.2,94.8 139.3,101.2 134.9,107.3 131.2,112.9 168.3,134.4 170.2,131 180.7,137.1 178.8,140.5 188.9,146.4 194.4,139.6 200.7,132.9 149.8,88.2 149.8,88.2 "></polygon><polygon id="spoly_543" data-role="section" data-sectionid="543" data-angle="148.6" points="130,114.8 126.5,120.6 124,125.1 122,129 182.2,155.5 187.6,148.1 177.7,142.4 175.7,145.7 165.3,139.6 167.2,136.3 130,114.8 130,114.8 "></polygon><polygon id="spoly_544" data-role="section" data-sectionid="544" data-angle="178.8" points="166.8,155 176.9,157.7 163.8,206.8 153.7,204.1 166.8,155 "></polygon><polygon id="spoly_622" data-role="section" data-sectionid="622" data-angle="13" points="629.7,190.2 635.6,212.5 651.6,208.3 645.6,185.8 629.7,190.2 "></polygon><polygon id="spoly_623" data-role="section" data-sectionid="623" data-angle="10.1" points="623,165.1 629.1,188 645.1,183.7 638.9,160.8 623,165.1 "></polygon><polygon id="spoly_317A" data-role="section" data-sectionid="317A" data-angle="351.8" points="597.6,356 615.2,362.9 620.4,342 600.2,342 597.6,356 "></polygon><polygon id="spoly_field_45" data-role="section" data-sectionid="field_45" data-angle="280.4" points="287.3,211.8 286.7,217.1 285.3,230.3 288,230.5 289.6,212.3 287.3,211.8 287.3,211.8 "></polygon><polygon id="spoly_field_46" data-role="section" data-sectionid="field_46" data-angle="298.6" points="285.2,232.4 284.6,240.9 284.1,250 286.6,250.1 287.8,232.6 285.2,232.4 285.2,232.4 "></polygon><polygon id="spoly_field_47" data-role="section" data-sectionid="field_47" data-angle="258.7" points="284,252.1 283.9,260.5 284.1,271.4 286.6,271.4 286.4,265.7 286.2,261 286.5,252.2 284,252.1 284,252.1 "></polygon><polygon id="spoly_field_48" data-role="section" data-sectionid="field_48" data-angle="244.7" points="284.2,273.4 284.6,282.4 285.2,290.9 288.2,290.7 286.7,273.4 284.2,273.4 284.2,273.4 "></polygon><polygon id="spoly_field_49" data-role="section" data-sectionid="field_49" data-angle="240.3" points="285.3,292.9 286.4,306.3 287,311.5 290.1,311 288.3,292.8 285.3,292.9 285.3,292.9 "></polygon><polygon id="spoly_field_15" data-role="section" data-sectionid="field_15" data-angle="180" points="498.4,324.3 503.4,322.3 505,321.6 502.2,318.5 501,319 497.5,320.4 498.4,324.3 498.4,324.3 "></polygon><polygon id="spoly_field_27" data-role="section" data-sectionid="field_27" data-angle="180" points="496,201.7 499.9,203.2 501.7,200.2 497.2,198.5 496,201.7 496,201.7 "></polygon><polygon id="spoly_field_37" data-role="section" data-sectionid="field_37" data-angle="8.6" points="326.8,194 333.9,192.9 333.3,189.7 326.3,190.9 326.8,194 326.8,194 "></polygon><polygon id="spoly_field_36" data-role="section" data-sectionid="field_36" data-angle="5.5" points="335.9,192.6 344.7,191.5 354.3,190.4 354,187.1 344.2,188.2 335.3,189.4 335.9,192.6 335.9,192.6 "></polygon><polygon id="spoly_field_35" data-role="section" data-sectionid="field_35" data-angle="4.1" points="356.4,190.3 365.4,189.5 375.2,189 374.9,185.6 365.2,186.2 356.1,187 356.4,190.3 356.4,190.3 "></polygon><polygon id="spoly_field_34" data-role="section" data-sectionid="field_34" data-angle="2.8" points="377.3,188.9 386.3,188.6 395.7,188.5 395.7,185.2 386.1,185.2 377,185.5 377.3,188.9 377.3,188.9 "></polygon><polygon id="spoly_field_33" data-role="section" data-sectionid="field_33" data-angle="358.5" points="397.8,188.5 406.5,188.6 414.8,188.8 414.9,185.5 406.5,185.2 397.8,185.1 397.8,188.5 397.8,188.5 "></polygon><polygon id="spoly_field_32" data-role="section" data-sectionid="field_32" data-angle="359" points="416.8,188.9 426.3,189.4 435.2,190.1 435.6,186.7 426.6,186.1 417,185.5 416.8,188.9 416.8,188.9 "></polygon><polygon id="spoly_field_31" data-role="section" data-sectionid="field_31" data-angle="181.8" points="437.2,190.3 447.3,191.4 456.6,192.6 457,189.3 447.8,188.1 437.6,187 437.2,190.3 437.2,190.3 "></polygon><polygon id="spoly_field_30" data-role="section" data-sectionid="field_30" data-angle="187.3" points="458.6,192.9 467.7,194.5 475.5,196.1 476.4,192.9 468.3,191.2 459.1,189.7 458.6,192.9 458.6,192.9 "></polygon><polygon id="spoly_field_29" data-role="section" data-sectionid="field_29" data-angle="194.1" points="477.6,196.6 482.7,197.8 487.1,199 494,201.1 495.2,197.8 488.1,195.7 478.4,193.3 477.6,196.6 477.6,196.6 "></polygon><polygon id="spoly_field_25" data-role="section" data-sectionid="field_25" data-angle="243.4" points="503.3,201.5 501.1,205.3 502.3,209.1 504.9,207.9 504.2,204.4 503.7,202.4 503.4,201.7 503.3,201.5 503.3,201.5 "></polygon><polygon id="spoly_field_22" data-role="section" data-sectionid="field_22" data-angle="262.5" points="502.9,212.8 504,220.6 505,230.1 508,229.9 507.1,219.9 505.9,212 502.9,212.8 502.9,212.8 "></polygon><polygon id="spoly_field_21" data-role="section" data-sectionid="field_21" data-angle="264.8" points="505.5,232.4 505.8,241 506,249.6 508.8,249.6 508.6,240.5 508.2,232.2 505.5,232.4 505.5,232.4 "></polygon><polygon id="spoly_field_20" data-role="section" data-sectionid="field_20" data-angle="265.6" points="506.2,251.6 506.3,260.2 506.2,270.7 508.9,270.8 508.9,260.5 508.9,251.6 506.2,251.6 506.2,251.6 "></polygon><polygon id="spoly_field_19" data-role="section" data-sectionid="field_19" data-angle="270" points="506.1,272.7 505.6,281.9 505,290.8 508.1,290.9 508.5,282.5 508.8,272.8 506.1,272.7 506.1,272.7 "></polygon><polygon id="spoly_field_18" data-role="section" data-sectionid="field_18" data-angle="276.9" points="505.3,292.9 504.4,302.8 503.5,310.5 506.2,310.8 507.2,303.3 507.7,298.5 508.2,293 505.3,292.9 505.3,292.9 "></polygon><polygon id="spoly_field_13" data-role="section" data-sectionid="field_13" data-angle="351" points="478.5,330 483.9,328.6 488.8,327.3 496.4,324.9 495.5,321.1 487.9,323.6 483.1,324.9 477.6,326.4 478.5,330 478.5,330 "></polygon><polygon id="spoly_field_12" data-role="section" data-sectionid="field_12" data-angle="353.5" points="458.6,333.6 468.1,332.1 476.4,330.4 475.6,326.8 467.4,328.6 458.1,330.3 458.6,333.6 458.6,333.6 "></polygon><polygon id="spoly_field_11" data-role="section" data-sectionid="field_11" data-angle="356.4" points="438,336.1 447.7,335.1 456.6,333.9 456.1,330.6 447.3,331.9 437.8,333 438,336.1 438,336.1 "></polygon><polygon id="spoly_field_10" data-role="section" data-sectionid="field_10" data-angle="180.2" points="417.5,337.5 427,336.9 436,336.3 435.7,333.3 426.9,334 417.4,334.5 417.5,337.5 417.5,337.5 "></polygon><polygon id="spoly_field_9" data-role="section" data-sectionid="field_9" data-angle="178.6" points="397.8,337.8 406.8,337.8 415.4,337.5 415.3,334.6 406.8,334.9 397.8,335.1 397.8,337.8 397.8,337.8 "></polygon><polygon id="spoly_field_8" data-role="section" data-sectionid="field_8" data-angle="182.8" points="377.1,337.5 386.2,337.8 395.7,337.8 395.7,335.1 386.2,334.9 377.1,334.6 377.1,337.5 377.1,337.5 "></polygon><polygon id="spoly_field_7" data-role="section" data-sectionid="field_7" data-angle="180" points="357.1,336.3 365.8,336.9 375,337.4 375,334.5 365.9,333.9 357.3,333.2 357.1,336.3 357.1,336.3 "></polygon><polygon id="spoly_field_6" data-role="section" data-sectionid="field_6" data-angle="180" points="336.4,333.9 345.3,335.1 355.1,336.1 355.2,333 345.7,331.8 336.9,330.6 336.4,333.9 336.4,333.9 "></polygon><polygon id="spoly_field_5" data-role="section" data-sectionid="field_5" data-angle="176.1" points="316.4,330.3 324.8,332 334.4,333.6 334.9,330.2 325.5,328.5 317.3,326.7 316.4,330.3 316.4,330.3 "></polygon><polygon id="spoly_suites_201-235" data-role="section" data-sectionid="suites_201-235" data-angle="162.4" points="396.5,387.1 425.4,386.5 451.2,384.2 473.9,381.2 492.9,377.1 509.5,372.9 522.4,368.8 540.8,361.1 537.2,355.2 516.9,362.9 487.4,370.6 468.4,374.1 447.5,377.1 422.9,379.4 396.5,380 395.3,380 367.7,379.4 343.7,377.1 321.6,374.1 302.6,370.6 273.1,362.3 253.4,354.7 249.7,360.6 266.9,367.6 279.8,372.4 296.4,376.5 316.1,380.6 338.8,384.2 365.2,386.5 395.3,387.1 396.5,387.1 396.5,387.1 "></polygon><polygon id="spoly_suites_240-282" data-role="section" data-sectionid="suites_240-282" data-angle="192.1" points="396.4,125.4 395.2,125.4 359,126.5 327.7,129.4 301.9,133.5 281,138.1 265,142.7 253.3,147.4 244.6,152.1 248.5,157.3 265,150.3 294.5,142.2 314.8,138.1 338.1,135.2 364.5,132.9 395.2,132.3 396.4,132.3 426.5,132.9 453.5,135.2 476.9,138.1 497.1,142.2 526.6,150.3 543.8,156.6 547.5,151.4 538.3,147.4 526.6,142.7 510.7,138.1 489.8,133.5 464,129.4 432.7,126.5 396.4,125.4 396.4,125.4 "></polygon><polygon id="spoly_suties_443-494" data-role="section" data-sectionid="suties_443-494" data-angle="345" points="395.2,82.4 362.7,83.6 324,87.2 284.1,93.9 265,98.7 247.8,104.2 236.1,109 225.1,115.1 215.9,121.1 207.9,127.8 195,141.1 187,151.4 193.2,155 199.9,146.5 212.8,133.8 221.4,127.2 231.2,120.5 242.9,114.5 255.8,109.6 272.4,104.2 290.2,100.6 327.7,94.5 364.5,90.9 395.2,89.7 397.7,89.7 428.4,90.9 464.6,94.5 502.7,100.6 520.5,104.2 537.1,109.6 549.4,114.5 560.4,119.9 570.2,126.6 578.2,133.2 590.5,144.7 597.9,153.8 605.2,148.9 596.6,138.7 583.7,126.6 566.6,114.5 556.1,109 545.1,104.2 527.9,98.7 508.8,93.9 468.9,87.2 430.2,83.6 397.7,82.4 395.2,82.4 395.2,82.4 "></polygon><polygon id="spoly_suites_418-435" data-role="section" data-sectionid="suites_418-435" data-angle="196.5" points="397.8,432.1 400.3,432.1 432.2,430.9 469.7,427.3 508.4,420.3 526.8,416.1 544,410.8 561.2,403.2 575.9,394.3 570.4,387.8 555,397.3 536,405.5 520,410.2 502.2,414.4 465.4,420.3 430.4,423.2 400.3,424.4 397.8,424.4 367.1,423.2 330.3,420.3 292.8,414.4 275,410.2 258.4,405.5 238.1,397.3 222.2,387.2 216.6,392.5 232,402.6 250.4,410.8 267.6,416.1 286.6,420.3 326.6,427.3 365.3,430.9 397.8,432.1 397.8,432.1 "></polygon><polygon class="is-d epoly_bench_home" data-role="dynamic" points="355,197.8 355,210.1 437.1,210.1 437.1,197.8 437.1,197.8 437.1,197.8 " style="fill:#EF4123; stroke:#000; stroke-width:0; fill-opacity:1;"></polygon><polygon class="is-d epoly_bench_visitor" data-role="dynamic" points="355.6,310.9 355.6,323.8 437.1,323.8 437.1,310.9 437.1,310.9 437.1,310.9 " style="fill:#DDD; stroke:#DDD; stroke-width:0; fill-opacity:1.0;"></polygon><polygon class="is-d epoly_video_ne" data-role="dynamic" points="633.6,223.6 633.6,346.4 656.8,346.4 656.8,223.6 656.8,223.6 656.8,223.6 " style="fill:#F4F4F4; stroke:#BEBEBE; stroke-width:1; fill-opacity:1.0;"></polygon><polygon class="is-d epoly_videoboard_2" data-role="dynamic" points="141.1,210.8 141.1,210.8 163.7,210.8 163.1,290.3 154.7,290.3 154.7,320 141.8,320 141.8,320 141.8,320 " style="fill:#F4F4F4; stroke:#BEBEBE; stroke-width:1; fill-opacity:1.0;"></polygon></g><circle id="mctrmrk" cx="397" cy="261.1" r="1" stroke-width="0" stroke="#FFF" opacity="0"></circle><g id="svgsectionnames" style="opacity:1; font-size:5.766666666666667px;"><text data-sectionid="101" data-role="section" x="267.9" y="325.1">101</text><text data-sectionid="102" data-role="section" x="278.1" y="344.5">102</text><text data-sectionid="104" data-role="section" x="301.1" y="349.3">104</text><text data-sectionid="105" data-role="section" x="321.6" y="354.4">105</text><text data-sectionid="106" data-role="section" x="342.9" y="357.6">106</text><text data-sectionid="107" data-role="section" x="364.4" y="359.5">107</text><text data-sectionid="108" data-role="section" x="385.7" y="360.4">108</text><text data-sectionid="109" data-role="section" x="407.4" y="360.4">109</text><text data-sectionid="110" data-role="section" x="428.8" y="359.5">110</text><text data-sectionid="111" data-role="section" x="450.4" y="357.6">111</text><text data-sectionid="112" data-role="section" x="471.3" y="354.4">112</text><text data-sectionid="113" data-role="section" x="492.1" y="349.5">113</text><text data-sectionid="115" data-role="section" x="511.2" y="340.5">115</text><text data-sectionid="117" data-role="section" x="524.6" y="326.8">117</text><text data-sectionid="118" data-role="section" x="526.9" y="304.9">118</text><text data-sectionid="119" data-role="section" x="528.1" y="282.9">119</text><text data-sectionid="120" data-role="section" x="529.1" y="262.6">120</text><text data-sectionid="121" data-role="section" x="528.6" y="240.6">121</text><text data-sectionid="122" data-role="section" x="524.9" y="222.8">122</text><text data-sectionid="124" data-role="section" x="525.6" y="201.9">124</text><text data-sectionid="125" data-role="section" x="521.6" y="187.6">125</text><text data-sectionid="127" data-role="section" x="509.4" y="180.4">127</text><text data-sectionid="129" data-role="section" x="492.3" y="176.1">129</text><text data-sectionid="130" data-role="section" x="471.3" y="172.6">130</text><text data-sectionid="131" data-role="section" x="451" y="168.7">131</text><text data-sectionid="132" data-role="section" x="427.4" y="166.6">132</text><text data-sectionid="133" data-role="section" x="406.3" y="165.8">133</text><text data-sectionid="134" data-role="section" x="385.1" y="165.9">134</text><text data-sectionid="135" data-role="section" x="363.8" y="167.4">135</text><text data-sectionid="136" data-role="section" x="341.9" y="168.1">136</text><text data-sectionid="137" data-role="section" x="321.1" y="171.3">137</text><text data-sectionid="138" data-role="section" x="301.1" y="174.4">138</text><text data-sectionid="139" data-role="section" x="283" y="179.1">139</text><text data-sectionid="141" data-role="section" x="269.4" y="188">141</text><text data-sectionid="144" data-role="section" x="264.1" y="201.2">144</text><text data-sectionid="145" data-role="section" x="262.8" y="219.9">145</text><text data-sectionid="146" data-role="section" x="261.2" y="240.7">146</text><text data-sectionid="147" data-role="section" x="260.9" y="263">147</text><text data-sectionid="148" data-role="section" x="261.8" y="284">148</text><text data-sectionid="149" data-role="section" x="262.9" y="304.2">149</text><text data-sectionid="301" data-role="section" x="229.4" y="379.5" transform="rotate(405.903 229.4 379.5)">301</text><text data-sectionid="302" data-role="section" x="244" y="388.4" transform="rotate(389.518 244 388.4)">302</text><text data-sectionid="303" data-role="section" x="257.3" y="395.9" transform="rotate(379.983 257.3 395.9)">303</text><text data-sectionid="304" data-role="section" x="281.5" y="394.6" transform="rotate(374.619 281.5 394.6)">304</text><text data-sectionid="305" data-role="section" x="306.8" y="400.3" transform="rotate(370.459 306.8 400.3)">305</text><text data-sectionid="306" data-role="section" x="332.5" y="404.2" transform="rotate(367.631 332.5 404.2)">306</text><text data-sectionid="307" data-role="section" x="358.1" y="406.6" transform="rotate(363.507 358.1 406.6)">307</text><text data-sectionid="308" data-role="section" x="383.5" y="407.9" transform="rotate(364.122 383.5 407.9)">308</text><text data-sectionid="309" data-role="section" x="409.6" y="407.8" transform="rotate(716.456 409.6 407.8)">309</text><text data-sectionid="310" data-role="section" x="435.6" y="406.3" transform="rotate(715.38 435.6 406.3)">310</text><text data-sectionid="311" data-role="section" x="461.2" y="403.6" transform="rotate(712.29 461.2 403.6)">311</text><text data-sectionid="312" data-role="section" x="486.7" y="399.7" transform="rotate(710.265 486.7 399.7)">312</text><text data-sectionid="313" data-role="section" x="512" y="394.3" transform="rotate(704.849 512 394.3)">313</text><text data-sectionid="314" data-role="section" x="536.4" y="394.6" transform="rotate(702.141 536.4 394.6)">314</text><text data-sectionid="315" data-role="section" x="549.5" y="387.9" transform="rotate(687.883 549.5 387.9)">315</text><text data-sectionid="316" data-role="section" x="562.8" y="380.5" transform="rotate(682.897 562.8 380.5)">316</text><text data-sectionid="317" data-role="section" x="606.2" y="339.6" transform="rotate(2.18035 606.2 339.6)">317</text><text data-sectionid="318" data-role="section" x="600.6" y="319">318</text><text data-sectionid="319" data-role="section" x="602.9" y="292">319</text><text data-sectionid="320" data-role="section" x="601.6" y="264.3">320</text><text data-sectionid="321" data-role="section" x="603" y="236.7">321</text><text data-sectionid="322" data-role="section" x="595.8" y="208.5" transform="rotate(-2.36469 595.8 208.5)">322</text><text data-sectionid="323" data-role="section" x="587" y="196.8" transform="rotate(347.018 587 196.8)">323</text><text data-sectionid="324" data-role="section" x="593.6" y="164.2" transform="rotate(-27.3003 593.6 164.2)">324</text><text data-sectionid="325" data-role="section" x="584.5" y="153.2" transform="rotate(-31.5496 584.5 153.2)">325</text><text data-sectionid="326" data-role="section" x="572.3" y="142" transform="rotate(-45.84 572.3 142)">326</text><text data-sectionid="327" data-role="section" x="556" y="131.4" transform="rotate(-58.7156 556 131.4)">327</text><text data-sectionid="328" data-role="section" x="541.3" y="126.1" transform="rotate(-69.0972 541.3 126.1)">328</text><text data-sectionid="329" data-role="section" x="517.3" y="119.8" transform="rotate(12.9705 517.3 119.8)">329</text><text data-sectionid="330" data-role="section" x="490.6" y="118.7">330</text><text data-sectionid="331" data-role="section" x="464" y="114.7">331</text><text data-sectionid="332" data-role="section" x="437.4" y="111.9">332</text><text data-sectionid="333" data-role="section" x="410.3" y="110.4">333</text><text data-sectionid="334" data-role="section" x="383.1" y="110.2">334</text><text data-sectionid="335" data-role="section" x="356.7" y="111.6" transform="rotate(717.081 356.7 111.6)">335</text><text data-sectionid="336" data-role="section" x="330" y="114.1" transform="rotate(713.658 330 114.1)">336</text><text data-sectionid="337" data-role="section" x="303.4" y="118.1" transform="rotate(711.124 303.4 118.1)">337</text><text data-sectionid="338" data-role="section" x="276.9" y="123.8" transform="rotate(704.849 276.9 123.8)">338</text><text data-sectionid="339" data-role="section" x="254.3" y="129.1" transform="rotate(430.017 254.3 129.1)">339</text><text data-sectionid="340" data-role="section" x="238.8" y="129" transform="rotate(422.066 238.8 129)">340</text><text data-sectionid="341" data-role="section" x="221.9" y="140.7" transform="rotate(409.33 221.9 140.7)">341</text><text data-sectionid="342" data-role="section" x="210.8" y="152.9" transform="rotate(29.8998 210.8 152.9)">342</text><text data-sectionid="343" data-role="section" x="198.4" y="169.8" transform="rotate(377.385 198.4 169.8)">343</text><text data-sectionid="344" data-role="section" x="192.1" y="185.7" transform="rotate(372.623 192.1 185.7)">344</text><text data-sectionid="345" data-role="section" x="188" y="207.7" transform="rotate(367.715 188 207.7)">345</text><text data-sectionid="346" data-role="section" x="186" y="236.2" transform="rotate(360 186 236.2)">346</text><text data-sectionid="347" data-role="section" x="185.6" y="262.6">347</text><text data-sectionid="348" data-role="section" x="187.5" y="292.5">348</text><text data-sectionid="349" data-role="section" x="189.1" y="319.5">349</text><text data-sectionid="350" data-role="section" x="193.3" y="339.9" transform="rotate(353.872 193.3 339.9)">350</text><text data-sectionid="351" data-role="section" x="183.5" y="353.2">351</text><text data-sectionid="501" data-role="section" x="184" y="420.4" transform="rotate(404.233 184 420.4)">501</text><text data-sectionid="502" data-role="section" x="202.3" y="432.4" transform="rotate(392.12 202.3 432.4)">502</text><text data-sectionid="503" data-role="section" x="225.1" y="442.2" transform="rotate(381.298 225.1 442.2)">503</text><text data-sectionid="504" data-role="section" x="252" y="453.3" transform="rotate(375.946 252 453.3)">504</text><text data-sectionid="505" data-role="section" x="282.7" y="460.6" transform="rotate(371.196 282.7 460.6)">505</text><text data-sectionid="506" data-role="section" x="315.1" y="465.5" transform="rotate(367.766 315.1 465.5)">506</text><text data-sectionid="507" data-role="section" x="347.2" y="468.8" transform="rotate(365.685 347.2 468.8)">507</text><text data-sectionid="508" data-role="section" x="378.8" y="470.5" transform="rotate(361.161 378.8 470.5)">508</text><text data-sectionid="509" data-role="section" x="412.2" y="470.6">509</text><text data-sectionid="510" data-role="section" x="444.1" y="468.8" transform="rotate(714.781 444.1 468.8)">510</text><text data-sectionid="511" data-role="section" x="476.1" y="465.5" transform="rotate(713.124 476.1 465.5)">511</text><text data-sectionid="512" data-role="section" x="508.4" y="460.6" transform="rotate(711.142 508.4 460.6)">512</text><text data-sectionid="513" data-role="section" x="539.1" y="453.4" transform="rotate(706.861 539.1 453.4)">513</text><text data-sectionid="514" data-role="section" x="566.5" y="442.5" transform="rotate(698.668 566.5 442.5)">514</text><text data-sectionid="515" data-role="section" x="589.9" y="433" transform="rotate(691.025 589.9 433)">515</text><text data-sectionid="516" data-role="section" x="607.3" y="422.8" transform="rotate(679.841 607.3 422.8)">516</text><text data-sectionid="524" data-role="section" x="639.9" y="137.8" transform="rotate(-27.5943 639.9 137.8)">524</text><text data-sectionid="525" data-role="section" x="629.6" y="118.8" transform="rotate(-35.5377 629.6 118.8)">525</text><text data-sectionid="526" data-role="section" x="612.9" y="100.5" transform="rotate(-44.9954 612.9 100.5)">526</text><text data-sectionid="527" data-role="section" x="591.5" y="86.3" transform="rotate(-60.2921 591.5 86.3)">527</text><text data-sectionid="528" data-role="section" x="567.5" y="76.1" transform="rotate(18.6952 567.5 76.1)">528</text><text data-sectionid="529" data-role="section" x="540.8" y="67.8" transform="rotate(15.3244 540.8 67.8)">529</text><text data-sectionid="530" data-role="section" x="510.1" y="60.7" transform="rotate(11.8762 510.1 60.7)">530</text><text data-sectionid="531" data-role="section" x="477.8" y="55.7" transform="rotate(6.31053 477.8 55.7)">531</text><text data-sectionid="532" data-role="section" x="445.7" y="52.4" transform="rotate(5.44832 445.7 52.4)">532</text><text data-sectionid="533" data-role="section" x="413.8" y="50.6">533</text><text data-sectionid="534" data-role="section" x="380.4" y="50.7">534</text><text data-sectionid="535" data-role="section" x="348.8" y="52.4" transform="rotate(715.115 348.8 52.4)">535</text><text data-sectionid="536" data-role="section" x="316.7" y="55.7" transform="rotate(713.224 316.7 55.7)">536</text><text data-sectionid="537" data-role="section" x="286.3" y="60.5" transform="rotate(710.306 286.3 60.5)">537</text><text data-sectionid="538" data-role="section" x="255" y="67.8" transform="rotate(706.834 255 67.8)">538</text><text data-sectionid="539" data-role="section" x="226.7" y="75.1" transform="rotate(430.082 226.7 75.1)">539</text><text data-sectionid="540" data-role="section" x="204" y="86.2" transform="rotate(419.554 204 86.2)">540</text><text data-sectionid="541" data-role="section" x="183.1" y="100.8" transform="rotate(406.139 183.1 100.8)">541</text><text data-sectionid="542" data-role="section" x="165.9" y="119.3" transform="rotate(395.568 165.9 119.3)">542</text><text data-sectionid="543" data-role="section" x="150.9" y="138.6" transform="rotate(386.072 150.9 138.6)">543</text><text data-sectionid="544" data-role="section" x="167.9" y="179.2" transform="rotate(645.657 167.9 179.2)">544</text><text data-sectionid="622" data-role="section" x="638.1" y="199" transform="rotate(76.7913 638.1 199)">622</text><text data-sectionid="623" data-role="section" x="631.4" y="173.6" transform="rotate(79.7613 631.4 173.6)">623</text><text data-sectionid="317A" data-role="section" x="609" y="354.5" transform="rotate(370.394 609 354.5)">317A</text><text data-sectionid="field_45" data-role="section" x="286.7" y="222.5" transform="rotate(270 286.7 222.5)">F45</text><text data-sectionid="field_46" data-role="section" x="287.3" y="242.6" transform="rotate(270 287.3 242.6)">F46</text><text data-sectionid="field_47" data-role="section" x="285.2" y="265.8" transform="rotate(270 285.2 265.8)">F47</text><text data-sectionid="field_48" data-role="section" x="288" y="286.9" transform="rotate(270 288 286.9)">F48</text><text data-sectionid="field_49" data-role="section" x="288.6" y="302.6" transform="rotate(270 288.6 302.6)">F49</text><text data-sectionid="field_15" data-role="section" x="502" y="321.7" transform="rotate(332.286 502 321.7)">F15</text><text data-sectionid="field_27" data-role="section" x="497.6" y="202.9" transform="rotate(27.0158 497.6 202.9)">F27</text><text data-sectionid="field_37" data-role="section" x="330.1" y="192.9">F37</text><text data-sectionid="field_36" data-role="section" x="344.8" y="190.9">F36</text><text data-sectionid="field_35" data-role="section" x="365.6" y="188.9">F35</text><text data-sectionid="field_34" data-role="section" x="386.4" y="188">F34</text><text data-sectionid="field_33" data-role="section" x="406.4" y="188">F33</text><text data-sectionid="field_32" data-role="section" x="426.2" y="188.2">F32</text><text data-sectionid="field_31" data-role="section" x="447.1" y="190.8">F31</text><text data-sectionid="field_30" data-role="section" x="467.5" y="193.9">F30</text><text data-sectionid="field_29" data-role="section" x="486.4" y="198.2">F29</text><text data-sectionid="field_25" data-role="section" x="503" y="206.3" transform="rotate(90 503 206.3)">F25</text><text data-sectionid="field_22" data-role="section" x="505.5" y="222.1" transform="rotate(90 505.5 222.1)">F22</text><text data-sectionid="field_21" data-role="section" x="507.1" y="241.9" transform="rotate(90 507.1 241.9)">F21</text><text data-sectionid="field_20" data-role="section" x="507.5" y="262.2" transform="rotate(90 507.5 262.2)">F20</text><text data-sectionid="field_19" data-role="section" x="506.9" y="282.8" transform="rotate(90 506.9 282.8)">F19</text><text data-sectionid="field_18" data-role="section" x="505.9" y="302.9" transform="rotate(90 505.9 302.9)">F18</text><text data-sectionid="field_13" data-role="section" x="487" y="326.5">F13</text><text data-sectionid="field_12" data-role="section" x="467.3" y="331.2">F12</text><text data-sectionid="field_11" data-role="section" x="447.2" y="334.4">F11</text><text data-sectionid="field_10" data-role="section" x="426.7" y="336.4">F10</text><text data-sectionid="field_9" data-role="section" x="406.6" y="337.2">F9</text><text data-sectionid="field_8" data-role="section" x="386.4" y="337.2">F8</text><text data-sectionid="field_7" data-role="section" x="366.1" y="336.3">F7</text><text data-sectionid="field_6" data-role="section" x="345.8" y="334.3">F6</text><text data-sectionid="field_5" data-role="section" x="325.7" y="331.2">F5</text><text data-sectionid="suites_201-235" data-role="section" x="394.6" y="384.5">SUITES</text><text data-sectionid="suites_240-282" data-role="section" x="395.8" y="130">SUITES</text><text data-sectionid="suties_443-494" data-role="section" x="390.3" y="87.2">SUITES</text><text data-sectionid="suites_418-435" data-role="section" x="396.3" y="429.9">SUITES</text><text class="is-d dyn-name-bench bench_home" text-anchor="middle" x="396" y="205.9" style="fill:#FFF; font-size:5.9px; " dominant-baseline="central" data-offset="0|0.3" null="">BROWNS</text><text class="is-d dyn-name-bench bench_visitor" text-anchor="middle" x="396.4" y="319.3" style="fill:#666; font-size:5.9px; " dominant-baseline="central" data-offset="0|0.3" null="">VISITOR</text><text class="is-d " text-anchor="middle" x="645.2" y="287" style="fill:#999; font-size:5.9px; " dominant-baseline="central" data-offset="0|0.3" transform="rotate(90 645.2 287)">VIDEOBOARD</text><text class="is-d " text-anchor="middle" x="151.8" y="257.8" style="fill:#999; font-size:5.9px; " dominant-baseline="central" data-offset="0|0.3" transform="rotate(270 151.8 257.8)">VIDEOBOARD</text></g></g><circle id="svgZoomCenter" r="1" stroke-width="0" fill-opacity="0" cx="336" cy="259.5"></circle><circle id="svgNorthWest" r="1" stroke-width="0" fill-opacity="0" cx="0" cy="0"></circle><circle id="svgSouthEast" r="1" stroke-width="0" fill-opacity="0" cx="794" cy="519"></circle><g id="svgmarkers" style="font-size: 10.3px;"><circle id="svg-marker-hover" data-ticket="" style="display: none;"></circle><g transform="translate(154.6,97) scale(1)" class="ticket-marker flag-with-arrow" data-ticket="542~15" data-mrkgrp="default" data-match="1"><use href="#flag-with-arrow-small" xlink:href="#flag-with-arrow"></use><text data-role="label" x="16" y="9">$36</text></g><g transform="translate(211.5,411.5) scale(1)" class="ticket-marker flag-with-arrow" data-ticket="503~13" data-mrkgrp="default" data-match="1"><use href="#flag-with-arrow-small" xlink:href="#flag-with-arrow"></use><text data-role="label" x="16" y="9">$48</text></g><g transform="translate(269.5,425.8) scale(1)" class="ticket-marker flag-with-arrow" data-ticket="505~12" data-mrkgrp="default" data-match="1"><use href="#flag-with-arrow-small" xlink:href="#flag-with-arrow"></use><text data-role="label" x="16" y="9">$58</text></g><g transform="translate(580.2,191.9) scale(1)" class="ticket-marker flag-with-arrow" data-ticket="322~6" data-mrkgrp="default" data-match="1"><use href="#flag-with-arrow-small" xlink:href="#flag-with-arrow"></use><text data-role="label" x="16" y="9">$60</text></g><g transform="translate(154.5,158.6) scale(1)" class="ticket-marker flag-with-arrow" data-ticket="544~1" data-mrkgrp="default" data-match="1"><use href="#flag-with-arrow-small" xlink:href="#flag-with-arrow"></use><text data-role="label" x="16" y="9">$61</text></g><g transform="translate(460.8,436.8) scale(1)" class="ticket-marker flag-with-arrow" data-ticket="511~15" data-mrkgrp="default" data-match="1"><use href="#flag-with-arrow-small" xlink:href="#flag-with-arrow"></use><text data-role="label" x="16" y="9">$65</text></g><g transform="translate(492.1,41.8) scale(1)" class="ticket-marker flag-with-arrow" data-ticket="530~13" data-mrkgrp="default" data-match="1"><use href="#flag-with-arrow-small" xlink:href="#flag-with-arrow"></use><text data-role="label" x="16" y="9">$66</text></g><g transform="translate(331.7,444.2) scale(1)" class="ticket-marker flag-with-arrow" data-ticket="507~17" data-mrkgrp="default" data-match="1"><use href="#flag-with-arrow-small" xlink:href="#flag-with-arrow"></use><text data-role="label" x="16" y="9">$67</text></g><g transform="translate(395.5,456.6) scale(1)" class="ticket-marker flag-with-arrow" data-ticket="509~22" data-mrkgrp="default" data-match="1"><use href="#flag-with-arrow-small" xlink:href="#flag-with-arrow"></use><text data-role="label" x="16" y="9">$70</text></g><g transform="translate(396.8,15.3) scale(1)" class="ticket-marker flag-with-arrow" data-ticket="533~21" data-mrkgrp="default" data-match="1"><use href="#flag-with-arrow-small" xlink:href="#flag-with-arrow"></use><text data-role="label" x="16" y="9">$71</text></g><g transform="translate(222.2,98.5) scale(1)" class="ticket-marker flag-with-arrow" data-ticket="340~17" data-mrkgrp="default" data-match="1"><use href="#flag-with-arrow-small" xlink:href="#flag-with-arrow"></use><text data-role="label" x="16" y="9">$75</text></g><g transform="translate(111.4,98.7) scale(1)" class="ticket-marker flag-with-arrow" data-ticket="543~31" data-mrkgrp="default" data-match="1"><use href="#flag-with-arrow-small" xlink:href="#flag-with-arrow"></use><text data-role="label" x="16" y="9">$75</text></g><g transform="translate(632.9,109.7) scale(1)" class="ticket-marker flag-with-arrow" data-ticket="524~21" data-mrkgrp="default" data-match="1"><use href="#flag-with-arrow-small" xlink:href="#flag-with-arrow"></use><text data-role="label" x="16" y="9">$82</text></g><g transform="translate(197.3,165.1) scale(1)" class="ticket-marker flag-with-arrow" data-ticket="344~5" data-mrkgrp="default" data-match="1"><use href="#flag-with-arrow-small" xlink:href="#flag-with-arrow"></use><text data-role="label" x="16" y="9">$83</text></g><g transform="translate(533.2,315.2) scale(1)" class="ticket-marker flag-with-arrow" data-ticket="117~31" data-mrkgrp="default" data-match="1"><use href="#flag-with-arrow-small" xlink:href="#flag-with-arrow"></use><text data-role="label" x="16" y="9">$86</text></g><g transform="translate(183.4,212.6) scale(1)" class="ticket-marker flag-with-arrow" data-ticket="346~10" data-mrkgrp="default" data-match="1"><use href="#flag-with-arrow-small" xlink:href="#flag-with-arrow"></use><text data-role="label" x="16" y="9">$86</text></g><g transform="translate(203.5,31) scale(1)" class="ticket-marker flag-with-arrow" data-ticket="539~26" data-mrkgrp="default" data-match="1"><use href="#flag-with-arrow-small" xlink:href="#flag-with-arrow"></use><text data-role="label" x="16" y="9">$86</text></g><g transform="translate(454.1,320.1) scale(1)" class="ticket-marker flag-with-arrow" data-ticket="112~8" data-mrkgrp="default" data-match="1"><use href="#flag-with-arrow-small" xlink:href="#flag-with-arrow"></use><text data-role="label" x="16" y="9">$87</text></g><g transform="translate(555.5,429.8) scale(1)" class="ticket-marker flag-with-arrow" data-ticket="514~22" data-mrkgrp="default" data-match="1"><use href="#flag-with-arrow-small" xlink:href="#flag-with-arrow"></use><text data-role="label" x="16" y="9">$89</text></g><g transform="translate(556.8,30.1) scale(1)" class="ticket-marker flag-with-arrow" data-ticket="528~26" data-mrkgrp="default" data-match="1"><use href="#flag-with-arrow-small" xlink:href="#flag-with-arrow"></use><text data-role="label" x="16" y="9">$91</text></g><g transform="translate(200.4,288.8) scale(1)" class="ticket-marker flag-with-arrow" data-ticket="349~1" data-mrkgrp="default" data-match="1"><use href="#flag-with-arrow-small" xlink:href="#flag-with-arrow"></use><text data-role="label" x="16" y="9">$91</text></g><g transform="translate(539,387.7) scale(1)" class="ticket-marker flag-with-arrow" data-ticket="514~1" data-mrkgrp="default" data-match="1"><use href="#flag-with-arrow-small" xlink:href="#flag-with-arrow"></use><text data-role="label" x="16" y="9">$91</text></g><g transform="translate(584.9,386.6) scale(1)" class="ticket-marker flag-with-arrow" data-ticket="516~12" data-mrkgrp="default" data-match="1"><use href="#flag-with-arrow-small" xlink:href="#flag-with-arrow"></use><text data-role="label" x="16" y="9">$96</text></g><g transform="translate(440.6,122.2) scale(1)" class="ticket-marker flag-with-arrow" data-ticket="131~27" data-mrkgrp="default" data-match="1"><use href="#flag-with-arrow-small" xlink:href="#flag-with-arrow"></use><text data-role="label" x="16" y="9">$99</text></g><g transform="translate(559.1,77.3) scale(1)" class="ticket-marker flag-with-arrow" data-ticket="527~7" data-mrkgrp="default" data-match="1"><use href="#flag-with-arrow-medium" xlink:href="#flag-with-arrow"></use><text data-role="label" x="18" y="9">$100</text></g><g transform="translate(582.4,238.7) scale(1)" class="ticket-marker flag-with-arrow" data-ticket="320~11" data-mrkgrp="default" data-match="1"><use href="#flag-with-arrow-medium" xlink:href="#flag-with-arrow"></use><text data-role="label" x="18" y="9">$101</text></g><g transform="translate(324.5,335.1) scale(1)" class="ticket-marker flag-with-arrow" data-ticket="106~16" data-mrkgrp="default" data-match="1"><use href="#flag-with-arrow-medium" xlink:href="#flag-with-arrow"></use><text data-role="label" x="18" y="9">$111</text></g><g transform="translate(272.5,167.5) scale(1)" class="ticket-marker flag-with-arrow" data-ticket="139~6" data-mrkgrp="default" data-match="1"><use href="#flag-with-arrow-medium" xlink:href="#flag-with-arrow"></use><text data-role="label" x="18" y="9">$112</text></g><g transform="translate(269.3,305.4) scale(1)" class="ticket-marker flag-with-arrow" data-ticket="102~6" data-mrkgrp="default" data-match="1"><use href="#flag-with-arrow-medium" xlink:href="#flag-with-arrow"></use><text data-role="label" x="18" y="9">$114</text></g><g transform="translate(331.6,11) scale(1)" class="ticket-marker flag-with-arrow" data-ticket="535~24" data-mrkgrp="default" data-match="1"><use href="#flag-with-arrow-medium" xlink:href="#flag-with-arrow"></use><text data-role="label" x="18" y="9">$114</text></g><g transform="translate(190.3,369) scale(1)" class="ticket-marker flag-with-arrow" data-ticket="501~1" data-mrkgrp="default" data-match="1"><use href="#flag-with-arrow-medium" xlink:href="#flag-with-arrow"></use><text data-role="label" x="18" y="9">$115</text></g><g transform="translate(270.1,47.1) scale(1)" class="ticket-marker flag-with-arrow" data-ticket="537~10" data-mrkgrp="default" data-match="1"><use href="#flag-with-arrow-medium" xlink:href="#flag-with-arrow"></use><text data-role="label" x="18" y="9">$123</text></g><g transform="translate(255.4,262.5) scale(1)" class="ticket-marker flag-with-arrow" data-ticket="148~6" data-mrkgrp="default" data-match="1"><use href="#flag-with-arrow-medium" xlink:href="#flag-with-arrow"></use><text data-role="label" x="18" y="9">$146</text></g><g transform="translate(253.9,212.3) scale(1)" class="ticket-marker flag-with-arrow" data-ticket="146~7" data-mrkgrp="default" data-match="1"><use href="#flag-with-arrow-medium" xlink:href="#flag-with-arrow"></use><text data-role="label" x="18" y="9">$157</text></g><g transform="translate(589.4,293.1) scale(1)" class="ticket-marker flag-with-arrow" data-ticket="318~16" data-mrkgrp="default" data-match="1"><use href="#flag-with-arrow-medium" xlink:href="#flag-with-arrow"></use><text data-role="label" x="18" y="9">$169</text></g><g transform="translate(528.3,252.6) scale(1)" class="ticket-marker flag-with-arrow" data-ticket="119~23" data-mrkgrp="default" data-match="1"><use href="#flag-with-arrow-medium" xlink:href="#flag-with-arrow"></use><text data-role="label" x="18" y="9">$185</text></g><g transform="translate(493.7,191.5) scale(1)" class="ticket-marker flag-with-arrow" data-ticket="122~2" data-mrkgrp="default" data-match="1"><use href="#flag-with-arrow-medium" xlink:href="#flag-with-arrow"></use><text data-role="label" x="18" y="9">$208</text></g><g transform="translate(410.3,324.6) scale(1)" class="ticket-marker flag-with-arrow" data-ticket="110~8" data-mrkgrp="default" data-match="1"><use href="#flag-with-arrow-medium" xlink:href="#flag-with-arrow"></use><text data-role="label" x="18" y="9">$237</text></g><g transform="translate(321.8,159.3) scale(1)" class="ticket-marker flag-with-arrow" data-ticket="136~4" data-mrkgrp="default" data-match="1"><use href="#flag-with-arrow-medium" xlink:href="#flag-with-arrow"></use><text data-role="label" x="18" y="9">$242</text></g><g transform="translate(479.1,127.3) scale(1)" class="ticket-marker flag-with-arrow" data-ticket="129~29" data-mrkgrp="default" data-match="1"><use href="#flag-with-arrow-medium" xlink:href="#flag-with-arrow"></use><text data-role="label" x="18" y="9">$255</text></g><g transform="translate(387.7,151.4) scale(1)" class="ticket-marker flag-with-arrow" data-ticket="133~7" data-mrkgrp="default" data-match="1"><use href="#flag-with-arrow-medium" xlink:href="#flag-with-arrow"></use><text data-role="label" x="18" y="9">$264</text></g><g transform="translate(266.5,358.8) scale(1)" class="ticket-marker flag-with-arrow" data-ticket="304~4" data-mrkgrp="default" data-match="1"><use href="#flag-with-arrow-medium" xlink:href="#flag-with-arrow"></use><text data-role="label" x="18" y="9">$301</text></g><g transform="translate(442.1,367.4) scale(1)" class="ticket-marker flag-with-arrow" data-ticket="311~4" data-mrkgrp="default" data-match="1"><use href="#flag-with-arrow-medium" xlink:href="#flag-with-arrow"></use><text data-role="label" x="18" y="9">$326</text></g><g transform="translate(316.3,117.5) scale(1)" class="ticket-marker flag-with-arrow" data-ticket="136~30" data-mrkgrp="default" data-match="1"><use href="#flag-with-arrow-medium" xlink:href="#flag-with-arrow"></use><text data-role="label" x="18" y="9">$365</text></g><g transform="translate(367.5,333.2) scale(1)" class="ticket-marker flag-with-arrow" data-ticket="108~13" data-mrkgrp="default" data-match="1"><use href="#flag-with-arrow-medium" xlink:href="#flag-with-arrow"></use><text data-role="label" x="18" y="9">$492</text></g><g transform="translate(364.8,380.7) scale(1)" class="ticket-marker flag-with-arrow" data-ticket="308~9" data-mrkgrp="default" data-match="1"><use href="#flag-with-arrow-medium" xlink:href="#flag-with-arrow"></use><text data-role="label" x="18" y="9">$596</text></g><g transform="translate(417.7,81.1) scale(1)" class="ticket-marker flag-with-arrow" data-ticket="332~12" data-mrkgrp="default" data-match="1"><use href="#flag-with-arrow" xlink:href="#flag-with-arrow"></use><text data-role="label" x="20" y="9">$5718</text></g></g>undefined</g><circle id="svgZoomCenterLoad" r="1" stroke-width="0" fill-opacity="0" cx="397" cy="259.5"></circle></g></g></svg>