<svg xmlns="http://www.w3.org/2000/svg" xmlns:xlink="http://www.w3.org/1999/xlink" id="svgmap" width="100%" height="100%" style="touch-action: none;" viewBox="90.1 -14.5 609.6 554.0"><style>
polygon[id^="spoly_"] { fill: #d0d8e4; stroke: #7a8fa6; stroke-width: 2; }
polygon[id^="spoly_"]:hover { fill: #5b8ccc; cursor: pointer; }
.svgText { font-family: Arial, sans-serif; fill: #333; font-size: 9px; }
</style>
         <g id="svgdefs"><defs id="svgdefstyle">
      <linearGradient id="ticketGradient" x1="0%" y1="0%" x2="100%" y2="0%"><stop offset="0%" stop-color="#840ac9"></stop><stop offset="30%" stop-color="#d60eb2"></stop><stop offset="50%" stop-color="#fa0b81"></stop><stop offset="100%" stop-color="#fa0b81"></stop></linearGradient>
      <radialGradient id="markerGradient" cx="50%" cy="50%" r="50%"><stop offset="0%" stop-color="#fa0b81"></stop><stop offset="95%" stop-color="#d60eb2"></stop><stop offset="100%" stop-color="#840ac9"></stop></radialGradient>
      <linearGradient id="flagGradient" x1="0%" y1="0%" x2="100%" y2="100%">
         <stop offset="0%" stop-color="#840ac9"></stop>
         <stop offset="40%" stop-color="#d60eb2"></stop>
         <stop offset="80%" stop-color="#fa0b81"></stop>
         <stop offset="100%" stop-color="#c40665"></stop> 
      </linearGradient>      
      <linearGradient id="svgmapticket" x1="0%" y1="0%" x2="0%" y2="100%"><stop offset="0%" style="stop-color:#5BADFF;stop-opacity:1"></stop><stop offset="100%" style="stop-color:#0066CC;stop-opacity:1"></stop></linearGradient><linearGradient id="svgdealticket" x1="0%" y1="0%" x2="0%" y2="100%"> <stop offset="0%" style="stop-color:#66FF00;stop-opacity:1"></stop><stop offset="100%" style="stop-color:#61C100;stop-opacity:1"></stop></linearGradient><linearGradient id="svggreatticket" x1="0%" y1="0%" x2="0%" y2="100%"><stop offset="0%" style="stop-color:#00CC33;stop-opacity:1"></stop><stop offset="100%" style="stop-color:#009100;stop-opacity:1"></stop></linearGradient><filter id="coinShadow" x="-40%" y="-40%" width="200%" height="200%">            <feGaussianBlur in="SourceAlpha" stdDeviation="3"></feGaussianBlur><feOffset dx="2" dy="2" result="offsetblur"></feOffset><feMerge><feMergeNode></feMergeNode><feMergeNode in="SourceGraphic"></feMergeNode></feMerge></filter><path id="flag-with-arrow" d="M 9.33,0 L 32,0 A 8,8 0 0 1 32,16 L 25.33,16 L 20,20.67 L 14.67,16 L 8,16 A 8,8 0 0 1 8,0 Z"></path><path id="flag-with-arrow-medium" d="M 8,0 L 28,0 A 8,8 0 0 1 28,16 L 23.33,16 L 18,20.67 L 12.67,16 L 8,16 A 8,8 0 0 1 8,0 Z"></path><path id="flag-with-arrow-small" d="M 8,0 L 24,0 A 8,8 0 0 1 24,16 L 20,16 L 16,20.67 L 12,16 L 8,16 A 8,8 0 0 1 8,0 Z"></path></defs>  </g>
         <g class="testmask" mask="url(#fade)" style="scale: 0.95; transform-origin:center;">
         <g id="viewport" transform="matrix(1,0,0,1,0,0)" data-zoomfactor="100"><g id="scaleSVG" data-scale="1" transform="scale(1)" class="testrotate"><g id="svgelements"><image id="svgOverlay" class="nopointereventsmap" xlink:href="/assets/images/venues/overlays/arrowhead-stadium 8-2019.png" x="-107.1" y="-105.3" width="1009.3px" height="716.8px"></image><g id="svgpolygroup"><polygon id="spoly_101" data-role="section" data-sectionid="101" data-angle="90" points="385.4,185.5 393.2,185.4 401.7,185.5 412.1,185.5 413.5,121.4 405.3,121.2 397,121.2 384.4,121.3 385.4,185.5 385.4,185.5 "></polygon><polygon id="spoly_102" data-role="section" data-sectionid="102" data-angle="72.2" points="413.8,185.5 433.4,185.8 439.1,122.7 427.3,122 415.2,121.5 413.8,185.5 413.8,185.5 "></polygon><polygon id="spoly_103" data-role="section" data-sectionid="103" data-angle="112.5" points="435,185.8 446.2,186.2 456.1,186.7 465.9,126 459.8,125 453.6,124.2 447.2,123.4 440.8,122.9 435,185.8 435,185.8 "></polygon><polygon id="spoly_104" data-role="section" data-sectionid="104" data-angle="104.6" points="457.8,186.9 467.7,187.8 472.1,188.3 476.1,189 492,132.2 486.1,130.5 480.1,128.9 473.9,127.5 467.6,126.3 457.8,186.9 457.8,186.9 "></polygon><polygon id="spoly_105" data-role="section" data-sectionid="105" data-angle="112.7" points="477.8,189.3 481,190 483.8,190.7 486.5,191.6 488.9,192.4 515.1,141.8 509.9,139.2 504.7,136.9 499.2,134.7 493.6,132.7 477.8,189.3 477.8,189.3 "></polygon><polygon id="spoly_106" data-role="section" data-sectionid="106" data-angle="126.4" points="490.6,193 493.5,194.6 496.1,196.3 498.3,198.1 500.1,200.1 538.4,159.1 535.9,156.7 533.4,154.4 530.7,152.2 528.1,150.1 525.3,148.2 522.5,146.2 516.5,142.7 490.6,193 490.6,193 "></polygon><polygon id="spoly_107" data-role="section" data-sectionid="107" data-angle="153.1" points="501.1,201.5 502.3,203.6 503.3,206 504.1,208.4 504.6,211.1 555.6,183.1 553.9,179.9 552.1,176.7 550.2,173.7 548.2,170.9 546.2,168 544,165.4 541.9,162.8 539.6,160.3 501.1,201.5 501.1,201.5 "></polygon><polygon id="spoly_108" data-role="section" data-sectionid="108" data-angle="172.5" points="504.9,212.9 505.3,216.4 505.5,220.3 565,209.2 563.3,202.6 561.2,196.3 558.9,190.3 556.4,184.6 504.9,212.9 504.9,212.9 "></polygon><polygon id="spoly_109" data-role="section" data-sectionid="109" data-angle="180" points="505.5,222 505.5,223 505.5,233.1 505.5,238.7 505.5,240.4 569.4,240.4 568.8,232.5 568,225 566.9,217.7 565.5,210.9 505.5,222 505.5,222 "></polygon><polygon id="spoly_110" data-role="section" data-sectionid="110" data-angle="180" points="505.5,242.1 505.5,249.9 516,249.9 516,259.5 505.5,259.5 505.5,266.8 569.4,266.8 569.7,260.5 569.8,253.9 569.7,247.9 569.5,242.1 505.5,242.1 505.5,242.1 "></polygon><polygon id="spoly_111" data-role="section" data-sectionid="111" data-angle="180" points="505.5,268.4 505.5,269 505.5,274.6 505.5,284.7 505.5,287.2 564.9,299.1 566.4,292 567.7,284.5 568.7,276.7 569.4,268.4 505.5,268.4 505.5,268.4 "></polygon><polygon id="spoly_112" data-role="section" data-sectionid="112" data-angle="189.1" points="505.4,289 505.2,292.8 504.7,296.3 555.6,324.8 558.2,319.3 560.6,313.4 562.7,307.2 564.5,300.7 505.4,289 505.4,289 "></polygon><polygon id="spoly_113" data-role="section" data-sectionid="113" data-angle="205.4" points="504.3,298 503.8,300.2 503.2,302.2 502.3,304 501.3,305.8 530.2,335 528.4,336.8 539.1,348 541.3,345.6 543.5,343.1 545.5,340.6 547.5,337.9 549.5,335.2 551.3,332.3 553.1,329.3 554.7,326.3 504.3,298 504.3,298 "></polygon><polygon id="spoly_114" data-role="section" data-sectionid="114" data-angle="234.8" points="496.9,310.8 495.5,311.9 494.1,312.8 490.8,314.6 516.9,364.9 522.5,361.4 527.9,357.7 533,353.6 535.5,351.4 537.9,349.2 527.2,338 525.4,339.8 496.9,310.8 496.9,310.8 "></polygon><polygon id="spoly_115" data-role="section" data-sectionid="115" data-angle="248.7" points="489.3,315.2 486.6,316.2 483.6,317.1 480.3,317.9 476.8,318.6 492.6,375.3 498.6,373.3 504.4,370.9 510,368.4 515.4,365.7 489.3,315.2 489.3,315.2 "></polygon><polygon id="spoly_116" data-role="section" data-sectionid="116" data-angle="254.7" points="475.1,318.9 471,319.5 466.7,320 457,320.9 467.9,381.3 473.8,380.2 479.7,378.9 485.4,377.4 491,375.8 475.1,318.9 475.1,318.9 "></polygon><polygon id="spoly_117" data-role="section" data-sectionid="117" data-angle="249.6" points="455.3,321 445.9,321.5 435.5,321.9 441,384.7 447.4,384.2 453.8,383.4 460.1,382.6 466.2,381.6 455.3,321 455.3,321 "></polygon><polygon id="spoly_118" data-role="section" data-sectionid="118" data-angle="287.8" points="433.8,321.9 411.9,322.3 413.5,386.1 426.6,385.7 439.3,384.9 433.8,321.9 433.8,321.9 "></polygon><polygon id="spoly_119" data-role="section" data-sectionid="119" data-angle="270" points="410.2,322.3 401.7,322.3 393.2,322.3 386.6,322.3 385.4,386.1 399.2,386.3 411.8,386.2 410.2,322.3 410.2,322.3 "></polygon><polygon id="spoly_120" data-role="section" data-sectionid="120" data-angle="266" points="384.9,322.3 363,322 357.8,384.9 370.6,385.7 383.7,386.1 384.9,322.3 384.9,322.3 "></polygon><polygon id="spoly_121" data-role="section" data-sectionid="121" data-angle="263.1" points="361.3,321.9 350.2,321.6 340.3,321.1 330,381.5 336.4,382.6 342.8,383.4 349.4,384.1 356.2,384.7 361.3,321.9 361.3,321.9 "></polygon><polygon id="spoly_122" data-role="section" data-sectionid="122" data-angle="234.6" points="338.7,321 333.1,320.5 327.9,320 323.2,319.5 318.9,318.8 302.8,374.9 308.9,376.8 315.2,378.5 321.7,380 328.3,381.2 338.7,321 338.7,321 "></polygon><polygon id="spoly_123" data-role="section" data-sectionid="123" data-angle="311.6" points="317.2,318.5 314,317.8 311.2,317.1 308.5,316.3 306,315.4 279.9,365.1 284.9,367.7 290.2,370.2 295.6,372.4 301.2,374.4 317.2,318.5 317.2,318.5 "></polygon><polygon id="spoly_124" data-role="section" data-sectionid="124" data-angle="327.8" points="304.4,314.8 301.1,313.2 298.3,311.3 297.2,310.3 296,309.2 295,308 294.1,306.9 255.5,346.2 258,348.8 260.7,351.4 263.4,353.8 266.2,356.1 269.2,358.3 272.2,360.4 275.2,362.4 278.4,364.3 304.4,314.8 304.4,314.8 "></polygon><polygon id="spoly_125" data-role="section" data-sectionid="125" data-angle="332.8" points="293.2,305.5 292,303 291,300.4 290.3,297.6 289.7,294.6 238.9,321.1 240.5,324.4 242.3,327.7 244,330.9 245.9,333.9 247.9,336.8 250,339.6 252.1,342.4 254.4,345 293.2,305.5 293.2,305.5 "></polygon><polygon id="spoly_126" data-role="section" data-sectionid="126" data-angle="346.3" points="289.5,292.8 289.3,289.3 289.2,285.5 230.7,296.3 232.3,302.5 234,308.5 236,314.1 238.2,319.5 289.5,292.8 289.5,292.8 "></polygon><polygon id="spoly_127" data-role="section" data-sectionid="127" data-angle="360" points="289.2,283.9 289.2,274.6 289.2,269 289.2,266.2 226.7,266.2 227.3,273.8 228.1,281.1 229.1,288 230.3,294.7 289.2,283.9 289.2,283.9 "></polygon><polygon id="spoly_128" data-role="section" data-sectionid="128" data-angle="360" points="289.2,238.7 289.2,238.2 226.9,238.2 226.6,245.9 226.5,253.9 226.5,259.3 226.7,264.5 289.2,264.5 289.2,238.7 289.2,238.7 "></polygon><polygon id="spoly_129" data-role="section" data-sectionid="129" data-angle="360" points="289.2,236.5 289.2,233.1 289.2,223 289.2,219.6 231.6,207.5 230.1,214.2 228.8,221.3 227.9,228.8 227.1,236.5 289.2,236.5 289.2,236.5 "></polygon><polygon id="spoly_130" data-role="section" data-sectionid="130" data-angle="16.3" points="289.3,217.9 289.7,214.2 290.2,210.7 241.4,181.5 238.7,187.1 236.2,193 234,199.3 232.1,205.9 289.3,217.9 289.3,217.9 "></polygon><polygon id="spoly_131" data-role="section" data-sectionid="131" data-angle="26.8" points="290.6,208.9 291.4,206 292.6,203.4 294,201 295.8,198.7 258.2,158.7 255.9,161.1 253.7,163.5 251.6,166 249.6,168.6 247.6,171.3 245.7,174.2 244,177 242.2,180 290.6,208.9 290.6,208.9 "></polygon><polygon id="spoly_132" data-role="section" data-sectionid="132" data-angle="30" points="297,197.6 298.8,196.1 300.9,194.8 303.1,193.6 305.6,192.5 280.1,142.3 274.5,145.6 269.2,149.3 264.1,153.2 259.4,157.6 297,197.6 297,197.6 "></polygon><polygon id="spoly_133" data-role="section" data-sectionid="133" data-angle="67.2" points="307.2,191.8 309.8,191 312.7,190.2 315.8,189.5 319.1,188.9 304.3,132.1 298.3,134.1 292.5,136.4 286.9,138.8 281.5,141.6 307.2,191.8 307.2,191.8 "></polygon><polygon id="spoly_134" data-role="section" data-sectionid="134" data-angle="111.9" points="320.7,188.6 324.9,188.1 329.4,187.5 339.4,186.6 331.1,125.7 324.5,126.9 318.2,128.3 311.9,129.8 305.9,131.6 320.7,188.6 320.7,188.6 "></polygon><polygon id="spoly_135" data-role="section" data-sectionid="135" data-angle="96.4" points="341.1,186.6 351,186.1 362,185.7 357.2,122.6 350.9,123.1 344.8,123.8 338.7,124.6 332.7,125.5 341.1,186.6 341.1,186.6 "></polygon><polygon id="spoly_136" data-role="section" data-sectionid="136" data-angle="92.6" points="363.6,185.7 383.7,185.5 382.8,121.4 370.6,121.7 358.9,122.4 363.6,185.7 363.6,185.7 "></polygon><polygon id="spoly_201" data-role="section" data-sectionid="201" data-angle="90" points="407.3,94.1 396.2,94 381.1,94.2 382.2,118.6 397,118.4 406.9,118.5 407.3,94.1 407.3,94.1 "></polygon><polygon id="spoly_202" data-role="section" data-sectionid="202" data-angle="72.9" points="433.1,95 421.2,94.5 409,94.2 408.6,118.5 420.5,118.9 432.1,119.4 433.1,95 433.1,95 "></polygon><polygon id="spoly_203" data-role="section" data-sectionid="203" data-angle="110.6" points="460.3,97.3 447.7,96 434.8,95.1 433.8,119.5 445.4,120.5 456.7,121.8 460.3,97.3 460.3,97.3 "></polygon><polygon id="spoly_204" data-role="section" data-sectionid="204" data-angle="104.1" points="485.4,101.4 479.7,100.3 474,99.3 468,98.4 462,97.6 458.4,122 464.1,122.9 469.8,123.9 475.3,125 480.8,126.2 485.4,101.4 485.4,101.4 "></polygon><polygon id="spoly_205" data-role="section" data-sectionid="205" data-angle="105.6" points="509.2,107.8 503.9,106.1 498.4,104.6 492.8,103.1 487.1,101.8 482.4,126.6 487.3,127.9 492.1,129.3 496.8,130.9 501.3,132.6 509.2,107.8 509.2,107.8 "></polygon><polygon id="spoly_206" data-role="section" data-sectionid="206" data-angle="115.1" points="531.2,117.2 526.3,114.8 521.3,112.5 516.1,110.4 510.8,108.4 502.9,133.2 507,134.9 510.9,136.6 514.8,138.5 518.6,140.6 531.2,117.2 531.2,117.2 "></polygon><polygon id="spoly_207" data-role="section" data-sectionid="207" data-angle="138.3" points="552.3,131.3 547.7,127.6 542.8,124.2 537.9,121 532.7,118 520,141.4 523.9,143.8 527.6,146.3 531.2,149.1 534.7,151.9 552.3,131.3 552.3,131.3 "></polygon><polygon id="spoly_208" data-role="section" data-sectionid="208" data-angle="171.7" points="569.2,149.1 565.6,144.6 561.7,140.3 557.8,136.2 553.6,132.4 536,153 539.5,156.3 542.9,159.8 546.1,163.5 549.1,167.3 569.2,149.1 569.2,149.1 "></polygon><polygon id="spoly_209" data-role="section" data-sectionid="209" data-angle="28" points="582.2,171.4 579.5,165.8 576.6,160.5 573.5,155.3 570.2,150.6 550.1,168.7 552.4,172 554.6,175.6 556.6,179.1 558.6,182.9 582.2,171.4 582.2,171.4 "></polygon><polygon id="spoly_210" data-role="section" data-sectionid="210" data-angle="3.8" points="590.2,194.3 588.6,188.6 586.8,183.2 584.9,177.9 582.9,173 559.4,184.4 561,188.2 562.6,192.1 564.1,196.1 565.4,200.2 590.2,194.3 590.2,194.3 "></polygon><polygon id="spoly_211" data-role="section" data-sectionid="211" data-angle="4" points="594.9,219.8 594.1,213.5 593.1,207.4 591.9,201.6 590.6,195.9 565.9,201.8 567.2,206.5 568.4,211.4 569.4,216.5 570.3,221.8 594.9,219.8 594.9,219.8 "></polygon><polygon id="spoly_212" data-role="section" data-sectionid="212" data-angle="360" points="596.9,248.3 596.7,241.2 596.3,234.4 595.8,227.8 595.1,221.5 570.5,223.5 571.3,229.3 571.8,235.4 572.2,241.7 572.5,248.3 596.9,248.3 596.9,248.3 "></polygon><polygon id="spoly_213" data-role="section" data-sectionid="213" data-angle="360" points="596,277.8 596.4,272 596.7,266.1 596.9,260.1 597,253.9 596.9,249.9 572.5,249.9 572.5,253.9 572.5,259.6 572.3,265.2 572,270.6 571.5,275.9 596,277.8 596,277.8 "></polygon><polygon id="spoly_214" data-role="section" data-sectionid="214" data-angle="357.2" points="591.8,306.6 593.1,300.3 594.2,293.5 595.1,286.6 595.8,279.4 571.3,277.6 570.6,283.9 569.7,289.9 568.5,295.7 567.2,301.3 591.8,306.6 591.8,306.6 "></polygon><polygon id="spoly_215" data-role="section" data-sectionid="215" data-angle="356.6" points="585.5,328.5 587.2,323.7 588.7,318.8 590.2,313.6 591.4,308.3 566.8,302.9 565.6,306.9 564.4,310.8 563.1,314.6 561.6,318.2 585.5,328.5 585.5,328.5 "></polygon><polygon id="spoly_216" data-role="section" data-sectionid="216" data-angle="344.5" points="574.9,350.2 577.7,345.5 580.2,340.6 582.6,335.4 584.8,330 561,319.7 559.4,323.3 557.7,326.7 555.9,330 554,333.2 574.9,350.2 574.9,350.2 "></polygon><polygon id="spoly_217" data-role="section" data-sectionid="217" data-angle="200" points="558.5,370.9 562.7,366.5 566.7,361.8 570.5,356.9 574,351.7 553.1,334.7 550.4,338.7 547.5,342.5 544.5,346.1 541.4,349.6 558.5,370.9 558.5,370.9 "></polygon><polygon id="spoly_218" data-role="section" data-sectionid="218" data-angle="223.4" points="539.4,385.8 544.2,382.7 548.7,379.3 553.1,375.8 557.2,372.1 540.2,350.8 537.2,353.6 534.2,356.2 531.1,358.8 527.8,361.2 539.4,385.8 539.4,385.8 "></polygon><polygon id="spoly_219" data-role="section" data-sectionid="219" data-angle="244.3" points="517.9,396.6 523.1,394.4 528.3,392 533.2,389.4 538,386.7 526.4,362.2 522.4,364.8 518.2,367.3 513.9,369.6 509.5,371.7 517.9,396.6 517.9,396.6 "></polygon><polygon id="spoly_220" data-role="section" data-sectionid="220" data-angle="255" points="495.5,403.9 500.9,402.4 506.2,400.8 511.3,399.1 516.2,397.3 507.9,372.4 503.9,374.2 499.7,375.8 495.3,377.3 490.9,378.7 495.5,403.9 495.5,403.9 "></polygon><polygon id="spoly_221" data-role="section" data-sectionid="221" data-angle="261.7" points="457.7,410.5 467.2,409.3 476.3,407.9 485.2,406.2 493.8,404.3 489.3,379.1 484.3,380.5 479.2,381.8 474,382.9 468.8,384 457.7,410.5 457.7,410.5 "></polygon><polygon id="spoly_227" data-role="section" data-sectionid="227" data-angle="249" points="306.5,405.4 314.2,407 322.1,408.3 330.2,409.5 338.5,410.6 329,384.2 320.6,382.5 312.4,380.6 306.5,405.4 306.5,405.4 "></polygon><polygon id="spoly_228" data-role="section" data-sectionid="228" data-angle="325.2" points="283.8,399 288.9,400.7 294.1,402.2 299.4,403.7 304.9,405 310.8,380.2 306,378.9 301.4,377.4 296.8,375.8 292.3,374.1 283.8,399 283.8,399 "></polygon><polygon id="spoly_229" data-role="section" data-sectionid="229" data-angle="303.1" points="259,387.8 264.5,390.8 270.2,393.6 276.1,396.1 282.2,398.5 290.8,373.5 286.2,371.4 281.8,369.3 277.5,367 273.3,364.4 259,387.8 259,387.8 "></polygon><polygon id="spoly_230" data-role="section" data-sectionid="230" data-angle="306.7" points="238.4,372.6 242.9,376.5 247.6,380.3 252.5,383.7 257.6,386.9 271.9,363.5 268.1,360.9 264.5,358.2 261,355.3 257.5,352.2 238.4,372.6 238.4,372.6 "></polygon><polygon id="spoly_231" data-role="section" data-sectionid="231" data-angle="320" points="222.9,354.4 226.2,359 229.7,363.4 233.3,367.5 237.2,371.4 256.3,351.1 253.6,348.3 251,345.2 248.4,342.1 246,338.9 222.9,354.4 222.9,354.4 "></polygon><polygon id="spoly_232" data-role="section" data-sectionid="232" data-angle="330.7" points="211.6,333.4 213.9,338.7 216.4,343.6 219.1,348.4 221.9,353 245,337.5 242.6,333.8 240.2,329.9 238.1,325.8 236.1,321.6 211.6,333.4 211.6,333.4 "></polygon><polygon id="spoly_233" data-role="section" data-sectionid="233" data-angle="342.1" points="204.1,310.1 205.6,315.8 207.2,321.4 209,326.7 211,331.9 235.4,320.1 233.9,316.3 232.4,312.4 231.1,308.4 229.8,304.3 204.1,310.1 204.1,310.1 "></polygon><polygon id="spoly_234" data-role="section" data-sectionid="234" data-angle="353.3" points="199.7,284 200.5,290.5 201.4,296.6 202.5,302.6 203.7,308.5 229.4,302.6 228.2,297.7 227.1,292.6 226.2,287.3 225.4,281.8 199.7,284 199.7,284 "></polygon><polygon id="spoly_235" data-role="section" data-sectionid="235" data-angle="360" points="198.2,255 198.3,262.1 198.6,269.1 199,275.8 199.6,282.3 225.2,280.2 224.6,274.2 224.1,268 223.9,261.6 223.7,255 198.2,255 198.2,255 "></polygon><polygon id="spoly_236" data-role="section" data-sectionid="236" data-angle="360" points="199.4,226.9 198.9,233.2 198.5,239.8 198.3,246.4 198.2,253.3 223.7,253.3 223.9,246.4 224.1,239.7 224.6,233.2 225.3,226.9 199.4,226.9 199.4,226.9 "></polygon><polygon id="spoly_237" data-role="section" data-sectionid="237" data-angle="7.7" points="203.8,198.6 202.5,204.9 201.3,211.5 200.3,218.2 199.6,225.2 225.5,225.2 226.3,219.8 227.2,214.4 228.3,209.3 229.6,204.4 203.8,198.6 203.8,198.6 "></polygon><polygon id="spoly_238" data-role="section" data-sectionid="238" data-angle="15.5" points="211,175.9 209.1,180.9 207.3,186 205.7,191.4 204.3,197 230.1,202.8 231.3,198.8 232.5,195 233.9,191.3 235.4,187.7 211,175.9 211,175.9 "></polygon><polygon id="spoly_239" data-role="section" data-sectionid="239" data-angle="30.8" points="221.1,155.9 218.5,160.2 216.1,164.7 213.8,169.4 211.6,174.3 236.1,186.2 237.9,182.4 239.8,178.8 241.7,175.3 243.8,172 221.1,155.9 221.1,155.9 "></polygon><polygon id="spoly_240" data-role="section" data-sectionid="240" data-angle="41" points="235.8,137.6 232.1,141.5 228.6,145.6 225.2,149.9 222,154.5 244.8,170.6 247,167.3 249.4,164.3 251.9,161.4 254.4,158.6 235.8,137.6 235.8,137.6 "></polygon><polygon id="spoly_241" data-role="section" data-sectionid="241" data-angle="54.1" points="258.2,120.2 252.5,123.8 247,127.7 241.9,131.9 237,136.4 255.6,157.4 259.1,154 262.7,150.8 266.6,147.8 270.5,144.9 258.2,120.2 258.2,120.2 "></polygon><polygon id="spoly_242" data-role="section" data-sectionid="242" data-angle="62.3" points="277.3,110.8 272.7,112.7 268.2,114.8 263.8,117 259.6,119.4 271.9,144 275.2,142 278.5,140.1 281.9,138.3 285.4,136.5 277.3,110.8 277.3,110.8 "></polygon><polygon id="spoly_243" data-role="section" data-sectionid="243" data-angle="52.2" points="301.8,103 295.9,104.6 290.1,106.3 284.4,108.2 278.9,110.2 286.9,135.8 291.7,133.7 296.7,131.8 301.7,130 306.9,128.3 301.8,103 301.8,103 "></polygon><polygon id="spoly_244" data-role="section" data-sectionid="244" data-angle="119.4" points="328.6,98 322.1,99 315.8,100.1 309.5,101.3 303.5,102.6 308.5,127.9 314.1,126.5 319.8,125.1 325.6,123.9 331.5,122.9 328.6,98 328.6,98 "></polygon><polygon id="spoly_245" data-role="section" data-sectionid="245" data-angle="96.7" points="352.6,95.5 341.3,96.5 330.3,97.8 333.1,122.6 343.8,121.1 354.7,120.1 352.6,95.5 352.6,95.5 "></polygon><polygon id="spoly_246" data-role="section" data-sectionid="246" data-angle="93.1" points="379.4,94.2 366.7,94.7 354.3,95.4 356.4,119.9 368.3,119.1 380.5,118.6 379.4,94.2 379.4,94.2 "></polygon><polygon id="spoly_301" data-role="section" data-sectionid="301" data-angle="90" points="412.2,15.7 406.6,15.6 397.7,15.5 388.6,15.6 384.2,15.7 384.2,60.5 387.8,60.5 387.8,75.2 384.2,75.2 384.2,90.2 396.2,90.1 412.2,90.3 412.2,75.2 408,75.2 408,60.5 412.2,60.5 412.2,15.7 412.2,15.7 "></polygon><polygon id="spoly_302" data-role="section" data-sectionid="302" data-angle="69.3" points="445.2,17.5 429.9,16.5 414.4,15.8 414.4,60.5 418,60.5 418,75.2 414.4,75.2 414.4,90.3 426.7,90.7 438.8,91.4 440.2,75.6 436,75.3 437.2,60.7 441.4,61 445.2,17.5 445.2,17.5 "></polygon><polygon id="spoly_303" data-role="section" data-sectionid="303" data-angle="103.4" points="477.8,20.7 462.8,19.1 447.4,17.7 443.7,61.2 447.2,61.5 446,76.1 442.3,75.8 441,91.6 454.4,92.8 461,93.5 467.5,94.3 469.6,79.4 465.4,78.8 467.5,64.3 471.6,64.9 477.8,20.7 477.8,20.7 "></polygon><polygon id="spoly_304" data-role="section" data-sectionid="304" data-angle="101" points="508.9,25.1 494.8,23 480,21 473.8,65.2 477.5,65.7 475.4,80.2 471.8,79.7 469.7,94.7 476.1,95.7 482.4,96.9 488.5,98.1 494.5,99.5 497.4,84.8 493.3,83.9 496,69.6 500.1,70.4 508.9,25.1 508.9,25.1 "></polygon><polygon id="spoly_305" data-role="section" data-sectionid="305" data-angle="107.2" points="543.3,31.5 527.9,28.4 511.1,25.5 502.4,70.8 506,71.5 503.2,85.9 499.6,85.2 496.7,100.1 502.5,101.6 508.1,103.4 513.5,105.2 518.8,107.3 523.5,92.8 519.5,91.5 524,77.6 528,78.9 543.3,31.5 543.3,31.5 "></polygon><polygon id="spoly_306" data-role="section" data-sectionid="306" data-angle="149.4" points="578.7,39.6 563.8,36 555.1,34 545.5,31.9 530.1,79.6 533.6,80.7 529.1,94.7 525.6,93.5 520.9,108.1 526,110.4 531.1,112.7 536,115.3 540.7,118.1 547.1,104.8 543.3,103 549.7,89.8 553.5,91.6 578.7,39.6 578.7,39.6 "></polygon><polygon id="spoly_307" data-role="section" data-sectionid="307" data-angle="59.8" points="608.9,70.9 604.9,60 601.9,52 599,45.3 594.3,43.9 580.9,40.3 555.5,92.6 558.8,94.2 552.4,107.4 549.1,105.8 542.6,119.3 547,122.2 551.3,125.5 555.4,128.8 559.4,132.4 563.2,127.6 560.4,125.3 569.6,113.9 572.4,116.3 608.9,70.9 608.9,70.9 "></polygon><polygon id="spoly_308" data-role="section" data-sectionid="308" data-angle="25.4" points="622.2,114.6 619,102.9 615.9,92.1 612.8,82.2 609.8,73.4 574.1,117.7 577.4,120.3 568.3,131.7 565,129.1 561,133.9 565,137.9 568.7,142.1 572.2,146.5 575.5,151.3 581.1,146.9 578.9,144 590.4,135 592.6,137.8 622.2,114.6 622.2,114.6 "></polygon><polygon id="spoly_309" data-role="section" data-sectionid="309" data-angle="25.6" points="630.5,151.4 628.7,142.3 626.8,133.5 624.8,125.1 622.8,117 594,139.7 596.6,143 585.1,152 582.5,148.7 576.8,153.2 579.6,157.7 582.3,162.5 584.7,167.5 587,172.6 594.2,169.2 592.6,165.9 605.6,159.5 607.2,162.7 630.5,151.4 630.5,151.4 "></polygon><polygon id="spoly_310" data-role="section" data-sectionid="310" data-angle="17" points="635.5,182.6 633.4,167.9 630.9,153.6 608.2,164.7 610.1,168.5 597,174.9 595.1,171.1 587.9,174.7 589.6,179.3 591.2,184 592.7,188.8 594.1,193.8 601,191.9 600.1,188.4 614.2,184.6 615.1,188.2 635.5,182.6 635.5,182.6 "></polygon><polygon id="spoly_311" data-role="section" data-sectionid="311" data-angle="10.9" points="639,218.6 638.4,209.9 637.6,201.5 636.8,193.1 635.8,184.9 615.7,190.3 616.8,194.4 602.7,198.2 601.6,194.1 594.6,196 596,201.9 597.2,207.9 598.1,214.2 599,220.7 607.2,220.3 607,216.6 621.5,215.8 621.7,219.5 639,218.6 639,218.6 "></polygon><polygon id="spoly_312" data-role="section" data-sectionid="312" data-angle="360" points="639.9,252.5 639.9,247.7 639.7,234.2 639.1,220.8 621.8,221.7 622.1,225.9 607.5,226.7 607.3,222.5 599.3,222.9 599.8,229 600.3,235.3 600.6,241.7 600.8,248.3 619.9,248.3 619.9,252.5 639.9,252.5 639.9,252.5 "></polygon><polygon id="spoly_313" data-role="section" data-sectionid="313" data-angle="360" points="639.1,284.6 639.6,272.2 639.8,259.5 639.7,255.7 639.8,254.7 619.9,254.7 619.9,259.5 600.8,259.5 600.7,265.4 600.4,271.2 600,276.9 599.5,282.5 605,282.7 605.2,278.5 619.8,279.3 619.6,283.5 639.1,284.6 639.1,284.6 "></polygon><polygon id="spoly_314" data-role="section" data-sectionid="314" data-angle="353.6" points="636,319.7 636.9,311.8 637.8,303.6 638.4,295.2 639,286.8 619.4,285.8 619.2,289.4 604.7,288.6 604.9,285 599.3,284.7 598.5,291 597.6,297.2 596.5,303.1 595.3,308.9 601.6,310.6 602.7,306.5 616.8,310.3 615.6,314.3 636,319.7 636,319.7 "></polygon><polygon id="spoly_315" data-role="section" data-sectionid="315" data-angle="342" points="631,352.4 633.5,337.5 634.7,329.8 635.7,322 615.1,316.5 614.1,320 600.1,316.2 601,312.7 594.9,311.1 593.7,315.8 592.3,320.4 590.9,324.9 589.4,329.3 595.8,332.8 597.9,329.1 610.6,336.2 608.5,339.9 631,352.4 631,352.4 "></polygon><polygon id="spoly_316" data-role="section" data-sectionid="316" data-angle="333.8" points="623.4,387.1 625.3,379.4 627.1,371.4 628.9,363.2 630.6,354.7 607.5,341.9 605.7,345 593,338 594.7,334.8 588.6,331.4 586.3,336.8 583.9,342.1 581.3,347.1 578.5,352 584.2,356.4 586.8,353.2 598.3,362.1 595.7,365.4 623.4,387.1 623.4,387.1 "></polygon><polygon id="spoly_317" data-role="section" data-sectionid="317" data-angle="331.9" points="610.3,431.5 613.3,422.5 616.4,412.4 619.6,401.4 622.8,389.5 594.3,367.2 592.1,370 580.6,361.1 582.8,358.2 577.3,353.9 573.9,358.9 570.4,363.7 566.6,368.1 562.5,372.4 567.3,378.2 570.5,375.6 579.7,386.9 576.4,389.5 610.3,431.5 610.3,431.5 "></polygon><polygon id="spoly_318" data-role="section" data-sectionid="318" data-angle="301.8" points="581,466.3 594.2,462.6 598.9,461.2 601.9,454.1 605.3,445.6 609.5,434 574.6,391 571.8,393.2 562.7,381.9 565.5,379.6 561,374 556.7,377.9 552.3,381.6 547.7,385 542.8,388.2 549.4,401.5 552.6,399.9 559,413 555.7,414.6 581,466.3 581,466.3 "></polygon><polygon id="spoly_319" data-role="section" data-sectionid="319" data-angle="214.4" points="545.6,474.6 555.2,472.5 563.9,470.5 578.8,466.9 553.7,415.5 549.9,417.4 543.5,404.3 547.3,402.5 541,389.4 536.3,392.2 531.4,394.8 526.4,397.2 521.2,399.4 525.8,413.7 529.3,412.6 533.8,426.5 530.3,427.6 545.6,474.6 545.6,474.6 "></polygon><polygon id="spoly_320" data-role="section" data-sectionid="320" data-angle="254.1" points="511.3,480.9 528.1,478 543.4,475 528.2,428.3 524.2,429.6 519.7,415.8 523.7,414.4 519.1,400.3 513.8,402.3 508.3,404.2 502.7,405.9 496.9,407.5 499.8,422.1 503.4,421.4 506.2,435.6 502.6,436.3 511.3,480.9 511.3,480.9 "></polygon><polygon id="spoly_321" data-role="section" data-sectionid="321" data-angle="260.5" points="480.1,485.4 495,483.5 509,481.3 500.4,436.8 496.2,437.5 493.5,423.2 497.6,422.5 494.8,408.1 488.7,409.5 482.6,410.7 476.3,411.8 469.9,412.9 472,427.4 475.6,427 477.6,441.4 474,441.9 480.1,485.4 480.1,485.4 "></polygon><polygon id="spoly_322" data-role="section" data-sectionid="322" data-angle="260.3" points="447.6,488.7 463,487.3 477.9,485.6 471.8,442.2 467.7,442.8 465.6,428.4 469.8,427.8 467.7,413.2 461.2,414 454.6,414.8 448,415.4 441.1,415.9 442.5,431.4 446.2,431 447.4,445.5 443.8,445.9 447.6,488.7 447.6,488.7 "></polygon><polygon id="spoly_323" data-role="section" data-sectionid="323" data-angle="291.5" points="414.5,490.5 430.1,489.9 445.3,488.8 441.6,446 437.4,446.4 436.1,431.9 440.3,431.5 438.9,416 426.9,416.7 414.5,417.1 414.5,431.9 418.2,431.9 418.2,446.5 414.5,446.5 414.5,490.5 414.5,490.5 "></polygon><polygon id="spoly_324" data-role="section" data-sectionid="324" data-angle="270" points="384.2,490.7 388.6,490.7 397.6,490.8 406.6,490.7 412.3,490.6 412.3,446.5 408.1,446.5 408.1,431.9 412.3,431.9 412.3,417.2 398.9,417.2 384.2,417.2 384.2,431.9 387.9,431.9 387.9,446.5 384.2,446.5 384.2,490.7 384.2,490.7 "></polygon><polygon id="spoly_325" data-role="section" data-sectionid="325" data-angle="266" points="350.9,488.9 366.3,489.9 382,490.6 382,446.5 377.8,446.5 377.8,431.9 382,431.9 382,417.1 369.5,416.7 357.4,416 356,431.5 360.1,431.9 358.9,446.4 354.7,446 350.9,488.9 350.9,488.9 "></polygon><polygon id="spoly_326" data-role="section" data-sectionid="326" data-angle="260.5" points="318.3,485.8 333.3,487.4 348.7,488.8 352.5,445.9 348.9,445.5 350.1,431 353.7,431.4 355.1,415.9 341.6,414.8 335,414.1 328.5,413.2 326.5,427.8 330.7,428.4 328.7,442.8 324.5,442.2 318.3,485.8 318.3,485.8 "></polygon><polygon id="spoly_327" data-role="section" data-sectionid="327" data-angle="251.8" points="287.2,481.5 301.3,483.6 316.1,485.5 322.3,441.9 318.6,441.4 320.7,427 324.2,427.4 326.3,413 319.9,412 313.6,410.9 307.4,409.6 301.4,408.2 298.7,422.5 302.8,423.2 300,437.5 295.9,436.8 287.2,481.5 287.2,481.5 "></polygon><polygon id="spoly_328" data-role="section" data-sectionid="328" data-angle="293.7" points="252.8,475.2 268.2,478.2 285,481.1 293.7,436.3 290.2,435.6 292.9,421.4 296.5,422.1 299.3,407.7 293.5,406.2 287.9,404.5 282.4,402.7 277.1,400.6 272.6,414.4 276.6,415.8 272,429.6 268,428.3 252.8,475.2 252.8,475.2 "></polygon><polygon id="spoly_329" data-role="section" data-sectionid="329" data-angle="293.3" points="217.4,467.1 232.3,470.8 241,472.7 250.5,474.8 265.9,427.6 262.4,426.5 267,412.6 270.4,413.7 275,399.9 269.7,397.6 264.7,395.2 259.8,392.7 255,390 248.9,402.5 252.7,404.3 246.3,417.4 242.6,415.5 217.4,467.1 217.4,467.1 "></polygon><polygon id="spoly_330" data-role="section" data-sectionid="330" data-angle="307.1" points="184.7,431 189.2,443.8 192.9,453.3 195.4,459.2 196.2,461.2 201.2,462.7 207.1,464.3 215.1,466.5 240.5,414.6 237.2,413 243.7,399.9 246.9,401.5 253.1,388.8 247.5,385.1 242.2,381.1 237.2,376.8 232.3,372.1 228.6,376.8 231.4,379.1 222.2,390.4 219.4,388.2 184.7,431 184.7,431 "></polygon><polygon id="spoly_331" data-role="section" data-sectionid="331" data-angle="345.7" points="171.4,385.9 174.5,397.9 177.7,409 180.8,419.3 183.8,428.5 217.6,386.7 214.3,384.1 223.5,372.8 226.8,375.4 230.7,370.5 226.7,366 223,361.3 219.4,356.2 216,350.9 211.8,354.3 214,357.2 202.5,366.1 200.3,363.2 171.4,385.9 171.4,385.9 "></polygon><polygon id="spoly_332" data-role="section" data-sectionid="332" data-angle="328.1" points="163.9,350.8 165.5,359.4 167.2,367.7 169,375.7 170.8,383.5 198.9,361.5 196.4,358.2 207.8,349.2 210.4,352.5 214.8,349 212.2,344.1 209.7,338.9 207.4,333.5 205.2,327.9 199.9,330.9 201.6,334 188.9,341.1 187.1,338 163.9,350.8 163.9,350.8 "></polygon><polygon id="spoly_333" data-role="section" data-sectionid="333" data-angle="316.2" points="158.9,318.1 160,325.9 161,333.6 163.5,348.5 186.1,336 184,332.3 196.7,325.2 198.7,328.9 204.5,325.7 203.1,321.3 201.7,316.7 200.6,312 199.4,307.2 193.6,308.8 194.5,312.3 180.5,316.1 179.5,312.5 158.9,318.1 158.9,318.1 "></polygon><polygon id="spoly_334" data-role="section" data-sectionid="334" data-angle="255.1" points="156,282.9 156.5,291.3 157.1,299.6 157.8,307.8 158.7,315.8 178.9,310.4 177.9,306.4 191.9,302.6 193,306.6 198.9,305 197.9,299.2 196.9,293.3 196.1,287.1 195.4,280.8 189.7,281.1 189.8,284.7 175.4,285.5 175.1,281.8 156,282.9 156,282.9 "></polygon><polygon id="spoly_335" data-role="section" data-sectionid="335" data-angle="180" points="155.4,249.1 155.5,253.6 155.4,259.5 155.5,270.1 155.8,280.6 175.1,279.6 174.8,275.4 189.4,274.6 189.6,278.8 195.2,278.5 194.8,272.6 194.5,266.6 194.3,260.3 194.3,253.9 175.6,253.9 175.6,249.1 155.4,249.1 155.4,249.1 "></polygon><polygon id="spoly_336" data-role="section" data-sectionid="336" data-angle="180" points="194.5,242.6 194.7,236.6 195.2,230.7 195.7,225 196.3,219.4 190.8,219.1 190.5,223.4 176,222.6 176.2,218.4 156.4,217.3 156,224.6 155.6,232 155.5,239.3 155.4,246.8 175.6,246.8 175.6,242.6 194.5,242.6 194.5,242.6 "></polygon><polygon id="spoly_337" data-role="section" data-sectionid="337" data-angle="55.7" points="196.6,217.2 197.5,210.7 198.7,204.3 199.9,198.2 201.4,192.3 195.9,190.7 194.7,194.8 180.7,191 181.8,186.9 160,181.1 158.9,189.4 158,197.8 157.2,206.4 156.5,215.1 176.3,216.1 176.5,212.5 191,213.2 190.9,216.9 196.6,217.2 196.6,217.2 "></polygon><polygon id="spoly_338" data-role="section" data-sectionid="338" data-angle="31" points="202,190.1 203.4,185.3 205,180.8 206.6,176.3 208.3,172 202.8,169 200.7,172.6 188,165.6 190.1,161.9 165.4,148.2 162.7,163.2 161.4,170.9 160.2,178.9 182.4,184.8 183.3,181.2 197.4,185 196.4,188.5 202,190.1 202,190.1 "></polygon><polygon id="spoly_339" data-role="section" data-sectionid="339" data-angle="25.6" points="209.2,169.9 211.8,164.5 214.6,159.3 217.6,154.2 220.7,149.4 216.1,145.8 213.5,149.1 202,140.2 204.6,136.9 173.6,112.5 171.6,120.4 169.6,128.6 167.7,137.1 165.9,145.8 191.1,159.9 192.9,156.7 205.6,163.8 203.8,167 209.2,169.9 209.2,169.9 "></polygon><polygon id="spoly_340" data-role="section" data-sectionid="340" data-angle="23" points="222,147.6 225.3,143.3 228.8,139.2 232.3,135.4 236.1,131.7 233.1,127.9 229.8,130.5 220.6,119.2 223.9,116.5 186.6,70.3 183.7,78.6 180.6,88.2 177.5,98.7 174.2,110.1 205.9,135 208.2,132.1 219.7,141.2 217.4,144.1 222,147.6 222,147.6 "></polygon><polygon id="spoly_341" data-role="section" data-sectionid="341" data-angle="51.6" points="237.8,130.2 241.4,127.1 245.2,124.1 249.1,121.3 253.1,118.6 246.9,105.8 243.6,107.4 237.2,94.2 240.5,92.6 215,40 207,42.2 201.1,43.9 196.3,45.3 193.8,51.2 191,58.2 187.5,67.7 225.7,115.1 228.5,112.8 237.7,124.2 234.8,126.5 237.8,130.2 237.8,130.2 "></polygon><polygon id="spoly_342" data-role="section" data-sectionid="342" data-angle="65" points="250.4,31.7 240.9,33.8 232.1,35.8 217.2,39.5 242.6,91.6 246.3,89.8 252.7,103 248.9,104.8 255.1,117.5 259.8,114.8 264.7,112.2 269.7,109.8 274.9,107.5 270.3,93.5 266.9,94.7 262.4,80.7 265.9,79.6 250.4,31.7 250.4,31.7 "></polygon><polygon id="spoly_343" data-role="section" data-sectionid="343" data-angle="63.5" points="284.8,25.4 268,28.3 252.6,31.3 268,78.9 272,77.6 276.5,91.5 272.5,92.8 277,106.8 282.4,104.7 287.8,102.9 293.4,101.2 299.3,99.7 296.4,85.2 292.8,85.9 290.1,71.5 293.7,70.8 284.8,25.4 284.8,25.4 "></polygon><polygon id="spoly_344" data-role="section" data-sectionid="344" data-angle="110.1" points="316,21 301.1,22.9 287.1,25 295.8,70.4 300,69.6 302.8,83.9 298.6,84.8 301.4,99.1 307.4,97.8 313.5,96.5 319.8,95.4 326.3,94.4 324.2,79.7 320.6,80.2 318.6,65.7 322.1,65.2 316,21 316,21 "></polygon><polygon id="spoly_345" data-role="section" data-sectionid="345" data-angle="97.9" points="348.6,17.6 333.1,19 318.2,20.7 324.4,64.9 328.6,64.3 330.5,78.8 326.4,79.4 328.4,94 335,93.3 341.5,92.5 348.2,91.9 355,91.4 353.6,75.8 350,76.1 348.7,61.5 352.4,61.2 348.6,17.6 348.6,17.6 "></polygon><polygon id="spoly_346" data-role="section" data-sectionid="346" data-angle="91.7" points="381.9,15.8 366.2,16.4 350.8,17.5 354.6,61 358.8,60.7 360.1,75.3 355.9,75.6 357.2,91.2 369.4,90.6 381.9,90.2 381.9,75.2 377.7,75.2 377.7,60.5 381.9,60.5 381.9,15.8 381.9,15.8 "></polygon><polygon id="spoly_penthouse_suites" data-role="section" data-sectionid="penthouse_suites" data-angle="170.5" points="252.2,494.2 263.1,497 293.3,502.1 338.7,507.3 366.5,509 396.7,509.5 426.9,509 454.7,507.3 479.5,504.4 501.3,501.6 532.1,495.9 543,493 543,477.1 532.1,479.9 501.3,485.6 479.5,488.5 454.7,491.3 426.9,493 396.7,493.6 366.5,493 338.7,491.3 293.3,486.2 263.1,481.1 252.2,478.2 252.2,494.2 252.2,494.2 "></polygon><polygon class="is-d epoly_videoboard_2" data-role="dynamic" points="135.9,297.3 135.9,297.3 135.9,297.3 139.6,296.1 142.7,292.5 147.6,280.5 150.6,264.3 151.8,248 151.8,248 151.8,247.4 151.8,246.2 150.6,228.8 147.6,212.5 142.7,201.1 139.6,198.1 135.9,196.9 135.9,196.9 135.9,196.9 132.3,198.1 129.2,201.1 124.3,213.1 121.3,228.8 120.1,246.2 120.1,246.2 120.1,247.4 120.1,248 121.3,264.9 124.3,281.1 129.2,293.1 132.3,296.1 135.9,297.3 135.9,297.3 " style="fill:#F4F4F4; stroke:#BEBEBE; stroke-width:1; fill-opacity:1.0;"></polygon><polygon class="is-d epoly_press_level" data-role="dynamic" points="252.2,494.2 263.1,497 293.3,502.1 338.7,507.3 366.5,509 396.7,509.5 426.9,509 454.7,507.3 479.5,504.4 501.3,501.6 532.1,495.9 543,493 543,477.1 532.1,479.9 501.3,485.6 479.5,488.5 454.7,491.3 426.9,493 396.7,493.6 366.5,493 338.7,491.3 293.3,486.2 263.1,481.1 252.2,478.2 252.2,494.2 252.2,494.2 " style="fill:#F4F4F4; stroke:#BEBEBE; stroke-width:1; fill-opacity:1.0;"></polygon><polygon class="is-d epoly_bench_home" data-role="dynamic" points="354.5,298.2 354.5,311.5 439.5,311.5 439.5,298.2 439.5,298.2 439.5,298.2 " style="fill:#E31837; stroke:#000; stroke-width:0; fill-opacity:1;"></polygon><polygon class="is-d epoly_bench_visitor" data-role="dynamic" points="355.2,194.2 355.2,206.9 438.8,206.9 438.8,194.2 438.8,194.2 438.8,194.2 " style="fill:#DDD; stroke:#DDD; stroke-width:0; fill-opacity:1.0;"></polygon><polygon class="is-d epoly_b_suites_1" data-role="dynamic" points="354.7,388.5 342.5,387.3 341.3,397.1 353.5,398.9 354.7,388.5 354.7,388.5 " style="fill:#F4F4F4; stroke:#BEBEBE; stroke-width:1; fill-opacity:1.0;"></polygon><polygon class="is-d epoly_b_suites_2" data-role="dynamic" points="366.9,389.6 355.9,388.5 354.7,398.9 366.2,400 366.9,389.6 366.9,389.6 " style="fill:#F4F4F4; stroke:#BEBEBE; stroke-width:1; fill-opacity:1.0;"></polygon><polygon class="is-d epoly_b_suites_3" data-role="dynamic" points="378.4,390.2 368.1,389.6 367.5,400 378.4,400.6 378.4,390.2 378.4,390.2 " style="fill:#F4F4F4; stroke:#BEBEBE; stroke-width:1; fill-opacity:1.0;"></polygon><polygon class="is-d epoly_b_suites_4" data-role="dynamic" points="391.8,390.2 379.6,390.2 379.6,400.6 391.8,400.6 391.8,390.2 391.8,390.2 " style="fill:#F4F4F4; stroke:#BEBEBE; stroke-width:1; fill-opacity:1.0;"></polygon><polygon class="is-d epoly_b_suites_5" data-role="dynamic" points="416.5,390.3 404.9,390.3 404.9,400.9 416.5,400.9 416.5,390.3 416.5,390.3 " style="fill:#F4F4F4; stroke:#BEBEBE; stroke-width:1; fill-opacity:1.0;"></polygon><polygon class="is-d epoly_b_suites_6" data-role="dynamic" points="428,389.7 417.7,390.3 417.7,400.9 428.6,400.3 428,389.7 428,389.7 " style="fill:#F4F4F4; stroke:#BEBEBE; stroke-width:1; fill-opacity:1.0;"></polygon><polygon class="is-d epoly_b_suites_7" data-role="dynamic" points="440.2,388.5 429.2,389.1 429.8,400.3 441.4,399.1 440.2,388.5 440.2,388.5 " style="fill:#F4F4F4; stroke:#BEBEBE; stroke-width:1; fill-opacity:1.0;"></polygon><polygon class="is-d epoly_b_suites_8" data-role="dynamic" points="453.5,387.3 441.4,388.5 442.6,399.1 454.1,397.3 453.5,387.3 453.5,387.3 " style="fill:#F4F4F4; stroke:#BEBEBE; stroke-width:1; fill-opacity:1.0;"></polygon><polygon class="is-d epoly_broadcast_suites" data-role="dynamic" points="453.5,401.2 428.9,403.5 397.6,404.1 366.9,403.5 342.9,401.2 341.6,411.2 366.9,414.1 397.6,414.7 428.3,414.1 454.1,411.2 453.5,401.2 453.5,401.2 " style="fill:#F4F4F4; stroke:#BEBEBE; stroke-width:1; fill-opacity:1.0;"></polygon><polygon class="is-d epoly_videoboard_1" data-role="dynamic" points="656.7,208.7 656.7,208.7 656.7,208.7 653.6,209.9 651.1,213.5 647.4,225.6 645,238.8 643.7,249.6 643.7,249.6 643.7,250.2 643.7,250.8 643.7,250.8 645,261.7 647.4,275.5 651.1,286.9 653.6,290.5 656.7,291.7 656.7,291.7 656.7,291.7 659.8,290.5 662.3,286.9 666,275.5 668.5,261.7 669.7,250.8 669.7,250.8 669.7,250.2 669.7,249.6 669.7,249.6 668.5,238.8 666,225.6 662.3,213.5 659.8,209.9 656.7,208.7 656.7,208.7 " style="fill:#F4F4F4; stroke:#BEBEBE; stroke-width:1; fill-opacity:1.0;"></polygon></g><circle id="mctrmrk" cx="398.3" cy="254.4" r="1" stroke-width="0" stroke="#FFF" opacity="0"></circle><g id="svgsectionnames" style="opacity:1; font-size:5.766666666666667px;"><text data-sectionid="101" data-role="section" x="399" y="155.3">101</text><text data-sectionid="102" data-role="section" x="426.4" y="155.6" transform="rotate(3.75596 426.4 155.6)">102</text><text data-sectionid="103" data-role="section" x="450.5" y="156.8" transform="rotate(8.45896 450.5 156.8)">103</text><text data-sectionid="104" data-role="section" x="473" y="158.7" transform="rotate(11.9026 473 158.7)">104</text><text data-sectionid="105" data-role="section" x="493.6" y="164.4" transform="rotate(22.3278 493.6 164.4)">105</text><text data-sectionid="106" data-role="section" x="512.9" y="172.2" transform="rotate(34.3228 512.9 172.2)">106</text><text data-sectionid="107" data-role="section" x="528.3" y="187.7" transform="rotate(54.0436 528.3 187.7)">107</text><text data-sectionid="108" data-role="section" x="534.3" y="205.2" transform="rotate(71.4735 534.3 205.2)">108</text><text data-sectionid="109" data-role="section" x="537.5" y="229.2">109</text><text data-sectionid="110" data-role="section" x="537.6" y="256.4">110</text><text data-sectionid="111" data-role="section" x="536.8" y="281.5">111</text><text data-sectionid="112" data-role="section" x="534.6" y="303.9" transform="rotate(379.422 534.6 303.9)">112</text><text data-sectionid="113" data-role="section" x="527.4" y="322.2" transform="rotate(394.942 527.4 322.2)">113</text><text data-sectionid="114" data-role="section" x="511.8" y="338.2" transform="rotate(416.567 511.8 338.2)">114</text><text data-sectionid="115" data-role="section" x="493.6" y="345.3" transform="rotate(699.079 493.6 345.3)">115</text><text data-sectionid="116" data-role="section" x="472.7" y="350.1" transform="rotate(707.863 472.7 350.1)">116</text><text data-sectionid="117" data-role="section" x="450.2" y="352.8" transform="rotate(712.807 450.2 352.8)">117</text><text data-sectionid="118" data-role="section" x="425.6" y="356" transform="rotate(716.244 425.6 356)">118</text><text data-sectionid="119" data-role="section" x="398.6" y="356.3">119</text><text data-sectionid="120" data-role="section" x="371.4" y="356.1" transform="rotate(363.966 371.4 356.1)">120</text><text data-sectionid="121" data-role="section" x="347.6" y="352.8" transform="rotate(365.89 347.6 352.8)">121</text><text data-sectionid="122" data-role="section" x="320.7" y="350" transform="rotate(374.105 320.7 350)">122</text><text data-sectionid="123" data-role="section" x="301.1" y="345.1" transform="rotate(381.042 301.1 345.1)">123</text><text data-sectionid="124" data-role="section" x="282.5" y="335.8" transform="rotate(395.156 282.5 335.8)">124</text><text data-sectionid="125" data-role="section" x="267.3" y="318.4" transform="rotate(323.638 267.3 318.4)">125</text><text data-sectionid="126" data-role="section" x="259.5" y="300.8" transform="rotate(342.46 259.5 300.8)">126</text><text data-sectionid="127" data-role="section" x="256.7" y="278.2" transform="rotate(360 256.7 278.2)">127</text><text data-sectionid="128" data-role="section" x="255.9" y="251.7">128</text><text data-sectionid="129" data-role="section" x="257.5" y="226.2" transform="rotate(360 257.5 226.2)">129</text><text data-sectionid="130" data-role="section" x="260.8" y="202.8" transform="rotate(650.97 260.8 202.8)">130</text><text data-sectionid="131" data-role="section" x="270" y="185" transform="rotate(667.534 270 185)">131</text><text data-sectionid="132" data-role="section" x="283.8" y="171" transform="rotate(686.501 283.8 171)">132</text><text data-sectionid="133" data-role="section" x="302.8" y="163.8" transform="rotate(700.181 302.8 163.8)">133</text><text data-sectionid="134" data-role="section" x="323.9" y="159.2" transform="rotate(710.238 323.9 159.2)">134</text><text data-sectionid="135" data-role="section" x="347.3" y="156.6" transform="rotate(714.49 347.3 156.6)">135</text><text data-sectionid="136" data-role="section" x="371.3" y="155.6" transform="rotate(717.421 371.3 155.6)">136</text><text data-sectionid="201" data-role="section" x="394.2" y="108.3">201</text><text data-sectionid="202" data-role="section" x="420.8" y="108.8" transform="rotate(5.93179 420.8 108.8)">202</text><text data-sectionid="203" data-role="section" x="447.1" y="110.5" transform="rotate(5.9317 447.1 110.5)">203</text><text data-sectionid="204" data-role="section" x="471.9" y="113.9" transform="rotate(11.1568 471.9 113.9)">204</text><text data-sectionid="205" data-role="section" x="495.8" y="119.2" transform="rotate(15.4585 495.8 119.2)">205</text><text data-sectionid="206" data-role="section" x="517" y="126.5" transform="rotate(23.1055 517 126.5)">206</text><text data-sectionid="207" data-role="section" x="536.1" y="137" transform="rotate(35.6173 536.1 137)">207</text><text data-sectionid="208" data-role="section" x="552.6" y="151.8" transform="rotate(49.3917 552.6 151.8)">208</text><text data-sectionid="209" data-role="section" x="566.2" y="168.7" transform="rotate(58.7945 566.2 168.7)">209</text><text data-sectionid="210" data-role="section" x="574.8" y="188.6" transform="rotate(-20.22 574.8 188.6)">210</text><text data-sectionid="211" data-role="section" x="580.4" y="210.9" transform="rotate(-11.8869 580.4 210.9)">211</text><text data-sectionid="212" data-role="section" x="583.7" y="236.9">212</text><text data-sectionid="213" data-role="section" x="584.2" y="265.9">213</text><text data-sectionid="214" data-role="section" x="581.5" y="294.1" transform="rotate(367.49 581.5 294.1)">214</text><text data-sectionid="215" data-role="section" x="576.5" y="317.7" transform="rotate(376.85 576.5 317.7)">215</text><text data-sectionid="216" data-role="section" x="569.4" y="337" transform="rotate(390.961 569.4 337)">216</text><text data-sectionid="217" data-role="section" x="557.7" y="354.8" transform="rotate(407.404 557.7 354.8)">217</text><text data-sectionid="218" data-role="section" x="542.5" y="370.3" transform="rotate(691.974 542.5 370.3)">218</text><text data-sectionid="219" data-role="section" x="523.7" y="381.4" transform="rotate(698.458 523.7 381.4)">219</text><text data-sectionid="220" data-role="section" x="503.6" y="390.1" transform="rotate(705.114 503.6 390.1)">220</text><text data-sectionid="221" data-role="section" x="481.5" y="394.8" transform="rotate(712.699 481.5 394.8)">221</text><text data-sectionid="227" data-role="section" x="320" y="396.3" transform="rotate(367.225 320 396.3)">227</text><text data-sectionid="228" data-role="section" x="297.3" y="391.6" transform="rotate(375.95 297.3 391.6)">228</text><text data-sectionid="229" data-role="section" x="274.9" y="383.4" transform="rotate(383.821 274.9 383.4)">229</text><text data-sectionid="230" data-role="section" x="255.1" y="371.6" transform="rotate(394.934 255.1 371.6)">230</text><text data-sectionid="231" data-role="section" x="239.6" y="357.2" transform="rotate(319.619 239.6 357.2)">231</text><text data-sectionid="232" data-role="section" x="228.3" y="339.3" transform="rotate(328.803 228.3 339.3)">232</text><text data-sectionid="233" data-role="section" x="219.8" y="320.1" transform="rotate(338.96 219.8 320.1)">233</text><text data-sectionid="234" data-role="section" x="214.6" y="297.1" transform="rotate(350.993 214.6 297.1)">234</text><text data-sectionid="235" data-role="section" x="211.7" y="270.7" transform="rotate(360 211.7 270.7)">235</text><text data-sectionid="236" data-role="section" x="211.8" y="242.1" transform="rotate(360 211.8 242.1)">236</text><text data-sectionid="237" data-role="section" x="214.6" y="213.9" transform="rotate(370.162 214.6 213.9)">237</text><text data-sectionid="238" data-role="section" x="219.8" y="191.3" transform="rotate(378.215 219.8 191.3)">238</text><text data-sectionid="239" data-role="section" x="224.5" y="172.2" transform="rotate(392.618 224.5 172.2)">239</text><text data-sectionid="240" data-role="section" x="238.2" y="156.1" transform="rotate(671.308 238.2 156.1)">240</text><text data-sectionid="241" data-role="section" x="253.7" y="140.8" transform="rotate(685.949 253.7 140.8)">241</text><text data-sectionid="242" data-role="section" x="272.5" y="129.4" transform="rotate(699.9 272.5 129.4)">242</text><text data-sectionid="243" data-role="section" x="292.9" y="121.4" transform="rotate(708.555 292.9 121.4)">243</text><text data-sectionid="244" data-role="section" x="317.5" y="115" transform="rotate(710.54 317.5 115)">244</text><text data-sectionid="245" data-role="section" x="342.5" y="111" transform="rotate(714.675 342.5 111)">245</text><text data-sectionid="246" data-role="section" x="367.4" y="109.1" transform="rotate(716.916 367.4 109.1)">246</text><text data-sectionid="301" data-role="section" x="398.2" y="54.9">301</text><text data-sectionid="302" data-role="section" x="426.6" y="57.2" transform="rotate(3.23452 426.6 57.2)">302</text><text data-sectionid="303" data-role="section" x="458.1" y="59" transform="rotate(7.27705 458.1 59)">303</text><text data-sectionid="304" data-role="section" x="487.4" y="64" transform="rotate(10.5459 487.4 64)">304</text><text data-sectionid="305" data-role="section" x="518.1" y="70.2" transform="rotate(15.4222 518.1 70.2)">305</text><text data-sectionid="306" data-role="section" x="545.4" y="78.4" transform="rotate(22.8244 545.4 78.4)">306</text><text data-sectionid="307" data-role="section" x="572.6" y="93.9" transform="rotate(31.3345 572.6 93.9)">307</text><text data-sectionid="308" data-role="section" x="593.5" y="118.7" transform="rotate(44.4284 593.5 118.7)">308</text><text data-sectionid="309" data-role="section" x="605.5" y="147.3" transform="rotate(-32.3682 605.5 147.3)">309</text><text data-sectionid="310" data-role="section" x="613.6" y="176.4" transform="rotate(-19.2165 613.6 176.4)">310</text><text data-sectionid="311" data-role="section" x="617.5" y="205.9" transform="rotate(-11.8841 617.5 205.9)">311</text><text data-sectionid="312" data-role="section" x="619.6" y="237.7">312</text><text data-sectionid="313" data-role="section" x="617.1" y="270.6">313</text><text data-sectionid="314" data-role="section" x="615.9" y="299.9" transform="rotate(366.893 615.9 299.9)">314</text><text data-sectionid="315" data-role="section" x="613.8" y="329.8" transform="rotate(380.267 613.8 329.8)">315</text><text data-sectionid="316" data-role="section" x="605.1" y="356.2" transform="rotate(392.009 605.1 356.2)">316</text><text data-sectionid="317" data-role="section" x="592" y="384.6" transform="rotate(404.995 592 384.6)">317</text><text data-sectionid="318" data-role="section" x="571.1" y="411.4" transform="rotate(690.109 571.1 411.4)">318</text><text data-sectionid="319" data-role="section" x="546.2" y="429.3" transform="rotate(699.109 546.2 429.3)">319</text><text data-sectionid="320" data-role="section" x="517" y="439.4" transform="rotate(705.677 517 439.4)">320</text><text data-sectionid="321" data-role="section" x="489.5" y="448.7" transform="rotate(710.822 489.5 448.7)">321</text><text data-sectionid="322" data-role="section" x="459.5" y="452.9" transform="rotate(714.587 459.5 452.9)">322</text><text data-sectionid="323" data-role="section" x="429.3" y="452.4" transform="rotate(716.566 429.3 452.4)">323</text><text data-sectionid="324" data-role="section" x="398.3" y="456" transform="rotate(360 398.3 456)">324</text><text data-sectionid="325" data-role="section" x="368.4" y="451.8" transform="rotate(363.979 368.4 451.8)">325</text><text data-sectionid="326" data-role="section" x="337.3" y="450.1" transform="rotate(366.668 337.3 450.1)">326</text><text data-sectionid="327" data-role="section" x="306.8" y="445.2" transform="rotate(369.909 306.8 445.2)">327</text><text data-sectionid="328" data-role="section" x="278.5" y="440.3" transform="rotate(374.896 278.5 440.3)">328</text><text data-sectionid="329" data-role="section" x="250" y="434.2" transform="rotate(382.412 250 434.2)">329</text><text data-sectionid="330" data-role="section" x="220.2" y="413.6" transform="rotate(390.087 220.2 413.6)">330</text><text data-sectionid="331" data-role="section" x="199.2" y="385.5" transform="rotate(315.599 199.2 385.5)">331</text><text data-sectionid="332" data-role="section" x="187.5" y="353.9" transform="rotate(326.015 187.5 353.9)">332</text><text data-sectionid="333" data-role="section" x="180.4" y="326" transform="rotate(340.379 180.4 326)">333</text><text data-sectionid="334" data-role="section" x="176.2" y="297.9" transform="rotate(351.871 176.2 297.9)">334</text><text data-sectionid="335" data-role="section" x="175.3" y="266.9" transform="rotate(360 175.3 266.9)">335</text><text data-sectionid="336" data-role="section" x="175.8" y="234.1" transform="rotate(360 175.8 234.1)">336</text><text data-sectionid="337" data-role="section" x="179" y="202.9" transform="rotate(370.62 179 202.9)">337</text><text data-sectionid="338" data-role="section" x="183.6" y="175" transform="rotate(379.336 183.6 175)">338</text><text data-sectionid="339" data-role="section" x="190.8" y="146.4" transform="rotate(395.884 190.8 146.4)">339</text><text data-sectionid="340" data-role="section" x="203.9" y="116.5" transform="rotate(676.638 203.9 116.5)">340</text><text data-sectionid="341" data-role="section" x="221.6" y="91.9" transform="rotate(687.848 221.6 91.9)">341</text><text data-sectionid="342" data-role="section" x="250.5" y="76.8" transform="rotate(696.082 250.5 76.8)">342</text><text data-sectionid="343" data-role="section" x="279.7" y="69.3" transform="rotate(704.12 279.7 69.3)">343</text><text data-sectionid="344" data-role="section" x="309.2" y="63.7" transform="rotate(709.734 309.2 63.7)">344</text><text data-sectionid="345" data-role="section" x="339.1" y="58.8" transform="rotate(714.383 339.1 58.8)">345</text><text data-sectionid="346" data-role="section" x="368.9" y="57.1" transform="rotate(718.289 368.9 57.1)">346</text><text data-sectionid="penthouse_suites" data-role="section" x="452.1" y="500.1" transform="rotate(355.677 452.1 500.1)">PENTHOUSE SUITES</text><text class="is-d " text-anchor="middle" x="135.9" y="249.1" style="fill:#999; font-size:5.9px; " dominant-baseline="central" data-offset="0|0.3" transform="rotate(-90 135.9 249.1)">VIDEOBOARD</text><text class="is-d " text-anchor="middle" x="376.4" y="502.2" style="fill:#999; font-size:5.9px; " dominant-baseline="central" data-offset="0|0.3" null="">PRESS LEVEL</text><text class="is-d dyn-name-bench bench_home" text-anchor="middle" x="397" y="306.8" style="fill:#FFF; font-size:5.9px; " dominant-baseline="central" data-offset="0|0.3" null="">CHIEFS</text><text class="is-d dyn-name-bench bench_visitor" text-anchor="middle" x="397" y="202.6" style="fill:#666; font-size:5.9px; " dominant-baseline="central" data-offset="0|0.3" null="">VISITOR</text><text class="is-d " text-anchor="middle" x="348" y="395.1" style="fill:#999; font-size:5.9px; " dominant-baseline="central" data-offset="0|0.3" null=""></text><text class="is-d " text-anchor="middle" x="360.8" y="396.2" style="fill:#999; font-size:5.9px; " dominant-baseline="central" data-offset="0|0.3" null=""></text><text class="is-d " text-anchor="middle" x="372.9" y="397.1" style="fill:#999; font-size:5.9px; " dominant-baseline="central" data-offset="0|0.3" null=""></text><text class="is-d " text-anchor="middle" x="385.7" y="397.4" style="fill:#999; font-size:5.9px; " dominant-baseline="central" data-offset="0|0.3" null=""></text><text class="is-d " text-anchor="middle" x="410.7" y="397.6" style="fill:#999; font-size:5.9px; " dominant-baseline="central" data-offset="0|0.3" null=""></text><text class="is-d " text-anchor="middle" x="423.1" y="397.3" style="fill:#999; font-size:5.9px; " dominant-baseline="central" data-offset="0|0.3" null=""></text><text class="is-d " text-anchor="middle" x="435.3" y="396.4" style="fill:#999; font-size:5.9px; " dominant-baseline="central" data-offset="0|0.3" null=""></text><text class="is-d " text-anchor="middle" x="447.7" y="395.2" style="fill:#999; font-size:5.9px; " dominant-baseline="central" data-offset="0|0.3" null=""></text><text class="is-d " text-anchor="middle" x="397.9" y="409.9" style="fill:#999; font-size:5.9px; " dominant-baseline="central" data-offset="0|0.3" null="">BROADCAST SUITES</text><text class="is-d " text-anchor="middle" x="656.7" y="252.2" style="fill:#999; font-size:5.9px; " dominant-baseline="central" data-offset="0|0.3" transform="rotate(90 656.7 252.2)">VIDEOBOARD</text></g></g><circle id="svgZoomCenter" r="1" stroke-width="0" fill-opacity="0" cx="334.85" cy="259.5"></circle><circle id="svgNorthWest" r="1" stroke-width="0" fill-opacity="0" cx="0" cy="0"></circle><circle id="svgSouthEast" r="1" stroke-width="0" fill-opacity="0" cx="794" cy="519"></circle><g id="svgmarkers" style="font-size: 10.3px;"><circle id="svg-marker-hover" data-ticket="" style="display: none;"></circle><g transform="translate(225.7,31.6) scale(1)" class="ticket-marker flag-with-arrow" data-ticket="342~32" data-mrkgrp="default" data-match="1"><use href="#flag-with-arrow-small" xlink:href="#flag-with-arrow"></use><text data-role="label" x="16" y="9">$99</text></g><g transform="translate(173.8,270.2) scale(1)" class="ticket-marker flag-with-arrow" data-ticket="334~3" data-mrkgrp="default" data-match="1"><use href="#flag-with-arrow-medium" xlink:href="#flag-with-arrow"></use><text data-role="label" x="18" y="9">$102</text></g><g transform="translate(262.3,268) scale(1)" class="ticket-marker flag-with-arrow" data-ticket="126~7" data-mrkgrp="default" data-match="1"><use href="#flag-with-arrow-medium" xlink:href="#flag-with-arrow"></use><text data-role="label" x="18" y="9">$117</text></g><g transform="translate(576.3,362.7) scale(1)" class="ticket-marker flag-with-arrow" data-ticket="317~40" data-mrkgrp="default" data-match="1"><use href="#flag-with-arrow-medium" xlink:href="#flag-with-arrow"></use><text data-role="label" x="18" y="9">$132</text></g><g transform="translate(571.6,421.6) scale(1)" class="ticket-marker flag-with-arrow" data-ticket="318~37" data-mrkgrp="default" data-match="1"><use href="#flag-with-arrow-medium" xlink:href="#flag-with-arrow"></use><text data-role="label" x="18" y="9">$132</text></g><g transform="translate(170.5,71.8) scale(1)" class="ticket-marker flag-with-arrow" data-ticket="340~32" data-mrkgrp="default" data-match="1"><use href="#flag-with-arrow-medium" xlink:href="#flag-with-arrow"></use><text data-role="label" x="18" y="9">$132</text></g><g transform="translate(475.9,4.7) scale(1)" class="ticket-marker flag-with-arrow" data-ticket="304~37" data-mrkgrp="default" data-match="1"><use href="#flag-with-arrow-medium" xlink:href="#flag-with-arrow"></use><text data-role="label" x="18" y="9">$143</text></g><g transform="translate(474.7,447.7) scale(1)" class="ticket-marker flag-with-arrow" data-ticket="321~37" data-mrkgrp="default" data-match="1"><use href="#flag-with-arrow-medium" xlink:href="#flag-with-arrow"></use><text data-role="label" x="18" y="9">$143</text></g><g transform="translate(260.2,417.2) scale(1)" class="ticket-marker flag-with-arrow" data-ticket="328~44" data-mrkgrp="default" data-match="1"><use href="#flag-with-arrow-medium" xlink:href="#flag-with-arrow"></use><text data-role="label" x="18" y="9">$143</text></g><g transform="translate(219.7,436.3) scale(1)" class="ticket-marker flag-with-arrow" data-ticket="329~37" data-mrkgrp="default" data-match="1"><use href="#flag-with-arrow-medium" xlink:href="#flag-with-arrow"></use><text data-role="label" x="18" y="9">$154</text></g><g transform="translate(317.8,0.1) scale(1)" class="ticket-marker flag-with-arrow" data-ticket="345~37" data-mrkgrp="default" data-match="1"><use href="#flag-with-arrow-medium" xlink:href="#flag-with-arrow"></use><text data-role="label" x="18" y="9">$154</text></g><g transform="translate(379.6,-8.2) scale(1)" class="ticket-marker flag-with-arrow" data-ticket="301~40" data-mrkgrp="default" data-match="1"><use href="#flag-with-arrow-medium" xlink:href="#flag-with-arrow"></use><text data-role="label" x="18" y="9">$166</text></g><g transform="translate(379,465.1) scale(1)" class="ticket-marker flag-with-arrow" data-ticket="324~44" data-mrkgrp="default" data-match="1"><use href="#flag-with-arrow-medium" xlink:href="#flag-with-arrow"></use><text data-role="label" x="18" y="9">$166</text></g><g transform="translate(317.3,452) scale(1)" class="ticket-marker flag-with-arrow" data-ticket="326~37" data-mrkgrp="default" data-match="1"><use href="#flag-with-arrow-medium" xlink:href="#flag-with-arrow"></use><text data-role="label" x="18" y="9">$166</text></g><g transform="translate(507.4,164.8) scale(1)" class="ticket-marker flag-with-arrow" data-ticket="107~19" data-mrkgrp="default" data-match="1"><use href="#flag-with-arrow-medium" xlink:href="#flag-with-arrow"></use><text data-role="label" x="18" y="9">$211</text></g><g transform="translate(408.6,125) scale(1)" class="ticket-marker flag-with-arrow" data-ticket="102~23" data-mrkgrp="default" data-match="1"><use href="#flag-with-arrow-medium" xlink:href="#flag-with-arrow"></use><text data-role="label" x="18" y="9">$241</text></g><g transform="translate(546.8,206) scale(1)" class="ticket-marker flag-with-arrow" data-ticket="109~37" data-mrkgrp="default" data-match="1"><use href="#flag-with-arrow-medium" xlink:href="#flag-with-arrow"></use><text data-role="label" x="18" y="9">$259</text></g><g transform="translate(546.5,254.8) scale(1)" class="ticket-marker flag-with-arrow" data-ticket="111~37" data-mrkgrp="default" data-match="1"><use href="#flag-with-arrow-medium" xlink:href="#flag-with-arrow"></use><text data-role="label" x="18" y="9">$259</text></g><g transform="translate(228.7,308.4) scale(1)" class="ticket-marker flag-with-arrow" data-ticket="125~37" data-mrkgrp="default" data-match="1"><use href="#flag-with-arrow-medium" xlink:href="#flag-with-arrow"></use><text data-role="label" x="18" y="9">$259</text></g><g transform="translate(214.6,202.2) scale(1)" class="ticket-marker flag-with-arrow" data-ticket="129~37" data-mrkgrp="default" data-match="1"><use href="#flag-with-arrow-medium" xlink:href="#flag-with-arrow"></use><text data-role="label" x="18" y="9">$259</text></g><g transform="translate(308.9,146.2) scale(1)" class="ticket-marker flag-with-arrow" data-ticket="134~12" data-mrkgrp="default" data-match="1"><use href="#flag-with-arrow-medium" xlink:href="#flag-with-arrow"></use><text data-role="label" x="18" y="9">$275</text></g><g transform="translate(332.4,304.4) scale(1)" class="ticket-marker flag-with-arrow" data-ticket="121~5" data-mrkgrp="default" data-match="1"><use href="#flag-with-arrow-medium" xlink:href="#flag-with-arrow"></use><text data-role="label" x="18" y="9">$300</text></g><g transform="translate(381.9,308.5) scale(1)" class="ticket-marker flag-with-arrow" data-ticket="119~7" data-mrkgrp="default" data-match="1"><use href="#flag-with-arrow-medium" xlink:href="#flag-with-arrow"></use><text data-role="label" x="18" y="9">$306</text></g><g transform="translate(464.3,163.9) scale(1)" class="ticket-marker flag-with-arrow" data-ticket="105~3" data-mrkgrp="default" data-match="1"><use href="#flag-with-arrow" xlink:href="#flag-with-arrow"></use><text data-role="label" x="20" y="9">$4170</text></g></g>undefined</g><circle id="svgZoomCenterLoad" r="1" stroke-width="0" fill-opacity="0" cx="397" cy="259.5"></circle></g></g></svg>