<svg xmlns="http://www.w3.org/2000/svg" xmlns:xlink="http://www.w3.org/1999/xlink" id="svgmap" width="100%" height="100%" style="touch-action: none;" viewBox="86.4 -10.0 627.1 536.4"><style>
polygon[id^="spoly_"] { fill: #d0d8e4; stroke: #7a8fa6; stroke-width: 2; }
polygon[id^="spoly_"]:hover { fill: #5b8ccc; cursor: pointer; }
.svgText { font-family: Arial, sans-serif; fill: #333; font-size: 9px; }
</style>
         <g id="svgdefs"><defs id="svgdefstyle">
      <linearGradient id="ticketGradient" x1="0%" y1="0%" x2="100%" y2="0%"><stop offset="0%" stop-color="#840ac9"></stop><stop offset="30%" stop-color="#d60eb2"></stop><stop offset="50%" stop-color="#fa0b81"></stop><stop offset="100%" stop-color="#fa0b81"></stop></linearGradient>
      <radialGradient id="markerGradient" cx="50%" cy="50%" r="50%"><stop offset="0%" stop-color="#fa0b81"></stop><stop offset="95%" stop-color="#d60eb2"></stop><stop offset="100%" stop-color="#840ac9"></stop></radialGradient>
      <linearGradient id="flagGradient" x1="0%" y1="0%" x2="100%" y2="100%">
         <stop offset="0%" stop-color="#840ac9"></stop>
         <stop offset="40%" stop-color="#d60eb2"></stop>
         <stop offset="80%" stop-color="#fa0b81"></stop>
         <stop offset="100%" stop-color="#c40665"></stop> 
      </linearGradient>      
      <linearGradient id="svgmapticket" x1="0%" y1="0%" x2="0%" y2="100%"><stop offset="0%" style="stop-color:#5BADFF;stop-opacity:1"></stop><stop offset="100%" style="stop-color:#0066CC;stop-opacity:1"></stop></linearGradient><linearGradient id="svgdealticket" x1="0%" y1="0%" x2="0%" y2="100%"> <stop offset="0%" style="stop-color:#66FF00;stop-opacity:1"></stop><stop offset="100%" style="stop-color:#61C100;stop-opacity:1"></stop></linearGradient><linearGradient id="svggreatticket" x1="0%" y1="0%" x2="0%" y2="100%"><stop offset="0%" style="stop-color:#00CC33;stop-opacity:1"></stop><stop offset="100%" style="stop-color:#009100;stop-opacity:1"></stop></linearGradient><filter id="coinShadow" x="-40%" y="-40%" width="200%" height="200%">            <feGaussianBlur in="SourceAlpha" stdDeviation="3"></feGaussianBlur><feOffset dx="2" dy="2" result="offsetblur"></feOffset><feMerge><feMergeNode></feMergeNode><feMergeNode in="SourceGraphic"></feMergeNode></feMerge></filter><path id="flag-with-arrow" d="M 9.33,0 L 32,0 A 8,8 0 0 1 32,16 L 25.33,16 L 20,20.67 L 14.67,16 L 8,16 A 8,8 0 0 1 8,0 Z"></path><path id="flag-with-arrow-medium" d="M 8,0 L 28,0 A 8,8 0 0 1 28,16 L 23.33,16 L 18,20.67 L 12.67,16 L 8,16 A 8,8 0 0 1 8,0 Z"></path><path id="flag-with-arrow-small" d="M 8,0 L 24,0 A 8,8 0 0 1 24,16 L 20,16 L 16,20.67 L 12,16 L 8,16 A 8,8 0 0 1 8,0 Z"></path></defs>  </g>
         <g class="testmask" mask="url(#fade)" style="scale: 0.95; transform-origin:center;">
         <g id="viewport" transform="matrix(1,0,0,1,0,0)" data-zoomfactor="100"><g id="scaleSVG" data-scale="1" transform="scale(1)" class="testrotate"><g id="svgelements"><image id="svgOverlay" class="nopointereventsmap" xlink:href="/assets/images/venues/overlays/cowboys-stadium-8-2021e.png" x="-109.3" y="-101.1" width="1012.1px" height="718.8px"></image><g id="svgpolygroup"><polygon id="spoly_101" data-role="section" data-sectionid="101" data-angle="204.2" points="514.2,305.7 512.1,310.6 503.9,306.4 500.6,310.6 526.1,330.8 529,326.2 531.6,321.7 533.6,317.1 535.1,313.1 "></polygon><polygon id="spoly_102" data-role="section" data-sectionid="102" data-angle="234.6" points="496.1,313.4 492.2,315.4 501.1,346.9 506.1,344.9 510.5,343 514.4,340.7 517.5,338.6 522.2,334.7 524.8,332.2 499.5,311.6 "></polygon><polygon id="spoly_103" data-role="section" data-sectionid="103" data-angle="254.3" points="490.7,316 484.6,318.3 490.9,349.8 499.7,347.5 490.7,316 490.7,316 "></polygon><polygon id="spoly_118" data-role="section" data-sectionid="118" data-angle="195.8" points="302.6,315.9 308.8,318.3 302.4,349.8 293.7,347.5 302.6,315.9 302.6,315.9 "></polygon><polygon id="spoly_119" data-role="section" data-sectionid="119" data-angle="349.1" points="293.8,311.3 297.2,313.4 301.1,315.2 292.2,346.9 287.2,344.9 282.8,342.8 278.9,340.7 275.8,338.6 271.1,334.7 268.5,331.8 293.8,311.3 293.8,311.3 "></polygon><polygon id="spoly_120" data-role="section" data-sectionid="120" data-angle="349" points="258.8,312.7 260.4,316.8 262.3,321.3 264.9,326 267.6,330.2 292.8,310.6 289.1,306.6 281.4,310.6 278.7,305.2 258.8,312.7 258.8,312.7 "></polygon><polygon id="spoly_121" data-role="section" data-sectionid="121" data-angle="356.7" points="277.4,285.8 256.2,285.8 256.2,285.8 256.2,285.8 256.2,303.6 256.5,305.8 257.1,308 258.3,311.1 278.2,304.1 277.4,301.5 277.4,285.8 "></polygon><polygon id="spoly_122" data-role="section" data-sectionid="122" data-angle="360" points="277.4,284.2 277.4,268.9 256.2,268.9 256.2,268.9 256.2,284.2 277.4,284.2 "></polygon><polygon id="spoly_123" data-role="section" data-sectionid="123" data-angle="360" points="277.4,267.3 277.4,248 256.2,248 256.2,248 256.2,267.3 277.4,267.3 "></polygon><polygon id="spoly_124" data-role="section" data-sectionid="124" data-angle="360" points="277.4,231.2 256.2,231.2 256.2,231.2 256.2,246.3 277.4,246.3 277.4,231.2 "></polygon><polygon id="spoly_125" data-role="section" data-sectionid="125" data-angle="360" points="277.4,229.6 277.4,213.9 278.2,211.4 258.3,204 258.3,204 258.3,204 257.1,207.7 256.2,211.7 256.2,229.6 277.4,229.6 "></polygon><polygon id="spoly_126" data-role="section" data-sectionid="126" data-angle="10.9" points="267.9,185.1 264.8,190 261.8,195.5 258.8,202.3 278.9,209.8 280.5,205.4 289.1,209.6 293.2,204.1 267.9,185.1 267.9,185.1 "></polygon><polygon id="spoly_127" data-role="section" data-sectionid="127" data-angle="7.9" points="295,202.7 297.9,201.1 301.5,199.5 293,168.4 289.8,169.3 287.5,170.4 282.1,173.2 278.9,175.3 275.5,177.7 272.2,180.5 269.3,183.6 295,202.7 295,202.7 "></polygon><polygon id="spoly_128" data-role="section" data-sectionid="128" data-angle="144" points="302.9,198.8 309.9,196.2 318.7,193.8 312.5,164.2 303.4,166 294.6,168 302.9,198.8 302.9,198.8 "></polygon><polygon id="spoly_129" data-role="section" data-sectionid="129" data-angle="111.3" points="320.3,193.5 327.9,191.8 323.2,162.4 314,163.9 320.3,193.5 320.3,193.5 "></polygon><polygon id="spoly_142" data-role="section" data-sectionid="142" data-angle="104.4" points="474.3,193.5 466.7,191.8 471.4,162.4 480.7,163.9 474.3,193.5 474.3,193.5 "></polygon><polygon id="spoly_143" data-role="section" data-sectionid="143" data-angle="101.4" points="491.7,198.8 484.7,196.2 476,193.8 482.1,164.2 491.2,166 500,168 491.7,198.8 491.7,198.8 "></polygon><polygon id="spoly_144" data-role="section" data-sectionid="144" data-angle="123.6" points="499.7,202.7 496.7,201.1 493.2,199.5 501.6,168.4 504.8,169.3 507.1,170.4 512.5,173.2 515.7,175.3 519.1,177.7 522.4,180.5 525.3,183.6 499.7,202.7 499.7,202.7 "></polygon><polygon id="spoly_145" data-role="section" data-sectionid="145" data-angle="151.5" points="526,185.1 500.6,204.1 503.6,209.3 504.5,212.6 535.2,202.2 532.3,195.2 529.2,189.8 526.9,186.4 526,185.1 526,185.1 "></polygon><polygon id="spoly_146" data-role="section" data-sectionid="146" data-angle="166.9" points="507.7,221.8 531.4,217.7 531.5,229.9 537.6,229.9 537.6,211.7 536.8,207.7 535.7,203.8 505.2,214 505.2,214 505.2,214 507.7,221.8 "></polygon><polygon id="spoly_147" data-role="section" data-sectionid="147" data-angle="180" points="515.7,246.2 537.6,246.2 537.6,231.6 515.7,231.6 515.7,231.6 515.7,246.2 "></polygon><polygon id="spoly_148" data-role="section" data-sectionid="148" data-angle="180" points="515.7,247.8 515.7,267.3 537.6,267.3 537.6,247.8 515.7,247.8 515.7,247.8 "></polygon><polygon id="spoly_149" data-role="section" data-sectionid="149" data-angle="180" points="515.7,284.3 537.6,284.3 537.6,268.9 515.7,268.9 515.7,268.9 515.7,284.3 "></polygon><polygon id="spoly_150" data-role="section" data-sectionid="150" data-angle="180" points="515.7,285.9 515.7,300.7 514.7,304.4 535.7,311.6 537.2,306.7 537.6,304.8 537.6,285.9 515.7,285.9 515.7,285.9 515.7,285.9 "></polygon><polygon id="spoly_201" data-role="section" data-sectionid="201" data-angle="192.8" points="570.5,314.2 547.5,310.2 546.1,315.6 544.6,320.7 542.9,325.4 540.8,329.7 561.5,340.6 563.9,334.9 566.3,328.6 568.5,321.8 570.5,314.2 570.5,314.2 "></polygon><polygon id="spoly_202" data-role="section" data-sectionid="202" data-angle="210.7" points="560.6,342.2 540.2,331.3 537.6,335.6 534.9,339.3 532,342.9 528.9,346 543.9,365.2 548.4,360.8 552.8,355.5 556.9,349.4 560.6,342.2 560.6,342.2 "></polygon><polygon id="spoly_203" data-role="section" data-sectionid="203" data-angle="240.1" points="542.7,366.4 527.5,347.1 524,349.7 520.2,352.2 516.3,354.3 512.2,356 520.7,378.7 526.3,376.4 532,373.6 537.3,370.5 542.7,366.4 542.7,366.4 "></polygon><polygon id="spoly_204" data-role="section" data-sectionid="204" data-angle="256.9" points="519.2,379.3 510.6,356.7 504,358.9 497,360.8 500.9,385.1 503.6,384.4 519.2,379.3 519.2,379.3 "></polygon><polygon id="spoly_205" data-role="section" data-sectionid="205" data-angle="258" points="499.2,385.4 495.3,361.1 489.5,362.2 485.6,362.9 489.5,387.3 499.2,385.4 499.2,385.4 "></polygon><polygon id="spoly_215" data-role="section" data-sectionid="215" data-angle="209.5" points="304.7,387.2 309.1,362.9 305.2,362.2 299.7,361.1 295.3,385.4 304.7,387.2 304.7,387.2 "></polygon><polygon id="spoly_216" data-role="section" data-sectionid="216" data-angle="315.5" points="293.6,385.1 298,361 290.9,359.4 283.9,357.3 275,379.1 291,384.4 293.6,385.1 293.6,385.1 "></polygon><polygon id="spoly_217" data-role="section" data-sectionid="217" data-angle="312.3" points="273.5,378.4 282.2,356.7 278.2,355 274.5,352.9 270.7,350.4 267,347.4 250.9,365.4 256.4,369.8 262,373.3 267.7,376.1 273.5,378.4 273.5,378.4 "></polygon><polygon id="spoly_218" data-role="section" data-sectionid="218" data-angle="325.8" points="249.8,364.1 265.8,346.4 262.9,343.2 260,339.5 257.3,335.3 254.5,330.7 233.9,341.8 237.5,348.7 241.4,354.6 245.5,359.7 249.8,364.1 249.8,364.1 "></polygon><polygon id="spoly_219" data-role="section" data-sectionid="219" data-angle="339" points="233.2,340.2 253.8,329.1 250.1,320.5 247,310.3 224.2,314 226.2,321.6 228.4,328.3 230.6,334.6 233.2,340.2 233.2,340.2 "></polygon><polygon id="spoly_220" data-role="section" data-sectionid="220" data-angle="360" points="224,312.3 246.2,308.6 246.2,297.8 224,297.8 224,312.3 "></polygon><polygon id="spoly_221" data-role="section" data-sectionid="221" data-angle="360" points="224,296.1 246.2,296.1 246.2,278 224,278 224,296.1 "></polygon><polygon id="spoly_222" data-role="section" data-sectionid="222" data-angle="360" points="224,276.2 246.2,276.2 246.2,259 224,259 224,276.2 "></polygon><polygon id="spoly_223" data-role="section" data-sectionid="223" data-angle="360" points="224,257.6 246.2,257.6 246.2,240.3 224,240.3 224,257.6 "></polygon><polygon id="spoly_224" data-role="section" data-sectionid="224" data-angle="360" points="224,238.6 246.2,238.6 246.2,220.5 224,220.5 224,238.6 "></polygon><polygon id="spoly_225" data-role="section" data-sectionid="225" data-angle="360" points="224,218.7 246.2,218.7 246.2,208 224,204.3 224,218.7 "></polygon><polygon id="spoly_226" data-role="section" data-sectionid="226" data-angle="20.6" points="233.2,176.3 230.6,182 228.4,188.3 226.2,195 224.2,202.5 247,206.2 250.1,196 253.8,187.4 233.2,176.3 233.2,176.3 "></polygon><polygon id="spoly_227" data-role="section" data-sectionid="227" data-angle="33.9" points="249.8,152.4 245.5,156.8 241.4,161.9 237.5,167.9 233.9,174.7 254.5,185.8 257.3,181.2 260,177 262.9,173.3 265.8,170.2 249.8,152.4 249.8,152.4 "></polygon><polygon id="spoly_228" data-role="section" data-sectionid="228" data-angle="46.8" points="273.5,138.2 267.7,140.4 262,143.3 256.4,146.8 250.9,151.2 267,169.1 270.7,166.1 274.5,163.7 278.2,161.5 282.2,159.8 273.5,138.2 273.5,138.2 "></polygon><polygon id="spoly_229" data-role="section" data-sectionid="229" data-angle="35.4" points="293.6,131.5 291,132.2 275,137.5 283.9,159.3 290.9,157.2 298,155.6 293.6,131.5 293.6,131.5 "></polygon><polygon id="spoly_230" data-role="section" data-sectionid="230" data-angle="159.7" points="304.7,129.4 295.3,131.1 299.7,155.4 305.2,154.3 309.1,153.6 304.7,129.4 304.7,129.4 "></polygon><polygon id="spoly_240" data-role="section" data-sectionid="240" data-angle="105.6" points="499.2,131.1 489.5,129.2 485.6,153.6 489.5,154.3 495.3,155.4 499.2,131.1 499.2,131.1 "></polygon><polygon id="spoly_241" data-role="section" data-sectionid="241" data-angle="103.5" points="519.2,137.3 503.6,132.2 500.9,131.5 497,155.7 504,157.7 510.6,159.8 519.2,137.3 519.2,137.3 "></polygon><polygon id="spoly_242" data-role="section" data-sectionid="242" data-angle="119.8" points="542.7,150.1 537.3,146.1 532,142.9 526.3,140.1 520.7,137.8 512.2,160.5 516.3,162.3 520.2,164.4 524,166.8 527.5,169.5 542.7,150.1 542.7,150.1 "></polygon><polygon id="spoly_243" data-role="section" data-sectionid="243" data-angle="148.2" points="560.6,174.4 556.9,167.2 552.8,161 548.4,155.7 543.9,151.3 528.9,170.5 532,173.7 534.9,177.2 537.6,180.9 540.2,185.3 560.6,174.4 560.6,174.4 "></polygon><polygon id="spoly_244" data-role="section" data-sectionid="244" data-angle="167.2" points="570.5,202.4 568.5,194.8 566.3,187.9 563.9,181.6 561.5,176 540.8,186.9 542.9,191.1 544.6,195.8 546.1,200.9 547.5,206.4 570.5,202.4 570.5,202.4 "></polygon><polygon id="spoly_245" data-role="section" data-sectionid="245" data-angle="180" points="548.2,218.9 570.9,218.9 570.9,204.1 548.2,208.2 548.2,218.9 "></polygon><polygon id="spoly_246" data-role="section" data-sectionid="246" data-angle="180" points="570.9,220.6 548.2,220.6 548.2,238.6 570.9,238.6 570.9,220.6 "></polygon><polygon id="spoly_247" data-role="section" data-sectionid="247" data-angle="180" points="570.9,240.3 548.2,240.3 548.2,240.7 548.4,257.6 570.9,257.6 570.9,240.3 "></polygon><polygon id="spoly_248" data-role="section" data-sectionid="248" data-angle="180" points="548.4,259 548.2,275.9 548.2,276.2 570.9,276.2 570.9,259 548.4,259 "></polygon><polygon id="spoly_249" data-role="section" data-sectionid="249" data-angle="180" points="570.9,278 548.2,278 548.2,295.9 570.9,295.9 570.9,278 "></polygon><polygon id="spoly_250" data-role="section" data-sectionid="250" data-angle="180" points="548.2,308.4 570.9,312.4 570.9,297.7 548.2,297.7 548.2,308.4 "></polygon><polygon id="spoly_301" data-role="section" data-sectionid="301" data-angle="328.5" points="567.6,335.1 586.1,341.8 587.6,337.9 593.1,339.9 594.6,334.6 569.7,327.9 569.2,329.8 567.6,335.1 567.6,335.1 "></polygon><polygon id="spoly_302" data-role="section" data-sectionid="302" data-angle="193.7" points="556,356.6 571.2,369.2 573.4,366.4 577.9,369.4 582.1,363.1 586.1,356.4 589.5,349.2 592.5,341.4 588.6,340 587.3,344.1 566.9,336.9 565.2,341.1 562.9,346 559.8,351.1 556,356.6 556,356.6 "></polygon><polygon id="spoly_303" data-role="section" data-sectionid="303" data-angle="203.9" points="537.1,374.3 547.7,390.9 550.9,388.9 553.5,393 560,388.2 565.9,382.8 571.6,377.1 576.8,370.8 573.9,368.7 571.4,371.7 555,358 551.4,362.2 547.2,366.4 542.4,370.5 537.1,374.3 537.1,374.3 "></polygon><polygon id="spoly_304" data-role="section" data-sectionid="304" data-angle="242.3" points="514.7,384.7 519.5,404.7 523.8,403.5 523.8,403.5 523.8,403.5 524.8,408.4 532,405.3 539,401.9 545.6,398.1 552.1,394 550.6,391.4 547.2,393.3 535.7,375.2 530.9,378 526,380.5 520.5,382.6 514.7,384.7 514.7,384.7 "></polygon><polygon id="spoly_305" data-role="section" data-sectionid="305" data-angle="257" points="504.3,387 509.3,413.9 516.3,411.6 523.3,409 522.4,405.6 518.1,406.7 513,385.1 504.3,387 504.3,387 "></polygon><polygon id="spoly_316" data-role="section" data-sectionid="316" data-angle="311.2" points="280.5,385.4 275.7,406.3 272.1,405.6 271.3,409.1 278.4,411.8 285.8,414.1 290.9,387.5 290.2,387.5 287.5,387.2 280.5,385.4 280.5,385.4 "></polygon><polygon id="spoly_317" data-role="section" data-sectionid="317" data-angle="307" points="257.9,375.4 247.5,393.3 244.3,391.2 241.9,394.4 248.4,398.4 255.2,402.1 262.4,405.6 269.7,408.6 270.9,403.7 274.5,404.6 278.8,385.1 274.2,383.5 269.2,381.5 263.7,378.9 257.9,375.4 257.9,375.4 "></polygon><polygon id="spoly_318" data-role="section" data-sectionid="318" data-angle="318.3" points="256.6,374.5 252,371.2 247.5,367.3 243.3,362.9 239,358 222.6,371.7 222.6,371.7 222.3,372 219.7,368.9 216.8,371.5 222.1,377.7 227.7,383.5 233.9,388.6 240.5,393.5 243.6,388.7 246.7,390.9 256.6,374.5 256.6,374.5 "></polygon><polygon id="spoly_319" data-role="section" data-sectionid="319" data-angle="336.6" points="226.9,336.5 208.6,343.4 208.6,343.4 207.1,344.1 205.7,340.4 201.3,342 204,349.7 207.4,356.9 211.4,363.8 215.8,370.1 218.7,367.6 218.5,367.6 219.9,366.4 222.6,369.6 238,356.6 234.9,352.2 232,347.4 229.3,342.2 226.9,336.5 226.9,336.5 "></polygon><polygon id="spoly_320" data-role="section" data-sectionid="320" data-angle="340.5" points="223.8,327.6 199.1,334.4 200.8,340.2 206.6,337.9 207.9,341.6 226.2,334.9 223.8,327.6 223.8,327.6 "></polygon><polygon id="spoly_321" data-role="section" data-sectionid="321" data-angle="360" points="209.7,299.8 209.7,310.7 219.7,310.7 219.7,299.8 209.7,299.8 "></polygon><polygon id="spoly_322" data-role="section" data-sectionid="322" data-angle="360" points="209.7,279.9 209.7,298 219.7,298 219.7,279.9 209.7,279.9 "></polygon><polygon id="spoly_323" data-role="section" data-sectionid="323" data-angle="360" points="209.7,259.3 209.7,278.1 219.7,278.1 219.7,259.3 209.7,259.3 "></polygon><polygon id="spoly_324" data-role="section" data-sectionid="324" data-angle="360" points="209.7,239.3 209.7,257.6 219.7,257.6 219.7,239.3 209.7,239.3 "></polygon><polygon id="spoly_325" data-role="section" data-sectionid="325" data-angle="360" points="209.7,218.5 209.7,237.5 219.7,237.5 219.7,218.5 209.7,218.5 "></polygon><polygon id="spoly_326" data-role="section" data-sectionid="326" data-angle="360" points="209.7,207.6 209.7,216.8 219.7,216.8 219.7,207.6 209.7,207.6 "></polygon><polygon id="spoly_327" data-role="section" data-sectionid="327" data-angle="24.4" points="226.2,181.6 207.9,174.9 206.6,178.6 200.8,176.3 199.1,182.1 223.8,189 223.8,189 223.8,189 226.2,181.6 226.9,180 229.3,174.4 232,169.1 234.9,164.4 238,160 222.6,146.9 219.9,150.1 218.5,148.9 218.7,148.9 215.8,146.4 211.4,152.8 207.4,159.6 204,166.8 201.3,174.6 205.7,176.1 207.1,172.5 208.6,173.2 208.6,173.2 226.9,180 226.9,180 226.9,180 "></polygon><polygon id="spoly_328" data-role="section" data-sectionid="328" data-angle="42" points="256.6,142 256.6,142 246.7,125.7 243.6,127.8 240.5,123 233.9,128 227.7,133.1 222.1,138.9 216.8,145 219.7,147.7 222.3,144.5 222.6,144.8 222.6,144.8 239,158.6 243.3,153.6 247.5,149.2 252,145.4 256.6,142 256.6,142 "></polygon><polygon id="spoly_329" data-role="section" data-sectionid="329" data-angle="51.7" points="258.1,141.1 263.7,137.8 269.2,135.2 274.2,133.1 278.8,131.5 274.3,112.1 270.7,112.8 269.7,107.9 262.4,110.9 255.2,114.4 248.4,118.1 241.9,122.1 244.3,125.3 247.5,123.2 257.9,141.1 "></polygon><polygon id="spoly_330" data-role="section" data-sectionid="330" data-angle="47.9" points="280.5,131.1 287.5,129.1 290.8,128.1 285.8,102.4 278.4,104.7 271.3,107.4 272.1,110.7 275.7,110 280.5,131.1 280.5,131.1 "></polygon><polygon id="spoly_341" data-role="section" data-sectionid="341" data-angle="102.1" points="504.3,129.5 513,131.5 518.1,109.8 522.4,110.9 523.3,107.5 516.3,104.9 509.3,102.6 504.3,129.5 504.3,129.5 "></polygon><polygon id="spoly_342" data-role="section" data-sectionid="342" data-angle="122.5" points="514.7,131.8 520.5,133.9 526,136 530.9,138.5 535.7,141.3 547.2,123.2 550.6,125.1 552.1,122.5 545.6,118.5 539,114.6 532,111.2 524.8,108.1 523.8,113 523.8,113 523.8,113 519.5,111.8 514.7,131.8 514.7,131.8 "></polygon><polygon id="spoly_343" data-role="section" data-sectionid="343" data-angle="153.2" points="537.1,142.2 542.4,146.1 547.2,150.1 551.4,154.3 555,158.6 571.4,144.8 573.9,147.8 576.8,145.7 571.6,139.4 565.9,133.8 560,128.3 553.5,123.6 550.9,127.6 547.7,125.7 537.1,142.2 537.1,142.2 "></polygon><polygon id="spoly_344" data-role="section" data-sectionid="344" data-angle="161.8" points="592.5,175.1 589.5,167.4 586.1,160.1 582.1,153.5 577.9,147.1 573.4,150.1 571.2,147.3 556,160 556,160 556,160 559.8,165.4 562.9,170.5 565.2,175.4 566.9,179.7 587.3,172.5 588.6,176.5 592.5,175.1 593.1,176.7 587.6,178.6 586.1,174.7 567.6,181.4 567.6,181.4 567.6,181.4 569.2,186.7 569.7,188.6 594.6,182 593.1,176.7 "></polygon><polygon id="spoly_345" data-role="section" data-sectionid="345" data-angle="360" points="585.2,207.5 585.2,216.6 575.1,216.6 575.1,207.5 585.2,207.5 "></polygon><polygon id="spoly_346" data-role="section" data-sectionid="346" data-angle="360" points="585.2,218.4 585.2,237.4 575.1,237.4 575.1,218.4 585.2,218.4 "></polygon><polygon id="spoly_347" data-role="section" data-sectionid="347" data-angle="360" points="585.2,239.1 585.2,257.4 575.1,257.4 575.1,239.1 585.2,239.1 "></polygon><polygon id="spoly_348" data-role="section" data-sectionid="348" data-angle="360" points="585.2,259.2 585.2,278 575.1,278 575.1,259.2 585.2,259.2 "></polygon><polygon id="spoly_349" data-role="section" data-sectionid="349" data-angle="360" points="585.2,279.7 585.2,297.8 575.1,297.8 575.1,279.7 585.2,279.7 "></polygon><polygon id="spoly_350" data-role="section" data-sectionid="350" data-angle="360" points="585.2,299.6 585.2,310.5 575.1,310.5 575.1,299.6 585.2,299.6 "></polygon><polygon id="spoly_401" data-role="section" data-sectionid="401" data-angle="345.4" points="620.3,364.6 621.4,360.7 611.1,358.1 608.4,366.2 605.1,373.9 614.8,379 617.7,372 620.3,364.6 620.3,364.6 620.3,364.6 622.3,365.1 621,369.2 641.3,376.2 644.8,366.7 623.4,361.2 622.3,365.1 622.3,365.1 622.3,365.1 "></polygon><polygon id="spoly_402" data-role="section" data-sectionid="402" data-angle="339.3" points="612.2,384.1 613.9,380.6 604.4,375.5 600.7,382 596.8,388.1 606.5,393.6 612.2,384.1 612.2,384.1 612.2,384.1 614,384.8 613,386.7 632.2,396.6 636.6,387.4 640.8,377.8 620.5,370.7 617.9,377.2 614,384.8 614,384.8 614,384.8 "></polygon><polygon id="spoly_403" data-role="section" data-sectionid="403" data-angle="337.6" points="602.5,399 605.4,395 595.8,389.6 589.5,397.5 582.6,404.8 589.3,413.3 596.1,406.4 602.5,399 602.5,399 602.5,399 604,400.3 601.6,403.4 619.5,417.2 625.6,408 631.4,398.2 612.2,388.3 608.4,394.1 604,400.3 604,400.3 604,400.3 "></polygon><polygon id="spoly_404" data-role="section" data-sectionid="404" data-angle="348.8" points="585.5,416.6 587.9,414.5 581.3,406.1 575.3,411.2 568.9,415.9 575.1,424.4 580.4,420.5 585.5,416.6 585.5,416.6 585.5,416.6 587,418.2 585.7,419.4 602.5,437.4 610.6,428.6 618.6,418.6 600.5,404.8 594.3,411.5 587,418.2 587,418.2 587,418.2 "></polygon><polygon id="spoly_405" data-role="section" data-sectionid="405" data-angle="223.4" points="569,428.1 573.6,425.2 567.4,416.8 558.8,422.3 549.6,427 553.5,436.1 561.5,432.3 569,428.1 569,428.1 569,428.1 570.5,430.2 567.8,431.7 582.4,454.3 591.9,447 601.2,438.6 584.2,420.5 577.6,425.4 570.5,430.2 570.5,430.2 570.5,430.2 "></polygon><polygon id="spoly_406" data-role="section" data-sectionid="406" data-angle="233.5" points="548,438.6 551.8,436.8 548,427.9 534.8,433.3 537.8,442.5 548,438.6 548,438.6 548,438.6 548.9,440.5 547.6,441.1 559,468 569.6,462.3 575.3,459 580.9,455.3 566.3,432.6 557.9,436.8 548.9,440.5 548.9,440.5 548.9,440.5 "></polygon><polygon id="spoly_407" data-role="section" data-sectionid="407" data-angle="253.8" points="531.3,444.6 536.1,443 533,434 523.7,437.2 514.1,440 516.5,448.8 531.3,444.6 531.3,444.6 531.3,444.6 532.1,447 527.3,448.5 533.9,477.1 544.3,473.9 550.6,471.7 557.3,468.7 546,441.8 541.2,443.9 532.1,447 532.1,447 532.1,447 "></polygon><polygon id="spoly_408" data-role="section" data-sectionid="408" data-angle="255.4" points="508.8,450.6 514.7,449.3 512.3,440.4 500.1,443.2 487.6,445.6 489.1,454.4 499,452.7 508.8,450.6 508.8,450.6 508.8,450.6 509.4,453 504.1,454.1 509.6,484.7 522.6,481.7 522.6,479.6 525.1,479.2 532.1,477.6 525.5,449 509.4,453 509.4,453 509.4,453 "></polygon><polygon id="spoly_409" data-role="section" data-sectionid="409" data-angle="260.5" points="482.3,455.5 487.3,454.8 485.8,446 474.8,447.6 463.6,448.8 465.1,457.4 482.3,455.5 482.3,455.5 482.3,455.5 482.7,457.8 477.7,458.5 482.5,489.6 496.6,487.3 507.9,485 502.3,454.4 482.7,457.8 482.7,457.8 482.7,457.8 "></polygon><polygon id="spoly_410" data-role="section" data-sectionid="410" data-angle="248.8" points="457.1,458.3 463.3,457.6 461.8,449 449,450 436.4,450.9 436.8,459.5 457.1,458.3 457.1,458.3 457.1,458.3 457.4,460.6 451.4,461.1 454.3,493.3 468,491.7 480.7,489.9 475.9,458.6 457.4,460.6 457.4,460.6 457.4,460.6 "></polygon><polygon id="spoly_411" data-role="section" data-sectionid="411" data-angle="297.3" points="429.8,459.9 434.9,459.7 434.6,450.9 412.6,451.6 412.6,460.2 429.8,459.9 429.8,459.9 429.8,459.9 429.8,462.3 424.7,462.5 426.5,495.6 439.9,494.7 452.5,493.5 449.6,461.3 429.8,462.3 429.8,462.3 429.8,462.3 "></polygon><polygon id="spoly_412" data-role="section" data-sectionid="412" data-angle="268.2" points="398,462.3 398,496.4 411.5,496.3 424.7,495.6 422.8,462.5 402.5,462.5 402.5,462.5 402.5,462.5 398,462.3 398.1,460.4 402.5,460.4 402.5,460.4 402.5,460.4 410.8,460.2 410.8,451.6 397,451.8 383.1,451.6 383.1,460.2 398.1,460.4 "></polygon><polygon id="spoly_413" data-role="section" data-sectionid="413" data-angle="268.7" points="375.6,462.3 372.3,462.3 371.6,462.3 369.8,495.7 382.8,496.3 396.1,496.4 396.1,462.3 375.6,462.3 375.6,462.3 375.6,462.3 375.8,460.1 381.3,460.2 381.3,451.6 360.1,450.9 359.4,459.5 375.8,460.1 375.8,460.1 375.8,460.1 "></polygon><polygon id="spoly_414" data-role="section" data-sectionid="414" data-angle="263.4" points="350.2,461.3 344.2,460.8 340.9,493.8 354.1,494.9 368,495.7 369.8,462.3 350.2,461.3 350.2,461.3 350.2,461.3 350.4,459.2 357.5,459.5 358.3,450.9 345.3,450 332.1,448.8 331.2,457.6 350.4,459.2 350.4,459.2 350.4,459.2 "></polygon><polygon id="spoly_415" data-role="section" data-sectionid="415" data-angle="256.1" points="322.4,458.6 317.5,458.1 312.7,490.8 325.1,492.2 339,493.6 342.3,460.6 322.4,458.6 322.4,458.6 322.4,458.6 322.6,456.7 329.4,457.4 330.3,448.6 318.9,447.4 307.6,445.6 307.2,450 306.5,454.6 322.6,456.7 322.6,456.7 322.6,456.7 "></polygon><polygon id="spoly_416" data-role="section" data-sectionid="416" data-angle="262" points="296.4,454.8 292.4,454.1 285.4,486.3 310.9,490.5 315.6,457.8 296.4,454.8 296.4,454.8 296.4,454.8 296.8,453 304.8,454.4 304.8,454.4 304.8,454.4 304.8,454.4 304.8,454.4 304.8,454.4 304.8,454.4 304.8,454.4 304.8,454.4 304.8,454.4 304.8,454.4 304.8,454.4 304.8,454.4 304.8,454.4 304.8,454.4 304.8,454.4 304.8,454.4 304.8,454.4 304.8,454.4 304.8,454.4 304.8,454.4 304.8,454.4 304.8,454.4 304.8,454.4 304.8,454.4 304.8,454.4 304.8,454.4 304.8,454.4 304.8,454.4 304.8,454.4 304.8,454.4 304.8,454.4 304.8,454.4 304.8,454.4 304.8,454.4 304.8,454.4 304.8,454.4 304.8,454.4 304.8,454.4 304.8,454.4 304.8,454.4 304.8,454.4 304.8,454.4 304.8,454.4 304.8,454.4 304.8,454.4 304.8,454.4 304.8,454.4 304.8,454.4 304.8,454.4 304.8,454.4 304.8,454.4 304.8,454.4 304.8,454.4 304.8,454.4 304.8,454.4 304.8,454.4 304.8,454.4 304.8,454.4 304.8,454.4 304.8,454.4 304.8,454.4 304.8,454.4 304.8,454.4 304.8,454.4 304.8,454.4 304.8,454.4 305.7,445.3 293.5,443 281.4,440.2 279.8,449.3 296.8,453 296.8,453 296.8,453 "></polygon><polygon id="spoly_417" data-role="section" data-sectionid="417" data-angle="298.8" points="273.4,449.7 269.3,448.6 261.3,478 272.3,480.6 272.3,483.8 283.6,485.9 290.6,453.7 273.4,449.7 273.4,449.7 273.4,449.7 273.7,447.7 278.1,449 279.8,439.7 271.2,437.4 262.7,434.6 259.1,443.4 273.7,447.7 273.7,447.7 273.7,447.7 "></polygon><polygon id="spoly_418" data-role="section" data-sectionid="418" data-angle="297" points="253.1,443.5 248.5,441.6 236.6,469 247.7,473.6 259.5,477.5 267.7,448.3 259.1,445.6 253.1,443.5 253.1,443.5 253.1,443.5 253.8,441.4 257.4,442.7 261.1,434 253.6,431.2 246.5,428.1 242.6,436.8 253.8,441.4 253.8,441.4 253.8,441.4 "></polygon><polygon id="spoly_419" data-role="section" data-sectionid="419" data-angle="300.6" points="232.2,434.4 228.4,432.3 213.2,455.5 223.6,462.2 234.9,468.1 246.8,440.9 239.3,437.7 232.2,434.4 232.2,434.4 232.2,434.4 233.3,432.3 241,436.1 244.8,427.4 235.7,422.8 227.1,417.7 220.7,424.9 226.9,428.8 233.3,432.3 233.3,432.3 233.3,432.3 "></polygon><polygon id="spoly_420" data-role="section" data-sectionid="420" data-angle="311.6" points="213.7,422.8 210.1,419.8 192.7,438.3 201.6,446.5 211.7,454.4 226.9,431.4 219.9,427.2 213.7,422.8 213.7,422.8 213.7,422.8 215.2,421 219.2,424 225.6,416.6 219,412.1 213,407 206.6,414.2 215.2,421 215.2,421 215.2,421 "></polygon><polygon id="spoly_421" data-role="section" data-sectionid="421" data-angle="326.8" points="198.7,409.2 194.3,404.3 175.5,418.4 183,427.7 191.4,437 208.6,418.6 203.5,414 198.7,409.2 198.7,409.2 198.7,409.2 200,408 205.1,412.9 211.5,405.7 204.6,398.5 198.2,390.8 189.7,395.5 194.7,402 200,408 200,408 200,408 "></polygon><polygon id="spoly_422" data-role="section" data-sectionid="422" data-angle="343.6" points="184.4,391 182.4,387.6 162.3,398 167.8,407.1 174.4,417 193,402.9 188.5,396.9 184.4,391 184.4,391 184.4,391 186.1,390.1 188.6,394.1 197.1,389.2 193,383 189.4,376.2 180.6,380.4 186.1,390.1 186.1,390.1 186.1,390.1 "></polygon><polygon id="spoly_423" data-role="section" data-sectionid="423" data-angle="353.6" points="178.6,380.4 176,375.3 176,375.3 176,375.3 174,370.4 152.6,377.8 156.3,386.2 161.4,396.4 181.5,386.2 178.6,380.4 179.9,378.8 188.6,374.6 185.4,366.5 182.8,357.9 173.1,360.5 175.3,367.8 177.9,374.4 177.9,374.4 177.9,374.4 179.9,378.8 "></polygon><polygon id="spoly_424" data-role="section" data-sectionid="424" data-angle="347.9" points="170.9,361.1 148.6,366.7 149.3,369.2 151.9,376.2 173.5,368.8 170.9,361.1 170.9,361.1 "></polygon><polygon id="spoly_425" data-role="section" data-sectionid="425" data-angle="360" points="185.8,295.6 185.8,308.9 198.1,308.9 198.1,295.6 185.8,295.6 "></polygon><polygon id="spoly_426" data-role="section" data-sectionid="426" data-angle="360" points="185.8,277.3 185.8,293.8 198.1,293.8 198.1,277.3 185.8,277.3 "></polygon><polygon id="spoly_427" data-role="section" data-sectionid="427" data-angle="360" points="185.8,259.3 185.8,275.5 198.1,275.5 198.1,262.7 191.9,262.7 191.9,259.3 185.8,259.3 "></polygon><polygon id="spoly_428" data-role="section" data-sectionid="428" data-angle="360" points="185.8,240.3 185.8,257.6 191.9,257.6 191.9,251.9 198.1,251.9 198.1,240.3 185.8,240.3 "></polygon><polygon id="spoly_429" data-role="section" data-sectionid="429" data-angle="360" points="185.8,221.3 185.8,238.6 198.1,238.6 198.1,221.3 185.8,221.3 "></polygon><polygon id="spoly_430" data-role="section" data-sectionid="430" data-angle="360" points="185.8,205.9 185.8,219.6 198.1,219.6 198.1,205.9 185.8,205.9 "></polygon><polygon id="spoly_431" data-role="section" data-sectionid="431" data-angle="18" points="173.5,147.7 151.9,140.3 149.3,147.4 148.6,149.8 170.9,155.5 173.5,147.7 173.5,147.7 "></polygon><polygon id="spoly_432" data-role="section" data-sectionid="432" data-angle="4.9" points="176.2,140.9 178.6,135.9 181.5,130.3 161.4,120.1 156.3,130.3 152.6,138.8 174,146.2 176.2,140.9 176.2,140.9 176.2,140.9 178,141.8 175.3,148.6 173.1,156 182.8,158.6 185.4,150 188.6,141.9 179.9,137.7 178,141.8 178,141.8 178,141.8 "></polygon><polygon id="spoly_433" data-role="section" data-sectionid="433" data-angle="15.6" points="185,124.9 188.6,119.2 193,113.6 174.4,99.5 167.8,109.4 162.3,118.5 182.4,128.9 185,124.9 185,124.9 185,124.9 186.6,125.6 183.5,130.8 180.6,136.1 189.4,140.3 193,133.5 197.1,127.3 188.6,122.4 186.6,125.6 186.6,125.6 186.6,125.6 "></polygon><polygon id="spoly_434" data-role="section" data-sectionid="434" data-angle="34.7" points="198.7,107.3 203.5,102.5 208.6,98 191.4,79.5 183,88.8 175.5,98.1 194.3,112.2 198.7,107.3 198.7,107.3 198.7,107.3 200.2,108.5 194.7,114.5 189.7,121 198.2,125.7 204.6,118 211.5,110.8 205.1,103.6 200.2,108.5 200.2,108.5 200.2,108.5 "></polygon><polygon id="spoly_435" data-role="section" data-sectionid="435" data-angle="41.9" points="213.5,93.9 219.9,89.5 226.9,85.1 211.7,62.1 201.6,70 192.7,78.3 210.1,96.7 213.5,93.9 213.5,93.9 213.5,93.9 215,95.7 206.6,102.4 213,109.6 219,104.5 225.6,99.9 219.2,92.5 215,95.7 215,95.7 215,95.7 "></polygon><polygon id="spoly_436" data-role="section" data-sectionid="436" data-angle="56.3" points="240.1,78.4 246.8,75.6 234.9,48.3 223.6,54.3 213.2,61 228.4,84.2 233.7,81.4 233.7,81.4 233.7,81.4 240.1,78.4 241,80.4 234.8,83.5 234.8,83.5 234.8,83.5 227.6,87.4 220.7,91.6 227.1,98.8 235.7,93.7 244.8,89.2 241,80.4 "></polygon><polygon id="spoly_437" data-role="section" data-sectionid="437" data-angle="65.1" points="251.4,73.7 258,71.2 267.7,68.2 259.5,39 247.7,42.9 236.6,47.5 248.5,74.9 251.4,73.7 251.4,73.7 251.4,73.7 252.3,75.6 242.6,79.7 246.5,88.5 253.6,85.3 261.1,82.5 257.4,73.9 252.3,75.6 252.3,75.6 252.3,75.6 "></polygon><polygon id="spoly_438" data-role="section" data-sectionid="438" data-angle="58.8" points="273.4,66.8 290.6,62.8 283.6,30.6 272.3,32.7 272.3,35.8 261.3,38.5 269.3,67.9 273.4,66.8 273.4,66.8 273.4,66.8 273.9,68.7 259.1,73.1 262.7,81.9 271.2,79.1 279.8,76.8 278.1,67.5 273.9,68.7 273.9,68.7 273.9,68.7 "></polygon><polygon id="spoly_439" data-role="section" data-sectionid="439" data-angle="75.4" points="297.9,61.4 315.6,58.7 310.9,26 285.4,30.2 292.2,62.4 297.9,61.4 297.9,61.4 297.9,61.4 298.2,63.3 288.9,65.1 279.8,67.2 281.4,76.3 293.5,73.5 305.7,71.2 304.8,62.1 304.8,62.1 298.2,63.3 298.2,63.3 298.2,63.3 "></polygon><polygon id="spoly_440" data-role="section" data-sectionid="440" data-angle="108.9" points="322.8,57.8 342.3,55.9 339,22.8 325.1,24.2 312.7,25.6 317.5,58.4 322.8,57.8 322.8,57.8 322.8,57.8 322.9,59.6 306.7,61.9 307.6,70.9 318.9,69.1 330.3,67.9 329.4,59.1 322.9,59.6 322.9,59.6 322.9,59.6 "></polygon><polygon id="spoly_441" data-role="section" data-sectionid="441" data-angle="96.8" points="349.8,55.2 369.8,54.1 368,20.7 354.1,21.6 340.9,22.6 344.2,55.7 349.8,55.2 349.8,55.2 349.8,55.2 350,57.3 331.2,58.9 332.1,67.7 345.3,66.5 358.3,65.6 357.5,57 350,57.3 350,57.3 350,57.3 "></polygon><polygon id="spoly_442" data-role="section" data-sectionid="442" data-angle="92.1" points="375.8,54.1 396.1,54.1 396.1,20 382.8,20.2 369.8,20.7 371.6,54.1 372.3,54.1 375.8,54.1 375.8,54.1 375.8,54.1 376,56.3 359.4,57 360.1,65.6 381.3,64.9 381.3,56.3 376,56.3 376,56.3 376,56.3 "></polygon><polygon id="spoly_443" data-role="section" data-sectionid="443" data-angle="87.3" points="398,54.1 404.7,54 404.7,54 404.7,54 422.8,54 424.7,20.9 411.5,20.2 398,20 398,54.1 398.1,56.1 383.1,56.3 383.1,64.9 397,64.7 410.8,64.9 410.8,56.3 404.7,56.1 404.7,56.1 404.7,56.1 398.1,56.1 "></polygon><polygon id="spoly_444" data-role="section" data-sectionid="444" data-angle="68.8" points="429.4,54.1 449.6,55.2 452.5,23 439.9,21.8 426.5,20.9 424.7,54 429.4,54.1 429.4,54.1 429.4,54.1 429.3,56.6 412.6,56.3 412.6,64.9 434.6,65.6 434.9,56.8 429.3,56.6 429.3,56.6 429.3,56.6 "></polygon><polygon id="spoly_445" data-role="section" data-sectionid="445" data-angle="99.3" points="456.5,58.2 436.8,57 436.4,65.6 449,66.5 461.8,67.5 463.3,58.9 456.5,58.2 456.5,58.2 456.5,58.2 456.7,55.9 475.9,57.8 480.7,26.5 468,24.8 454.3,23.2 451.4,55.4 456.7,55.9 456.7,55.9 456.7,55.9 "></polygon><polygon id="spoly_446" data-role="section" data-sectionid="446" data-angle="100.5" points="482.5,61 465.1,59.1 463.6,67.7 474.8,68.9 485.8,70.5 487.3,61.7 482.5,61 482.5,61 482.5,61 482.9,58.7 502.3,62.1 507.9,31.4 496.6,29.2 482.5,26.9 477.7,58 482.9,58.7 482.9,58.7 482.9,58.7 "></polygon><polygon id="spoly_447" data-role="section" data-sectionid="447" data-angle="99.6" points="509.6,65.9 499.3,63.8 489.1,62.1 487.6,70.9 500.1,73.3 512.3,76.1 514.7,67.2 509.6,65.9 509.6,65.9 509.6,65.9 510.1,63.6 525.5,67.5 532.1,38.8 525.1,37.3 522.6,36.9 522.6,34.8 509.6,31.8 504.1,62.4 510.1,63.6 510.1,63.6 510.1,63.6 "></polygon><polygon id="spoly_448" data-role="section" data-sectionid="448" data-angle="111" points="531.2,71.7 516.5,67.7 514.1,76.5 523.7,79.3 533,82.5 536.1,73.5 531.2,71.7 531.2,71.7 531.2,71.7 532.1,69.5 541.2,72.6 546,74.7 557.3,47.8 550.6,44.8 544.3,42.5 533.9,39.4 527.3,68 532.1,69.5 532.1,69.5 532.1,69.5 "></polygon><polygon id="spoly_449" data-role="section" data-sectionid="449" data-angle="138.2" points="549.1,78.4 537.8,74 534.8,83.2 548,88.6 551.8,79.7 549.1,78.4 549.1,78.4 549.1,78.4 549.8,76.3 558.4,80 566.3,83.9 580.9,61.2 575.3,57.5 569.6,54.1 559,48.5 547.6,75.4 549.8,76.3 549.8,76.3 549.8,76.3 "></polygon><polygon id="spoly_450" data-role="section" data-sectionid="450" data-angle="135.8" points="569.6,88.8 561.7,84.4 553.5,80.4 549.6,89.5 558.8,94.3 567.4,99.7 573.6,91.3 569.6,88.8 569.6,88.8 569.6,88.8 571.1,86.7 578,91.3 584.2,96 601.2,77.9 591.9,69.5 582.4,62.2 567.8,84.8 571.1,86.7 571.1,86.7 571.1,86.7 "></polygon><polygon id="spoly_451" data-role="section" data-sectionid="451" data-angle="12.6" points="585.9,100.2 580.6,96 575.1,92.1 568.9,100.6 575.3,105.3 581.3,110.4 587.9,102 585.9,100.2 585.9,100.2 585.9,100.2 587.3,98.5 594.3,105.2 600.5,111.7 618.6,98 610.6,87.9 602.5,79.1 585.7,97.1 587.3,98.5 587.3,98.5 587.3,98.5 "></polygon><polygon id="spoly_452" data-role="section" data-sectionid="452" data-angle="23" points="602.2,117.1 596.1,109.9 589.3,103.2 582.6,111.7 589.5,119.1 595.8,127 605.4,121.5 602.2,117.1 602.2,117.1 602.2,117.1 604,116.1 608.4,122.2 612.2,128.2 631.4,118.4 625.6,108.5 619.5,99.4 601.6,113.1 604,116.1 604,116.1 604,116.1 "></polygon><polygon id="spoly_453" data-role="section" data-sectionid="453" data-angle="22.9" points="612.4,132.8 609.7,127.9 606.5,122.9 596.8,128.4 600.7,134.5 604.4,141.1 613.9,135.9 612.4,132.8 612.4,132.8 612.4,132.8 614.2,131.9 617.9,139.5 620.5,145.8 640.8,138.8 636.6,129.1 632.2,119.9 613,129.8 614.2,131.9 614.2,131.9 614.2,131.9 "></polygon><polygon id="spoly_454" data-role="section" data-sectionid="454" data-angle="16.2" points="620.3,152 617.7,144.6 614.8,137.5 605.1,142.6 608.4,150.4 611.1,158.5 621.4,155.8 620.3,152 620.3,152 620.3,152 622.3,151.4 623.4,155.3 644.8,149.8 641.3,140.3 621,147.4 622.3,151.4 622.3,151.4 622.3,151.4 "></polygon><polygon id="spoly_455" data-role="section" data-sectionid="455" data-angle="360" points="609.1,205.7 609.1,219.4 596.8,219.4 596.8,205.7 609.1,205.7 "></polygon><polygon id="spoly_456" data-role="section" data-sectionid="456" data-angle="360" points="609.1,221.2 609.1,238.4 596.8,238.4 596.8,221.2 609.1,221.2 "></polygon><polygon id="spoly_457" data-role="section" data-sectionid="457" data-angle="360" points="609.1,240.2 609.1,257.4 603,257.4 603,251.8 596.8,251.8 596.8,240.2 609.1,240.2 "></polygon><polygon id="spoly_458" data-role="section" data-sectionid="458" data-angle="360" points="609.1,259.2 609.1,275.3 596.8,275.3 596.8,262.5 603,262.5 603,259.2 609.1,259.2 "></polygon><polygon id="spoly_459" data-role="section" data-sectionid="459" data-angle="360" points="609.1,277.1 609.1,293.6 596.8,293.6 596.8,277.1 609.1,277.1 "></polygon><polygon id="spoly_460" data-role="section" data-sectionid="460" data-angle="360" points="609.1,295.4 609.1,308.7 596.8,308.7 596.8,295.4 609.1,295.4 "></polygon><polygon id="spoly_C106" data-role="section" data-sectionid="C106" data-angle="256" points="483.1,318.8 475.6,320.9 480.5,351.4 480.8,351.3 489.3,350.1 483.1,318.8 483.1,318.8 "></polygon><polygon id="spoly_C107" data-role="section" data-sectionid="C107" data-angle="253.3" points="474,321.4 465.2,323.2 456.3,324.6 460,354.4 478.9,351.6 474,321.4 474,321.4 "></polygon><polygon id="spoly_C108" data-role="section" data-sectionid="C108" data-angle="247.2" points="454.7,324.8 445.6,325.9 436.7,326.8 438.5,356.6 458.4,354.5 454.7,324.8 454.7,324.8 "></polygon><polygon id="spoly_C109" data-role="section" data-sectionid="C109" data-angle="288.6" points="435,326.8 417.2,327.6 418.3,358.1 437,356.8 435,326.8 435,326.8 "></polygon><polygon id="spoly_C110" data-role="section" data-sectionid="C110" data-angle="277.2" points="415.5,327.6 416.7,358.2 397.4,358.6 397.4,330.3 399.1,330.3 399.1,327.6 399.1,327.6 399.1,327.6 "></polygon><polygon id="spoly_C111" data-role="section" data-sectionid="C111" data-angle="270.7" points="396.1,358.5 396,358.5 396.1,330.3 394.4,330.3 394.4,327.6 377.7,327.6 376.8,358.1 376.8,358.1 376.8,358.1 "></polygon><polygon id="spoly_C112" data-role="section" data-sectionid="C112" data-angle="267.6" points="358.4,326.8 376.1,327.6 375.1,358.1 356.5,356.8 358.4,326.8 358.4,326.8 "></polygon><polygon id="spoly_C113" data-role="section" data-sectionid="C113" data-angle="266.6" points="338.6,324.8 347.9,325.9 356.8,326.6 354.9,356.6 334.9,354.5 338.6,324.8 338.6,324.8 "></polygon><polygon id="spoly_C114" data-role="section" data-sectionid="C114" data-angle="250.4" points="319.3,321.2 328.1,323.2 337,324.6 333.3,354.4 314.4,351.6 319.3,321.2 319.3,321.2 "></polygon><polygon id="spoly_C115" data-role="section" data-sectionid="C115" data-angle="242.2" points="310.2,318.8 317.7,320.9 312.8,351.4 312.7,351.3 304.1,350.1 310.2,318.8 310.2,318.8 "></polygon><polygon id="spoly_C132" data-role="section" data-sectionid="C132" data-angle="106.2" points="329.5,191.5 337.5,190.2 334.1,161 324.8,162.3 329.5,191.5 329.5,191.5 "></polygon><polygon id="spoly_C133" data-role="section" data-sectionid="C133" data-angle="98.5" points="339.1,189.9 347.6,188.9 357,188.1 354.4,159 335.7,160.8 339.1,189.9 339.1,189.9 "></polygon><polygon id="spoly_C134" data-role="section" data-sectionid="C134" data-angle="96.8" points="358.6,187.9 376,187 375.3,157.6 356,158.9 358.6,187.9 358.6,187.9 "></polygon><polygon id="spoly_C135" data-role="section" data-sectionid="C135" data-angle="94.7" points="396.4,184.3 394.3,184.3 394.3,186.9 377.5,186.9 376.9,157.6 396.6,156.8 "></polygon><polygon id="spoly_C136" data-role="section" data-sectionid="C136" data-angle="93.6" points="400,186.9 400,184.3 398.2,184.3 398.3,156.7 417.8,157.5 417.1,186.9 417.1,186.9 417.1,186.9 "></polygon><polygon id="spoly_C137" data-role="section" data-sectionid="C137" data-angle="81.1" points="436,187.9 418.7,187 419.3,157.6 438.6,158.9 436,187.9 436,187.9 "></polygon><polygon id="spoly_C138" data-role="section" data-sectionid="C138" data-angle="128.9" points="455.5,189.9 447.1,188.9 437.6,188.1 440.2,159 458.9,160.8 455.5,189.9 455.5,189.9 "></polygon><polygon id="spoly_C139" data-role="section" data-sectionid="C139" data-angle="102.5" points="465.1,191.5 457.1,190.2 460.5,161 469.8,162.3 465.1,191.5 465.1,191.5 "></polygon><polygon id="spoly_C206" data-role="section" data-sectionid="C206" data-angle="256" points="487.8,387.7 483.9,363.3 472.9,365 476.3,389.4 487.8,387.7 487.8,387.7 "></polygon><polygon id="spoly_C207" data-role="section" data-sectionid="C207" data-angle="251.7" points="474.6,389.6 471.2,365.4 451.9,368 453.5,392.4 474.6,389.6 474.6,389.6 "></polygon><polygon id="spoly_C208" data-role="section" data-sectionid="C208" data-angle="203.1" points="451.8,392.6 450.2,368.2 431,370.3 432.2,394.5 451.8,392.6 451.8,392.6 "></polygon><polygon id="spoly_C209" data-role="section" data-sectionid="C209" data-angle="281.6" points="419.4,370.9 429.2,370.2 430.6,394.4 420.1,395.1 419.4,370.9 419.4,370.9 "></polygon><polygon id="spoly_C210" data-role="section" data-sectionid="C210" data-angle="270" points="378.1,371.1 387.7,371.5 389.4,371.6 397.9,371.7 406.1,371.5 407.9,371.5 417.8,371 418.3,395.2 408.9,395.6 397.7,395.7 386.8,395.6 377.5,395.3 378.1,371.1 378.1,371.1 "></polygon><polygon id="spoly_C211" data-role="section" data-sectionid="C211" data-angle="271.5" points="366.2,370.3 376.4,371 375.8,395.2 364.9,394.6 366.2,370.3 366.2,370.3 "></polygon><polygon id="spoly_C212" data-role="section" data-sectionid="C212" data-angle="270" points="363.2,394.5 364.8,370.3 344.3,368.2 342.1,392.6 363.2,394.5 363.2,394.5 "></polygon><polygon id="spoly_C213" data-role="section" data-sectionid="C213" data-angle="265.3" points="340.4,392.3 342.6,368 322.4,365.2 319,389.6 340.4,392.3 340.4,392.3 "></polygon><polygon id="spoly_C214" data-role="section" data-sectionid="C214" data-angle="244.3" points="317.3,389.3 320.7,365 310.7,363.3 306.4,387.5 317.3,389.3 317.3,389.3 "></polygon><polygon id="spoly_C231" data-role="section" data-sectionid="C231" data-angle="116" points="317.3,127.2 306.4,129 310.7,153.3 320.7,151.5 317.3,127.2 317.3,127.2 "></polygon><polygon id="spoly_C232" data-role="section" data-sectionid="C232" data-angle="110" points="340.4,124.3 319,126.9 322.4,151.3 342.6,148.5 340.4,124.3 340.4,124.3 "></polygon><polygon id="spoly_C233" data-role="section" data-sectionid="C233" data-angle="99.7" points="363.2,122 342.1,123.9 344.3,148.4 364.8,146.2 363.2,122 363.2,122 "></polygon><polygon id="spoly_C234" data-role="section" data-sectionid="C234" data-angle="90" points="366.2,145.9 376.4,145.1 375.8,120.9 364.9,121.5 366.2,145.9 366.2,145.9 "></polygon><polygon id="spoly_C235" data-role="section" data-sectionid="C235" data-angle="90" points="378.1,145 387.7,144.6 389.4,144.6 397.9,144.5 406.1,144.6 407.9,144.6 417.8,145.1 418.3,120.9 408.9,120.6 397.7,120.4 386.8,120.5 377.5,120.9 378.1,145 378.1,145 "></polygon><polygon id="spoly_C236" data-role="section" data-sectionid="C236" data-angle="76" points="419.4,145.2 429.2,146 430.6,121.7 420.1,121 419.4,145.2 419.4,145.2 "></polygon><polygon id="spoly_C237" data-role="section" data-sectionid="C237" data-angle="153.2" points="451.8,123.9 432.2,122 431,146.2 450.2,148.4 451.8,123.9 451.8,123.9 "></polygon><polygon id="spoly_C238" data-role="section" data-sectionid="C238" data-angle="101.6" points="474.6,126.9 453.5,124.1 451.9,148.5 471.2,151.2 474.6,126.9 474.6,126.9 "></polygon><polygon id="spoly_C239" data-role="section" data-sectionid="C239" data-angle="93.9" points="487.8,128.8 476.3,127.1 472.9,151.5 483.9,153.3 487.8,128.8 487.8,128.8 "></polygon><polygon id="spoly_C307" data-role="section" data-sectionid="C307" data-angle="260.8" points="465.4,393.7 469.5,422.5 482.8,420.2 478.2,391.6 478.1,391.7 465.4,393.7 465.4,393.7 "></polygon><polygon id="spoly_C308" data-role="section" data-sectionid="C308" data-angle="253" points="443.6,396.5 445.6,425 456.7,424.1 467.8,422.7 463.9,394 443.6,396.5 443.6,396.5 "></polygon><polygon id="spoly_C309" data-role="section" data-sectionid="C309" data-angle="298.4" points="420.6,398.4 421.6,426.4 443.9,425.1 441.9,396.7 420.6,398.4 420.6,398.4 "></polygon><polygon id="spoly_C310" data-role="section" data-sectionid="C310" data-angle="273.5" points="398,399.1 397.3,426.7 419.9,426.4 418.8,398.4 408.6,398.9 398,399.1 398,399.1 "></polygon><polygon id="spoly_C311" data-role="section" data-sectionid="C311" data-angle="270" points="374.7,398.6 374.1,426.4 395.6,426.7 396.3,399.1 385.2,398.9 374.7,398.6 374.7,398.6 "></polygon><polygon id="spoly_C312" data-role="section" data-sectionid="C312" data-angle="270.7" points="352.5,396.8 350.1,425.1 372.4,426.2 372.9,398.4 352.5,396.8 352.5,396.8 "></polygon><polygon id="spoly_C313" data-role="section" data-sectionid="C313" data-angle="264.6" points="330.5,394.4 326.4,422.5 337.5,423.9 348.4,425 350.8,396.7 330.5,394.4 330.5,394.4 "></polygon><polygon id="spoly_C314" data-role="section" data-sectionid="C314" data-angle="255.5" points="316,392.1 311.3,420 324.7,422.3 328.8,394 316.1,392.1 316,392.1 316,392.1 "></polygon><polygon id="spoly_C332" data-role="section" data-sectionid="C332" data-angle="109" points="316,124.4 316.1,124.4 328.8,122.5 324.7,94.2 311.3,96.5 316,124.4 316,124.4 "></polygon><polygon id="spoly_C333" data-role="section" data-sectionid="C333" data-angle="97.3" points="330.5,122.1 350.8,119.9 348.4,91.5 337.5,92.6 326.4,94 330.5,122.1 330.5,122.1 "></polygon><polygon id="spoly_C334" data-role="section" data-sectionid="C334" data-angle="95.4" points="352.5,119.7 372.9,118.1 372.4,90.3 350.1,91.4 352.5,119.7 352.5,119.7 "></polygon><polygon id="spoly_C335" data-role="section" data-sectionid="C335" data-angle="95.1" points="374.7,117.9 385.2,117.6 396.3,117.4 395.6,89.8 374.1,90.1 374.7,117.9 374.7,117.9 "></polygon><polygon id="spoly_C336" data-role="section" data-sectionid="C336" data-angle="94.3" points="398,117.4 408.6,117.6 418.8,118.1 419.9,90.1 397.3,89.8 398,117.4 398,117.4 "></polygon><polygon id="spoly_C337" data-role="section" data-sectionid="C337" data-angle="73" points="420.6,118.1 441.9,119.9 443.9,91.4 421.6,90.1 420.6,118.1 420.6,118.1 "></polygon><polygon id="spoly_C338" data-role="section" data-sectionid="C338" data-angle="97" points="443.6,120 463.9,122.5 467.8,93.8 456.7,92.4 445.6,91.5 443.6,120 443.6,120 "></polygon><polygon id="spoly_C339" data-role="section" data-sectionid="C339" data-angle="98.4" points="465.4,122.8 478.1,124.8 478.2,124.8 482.8,96.3 469.5,94 465.4,122.8 465.4,122.8 "></polygon><polygon id="spoly_SRO" data-role="section" data-sectionid="SRO" data-angle="360" points="179.4,259.6 116.4,259.6 116.4,212.3 179.4,212.3 "></polygon><polygon id="spoly_WSRO" data-role="section" data-sectionid="WSRO" data-angle="90" points="201,206.7 206.7,206.7 206.7,309.6 201,309.6 "></polygon><polygon id="spoly_ESRO" data-role="section" data-sectionid="ESRO" data-angle="270" points="588.6,206.3 593.9,206.3 593.9,309.9 588.6,309.9 588.6,309.9 588.6,309.9 "></polygon><polygon id="spoly_star_suites" data-role="section" data-sectionid="star_suites" data-angle="360" points="616.8,206.5 682.9,206.5 682.9,206.5 682.9,219.8 616.8,219.8 "></polygon><polygon id="spoly_ring_of_honor_suites" data-role="section" data-sectionid="ring_of_honor_suites" data-angle="360" points="618.7,250.9 682.9,250.9 682.9,264.9 618.7,264.9 "></polygon><polygon id="spoly_silver_suites" data-role="section" data-sectionid="silver_suites" data-angle="360" points="620,295.4 683.5,295.4 683.5,308.7 620,308.7 "></polygon><polygon id="spoly_touchdown_suites" data-role="section" data-sectionid="touchdown_suites" data-angle="269.2" points="512.9,302.5 512.9,232.2 497.9,232.2 497.9,291 496.9,298 512.9,302.5 512.9,302.5 "></polygon><polygon id="spoly_field_level_suites" data-role="section" data-sectionid="field_level_suites" data-angle="354.5" points="291.5,305.3 295,309.4 301.1,312.9 309.2,316.5 320.3,319.6 333.9,322.1 351.6,324.1 372.3,325.7 397.5,326.2 423.3,325.7 451.5,323.1 465.2,321.1 477.8,318 488.9,315 497.5,310.9 500,308.8 501.5,306.3 495,303.2 491.9,306.8 483.3,310.4 473.2,313.4 448.5,317.5 421.7,319.6 397.5,320.1 374.3,319.6 354.6,318.5 338.4,316.5 325.3,314.5 315.2,311.9 307.1,308.8 301.6,305.8 298,302.2 291.5,305.3 291.5,305.3 "></polygon><polygon id="spoly_hall_of_fame_suites" data-role="section" data-sectionid="hall_of_fame_suites" data-angle="115.9" points="248,206.5 252.2,193.2 258.3,181.4 265.9,185.9 259.5,197.8 255.7,208.4 "></polygon><polygon id="spoly_owners_club_suites" data-role="section" data-sectionid="owners_club_suites" data-angle="353.1" points="314.8,353.3 320.1,354.5 326.7,355.7 335.7,357.1 347.3,358.5 361.4,359.8 369.4,360.3 377.9,360.6 387.2,360.9 397,361 406.8,360.9 415.9,360.6 424.5,360.3 432.5,359.8 446.6,358.6 458.1,357.2 467.2,355.9 473.6,354.8 478.9,353.6 479.1,360.6 474.5,361.8 468.5,363.1 459.9,364.5 448.6,365.9 441.8,366.5 434.3,367.1 426.2,367.6 417.2,368 407.4,368.2 397,368.3 386.4,368.2 376.6,368 367.5,367.6 359.3,367 351.7,366.5 344.8,365.8 333.3,364.3 324.4,362.9 318.1,361.6 313.3,360.4 314.8,353.3 314.8,353.3 "></polygon><polygon class="is-d epoly_dyn_suites_labels_bottom" data-role="dynamic" points="432.3,71.7 " style="fill:#; stroke:#; stroke-width:0; fill-opacity:0.0;"></polygon><polygon class="is-d epoly_dyn_suites_labels_top" data-role="dynamic" points="427.8,432.6 " style="fill:#; stroke:#; stroke-width:0; fill-opacity:0.0;"></polygon><polygon class="is-d epoly_dyn_silver_label" data-role="dynamic" points="649.5,290.6 " style="fill:#; stroke:#; stroke-width:0; fill-opacity:0.0;"></polygon><polygon class="is-d epoly_dyn_roh_label" data-role="dynamic" points="650.1,244.6 " style="fill:#; stroke:#; stroke-width:0; fill-opacity:0.0;"></polygon><polygon class="is-d epoly_dyn_star_label" data-role="dynamic" points="648.2,199.5 " style="fill:#; stroke:#; stroke-width:0; fill-opacity:0.0;"></polygon><polygon class="is-d epoly_dynamic_hof_suites_right" data-role="dynamic" points="547.1,297.8 547.1,217.7 538.5,217.7 538.5,297.8 " style="fill:#F4F4F4; stroke:#BEBEBE; stroke-width:1; fill-opacity:1.0;"></polygon><polygon class="is-d epoly_dynamic_hof_suites_left" data-role="dynamic" points="246.9,216.1 255.2,216.1 255.2,297.8 246.9,297.8 " style="fill:#F4F4F4; stroke:#BEBEBE; stroke-width:1; fill-opacity:1.0;"></polygon><polygon class="is-d epoly_endzone_suites_w" data-role="dynamic" points="281.1,208.7 281.1,306.7 296.8,300.6 296.8,297.4 296.8,273.3 296.8,241 296.8,216.9 296.8,214.7 281.1,208.7 281.1,208.7 " style="fill:#F4F4F4; stroke:#BEBEBE; stroke-width:1; fill-opacity:1.0;"></polygon><polygon class="is-d epoly_dynamic_suites_top" data-role="dynamic" points="551.9,118.2 550.1,116.8 547.8,115.1 544.6,112.9 540.1,110.4 534.5,107.5 527.7,104.3 519.5,101.2 509.9,98.1 504.5,96.4 498.7,94.9 492.6,93.5 486.1,92 479.1,90.8 471.8,89.5 464,88.3 455.8,87.3 447.1,86.3 438,85.6 428.4,85 418.3,84.6 407.8,84.2 396.7,84.1 385.6,84.2 375,84.6 364.9,85 355.3,85.7 346.1,86.4 337.4,87.4 329.1,88.4 321.2,89.6 313.8,90.8 306.8,92.2 300.2,93.6 294,95.1 288.1,96.6 282.7,98.2 272.9,101.5 264.6,104.7 257.5,107.8 251.8,110.7 247.2,113.3 243.8,115.5 241.5,117.2 239.6,118.8 227.8,105 229.7,103.4 232.2,101.5 235.9,99.2 240.8,96.3 247,93.1 254.5,89.7 263.6,86.2 268.6,84.4 274.1,82.7 280,80.9 286.3,79.2 293,77.6 300.1,76.1 307.6,74.6 315.7,73.2 324.1,71.9 333.1,70.8 342.5,69.8 352.5,68.9 362.9,68.3 373.8,67.8 385.2,67.4 397.2,67.3 409.2,67.4 420.6,67.8 431.6,68.3 441.9,68.9 451.8,69.8 461.2,70.7 470.2,71.9 478.6,73.1 486.6,74.5 494.1,76 501.2,77.5 507.9,79.1 514.1,80.7 519.9,82.4 525.3,84.1 530.3,85.9 539.3,89.4 546.8,92.7 552.9,95.9 557.6,98.7 561.3,101.1 563.8,102.9 565.6,104.5 551.9,118.2 551.9,118.2 " style="fill:#F4F4F4; stroke:#BEBEBE; stroke-width:1; fill-opacity:1.0;"></polygon><polygon class="is-d epoly_dynamic_hof_suites_top" data-role="dynamic" points="480.6,162 475.3,160.8 468.8,159.5 459.7,158.2 448.1,156.7 434,155.6 426,155.1 417.5,154.7 408.3,154.5 398.5,154.4 388.7,154.5 379.5,154.6 370.9,155.1 362.9,155.5 348.9,156.7 337.3,158 328.3,159.4 321.8,160.6 316.5,161.7 316.3,154.6 321,153.4 326.9,152.3 335.5,150.8 346.9,149.4 353.6,148.8 361.1,148.2 369.2,147.7 378.2,147.3 388,147.1 398.5,147 409,147.1 418.8,147.3 427.9,147.7 436.2,148.2 443.7,148.8 450.6,149.5 462.1,151 471,152.4 477.3,153.7 482.2,155 480.6,162 480.6,162 " style="fill:#F4F4F4; stroke:#BEBEBE; stroke-width:1; fill-opacity:1.0;"></polygon><polygon class="is-d epoly_dynamic_suites_bottom" data-role="dynamic" points="238.5,397.3 240.3,398.7 242.6,400.4 245.9,402.5 250.3,405 256,407.8 262.9,410.9 271.1,414 280.8,417.1 286.2,418.7 292,420.2 298.1,421.6 304.6,423 311.7,424.3 319,425.5 326.8,426.6 335,427.6 343.8,428.6 352.9,429.3 362.5,429.9 372.6,430.4 383.1,430.7 394.2,430.8 405.2,430.7 415.9,430.3 425.9,429.9 435.6,429.3 444.8,428.6 453.5,427.6 461.7,426.6 469.6,425.4 477,424.2 484,422.9 490.5,421.5 496.7,420 502.6,418.5 508,416.9 517.8,413.8 526.1,410.6 533,407.5 538.7,404.6 543.2,402.1 546.7,399.9 548.9,398.2 550.8,396.8 562.6,410.5 560.7,412.1 558.2,413.8 554.6,416.2 549.9,419.1 543.7,422.2 536.3,425.5 527.3,429 522.3,430.8 516.9,432.5 511.1,434.2 504.9,435.8 498.2,437.4 491.1,438.9 483.6,440.4 475.5,441.8 467.2,443 458.2,444.1 448.8,445.1 438.9,445.9 428.5,446.6 417.6,447.1 406.2,447.4 394.2,447.5 382.2,447.4 370.8,447.1 359.8,446.6 349.4,445.9 339.5,445.2 330.1,444.1 321.1,443 312.7,441.8 304.6,440.5 297.1,439.1 290,437.5 283.3,435.9 277,434.3 271.1,432.6 260.6,429.2 251.5,425.9 244,422.6 237.8,419.4 232.9,416.6 229.2,414.4 226.7,412.6 224.8,411 238.5,397.3 238.5,397.3 " style="fill:#F4F4F4; stroke:#BEBEBE; stroke-width:1; fill-opacity:1.0;"></polygon><polygon class="is-d epoly_event_level_suites_n" data-role="dynamic" points="504.9,222.5 504.9,222 504.4,215.8 503.4,210.6 500.9,206 497.9,202.9 489.3,198.7 478.2,195.6 465.5,192.5 451.9,190.4 423.6,187.8 397.8,187.3 371.6,187.8 349.3,189.4 331.6,191.5 317.5,194.6 306.9,198.2 299.3,201.8 293.8,206 290.2,210.1 296.8,213.2 299.8,209.6 304.9,206 312.4,202.9 322.6,199.7 335.7,197.2 352.4,195.6 373.1,194 397.8,193.5 422.1,194 448.9,196.1 461.5,197.7 473.6,199.7 483.7,202.9 492.3,206.5 494.8,209.6 496.8,213.2 498.9,223.6 504.9,222.5 504.9,222.5 " style="fill:#F4F4F4; stroke:#BEBEBE; stroke-width:1; fill-opacity:1.0;"></polygon><polygon class="is-d epoly_bench_visitor" data-role="dynamic" points="425.8,210.9 425.8,198.7 364.8,198.7 364.8,210.9 " style="fill:#DDD; stroke:#DDD; stroke-width:0; fill-opacity:1.0;"></polygon><polygon class="is-d epoly_bench_home" data-role="dynamic" points="425.9,300.5 425.9,312.8 364.8,312.8 364.8,300.5 " style="fill:#000; stroke:#000; stroke-width:0; fill-opacity:1.0;"></polygon></g><circle id="mctrmrk" cx="396.7" cy="259.5" r="1" stroke-width="0" stroke="#FFF" opacity="0"></circle><g id="svgsectionnames" style="opacity:1; font-size:5.766666666666667px;"><text data-sectionid="101" data-role="section" x="517.9" y="320.2" transform="rotate(394.617 517.9 320.2)">101</text><text data-sectionid="102" data-role="section" x="508.5" y="331.3" transform="rotate(415.923 508.5 331.3)">102</text><text data-sectionid="103" data-role="section" x="492.1" y="334.9" transform="rotate(435.907 492.1 334.9)">103</text><text data-sectionid="118" data-role="section" x="301.2" y="334.8" transform="rotate(282.732 301.2 334.8)">118</text><text data-sectionid="119" data-role="section" x="284.8" y="331.1" transform="rotate(303.043 284.8 331.1)">119</text><text data-sectionid="120" data-role="section" x="271.7" y="317.1" transform="rotate(326.72 271.7 317.1)">120</text><text data-sectionid="121" data-role="section" x="267.2" y="300.4" transform="rotate(352.429 267.2 300.4)">121</text><text data-sectionid="122" data-role="section" x="266.8" y="278.5">122</text><text data-sectionid="123" data-role="section" x="266.8" y="259.6">123</text><text data-sectionid="124" data-role="section" x="266.8" y="240.8">124</text><text data-sectionid="125" data-role="section" x="267.2" y="218.8">125</text><text data-sectionid="126" data-role="section" x="276" y="199.5" transform="rotate(388.532 276 199.5)">126</text><text data-sectionid="127" data-role="section" x="285.4" y="187.6" transform="rotate(417.819 285.4 187.6)">127</text><text data-sectionid="128" data-role="section" x="306.6" y="183.5" transform="rotate(436.024 306.6 183.5)">128</text><text data-sectionid="129" data-role="section" x="320.9" y="179.9" transform="rotate(439.963 320.9 179.9)">129</text><text data-sectionid="142" data-role="section" x="473.7" y="179.9" transform="rotate(-78.3885 473.7 179.9)">142</text><text data-sectionid="143" data-role="section" x="488" y="183.5" transform="rotate(-74.6357 488 183.5)">143</text><text data-sectionid="144" data-role="section" x="509.2" y="187.6" transform="rotate(-55.0472 509.2 187.6)">144</text><text data-sectionid="145" data-role="section" x="517.9" y="200.8" transform="rotate(-26.9958 517.9 200.8)">145</text><text data-sectionid="146" data-role="section" x="521.4" y="218.9" transform="rotate(-12.7619 521.4 218.9)">146</text><text data-sectionid="147" data-role="section" x="526.7" y="240.9">147</text><text data-sectionid="148" data-role="section" x="526.7" y="259.5">148</text><text data-sectionid="149" data-role="section" x="526.7" y="278.6">149</text><text data-sectionid="150" data-role="section" x="526.2" y="300.8">150</text><text data-sectionid="201" data-role="section" x="555.7" y="327.4" transform="rotate(382.19 555.7 327.4)">201</text><text data-sectionid="202" data-role="section" x="544.8" y="350.2" transform="rotate(397.528 544.8 350.2)">202</text><text data-sectionid="203" data-role="section" x="527.4" y="364.9" transform="rotate(421.654 527.4 364.9)">203</text><text data-sectionid="204" data-role="section" x="508.1" y="372.9" transform="rotate(433.496 508.1 372.9)">204</text><text data-sectionid="205" data-role="section" x="492.4" y="376.2" transform="rotate(439.875 492.4 376.2)">205</text><text data-sectionid="215" data-role="section" x="302.2" y="376.2" transform="rotate(280.244 302.2 376.2)">215</text><text data-sectionid="216" data-role="section" x="286.5" y="373.2" transform="rotate(286.429 286.5 373.2)">216</text><text data-sectionid="217" data-role="section" x="266.6" y="364.9" transform="rotate(301.562 266.6 364.9)">217</text><text data-sectionid="218" data-role="section" x="249.8" y="349.4" transform="rotate(323.82 249.8 349.4)">218</text><text data-sectionid="219" data-role="section" x="239" y="327.3" transform="rotate(343.101 239 327.3)">219</text><text data-sectionid="220" data-role="section" x="235.1" y="307.1" transform="rotate(360 235.1 307.1)">220</text><text data-sectionid="221" data-role="section" x="235.1" y="289">221</text><text data-sectionid="222" data-role="section" x="235.1" y="269.6">222</text><text data-sectionid="223" data-role="section" x="235.1" y="251">223</text><text data-sectionid="224" data-role="section" x="235.1" y="231.5">224</text><text data-sectionid="225" data-role="section" x="235.1" y="213.5" transform="rotate(360 235.1 213.5)">225</text><text data-sectionid="226" data-role="section" x="239" y="193.3" transform="rotate(383.749 239 193.3)">226</text><text data-sectionid="227" data-role="section" x="249.8" y="171.1" transform="rotate(401.576 249.8 171.1)">227</text><text data-sectionid="228" data-role="section" x="266.6" y="155.6" transform="rotate(417.265 266.6 155.6)">228</text><text data-sectionid="229" data-role="section" x="286.5" y="147.4" transform="rotate(434.624 286.5 147.4)">229</text><text data-sectionid="230" data-role="section" x="302.2" y="144.4" transform="rotate(438.043 302.2 144.4)">230</text><text data-sectionid="240" data-role="section" x="492.4" y="144.3" transform="rotate(-80.4258 492.4 144.3)">240</text><text data-sectionid="241" data-role="section" x="508.1" y="147.6" transform="rotate(-73.4956 508.1 147.6)">241</text><text data-sectionid="242" data-role="section" x="527.4" y="155.6" transform="rotate(-59.8399 527.4 155.6)">242</text><text data-sectionid="243" data-role="section" x="544.8" y="170.3" transform="rotate(-34.0609 544.8 170.3)">243</text><text data-sectionid="244" data-role="section" x="555.7" y="193.2" transform="rotate(-16.4293 555.7 193.2)">244</text><text data-sectionid="245" data-role="section" x="559.5" y="213.5">245</text><text data-sectionid="246" data-role="section" x="559.5" y="231.6">246</text><text data-sectionid="247" data-role="section" x="559.5" y="251">247</text><text data-sectionid="248" data-role="section" x="559.5" y="269.6">248</text><text data-sectionid="249" data-role="section" x="559.5" y="288.9">249</text><text data-sectionid="250" data-role="section" x="559.5" y="307.1">250</text><text data-sectionid="301" data-role="section" x="581.1" y="336.9" transform="rotate(372.665 581.1 336.9)">301</text><text data-sectionid="302" data-role="section" x="574.3" y="355.1" transform="rotate(658.56 574.3 355.1)">302</text><text data-sectionid="303" data-role="section" x="557" y="377.5" transform="rotate(678.205 557 377.5)">303</text><text data-sectionid="304" data-role="section" x="533.4" y="393.8" transform="rotate(696.371 533.4 393.8)">304</text><text data-sectionid="305" data-role="section" x="513.8" y="401.5" transform="rotate(436.43 513.8 401.5)">305</text><text data-sectionid="316" data-role="section" x="281.1" y="401.7" transform="rotate(283.885 281.1 401.7)">316</text><text data-sectionid="317" data-role="section" x="260.3" y="394" transform="rotate(385.665 260.3 394)">317</text><text data-sectionid="318" data-role="section" x="236.7" y="377.7" transform="rotate(399.382 236.7 377.7)">318</text><text data-sectionid="319" data-role="section" x="219.6" y="355.3" transform="rotate(423.997 219.6 355.3)">319</text><text data-sectionid="320" data-role="section" x="212.6" y="336.6" transform="rotate(343.54 212.6 336.6)">320</text><text data-sectionid="321" data-role="section" x="214.7" y="307.2" transform="rotate(270 214.7 307.2)">321</text><text data-sectionid="322" data-role="section" x="214.7" y="291" transform="rotate(270 214.7 291)">322</text><text data-sectionid="323" data-role="section" x="214.7" y="270.7" transform="rotate(270 214.7 270.7)">323</text><text data-sectionid="324" data-role="section" x="214.7" y="250.4" transform="rotate(270 214.7 250.4)">324</text><text data-sectionid="325" data-role="section" x="214.7" y="230" transform="rotate(270 214.7 230)">325</text><text data-sectionid="326" data-role="section" x="214.7" y="214.2" transform="rotate(270 214.7 214.2)">326</text><text data-sectionid="327" data-role="section" x="218.5" y="169.7" transform="rotate(656.281 218.5 169.7)">327</text><text data-sectionid="328" data-role="section" x="236.7" y="142.8" transform="rotate(679.611 236.7 142.8)">328</text><text data-sectionid="329" data-role="section" x="260.3" y="126.5" transform="rotate(692.21 260.3 126.5)">329</text><text data-sectionid="330" data-role="section" x="281" y="118.8" transform="rotate(435.192 281 118.8)">330</text><text data-sectionid="341" data-role="section" x="513.8" y="119" transform="rotate(-78.2066 513.8 119)">341</text><text data-sectionid="342" data-role="section" x="533.4" y="126.7" transform="rotate(24.7751 533.4 126.7)">342</text><text data-sectionid="343" data-role="section" x="557" y="143.1" transform="rotate(45.9392 557 143.1)">343</text><text data-sectionid="344" data-role="section" x="575.3" y="169.9" transform="rotate(63.4349 575.3 169.9)">344</text><text data-sectionid="345" data-role="section" x="580.2" y="214" transform="rotate(90 580.2 214)">345</text><text data-sectionid="346" data-role="section" x="580.2" y="229.9" transform="rotate(90 580.2 229.9)">346</text><text data-sectionid="347" data-role="section" x="580.2" y="250.3" transform="rotate(90 580.2 250.3)">347</text><text data-sectionid="348" data-role="section" x="580.2" y="270.6" transform="rotate(90 580.2 270.6)">348</text><text data-sectionid="349" data-role="section" x="580.2" y="290.8" transform="rotate(90 580.2 290.8)">349</text><text data-sectionid="350" data-role="section" x="580.2" y="307.1" transform="rotate(90 580.2 307.1)">350</text><text data-sectionid="401" data-role="section" x="631.9" y="368.8" transform="rotate(378.75 631.9 368.8)">401</text><text data-sectionid="402" data-role="section" x="626.4" y="384.4" transform="rotate(390.292 626.4 384.4)">402</text><text data-sectionid="403" data-role="section" x="615.3" y="404.7" transform="rotate(668.92 615.3 404.7)">403</text><text data-sectionid="404" data-role="section" x="601.4" y="423" transform="rotate(681.026 601.4 423)">404</text><text data-sectionid="405" data-role="section" x="583.7" y="437.8" transform="rotate(689 583.7 437.8)">405</text><text data-sectionid="406" data-role="section" x="563.6" y="451.4" transform="rotate(698.76 563.6 451.4)">406</text><text data-sectionid="407" data-role="section" x="540.8" y="458.9" transform="rotate(703.32 540.8 458.9)">407</text><text data-sectionid="408" data-role="section" x="517.5" y="465.2" transform="rotate(709.747 517.5 465.2)">408</text><text data-sectionid="409" data-role="section" x="491.5" y="472.4">409</text><text data-sectionid="410" data-role="section" x="465.5" y="475.7">410</text><text data-sectionid="411" data-role="section" x="438.3" y="478.4">411</text><text data-sectionid="412" data-role="section" x="410.9" y="479.2">412</text><text data-sectionid="413" data-role="section" x="382.8" y="480.1">413</text><text data-sectionid="414" data-role="section" x="354.3" y="478">414</text><text data-sectionid="415" data-role="section" x="327.6" y="476.6">415</text><text data-sectionid="416" data-role="section" x="299.6" y="472.2">416</text><text data-sectionid="417" data-role="section" x="276.7" y="466.4" transform="rotate(368.312 276.7 466.4)">417</text><text data-sectionid="418" data-role="section" x="254" y="460.3" transform="rotate(385.412 254 460.3)">418</text><text data-sectionid="419" data-role="section" x="230" y="449.2" transform="rotate(392.312 230 449.2)">419</text><text data-sectionid="420" data-role="section" x="209.8" y="434.6" transform="rotate(401.522 209.8 434.6)">420</text><text data-sectionid="421" data-role="section" x="192.2" y="418.5" transform="rotate(409.038 192.2 418.5)">421</text><text data-sectionid="422" data-role="section" x="175.9" y="402.7" transform="rotate(420.562 175.9 402.7)">422</text><text data-sectionid="423" data-role="section" x="168.7" y="382.1" transform="rotate(340.164 168.7 382.1)">423</text><text data-sectionid="424" data-role="section" x="161" y="370.6" transform="rotate(343.337 161 370.6)">424</text><text data-sectionid="425" data-role="section" x="191.9" y="304.2" transform="rotate(270 191.9 304.2)">425</text><text data-sectionid="426" data-role="section" x="191.9" y="287.5" transform="rotate(270 191.9 287.5)">426</text><text data-sectionid="427" data-role="section" x="191.9" y="269.4" transform="rotate(270 191.9 269.4)">427</text><text data-sectionid="428" data-role="section" x="191.9" y="251" transform="rotate(270 191.9 251)">428</text><text data-sectionid="429" data-role="section" x="191.9" y="232" transform="rotate(270 191.9 232)">429</text><text data-sectionid="430" data-role="section" x="191.9" y="214.7" transform="rotate(270 191.9 214.7)">430</text><text data-sectionid="431" data-role="section" x="161" y="149.9" transform="rotate(380.426 161 149.9)">431</text><text data-sectionid="432" data-role="section" x="165.5" y="135.1" transform="rotate(381.801 165.5 135.1)">432</text><text data-sectionid="433" data-role="section" x="178.4" y="115.2" transform="rotate(658.932 178.4 115.2)">433</text><text data-sectionid="434" data-role="section" x="190.3" y="96.2" transform="rotate(667.295 190.3 96.2)">434</text><text data-sectionid="435" data-role="section" x="209.8" y="80.1" transform="rotate(683.531 209.8 80.1)">435</text><text data-sectionid="436" data-role="section" x="229.4" y="66.8" transform="rotate(690.408 229.4 66.8)">436</text><text data-sectionid="437" data-role="section" x="254.7" y="57.6" transform="rotate(699.119 254.7 57.6)">437</text><text data-sectionid="438" data-role="section" x="276.7" y="50.2" transform="rotate(711.198 276.7 50.2)">438</text><text data-sectionid="439" data-role="section" x="301.5" y="45.7">439</text><text data-sectionid="440" data-role="section" x="327.7" y="41.9">440</text><text data-sectionid="441" data-role="section" x="355.6" y="39.9">441</text><text data-sectionid="442" data-role="section" x="382.8" y="37.8">442</text><text data-sectionid="443" data-role="section" x="409.6" y="38.7">443</text><text data-sectionid="444" data-role="section" x="437" y="38.8">444</text><text data-sectionid="445" data-role="section" x="465.5" y="42.2">445</text><text data-sectionid="446" data-role="section" x="493.4" y="46.8">446</text><text data-sectionid="447" data-role="section" x="518.7" y="50.8" transform="rotate(14.5066 518.7 50.8)">447</text><text data-sectionid="448" data-role="section" x="540.2" y="58.9" transform="rotate(18.2459 540.2 58.9)">448</text><text data-sectionid="449" data-role="section" x="563" y="67.7" transform="rotate(25.0169 563 67.7)">449</text><text data-sectionid="450" data-role="section" x="584.3" y="81.3" transform="rotate(33.9842 584.3 81.3)">450</text><text data-sectionid="451" data-role="section" x="601.4" y="96.8" transform="rotate(40.8461 601.4 96.8)">451</text><text data-sectionid="452" data-role="section" x="616.5" y="115.7" transform="rotate(57.178 616.5 115.7)">452</text><text data-sectionid="453" data-role="section" x="626.4" y="134.1" transform="rotate(-27.9999 626.4 134.1)">453</text><text data-sectionid="454" data-role="section" x="633.2" y="150.4" transform="rotate(-16.5571 633.2 150.4)">454</text><text data-sectionid="455" data-role="section" x="603" y="214.6" transform="rotate(90 603 214.6)">455</text><text data-sectionid="456" data-role="section" x="603" y="231.8" transform="rotate(90 603 231.8)">456</text><text data-sectionid="457" data-role="section" x="603" y="250.8" transform="rotate(90 603 250.8)">457</text><text data-sectionid="458" data-role="section" x="603" y="269.2" transform="rotate(90 603 269.2)">458</text><text data-sectionid="459" data-role="section" x="603" y="287.4" transform="rotate(90 603 287.4)">459</text><text data-sectionid="460" data-role="section" x="603" y="304.1" transform="rotate(90 603 304.1)">460</text><text data-sectionid="C106" data-role="section" x="482.4" y="337.1" transform="rotate(440.218 482.4 337.1)">C106</text><text data-sectionid="C107" data-role="section" x="467.6" y="339.9">C107</text><text data-sectionid="C108" data-role="section" x="447.5" y="342.7">C108</text><text data-sectionid="C109" data-role="section" x="427.1" y="344.4">C109</text><text data-sectionid="C110" data-role="section" x="407.1" y="345.1">C110</text><text data-sectionid="C111" data-role="section" x="387" y="343.2">C111</text><text data-sectionid="C112" data-role="section" x="366.3" y="344.4">C112</text><text data-sectionid="C113" data-role="section" x="345.9" y="342.7">C113</text><text data-sectionid="C114" data-role="section" x="325.7" y="339.8">C114</text><text data-sectionid="C115" data-role="section" x="310.9" y="337.1" transform="rotate(281.215 310.9 337.1)">C115</text><text data-sectionid="C132" data-role="section" x="331.2" y="178.2" transform="rotate(443.003 331.2 178.2)">C132</text><text data-sectionid="C133" data-role="section" x="346.3" y="176.5">C133</text><text data-sectionid="C134" data-role="section" x="366" y="174.8">C134</text><text data-sectionid="C135" data-role="section" x="386.7" y="173.9">C135</text><text data-sectionid="C136" data-role="section" x="408" y="173.8">C136</text><text data-sectionid="C137" data-role="section" x="428.6" y="174.8">C137</text><text data-sectionid="C138" data-role="section" x="448.3" y="176.5">C138</text><text data-sectionid="C139" data-role="section" x="463.5" y="178.2" transform="rotate(-80.112 463.5 178.2)">C139</text><text data-sectionid="C206" data-role="section" x="480.4" y="378.4" transform="rotate(441.87 480.4 378.4)">C206</text><text data-sectionid="C207" data-role="section" x="463.3" y="380.9">C207</text><text data-sectionid="C208" data-role="section" x="441.4" y="383.4">C208</text><text data-sectionid="C209" data-role="section" x="425" y="384.6" transform="rotate(447.642 425 384.6)">C209</text><text data-sectionid="C210" data-role="section" x="397.9" y="385.4">C210</text><text data-sectionid="C211" data-role="section" x="370.7" y="384.8" transform="rotate(274.086 370.7 384.8)">C211</text><text data-sectionid="C212" data-role="section" x="353.4" y="383.4">C212</text><text data-sectionid="C213" data-role="section" x="330.8" y="380.7">C213</text><text data-sectionid="C214" data-role="section" x="313.6" y="378.3" transform="rotate(279.574 313.6 378.3)">C214</text><text data-sectionid="C231" data-role="section" x="313.6" y="142.3" transform="rotate(441.203 313.6 142.3)">C231</text><text data-sectionid="C232" data-role="section" x="330.8" y="139.8">C232</text><text data-sectionid="C233" data-role="section" x="353.4" y="137.2">C233</text><text data-sectionid="C234" data-role="section" x="370.7" y="135.4" transform="rotate(446.653 370.7 135.4)">C234</text><text data-sectionid="C235" data-role="section" x="397.9" y="134.7">C235</text><text data-sectionid="C236" data-role="section" x="425" y="135.5" transform="rotate(-87.2908 425 135.5)">C236</text><text data-sectionid="C237" data-role="section" x="441.4" y="137.2">C237</text><text data-sectionid="C238" data-role="section" x="463.3" y="139.6">C238</text><text data-sectionid="C239" data-role="section" x="480.4" y="142.2" transform="rotate(-79.2157 480.4 142.2)">C239</text><text data-sectionid="C307" data-role="section" x="474.1" y="409" transform="rotate(441.552 474.1 409)">C307</text><text data-sectionid="C308" data-role="section" x="455.7" y="411.5">C308</text><text data-sectionid="C309" data-role="section" x="432.2" y="413.5">C309</text><text data-sectionid="C310" data-role="section" x="408.6" y="414.6">C310</text><text data-sectionid="C311" data-role="section" x="385.2" y="414.7">C311</text><text data-sectionid="C312" data-role="section" x="361.5" y="413.5">C312</text><text data-sectionid="C313" data-role="section" x="338.6" y="411.7">C313</text><text data-sectionid="C314" data-role="section" x="320.1" y="409.2" transform="rotate(278.049 320.1 409.2)">C314</text><text data-sectionid="C332" data-role="section" x="320.1" y="111.3" transform="rotate(441.951 320.1 111.3)">C332</text><text data-sectionid="C333" data-role="section" x="338.6" y="108.8">C333</text><text data-sectionid="C334" data-role="section" x="361.5" y="107">C334</text><text data-sectionid="C335" data-role="section" x="385.2" y="105.8">C335</text><text data-sectionid="C336" data-role="section" x="408.6" y="105.9">C336</text><text data-sectionid="C337" data-role="section" x="432.2" y="107">C337</text><text data-sectionid="C338" data-role="section" x="455.7" y="109">C338</text><text data-sectionid="C339" data-role="section" x="474.1" y="111.4" transform="rotate(-79.5923 474.1 111.4)">C339</text><text data-sectionid="SRO" data-role="section" x="147.1" y="206.9">Standing Room Only</text><text data-sectionid="WSRO" data-role="section" x="205.1" y="200.7">W SRO</text><text data-sectionid="ESRO" data-role="section" x="591.9" y="200">E SRO</text><text data-sectionid="star_suites" data-role="section" x="648.6" y="193.8">Star Suites</text><text data-sectionid="ring_of_honor_suites" data-role="section" x="650.8" y="237.3">Ring of Honor Suites</text><text data-sectionid="silver_suites" data-role="section" x="650" y="282.6">Silver Suites</text><text data-sectionid="touchdown_suites" data-role="section" x="504.9" y="269.4" transform="rotate(90 504.9 269.4)">Touchdown Suites</text><text data-sectionid="field_level_suites" data-role="section" x="395.2" y="324">Field Level Suites</text><text data-sectionid="hall_of_fame_suites" data-role="section" x="277.3" y="170.7" transform="rotate(325.812 277.3 170.7)">HOF Suites</text><text data-sectionid="owners_club_suites" data-role="section" x="396.2" y="364.3">Owner's Club</text><text class="is-d " text-anchor="middle" x="432.3" y="78.2" style="fill:#999; font-size:4.2px; " null=""><tspan x="432.3" dy="-0.95em">STAR</tspan><tspan x="432.3" dy="1.2em">RING OF HONOR</tspan><tspan x="432.3" dy="1.2em">SILVER</tspan></text><text class="is-d " text-anchor="middle" x="427.8" y="438.9" style="fill:#999; font-size:4.2px; " null=""><tspan x="427.8" dy="-0.95em">SILVER</tspan><tspan x="427.8" dy="1.2em">RING OF HONOR</tspan><tspan x="427.8" dy="1.2em">STAR</tspan></text><text class="is-d " text-anchor="middle" x="649.5" y="291.6" style="fill:#666; font-size:5.9px; " dominant-baseline="central" data-offset="0|0.3" null="">400 Level</text><text class="is-d " text-anchor="middle" x="650.1" y="245.6" style="fill:#666; font-size:5.9px; " dominant-baseline="central" data-offset="0|0.3" null="">500 Level</text><text class="is-d " text-anchor="middle" x="648.2" y="200.5" style="fill:#666; font-size:5.9px; " dominant-baseline="central" data-offset="0|0.3" null="">600 Level</text><text class="is-d " text-anchor="middle" x="542.8" y="259.8" style="fill:#999; font-size:5.9px; " dominant-baseline="central" data-offset="0|0.3" transform="rotate(90 542.8 259.8)">HOF SUITES</text><text class="is-d " text-anchor="middle" x="251.1" y="259" style="fill:#999; font-size:5.9px; " dominant-baseline="central" data-offset="0|0.3" transform="rotate(270 251.1 259)">HOF Suites</text><text class="is-d " text-anchor="middle" x="288.9" y="259.7" style="fill:#999; font-size:5.9px; " dominant-baseline="central" data-offset="0|0.3" transform="rotate(-90 288.9 259.7)">TOUCHDOWN SUITES</text><text class="is-d " text-anchor="middle" x="396.1" y="77.9" style="fill:#999; font-size:5.9px; " dominant-baseline="central" data-offset="0|0.3" null="">SUITES</text><text class="is-d " text-anchor="middle" x="399.2" y="156.5" style="fill:#999; font-size:5.9px; " dominant-baseline="central" data-offset="0|0.3" null="">HOF Suites</text><text class="is-d " text-anchor="middle" x="391.8" y="439.9" style="fill:#999; font-size:5.9px; " dominant-baseline="central" data-offset="0|0.3" null="">SUITES</text><text class="is-d " text-anchor="middle" x="400.1" y="192.1" style="fill:#999; font-size:5.9px; " dominant-baseline="central" data-offset="0|0.3" null="">FIELD LEVEL SUITES</text><text class="is-d dyn-name-bench bench_visitor" text-anchor="middle" x="395.3" y="207.1" style="fill:#666; font-size:5.9px; " dominant-baseline="central" data-offset="0|0.3" null="">VISITOR</text><text class="is-d dyn-name-bench bench_home" text-anchor="middle" x="395.3" y="308.6" style="fill:#FFF; font-size:5.9px; " dominant-baseline="central" data-offset="0|0.3" null="">HOME</text></g></g><circle id="svgZoomCenter" r="1" stroke-width="0" fill-opacity="0" cx="341.75" cy="259.5"></circle><circle id="svgNorthWest" r="1" stroke-width="0" fill-opacity="0" cx="0" cy="0"></circle><circle id="svgSouthEast" r="1" stroke-width="0" fill-opacity="0" cx="794" cy="519"></circle><g id="svgmarkers" style="font-size: 10.3px;"><circle id="svg-marker-hover" data-ticket="" style="display: none;"></circle><g transform="translate(231.9,431) scale(1)" class="ticket-marker flag-with-arrow" data-ticket="418~17" data-mrkgrp="default" data-match="1"><use href="#flag-with-arrow-small" xlink:href="#flag-with-arrow"></use><text data-role="label" x="16" y="9">$25</text></g><g transform="translate(153.2,89.2) scale(1)" class="ticket-marker flag-with-arrow" data-ticket="433~21" data-mrkgrp="default" data-match="1"><use href="#flag-with-arrow-small" xlink:href="#flag-with-arrow"></use><text data-role="label" x="16" y="9">$29</text></g><g transform="translate(628,121.6) scale(1)" class="ticket-marker flag-with-arrow" data-ticket="454~22" data-mrkgrp="default" data-match="1"><use href="#flag-with-arrow-small" xlink:href="#flag-with-arrow"></use><text data-role="label" x="16" y="9">$30</text></g><g transform="translate(544.8,441.7) scale(1)" class="ticket-marker flag-with-arrow" data-ticket="406~25" data-mrkgrp="default" data-match="1"><use href="#flag-with-arrow-small" xlink:href="#flag-with-arrow"></use><text data-role="label" x="16" y="9">$32</text></g><g transform="translate(548.1,30.3) scale(1)" class="ticket-marker flag-with-arrow" data-ticket="449~24" data-mrkgrp="default" data-match="1"><use href="#flag-with-arrow-small" xlink:href="#flag-with-arrow"></use><text data-role="label" x="16" y="9">$33</text></g><g transform="translate(206.5,36) scale(1)" class="ticket-marker flag-with-arrow" data-ticket="436~23" data-mrkgrp="default" data-match="1"><use href="#flag-with-arrow-small" xlink:href="#flag-with-arrow"></use><text data-role="label" x="16" y="9">$34</text></g><g transform="translate(165.5,399.2) scale(1)" class="ticket-marker flag-with-arrow" data-ticket="421~22" data-mrkgrp="default" data-match="1"><use href="#flag-with-arrow-small" xlink:href="#flag-with-arrow"></use><text data-role="label" x="16" y="9">$35</text></g><g transform="translate(474.2,463.2) scale(1)" class="ticket-marker flag-with-arrow" data-ticket="409~30" data-mrkgrp="default" data-match="1"><use href="#flag-with-arrow-small" xlink:href="#flag-with-arrow"></use><text data-role="label" x="16" y="9">$37</text></g><g transform="translate(335,465.6) scale(1)" class="ticket-marker flag-with-arrow" data-ticket="414~27" data-mrkgrp="default" data-match="1"><use href="#flag-with-arrow-small" xlink:href="#flag-with-arrow"></use><text data-role="label" x="16" y="9">$37</text></g><g transform="translate(248,13.1) scale(1)" class="ticket-marker flag-with-arrow" data-ticket="438~29" data-mrkgrp="default" data-match="1"><use href="#flag-with-arrow-small" xlink:href="#flag-with-arrow"></use><text data-role="label" x="16" y="9">$37</text></g><g transform="translate(471.6,8.6) scale(1)" class="ticket-marker flag-with-arrow" data-ticket="446~27" data-mrkgrp="default" data-match="1"><use href="#flag-with-arrow-small" xlink:href="#flag-with-arrow"></use><text data-role="label" x="16" y="9">$39</text></g><g transform="translate(580.5,370.2) scale(1)" class="ticket-marker flag-with-arrow" data-ticket="403~3" data-mrkgrp="default" data-match="1"><use href="#flag-with-arrow-small" xlink:href="#flag-with-arrow"></use><text data-role="label" x="16" y="9">$40</text></g><g transform="translate(281.5,444.1) scale(1)" class="ticket-marker flag-with-arrow" data-ticket="416~17" data-mrkgrp="default" data-match="1"><use href="#flag-with-arrow-small" xlink:href="#flag-with-arrow"></use><text data-role="label" x="16" y="9">$41</text></g><g transform="translate(549.5,72.1) scale(1)" class="ticket-marker flag-with-arrow" data-ticket="450~2" data-mrkgrp="default" data-match="1"><use href="#flag-with-arrow-small" xlink:href="#flag-with-arrow"></use><text data-role="label" x="16" y="9">$41</text></g><g transform="translate(417.2,466.7) scale(1)" class="ticket-marker flag-with-arrow" data-ticket="411~27" data-mrkgrp="default" data-match="1"><use href="#flag-with-arrow-small" xlink:href="#flag-with-arrow"></use><text data-role="label" x="16" y="9">$42</text></g><g transform="translate(168.4,347.6) scale(1)" class="ticket-marker flag-with-arrow" data-ticket="423~3" data-mrkgrp="default" data-match="1"><use href="#flag-with-arrow-small" xlink:href="#flag-with-arrow"></use><text data-role="label" x="16" y="9">$43</text></g><g transform="translate(331.8,7.7) scale(1)" class="ticket-marker flag-with-arrow" data-ticket="441~23" data-mrkgrp="default" data-match="1"><use href="#flag-with-arrow-small" xlink:href="#flag-with-arrow"></use><text data-role="label" x="16" y="9">$43</text></g><g transform="translate(416.5,4.3) scale(1)" class="ticket-marker flag-with-arrow" data-ticket="444~25" data-mrkgrp="default" data-match="1"><use href="#flag-with-arrow-small" xlink:href="#flag-with-arrow"></use><text data-role="label" x="16" y="9">$44</text></g><g transform="translate(176.2,261.2) scale(1)" class="ticket-marker flag-with-arrow" data-ticket="426~3" data-mrkgrp="default" data-match="1"><use href="#flag-with-arrow-small" xlink:href="#flag-with-arrow"></use><text data-role="label" x="16" y="9">$49</text></g><g transform="translate(491.2,50.1) scale(1)" class="ticket-marker flag-with-arrow" data-ticket="447~2" data-mrkgrp="default" data-match="1"><use href="#flag-with-arrow-small" xlink:href="#flag-with-arrow"></use><text data-role="label" x="16" y="9">$49</text></g><g transform="translate(176.1,188.4) scale(1)" class="ticket-marker flag-with-arrow" data-ticket="430~3" data-mrkgrp="default" data-match="1"><use href="#flag-with-arrow-small" xlink:href="#flag-with-arrow"></use><text data-role="label" x="16" y="9">$51</text></g><g transform="translate(584.5,263.2) scale(1)" class="ticket-marker flag-with-arrow" data-ticket="459~2" data-mrkgrp="default" data-match="1"><use href="#flag-with-arrow-small" xlink:href="#flag-with-arrow"></use><text data-role="label" x="16" y="9">$66</text></g><g transform="translate(588.9,411.9) scale(1)" class="ticket-marker flag-with-arrow" data-ticket="404~24" data-mrkgrp="default" data-match="1"><use href="#flag-with-arrow-small" xlink:href="#flag-with-arrow"></use><text data-role="label" x="16" y="9">$75</text></g><g transform="translate(130.7,212.4) scale(1)" class="ticket-marker flag-with-arrow" data-ticket="SRO~ga" data-mrkgrp="default" data-match="1"><use href="#flag-with-arrow-small" xlink:href="#flag-with-arrow"></use><text data-role="label" x="16" y="9">$80</text></g><g transform="translate(576.5,314.3) scale(1)" class="ticket-marker flag-with-arrow" data-ticket="301~17" data-mrkgrp="default" data-match="1"><use href="#flag-with-arrow-small" xlink:href="#flag-with-arrow"></use><text data-role="label" x="16" y="9">$85</text></g><g transform="translate(193.6,136.8) scale(1)" class="ticket-marker flag-with-arrow" data-ticket="327~15" data-mrkgrp="default" data-match="1"><use href="#flag-with-arrow-small" xlink:href="#flag-with-arrow"></use><text data-role="label" x="16" y="9">$91</text></g><g transform="translate(551,207.2) scale(1)" class="ticket-marker flag-with-arrow" data-ticket="246~14" data-mrkgrp="default" data-match="1"><use href="#flag-with-arrow-medium" xlink:href="#flag-with-arrow"></use><text data-role="label" x="18" y="9">$101</text></g><g transform="translate(547.3,147.3) scale(1)" class="ticket-marker flag-with-arrow" data-ticket="344~2" data-mrkgrp="default" data-match="1"><use href="#flag-with-arrow-medium" xlink:href="#flag-with-arrow"></use><text data-role="label" x="18" y="9">$104</text></g><g transform="translate(539.7,262.6) scale(1)" class="ticket-marker flag-with-arrow" data-ticket="249~7" data-mrkgrp="default" data-match="1"><use href="#flag-with-arrow-medium" xlink:href="#flag-with-arrow"></use><text data-role="label" x="18" y="9">$108</text></g><g transform="translate(247.5,361.1) scale(1)" class="ticket-marker flag-with-arrow" data-ticket="317~4" data-mrkgrp="default" data-match="1"><use href="#flag-with-arrow-medium" xlink:href="#flag-with-arrow"></use><text data-role="label" x="18" y="9">$111</text></g><g transform="translate(517.4,374.9) scale(1)" class="ticket-marker flag-with-arrow" data-ticket="304~15" data-mrkgrp="default" data-match="1"><use href="#flag-with-arrow-medium" xlink:href="#flag-with-arrow"></use><text data-role="label" x="18" y="9">$120</text></g><g transform="translate(226.7,296.7) scale(1)" class="ticket-marker flag-with-arrow" data-ticket="219~4" data-mrkgrp="default" data-match="1"><use href="#flag-with-arrow-medium" xlink:href="#flag-with-arrow"></use><text data-role="label" x="18" y="9">$123</text></g><g transform="translate(226.9,243.9) scale(1)" class="ticket-marker flag-with-arrow" data-ticket="222~2" data-mrkgrp="default" data-match="1"><use href="#flag-with-arrow-medium" xlink:href="#flag-with-arrow"></use><text data-role="label" x="18" y="9">$123</text></g><g transform="translate(217.9,189.4) scale(1)" class="ticket-marker flag-with-arrow" data-ticket="225~8" data-mrkgrp="default" data-match="1"><use href="#flag-with-arrow-medium" xlink:href="#flag-with-arrow"></use><text data-role="label" x="18" y="9">$123</text></g><g transform="translate(233.7,146.7) scale(1)" class="ticket-marker flag-with-arrow" data-ticket="227~7" data-mrkgrp="default" data-match="1"><use href="#flag-with-arrow-medium" xlink:href="#flag-with-arrow"></use><text data-role="label" x="18" y="9">$128</text></g><g transform="translate(285.2,142.8) scale(1)" class="ticket-marker flag-with-arrow" data-ticket="128~21" data-mrkgrp="default" data-match="1"><use href="#flag-with-arrow-medium" xlink:href="#flag-with-arrow"></use><text data-role="label" x="18" y="9">$139</text></g><g transform="translate(504.7,332.3) scale(1)" class="ticket-marker flag-with-arrow" data-ticket="203~4" data-mrkgrp="default" data-match="1"><use href="#flag-with-arrow-medium" xlink:href="#flag-with-arrow"></use><text data-role="label" x="18" y="9">$139</text></g><g transform="translate(303.9,328.5) scale(1)" class="ticket-marker flag-with-arrow" data-ticket="C114~19" data-mrkgrp="default" data-match="1"><use href="#flag-with-arrow-medium" xlink:href="#flag-with-arrow"></use><text data-role="label" x="18" y="9">$153</text></g><g transform="translate(244,100.4) scale(1)" class="ticket-marker flag-with-arrow" data-ticket="329~9" data-mrkgrp="default" data-match="1"><use href="#flag-with-arrow-medium" xlink:href="#flag-with-arrow"></use><text data-role="label" x="18" y="9">$154</text></g><g transform="translate(491.8,287.9) scale(1)" class="ticket-marker flag-with-arrow" data-ticket="101~6" data-mrkgrp="default" data-match="1"><use href="#flag-with-arrow-medium" xlink:href="#flag-with-arrow"></use><text data-role="label" x="18" y="9">$170</text></g><g transform="translate(470.6,142.8) scale(1)" class="ticket-marker flag-with-arrow" data-ticket="143~20" data-mrkgrp="default" data-match="1"><use href="#flag-with-arrow-medium" xlink:href="#flag-with-arrow"></use><text data-role="label" x="18" y="9">$175</text></g><g transform="translate(258.1,196.7) scale(1)" class="ticket-marker flag-with-arrow" data-ticket="125~9" data-mrkgrp="default" data-match="1"><use href="#flag-with-arrow-medium" xlink:href="#flag-with-arrow"></use><text data-role="label" x="18" y="9">$198</text></g><g transform="translate(302.4,378.7) scale(1)" class="ticket-marker flag-with-arrow" data-ticket="C314~6" data-mrkgrp="default" data-match="1"><use href="#flag-with-arrow-medium" xlink:href="#flag-with-arrow"></use><text data-role="label" x="18" y="9">$207</text></g><g transform="translate(429.7,150.9) scale(1)" class="ticket-marker flag-with-arrow" data-ticket="C138~11" data-mrkgrp="default" data-match="1"><use href="#flag-with-arrow-medium" xlink:href="#flag-with-arrow"></use><text data-role="label" x="18" y="9">$212</text></g><g transform="translate(499.7,216.1) scale(1)" class="ticket-marker flag-with-arrow" data-ticket="147~9" data-mrkgrp="default" data-match="1"><use href="#flag-with-arrow-medium" xlink:href="#flag-with-arrow"></use><text data-role="label" x="18" y="9">$231</text></g><g transform="translate(435.9,96) scale(1)" class="ticket-marker flag-with-arrow" data-ticket="C338~2" data-mrkgrp="default" data-match="1"><use href="#flag-with-arrow-medium" xlink:href="#flag-with-arrow"></use><text data-role="label" x="18" y="9">$232</text></g><g transform="translate(414.7,390.2) scale(1)" class="ticket-marker flag-with-arrow" data-ticket="C309~10" data-mrkgrp="default" data-match="1"><use href="#flag-with-arrow-medium" xlink:href="#flag-with-arrow"></use><text data-role="label" x="18" y="9">$232</text></g><g transform="translate(387.6,134.3) scale(1)" class="ticket-marker flag-with-arrow" data-ticket="C136~21" data-mrkgrp="default" data-match="1"><use href="#flag-with-arrow-medium" xlink:href="#flag-with-arrow"></use><text data-role="label" x="18" y="9">$240</text></g><g transform="translate(326.6,139.2) scale(1)" class="ticket-marker flag-with-arrow" data-ticket="C133~19" data-mrkgrp="default" data-match="1"><use href="#flag-with-arrow-medium" xlink:href="#flag-with-arrow"></use><text data-role="label" x="18" y="9">$277</text></g><g transform="translate(461.7,351.7) scale(1)" class="ticket-marker flag-with-arrow" data-ticket="C206~7" data-mrkgrp="default" data-match="1"><use href="#flag-with-arrow-medium" xlink:href="#flag-with-arrow"></use><text data-role="label" x="18" y="9">$324</text></g><g transform="translate(347.2,320.6) scale(1)" class="ticket-marker flag-with-arrow" data-ticket="C112~12" data-mrkgrp="default" data-match="1"><use href="#flag-with-arrow-medium" xlink:href="#flag-with-arrow"></use><text data-role="label" x="18" y="9">$336</text></g><g transform="translate(409.9,330.9) scale(1)" class="ticket-marker flag-with-arrow" data-ticket="C109~19" data-mrkgrp="default" data-match="1"><use href="#flag-with-arrow-medium" xlink:href="#flag-with-arrow"></use><text data-role="label" x="18" y="9">$380</text></g><g transform="translate(345.1,375.3) scale(1)" class="ticket-marker flag-with-arrow" data-ticket="C312~2" data-mrkgrp="default" data-match="1"><use href="#flag-with-arrow-medium" xlink:href="#flag-with-arrow"></use><text data-role="label" x="18" y="9">$384</text></g><g transform="translate(366.9,66.2) scale(1)" class="ticket-marker flag-with-arrow" data-ticket="C335~16" data-mrkgrp="default" data-match="1"><use href="#flag-with-arrow-medium" xlink:href="#flag-with-arrow"></use><text data-role="label" x="18" y="9">$564</text></g><g transform="translate(318.8,84) scale(1)" class="ticket-marker flag-with-arrow" data-ticket="C333~8" data-mrkgrp="default" data-match="1"><use href="#flag-with-arrow" xlink:href="#flag-with-arrow"></use><text data-role="label" x="20" y="9">$1003</text></g><g transform="translate(630,279) scale(1)" class="ticket-marker flag-with-arrow" data-ticket="silver_suites~25tic" data-mrkgrp="default" data-match="1"><use href="#flag-with-arrow" xlink:href="#flag-with-arrow"></use><text data-role="label" x="20" y="9">$11967</text></g></g>undefined</g><circle id="svgZoomCenterLoad" r="1" stroke-width="0" fill-opacity="0" cx="397" cy="259.5"></circle></g></g></svg>