<svg xmlns="http://www.w3.org/2000/svg" xmlns:xlink="http://www.w3.org/1999/xlink" id="svgmap" width="100%" height="100%" style="touch-action: none;" viewBox="68.1 -30.0 666.1 568.0"><style>
polygon[id^="spoly_"] { fill: #d0d8e4; stroke: #7a8fa6; stroke-width: 2; }
polygon[id^="spoly_"]:hover { fill: #5b8ccc; cursor: pointer; }
.svgText { font-family: Arial, sans-serif; fill: #333; font-size: 9px; }
</style>
         <g id="svgdefs"><defs id="svgdefstyle">
      <linearGradient id="ticketGradient" x1="0%" y1="0%" x2="100%" y2="0%"><stop offset="0%" stop-color="#840ac9"></stop><stop offset="30%" stop-color="#d60eb2"></stop><stop offset="50%" stop-color="#fa0b81"></stop><stop offset="100%" stop-color="#fa0b81"></stop></linearGradient>
      <radialGradient id="markerGradient" cx="50%" cy="50%" r="50%"><stop offset="0%" stop-color="#fa0b81"></stop><stop offset="95%" stop-color="#d60eb2"></stop><stop offset="100%" stop-color="#840ac9"></stop></radialGradient>
      <linearGradient id="flagGradient" x1="0%" y1="0%" x2="100%" y2="100%">
         <stop offset="0%" stop-color="#840ac9"></stop>
         <stop offset="40%" stop-color="#d60eb2"></stop>
         <stop offset="80%" stop-color="#fa0b81"></stop>
         <stop offset="100%" stop-color="#c40665"></stop> 
      </linearGradient>      
      <linearGradient id="svgmapticket" x1="0%" y1="0%" x2="0%" y2="100%"><stop offset="0%" style="stop-color:#5BADFF;stop-opacity:1"></stop><stop offset="100%" style="stop-color:#0066CC;stop-opacity:1"></stop></linearGradient><linearGradient id="svgdealticket" x1="0%" y1="0%" x2="0%" y2="100%"> <stop offset="0%" style="stop-color:#66FF00;stop-opacity:1"></stop><stop offset="100%" style="stop-color:#61C100;stop-opacity:1"></stop></linearGradient><linearGradient id="svggreatticket" x1="0%" y1="0%" x2="0%" y2="100%"><stop offset="0%" style="stop-color:#00CC33;stop-opacity:1"></stop><stop offset="100%" style="stop-color:#009100;stop-opacity:1"></stop></linearGradient><filter id="coinShadow" x="-40%" y="-40%" width="200%" height="200%">            <feGaussianBlur in="SourceAlpha" stdDeviation="3"></feGaussianBlur><feOffset dx="2" dy="2" result="offsetblur"></feOffset><feMerge><feMergeNode></feMergeNode><feMergeNode in="SourceGraphic"></feMergeNode></feMerge></filter><path id="flag-with-arrow" d="M 9.33,0 L 32,0 A 8,8 0 0 1 32,16 L 25.33,16 L 20,20.67 L 14.67,16 L 8,16 A 8,8 0 0 1 8,0 Z"></path><path id="flag-with-arrow-medium" d="M 8,0 L 28,0 A 8,8 0 0 1 28,16 L 23.33,16 L 18,20.67 L 12.67,16 L 8,16 A 8,8 0 0 1 8,0 Z"></path><path id="flag-with-arrow-small" d="M 8,0 L 24,0 A 8,8 0 0 1 24,16 L 20,16 L 16,20.67 L 12,16 L 8,16 A 8,8 0 0 1 8,0 Z"></path></defs>  </g>
         <g class="testmask" mask="url(#fade)" style="scale: 0.95; transform-origin:center;">
         <g id="viewport" transform="matrix(1,0,0,1,0,0)" data-zoomfactor="100"><g id="scaleSVG" data-scale="1" transform="scale(1)" class="testrotate"><g id="svgelements"><image id="svgOverlay" class="nopointereventsmap" xlink:href="/assets/images/venues/overlays/ford-field-nfl_7-2018.png" x="-93.7" y="-98.3" width="978.2px" height="694.8px"></image><g id="svgpolygroup"><polygon id="spoly_100" data-role="section" data-sectionid="100" data-angle="306.8" points="194.1,402.3 214.2,426.1 221.7,427.9 255.2,362.8 251.9,359.3 238.1,371.4 233.8,366.3 194.1,402.3 194.1,402.3 "></polygon><polygon id="spoly_101" data-role="section" data-sectionid="101" data-angle="291.5" points="256.9,362.6 256.9,362.6 223.2,428.4 242.8,432.9 252.9,434.9 263,436.2 273.5,348.7 265.5,347.7 253.1,358.3 256.9,362.6 256.9,362.6 256.9,362.6 "></polygon><polygon id="spoly_102" data-role="section" data-sectionid="102" data-angle="291.8" points="264.5,436.5 274.3,437 291.4,437 301.7,352.8 275,349 264.5,436.5 264.5,436.5 "></polygon><polygon id="spoly_103" data-role="section" data-sectionid="103" data-angle="247.8" points="292.9,437 320,437 330.1,356.8 303.2,353 292.9,437 "></polygon><polygon id="spoly_104" data-role="section" data-sectionid="104" data-angle="261.8" points="321.5,437 350.2,437 354.9,360.3 354.2,360.3 331.6,357 321.5,437 "></polygon><polygon id="spoly_105" data-role="section" data-sectionid="105" data-angle="270" points="351.7,437 380.3,437 380.3,360.3 368.5,360.3 368.5,370.8 361.7,370.8 361.7,360.3 356.5,360.3 351.7,437 "></polygon><polygon id="spoly_106" data-role="section" data-sectionid="106" data-angle="270" points="381.8,437 409.2,437 409.2,360.3 399.2,360.3 391.1,360.3 381.8,360.3 381.8,437 "></polygon><polygon id="spoly_107" data-role="section" data-sectionid="107" data-angle="270" points="410.7,437 439.4,437 434.4,360.3 410.7,360.3 410.7,437 "></polygon><polygon id="spoly_108" data-role="section" data-sectionid="108" data-angle="253" points="440.9,437 469.6,437 459.5,357 436.1,360.3 435.9,360.3 440.9,437 "></polygon><polygon id="spoly_109" data-role="section" data-sectionid="109" data-angle="262.1" points="471.1,437 498.2,437 487.7,353 461,356.8 471.1,437 "></polygon><polygon id="spoly_110" data-role="section" data-sectionid="110" data-angle="262.7" points="499.7,437 517.1,437 526.6,436.5 516.1,349 489.2,352.8 499.7,437 499.7,437 "></polygon><polygon id="spoly_111" data-role="section" data-sectionid="111" data-angle="247.2" points="528.1,436.5 538.2,434.9 548.2,433.2 568.1,428.9 526.6,347.5 517.6,348.7 528.1,436.5 528.1,436.5 "></polygon><polygon id="spoly_112" data-role="section" data-sectionid="112" data-angle="219" points="528.4,347.2 528.1,347.2 569.6,428.4 575.1,427.4 596.5,401.8 531.9,343.5 528.4,347.2 528.4,347.2 "></polygon><polygon id="spoly_113" data-role="section" data-sectionid="113" data-angle="251.7" points="532.9,342.2 597.5,400.8 607.5,388.7 607.5,362.8 538.2,335.7 532.9,342.2 "></polygon><polygon id="spoly_114" data-role="section" data-sectionid="114" data-angle="219.2" points="607.5,361 607.5,324.9 538.2,324.9 538.2,334.2 607.5,361 "></polygon><polygon id="spoly_115" data-role="section" data-sectionid="115" data-angle="180" points="607.5,323.3 607.5,295.4 538.2,295.4 538.2,323.3 607.5,323.3 "></polygon><polygon id="spoly_116" data-role="section" data-sectionid="116" data-angle="180" points="607.5,293.9 607.5,265.3 538.2,265.3 538.2,293.9 607.5,293.9 "></polygon><polygon id="spoly_117" data-role="section" data-sectionid="117" data-angle="180" points="607.5,263.8 607.5,235.1 538.2,235.1 538.2,263.8 607.5,263.8 "></polygon><polygon id="spoly_118" data-role="section" data-sectionid="118" data-angle="180" points="607.5,233.6 607.5,205.7 538.2,205.7 538.2,233.6 607.5,233.6 "></polygon><polygon id="spoly_119" data-role="section" data-sectionid="119" data-angle="146.1" points="607.5,204.2 607.5,167.7 538.2,195.1 538.2,204.2 607.5,204.2 "></polygon><polygon id="spoly_120" data-role="section" data-sectionid="120" data-angle="136.5" points="607.3,166.2 585.7,139.8 533.1,186.8 538.2,192.6 538.2,193.4 607.3,166.2 "></polygon><polygon id="spoly_121" data-role="section" data-sectionid="121" data-angle="156.8" points="584.7,138.8 563.8,113.4 528.9,181.8 532.1,185.6 584.7,138.8 "></polygon><polygon id="spoly_122" data-role="section" data-sectionid="122" data-angle="108.5" points="543,113.3 527.7,109.5 518.1,179.3 527.6,180.6 527.9,180.6 559.3,118 "></polygon><polygon id="spoly_123" data-role="section" data-sectionid="123" data-angle="97.2" points="525.2,108.5 499,106.4 490.2,175.5 516.6,179.1 "></polygon><polygon id="spoly_124" data-role="section" data-sectionid="124" data-angle="96.3" points="497.2,105.8 470.4,104.1 461.8,171.8 488.7,175.3 "></polygon><polygon id="spoly_125" data-role="section" data-sectionid="125" data-angle="110.2" points="468.2,104.1 440.8,102.1 436.6,168.5 460.3,171.8 "></polygon><polygon id="spoly_126" data-role="section" data-sectionid="126" data-angle="90" points="439.1,97.3 410.7,97.3 410.7,168.5 435.1,168.5 439.1,97.3 "></polygon><polygon id="spoly_127" data-role="section" data-sectionid="127" data-angle="90" points="409.2,97.3 399.2,97.3 391.1,97.3 382.3,97.3 382.3,168.5 391.1,168.5 399.2,168.5 409.2,168.5 409.2,97.3 "></polygon><polygon id="spoly_128" data-role="section" data-sectionid="128" data-angle="90" points="356.5,168.5 380.8,168.5 380.8,97.3 352.4,97.3 356.5,168.5 "></polygon><polygon id="spoly_129" data-role="section" data-sectionid="129" data-angle="96.2" points="354.9,168.5 354.9,168.5 350.6,98.3 322.6,100.4 331.3,171.5 354.9,168.5 354.9,168.5 "></polygon><polygon id="spoly_130" data-role="section" data-sectionid="130" data-angle="114.5" points="294.8,103.3 303.2,175.3 330.1,171.8 320.5,100.4 "></polygon><polygon id="spoly_131" data-role="section" data-sectionid="131" data-angle="70.7" points="292.7,103.5 267.1,106.2 275.3,178.8 301.7,175.5 "></polygon><polygon id="spoly_132" data-role="section" data-sectionid="132" data-angle="67.9" points="264.9,106.4 247,111.3 234.4,118.5 264,180.3 273.8,179.1 "></polygon><polygon id="spoly_133" data-role="section" data-sectionid="133" data-angle="50.7" points="227.3,112.4 206.4,138.1 258.9,184.8 262.4,180.8 227.3,112.4 "></polygon><polygon id="spoly_134" data-role="section" data-sectionid="134" data-angle="28.7" points="205.4,139.1 183.5,165.7 252.1,192.6 252.1,192.6 257.9,186.1 205.4,139.1 "></polygon><polygon id="spoly_135" data-role="section" data-sectionid="135" data-angle="7.7" points="183,167.2 183,203.9 252.1,203.9 252.1,194.4 183,167.2 "></polygon><polygon id="spoly_136" data-role="section" data-sectionid="136" data-angle="360" points="183,205.4 183,233.4 252.1,233.4 252.1,205.4 183,205.4 "></polygon><polygon id="spoly_137" data-role="section" data-sectionid="137" data-angle="360" points="183,234.9 183,263.5 252.1,263.5 252.1,234.9 183,234.9 "></polygon><polygon id="spoly_138" data-role="section" data-sectionid="138" data-angle="360" points="183,265 183,293.7 252.1,293.7 252.1,265 183,265 "></polygon><polygon id="spoly_139" data-role="section" data-sectionid="139" data-angle="360" points="183,295.2 183,323.1 252.1,323.1 252.1,295.2 183,295.2 "></polygon><polygon id="spoly_140" data-role="section" data-sectionid="140" data-angle="352" points="242.1,345 252.4,335.9 252.1,335.4 252.1,324.6 183,324.6 183,361.5 237.8,339.9 242.1,345 "></polygon><polygon id="spoly_141" data-role="section" data-sectionid="141" data-angle="326.2" points="183,388.7 193.1,401 232.8,365.3 226.8,358.3 240.8,346 237.3,341.9 183,363.1 183,388.7 "></polygon><polygon id="spoly_200" data-role="section" data-sectionid="200" data-angle="291.6" points="215.7,441.9 203.1,468.8 213.2,479.1 227.3,483.1 237.6,451.7 215.7,441.9 "></polygon><polygon id="spoly_201" data-role="section" data-sectionid="201" data-angle="277.7" points="228.8,483.1 248.6,483.1 248.6,452 239.1,452 228.8,483.1 "></polygon><polygon id="spoly_202" data-role="section" data-sectionid="202" data-angle="270" points="250.1,483.1 273.8,483.1 273.8,452 250.1,452 250.1,483.1 "></polygon><polygon id="spoly_203" data-role="section" data-sectionid="203" data-angle="270" points="275.3,483.1 298.6,483.1 298.6,452 275.3,452 275.3,483.1 "></polygon><polygon id="spoly_204" data-role="section" data-sectionid="204" data-angle="270" points="300.2,483.1 323.3,483.1 323.3,452 300.2,452 300.2,483.1 "></polygon><polygon id="spoly_205" data-role="section" data-sectionid="205" data-angle="270" points="324.8,483.1 348.4,483.1 348.4,452 324.8,452 324.8,483.1 "></polygon><polygon id="spoly_206" data-role="section" data-sectionid="206" data-angle="270" points="349.9,483.1 377.1,483.1 377.1,452 349.9,452 349.9,483.1 "></polygon><polygon id="spoly_207" data-role="section" data-sectionid="207" data-angle="270" points="378.6,483.1 391.1,483.1 399.2,483.1 403.5,483.1 403.5,452 378.6,452 378.6,483.1 "></polygon><polygon id="spoly_208" data-role="section" data-sectionid="208" data-angle="270" points="405,483.1 432.6,483.1 432.6,452 405,452 405,483.1 "></polygon><polygon id="spoly_209" data-role="section" data-sectionid="209" data-angle="270" points="434.1,483.1 457.7,483.1 457.7,452 434.1,452 434.1,483.1 "></polygon><polygon id="spoly_210" data-role="section" data-sectionid="210" data-angle="270" points="459.3,483.1 485.4,483.1 485.4,452 459.3,452 459.3,483.1 "></polygon><polygon id="spoly_211" data-role="section" data-sectionid="211" data-angle="270" points="486.9,483.1 515,483.1 515,452 486.9,452 486.9,483.1 "></polygon><polygon id="spoly_212" data-role="section" data-sectionid="212" data-angle="270" points="516.6,483.1 538.9,483.1 538.9,452 517.1,452 516.6,452 516.6,483.1 "></polygon><polygon id="spoly_213" data-role="section" data-sectionid="213" data-angle="254.3" points="540.4,483.1 562.3,483.1 565.3,482.4 550.2,452 540.4,452 540.4,483.1 "></polygon><polygon id="spoly_214" data-role="section" data-sectionid="214" data-angle="190.3" points="566.8,481.9 577.1,479.1 587.2,468.8 573.6,442.7 551.7,451.5 566.8,481.9 "></polygon><polygon id="spoly_215" data-role="section" data-sectionid="215" data-angle="360" points="609.3,350.5 609.3,386.7 627.1,386.7 627.1,350.5 609.3,350.5 "></polygon><polygon id="spoly_216" data-role="section" data-sectionid="216" data-angle="360" points="609.3,317.1 609.3,349 627.1,349 627.1,317.1 609.3,317.1 "></polygon><polygon id="spoly_217" data-role="section" data-sectionid="217" data-angle="360" points="609.3,283.4 609.3,315.6 627.1,315.6 627.1,283.4 609.3,283.4 "></polygon><polygon id="spoly_218" data-role="section" data-sectionid="218" data-angle="360" points="609.3,249.9 609.3,281.9 627.1,281.9 627.1,249.9 609.3,249.9 "></polygon><polygon id="spoly_219" data-role="section" data-sectionid="219" data-angle="360" points="609.3,216.3 609.3,248.4 627.1,248.4 627.1,216.3 609.3,216.3 "></polygon><polygon id="spoly_220" data-role="section" data-sectionid="220" data-angle="360" points="609.3,182.8 609.3,214.8 627.1,214.8 627.1,182.8 609.3,182.8 "></polygon><polygon id="spoly_221" data-role="section" data-sectionid="221" data-angle="360" points="608.5,164.7 609.3,165.7 609.3,181.3 627.1,181.3 627.1,158.2 626.9,157.7 608.5,164.7 "></polygon><polygon id="spoly_222" data-role="section" data-sectionid="222" data-angle="25.9" points="594,147.1 607.5,163.7 625.9,156.7 608.3,134.8 594,147.1 "></polygon><polygon id="spoly_223" data-role="section" data-sectionid="223" data-angle="11.3" points="573.1,121.7 593,146.1 607.3,133.8 587.4,109.4 573.1,121.7 "></polygon><polygon id="spoly_224" data-role="section" data-sectionid="224" data-angle="173.8" points="552.5,96.6 572.1,120.5 586.4,108.2 567.1,84.3 552.5,96.6 "></polygon><polygon id="spoly_225" data-role="section" data-sectionid="225" data-angle="112.8" points="547,95.3 551.5,95.3 551.5,95.6 566.1,83 560,75.7 547,75.7 547,95.3 "></polygon><polygon id="spoly_226" data-role="section" data-sectionid="226" data-angle="90" points="515.3,95.3 545.5,95.3 545.5,75.7 515.3,75.7 515.3,95.3 "></polygon><polygon id="spoly_227" data-role="section" data-sectionid="227" data-angle="90" points="483.6,95.3 513.8,95.3 513.8,75.7 483.6,75.7 483.6,95.3 "></polygon><polygon id="spoly_228" data-role="section" data-sectionid="228" data-angle="90" points="451.5,95.3 482.1,95.3 482.1,75.7 451.5,75.7 451.5,95.3 "></polygon><polygon id="spoly_229" data-role="section" data-sectionid="229" data-angle="90" points="419.5,95.3 450,95.3 450,75.7 419.5,75.7 419.5,95.3 "></polygon><polygon id="spoly_230" data-role="section" data-sectionid="230" data-angle="90" points="396.4,95.3 399.2,95.3 418,95.3 418,75.7 399.2,75.7 396.4,75.7 396.4,95.3 "></polygon><polygon id="spoly_231" data-role="section" data-sectionid="231" data-angle="90" points="373,95.3 391.1,95.3 394.9,95.3 394.9,75.7 391.1,75.7 373,75.7 373,95.3 "></polygon><polygon id="spoly_232" data-role="section" data-sectionid="232" data-angle="90" points="340.9,95.3 371.5,95.3 371.5,75.7 340.9,75.7 340.9,95.3 "></polygon><polygon id="spoly_233" data-role="section" data-sectionid="233" data-angle="90" points="308.9,95.3 339.4,95.3 339.4,75.7 308.9,75.7 308.9,95.3 "></polygon><polygon id="spoly_234" data-role="section" data-sectionid="234" data-angle="90" points="277.3,95.3 307.4,95.3 307.4,75.7 277.3,75.7 277.3,95.3 "></polygon><polygon id="spoly_235" data-role="section" data-sectionid="235" data-angle="90" points="245.6,95.3 275.8,95.3 275.8,75.7 245.6,75.7 245.6,95.3 "></polygon><polygon id="spoly_236" data-role="section" data-sectionid="236" data-angle="58.8" points="239.3,95.3 244.1,95.3 244.1,75.7 230.3,75.7 224.5,82.8 239.3,95.3 "></polygon><polygon id="spoly_237" data-role="section" data-sectionid="237" data-angle="33.9" points="218.5,120 238.1,96.3 223.7,83.8 204.1,107.7 218.5,120 "></polygon><polygon id="spoly_238" data-role="section" data-sectionid="238" data-angle="27.9" points="197.6,145.6 217.7,121.2 203.4,108.9 183.3,133.3 197.6,145.6 "></polygon><polygon id="spoly_239" data-role="section" data-sectionid="239" data-angle="15.7" points="183,163.2 196.6,146.9 182.3,134.6 164.7,156.2 183,163.2 "></polygon><polygon id="spoly_240" data-role="section" data-sectionid="240" data-angle="360" points="181,181.1 181,165.7 182,164.5 163.7,157.4 163.2,158.2 163.2,181.1 181,181.1 "></polygon><polygon id="spoly_241" data-role="section" data-sectionid="241" data-angle="360" points="181,214.5 181,182.6 163.2,182.6 163.2,214.5 181,214.5 "></polygon><polygon id="spoly_242" data-role="section" data-sectionid="242" data-angle="360" points="181,248.2 181,216 163.2,216 163.2,248.2 181,248.2 "></polygon><polygon id="spoly_243" data-role="section" data-sectionid="243" data-angle="360" points="181,281.6 181,249.7 163.2,249.7 163.2,281.6 181,281.6 "></polygon><polygon id="spoly_244" data-role="section" data-sectionid="244" data-angle="360" points="181,315.3 181,283.1 163.2,283.1 163.2,315.3 181,315.3 "></polygon><polygon id="spoly_245" data-role="section" data-sectionid="245" data-angle="360" points="181,348.7 181,316.8 163.2,316.8 163.2,348.7 181,348.7 "></polygon><polygon id="spoly_246" data-role="section" data-sectionid="246" data-angle="360" points="163.2,386.7 181,386.7 181,350.2 163.2,350.2 163.2,386.7 "></polygon><polygon id="spoly_315" data-role="section" data-sectionid="315" data-angle="360" points="630.9,352 630.9,386.7 671.4,386.7 671.4,343.2 640.2,343.2 640.2,352 630.9,352 "></polygon><polygon id="spoly_316" data-role="section" data-sectionid="316" data-angle="360" points="630.9,318.8 630.9,341.7 671.4,341.7 671.4,310 640.2,310 640.2,318.8 630.9,318.8 "></polygon><polygon id="spoly_317" data-role="section" data-sectionid="317" data-angle="360" points="630.9,284.9 630.9,308.5 671.4,308.5 671.4,276.1 640.2,276.1 640.2,284.9 630.9,284.9 "></polygon><polygon id="spoly_318" data-role="section" data-sectionid="318" data-angle="360" points="630.9,251.7 630.9,274.6 671.4,274.6 671.4,242.9 640.2,242.9 640.2,251.7 630.9,251.7 "></polygon><polygon id="spoly_319" data-role="section" data-sectionid="319" data-angle="360" points="630.9,217.8 630.9,241.4 671.4,241.4 671.4,208.7 640.2,208.7 640.2,217.8 630.9,217.8 "></polygon><polygon id="spoly_320" data-role="section" data-sectionid="320" data-angle="360" points="630.9,184.1 630.9,207.2 671.4,207.2 671.4,175.3 640.2,175.3 640.2,184.1 630.9,184.1 "></polygon><polygon id="spoly_321" data-role="section" data-sectionid="321" data-angle="360" points="630.9,157.4 630.9,173.8 671.4,173.8 671.4,141.6 630.9,157.4 "></polygon><polygon id="spoly_322" data-role="section" data-sectionid="322" data-angle="40.9" points="615.6,137.8 627.1,152.2 634.4,145.6 640.2,152.2 670.9,140.1 647,110.7 615.6,137.8 "></polygon><polygon id="spoly_323" data-role="section" data-sectionid="323" data-angle="31.1" points="595,112.4 609.1,129.8 616.3,123.5 622.1,130 646,109.4 626.4,85.3 595,112.4 "></polygon><polygon id="spoly_324" data-role="section" data-sectionid="324" data-angle="14.1" points="573.1,86 588.4,104.4 595.7,98.1 601.5,104.9 625.4,84 604.5,58.6 573.1,86 "></polygon><polygon id="spoly_325" data-role="section" data-sectionid="325" data-angle="87.6" points="562.1,72.2 566.6,78 574.1,71.4 579.9,78.2 603.8,57.6 580.4,28.9 562.1,72.2 "></polygon><polygon id="spoly_326" data-role="section" data-sectionid="326" data-angle="90" points="549.5,71.9 560.5,71.9 579.1,28.2 551.7,28.2 551.7,32.7 540.7,32.7 540.7,61.6 549.5,61.6 549.5,71.9 "></polygon><polygon id="spoly_327" data-role="section" data-sectionid="327" data-angle="90" points="517.1,71.9 539.2,71.9 539.2,32.7 508.3,32.7 508.3,61.6 517.1,61.6 517.1,71.9 "></polygon><polygon id="spoly_328" data-role="section" data-sectionid="328" data-angle="90" points="485.4,71.9 506.8,71.9 506.8,32.7 476.6,32.7 476.6,61.6 485.4,61.6 485.4,71.9 "></polygon><polygon id="spoly_329" data-role="section" data-sectionid="329" data-angle="90" points="453.5,71.9 475.1,71.9 475.1,32.7 444.7,32.7 444.7,61.6 453.5,61.6 453.5,71.9 "></polygon><polygon id="spoly_330" data-role="section" data-sectionid="330" data-angle="90" points="421.3,71.9 443.2,71.9 443.2,32.7 412.5,32.7 412.5,61.6 421.3,61.6 421.3,71.9 "></polygon><polygon id="spoly_331" data-role="section" data-sectionid="331" data-angle="90" points="380.3,71.9 391.1,71.9 399.2,71.9 411,71.9 411,32.7 399.2,32.7 391.1,32.7 380.3,32.7 380.3,71.9 "></polygon><polygon id="spoly_332" data-role="section" data-sectionid="332" data-angle="90" points="348.2,71.9 370,71.9 370,62.1 378.8,62.1 378.8,32.7 348.2,32.7 348.2,71.9 "></polygon><polygon id="spoly_333" data-role="section" data-sectionid="333" data-angle="90" points="316.2,71.9 337.9,71.9 337.9,62.1 346.6,62.1 346.6,32.7 316.2,32.7 316.2,71.9 "></polygon><polygon id="spoly_334" data-role="section" data-sectionid="334" data-angle="90" points="284.6,71.9 305.9,71.9 305.9,62.1 314.7,62.1 314.7,32.7 284.6,32.7 284.6,71.9 "></polygon><polygon id="spoly_335" data-role="section" data-sectionid="335" data-angle="90" points="252.1,71.9 274.3,71.9 274.3,62.1 283.1,62.1 283.1,32.7 252.1,32.7 252.1,71.9 "></polygon><polygon id="spoly_336" data-role="section" data-sectionid="336" data-angle="69.2" points="230.3,71.9 241.8,71.9 241.8,62.1 250.6,62.1 250.6,32.7 224.5,32.7 224.5,28.2 210.9,28.2 230.3,71.9 "></polygon><polygon id="spoly_337" data-role="section" data-sectionid="337" data-angle="42.9" points="223.7,77.7 228.5,71.9 228.8,71.9 209.7,29.2 186.8,57.4 210.7,78.2 216.5,71.4 223.7,77.7 "></polygon><polygon id="spoly_338" data-role="section" data-sectionid="338" data-angle="23.7" points="202.1,104.4 217.2,85.8 185.8,58.6 165.2,84 189.1,104.9 194.8,98.1 202.1,104.4 "></polygon><polygon id="spoly_339" data-role="section" data-sectionid="339" data-angle="15.8" points="181.5,129.8 195.6,112.4 164.2,85.3 144.3,109.4 168.4,130.3 174.2,123.5 181.5,129.8 "></polygon><polygon id="spoly_340" data-role="section" data-sectionid="340" data-angle="141.4" points="163.4,151.9 175,137.8 143.6,110.4 119.4,140.1 150.3,152.4 156.1,145.6 163.4,151.9 "></polygon><polygon id="spoly_341" data-role="section" data-sectionid="341" data-angle="180" points="159.4,173.5 159.4,157.4 118.9,141.6 118.9,173.5 159.4,173.5 "></polygon><polygon id="spoly_342" data-role="section" data-sectionid="342" data-angle="180" points="159.4,207.2 159.4,184.1 150.9,184.1 150.9,175 118.9,175 118.9,207.2 159.4,207.2 "></polygon><polygon id="spoly_343" data-role="section" data-sectionid="343" data-angle="180" points="159.4,241.1 159.4,217.5 150.9,217.5 150.9,208.7 118.9,208.7 118.9,241.1 159.4,241.1 "></polygon><polygon id="spoly_344" data-role="section" data-sectionid="344" data-angle="180" points="159.4,274.3 159.4,251.5 150.9,251.5 150.9,242.7 118.9,242.7 118.9,274.3 159.4,274.3 "></polygon><polygon id="spoly_345" data-role="section" data-sectionid="345" data-angle="180" points="159.4,308.3 159.4,284.6 150.9,284.6 150.9,275.8 118.9,275.8 118.9,308.3 159.4,308.3 "></polygon><polygon id="spoly_346" data-role="section" data-sectionid="346" data-angle="180" points="159.4,341.4 159.4,318.6 150.9,318.6 150.9,309.8 118.9,309.8 118.9,341.4 159.4,341.4 "></polygon><polygon id="spoly_347" data-role="section" data-sectionid="347" data-angle="180" points="118.9,386.7 159.4,386.7 159.4,351.7 150.9,351.7 150.9,342.9 118.9,342.9 118.9,386.7 "></polygon><polygon id="spoly_SRO" data-role="section" data-sectionid="SRO" data-angle="176.1" points="553.1,434.1 553.1,447.9 572.4,439.4 612.9,391.8 608,389.9 576.4,429.2 576.4,429.2 "></polygon><polygon id="spoly_North_Suites" data-role="section" data-sectionid="North_Suites" data-angle="180" points="228.5,29.2 547.7,29.2 547.7,17.2 228.5,17.2 228.5,29.2 "></polygon><polygon id="spoly_South_Suites" data-role="section" data-sectionid="South_Suites" data-angle="180" points="587.4,485.9 587.4,508 202.7,508 202.7,485.9 202.7,485.9 202.7,485.9 202.7,485.9 202.7,485.9 202.7,485.9 202.7,485.9 202.7,485.9 202.7,485.9 202.7,485.9 202.7,485.9 202.7,485.9 202.7,485.9 "></polygon><polygon id="spoly_Club_Level_Suites" data-role="section" data-sectionid="Club_Level_Suites" data-angle="180" points="549.7,448.8 238.8,448.8 238.8,439 549.7,439 549.7,439 549.7,439 "></polygon><polygon id="spoly_sro_122-125" data-role="section" data-sectionid="sro_122-125" data-angle="180" points="440.8,97.7 440.9,101.1 468.4,102.6 497.1,104.6 527.9,107.2 560.1,116.2 562.3,111.5 549.6,96.9 "></polygon><polygon id="spoly_sro_129-132" data-role="section" data-sectionid="sro_129-132" data-angle="180" points="350.9,96.1 309.7,96 239.7,96.1 228.5,109.6 233.7,117.3 247.2,109.9 264.4,104.9 292.5,102.1 320.3,99.2 350,97.5 "></polygon><polygon class="is-d epoly_field_level_seats" data-role="dynamic" points="253.1,217.5 258,217.5 258,320.1 253.1,320.1 " style="fill:#F4F4F4; stroke:#BEBEBE; stroke-width:1; fill-opacity:1.0;"></polygon><polygon class="is-d epoly_bench_visitor" data-role="dynamic" points="339.3,183.2 339.3,196.7 451,196.7 451,183.2 451,183.2 451,183.2 " style="fill:#DDD; stroke:#DDD; stroke-width:0; fill-opacity:1.0;"></polygon><polygon class="is-d epoly_video_sw" data-role="dynamic" points="98.1,188.1 98.1,293.1 115.9,293.1 115.9,188.1 115.9,188.1 115.9,188.1 " style="fill:#F4F4F4; stroke:#BEBEBE; stroke-width:1; fill-opacity:1.0;"></polygon><polygon class="is-d epoly_gate_e" data-role="dynamic" points="545.9,0 581.5,0 " style="fill:#; stroke:#; stroke-width:0; fill-opacity:0.0;"></polygon><polygon class="is-d epoly_gate_f" data-role="dynamic" points="673.5,112.9 704.2,112.9 " style="fill:#; stroke:#; stroke-width:0; fill-opacity:0.0;"></polygon><polygon class="is-d epoly_gate_a" data-role="dynamic" points="120.5,459.8 154.8,459.8 " style="fill:#; stroke:#; stroke-width:0; fill-opacity:0.0;"></polygon><polygon class="is-d epoly_gate_b" data-role="dynamic" points="114.3,72.4 151.2,72.4 " style="fill:#; stroke:#; stroke-width:0; fill-opacity:0.0;"></polygon><polygon class="is-d epoly_gate_c" data-role="dynamic" points="163.4,16.6 194.7,16.6 " style="fill:#; stroke:#; stroke-width:0; fill-opacity:0.0;"></polygon><polygon class="is-d epoly_gate_d" data-role="dynamic" points="281.3,3.1 311.4,3.1 " style="fill:#; stroke:#; stroke-width:0; fill-opacity:0.0;"></polygon><polygon class="is-d epoly_gate_g" data-role="dynamic" points="627.5,428.5 666.2,428.5 " style="fill:#; stroke:#; stroke-width:0; fill-opacity:0.0;"></polygon><polygon class="is-d epoly_video_ne" data-role="dynamic" points="673.8,237.9 673.8,342.2 692.3,342.2 692.3,237.9 692.3,237.9 692.3,237.9 " style="fill:#F4F4F4; stroke:#BEBEBE; stroke-width:1; fill-opacity:1.0;"></polygon><polygon class="is-d epoly_bench_home" data-role="dynamic" points="339.9,328.7 339.9,342.3 449.8,342.3 449.8,328.7 449.8,328.7 449.8,328.7 " style="fill:#000; stroke:#000; stroke-width:0; fill-opacity:1.0;"></polygon></g><circle id="mctrmrk" cx="394.5" cy="259.3" r="1" stroke-width="0" stroke="#FFF" opacity="0"></circle><g id="svgsectionnames" style="opacity:1; font-size:5.766666666666667px;"><text data-sectionid="100" data-role="section" x="227.1" y="391">100</text><text data-sectionid="101" data-role="section" x="253.6" y="402.3">101</text><text data-sectionid="102" data-role="section" x="283.1" y="406.7">102</text><text data-sectionid="103" data-role="section" x="310.5" y="409.8">103</text><text data-sectionid="104" data-role="section" x="339.5" y="410.2">104</text><text data-sectionid="105" data-role="section" x="367.2" y="410.2">105</text><text data-sectionid="106" data-role="section" x="396.5" y="410.8">106</text><text data-sectionid="107" data-role="section" x="424.5" y="410.2">107</text><text data-sectionid="108" data-role="section" x="453.3" y="408.7">108</text><text data-sectionid="109" data-role="section" x="482.1" y="407.4">109</text><text data-sectionid="110" data-role="section" x="510.3" y="405.8">110</text><text data-sectionid="111" data-role="section" x="537.9" y="401">111</text><text data-sectionid="112" data-role="section" x="561.4" y="388.9">112</text><text data-sectionid="113" data-role="section" x="571.8" y="363.2">113</text><text data-sectionid="114" data-role="section" x="572.6" y="336.5">114</text><text data-sectionid="115" data-role="section" x="572.9" y="311.4">115</text><text data-sectionid="116" data-role="section" x="572.9" y="281.6">116</text><text data-sectionid="117" data-role="section" x="572.9" y="251.4">117</text><text data-sectionid="118" data-role="section" x="572.9" y="221.7">118</text><text data-sectionid="119" data-role="section" x="572.6" y="194.9">119</text><text data-sectionid="120" data-role="section" x="567.8" y="171.1">120</text><text data-sectionid="121" data-role="section" x="554.3" y="153.2">121</text><text data-sectionid="122" data-role="section" x="534.2" y="140.3">122</text><text data-sectionid="123" data-role="section" x="506" y="140.3">123</text><text data-sectionid="124" data-role="section" x="479.3" y="137">124</text><text data-sectionid="125" data-role="section" x="452.6" y="134.5">125</text><text data-sectionid="126" data-role="section" x="423.4" y="127.3">126</text><text data-sectionid="127" data-role="section" x="397.3" y="126.7">127</text><text data-sectionid="128" data-role="section" x="368.8" y="126.3">128</text><text data-sectionid="129" data-role="section" x="339.3" y="129">129</text><text data-sectionid="130" data-role="section" x="309.8" y="132.4">130</text><text data-sectionid="131" data-role="section" x="282.5" y="137.6">131</text><text data-sectionid="132" data-role="section" x="256.4" y="137.9">132</text><text data-sectionid="133" data-role="section" x="236.3" y="151.4">133</text><text data-sectionid="134" data-role="section" x="222.9" y="170.3">134</text><text data-sectionid="135" data-role="section" x="215.1" y="193.6">135</text><text data-sectionid="136" data-role="section" x="213.9" y="220.5">136</text><text data-sectionid="137" data-role="section" x="214.5" y="250.2">137</text><text data-sectionid="138" data-role="section" x="214.5" y="280.3">138</text><text data-sectionid="139" data-role="section" x="214.5" y="309.4">139</text><text data-sectionid="140" data-role="section" x="214" y="337.9">140</text><text data-sectionid="141" data-role="section" x="215" y="366.4">141</text><text data-sectionid="200" data-role="section" x="220.3" y="462.7">200</text><text data-sectionid="201" data-role="section" x="241.8" y="467.5">201</text><text data-sectionid="202" data-role="section" x="261.9" y="468.1">202</text><text data-sectionid="203" data-role="section" x="287" y="468.1">203</text><text data-sectionid="204" data-role="section" x="311.7" y="468.1">204</text><text data-sectionid="205" data-role="section" x="336.6" y="468.1">205</text><text data-sectionid="206" data-role="section" x="363.5" y="468.1">206</text><text data-sectionid="207" data-role="section" x="391" y="468.1">207</text><text data-sectionid="208" data-role="section" x="418.8" y="468.1">208</text><text data-sectionid="209" data-role="section" x="445.9" y="468.1">209</text><text data-sectionid="210" data-role="section" x="472.3" y="468.1">210</text><text data-sectionid="211" data-role="section" x="501" y="468.1">211</text><text data-sectionid="212" data-role="section" x="527.7" y="468.1">212</text><text data-sectionid="213" data-role="section" x="548.6" y="468.1">213</text><text data-sectionid="214" data-role="section" x="569.5" y="462.5">214</text><text data-sectionid="215" data-role="section" x="618.2" y="370.6">215</text><text data-sectionid="216" data-role="section" x="618.2" y="335">216</text><text data-sectionid="217" data-role="section" x="618.2" y="301.5">217</text><text data-sectionid="218" data-role="section" x="618.2" y="267.9">218</text><text data-sectionid="219" data-role="section" x="618.2" y="234.3">219</text><text data-sectionid="220" data-role="section" x="618.2" y="200.8">220</text><text data-sectionid="221" data-role="section" x="617.8" y="173.7">221</text><text data-sectionid="222" data-role="section" x="609.9" y="151.3">222</text><text data-sectionid="223" data-role="section" x="590.2" y="129.8">223</text><text data-sectionid="224" data-role="section" x="569.5" y="104.4">224</text><text data-sectionid="225" data-role="section" x="554.7" y="83.7">225</text><text data-sectionid="226" data-role="section" x="530.4" y="87.5">226</text><text data-sectionid="227" data-role="section" x="498.7" y="87.5">227</text><text data-sectionid="228" data-role="section" x="466.8" y="87.5">228</text><text data-sectionid="229" data-role="section" x="434.7" y="87.5">229</text><text data-sectionid="230" data-role="section" x="407.2" y="87.5">230</text><text data-sectionid="231" data-role="section" x="384" y="87.5">231</text><text data-sectionid="232" data-role="section" x="356.2" y="87.5">232</text><text data-sectionid="233" data-role="section" x="324.2" y="87.5">233</text><text data-sectionid="234" data-role="section" x="292.4" y="87.5">234</text><text data-sectionid="235" data-role="section" x="260.7" y="87.5">235</text><text data-sectionid="236" data-role="section" x="236.8" y="87.3">236</text><text data-sectionid="237" data-role="section" x="221.1" y="103.9">237</text><text data-sectionid="238" data-role="section" x="200.5" y="129.3">238</text><text data-sectionid="239" data-role="section" x="180.6" y="150.9">239</text><text data-sectionid="240" data-role="section" x="172.6" y="172.2">240</text><text data-sectionid="241" data-role="section" x="172.1" y="200.5">241</text><text data-sectionid="242" data-role="section" x="172.1" y="234.1">242</text><text data-sectionid="243" data-role="section" x="172.1" y="267.7">243</text><text data-sectionid="244" data-role="section" x="172.1" y="301.2">244</text><text data-sectionid="245" data-role="section" x="172.1" y="334.8">245</text><text data-sectionid="246" data-role="section" x="172.1" y="370.5">246</text><text data-sectionid="315" data-role="section" x="651.2" y="366.9">315</text><text data-sectionid="316" data-role="section" x="651.2" y="327.9">316</text><text data-sectionid="317" data-role="section" x="651.2" y="294.3">317</text><text data-sectionid="318" data-role="section" x="651.2" y="260.7">318</text><text data-sectionid="319" data-role="section" x="651.2" y="227.1">319</text><text data-sectionid="320" data-role="section" x="651.2" y="193.2">320</text><text data-sectionid="321" data-role="section" x="650.5" y="162.6">321</text><text data-sectionid="322" data-role="section" x="642.6" y="135.4">322</text><text data-sectionid="323" data-role="section" x="620.5" y="109.7">323</text><text data-sectionid="324" data-role="section" x="599.2" y="83.8">324</text><text data-sectionid="325" data-role="section" x="580.5" y="59.4">325</text><text data-sectionid="326" data-role="section" x="555" y="53.8">326</text><text data-sectionid="327" data-role="section" x="523.7" y="54.3">327</text><text data-sectionid="328" data-role="section" x="491.7" y="54.3">328</text><text data-sectionid="329" data-role="section" x="459.9" y="54.3">329</text><text data-sectionid="330" data-role="section" x="427.8" y="54.3">330</text><text data-sectionid="331" data-role="section" x="395.7" y="54.3">331</text><text data-sectionid="332" data-role="section" x="363.5" y="54.3">332</text><text data-sectionid="333" data-role="section" x="331.4" y="54.3">333</text><text data-sectionid="334" data-role="section" x="299.6" y="54.3">334</text><text data-sectionid="335" data-role="section" x="267.6" y="54.3">335</text><text data-sectionid="336" data-role="section" x="236.3" y="53.2">336</text><text data-sectionid="337" data-role="section" x="212.7" y="60.8">337</text><text data-sectionid="338" data-role="section" x="191.2" y="83.8">338</text><text data-sectionid="339" data-role="section" x="171.8" y="110.8">339</text><text data-sectionid="340" data-role="section" x="149" y="136.1">340</text><text data-sectionid="341" data-role="section" x="139.2" y="163.7">341</text><text data-sectionid="342" data-role="section" x="139.2" y="193.1">342</text><text data-sectionid="343" data-role="section" x="139.2" y="226.9">343</text><text data-sectionid="344" data-role="section" x="139.2" y="260.5">344</text><text data-sectionid="345" data-role="section" x="139.2" y="294">345</text><text data-sectionid="346" data-role="section" x="139.2" y="327.6">346</text><text data-sectionid="347" data-role="section" x="139.2" y="366.8">347</text><text data-sectionid="SRO" data-role="section" x="583" y="419.7" transform="rotate(313.561 583 419.7)">Standing Room Only</text><text data-sectionid="North_Suites" data-role="section" x="388.1" y="26.7">North Suites</text><text data-sectionid="South_Suites" data-role="section" x="395.1" y="497.6">Bodman Suites</text><text data-sectionid="Club_Level_Suites" data-role="section" x="396.1" y="447.3">Club Level Suites</text><text data-sectionid="sro_122-125" data-role="section" x="526.7" y="102.8">SRO</text><text data-sectionid="sro_129-132" data-role="section" x="258.3" y="102.9" transform="rotate(355.669 258.3 102.9)">SRO</text><text class="is-d " text-anchor="middle" x="255.6" y="270.8" style="fill:#999; font-size:5.9px; " dominant-baseline="central" data-offset="0|0.3" transform="rotate(268 255.6 270.8)">Field Seats</text><text class="is-d dyn-name-bench bench_visitor" text-anchor="middle" x="395.2" y="192" style="fill:#666; font-size:5.9px; " dominant-baseline="central" data-offset="0|0.3" null="">VISITOR</text><text class="is-d " text-anchor="middle" x="107" y="242.6" style="fill:#999; font-size:5.9px; " dominant-baseline="central" data-offset="0|0.3" transform="rotate(270 107 242.6)">VIDEOBOARD</text><text class="is-d " text-anchor="middle" x="563.7" y="2" style="fill:#999; font-size:5.9px; " dominant-baseline="central" data-offset="0|0.3" null="">GATE E</text><text class="is-d " text-anchor="middle" x="688.9" y="114.9" style="fill:#999; font-size:5.9px; " dominant-baseline="central" data-offset="0|0.3" null="">GATE F</text><text class="is-d " text-anchor="middle" x="137.7" y="461.8" style="fill:#999; font-size:5.9px; " dominant-baseline="central" data-offset="0|0.3" null="">GATE A</text><text class="is-d " text-anchor="middle" x="132.7" y="74.4" style="fill:#999; font-size:5.9px; " dominant-baseline="central" data-offset="0|0.3" null="">GATE B</text><text class="is-d " text-anchor="middle" x="179.1" y="18.6" style="fill:#999; font-size:5.9px; " dominant-baseline="central" data-offset="0|0.3" null="">GATE C</text><text class="is-d " text-anchor="middle" x="296.3" y="5.1" style="fill:#999; font-size:5.9px; " dominant-baseline="central" data-offset="0|0.3" null="">GATE D</text><text class="is-d " text-anchor="middle" x="646.8" y="430.5" style="fill:#999; font-size:5.9px; " dominant-baseline="central" data-offset="0|0.3" null="">GATE G</text><text class="is-d " text-anchor="middle" x="683" y="292" style="fill:#999; font-size:5.9px; " dominant-baseline="central" data-offset="0|0.3" transform="rotate(90 683 292)">VIDEOBOARD</text><text class="is-d dyn-name-bench bench_home" text-anchor="middle" x="394.9" y="337.5" style="fill:#FFF; font-size:5.9px; " dominant-baseline="central" data-offset="0|0.3" null="">HOME</text></g></g><circle id="svgZoomCenter" r="1" stroke-width="0" fill-opacity="0" cx="352.1" cy="259.5"></circle><circle id="svgNorthWest" r="1" stroke-width="0" fill-opacity="0" cx="0" cy="0"></circle><circle id="svgSouthEast" r="1" stroke-width="0" fill-opacity="0" cx="794" cy="519"></circle><g id="svgmarkers" style="font-size: 10.3px;"><circle id="svg-marker-hover" data-ticket="" style="display: none;"></circle><g transform="translate(101.1,169.8) scale(1)" class="ticket-marker flag-with-arrow" data-ticket="342~21" data-mrkgrp="default" data-match="1"><use href="#flag-with-arrow-medium" xlink:href="#flag-with-arrow"></use><text data-role="label" x="18" y="9">$243</text></g><g transform="translate(156.6,48) scale(1)" class="ticket-marker flag-with-arrow" data-ticket="338~21" data-mrkgrp="default" data-match="1"><use href="#flag-with-arrow-medium" xlink:href="#flag-with-arrow"></use><text data-role="label" x="18" y="9">$257</text></g><g transform="translate(626.4,103.4) scale(1)" class="ticket-marker flag-with-arrow" data-ticket="322~15" data-mrkgrp="default" data-match="1"><use href="#flag-with-arrow-medium" xlink:href="#flag-with-arrow"></use><text data-role="label" x="18" y="9">$348</text></g><g transform="translate(540.7,17.6) scale(1)" class="ticket-marker flag-with-arrow" data-ticket="326~15" data-mrkgrp="default" data-match="1"><use href="#flag-with-arrow-medium" xlink:href="#flag-with-arrow"></use><text data-role="label" x="18" y="9">$348</text></g><g transform="translate(378.7,399.5) scale(1)" class="ticket-marker flag-with-arrow" data-ticket="106~35" data-mrkgrp="default" data-match="1"><use href="#flag-with-arrow-medium" xlink:href="#flag-with-arrow"></use><text data-role="label" x="18" y="9">$431</text></g><g transform="translate(589.1,51.1) scale(1)" class="ticket-marker flag-with-arrow" data-ticket="324~17" data-mrkgrp="default" data-match="1"><use href="#flag-with-arrow-medium" xlink:href="#flag-with-arrow"></use><text data-role="label" x="18" y="9">$465</text></g><g transform="translate(647.4,235.7) scale(1)" class="ticket-marker flag-with-arrow" data-ticket="318~18" data-mrkgrp="default" data-match="1"><use href="#flag-with-arrow-medium" xlink:href="#flag-with-arrow"></use><text data-role="label" x="18" y="9">$487</text></g><g transform="translate(645.1,167.4) scale(1)" class="ticket-marker flag-with-arrow" data-ticket="320~17" data-mrkgrp="default" data-match="1"><use href="#flag-with-arrow-medium" xlink:href="#flag-with-arrow"></use><text data-role="label" x="18" y="9">$502</text></g><g transform="translate(643.7,303.6) scale(1)" class="ticket-marker flag-with-arrow" data-ticket="316~16" data-mrkgrp="default" data-match="1"><use href="#flag-with-arrow-medium" xlink:href="#flag-with-arrow"></use><text data-role="label" x="18" y="9">$517</text></g><g transform="translate(547.4,309.7) scale(1)" class="ticket-marker flag-with-arrow" data-ticket="114~17" data-mrkgrp="default" data-match="1"><use href="#flag-with-arrow-medium" xlink:href="#flag-with-arrow"></use><text data-role="label" x="18" y="9">$567</text></g><g transform="translate(185.2,348.7) scale(1)" class="ticket-marker flag-with-arrow" data-ticket="141~30" data-mrkgrp="default" data-match="1"><use href="#flag-with-arrow-medium" xlink:href="#flag-with-arrow"></use><text data-role="label" x="18" y="9">$567</text></g><g transform="translate(100.9,269) scale(1)" class="ticket-marker flag-with-arrow" data-ticket="345~21" data-mrkgrp="default" data-match="1"><use href="#flag-with-arrow-medium" xlink:href="#flag-with-arrow"></use><text data-role="label" x="18" y="9">$567</text></g><g transform="translate(100.6,341.7) scale(1)" class="ticket-marker flag-with-arrow" data-ticket="347~21" data-mrkgrp="default" data-match="1"><use href="#flag-with-arrow-medium" xlink:href="#flag-with-arrow"></use><text data-role="label" x="18" y="9">$567</text></g><g transform="translate(576.4,129.7) scale(1)" class="ticket-marker flag-with-arrow" data-ticket="120~41" data-mrkgrp="default" data-match="1"><use href="#flag-with-arrow-medium" xlink:href="#flag-with-arrow"></use><text data-role="label" x="18" y="9">$685</text></g><g transform="translate(461.5,101.2) scale(1)" class="ticket-marker flag-with-arrow" data-ticket="124~30" data-mrkgrp="default" data-match="1"><use href="#flag-with-arrow-medium" xlink:href="#flag-with-arrow"></use><text data-role="label" x="18" y="9">$720</text></g><g transform="translate(248.7,8.7) scale(1)" class="ticket-marker flag-with-arrow" data-ticket="335~19" data-mrkgrp="default" data-match="1"><use href="#flag-with-arrow-medium" xlink:href="#flag-with-arrow"></use><text data-role="label" x="18" y="9">$792</text></g><g transform="translate(406,75.9) scale(1)" class="ticket-marker flag-with-arrow" data-ticket="126~41" data-mrkgrp="default" data-match="1"><use href="#flag-with-arrow-medium" xlink:href="#flag-with-arrow"></use><text data-role="label" x="18" y="9">$882</text></g><g transform="translate(311.3,8.7) scale(1)" class="ticket-marker flag-with-arrow" data-ticket="333~19" data-mrkgrp="default" data-match="1"><use href="#flag-with-arrow-medium" xlink:href="#flag-with-arrow"></use><text data-role="label" x="18" y="9">$904</text></g><g transform="translate(163.4,163.2) scale(1)" class="ticket-marker flag-with-arrow" data-ticket="135~43" data-mrkgrp="default" data-match="1"><use href="#flag-with-arrow" xlink:href="#flag-with-arrow"></use><text data-role="label" x="20" y="9">$1242</text></g><g transform="translate(164.5,225.5) scale(1)" class="ticket-marker flag-with-arrow" data-ticket="137~41" data-mrkgrp="default" data-match="1"><use href="#flag-with-arrow" xlink:href="#flag-with-arrow"></use><text data-role="label" x="20" y="9">$1242</text></g><g transform="translate(164.8,284.8) scale(1)" class="ticket-marker flag-with-arrow" data-ticket="139~41" data-mrkgrp="default" data-match="1"><use href="#flag-with-arrow" xlink:href="#flag-with-arrow"></use><text data-role="label" x="20" y="9">$1242</text></g><g transform="translate(228.7,88.9) scale(1)" class="ticket-marker flag-with-arrow" data-ticket="132~41" data-mrkgrp="default" data-match="1"><use href="#flag-with-arrow" xlink:href="#flag-with-arrow"></use><text data-role="label" x="20" y="9">$1411</text></g><g transform="translate(220.1,457.3) scale(1)" class="ticket-marker flag-with-arrow" data-ticket="201~17" data-mrkgrp="default" data-match="1"><use href="#flag-with-arrow" xlink:href="#flag-with-arrow"></use><text data-role="label" x="20" y="9">$1458</text></g><g transform="translate(521.5,91.2) scale(1)" class="ticket-marker flag-with-arrow" data-ticket="122~41" data-mrkgrp="default" data-match="1"><use href="#flag-with-arrow" xlink:href="#flag-with-arrow"></use><text data-role="label" x="20" y="9">$1466</text></g><g transform="translate(538.1,194.5) scale(1)" class="ticket-marker flag-with-arrow" data-ticket="118~13" data-mrkgrp="default" data-match="1"><use href="#flag-with-arrow" xlink:href="#flag-with-arrow"></use><text data-role="label" x="20" y="9">$1516</text></g><g transform="translate(317.9,77.7) scale(1)" class="ticket-marker flag-with-arrow" data-ticket="129~41" data-mrkgrp="default" data-match="1"><use href="#flag-with-arrow" xlink:href="#flag-with-arrow"></use><text data-role="label" x="20" y="9">$1580</text></g><g transform="translate(464.9,411.1) scale(1)" class="ticket-marker flag-with-arrow" data-ticket="109~41" data-mrkgrp="default" data-match="1"><use href="#flag-with-arrow" xlink:href="#flag-with-arrow"></use><text data-role="label" x="20" y="9">$1693</text></g><g transform="translate(528.8,406.3) scale(1)" class="ticket-marker flag-with-arrow" data-ticket="111~41" data-mrkgrp="default" data-match="1"><use href="#flag-with-arrow" xlink:href="#flag-with-arrow"></use><text data-role="label" x="20" y="9">$1693</text></g><g transform="translate(224.4,407) scale(1)" class="ticket-marker flag-with-arrow" data-ticket="101~41" data-mrkgrp="default" data-match="1"><use href="#flag-with-arrow" xlink:href="#flag-with-arrow"></use><text data-role="label" x="20" y="9">$1917</text></g><g transform="translate(287.9,411.7) scale(1)" class="ticket-marker flag-with-arrow" data-ticket="103~41" data-mrkgrp="default" data-match="1"><use href="#flag-with-arrow" xlink:href="#flag-with-arrow"></use><text data-role="label" x="20" y="9">$2481</text></g></g>undefined</g><circle id="svgZoomCenterLoad" r="1" stroke-width="0" fill-opacity="0" cx="397" cy="259.5"></circle></g></g></svg>