<svg xmlns="http://www.w3.org/2000/svg" xmlns:xlink="http://www.w3.org/1999/xlink" id="svgmap" width="100%" height="100%" style="touch-action: none;" viewBox="46.4 -10.4 705.7 541.5"><style>
polygon[id^="spoly_"] { fill: #d0d8e4; stroke: #7a8fa6; stroke-width: 2; }
polygon[id^="spoly_"]:hover { fill: #5b8ccc; cursor: pointer; }
.svgText { font-family: Arial, sans-serif; fill: #333; font-size: 9px; }
</style>
         <g id="svgdefs"><defs id="svgdefstyle">
      <linearGradient id="ticketGradient" x1="0%" y1="0%" x2="100%" y2="0%"><stop offset="0%" stop-color="#840ac9"></stop><stop offset="30%" stop-color="#d60eb2"></stop><stop offset="50%" stop-color="#fa0b81"></stop><stop offset="100%" stop-color="#fa0b81"></stop></linearGradient>
      <radialGradient id="markerGradient" cx="50%" cy="50%" r="50%"><stop offset="0%" stop-color="#fa0b81"></stop><stop offset="95%" stop-color="#d60eb2"></stop><stop offset="100%" stop-color="#840ac9"></stop></radialGradient>
      <linearGradient id="flagGradient" x1="0%" y1="0%" x2="100%" y2="100%">
         <stop offset="0%" stop-color="#840ac9"></stop>
         <stop offset="40%" stop-color="#d60eb2"></stop>
         <stop offset="80%" stop-color="#fa0b81"></stop>
         <stop offset="100%" stop-color="#c40665"></stop> 
      </linearGradient>      
      <linearGradient id="svgmapticket" x1="0%" y1="0%" x2="0%" y2="100%"><stop offset="0%" style="stop-color:#5BADFF;stop-opacity:1"></stop><stop offset="100%" style="stop-color:#0066CC;stop-opacity:1"></stop></linearGradient><linearGradient id="svgdealticket" x1="0%" y1="0%" x2="0%" y2="100%"> <stop offset="0%" style="stop-color:#66FF00;stop-opacity:1"></stop><stop offset="100%" style="stop-color:#61C100;stop-opacity:1"></stop></linearGradient><linearGradient id="svggreatticket" x1="0%" y1="0%" x2="0%" y2="100%"><stop offset="0%" style="stop-color:#00CC33;stop-opacity:1"></stop><stop offset="100%" style="stop-color:#009100;stop-opacity:1"></stop></linearGradient><filter id="coinShadow" x="-40%" y="-40%" width="200%" height="200%">            <feGaussianBlur in="SourceAlpha" stdDeviation="3"></feGaussianBlur><feOffset dx="2" dy="2" result="offsetblur"></feOffset><feMerge><feMergeNode></feMergeNode><feMergeNode in="SourceGraphic"></feMergeNode></feMerge></filter><path id="flag-with-arrow" d="M 9.33,0 L 32,0 A 8,8 0 0 1 32,16 L 25.33,16 L 20,20.67 L 14.67,16 L 8,16 A 8,8 0 0 1 8,0 Z"></path><path id="flag-with-arrow-medium" d="M 8,0 L 28,0 A 8,8 0 0 1 28,16 L 23.33,16 L 18,20.67 L 12.67,16 L 8,16 A 8,8 0 0 1 8,0 Z"></path><path id="flag-with-arrow-small" d="M 8,0 L 24,0 A 8,8 0 0 1 24,16 L 20,16 L 16,20.67 L 12,16 L 8,16 A 8,8 0 0 1 8,0 Z"></path></defs>  </g>
         <g class="testmask" mask="url(#fade)" style="scale: 0.95; transform-origin:center;">
         <g id="viewport" transform="matrix(1,0,0,1,0,0)" data-zoomfactor="100"><g id="scaleSVG" data-scale="1" transform="scale(1)" class="testrotate"><g id="svgelements"><image id="svgOverlay" class="nopointereventsmap" xlink:href="/assets/images/venues/overlays/lambeau-field-nfl 9-2019.png" x="-104.0" y="-111.4" width="1024.9px" height="727.9px"></image><g id="svgpolygroup"><polygon id="spoly_100" data-role="section" data-sectionid="100" data-angle="360" points="649.4,276.4 649.6,264.5 649.4,253 592.5,253 592.5,276.4 649.4,276.4 649.4,276.4 "></polygon><polygon id="spoly_101" data-role="section" data-sectionid="101" data-angle="360" points="559.7,265.5 559.7,282.5 559.7,291.8 559.6,292.5 592.5,294 592.5,301.5 647.2,301.4 648.5,290.1 649.3,278.2 590.7,278.2 590.7,277.6 590.7,276.4 590.7,265.5 559.7,265.5 559.7,265.5 "></polygon><polygon id="spoly_102" data-role="section" data-sectionid="102" data-angle="360" points="559.7,236.8 559.7,245.8 559.7,263.6 590.7,263.6 590.7,253 590.7,252.1 590.7,251.2 649.4,251.2 648.6,239.3 647.2,227.9 592.5,227.8 592.5,235.3 559.7,236.8 559.7,236.8 "></polygon><polygon id="spoly_103" data-role="section" data-sectionid="103" data-angle="320.3" points="559.4,294.3 558.8,298.1 557.9,301.8 556.8,305.2 555.5,308.5 590.6,322.7 588.3,326.2 633.5,349.4 635.8,344.3 637.9,339.1 639.8,333.6 641.5,327.9 643.2,322 644.5,315.9 645.8,309.7 646.9,303.3 590.7,303.3 590.7,295.7 559.4,294.3 559.4,294.3 "></polygon><polygon id="spoly_104" data-role="section" data-sectionid="104" data-angle="44.3" points="556,220.6 557.1,223.9 558.1,227.4 559,231.1 559.5,234.9 590.7,233.6 590.6,226 646.9,226 645.9,219.6 644.6,213.3 643.2,207.2 641.6,201.4 639.9,195.7 638,190.2 635.9,184.9 633.6,179.7 588.2,203.1 590.6,206.7 556,220.6 556,220.6 "></polygon><polygon id="spoly_105" data-role="section" data-sectionid="105" data-angle="267.6" points="554.7,310.3 553.1,313.4 551.1,316.4 548.8,319.3 546.4,322 573.4,344.2 576.1,340.1 620.9,371.4 624.1,366.6 627.2,361.6 630,356.6 632.7,351.2 585.6,326.9 587.7,323.5 554.7,310.3 554.7,310.3 "></polygon><polygon id="spoly_106" data-role="section" data-sectionid="106" data-angle="91.9" points="546.9,206.8 549.3,209.6 551.5,212.5 553.5,215.6 555.1,218.9 587.6,205.8 585.5,202.3 632.9,178.1 630.2,172.7 627.3,167.5 624.3,162.5 621.1,157.8 576,189.2 573.3,185 546.9,206.8 546.9,206.8 "></polygon><polygon id="spoly_107" data-role="section" data-sectionid="107" data-angle="217" points="545.1,323.2 542.6,325.4 540,327.5 537.2,329.3 534.2,331.1 555.4,364 551.5,365.7 575.5,411.3 582,407.4 588.2,403.4 594.1,399.1 599.8,394.5 605.3,389.6 610.3,384.3 615.2,378.8 619.9,372.9 576.6,342.8 573.8,347 545.1,323.2 545.1,323.2 "></polygon><polygon id="spoly_108" data-role="section" data-sectionid="108" data-angle="139.8" points="534.5,197.3 537.6,199.1 540.4,201.1 543.1,203.2 545.6,205.5 573.7,182.2 576.5,186.6 620,156.2 615.4,150.3 610.5,144.7 605.4,139.5 600,134.5 594.3,129.8 588.3,125.5 582.1,121.4 575.6,117.7 551.4,163.7 555.3,165.2 534.5,197.3 534.5,197.3 "></polygon><polygon id="spoly_109" data-role="section" data-sectionid="109" data-angle="242" points="532.6,332 527.5,334.5 522,336.7 528.2,372 532.9,370.5 547.3,423.7 554.2,421.1 560.9,418.3 567.6,415.3 573.9,412.1 548.9,364.7 552.5,363.1 532.6,332 532.6,332 "></polygon><polygon id="spoly_110" data-role="section" data-sectionid="110" data-angle="117.6" points="521.8,191.5 527.6,193.7 532.9,196.3 552.4,166.2 548.8,164.6 574,116.8 567.7,113.6 561,110.5 554.3,107.7 547.3,105.2 532.8,158.8 528.1,157.3 521.8,191.5 521.8,191.5 "></polygon><polygon id="spoly_111" data-role="section" data-sectionid="111" data-angle="260.6" points="520.2,337.3 512.1,339.7 503.4,341.7 508.8,387.6 508.9,387.6 508.9,433.6 518.5,431.7 527.7,429.5 536.7,427.1 545.5,424.3 531.6,372.8 526.8,374.4 520.2,337.3 520.2,337.3 "></polygon><polygon id="spoly_112" data-role="section" data-sectionid="112" data-angle="99.5" points="503.4,186.4 512,188.5 520,190.8 526.6,155 531.5,156.4 545.5,104.5 536.7,101.7 527.7,99.2 518.4,97.1 508.8,95.2 508.8,141.7 508.7,141.7 503.4,186.4 503.4,186.4 "></polygon><polygon id="spoly_113" data-role="section" data-sectionid="113" data-angle="265.7" points="501.6,342.2 490.8,343.9 479.1,345.4 484.3,389.2 484.4,389.2 484.4,437.3 495.8,435.7 507.1,433.9 507.1,388.4 501.6,342.2 501.6,342.2 "></polygon><polygon id="spoly_114" data-role="section" data-sectionid="114" data-angle="96" points="479.1,182.8 490.8,184.2 501.6,186.1 507,141 507,94.9 495.7,93 484.2,91.6 484.2,140.1 484.2,140.1 479.1,182.8 479.1,182.8 "></polygon><polygon id="spoly_115" data-role="section" data-sectionid="115" data-angle="263" points="477.2,345.6 467,346.4 456.2,347 459.7,439.3 471.2,438.5 482.5,437.5 482.5,389.9 477.2,345.6 477.2,345.6 "></polygon><polygon id="spoly_116" data-role="section" data-sectionid="116" data-angle="95.9" points="456.1,181.2 467,181.8 477.2,182.6 482.3,139.4 482.3,91.3 471.1,90.3 459.6,89.5 456.1,181.2 456.1,181.2 "></polygon><polygon id="spoly_117" data-role="section" data-sectionid="117" data-angle="247.3" points="454.3,347.1 444.1,347.4 433.4,347.7 435.2,440.3 446.6,440 457.9,439.4 454.3,347.1 454.3,347.1 "></polygon><polygon id="spoly_118" data-role="section" data-sectionid="118" data-angle="112.4" points="433.3,180.5 444,180.7 454.2,181.1 457.8,89.4 446.5,88.9 435.1,88.5 433.3,180.5 433.3,180.5 "></polygon><polygon id="spoly_119" data-role="section" data-sectionid="119" data-angle="270" points="431.6,347.7 421.7,347.8 420.8,347.8 419.8,347.8 410.1,347.7 408.4,440.4 420.9,440.5 433.3,440.4 431.6,347.7 431.6,347.7 "></polygon><polygon id="spoly_120" data-role="section" data-sectionid="120" data-angle="90" points="421.7,180.5 431.5,180.5 433.2,88.4 420.9,88.3 408.3,88.4 410,180.5 419.8,180.5 420.8,180.5 421.7,180.5 421.7,180.5 "></polygon><polygon id="spoly_121" data-role="section" data-sectionid="121" data-angle="267.2" points="408.3,347.7 397.6,347.4 387.3,347.1 383.8,439.4 395.1,440 406.5,440.3 408.3,347.7 408.3,347.7 "></polygon><polygon id="spoly_122" data-role="section" data-sectionid="122" data-angle="91.8" points="406.4,88.5 395,88.9 383.7,89.4 387.2,181.1 397.4,180.7 408.2,180.5 406.4,88.5 406.4,88.5 "></polygon><polygon id="spoly_123" data-role="section" data-sectionid="123" data-angle="266.5" points="385.5,347 375.8,346.5 366.6,345.8 361.4,389.8 361.4,437.7 371.6,438.6 381.9,439.3 385.5,347 385.5,347 "></polygon><polygon id="spoly_124" data-role="section" data-sectionid="124" data-angle="92.5" points="381.8,89.5 371.5,90.2 361.3,91.1 361.3,139.5 366.3,182.4 375.6,181.7 385.4,181.2 381.8,89.5 381.8,89.5 "></polygon><polygon id="spoly_125" data-role="section" data-sectionid="125" data-angle="264.2" points="364.8,345.6 353,344.2 342.3,342.6 336.9,388.3 336.9,434.4 348.1,436 359.6,437.5 359.6,389.2 359.6,389.2 364.8,345.6 364.8,345.6 "></polygon><polygon id="spoly_126" data-role="section" data-sectionid="126" data-angle="93.9" points="359.5,91.3 348,92.8 336.8,94.6 336.8,141.1 342,185.7 352.8,183.9 364.4,182.5 359.5,140.1 359.5,140.1 359.5,91.3 359.5,91.3 "></polygon><polygon id="spoly_127" data-role="section" data-sectionid="127" data-angle="257.3" points="340.4,342.3 331,340.1 322.4,337.6 306,427.3 313.1,429.3 320.2,431 327.6,432.6 335,433.9 335,387.6 335,387.6 340.4,342.3 340.4,342.3 "></polygon><polygon id="spoly_128" data-role="section" data-sectionid="128" data-angle="100.3" points="334.9,94.9 327.4,96.2 320,97.9 312.9,99.7 305.8,101.5 322.1,190.6 330.7,188.1 340.2,186 334.9,141.7 334.9,141.7 334.9,94.9 334.9,94.9 "></polygon><polygon id="spoly_129" data-role="section" data-sectionid="129" data-angle="245.8" points="320.6,337 314.3,334.6 308.6,331.8 262.3,409 267.2,411.7 272,414.3 277.1,416.6 282.3,419 293,423.2 304.2,426.8 320.6,337 320.6,337 "></polygon><polygon id="spoly_130" data-role="section" data-sectionid="130" data-angle="119.3" points="303.9,102.1 292.8,105.8 282.1,109.9 276.8,112.3 271.8,114.7 266.9,117.3 262,120.1 308,196.8 313.9,193.8 320.3,191.3 303.9,102.1 303.9,102.1 "></polygon><polygon id="spoly_131" data-role="section" data-sectionid="131" data-angle="312.4" points="307,330.9 304.1,329.1 301.4,327.2 277.7,351.5 270.3,344.4 227.3,379.7 230.9,383.8 234.8,387.7 238.7,391.6 242.8,395.2 247.1,398.6 251.5,401.9 256.1,405 260.8,408 307,330.9 307,330.9 "></polygon><polygon id="spoly_132" data-role="section" data-sectionid="132" data-angle="39.3" points="260.4,121 255.8,124 251.2,127.2 246.8,130.5 242.5,133.9 238.5,137.5 234.4,141.4 230.7,145.4 227.1,149.6 295.8,205.7 298.1,203.5 300.6,201.4 303.4,199.5 306.3,197.7 260.4,121 260.4,121 "></polygon><polygon id="spoly_133" data-role="section" data-sectionid="133" data-angle="346.1" points="295,321.9 292.7,319.3 290.6,316.5 288.6,313.6 287,310.5 255.4,322.5 257.5,329.1 257.5,329.1 257.4,329.2 210.2,353.5 213.7,360.1 217.6,366.5 221.7,372.5 226.2,378.2 295,321.9 295,321.9 "></polygon><polygon id="spoly_134" data-role="section" data-sectionid="134" data-angle="12.7" points="225.8,151 221.5,156.7 217.4,162.7 213.5,169.2 210,175.9 257.2,200.1 257.4,200.2 257.4,200.2 255.3,206.8 286.5,218.7 288.1,215.5 290,212.5 292,209.7 294.4,207 225.8,151 225.8,151 "></polygon><polygon id="spoly_135" data-role="section" data-sectionid="135" data-angle="351.6" points="286.1,308.8 284.8,305.4 283.6,301.8 282.8,297.9 282.1,294 193.7,294 194.8,302.2 196.1,310.1 197.7,317.8 199.5,325.2 201.6,332.2 203.9,339 206.5,345.5 209.4,351.8 255.3,328.2 253,321.4 286.1,308.8 286.1,308.8 "></polygon><polygon id="spoly_136" data-role="section" data-sectionid="136" data-angle="9.2" points="209.2,177.6 206.4,183.8 203.8,190.3 201.5,197.1 199.4,204.2 197.6,211.6 196,219.1 194.7,227.1 193.6,235.3 282,235.3 282.6,231.4 283.4,227.5 284.5,223.9 285.7,220.4 252.8,207.9 255.2,201.1 209.2,177.6 209.2,177.6 "></polygon><polygon id="spoly_137" data-role="section" data-sectionid="137" data-angle="360" points="192.2,265.5 192.3,272.4 192.5,279.2 192.9,285.7 193.5,292.1 281.9,292.1 281.9,291.8 281.9,282.5 281.9,265.5 192.2,265.5 192.2,265.5 "></polygon><polygon id="spoly_138" data-role="section" data-sectionid="138" data-angle="360" points="193.4,237.2 192.9,243.6 192.5,250 192.3,256.8 192.2,263.6 281.9,263.6 281.9,245.8 281.9,237.2 193.4,237.2 193.4,237.2 "></polygon><polygon id="spoly_300" data-role="section" data-sectionid="300" data-angle="360" points="673,264.5 672.8,253 652.6,253 652.8,264.5 652.6,276.1 672.8,276.1 673,264.5 673,264.5 "></polygon><polygon id="spoly_301" data-role="section" data-sectionid="301" data-angle="357.1" points="652.5,277.9 652.1,285.5 651.4,292.9 650.5,300 649.5,306.9 669.8,309.7 670.8,302.2 671.7,294.3 672.3,286.2 672.8,277.9 652.5,277.9 652.5,277.9 "></polygon><polygon id="spoly_302" data-role="section" data-sectionid="302" data-angle="3.5" points="672.8,251.2 672.3,242.7 671.7,234.3 670.7,226.3 669.6,218.4 649.5,222.3 650.5,229.2 651.4,236.3 652.1,243.6 652.5,251.2 672.8,251.2 672.8,251.2 "></polygon><polygon id="spoly_303" data-role="section" data-sectionid="303" data-angle="348.4" points="649.2,308.8 647.7,316.3 646,323.5 644,330.5 641.8,337.2 661.4,344.6 663.9,336.8 666,328.7 667.8,320.3 669.5,311.6 649.2,308.8 649.2,308.8 "></polygon><polygon id="spoly_304" data-role="section" data-sectionid="304" data-angle="11.6" points="669.4,216.7 667.7,208.2 666,200 663.9,192.2 661.5,184.6 642.2,192.9 644.3,199.3 646.2,206.2 647.8,213.1 649.2,220.4 669.4,216.7 669.4,216.7 "></polygon><polygon id="spoly_305" data-role="section" data-sectionid="305" data-angle="338.8" points="641.2,339 639,344.9 636.5,350.5 634,355.9 631.2,361.1 649.5,372 652.6,365.9 655.6,359.7 658.3,353.1 660.8,346.4 641.2,339 641.2,339 "></polygon><polygon id="spoly_306" data-role="section" data-sectionid="306" data-angle="23.2" points="660.9,182.9 658.3,175.8 655.4,169 652.3,162.4 649,156.2 630.5,166.8 633.6,172.5 636.5,178.4 639.2,184.6 641.6,191.2 660.9,182.9 660.9,182.9 "></polygon><polygon id="spoly_307" data-role="section" data-sectionid="307" data-angle="327.9" points="630.2,362.8 626.3,369.1 622.1,375.1 617.7,380.7 613,386.1 628.8,400.6 634.2,394.4 639.3,387.8 644.1,380.9 648.6,373.6 630.2,362.8 630.2,362.8 "></polygon><polygon id="spoly_308" data-role="section" data-sectionid="308" data-angle="25.9" points="648,154.5 643.6,147.3 638.8,140.4 633.8,133.9 628.3,127.8 612.9,142.6 617.5,147.8 621.7,153.3 625.8,159.1 629.6,165.1 648,154.5 648,154.5 "></polygon><polygon id="spoly_310" data-role="section" data-sectionid="310" data-angle="27.3" points="627,126.4 621.6,121.1 616,116.2 602.7,132.8 607.2,136.9 611.6,141.3 627,126.4 627,126.4 "></polygon><polygon id="spoly_312" data-role="section" data-sectionid="312" data-angle="11.6" points="614.6,114.9 609.6,111.1 604.4,107.3 599.2,103.8 593.7,100.5 583.2,118.4 587.9,121.4 592.5,124.7 597,128 601.3,131.5 614.6,114.9 614.6,114.9 "></polygon><polygon id="spoly_314" data-role="section" data-sectionid="314" data-angle="159.9" points="592,99.5 584.2,95.4 576.3,91.6 568.5,110.4 575.1,113.9 581.5,117.5 592,99.5 592,99.5 "></polygon><polygon id="spoly_316" data-role="section" data-sectionid="316" data-angle="119.9" points="574.5,90.8 566.7,87.5 558.6,84.6 550.3,81.8 541.8,79.4 538.2,98.9 545.6,101.3 552.9,103.9 559.9,106.7 566.8,109.7 574.5,90.8 574.5,90.8 "></polygon><polygon id="spoly_318" data-role="section" data-sectionid="318" data-angle="99.8" points="539.9,78.9 528.2,76.1 516.1,73.6 513.1,92.8 525,95.4 536.4,98.4 539.9,78.9 539.9,78.9 "></polygon><polygon id="spoly_320" data-role="section" data-sectionid="320" data-angle="97.2" points="514.2,73.3 499.8,71 485,69.2 483.7,88.3 497.6,90.2 511.3,92.5 514.2,73.3 514.2,73.3 "></polygon><polygon id="spoly_322" data-role="section" data-sectionid="322" data-angle="93.3" points="483.1,69 471,68 458.8,67.3 458.3,86.3 470.1,87.1 481.8,88.1 483.1,69 483.1,69 "></polygon><polygon id="spoly_324" data-role="section" data-sectionid="324" data-angle="90" points="456.9,67.2 443.9,66.6 430.6,66.3 430.6,85.3 443.6,85.5 456.4,86.2 456.9,67.2 456.9,67.2 "></polygon><polygon id="spoly_326" data-role="section" data-sectionid="326" data-angle="90" points="428.8,66.3 420.9,66.2 413.2,66.3 413.2,85.2 420.9,85.2 428.8,85.2 428.8,66.3 428.8,66.3 "></polygon><polygon id="spoly_328" data-role="section" data-sectionid="328" data-angle="90" points="385.3,86.2 398.2,85.5 411.4,85.3 411.4,66.3 397.7,66.6 384.3,67.2 385.3,86.2 385.3,86.2 "></polygon><polygon id="spoly_330" data-role="section" data-sectionid="330" data-angle="93.4" points="360.3,88.1 371.7,87.1 383.4,86.3 382.5,67.3 370.4,68 358.6,69 360.3,88.1 360.3,88.1 "></polygon><polygon id="spoly_332" data-role="section" data-sectionid="332" data-angle="95.7" points="331,92.4 344.6,90.1 358.4,88.3 356.8,69.2 342.3,71 328.2,73.2 331,92.4 331,92.4 "></polygon><polygon id="spoly_334" data-role="section" data-sectionid="334" data-angle="113.2" points="305,98.5 316.9,95.4 329.1,92.7 326.3,73.5 313.7,76 301.5,79 305,98.5 305,98.5 "></polygon><polygon id="spoly_336" data-role="section" data-sectionid="336" data-angle="13.7" points="275.4,109.5 282.1,106.6 288.9,103.9 296,101.4 303.2,99 299.6,79.5 291.4,81.9 283.3,84.5 275.5,87.4 267.9,90.5 275.4,109.5 275.4,109.5 "></polygon><polygon id="spoly_338" data-role="section" data-sectionid="338" data-angle="52.4" points="260.4,117.4 267,113.7 273.7,110.3 266.1,91.2 258.1,95.1 250.2,99.2 260.4,117.4 260.4,117.4 "></polygon><polygon id="spoly_340" data-role="section" data-sectionid="340" data-angle="48.7" points="241.4,130.8 245.6,127.5 249.9,124.2 254.3,121.2 258.9,118.3 248.6,100.2 243.3,103.5 238,106.9 232.9,110.5 228,114.3 241.4,130.8 241.4,130.8 "></polygon><polygon id="spoly_342" data-role="section" data-sectionid="342" data-angle="46.3" points="230.1,141.4 235,136.5 240,131.9 226.6,115.5 220.4,120.9 214.5,126.8 230.1,141.4 230.1,141.4 "></polygon><polygon id="spoly_344" data-role="section" data-sectionid="344" data-angle="38.2" points="215.5,159.8 218.6,155.3 221.8,150.9 225.2,146.8 228.9,142.7 213.2,128.2 209,132.9 205,137.7 201.2,142.9 197.6,148.2 215.5,159.8 215.5,159.8 "></polygon><polygon id="spoly_345" data-role="section" data-sectionid="345" data-angle="321.5" points="226.7,383.8 223.6,380.2 220.6,376.4 217.8,372.5 215.1,368.5 196.9,379.8 200.1,384.3 203.2,388.7 206.5,392.9 209.9,397.1 226.7,383.8 226.7,383.8 "></polygon><polygon id="spoly_346" data-role="section" data-sectionid="346" data-angle="24.1" points="204.1,181.1 206.5,175.9 209,170.9 211.7,166.1 214.5,161.4 196.5,149.8 193.3,155.2 190.3,160.9 187.4,166.7 184.8,172.7 204.1,181.1 204.1,181.1 "></polygon><polygon id="spoly_347" data-role="section" data-sectionid="347" data-angle="334.5" points="214,366.8 211.2,362.2 208.6,357.3 206.1,352.2 203.7,346.9 184.6,355.9 187.2,361.7 190,367.4 192.9,372.9 196,378.2 214,366.8 214,366.8 "></polygon><polygon id="spoly_348" data-role="section" data-sectionid="348" data-angle="12.5" points="196.4,203 198,197.7 199.6,192.6 201.4,187.6 203.4,182.9 184.1,174.5 181.8,180.2 179.9,186.2 177.9,192.3 176.2,198.7 196.4,203 196.4,203 "></polygon><polygon id="spoly_349" data-role="section" data-sectionid="349" data-angle="343.5" points="203,345.3 199.3,335.5 196.2,325.2 175.9,329.1 177.6,335.6 179.5,342.1 181.6,348.2 183.9,354.2 203,345.3 203,345.3 "></polygon><polygon id="spoly_350" data-role="section" data-sectionid="350" data-angle="7.5" points="192.9,218.5 194.4,211.6 196,204.8 175.7,200.5 174.1,208.3 172.5,216.3 192.9,218.5 192.9,218.5 "></polygon><polygon id="spoly_351" data-role="section" data-sectionid="351" data-angle="351.7" points="195.8,323.4 194.3,316.8 192.8,309.9 172.5,312.4 173.9,320 175.4,327.2 195.8,323.4 195.8,323.4 "></polygon><polygon id="spoly_352" data-role="section" data-sectionid="352" data-angle="2" points="189.4,250.2 189.9,242.5 190.5,234.8 191.5,227.5 192.6,220.4 172.2,218.1 171.2,225.8 170.2,233.8 169.5,241.8 169.1,250.2 189.4,250.2 189.4,250.2 "></polygon><polygon id="spoly_353" data-role="section" data-sectionid="353" data-angle="356.7" points="192.5,308.1 191.4,301 190.5,293.7 189.8,286.1 189.3,278.2 169.1,278.2 169.5,286.7 170.2,294.9 171.1,302.9 172.2,310.6 192.5,308.1 192.5,308.1 "></polygon><polygon id="spoly_354" data-role="section" data-sectionid="354" data-angle="360" points="189.3,276.4 189,264.5 189.3,252.1 169,252.1 168.8,264.5 169,276.4 189.3,276.4 189.3,276.4 "></polygon><polygon id="spoly_403" data-role="section" data-sectionid="403" data-angle="330.3" points="611.8,387.4 605.9,393.3 619.9,409.4 623.7,405.8 627.5,401.9 611.8,387.4 611.8,387.4 "></polygon><polygon id="spoly_405" data-role="section" data-sectionid="405" data-angle="340.8" points="604.4,394.6 600.7,397.8 597,400.9 588.9,406.7 599.1,425.1 604.1,421.7 609.1,418.2 613.9,414.5 618.4,410.6 604.4,394.6 604.4,394.6 "></polygon><polygon id="spoly_407" data-role="section" data-sectionid="407" data-angle="198.7" points="587.3,407.7 581.8,411.3 576.1,414.5 570,417.6 563.9,420.5 571.5,439.3 578.3,436.3 584.9,433.1 591.3,429.7 597.5,426.1 587.3,407.7 587.3,407.7 "></polygon><polygon id="spoly_409" data-role="section" data-sectionid="409" data-angle="241.8" points="562.3,421.2 556.4,423.7 550.3,426 544,428 537.6,430 542.2,449.3 549.3,447.3 556.3,445 563.1,442.6 569.7,440.1 562.3,421.2 562.3,421.2 "></polygon><polygon id="spoly_411" data-role="section" data-sectionid="411" data-angle="257.2" points="535.9,430.5 524.7,433.4 513.3,435.9 515.7,455.3 528.2,452.7 540.3,449.8 535.9,430.5 535.9,430.5 "></polygon><polygon id="spoly_413" data-role="section" data-sectionid="413" data-angle="261.6" points="511.4,436.3 497.9,438.6 484,440.4 485.2,459.5 499.7,457.8 513.8,455.6 511.4,436.3 511.4,436.3 "></polygon><polygon id="spoly_415" data-role="section" data-sectionid="415" data-angle="270" points="482.1,440.6 470.9,441.7 459.5,442.5 459.5,461.5 471.5,460.8 483.4,459.7 482.1,440.6 482.1,440.6 "></polygon><polygon id="spoly_417" data-role="section" data-sectionid="417" data-angle="270" points="457.7,442.6 445.4,443.2 433.1,443.5 433.1,462.4 445.4,462.1 457.7,461.6 457.7,442.6 457.7,442.6 "></polygon><polygon id="spoly_419" data-role="section" data-sectionid="419" data-angle="270" points="431.2,443.5 420.9,443.6 411.4,443.5 411.4,462.4 420.9,462.5 431.2,462.4 431.2,443.5 431.2,443.5 "></polygon><polygon id="spoly_421" data-role="section" data-sectionid="421" data-angle="265.1" points="409.5,443.5 397.1,443.2 384.9,442.6 384.9,461.6 397.1,462.1 409.5,462.4 409.5,443.5 409.5,443.5 "></polygon><polygon id="spoly_423" data-role="section" data-sectionid="423" data-angle="263.3" points="383.1,442.5 371.4,441.7 359.9,440.7 359,459.7 370.9,460.8 383.1,461.5 383.1,442.5 383.1,442.5 "></polygon><polygon id="spoly_425" data-role="section" data-sectionid="425" data-angle="259.4" points="358,440.5 344.2,438.6 330.8,436.4 328.6,455.7 342.7,457.9 357.1,459.5 358,440.5 358,440.5 "></polygon><polygon id="spoly_427" data-role="section" data-sectionid="427" data-angle="249.9" points="328.9,436 316.9,433.4 305.2,430.3 302,449.9 314.2,452.9 326.8,455.4 328.9,436 328.9,436 "></polygon><polygon id="spoly_429" data-role="section" data-sectionid="429" data-angle="345.5" points="303.3,429.8 297.4,427.9 291.5,426 285.8,423.8 280.2,421.5 271.9,440 278.7,442.6 285.7,445.1 292.9,447.3 300.1,449.5 303.3,429.8 303.3,429.8 "></polygon><polygon id="spoly_431" data-role="section" data-sectionid="431" data-angle="314.5" points="278.5,420.7 272.5,417.9 266.6,414.9 260.8,411.7 255.3,408.3 243.9,425.8 250.1,429.5 256.6,433 263.3,436.2 270.2,439.2 278.5,420.7 278.5,420.7 "></polygon><polygon id="spoly_433" data-role="section" data-sectionid="433" data-angle="309.2" points="253.7,407.2 249.1,404 244.5,400.7 240.1,397.1 236,393.3 220.8,408.3 225.8,412.8 231.1,417 236.6,421 242.3,424.8 253.7,407.2 253.7,407.2 "></polygon><polygon id="spoly_435" data-role="section" data-sectionid="435" data-angle="319.7" points="234.7,392.1 231.2,388.7 227.9,385.2 211.1,398.4 215.2,402.9 219.4,407 234.7,392.1 234.7,392.1 "></polygon><polygon id="spoly_470" data-role="section" data-sectionid="470" data-angle="18.4" points="615.9,100.6 611.1,97.3 606.2,94.2 601.1,91.1 595.9,88.3 591.3,96.2 596.3,99.1 601.1,102.1 605.9,105.3 610.5,108.6 615.9,100.6 615.9,100.6 "></polygon><polygon id="spoly_472" data-role="section" data-sectionid="472" data-angle="29.9" points="640.6,122.5 635.2,116.9 629.5,111.5 623.6,106.5 617.4,101.7 612,109.7 617.7,114.3 623.1,119.1 628.3,124.1 633.2,129.4 640.6,122.5 640.6,122.5 "></polygon><polygon id="spoly_474" data-role="section" data-sectionid="474" data-angle="28.1" points="661.8,152.5 657.3,144.7 652.5,137.4 647.3,130.5 641.8,123.9 634.5,130.9 639.4,137.1 644.1,143.5 648.6,150.4 652.7,157.7 661.8,152.5 661.8,152.5 "></polygon><polygon id="spoly_476" data-role="section" data-sectionid="476" data-angle="28.7" points="672.9,177.6 670.5,171.3 668.1,165.4 665.4,159.6 662.6,154.1 653.5,159.3 656.2,164.6 658.7,170.2 661,175.9 663.2,181.8 672.9,177.6 672.9,177.6 "></polygon><polygon id="spoly_478" data-role="section" data-sectionid="478" data-angle="11.7" points="682,213.4 680.3,204.4 678.3,195.7 676,187.3 673.4,179.3 663.8,183.6 666.2,191 668.2,198.8 670.1,206.9 671.7,215.3 682,213.4 682,213.4 "></polygon><polygon id="spoly_480" data-role="section" data-sectionid="480" data-angle="5.4" points="685.9,252.7 685.3,242.9 684.6,233.3 683.6,224.1 682.3,215.2 672,217.2 673.2,225.6 674.1,234.4 674.9,243.4 675.3,252.7 685.9,252.7 685.9,252.7 "></polygon><polygon id="spoly_482" data-role="section" data-sectionid="482" data-angle="360" points="686.1,264.5 685.9,254.6 675.4,254.6 675.5,264.5 675.3,276.1 685.9,276.1 686.1,264.5 686.1,264.5 "></polygon><polygon id="spoly_484" data-role="section" data-sectionid="484" data-angle="355.1" points="675.3,277.9 674.8,287.5 673.9,296.6 672.9,305.5 671.6,314 682,315.6 683.4,306.6 684.4,297.4 685.2,287.9 685.7,277.9 675.3,277.9 675.3,277.9 "></polygon><polygon id="spoly_486" data-role="section" data-sectionid="486" data-angle="347.9" points="671.2,315.8 669.8,323.2 668.1,330.4 666.4,337.2 664.3,343.8 674.3,347.4 676.4,340.3 678.4,332.9 680.2,325.3 681.7,317.4 671.2,315.8 671.2,315.8 "></polygon><polygon id="spoly_488" data-role="section" data-sectionid="488" data-angle="335.9" points="663.7,345.6 661.6,351.5 659.3,357.2 657,362.7 654.4,368.1 663.8,372.7 666.5,367.1 669.1,361.3 671.5,355.3 673.6,349.2 663.7,345.6 663.7,345.6 "></polygon><polygon id="spoly_490" data-role="section" data-sectionid="490" data-angle="334.4" points="653.5,369.7 650.1,375.9 646.5,381.8 642.7,387.4 638.6,392.9 646.8,399 651.2,393.3 655.3,387.2 659.2,381 662.9,374.4 653.5,369.7 653.5,369.7 "></polygon><polygon id="spoly_492" data-role="section" data-sectionid="492" data-angle="324.9" points="637.5,394.4 634.1,398.4 630.5,402.4 626.9,406.1 623.2,409.7 630.1,416.9 634.2,413 638.1,409 641.9,404.8 645.7,400.5 637.5,394.4 637.5,394.4 "></polygon><polygon id="spoly_670" data-role="section" data-sectionid="670" data-angle="25.9" points="602.3,89.7 608.5,93.3 614.5,97.3 620.3,101.5 625.9,105.9 632.8,97.7 627,93.2 620.9,89 614.5,84.8 607.6,80.8 602.3,89.7 602.3,89.7 "></polygon><polygon id="spoly_672" data-role="section" data-sectionid="672" data-angle="29.4" points="627.3,107.1 633.3,112.5 639.1,118.2 644.6,124.2 649.9,130.7 658.3,123.4 652.9,117 647.1,110.8 640.9,104.7 634.3,98.9 627.3,107.1 627.3,107.1 "></polygon><polygon id="spoly_674" data-role="section" data-sectionid="674" data-angle="28.8" points="651,132.1 655.3,138.1 659.3,144.4 663.1,150.9 666.7,157.8 676.3,152.5 672.6,145.3 668.6,138.4 664.2,131.5 659.4,124.9 651,132.1 651,132.1 "></polygon><polygon id="spoly_676" data-role="section" data-sectionid="676" data-angle="17.7" points="667.4,159.5 670.2,165.5 672.7,171.8 675.1,178.2 677.3,184.8 687.3,181.5 685.1,174.5 682.7,167.6 680.1,160.8 677,154.1 667.4,159.5 667.4,159.5 "></polygon><polygon id="spoly_678" data-role="section" data-sectionid="678" data-angle="9.5" points="677.8,186.6 679.6,193.3 681.3,200.4 682.8,207.5 684.2,214.9 694.2,213.4 693,205.8 691.4,198.1 689.8,190.6 687.8,183.3 677.8,186.6 677.8,186.6 "></polygon><polygon id="spoly_680" data-role="section" data-sectionid="680" data-angle="6.4" points="684.4,216.8 685.4,223.9 686.3,231.3 687,238.8 687.4,246.5 697.2,246.5 696.8,238.6 696.2,230.8 695.5,223 694.4,215.2 684.4,216.8 684.4,216.8 "></polygon><polygon id="spoly_682" data-role="section" data-sectionid="682" data-angle="360" points="687.5,248.4 687.8,256.4 687.9,264.5 687.6,277.6 697.5,277.6 697.7,265.9 697.7,265.1 697.7,264.5 697.7,263.9 697.7,263.1 697.3,248.4 687.5,248.4 687.5,248.4 "></polygon><polygon id="spoly_684" data-role="section" data-sectionid="684" data-angle="354.8" points="687.6,279.5 687.2,287.1 686.6,294.7 685.9,302 684.9,309.1 695,310.3 695.8,302.7 696.5,295 697,287.2 697.3,279.5 687.6,279.5 687.6,279.5 "></polygon><polygon id="spoly_686" data-role="section" data-sectionid="686" data-angle="352.4" points="684.6,311 683.5,318.3 682,325.5 680.5,332.5 678.7,339.3 688.9,342.1 690.6,334.7 692.2,327.2 693.5,319.7 694.7,312.1 684.6,311 684.6,311 "></polygon><polygon id="spoly_688" data-role="section" data-sectionid="688" data-angle="345" points="678.2,341 676.1,347.8 673.8,354.2 671.5,360.5 668.9,366.5 679,370.3 681.7,363.9 684.2,357.4 686.4,350.7 688.3,343.9 678.2,341 678.2,341 "></polygon><polygon id="spoly_690" data-role="section" data-sectionid="690" data-angle="337.9" points="668,368.3 664.4,375.6 660.4,382.7 656.2,389.4 651.7,395.8 661,401.8 666,394.7 670.5,387.3 674.6,379.9 678.3,372.1 668,368.3 668,368.3 "></polygon><polygon id="spoly_692" data-role="section" data-sectionid="692" data-angle="328.1" points="650.5,397.4 645.6,403.6 640.2,409.6 634.6,415.2 628.8,420.5 636.1,428.4 642.8,422.4 648.9,416.3 654.6,409.9 659.9,403.4 650.5,397.4 650.5,397.4 "></polygon><polygon id="spoly_694" data-role="section" data-sectionid="694" data-angle="325.6" points="627.3,421.7 621.6,426.4 615.6,430.7 609.4,434.9 603.1,438.7 608.2,447.7 615.3,443.5 622.1,439 628.6,434.4 634.7,429.6 627.3,421.7 627.3,421.7 "></polygon><polygon id="spoly_432S" data-role="section" data-sectionid="432S" data-angle="55.8" points="256.2,83.7 250.5,86.5 244.9,89.4 249.2,96.8 254.1,94.2 259.2,91.6 256.2,83.7 256.2,83.7 "></polygon><polygon id="spoly_434S" data-role="section" data-sectionid="434S" data-angle="57.2" points="243.3,90.2 234.5,95.4 226.3,100.9 231.9,108 239.5,102.7 247.6,97.8 243.3,90.2 243.3,90.2 "></polygon><polygon id="spoly_436S" data-role="section" data-sectionid="436S" data-angle="46.5" points="224.8,102 217.6,107.6 210.6,113.8 217.4,120.2 223.8,114.5 230.4,109.1 224.8,102 224.8,102 "></polygon><polygon id="spoly_438S" data-role="section" data-sectionid="438S" data-angle="30.8" points="209.3,115 205.5,118.6 202,122.4 198.6,126.3 195.3,130.4 203.1,136.1 209.4,128.5 216,121.5 209.3,115 209.3,115 "></polygon><polygon id="spoly_440S" data-role="section" data-sectionid="440S" data-angle="26.5" points="194.2,131.8 188.2,140 182.8,148.8 191.3,153.7 196.4,145.3 201.9,137.5 194.2,131.8 194.2,131.8 "></polygon><polygon id="spoly_442S" data-role="section" data-sectionid="442S" data-angle="17.1" points="181.8,150.5 179.2,155.3 176.8,160.2 174.5,165.3 172.2,170.5 181.5,173.9 185.8,164.3 190.4,155.3 181.8,150.5 181.8,150.5 "></polygon><polygon id="spoly_443S" data-role="section" data-sectionid="443S" data-angle="326.6" points="171,356.9 173.2,362.6 175.7,368 178.3,373.2 181.1,378.4 184,383.3 187,388.2 190.2,392.7 193.5,397.2 196.9,401.5 200.6,405.7 204.3,409.7 208.1,413.5 212.2,417.2 216.2,420.8 220.5,424.2 224.8,427.4 230.3,419.4 222.4,413.1 218.7,409.8 215.1,406.3 211.6,402.7 208.1,398.9 204.8,395 201.7,391 198.6,386.8 195.7,382.5 192.9,378 190.3,373.3 187.7,368.6 185.3,363.7 183.1,358.6 180.9,353.4 171,356.9 171,356.9 "></polygon><polygon id="spoly_444S" data-role="section" data-sectionid="444S" data-angle="5.8" points="170.8,210 172.7,201.3 174.9,192.9 166.3,190.2 164,199.1 161.9,208.5 170.8,210 170.8,210 "></polygon><polygon id="spoly_445S" data-role="section" data-sectionid="445S" data-angle="353.9" points="174.1,333.4 172.1,325.3 170.4,316.9 161.5,318.2 163.4,327.2 165.5,335.8 174.1,333.4 174.1,333.4 "></polygon><polygon id="spoly_446S" data-role="section" data-sectionid="446S" data-angle="3.6" points="167.7,230.8 168.9,221.2 170.4,211.9 161.6,210.3 160.1,220 158.8,230.1 167.7,230.8 167.7,230.8 "></polygon><polygon id="spoly_447S" data-role="section" data-sectionid="447S" data-angle="356.4" points="170.1,315 168.7,305.9 167.5,296.5 158.6,297.5 159.8,307.1 161.2,316.4 170.1,315 170.1,315 "></polygon><polygon id="spoly_448S" data-role="section" data-sectionid="448S" data-angle="2.4" points="166.3,250.2 166.8,241.3 167.5,232.6 158.6,231.9 157.8,240.9 157.3,250.2 166.3,250.2 166.3,250.2 "></polygon><polygon id="spoly_449S" data-role="section" data-sectionid="449S" data-angle="357.6" points="167.3,294.6 166.7,286.5 166.3,278.2 157.3,278.2 157.8,287 158.4,295.6 167.3,294.6 167.3,294.6 "></polygon><polygon id="spoly_450S" data-role="section" data-sectionid="450S" data-angle="360" points="166.2,276.4 166,264.5 166.2,252.1 157.3,252.1 157.1,264.5 157.3,276.4 166.2,276.4 166.2,276.4 "></polygon><polygon id="spoly_630S" data-role="section" data-sectionid="630S" data-angle="61.1" points="243.4,87.3 249.3,84.3 255.3,81.4 248.7,64.9 241.6,68.2 234.5,71.8 243.4,87.3 243.4,87.3 "></polygon><polygon id="spoly_632S" data-role="section" data-sectionid="632S" data-angle="56.3" points="227.6,97 234.5,92.5 241.8,88.2 233,72.8 225,77.3 217.5,82.4 227.6,97 227.6,97 "></polygon><polygon id="spoly_634S" data-role="section" data-sectionid="634S" data-angle="50.1" points="213.6,107.7 219.7,102.8 226.1,98 215.9,83.5 208.7,89 201.6,94.9 213.6,107.7 213.6,107.7 "></polygon><polygon id="spoly_635S" data-role="section" data-sectionid="635S" data-angle="307.9" points="211.8,419.5 217.9,424.5 224.2,429.3 214,443.8 206.8,438.3 199.7,432.4 211.8,419.5 211.8,419.5 "></polygon><polygon id="spoly_636S" data-role="section" data-sectionid="636S" data-angle="40" points="200.3,120.7 206.1,114.6 212.2,108.9 200.3,96.1 193.4,102.8 186.9,109.7 200.3,120.7 200.3,120.7 "></polygon><polygon id="spoly_637S" data-role="section" data-sectionid="637S" data-angle="319.1" points="198.4,406.6 204.2,412.7 210.3,418.3 198.4,431.1 191.6,424.5 185,417.5 198.4,406.6 198.4,406.6 "></polygon><polygon id="spoly_638S" data-role="section" data-sectionid="638S" data-angle="29.7" points="187.9,136 193.3,128.8 198.9,122.1 185.7,111.2 179.5,118.9 173.9,126.9 187.9,136 187.9,136 "></polygon><polygon id="spoly_639S" data-role="section" data-sectionid="639S" data-angle="329.9" points="186.1,391.4 191.5,398.5 197.1,405.3 183.8,416.1 177.7,408.5 172,400.4 186.1,391.4 186.1,391.4 "></polygon><polygon id="spoly_640S" data-role="section" data-sectionid="640S" data-angle="20.9" points="177.2,153.8 181.8,145.4 186.9,137.5 172.9,128.5 167.5,137.3 162.6,146.7 177.2,153.8 177.2,153.8 "></polygon><polygon id="spoly_641S" data-role="section" data-sectionid="641S" data-angle="341.1" points="175.3,373.6 180,381.9 185,389.8 171.1,398.8 165.7,390 160.7,380.7 175.3,373.6 175.3,373.6 "></polygon><polygon id="spoly_642S" data-role="section" data-sectionid="642S" data-angle="10.4" points="170,169.4 173,162.3 176.3,155.5 161.7,148.4 158.2,156.2 155,164.3 170,169.4 170,169.4 "></polygon><polygon id="spoly_643S" data-role="section" data-sectionid="643S" data-angle="350.3" points="168.2,358 171.2,365.1 174.5,371.9 159.9,378.9 156.3,371.2 153.1,363.1 168.2,358 168.2,358 "></polygon><polygon id="spoly_644S" data-role="section" data-sectionid="644S" data-angle="2.5" points="156.3,215.3 157.6,208.4 158.9,201.7 160.5,195.2 162.1,188.9 150.6,185.2 148.8,192.2 147.1,199.3 145.7,206.6 144.4,214.2 156.3,215.3 156.3,215.3 "></polygon><polygon id="spoly_645S" data-role="section" data-sectionid="645S" data-angle="357.6" points="161.3,337.1 159.8,331 158.3,324.7 157.1,318.2 156,311.6 144.1,313 145.3,320.1 146.6,327 148.1,333.9 149.7,340.4 161.3,337.1 161.3,337.1 "></polygon><polygon id="spoly_646S" data-role="section" data-sectionid="646S" data-angle="0.4" points="153.1,247.4 153.5,239.6 154.3,231.9 155.1,224.4 156,217.2 144.1,216 143.1,223.6 142.3,231.4 141.6,239.3 141.1,247.4 153.1,247.4 153.1,247.4 "></polygon><polygon id="spoly_647S" data-role="section" data-sectionid="647S" data-angle="359.6" points="155.7,309.7 154.8,302.8 154.1,295.6 153.4,288.3 153,280.7 141.1,280.7 141.5,288.6 142.2,296.4 142.9,303.8 143.8,311.2 155.7,309.7 155.7,309.7 "></polygon><polygon id="spoly_648S" data-role="section" data-sectionid="648S" data-angle="360" points="152.9,278.9 152.7,264.5 152.7,256.9 153,249.3 141,249.3 140.7,264.5 141,278.9 152.9,278.9 152.9,278.9 "></polygon><polygon id="spoly_730S" data-role="section" data-sectionid="730S" data-angle="64.3" points="236,32.1 226.4,36.5 217.1,41.2 233.4,69.7 240.3,66 247.6,62.7 236,32.1 236,32.1 "></polygon><polygon id="spoly_732S" data-role="section" data-sectionid="732S" data-angle="57.9" points="215.5,42 206.1,47.5 197.3,53.4 216,80.3 223.7,75.3 231.8,70.6 215.5,42 215.5,42 "></polygon><polygon id="spoly_734S" data-role="section" data-sectionid="734S" data-angle="46.8" points="195.7,54.4 190.8,57.9 186.3,61.5 181.7,65.1 177.5,68.8 200,93 207,87 214.5,81.4 195.7,54.4 195.7,54.4 "></polygon><polygon id="spoly_735S" data-role="section" data-sectionid="735S" data-angle="314.4" points="193.8,472.8 189,469.3 184.4,465.7 179.9,462.1 175.6,458.4 198.1,434.3 205.1,440.3 212.6,445.9 193.8,472.8 193.8,472.8 "></polygon><polygon id="spoly_736S" data-role="section" data-sectionid="736S" data-angle="31.6" points="176,70.1 171.7,74.2 167.4,78.5 163.4,82.8 159.5,87.3 184.9,108.2 191.6,101 198.5,94.3 176,70.1 176,70.1 "></polygon><polygon id="spoly_737S" data-role="section" data-sectionid="737S" data-angle="327.8" points="174.2,457.1 169.8,453 165.6,448.8 161.5,444.4 157.6,440 183.1,419.1 189.7,426.3 196.6,433 174.2,457.1 174.2,457.1 "></polygon><polygon id="spoly_738S" data-role="section" data-sectionid="738S" data-angle="13.6" points="158.3,88.8 154.6,93.4 151,98.2 147.5,103.1 144.3,108 171.8,125.6 177.6,117.4 183.8,109.6 158.3,88.8 158.3,88.8 "></polygon><polygon id="spoly_739S" data-role="section" data-sectionid="739S" data-angle="346.4" points="156.4,438.5 152.7,433.8 149.1,429.1 145.7,424.2 142.5,419.2 169.9,401.7 175.7,409.9 181.9,417.7 156.4,438.5 156.4,438.5 "></polygon><polygon id="spoly_740S" data-role="section" data-sectionid="740S" data-angle="12.5" points="143.3,109.6 140.2,114.9 137.1,120.4 134.3,126 131.6,131.6 160.4,145.6 165.4,136.1 170.7,127.2 143.3,109.6 143.3,109.6 "></polygon><polygon id="spoly_741S" data-role="section" data-sectionid="741S" data-angle="343.1" points="141.4,417.7 138.3,412.3 135.2,406.9 132.4,401.3 129.7,395.7 158.5,381.7 163.5,391.2 168.9,400.2 141.4,417.7 141.4,417.7 "></polygon><polygon id="spoly_742S" data-role="section" data-sectionid="742S" data-angle="128.3" points="130.9,133.3 126.8,143 123.2,152.9 152.6,163.5 155.9,155.2 159.6,147.3 130.9,133.3 130.9,133.3 "></polygon><polygon id="spoly_743S" data-role="section" data-sectionid="743S" data-angle="212.1" points="129,394.1 125,384.3 121.3,374.5 150.8,363.9 154.1,372.2 157.7,380.1 129,394.1 129,394.1 "></polygon><polygon id="spoly_744S" data-role="section" data-sectionid="744S" data-angle="176.4" points="143.3,205.8 145.6,194.9 148.3,184.5 129,178.5 126.1,190.4 123.7,202.6 143.3,205.8 143.3,205.8 "></polygon><polygon id="spoly_745S" data-role="section" data-sectionid="745S" data-angle="182.1" points="123.4,325.2 125.5,335.9 128,346.6 147.3,341.1 145,331.7 143,321.9 123.4,325.2 123.4,325.2 "></polygon><polygon id="spoly_746S" data-role="section" data-sectionid="746S" data-angle="178.8" points="140.1,228 141.3,217.6 143,207.6 123.4,204.4 121.7,215.2 120.5,226.2 140.1,228 140.1,228 "></polygon><polygon id="spoly_747S" data-role="section" data-sectionid="747S" data-angle="180.5" points="120.4,301.4 121.5,312.4 123.1,323.3 142.7,320 141.1,309.7 139.9,299.1 120.4,301.4 120.4,301.4 "></polygon><polygon id="spoly_748S" data-role="section" data-sectionid="748S" data-angle="179.4" points="138.5,250.6 139,240.1 139.9,229.8 120.4,228.1 119.6,239.3 119.1,250.6 138.5,250.6 138.5,250.6 "></polygon><polygon id="spoly_749S" data-role="section" data-sectionid="749S" data-angle="181" points="119,277 119.5,288.3 120.3,299.6 139.7,297.3 138.9,287.2 138.4,277 119,277 119,277 "></polygon><polygon id="spoly_750S" data-role="section" data-sectionid="750S" data-angle="180" points="118.8,263.8 118.8,264.5 118.8,265.2 118.8,266 119,275.1 138.4,275.1 138.2,264.5 138.4,252.4 119,252.4 118.8,263.1 118.8,263.8 118.8,263.8 "></polygon><polygon id="spoly_champ_club" data-role="section" data-sectionid="champ_club" data-angle="270" points="124.3,175.7 109.7,171.4 105.4,191.5 102.4,212.8 100.5,235.2 99.3,258.3 99.9,281.4 101.1,304.5 104.2,327.6 109.1,349.5 122.5,346.4 118.9,327 115.8,305.7 114.6,283.8 114,261.4 115.2,238.9 117,217 120.1,195.7 124.3,175.7 124.3,175.7 "></polygon><polygon class="is-d epoly_bench_visitor" data-role="dynamic" points="369.7,316.1 369.7,329 467.4,329 467.4,316.1 467.4,316.1 467.4,316.1 " style="fill:#DDD; stroke:#DDD; stroke-width:0; fill-opacity:1.0;"></polygon><polygon class="is-d epoly_bench_home" data-role="dynamic" points="370.3,195.8 370.3,208.1 468.7,208.1 468.7,195.8 468.7,195.8 468.7,195.8 " style="fill:#000; stroke:#000; stroke-width:0; fill-opacity:1.0;"></polygon><polygon class="is-d epoly_video_north" data-role="dynamic" points="706.7,229.9 706.7,304.5 722.1,304.5 722.1,229.9 722.1,229.9 722.1,229.9 " style="fill:#F4F4F4; stroke:#BEBEBE; stroke-width:1; fill-opacity:1.0;"></polygon><polygon class="is-d epoly_video_south" data-role="dynamic" points="76.4,202.9 76.4,322.5 96.3,322.5 96.3,202.9 96.3,202.9 96.3,202.9 " style="fill:#F4F4F4; stroke:#BEBEBE; stroke-width:1; fill-opacity:1.0;"></polygon><polygon class="is-d epoly_press_box" data-role="dynamic" points="412.7,19.6 364,21.4 320.2,26.2 281.4,33.3 248.1,43.4 251.8,53.6 269,47.6 287.5,42.8 326.4,35.7 368.3,31.5 412.7,30.3 412.7,19.6 412.7,19.6 " style="fill:#F4F4F4; stroke:#BEBEBE; stroke-width:1; fill-opacity:1.0;"></polygon><polygon class="is-d epoly_west_suites" data-role="dynamic" points="263.5,86.7 265.7,85.6 272.6,82.9 277.9,81.1 284.4,79 292.2,76.9 301.2,74.7 311.6,72.4 323.3,70.3 336.4,68.2 350.8,66.4 366.8,64.9 384,63.7 402.7,63 423.1,62.7 433.4,62.8 443.4,63 453,63.3 462.4,63.9 480.1,65.3 496.4,67.1 511.4,69.3 525.1,71.8 537.4,74.4 548.5,77 558.2,79.8 566.7,82.4 573.8,84.7 579.6,86.9 587.4,90.3 590,91.5 609.7,50 607.2,48.8 604.1,47.3 599.5,45.4 593.5,43.1 586,40.5 576.9,37.8 566.2,35 553.9,32.2 539.8,29.5 523.8,27 505.9,24.7 496.3,23.7 486.2,22.8 475.5,21.9 464.3,21.3 452.6,20.7 440.5,20.3 427.7,20 414.4,19.9 414.4,32.6 409.2,32.8 395,33.4 374.1,34.5 362,35.4 349.1,36.5 335.6,37.9 322,39.5 308.5,41.5 295.3,43.7 282.8,46.4 277,47.8 271.4,49.4 266,51.1 261,52.8 256.6,54.7 252.4,56.7 263.5,86.7 263.5,86.7 " style="fill:#F4F4F4; stroke:#BEBEBE; stroke-width:1; fill-opacity:1.0;"></polygon><polygon class="is-d epoly_east_suites" data-role="dynamic" points="212.1,461.9 214.4,463.6 217.6,465.5 222.1,468.1 228.3,471 236.1,474.4 245.7,477.9 257.2,481.6 270.5,485.2 278.1,487 286.1,488.8 294.7,490.5 303.9,492 313.6,493.6 324,495 334.9,496.4 346.5,497.6 358.6,498.6 371.5,499.4 385,500.2 399.2,500.7 414,501 429.6,501.1 435.4,500.9 450.8,500 473.3,498.4 486.4,497.2 500.2,495.8 514.5,494.1 529,492.1 543.2,489.9 556.9,487.4 569.8,484.5 575.8,483 581.3,481.3 586.6,479.5 591.6,477.7 595.9,475.8 599.7,473.8 586.4,441.3 584.5,442.6 581.9,444 578.2,445.8 573.2,448 566.7,450.4 558.8,453 549.4,455.7 538.2,458.4 525.2,460.9 510.4,463.3 493.6,465.5 474.8,467.4 464.5,468.1 453.7,468.7 442.3,469.3 430.4,469.7 417.9,469.9 404.7,470 399.1,469.8 384,468.9 373.6,468.2 361.6,467.2 348.5,465.8 334.6,464 320,461.8 305.1,459.2 290.3,456.1 283,454.3 275.7,452.4 268.7,450.4 261.8,448.1 255.1,445.7 248.8,443.3 242.7,440.5 236.9,437.6 231.5,434.6 226.6,431.3 212.1,461.9 212.1,461.9 " style="fill:#F4F4F4; stroke:#BEBEBE; stroke-width:1; fill-opacity:1.0;"></polygon></g><circle id="mctrmrk" cx="420.5" cy="264" r="1" stroke-width="0" stroke="#FFF" opacity="0"></circle><g id="svgsectionnames" style="opacity:1; font-size:5.766666666666667px;"><text data-sectionid="100" data-role="section" x="608.8" y="265.7">100</text><text data-sectionid="101" data-role="section" x="608.9" y="291.5">101</text><text data-sectionid="102" data-role="section" x="608.4" y="241.6">102</text><text data-sectionid="103" data-role="section" x="603.8" y="316.5">103</text><text data-sectionid="104" data-role="section" x="604" y="212.6">104</text><text data-sectionid="105" data-role="section" x="589.6" y="342.8">105</text><text data-sectionid="106" data-role="section" x="592.5" y="189.4">106</text><text data-sectionid="107" data-role="section" x="570.6" y="362.7">107</text><text data-sectionid="108" data-role="section" x="571.5" y="166.4">108</text><text data-sectionid="109" data-role="section" x="544.7" y="376.2">109</text><text data-sectionid="110" data-role="section" x="544" y="152.7">110</text><text data-sectionid="111" data-role="section" x="520.6" y="383.4">111</text><text data-sectionid="112" data-role="section" x="520.6" y="145.3">112</text><text data-sectionid="113" data-role="section" x="495" y="389.6">113</text><text data-sectionid="114" data-role="section" x="495.6" y="142.4">114</text><text data-sectionid="115" data-role="section" x="469.4" y="394.5">115</text><text data-sectionid="116" data-role="section" x="469.2" y="138.1">116</text><text data-sectionid="117" data-role="section" x="445.6" y="395.7">117</text><text data-sectionid="118" data-role="section" x="445.5" y="136.8">118</text><text data-sectionid="119" data-role="section" x="420.8" y="396.1">119</text><text data-sectionid="120" data-role="section" x="420.7" y="136.4">120</text><text data-sectionid="121" data-role="section" x="396" y="395.7">121</text><text data-sectionid="122" data-role="section" x="395.9" y="136.8">122</text><text data-sectionid="123" data-role="section" x="373.5" y="394.6">123</text><text data-sectionid="124" data-role="section" x="373.3" y="138">124</text><text data-sectionid="125" data-role="section" x="348.2" y="388">125</text><text data-sectionid="126" data-role="section" x="350.6" y="140.5">126</text><text data-sectionid="127" data-role="section" x="325.1" y="384.4">127</text><text data-sectionid="128" data-role="section" x="324.9" y="145">128</text><text data-sectionid="129" data-role="section" x="299.2" y="379.4">129</text><text data-sectionid="130" data-role="section" x="298.9" y="150.9">130</text><text data-sectionid="131" data-role="section" x="269.7" y="364.2">131</text><text data-sectionid="132" data-role="section" x="271.2" y="165.4">132</text><text data-sectionid="133" data-role="section" x="249.4" y="344.9">133</text><text data-sectionid="134" data-role="section" x="252.2" y="186.9">134</text><text data-sectionid="135" data-role="section" x="237.4" y="314.2">135</text><text data-sectionid="136" data-role="section" x="237.7" y="216.2">136</text><text data-sectionid="137" data-role="section" x="237" y="280.8">137</text><text data-sectionid="138" data-role="section" x="237" y="252.4">138</text><text data-sectionid="300" data-role="section" x="662.8" y="266.5">300</text><text data-sectionid="301" data-role="section" x="661.1" y="295.8">301</text><text data-sectionid="302" data-role="section" x="661.1" y="236.8">302</text><text data-sectionid="303" data-role="section" x="655.7" y="328.7">303</text><text data-sectionid="304" data-role="section" x="655.8" y="204.5">304</text><text data-sectionid="305" data-role="section" x="646" y="357.5">305</text><text data-sectionid="306" data-role="section" x="645.7" y="175.7">306</text><text data-sectionid="307" data-role="section" x="630.8" y="383.7">307</text><text data-sectionid="308" data-role="section" x="630.5" y="148.4">308</text><text data-sectionid="310" data-role="section" x="615.5" y="129.9" transform="rotate(-47.1253 615.5 129.9)">310</text><text data-sectionid="312" data-role="section" x="598.9" y="118">312</text><text data-sectionid="314" data-role="section" x="581.5" y="104.5" transform="rotate(-61.412 581.5 104.5)">314</text><text data-sectionid="316" data-role="section" x="555.7" y="94.6">316</text><text data-sectionid="318" data-role="section" x="526.5" y="88">318</text><text data-sectionid="320" data-role="section" x="498.9" y="82.9">320</text><text data-sectionid="322" data-role="section" x="470.7" y="79.7">322</text><text data-sectionid="324" data-role="section" x="443.8" y="78.2">324</text><text data-sectionid="326" data-role="section" x="421" y="77.7">326</text><text data-sectionid="328" data-role="section" x="397.8" y="78.2">328</text><text data-sectionid="330" data-role="section" x="371" y="79.7">330</text><text data-sectionid="332" data-role="section" x="343.3" y="82.8">332</text><text data-sectionid="334" data-role="section" x="315.3" y="88">334</text><text data-sectionid="336" data-role="section" x="286.8" y="94.6">336</text><text data-sectionid="338" data-role="section" x="260.7" y="104.3" transform="rotate(426.437 260.7 104.3)">338</text><text data-sectionid="340" data-role="section" x="243.5" y="117.5">340</text><text data-sectionid="342" data-role="section" x="226" y="128.4" transform="rotate(407.168 226 128.4)">342</text><text data-sectionid="344" data-role="section" x="213.2" y="146">344</text><text data-sectionid="345" data-role="section" x="211.8" y="384.8">345</text><text data-sectionid="346" data-role="section" x="199.6" y="167.4">346</text><text data-sectionid="347" data-role="section" x="199.3" y="364.6">347</text><text data-sectionid="348" data-role="section" x="189.8" y="190.7">348</text><text data-sectionid="349" data-role="section" x="189.4" y="341.7">349</text><text data-sectionid="350" data-role="section" x="184.3" y="211.5">350</text><text data-sectionid="351" data-role="section" x="184.2" y="320.6">351</text><text data-sectionid="352" data-role="section" x="180.8" y="236.2">352</text><text data-sectionid="353" data-role="section" x="180.8" y="296.4">353</text><text data-sectionid="354" data-role="section" x="179" y="266.2">354</text><text data-sectionid="403" data-role="section" x="614.8" y="399.9" transform="rotate(408.077 614.8 399.9)">403</text><text data-sectionid="405" data-role="section" x="603.7" y="411.9">405</text><text data-sectionid="407" data-role="section" x="580.7" y="425.5">407</text><text data-sectionid="409" data-role="section" x="553.7" y="437.2">409</text><text data-sectionid="411" data-role="section" x="526.8" y="444.9">411</text><text data-sectionid="413" data-role="section" x="498.9" y="449.9">413</text><text data-sectionid="415" data-role="section" x="471.4" y="453">415</text><text data-sectionid="417" data-role="section" x="445.4" y="454.5">417</text><text data-sectionid="419" data-role="section" x="421.3" y="455">419</text><text data-sectionid="421" data-role="section" x="397.2" y="454.5">421</text><text data-sectionid="423" data-role="section" x="371" y="453.1">423</text><text data-sectionid="425" data-role="section" x="343.3" y="450">425</text><text data-sectionid="427" data-role="section" x="315.4" y="444.9">427</text><text data-sectionid="429" data-role="section" x="287.6" y="437.5">429</text><text data-sectionid="431" data-role="section" x="261.2" y="425.7">431</text><text data-sectionid="433" data-role="section" x="237.2" y="411.1">433</text><text data-sectionid="435" data-role="section" x="224.2" y="396.3" transform="rotate(319.399 224.2 396.3)">435</text><text data-sectionid="470" data-role="section" x="603.6" y="100.5" transform="rotate(38.3493 603.6 100.5)">470</text><text data-sectionid="472" data-role="section" x="624.4" y="114.9" transform="rotate(48 624.4 114.9)">472</text><text data-sectionid="474" data-role="section" x="646.9" y="141.5" transform="rotate(60.4612 646.9 141.5)">474</text><text data-sectionid="476" data-role="section" x="661.3" y="166.6" transform="rotate(61.2824 661.3 166.6)">476</text><text data-sectionid="478" data-role="section" x="670.3" y="196.6" transform="rotate(77.9979 670.3 196.6)">478</text><text data-sectionid="480" data-role="section" x="677" y="233.1" transform="rotate(84.2894 677 233.1)">480</text><text data-sectionid="482" data-role="section" x="679.1" y="264.4" transform="rotate(90 679.1 264.4)">482</text><text data-sectionid="484" data-role="section" x="676.4" y="293.1" transform="rotate(95 676.4 293.1)">484</text><text data-sectionid="486" data-role="section" x="670.8" y="329.2" transform="rotate(104 670.8 329.2)">486</text><text data-sectionid="488" data-role="section" x="663" y="357.7" transform="rotate(109 663 357.7)">488</text><text data-sectionid="490" data-role="section" x="649.1" y="382.8" transform="rotate(118 649.1 382.8)">490</text><text data-sectionid="492" data-role="section" x="632.5" y="402.2" transform="rotate(132 632.5 402.2)">492</text><text data-sectionid="670" data-role="section" x="616.3" y="94.2" transform="rotate(30 616.3 94.2)">670</text><text data-sectionid="672" data-role="section" x="640.9" y="115.5" transform="rotate(45 640.9 115.5)">672</text><text data-sectionid="674" data-role="section" x="662.4" y="143.3" transform="rotate(61.0898 662.4 143.3)">674</text><text data-sectionid="676" data-role="section" x="676.1" y="172.6" transform="rotate(71.5651 676.1 172.6)">676</text><text data-sectionid="678" data-role="section" x="684.1" y="203.4" transform="rotate(79.4074 684.1 203.4)">678</text><text data-sectionid="680" data-role="section" x="688.3" y="233.2" transform="rotate(82.4054 688.3 233.2)">680</text><text data-sectionid="682" data-role="section" x="691.3" y="264" transform="rotate(90 691.3 264)">682</text><text data-sectionid="684" data-role="section" x="688.6" y="293.5" transform="rotate(95 688.6 293.5)">684</text><text data-sectionid="686" data-role="section" x="685.1" y="325.1" transform="rotate(103 685.1 325.1)">686</text><text data-sectionid="688" data-role="section" x="676.7" y="353.9" transform="rotate(109 676.7 353.9)">688</text><text data-sectionid="690" data-role="section" x="663.1" y="380.9" transform="rotate(118 663.1 380.9)">690</text><text data-sectionid="692" data-role="section" x="643" y="410" transform="rotate(132 643 410)">692</text><text data-sectionid="694" data-role="section" x="616.6" y="431.6" transform="rotate(138 616.6 431.6)">694</text><text data-sectionid="432S" data-role="section" x="253.3" y="90.7" transform="rotate(693.402 253.3 90.7)">432S</text><text data-sectionid="434S" data-role="section" x="237.6" y="99.6" transform="rotate(689.421 237.6 99.6)">434S</text><text data-sectionid="436S" data-role="section" x="222.4" y="110.9" transform="rotate(676.548 222.4 110.9)">436S</text><text data-sectionid="438S" data-role="section" x="207.6" y="125.4" transform="rotate(-48 207.6 125.4)">438S</text><text data-sectionid="440S" data-role="section" x="193.6" y="142.6" transform="rotate(659.982 193.6 142.6)">440S</text><text data-sectionid="442S" data-role="section" x="183.2" y="162.1" transform="rotate(653.145 183.2 162.1)">442S</text><text data-sectionid="443S" data-role="section" x="197.1" y="393.1" transform="rotate(414.287 197.1 393.1)">443S</text><text data-sectionid="444S" data-role="section" x="170" y="199.6" transform="rotate(641.31 170 199.6)">444S</text><text data-sectionid="445S" data-role="section" x="170.4" y="324.7" transform="rotate(255 170.4 324.7)">445S</text><text data-sectionid="446S" data-role="section" x="167.2" y="219.7" transform="rotate(638.139 167.2 219.7)">446S</text><text data-sectionid="447S" data-role="section" x="166.3" y="305.7" transform="rotate(260 166.3 305.7)">447S</text><text data-sectionid="448S" data-role="section" x="165" y="240.2" transform="rotate(635.961 165 240.2)">448S</text><text data-sectionid="449S" data-role="section" x="164.2" y="285.3" transform="rotate(265 164.2 285.3)">449S</text><text data-sectionid="450S" data-role="section" x="163.9" y="263.3" transform="rotate(270 163.9 263.3)">450S</text><text data-sectionid="630S" data-role="section" x="245.6" y="77.9" transform="rotate(425.65 245.6 77.9)">630S</text><text data-sectionid="632S" data-role="section" x="229.6" y="86.1" transform="rotate(417.2 229.6 86.1)">632S</text><text data-sectionid="634S" data-role="section" x="214.5" y="98.1" transform="rotate(410.22 214.5 98.1)">634S</text><text data-sectionid="635S" data-role="section" x="215.8" y="432.4" transform="rotate(307.694 215.8 432.4)">635S</text><text data-sectionid="636S" data-role="section" x="200.2" y="110.9" transform="rotate(401.965 200.2 110.9)">636S</text><text data-sectionid="637S" data-role="section" x="199" y="419" transform="rotate(316.548 199 419)">637S</text><text data-sectionid="638S" data-role="section" x="186.4" y="124.8" transform="rotate(395.789 186.4 124.8)">638S</text><text data-sectionid="639S" data-role="section" x="185.2" y="403.9" transform="rotate(322.907 185.2 403.9)">639S</text><text data-sectionid="640S" data-role="section" x="174.7" y="143" transform="rotate(391.771 174.7 143)">640S</text><text data-sectionid="641S" data-role="section" x="174.2" y="386.3" transform="rotate(329.826 174.2 386.3)">641S</text><text data-sectionid="642S" data-role="section" x="166.3" y="160" transform="rotate(381.801 166.3 160)">642S</text><text data-sectionid="643S" data-role="section" x="165.1" y="368.7" transform="rotate(337.557 165.1 368.7)">643S</text><text data-sectionid="644S" data-role="section" x="157.1" y="200.8" transform="rotate(642.935 157.1 200.8)">644S</text><text data-sectionid="645S" data-role="section" x="156.3" y="323.3" transform="rotate(255 156.3 323.3)">645S</text><text data-sectionid="646S" data-role="section" x="151.8" y="232.5" transform="rotate(636.335 151.8 232.5)">646S</text><text data-sectionid="647S" data-role="section" x="152.6" y="294.9" transform="rotate(263 152.6 294.9)">647S</text><text data-sectionid="648S" data-role="section" x="150.1" y="262.5" transform="rotate(270 150.1 262.5)">648S</text><text data-sectionid="730S" data-role="section" x="232.4" y="52.9">730S</text><text data-sectionid="732S" data-role="section" x="214.5" y="63.2">732S</text><text data-sectionid="734S" data-role="section" x="196" y="75.7">734S</text><text data-sectionid="735S" data-role="section" x="194.1" y="457.7">735S</text><text data-sectionid="736S" data-role="section" x="179" y="91.1">736S</text><text data-sectionid="737S" data-role="section" x="174.5" y="442.4">737S</text><text data-sectionid="738S" data-role="section" x="164.1" y="109.2">738S</text><text data-sectionid="739S" data-role="section" x="160.3" y="423.2">739S</text><text data-sectionid="740S" data-role="section" x="151.2" y="129.6">740S</text><text data-sectionid="741S" data-role="section" x="146.1" y="402.8">741S</text><text data-sectionid="742S" data-role="section" x="141.4" y="150.4">742S</text><text data-sectionid="743S" data-role="section" x="137.6" y="381.6">743S</text><text data-sectionid="744S" data-role="section" x="136" y="194.1">744S</text><text data-sectionid="745S" data-role="section" x="135.4" y="336.2">745S</text><text data-sectionid="746S" data-role="section" x="131.7" y="218.2">746S</text><text data-sectionid="747S" data-role="section" x="131.5" y="313.2">747S</text><text data-sectionid="748S" data-role="section" x="129.5" y="241.3">748S</text><text data-sectionid="749S" data-role="section" x="129.3" y="290.3">749S</text><text data-sectionid="750S" data-role="section" x="128.6" y="265.8">750S</text><text data-sectionid="champ_club" data-role="section" x="111.8" y="259.5" transform="rotate(-90 111.8 259.5)">Champions Club</text><text class="is-d dyn-name-bench bench_visitor" text-anchor="middle" x="418.5" y="324.5" style="fill:#666; font-size:5.9px; " dominant-baseline="central" data-offset="0|0.3" null="">VISITOR</text><text class="is-d dyn-name-bench bench_home" text-anchor="middle" x="419.5" y="203.9" style="fill:#FFF; font-size:5.9px; " dominant-baseline="central" data-offset="0|0.3" null="">HOME</text><text class="is-d " text-anchor="middle" x="714.4" y="269.2" style="fill:#999; font-size:5.9px; " dominant-baseline="central" data-offset="0|0.3" transform="rotate(90 714.4 269.2)">VIDEOBOARD</text><text class="is-d " text-anchor="middle" x="86.4" y="264.7" style="fill:#999; font-size:5.9px; " dominant-baseline="central" data-offset="0|0.3" transform="rotate(-90 86.4 264.7)">VIDEOBOARD</text><text class="is-d " text-anchor="middle" x="324" y="32.3" style="fill:#999; font-size:5.9px; " dominant-baseline="central" data-offset="0|0.3" transform="rotate(352 324 32.3)">PRESS BOX</text><text class="is-d " text-anchor="middle" x="433.6" y="48.3" style="fill:#999; font-size:11.9px; " dominant-baseline="central" data-offset="0|0.3" null="">WEST SUITES</text><text class="is-d " text-anchor="middle" x="420.7" y="488.3" style="fill:#999; font-size:11.9px; " dominant-baseline="central" data-offset="0|0.3" null="">EAST SUITES</text></g></g><circle id="svgZoomCenter" r="1" stroke-width="0" fill-opacity="0" cx="361.05" cy="259.5"></circle><circle id="svgNorthWest" r="1" stroke-width="0" fill-opacity="0" cx="0" cy="0"></circle><circle id="svgSouthEast" r="1" stroke-width="0" fill-opacity="0" cx="794" cy="519"></circle><g id="svgmarkers" style="font-size: 10.3px;"><circle id="svg-marker-hover" data-ticket="" style="display: none;"></circle><g transform="translate(355.2,72.8) scale(1)" class="ticket-marker flag-with-arrow" data-ticket="124~57" data-mrkgrp="default" data-match="1"><use href="#flag-with-arrow-medium" xlink:href="#flag-with-arrow"></use><text data-role="label" x="18" y="9">$152</text></g><g transform="translate(121.6,124.4) scale(1)" class="ticket-marker flag-with-arrow" data-ticket="742S~11" data-mrkgrp="default" data-match="1"><use href="#flag-with-arrow-medium" xlink:href="#flag-with-arrow"></use><text data-role="label" x="18" y="9">$337</text></g><g transform="translate(171.9,343.5) scale(1)" class="ticket-marker flag-with-arrow" data-ticket="347~9" data-mrkgrp="default" data-match="1"><use href="#flag-with-arrow-medium" xlink:href="#flag-with-arrow"></use><text data-role="label" x="18" y="9">$355</text></g><g transform="translate(601.8,148) scale(1)" class="ticket-marker flag-with-arrow" data-ticket="106~55" data-mrkgrp="default" data-match="1"><use href="#flag-with-arrow-medium" xlink:href="#flag-with-arrow"></use><text data-role="label" x="18" y="9">$361</text></g><g transform="translate(625.3,240.5) scale(1)" class="ticket-marker flag-with-arrow" data-ticket="100~57" data-mrkgrp="default" data-match="1"><use href="#flag-with-arrow-medium" xlink:href="#flag-with-arrow"></use><text data-role="label" x="18" y="9">$361</text></g><g transform="translate(617.4,298.3) scale(1)" class="ticket-marker flag-with-arrow" data-ticket="103~56" data-mrkgrp="default" data-match="1"><use href="#flag-with-arrow-medium" xlink:href="#flag-with-arrow"></use><text data-role="label" x="18" y="9">$361</text></g><g transform="translate(229.9,114.7) scale(1)" class="ticket-marker flag-with-arrow" data-ticket="132~56" data-mrkgrp="default" data-match="1"><use href="#flag-with-arrow-medium" xlink:href="#flag-with-arrow"></use><text data-role="label" x="18" y="9">$361</text></g><g transform="translate(189,294.4) scale(1)" class="ticket-marker flag-with-arrow" data-ticket="135~55" data-mrkgrp="default" data-match="1"><use href="#flag-with-arrow-medium" xlink:href="#flag-with-arrow"></use><text data-role="label" x="18" y="9">$361</text></g><g transform="translate(183.5,225.2) scale(1)" class="ticket-marker flag-with-arrow" data-ticket="138~55" data-mrkgrp="default" data-match="1"><use href="#flag-with-arrow-medium" xlink:href="#flag-with-arrow"></use><text data-role="label" x="18" y="9">$362</text></g><g transform="translate(574.3,364.9) scale(1)" class="ticket-marker flag-with-arrow" data-ticket="107~55" data-mrkgrp="default" data-match="1"><use href="#flag-with-arrow-medium" xlink:href="#flag-with-arrow"></use><text data-role="label" x="18" y="9">$367</text></g><g transform="translate(240.3,362.7) scale(1)" class="ticket-marker flag-with-arrow" data-ticket="131~50" data-mrkgrp="default" data-match="1"><use href="#flag-with-arrow-medium" xlink:href="#flag-with-arrow"></use><text data-role="label" x="18" y="9">$367</text></g><g transform="translate(117,307.4) scale(1)" class="ticket-marker flag-with-arrow" data-ticket="745S~19" data-mrkgrp="default" data-match="1"><use href="#flag-with-arrow-medium" xlink:href="#flag-with-arrow"></use><text data-role="label" x="18" y="9">$367</text></g><g transform="translate(648.5,179.2) scale(1)" class="ticket-marker flag-with-arrow" data-ticket="304~9" data-mrkgrp="default" data-match="1"><use href="#flag-with-arrow-medium" xlink:href="#flag-with-arrow"></use><text data-role="label" x="18" y="9">$391</text></g><g transform="translate(185.1,182.9) scale(1)" class="ticket-marker flag-with-arrow" data-ticket="136~58" data-mrkgrp="default" data-match="1"><use href="#flag-with-arrow-medium" xlink:href="#flag-with-arrow"></use><text data-role="label" x="18" y="9">$399</text></g><g transform="translate(555.5,140.7) scale(1)" class="ticket-marker flag-with-arrow" data-ticket="108~34" data-mrkgrp="default" data-match="1"><use href="#flag-with-arrow-medium" xlink:href="#flag-with-arrow"></use><text data-role="label" x="18" y="9">$439</text></g><g transform="translate(132,74.7) scale(1)" class="ticket-marker flag-with-arrow" data-ticket="738S~19" data-mrkgrp="default" data-match="1"><use href="#flag-with-arrow-medium" xlink:href="#flag-with-arrow"></use><text data-role="label" x="18" y="9">$515</text></g><g transform="translate(504.4,374.1) scale(1)" class="ticket-marker flag-with-arrow" data-ticket="111~40" data-mrkgrp="default" data-match="1"><use href="#flag-with-arrow-medium" xlink:href="#flag-with-arrow"></use><text data-role="label" x="18" y="9">$546</text></g><g transform="translate(540.4,93.7) scale(1)" class="ticket-marker flag-with-arrow" data-ticket="110~56" data-mrkgrp="default" data-match="1"><use href="#flag-with-arrow-medium" xlink:href="#flag-with-arrow"></use><text data-role="label" x="18" y="9">$552</text></g><g transform="translate(301.6,399.1) scale(1)" class="ticket-marker flag-with-arrow" data-ticket="127~56" data-mrkgrp="default" data-match="1"><use href="#flag-with-arrow-medium" xlink:href="#flag-with-arrow"></use><text data-role="label" x="18" y="9">$570</text></g><g transform="translate(303,81.9) scale(1)" class="ticket-marker flag-with-arrow" data-ticket="128~56" data-mrkgrp="default" data-match="1"><use href="#flag-with-arrow-medium" xlink:href="#flag-with-arrow"></use><text data-role="label" x="18" y="9">$642</text></g><g transform="translate(454.7,406.3) scale(1)" class="ticket-marker flag-with-arrow" data-ticket="115~56" data-mrkgrp="default" data-match="1"><use href="#flag-with-arrow-medium" xlink:href="#flag-with-arrow"></use><text data-role="label" x="18" y="9">$654</text></g><g transform="translate(452.5,75.5) scale(1)" class="ticket-marker flag-with-arrow" data-ticket="116~55" data-mrkgrp="default" data-match="1"><use href="#flag-with-arrow-medium" xlink:href="#flag-with-arrow"></use><text data-role="label" x="18" y="9">$654</text></g><g transform="translate(354.4,406.7) scale(1)" class="ticket-marker flag-with-arrow" data-ticket="123~56" data-mrkgrp="default" data-match="1"><use href="#flag-with-arrow-medium" xlink:href="#flag-with-arrow"></use><text data-role="label" x="18" y="9">$715</text></g><g transform="translate(672.4,302.7) scale(1)" class="ticket-marker flag-with-arrow" data-ticket="686~5" data-mrkgrp="default" data-match="1"><use href="#flag-with-arrow-medium" xlink:href="#flag-with-arrow"></use><text data-role="label" x="18" y="9">$832</text></g><g transform="translate(629.9,390.3) scale(1)" class="ticket-marker flag-with-arrow" data-ticket="692~5" data-mrkgrp="default" data-match="1"><use href="#flag-with-arrow-medium" xlink:href="#flag-with-arrow"></use><text data-role="label" x="18" y="9">$919</text></g><g transform="translate(650.7,114.3) scale(1)" class="ticket-marker flag-with-arrow" data-ticket="674~6" data-mrkgrp="default" data-match="1"><use href="#flag-with-arrow-medium" xlink:href="#flag-with-arrow"></use><text data-role="label" x="18" y="9">$938</text></g><g transform="translate(402.8,73.6) scale(1)" class="ticket-marker flag-with-arrow" data-ticket="120~55" data-mrkgrp="default" data-match="1"><use href="#flag-with-arrow-medium" xlink:href="#flag-with-arrow"></use><text data-role="label" x="18" y="9">$988</text></g><g transform="translate(403.4,408.5) scale(1)" class="ticket-marker flag-with-arrow" data-ticket="119~56" data-mrkgrp="default" data-match="1"><use href="#flag-with-arrow-medium" xlink:href="#flag-with-arrow"></use><text data-role="label" x="18" y="9">$999</text></g><g transform="translate(425.5,362.1) scale(1)" class="ticket-marker flag-with-arrow" data-ticket="117~26" data-mrkgrp="default" data-match="1"><use href="#flag-with-arrow" xlink:href="#flag-with-arrow"></use><text data-role="label" x="20" y="9">$1480</text></g><g transform="translate(424.3,126.2) scale(1)" class="ticket-marker flag-with-arrow" data-ticket="118~21" data-mrkgrp="default" data-match="1"><use href="#flag-with-arrow" xlink:href="#flag-with-arrow"></use><text data-role="label" x="20" y="9">$1751</text></g></g>undefined</g><circle id="svgZoomCenterLoad" r="1" stroke-width="0" fill-opacity="0" cx="397" cy="259.5"></circle></g></g></svg>