<svg xmlns="http://www.w3.org/2000/svg" xmlns:xlink="http://www.w3.org/1999/xlink" id="svgmap" width="100%" height="100%" style="touch-action: none;" viewBox="138.6 -22.1 529.6 553.3"><style>
polygon[id^="spoly_"] { fill: #d0d8e4; stroke: #7a8fa6; stroke-width: 2; }
polygon[id^="spoly_"]:hover { fill: #5b8ccc; cursor: pointer; }
.svgText { font-family: Arial, sans-serif; fill: #333; font-size: 9px; }
</style>
         <g id="svgdefs"><defs id="svgdefstyle">
      <linearGradient id="ticketGradient" x1="0%" y1="0%" x2="100%" y2="0%"><stop offset="0%" stop-color="#840ac9"></stop><stop offset="30%" stop-color="#d60eb2"></stop><stop offset="50%" stop-color="#fa0b81"></stop><stop offset="100%" stop-color="#fa0b81"></stop></linearGradient>
      <radialGradient id="markerGradient" cx="50%" cy="50%" r="50%"><stop offset="0%" stop-color="#fa0b81"></stop><stop offset="95%" stop-color="#d60eb2"></stop><stop offset="100%" stop-color="#840ac9"></stop></radialGradient>
      <linearGradient id="flagGradient" x1="0%" y1="0%" x2="100%" y2="100%">
         <stop offset="0%" stop-color="#840ac9"></stop>
         <stop offset="40%" stop-color="#d60eb2"></stop>
         <stop offset="80%" stop-color="#fa0b81"></stop>
         <stop offset="100%" stop-color="#c40665"></stop> 
      </linearGradient>      
      <linearGradient id="svgmapticket" x1="0%" y1="0%" x2="0%" y2="100%"><stop offset="0%" style="stop-color:#5BADFF;stop-opacity:1"></stop><stop offset="100%" style="stop-color:#0066CC;stop-opacity:1"></stop></linearGradient><linearGradient id="svgdealticket" x1="0%" y1="0%" x2="0%" y2="100%"> <stop offset="0%" style="stop-color:#66FF00;stop-opacity:1"></stop><stop offset="100%" style="stop-color:#61C100;stop-opacity:1"></stop></linearGradient><linearGradient id="svggreatticket" x1="0%" y1="0%" x2="0%" y2="100%"><stop offset="0%" style="stop-color:#00CC33;stop-opacity:1"></stop><stop offset="100%" style="stop-color:#009100;stop-opacity:1"></stop></linearGradient><filter id="coinShadow" x="-40%" y="-40%" width="200%" height="200%">            <feGaussianBlur in="SourceAlpha" stdDeviation="3"></feGaussianBlur><feOffset dx="2" dy="2" result="offsetblur"></feOffset><feMerge><feMergeNode></feMergeNode><feMergeNode in="SourceGraphic"></feMergeNode></feMerge></filter><path id="flag-with-arrow" d="M 9.33,0 L 32,0 A 8,8 0 0 1 32,16 L 25.33,16 L 20,20.67 L 14.67,16 L 8,16 A 8,8 0 0 1 8,0 Z"></path><path id="flag-with-arrow-medium" d="M 8,0 L 28,0 A 8,8 0 0 1 28,16 L 23.33,16 L 18,20.67 L 12.67,16 L 8,16 A 8,8 0 0 1 8,0 Z"></path><path id="flag-with-arrow-small" d="M 8,0 L 24,0 A 8,8 0 0 1 24,16 L 20,16 L 16,20.67 L 12,16 L 8,16 A 8,8 0 0 1 8,0 Z"></path></defs>  </g>
         <g class="testmask" mask="url(#fade)" style="scale: 0.95; transform-origin:center;">
         <g id="viewport" transform="matrix(1,0,0,1,0,0)" data-zoomfactor="100"><g id="scaleSVG" data-scale="1" transform="scale(1)" class="testrotate"><g id="svgelements"><image id="svgOverlay" class="nopointereventsmap" xlink:href="/assets/images/venues/overlays/qwest-field-nfl_8-2019.png" x="-123.3" y="-117.5" width="1048.2px" height="744.4px"></image><g id="svgpolygroup"><polygon id="spoly_100" data-role="section" data-sectionid="100" data-angle="27.3" points="254.6,179.9 230.2,164.9 226.6,171 225.1,173.4 225.1,173.4 225.1,173.4 249.8,186.9 254.6,179.9 259.4,182.9 255.7,188.7 254,194.1 269,196.8 264.2,176.2 264.2,176.2 264.2,176.2 262.2,178.6 259.4,182.9 "></polygon><polygon id="spoly_101" data-role="section" data-sectionid="101" data-angle="36.6" points="255.9,178.1 260.8,171.1 257.4,158.1 243.8,147.1 240.3,151.2 237,155.3 231.5,163.1 255.9,178.1 255.9,178.1 "></polygon><polygon id="spoly_102" data-role="section" data-sectionid="102" data-angle="59.6" points="258.5,156.1 254,137.4 249.6,141.1 245.4,145.4 258.5,156.1 258.5,156.1 "></polygon><polygon id="spoly_103" data-role="section" data-sectionid="103" data-angle="78.8" points="259.7,157 261.4,163.8 265.5,162.8 271.7,161.5 270.6,154.6 259.7,157 259.7,157 "></polygon><polygon id="spoly_104" data-role="section" data-sectionid="104" data-angle="77.9" points="274.4,164.2 279.5,189.8 292.6,187.7 286.4,151.6 272.7,154.1 274.4,164.2 274.4,164.2 "></polygon><polygon id="spoly_105" data-role="section" data-sectionid="105" data-angle="65.5" points="294.9,187.4 314.6,184.7 310.1,147.9 298.7,149.5 288.5,151.2 294.9,187.4 294.9,187.4 "></polygon><polygon id="spoly_106" data-role="section" data-sectionid="106" data-angle="113.8" points="316.8,184.4 334.4,182.5 331.3,145.5 312.3,147.6 316.8,184.4 316.8,184.4 "></polygon><polygon id="spoly_107" data-role="section" data-sectionid="107" data-angle="98" points="336.7,182.3 354.3,180.9 352.4,144.1 333.5,145.4 336.7,182.3 336.7,182.3 "></polygon><polygon id="spoly_108" data-role="section" data-sectionid="108" data-angle="91.8" points="356.6,180.8 365.8,180.3 374.9,180.2 374.2,143.4 354.6,143.9 356.6,180.8 356.6,180.8 "></polygon><polygon id="spoly_109" data-role="section" data-sectionid="109" data-angle="90" points="400.1,143.4 400.1,143.4 376.8,143.4 376.4,143.4 377.1,180.2 377.4,180.2 399.3,180.2 400.1,143.4 400.1,143.4 "></polygon><polygon id="spoly_110" data-role="section" data-sectionid="110" data-angle="82.7" points="402.3,143.4 401.6,180.2 419.2,180.9 421.1,144.4 402.3,143.4 401.9,143.4 402.3,143.4 402.3,143.4 "></polygon><polygon id="spoly_111" data-role="section" data-sectionid="111" data-angle="141.8" points="421.4,181.1 439.1,182.2 442.5,145.9 423.4,144.5 421.4,181.1 421.4,181.1 "></polygon><polygon id="spoly_112" data-role="section" data-sectionid="112" data-angle="102.1" points="441.4,182.5 458.9,184 463.7,148.2 444.8,146.2 441.4,182.5 441.4,182.5 "></polygon><polygon id="spoly_113" data-role="section" data-sectionid="113" data-angle="97.8" points="461.2,184.3 471.5,185.6 481.6,187 487.2,151.3 466,148.5 461.2,184.3 461.2,184.3 "></polygon><polygon id="spoly_114" data-role="section" data-sectionid="114" data-angle="100.1" points="483.8,187.4 496.3,189.8 497.6,183.5 503.2,154.1 489.5,151.7 483.8,187.4 483.8,187.4 "></polygon><polygon id="spoly_115" data-role="section" data-sectionid="115" data-angle="107.5" points="503.4,165.2 511.7,166.7 514.4,156.5 505.5,154.6 503.4,165.2 503.4,165.2 "></polygon><polygon id="spoly_116" data-role="section" data-sectionid="116" data-angle="160.9" points="528.4,161.3 550,145.4 542.5,134.6 535.9,125.6 529.7,117.2 529.7,117.2 529.7,117.2 526,131 520.9,152.9 524.6,156.7 528.4,161.3 525.1,163.8 519.8,157.6 519.8,157.6 519.8,157.6 517,169.9 525.1,163.8 "></polygon><polygon id="spoly_117" data-role="section" data-sectionid="117" data-angle="140.9" points="534.1,177 530.6,171.3 526.5,165.7 526.5,165.7 526.5,165.7 514.3,174.7 509.6,192 534.1,177 537.6,174.9 560.1,161.1 551.2,147.4 551.2,147.4 551.2,147.4 529.9,163.1 534,168.9 537.6,174.9 "></polygon><polygon id="spoly_118" data-role="section" data-sectionid="118" data-angle="132.4" points="538.8,176.8 541,181.5 541,181.5 541,181.5 541,181.5 543,187.5 545,195.5 570.9,191 567.6,176.7 566.2,171.3 561.4,163 561.4,163 561.4,163 538.8,176.8 535.1,179 535.1,179 535.1,179 508.8,195.1 506.4,202.1 540.8,196.2 538.9,188.7 537.1,183.1 537.1,183.1 535.1,179 "></polygon><polygon id="spoly_119" data-role="section" data-sectionid="119" data-angle="145.6" points="541.3,198.4 504,204.9 503.4,205.5 505,214.8 543.2,209.7 541.3,198.4 541.3,198.4 541.3,198.4 545.4,197.7 547.4,209.1 573.6,205.7 571.3,193.3 571.3,193.3 571.3,193.3 545.4,197.7 "></polygon><polygon id="spoly_120" data-role="section" data-sectionid="120" data-angle="145.6" points="545.3,226.6 543.6,212 543.6,212 543.6,212 505.2,217.1 506.7,229.4 545.3,226.6 549.5,226.3 576,224.3 575,215.9 573.9,208 573.9,208 573.9,208 547.8,211.4 549.5,226.3 "></polygon><polygon id="spoly_121" data-role="section" data-sectionid="121" data-angle="149.2" points="546.7,244 545.6,228.8 545.6,228.8 545.6,228.8 509.8,231.4 509.8,234.2 506.9,234.2 507.2,240.7 507.2,244.8 546.7,244 550.9,243.8 577,243.3 576.7,234.9 576.1,226.6 576.1,226.6 576.1,226.6 549.8,228.4 550.9,243.8 "></polygon><polygon id="spoly_122" data-role="section" data-sectionid="122" data-angle="180" points="546.7,263.5 546.7,246.2 546.7,246.2 546.7,246.2 507.2,247.1 507.2,248.2 507.2,261.4 507.2,262.7 546.7,263.5 550.9,263.5 577,264.1 577,264.1 577,264.1 577,261.4 577,248.2 577,245.5 550.9,246.1 550.9,263.5 "></polygon><polygon id="spoly_123" data-role="section" data-sectionid="123" data-angle="210.8" points="546.6,265.8 507.2,264.9 507.2,268.9 506.9,275.4 509.8,275.4 509.8,278.2 545.4,280.9 546.6,265.8 546.6,265.8 546.6,265.8 550.8,265.8 549.7,281.2 576.1,283.2 576.1,283.2 576.1,283.2 576.7,274.7 577,266.3 550.8,265.8 "></polygon><polygon id="spoly_124" data-role="section" data-sectionid="124" data-angle="216.2" points="545.3,283 506.7,280.2 505.2,292.5 543.4,297.6 545.3,283 545.3,283 545.3,283 549.5,283.5 547.7,298.2 573.9,301.7 573.9,301.7 573.9,301.7 575,293.7 576,285.3 549.5,283.5 "></polygon><polygon id="spoly_125" data-role="section" data-sectionid="125" data-angle="214.4" points="543.2,299.9 505,294.8 503.4,304.1 504,304.8 541.2,311.2 543.2,299.9 543.2,299.9 543.2,299.9 547.3,300.5 545.3,311.9 571.3,316.3 571.3,316.3 571.3,316.3 573.6,304 547.3,300.5 "></polygon><polygon id="spoly_126" data-role="section" data-sectionid="126" data-angle="227.4" points="537.1,325.8 538.9,320.6 540.6,313.3 540.6,313.3 540.6,313.3 506.4,307.5 508.8,314.5 534.8,330.5 537.1,325.8 540.9,327.5 540.9,327.5 538.5,332.6 561.4,346.6 561.4,346.6 561.4,346.6 566.2,338.3 567.6,332.9 570.9,318.6 544.9,314 543,321.7 540.9,327.5 "></polygon><polygon id="spoly_127" data-role="section" data-sectionid="127" data-angle="219.9" points="526.2,343.8 530.1,338 533.8,332.4 533.8,332.4 533.8,332.4 509.6,317.6 514.3,334.9 526.2,343.8 529.6,346.2 551.2,362.3 551.2,362.3 551.2,362.3 560.1,348.6 537.4,334.6 533.7,340.5 529.6,346.2 "></polygon><polygon id="spoly_128" data-role="section" data-sectionid="128" data-angle="197.5" points="524.8,345.5 517,339.8 519.7,351.4 524.8,345.5 524.8,345.5 524.8,345.5 528.2,348 524.3,352.5 520.9,356.2 526,378.7 529.7,392.3 529.7,392.3 529.7,392.3 535.9,384 542.5,374.9 550,364.2 528.2,348 "></polygon><polygon id="spoly_129" data-role="section" data-sectionid="129" data-angle="255.2" points="503.4,343.6 505.5,354.2 514.4,352.2 511.7,342 503.4,343.6 503.4,343.6 "></polygon><polygon id="spoly_130" data-role="section" data-sectionid="130" data-angle="258.8" points="489.5,356.6 503.1,354.2 496.6,318.9 483.7,321 "></polygon><polygon id="spoly_131" data-role="section" data-sectionid="131" data-angle="261.2" points="481.7,321.1 461.6,323.5 466.4,363.4 477.2,362 487.8,360.3 481.7,321.1 481.7,321.1 "></polygon><polygon id="spoly_132" data-role="section" data-sectionid="132" data-angle="256.7" points="444.6,365.5 464.2,363.7 459.6,323.9 441.5,325.6 "></polygon><polygon id="spoly_133" data-role="section" data-sectionid="133" data-angle="195.3" points="439.3,325.9 421.3,327.3 423.8,366.8 442.4,365.7 439.3,325.9 439.3,325.9 "></polygon><polygon id="spoly_134" data-role="section" data-sectionid="134" data-angle="275.7" points="401.9,367.6 421.6,366.9 419.1,327.6 401.4,328.1 "></polygon><polygon id="spoly_135" data-role="section" data-sectionid="135" data-angle="270" points="399.2,328 398.9,328 376.8,328 376.6,328 376.1,367.6 376.3,367.6 399.5,367.6 399.6,367.6 399.2,328 "></polygon><polygon id="spoly_136" data-role="section" data-sectionid="136" data-angle="271" points="354.8,367.1 364.2,367.5 373.9,367.6 374.4,328 356.3,327.3 "></polygon><polygon id="spoly_137" data-role="section" data-sectionid="137" data-angle="264.5" points="354.2,327.2 336.8,326 333.4,365.5 352.5,366.9 354.2,327.2 354.2,327.2 "></polygon><polygon id="spoly_138" data-role="section" data-sectionid="138" data-angle="240.2" points="311.5,363.1 331.3,365.4 334.8,325.9 316.7,324.3 "></polygon><polygon id="spoly_139" data-role="section" data-sectionid="139" data-angle="293.2" points="314.7,324.1 294.5,321.4 288.3,359.4 297.9,361.1 309.2,362.7 314.7,324.1 314.7,324.1 "></polygon><polygon id="spoly_140" data-role="section" data-sectionid="140" data-angle="281.2" points="272.5,354.3 286.4,356.7 292.2,321.1 279.3,318.7 "></polygon><polygon id="spoly_141" data-role="section" data-sectionid="141" data-angle="286" points="259.7,351.8 270.6,354.2 271.7,347.3 265.5,346 261.4,345 259.7,351.8 259.7,351.8 "></polygon><polygon id="spoly_142" data-role="section" data-sectionid="142" data-angle="304.4" points="258.5,353.2 245.4,364 249.6,368.2 254,371.9 258.5,353.2 258.5,353.2 "></polygon><polygon id="spoly_143" data-role="section" data-sectionid="143" data-angle="326.7" points="255.9,331.3 231.5,346.3 237,354.1 240.3,358.2 243.8,362.3 257.4,351.2 260.8,338.2 255.9,331.3 255.9,331.3 "></polygon><polygon id="spoly_144" data-role="section" data-sectionid="144" data-angle="331.7" points="254.6,329.3 249.8,322.5 225.1,335.9 225.1,335.9 225.1,335.9 226.6,338.3 230.2,344.4 254.6,329.3 259.4,325.9 262.2,330.1 264.2,332.5 264.2,332.5 264.2,332.5 269,312 254,314.7 255.7,320.1 259.4,325.9 "></polygon><polygon id="spoly_145" data-role="section" data-sectionid="145" data-angle="349.4" points="248.7,312.6 263,309.8 261.6,303.5 260.4,295.6 246.5,297.3 247.5,305.2 248.7,312.6 248.7,312.6 "></polygon><polygon id="spoly_146" data-role="section" data-sectionid="146" data-angle="360" points="246.2,295 245.4,286.3 238.2,286.3 211.4,286.3 211.4,287.1 238.2,299.1 238.2,286.3 245.4,286.3 245,281.6 258.7,280.5 260.1,293.3 260.1,293.3 260.1,293.3 "></polygon><polygon id="spoly_147" data-role="section" data-sectionid="147" data-angle="360" points="258.6,278.2 257.6,265.2 244,265.5 244.2,269.8 238.2,269.8 238.2,255.8 187.8,255.8 187.8,269.1 210.9,284.1 238.2,284.1 238.2,269.8 244.2,269.8 244.7,279.3 244.7,279.3 244.7,279.3 "></polygon><polygon id="spoly_148" data-role="section" data-sectionid="148" data-angle="360" points="244,245.6 244,251 244,257.8 244,263.2 257.6,262.9 257.6,257.8 257.6,251 257.6,245.9 244,245.6 "></polygon><polygon id="spoly_149" data-role="section" data-sectionid="149" data-angle="360" points="258.5,230.6 244.7,229.5 244.2,239 238.2,239 238.2,253.5 187.8,253.5 187.8,240.2 211,225.3 238.2,225.3 238.2,239 244.2,239 244,243.3 257.6,243.6 257.6,243.6 257.6,243.6 "></polygon><polygon id="spoly_150" data-role="section" data-sectionid="150" data-angle="360" points="246.1,213.8 245.4,223 238.2,223 211.5,223 211.5,222.1 238.2,210.5 238.2,223 245.4,223 245.1,227.1 258.9,228.3 260.2,215.6 260.2,215.6 260.2,215.6 "></polygon><polygon id="spoly_151" data-role="section" data-sectionid="151" data-angle="10.6" points="248.7,196.2 247.5,203.6 246.5,211.5 260.4,213.2 261.6,205.3 263,199 248.7,196.2 248.7,196.2 "></polygon><polygon id="spoly_203" data-role="section" data-sectionid="203" data-angle="77.6" points="260,152.3 266.9,150.6 259.4,112.3 250.8,114.2 260,152.3 260,152.3 "></polygon><polygon id="spoly_204" data-role="section" data-sectionid="204" data-angle="78.5" points="269.2,150.2 285.6,147.1 279.1,108.8 261.7,111.9 269.2,150.2 269.2,150.2 "></polygon><polygon id="spoly_205" data-role="section" data-sectionid="205" data-angle="75.1" points="287.8,146.6 297.7,145.2 308.9,143.7 304.7,108.1 281.7,111.5 287.8,146.6 287.8,146.6 "></polygon><polygon id="spoly_206" data-role="section" data-sectionid="206" data-angle="140.1" points="311,143.4 330.4,141.4 327.3,105.4 306.9,107.8 311,143.4 311,143.4 "></polygon><polygon id="spoly_207" data-role="section" data-sectionid="207" data-angle="96.6" points="332.7,141.1 352.1,139.8 350,103.7 340.8,104.1 329.6,105.1 332.7,141.1 332.7,141.1 "></polygon><polygon id="spoly_208" data-role="section" data-sectionid="208" data-angle="91.7" points="354.3,139.7 373.7,139 372.9,99.5 352.1,100.3 354.3,139.7 354.3,139.7 "></polygon><polygon id="spoly_209" data-role="section" data-sectionid="209" data-angle="90" points="376,139 388.2,138.8 399.8,139 400.6,99.3 388.7,99.2 375.1,99.3 376,139 376,139 "></polygon><polygon id="spoly_210" data-role="section" data-sectionid="210" data-angle="84.8" points="402,139 421.4,139.7 423.5,100.3 402.9,99.3 402,139 402,139 "></polygon><polygon id="spoly_211" data-role="section" data-sectionid="211" data-angle="128.1" points="423.7,139.8 442.5,141.1 446,104.6 434.9,103.6 425.7,103.1 423.7,139.8 423.7,139.8 "></polygon><polygon id="spoly_212" data-role="section" data-sectionid="212" data-angle="101.4" points="444.8,141.4 464,143.4 468.8,107.2 448.3,104.8 444.8,141.4 444.8,141.4 "></polygon><polygon id="spoly_213" data-role="section" data-sectionid="213" data-angle="99.7" points="466.3,143.7 487.2,146.6 493.7,110.9 471.1,107.5 466.3,143.7 466.3,143.7 "></polygon><polygon id="spoly_214" data-role="section" data-sectionid="214" data-angle="102.3" points="489.5,146.9 506.6,150.2 514.3,112.3 496.4,108.9 489.5,146.9 489.5,146.9 "></polygon><polygon id="spoly_215" data-role="section" data-sectionid="215" data-angle="109" points="508.9,150.6 518.6,152.9 526.7,115.6 526.3,115 516.4,112.8 508.9,150.6 508.9,150.6 "></polygon><polygon id="spoly_229" data-role="section" data-sectionid="229" data-angle="252.1" points="508.9,358.7 516.4,396.5 526.3,394.3 526.7,393.7 518.6,356.5 508.9,358.7 508.9,358.7 "></polygon><polygon id="spoly_230" data-role="section" data-sectionid="230" data-angle="257.9" points="489.5,362.3 496.4,400.3 514.3,396.9 506.6,359.2 489.5,362.3 489.5,362.3 "></polygon><polygon id="spoly_231" data-role="section" data-sectionid="231" data-angle="260.3" points="466.3,365.7 471.1,401.8 493.7,398.4 487.2,362.7 466.3,365.7 466.3,365.7 "></polygon><polygon id="spoly_232" data-role="section" data-sectionid="232" data-angle="261" points="444.8,367.9 448.3,404.4 468.8,402 464,365.9 444.8,367.9 444.8,367.9 "></polygon><polygon id="spoly_233" data-role="section" data-sectionid="233" data-angle="225.3" points="423.7,369.5 425.7,406.1 434.9,405.7 446,404.7 442.5,368.2 423.7,369.5 423.7,369.5 "></polygon><polygon id="spoly_234" data-role="section" data-sectionid="234" data-angle="275.2" points="402,370.3 402.9,410 423.5,409 421.4,369.6 402,370.3 402,370.3 "></polygon><polygon id="spoly_235" data-role="section" data-sectionid="235" data-angle="270" points="376,370.3 375.1,410 388.7,410.1 400.6,410 399.8,370.3 388.2,370.5 376,370.3 376,370.3 "></polygon><polygon id="spoly_236" data-role="section" data-sectionid="236" data-angle="267.3" points="354.3,369.6 352.1,409 372.9,409.8 373.7,370.3 354.3,369.6 354.3,369.6 "></polygon><polygon id="spoly_237" data-role="section" data-sectionid="237" data-angle="263.6" points="332.7,368.2 329.6,404.2 340.8,405.2 350,405.6 352.1,369.5 332.7,368.2 332.7,368.2 "></polygon><polygon id="spoly_238" data-role="section" data-sectionid="238" data-angle="206.9" points="311,365.9 306.9,401.5 327.3,403.9 330.4,367.9 311,365.9 311,365.9 "></polygon><polygon id="spoly_239" data-role="section" data-sectionid="239" data-angle="286.2" points="287.8,362.7 281.7,397.8 304.7,401.2 308.9,365.7 297.7,364.1 287.8,362.7 287.8,362.7 "></polygon><polygon id="spoly_240" data-role="section" data-sectionid="240" data-angle="282.5" points="269.2,359.2 261.7,397.4 279.1,400.5 285.6,362.3 269.2,359.2 269.2,359.2 "></polygon><polygon id="spoly_241" data-role="section" data-sectionid="241" data-angle="283.4" points="260,357 250.8,395.1 259.4,396.9 266.9,358.7 260,357 260,357 "></polygon><polygon id="spoly_300" data-role="section" data-sectionid="300" data-angle="124.9" points="169.7,115.6 169.7,132 211.7,156.7 217.4,147.1 224.3,136.3 180,99.5 172.5,111.1 169.7,115.6 169.7,115.6 "></polygon><polygon id="spoly_301" data-role="section" data-sectionid="301" data-angle="53.7" points="225.6,134.3 231.7,125.9 237.7,118.3 197.1,76.4 188.6,87.1 181.3,97.6 225.6,134.3 225.6,134.3 "></polygon><polygon id="spoly_302" data-role="section" data-sectionid="302" data-angle="26.1" points="239,103 216.1,56.8 211.7,60.6 207.3,64.9 202.9,69.6 198.7,74.5 232.6,109.8 239,103 239,103 "></polygon><polygon id="spoly_303" data-role="section" data-sectionid="303" data-angle="69.9" points="239.3,116.7 244.4,111.6 252.5,109.5 241.1,42.6 231.9,47.3 224.9,51.1 217.9,55.4 241.7,103.4 241.6,103.6 241.6,103.6 234.2,111.5 239.3,116.7 239.3,116.7 "></polygon><polygon id="spoly_304" data-role="section" data-sectionid="304" data-angle="79" points="254.7,109.1 265.3,106.8 279.3,104.1 268.4,30.6 254.9,36.2 243.3,41.6 254.7,109.1 254.7,109.1 "></polygon><polygon id="spoly_305" data-role="section" data-sectionid="305" data-angle="80.3" points="281.6,103.7 300.4,100.7 292.2,22.5 281,26 270.6,29.9 281.6,103.7 281.6,103.7 "></polygon><polygon id="spoly_306" data-role="section" data-sectionid="306" data-angle="47.3" points="302.7,100.4 324.5,97.9 318.5,15.5 306.1,18.5 294.3,21.8 302.7,100.4 302.7,100.4 "></polygon><polygon id="spoly_307" data-role="section" data-sectionid="307" data-angle="98.1" points="326.7,97.6 348.5,95.9 344,10.9 332.1,12.9 320.8,15 326.7,97.6 326.7,97.6 "></polygon><polygon id="spoly_308" data-role="section" data-sectionid="308" data-angle="92.8" points="350.8,95.8 373,94.8 371.5,8.3 358.7,9.2 346.1,10.6 350.8,95.8 350.8,95.8 "></polygon><polygon id="spoly_309" data-role="section" data-sectionid="309" data-angle="90" points="375.3,94.8 388.2,94.6 399.9,94.8 401.5,8.2 387,7.9 373.7,8.2 375.3,94.8 375.3,94.8 "></polygon><polygon id="spoly_310" data-role="section" data-sectionid="310" data-angle="84.2" points="402.2,94.8 424.1,95.6 427.9,10.6 415.9,9.3 403.7,8.3 402.2,94.8 402.2,94.8 "></polygon><polygon id="spoly_311" data-role="section" data-sectionid="311" data-angle="104.8" points="426.4,95.8 448.6,97.3 455,15.4 442.8,13 430.2,11 426.4,95.8 426.4,95.8 "></polygon><polygon id="spoly_312" data-role="section" data-sectionid="312" data-angle="97.9" points="450.9,97.6 471.7,99.9 481.3,22.2 469.5,19 457.2,15.8 450.9,97.6 450.9,97.6 "></polygon><polygon id="spoly_313" data-role="section" data-sectionid="313" data-angle="98.5" points="473.8,100.2 493.4,103.1 504.8,30.3 494.6,26.6 483.5,22.9 473.8,100.2 473.8,100.2 "></polygon><polygon id="spoly_314" data-role="section" data-sectionid="314" data-angle="104.3" points="495.7,103.6 509.7,106.1 520.1,108.2 532.4,42.1 520.6,36.7 507,31.1 495.7,103.6 495.7,103.6 "></polygon><polygon id="spoly_315" data-role="section" data-sectionid="315" data-angle="147.5" points="522.3,108.8 529.1,110.5 530.5,111.8 534.5,115.7 539.7,110.2 533.6,103.4 557.6,55.8 550.2,51.4 543.4,47.6 534.5,43.2 522.3,108.8 522.3,108.8 "></polygon><polygon id="spoly_316" data-role="section" data-sectionid="316" data-angle="25.3" points="535.9,117.2 541.8,124.1 548.8,133.6 593.4,98.5 587.6,90.4 582.2,83.2 572.1,71.1 564.3,62.5 559.3,57.4 535.9,103.1 542.6,110.2 535.9,117.2 535.9,117.2 "></polygon><polygon id="spoly_317" data-role="section" data-sectionid="317" data-angle="19.9" points="550.1,135.4 554.9,143.1 559.8,151.9 598.7,132.9 598.7,119 604.4,115.7 599.4,107.8 594.6,100.3 550.1,135.4 550.1,135.4 "></polygon><polygon id="spoly_318" data-role="section" data-sectionid="318" data-angle="20.7" points="561,153.9 565.5,163.2 570,173.5 621.7,150 615,135.4 598.7,135.4 598.7,135.4 561,153.9 561,153.9 "></polygon><polygon id="spoly_319" data-role="section" data-sectionid="319" data-angle="19.1" points="570.7,175.7 574.3,185 577.4,195.1 631.6,178.4 627.3,164.9 622.5,152.2 570.7,175.7 570.7,175.7 "></polygon><polygon id="spoly_320" data-role="section" data-sectionid="320" data-angle="12.8" points="577.9,197.3 580.6,207.2 582.9,217.7 638.2,207.3 635.7,193.1 632.4,181 577.9,197.3 577.9,197.3 "></polygon><polygon id="spoly_321" data-role="section" data-sectionid="321" data-angle="2.1" points="583.3,220 584.9,229.9 586.3,240.2 594.2,240.2 592.6,229.5 590.8,218.6 583.3,220 583.3,220 "></polygon><polygon id="spoly_323" data-role="section" data-sectionid="323" data-angle="350.3" points="583.3,289.4 590.8,290.8 592.6,279.9 594.2,269.1 586.3,269.1 584.9,279.5 583.3,289.4 583.3,289.4 "></polygon><polygon id="spoly_324" data-role="section" data-sectionid="324" data-angle="348.2" points="577.9,312 632.3,328.6 636.2,315.4 638.1,301.6 582.9,291.6 580.6,302.1 577.9,312 577.9,312 "></polygon><polygon id="spoly_325" data-role="section" data-sectionid="325" data-angle="341.3" points="570.7,333.7 622.5,357.2 627.3,344.4 631.6,331 577.4,314.3 574.3,324.3 570.7,333.7 570.7,333.7 "></polygon><polygon id="spoly_326" data-role="section" data-sectionid="326" data-angle="339.7" points="561,355.5 598.2,373.3 615.3,373.3 621.7,359.3 570,335.8 565.5,346.1 561,355.5 561,355.5 "></polygon><polygon id="spoly_327" data-role="section" data-sectionid="327" data-angle="335.7" points="550.1,373.9 594.6,409 599.6,401.2 604.5,393 598.7,389.7 598.7,376.3 559.8,357.5 554.9,366.2 550.1,373.9 550.1,373.9 "></polygon><polygon id="spoly_328" data-role="section" data-sectionid="328" data-angle="336.9" points="535.9,392 542.7,398.9 536,406 559.3,451.9 564.3,446.8 572.1,438.1 582.2,426.1 587.6,418.9 593.4,410.8 548.8,375.7 541.8,385.1 535.9,392 535.9,392 "></polygon><polygon id="spoly_329" data-role="section" data-sectionid="329" data-angle="219.6" points="522.3,400.5 534.5,466 543.4,461.6 550.2,457.8 557.6,453.4 533.6,405.7 539.7,399.1 534.5,393.5 530.5,397.5 529.1,398.8 522.3,400.5 522.3,400.5 "></polygon><polygon id="spoly_330" data-role="section" data-sectionid="330" data-angle="254.7" points="495.7,405.7 507,478 520.6,472.5 532.4,467.1 520.1,401 509.7,403.2 495.7,405.7 495.7,405.7 "></polygon><polygon id="spoly_331" data-role="section" data-sectionid="331" data-angle="261.4" points="473.8,409.1 483.5,486.2 494.6,482.6 504.8,478.9 493.4,406.1 473.8,409.1 473.8,409.1 "></polygon><polygon id="spoly_332" data-role="section" data-sectionid="332" data-angle="263.4" points="450.9,411.7 457.2,493.3 469.5,490.2 481.3,486.9 471.7,409.4 450.9,411.7 450.9,411.7 "></polygon><polygon id="spoly_333" data-role="section" data-sectionid="333" data-angle="258.3" points="426.4,413.5 430.2,498.1 442.8,496.1 455,493.7 448.6,411.9 426.4,413.5 426.4,413.5 "></polygon><polygon id="spoly_334" data-role="section" data-sectionid="334" data-angle="272.6" points="402.2,414.5 403.7,500.8 415.9,499.8 427.9,498.6 424.1,413.6 402.2,414.5 402.2,414.5 "></polygon><polygon id="spoly_335" data-role="section" data-sectionid="335" data-angle="270" points="375.3,414.5 373.7,501 387,501.2 401.5,501 399.9,414.5 388.2,414.6 375.3,414.5 375.3,414.5 "></polygon><polygon id="spoly_336" data-role="section" data-sectionid="336" data-angle="266.9" points="350.8,413.5 346.1,498.6 358.7,500 371.5,500.8 373,414.5 350.8,413.5 350.8,413.5 "></polygon><polygon id="spoly_337" data-role="section" data-sectionid="337" data-angle="260.3" points="326.7,411.7 320.8,494.2 332.1,496.3 344,498.3 348.5,413.4 326.7,411.7 326.7,411.7 "></polygon><polygon id="spoly_338" data-role="section" data-sectionid="338" data-angle="312.9" points="302.7,408.8 294.3,487.4 306.1,490.6 318.5,493.6 324.5,411.4 302.7,408.8 302.7,408.8 "></polygon><polygon id="spoly_339" data-role="section" data-sectionid="339" data-angle="279.7" points="281.6,405.6 270.6,479.3 281,483.1 292.2,486.7 300.4,408.5 281.6,405.6 281.6,405.6 "></polygon><polygon id="spoly_340" data-role="section" data-sectionid="340" data-angle="280.2" points="254.7,400.2 243.3,467.6 254.9,472.9 268.4,478.6 279.3,405.2 265.3,402.5 254.7,400.2 254.7,400.2 "></polygon><polygon id="spoly_341" data-role="section" data-sectionid="341" data-angle="290" points="239.3,392.6 234.2,397.8 241.6,405.7 241.6,405.7 241.7,405.9 217.9,453.8 224.9,458.1 231.9,461.9 241.1,466.6 252.5,399.8 244.4,397.6 239.3,392.6 239.3,392.6 "></polygon><polygon id="spoly_342" data-role="section" data-sectionid="342" data-angle="332.7" points="239,406.3 232.6,399.5 198.7,434.7 202.9,439.7 207.3,444.4 211.7,448.6 216.1,452.4 239,406.3 239,406.3 "></polygon><polygon id="spoly_343" data-role="section" data-sectionid="343" data-angle="307.2" points="225.6,375 181.3,411.7 188.6,422.1 197.1,432.9 237.7,391 231.7,383.4 225.6,375 225.6,375 "></polygon><polygon id="spoly_344" data-role="section" data-sectionid="344" data-angle="232.9" points="169.7,393.7 172.5,398.2 180,409.8 224.3,373 217.4,362.3 211.7,352.6 169.7,377.3 169.7,393.7 169.7,393.7 "></polygon><polygon id="spoly_On_Field_Northeast" data-role="section" data-sectionid="On_Field_Northeast" data-angle="90" points="297.8,194.2 331.8,190.1 332.6,184.1 295.7,188.7 297.8,194.2 297.8,194.2 "></polygon><polygon id="spoly_On_Field_Southeast" data-role="section" data-sectionid="On_Field_Southeast" data-angle="102" points="443.4,189.9 477.2,193.8 479.6,187.8 442.3,183.9 442.3,183.9 442.3,183.9 "></polygon><polygon id="spoly_On_Field_Northwest" data-role="section" data-sectionid="On_Field_Northwest" data-angle="346.1" points="297.8,314.3 331.8,318.5 332.4,324.3 295.6,320 295.6,320 295.6,320 "></polygon><polygon id="spoly_On-Field_Southwest" data-role="section" data-sectionid="On-Field_Southwest" data-angle="255" points="443.4,318.9 443,324 479.5,319.9 477.6,314.8 "></polygon><polygon id="spoly_On_Field_Endzone" data-role="section" data-sectionid="On_Field_Endzone" data-angle="180" points="498.3,209 498.3,301.9 502.7,302.6 502.7,207.5 502.7,207.5 502.7,207.5 "></polygon><polygon id="spoly_red_zone_suites" data-role="section" data-sectionid="red_zone_suites" data-angle="259.8" points="269.5,308.2 263.2,309.5 260.8,295.6 259.1,280.7 258,265.4 258,246.2 259,230.8 260.6,215.8 263.2,199.4 268.5,200.2 267.1,209.8 266.3,217.1 265.7,222.6 265.1,228 264.8,233.9 264.7,239.5 264.5,245.9 264.3,264.1 264.9,278.4 265.8,287.9 266.6,294.5 267.8,301.2 "></polygon><polygon class="is-d epoly_top_spacer" data-role="dynamic" points="601.1,121.5 601.1,133.7 614.2,133.7 606.3,118.2 " style="fill:#F4F4F4; stroke:#BEBEBE; stroke-width:1; fill-opacity:1.0;"></polygon><polygon class="is-d epoly_bottom_spacer" data-role="dynamic" points="613.8,375.7 601.3,375.7 601.3,388.2 606.2,391.2 " style="fill:#F4F4F4; stroke:#BEBEBE; stroke-width:1; fill-opacity:1.0;"></polygon><polygon class="is-d epoly_south_videoboard" data-role="dynamic" points="580.9,255.9 " style="fill:#; stroke:#; stroke-width:0; fill-opacity:0.0;"></polygon><polygon class="is-d epoly_hawks_nest_text" data-role="dynamic" points="218.7,245.1 " style="fill:#; stroke:#; stroke-width:0; fill-opacity:0.0;"></polygon><polygon class="is-d epoly_field_endzone" data-role="dynamic" points="491.6,251 " style="fill:#; stroke:#; stroke-width:0; fill-opacity:0.0;"></polygon><polygon class="is-d epoly_bench_visitor" data-role="dynamic" points="343.5,192.1 343.5,204.4 430.6,204.4 430.6,192.1 " style="fill:#DDD; stroke:#DDD; stroke-width:0; fill-opacity:1.0;"></polygon><polygon class="is-d epoly_bench_home" data-role="dynamic" points="343.1,302.3 343.1,314.6 430.5,314.6 430.5,302.3 " style="fill:#003B66; stroke:#000; stroke-width:0; fill-opacity:1;"></polygon><polygon class="is-d epoly_north_videoboard" data-role="dynamic" points="168.6,241.4 168.6,270.4 180.4,270.4 180.4,241.4 " style="fill:#F4F4F4; stroke:#BEBEBE; stroke-width:1; fill-opacity:1.0;"></polygon></g><circle id="mctrmrk" cx="386.8" cy="255.9" r="1" stroke-width="0" stroke="#FFF" opacity="0"></circle><g id="svgsectionnames" style="opacity:1; font-size:5.766666666666667px;"><text data-sectionid="100" data-role="section" x="261.9" y="189.6">100</text><text data-sectionid="101" data-role="section" x="245.2" y="165.1">101</text><text data-sectionid="102" data-role="section" x="251.3" y="147">102</text><text data-sectionid="103" data-role="section" x="265.7" y="161.5">103</text><text data-sectionid="104" data-role="section" x="282.7" y="172.7">104</text><text data-sectionid="105" data-role="section" x="301.6" y="169.7">105</text><text data-sectionid="106" data-role="section" x="323.4" y="167">106</text><text data-sectionid="107" data-role="section" x="343.9" y="165.2">107</text><text data-sectionid="108" data-role="section" x="364.7" y="164.1">108</text><text data-sectionid="109" data-role="section" x="388.2" y="163.8">109</text><text data-sectionid="110" data-role="section" x="411.4" y="164.1">110</text><text data-sectionid="111" data-role="section" x="432" y="165.3">111</text><text data-sectionid="112" data-role="section" x="452.6" y="167.1">112</text><text data-sectionid="113" data-role="section" x="474.2" y="169.7">113</text><text data-sectionid="114" data-role="section" x="493.5" y="172.8">114</text><text data-sectionid="115" data-role="section" x="508.9" y="162.7">115</text><text data-sectionid="116" data-role="section" x="533.1" y="144.9">116</text><text data-sectionid="117" data-role="section" x="544.4" y="163.2">117</text><text data-sectionid="118" data-role="section" x="552.1" y="182.5">118</text><text data-sectionid="119" data-role="section" x="556.9" y="202.5">119</text><text data-sectionid="120" data-role="section" x="560.4" y="218">120</text><text data-sectionid="121" data-role="section" x="562" y="236.3">121</text><text data-sectionid="122" data-role="section" x="562.2" y="254.8">122</text><text data-sectionid="123" data-role="section" x="562.4" y="274">123</text><text data-sectionid="124" data-role="section" x="560.7" y="292.3">124</text><text data-sectionid="125" data-role="section" x="558.2" y="308.5">125</text><text data-sectionid="126" data-role="section" x="554.8" y="328.4">126</text><text data-sectionid="127" data-role="section" x="544.1" y="348.4">127</text><text data-sectionid="128" data-role="section" x="533.1" y="366">128</text><text data-sectionid="129" data-role="section" x="508.9" y="350.1">129</text><text data-sectionid="130" data-role="section" x="493.9" y="341.6">130</text><text data-sectionid="131" data-role="section" x="474.7" y="345.1">131</text><text data-sectionid="132" data-role="section" x="453.1" y="348.6">132</text><text data-sectionid="133" data-role="section" x="432.2" y="350.2">133</text><text data-sectionid="134" data-role="section" x="411.5" y="351.4">134</text><text data-sectionid="135" data-role="section" x="387.9" y="352.4">135</text><text data-sectionid="136" data-role="section" x="364.6" y="351.2">136</text><text data-sectionid="137" data-role="section" x="344.8" y="350.4">137</text><text data-sectionid="138" data-role="section" x="322.8" y="348.7">138</text><text data-sectionid="139" data-role="section" x="301.8" y="344.6">139</text><text data-sectionid="140" data-role="section" x="281.9" y="341.3">140</text><text data-sectionid="141" data-role="section" x="265.7" y="351.6">141</text><text data-sectionid="142" data-role="section" x="252.1" y="364.6">142</text><text data-sectionid="143" data-role="section" x="247.1" y="348.7">143</text><text data-sectionid="144" data-role="section" x="261.9" y="320">144</text><text data-sectionid="145" data-role="section" x="254.7" y="304.7">145</text><text data-sectionid="146" data-role="section" x="252.4" y="288.1">146</text><text data-sectionid="147" data-role="section" x="251.3" y="272.9">147</text><text data-sectionid="148" data-role="section" x="250.8" y="255.4">148</text><text data-sectionid="149" data-role="section" x="251.2" y="237.8">149</text><text data-sectionid="150" data-role="section" x="252.9" y="222.2">150</text><text data-sectionid="151" data-role="section" x="254.7" y="205.7">151</text><text data-sectionid="203" data-role="section" x="259.2" y="133.5">203</text><text data-sectionid="204" data-role="section" x="274.3" y="130.4">204</text><text data-sectionid="205" data-role="section" x="296" y="127.5">205</text><text data-sectionid="206" data-role="section" x="318.7" y="126.4">206</text><text data-sectionid="207" data-role="section" x="340.8" y="124.4">207</text><text data-sectionid="208" data-role="section" x="362.9" y="121.6">208</text><text data-sectionid="209" data-role="section" x="387.9" y="121.1">209</text><text data-sectionid="210" data-role="section" x="412.8" y="121.5">210</text><text data-sectionid="211" data-role="section" x="434.9" y="124.1">211</text><text data-sectionid="212" data-role="section" x="456.8" y="126.1">212</text><text data-sectionid="213" data-role="section" x="480" y="129.1">213</text><text data-sectionid="214" data-role="section" x="501.9" y="131.6">214</text><text data-sectionid="215" data-role="section" x="517.8" y="134.8">215</text><text data-sectionid="229" data-role="section" x="517.8" y="378.5">229</text><text data-sectionid="230" data-role="section" x="501.9" y="381.7">230</text><text data-sectionid="231" data-role="section" x="480" y="384.2">231</text><text data-sectionid="232" data-role="section" x="456.8" y="387.2">232</text><text data-sectionid="233" data-role="section" x="434.9" y="389.2">233</text><text data-sectionid="234" data-role="section" x="412.8" y="391.8">234</text><text data-sectionid="235" data-role="section" x="387.9" y="392.2">235</text><text data-sectionid="236" data-role="section" x="362.9" y="391.7">236</text><text data-sectionid="237" data-role="section" x="340.8" y="388.9">237</text><text data-sectionid="238" data-role="section" x="318.7" y="386.9">238</text><text data-sectionid="239" data-role="section" x="295.3" y="383.9">239</text><text data-sectionid="240" data-role="section" x="273.6" y="381.8">240</text><text data-sectionid="241" data-role="section" x="258.8" y="379">241</text><text data-sectionid="300" data-role="section" x="191.4" y="126.8">300</text><text data-sectionid="301" data-role="section" x="208.2" y="104.5">301</text><text data-sectionid="302" data-role="section" x="223.5" y="89">302</text><text data-sectionid="303" data-role="section" x="239.1" y="80.5">303</text><text data-sectionid="304" data-role="section" x="261.3" y="71.8">304</text><text data-sectionid="305" data-role="section" x="285.5" y="65.1">305</text><text data-sectionid="306" data-role="section" x="309.4" y="60">306</text><text data-sectionid="307" data-role="section" x="334.7" y="56.2">307</text><text data-sectionid="308" data-role="section" x="359.6" y="54">308</text><text data-sectionid="309" data-role="section" x="387.6" y="53.3">309</text><text data-sectionid="310" data-role="section" x="415.1" y="54">310</text><text data-sectionid="311" data-role="section" x="440.7" y="56.2">311</text><text data-sectionid="312" data-role="section" x="466.1" y="59.9">312</text><text data-sectionid="313" data-role="section" x="489.3" y="65">313</text><text data-sectionid="314" data-role="section" x="514" y="71.7">314</text><text data-sectionid="315" data-role="section" x="535.7" y="80.5">315</text><text data-sectionid="316" data-role="section" x="560.7" y="99.3">316</text><text data-sectionid="317" data-role="section" x="580.2" y="126.9">317</text><text data-sectionid="318" data-role="section" x="591.3" y="152.2">318</text><text data-sectionid="319" data-role="section" x="601.1" y="174.7">319</text><text data-sectionid="320" data-role="section" x="608.6" y="199.8">320</text><text data-sectionid="321" data-role="section" x="584.8" y="230.4" transform="rotate(86.3974 584.8 230.4)">321</text><text data-sectionid="323" data-role="section" x="586.1" y="280.3" transform="rotate(100.454 586.1 280.3)">323</text><text data-sectionid="324" data-role="section" x="607.5" y="309.7">324</text><text data-sectionid="325" data-role="section" x="601.1" y="334.4">325</text><text data-sectionid="326" data-role="section" x="591.3" y="357.5">326</text><text data-sectionid="327" data-role="section" x="579.3" y="382.1">327</text><text data-sectionid="328" data-role="section" x="560" y="411.7">328</text><text data-sectionid="329" data-role="section" x="536" y="429.4">329</text><text data-sectionid="330" data-role="section" x="514" y="441.5">330</text><text data-sectionid="331" data-role="section" x="489.3" y="448.2">331</text><text data-sectionid="332" data-role="section" x="466.1" y="453.4">332</text><text data-sectionid="333" data-role="section" x="440.7" y="457">333</text><text data-sectionid="334" data-role="section" x="415.1" y="459.2">334</text><text data-sectionid="335" data-role="section" x="387.6" y="459.9">335</text><text data-sectionid="336" data-role="section" x="359.6" y="459.2">336</text><text data-sectionid="337" data-role="section" x="334.7" y="457">337</text><text data-sectionid="338" data-role="section" x="309.4" y="453.2">338</text><text data-sectionid="339" data-role="section" x="285.5" y="448.1">339</text><text data-sectionid="340" data-role="section" x="261.3" y="441.4">340</text><text data-sectionid="341" data-role="section" x="239.5" y="430.7">341</text><text data-sectionid="342" data-role="section" x="224.4" y="420.9">342</text><text data-sectionid="343" data-role="section" x="209.2" y="403.4">343</text><text data-sectionid="344" data-role="section" x="195.3" y="379.6">344</text><text data-sectionid="On_Field_Northeast" data-role="section" x="316.1" y="193.5">NE</text><text data-sectionid="On_Field_Southeast" data-role="section" x="460.3" y="191.2">F113</text><text data-sectionid="On_Field_Northwest" data-role="section" x="312.7" y="320.3">F139</text><text data-sectionid="On-Field_Southwest" data-role="section" x="463.8" y="320.3">F131</text><text data-sectionid="On_Field_Endzone" data-role="section" x="500.2" y="256" transform="rotate(92.8886 500.2 256)">EZ</text><text data-sectionid="red_zone_suites" data-role="section" x="262.7" y="259.1" transform="rotate(269.646 262.7 259.1)">Red Zone Suites</text><text class="is-d " text-anchor="middle" x="607.7" y="128" style="fill:#999; font-size:5.9px; " dominant-baseline="central" data-offset="0|0.3" null=""></text><text class="is-d " text-anchor="middle" x="607.5" y="385.5" style="fill:#999; font-size:5.9px; " dominant-baseline="central" data-offset="0|0.3" null=""></text><text class="is-d " text-anchor="middle" x="580.9" y="256.9" style="fill:#999; font-size:5.9px; " dominant-baseline="central" data-offset="0|0.3" transform="rotate(90 580.9 256.9)">VIDEOBOARD</text><text class="is-d " text-anchor="middle" x="218.7" y="246.1" style="fill:#999; font-size:5.9px; " dominant-baseline="central" data-offset="0|0.3" null="">HAWKS NEST</text><text class="is-d " text-anchor="middle" x="491.6" y="252" style="fill:#ffffff; font-size:5.9px; " dominant-baseline="central" data-offset="0|0.3" transform="rotate(90 491.6 252)">FIELD ENDZONE</text><text class="is-d dyn-name-bench bench_visitor" text-anchor="middle" x="387.1" y="200.2" style="fill:#666; font-size:5.9px; " dominant-baseline="central" data-offset="0|0.3" null="">VISITOR</text><text class="is-d dyn-name-bench bench_home" text-anchor="middle" x="386.8" y="310.4" style="fill:#FFF; font-size:5.9px; " dominant-baseline="central" data-offset="0|0.3" null="">SEAHAWKS</text><text class="is-d " text-anchor="middle" x="175.8" y="256.9" style="fill:#999; font-size:5.9px; " dominant-baseline="central" data-offset="0|0.3" transform="rotate(270 175.8 256.9)">VIDEO</text></g></g><circle id="svgZoomCenter" r="1" stroke-width="0" fill-opacity="0" cx="319.1" cy="259.5"></circle><circle id="svgNorthWest" r="1" stroke-width="0" fill-opacity="0" cx="0" cy="0"></circle><circle id="svgSouthEast" r="1" stroke-width="0" fill-opacity="0" cx="794" cy="519"></circle><g id="svgmarkers" style="font-size: 10.3px;"><circle id="svg-marker-hover" data-ticket="" style="display: none;"></circle><g transform="translate(560.2,103.1) scale(1)" class="ticket-marker flag-with-arrow" data-ticket="317~u" data-mrkgrp="default" data-match="1"><use href="#flag-with-arrow-medium" xlink:href="#flag-with-arrow"></use><text data-role="label" x="18" y="9">$157</text></g><g transform="translate(447.3,34.8) scale(1)" class="ticket-marker flag-with-arrow" data-ticket="312~i" data-mrkgrp="default" data-match="1"><use href="#flag-with-arrow-medium" xlink:href="#flag-with-arrow"></use><text data-role="label" x="18" y="9">$170</text></g><g transform="translate(396.9,28) scale(1)" class="ticket-marker flag-with-arrow" data-ticket="310~aa" data-mrkgrp="default" data-match="1"><use href="#flag-with-arrow-medium" xlink:href="#flag-with-arrow"></use><text data-role="label" x="18" y="9">$203</text></g><g transform="translate(343.5,28) scale(1)" class="ticket-marker flag-with-arrow" data-ticket="308~hh" data-mrkgrp="default" data-match="1"><use href="#flag-with-arrow-medium" xlink:href="#flag-with-arrow"></use><text data-role="label" x="18" y="9">$227</text></g><g transform="translate(341.7,433.2) scale(1)" class="ticket-marker flag-with-arrow" data-ticket="336~jj" data-mrkgrp="default" data-match="1"><use href="#flag-with-arrow-medium" xlink:href="#flag-with-arrow"></use><text data-role="label" x="18" y="9">$231</text></g><g transform="translate(284.9,143.7) scale(1)" class="ticket-marker flag-with-arrow" data-ticket="105~s" data-mrkgrp="default" data-match="1"><use href="#flag-with-arrow-medium" xlink:href="#flag-with-arrow"></use><text data-role="label" x="18" y="9">$244</text></g><g transform="translate(520.4,280.7) scale(1)" class="ticket-marker flag-with-arrow" data-ticket="125~y" data-mrkgrp="default" data-match="1"><use href="#flag-with-arrow-medium" xlink:href="#flag-with-arrow"></use><text data-role="label" x="18" y="9">$327</text></g><g transform="translate(256.3,356.1) scale(1)" class="ticket-marker flag-with-arrow" data-ticket="240~k" data-mrkgrp="default" data-match="1"><use href="#flag-with-arrow-medium" xlink:href="#flag-with-arrow"></use><text data-role="label" x="18" y="9">$335</text></g><g transform="translate(519.9,164.1) scale(1)" class="ticket-marker flag-with-arrow" data-ticket="118~jj" data-mrkgrp="default" data-match="1"><use href="#flag-with-arrow-medium" xlink:href="#flag-with-arrow"></use><text data-role="label" x="18" y="9">$376</text></g><g transform="translate(456.6,318) scale(1)" class="ticket-marker flag-with-arrow" data-ticket="131~f" data-mrkgrp="default" data-match="1"><use href="#flag-with-arrow-medium" xlink:href="#flag-with-arrow"></use><text data-role="label" x="18" y="9">$378</text></g><g transform="translate(394,138.4) scale(1)" class="ticket-marker flag-with-arrow" data-ticket="110~w" data-mrkgrp="default" data-match="1"><use href="#flag-with-arrow-medium" xlink:href="#flag-with-arrow"></use><text data-role="label" x="18" y="9">$397</text></g><g transform="translate(305.9,320.9) scale(1)" class="ticket-marker flag-with-arrow" data-ticket="138~j" data-mrkgrp="default" data-match="1"><use href="#flag-with-arrow-medium" xlink:href="#flag-with-arrow"></use><text data-role="label" x="18" y="9">$397</text></g><g transform="translate(435,141.5) scale(1)" class="ticket-marker flag-with-arrow" data-ticket="112~f" data-mrkgrp="default" data-match="1"><use href="#flag-with-arrow-medium" xlink:href="#flag-with-arrow"></use><text data-role="label" x="18" y="9">$447</text></g><g transform="translate(217.5,263.5) scale(1)" class="ticket-marker flag-with-arrow" data-ticket="146~r" data-mrkgrp="default" data-match="1"><use href="#flag-with-arrow-medium" xlink:href="#flag-with-arrow"></use><text data-role="label" x="18" y="9">$448</text></g><g transform="translate(519.5,405.4) scale(1)" class="ticket-marker flag-with-arrow" data-ticket="329~y" data-mrkgrp="default" data-match="1"><use href="#flag-with-arrow-medium" xlink:href="#flag-with-arrow"></use><text data-role="label" x="18" y="9">$457</text></g><g transform="translate(524,212.8) scale(1)" class="ticket-marker flag-with-arrow" data-ticket="121~d" data-mrkgrp="default" data-match="1"><use href="#flag-with-arrow-medium" xlink:href="#flag-with-arrow"></use><text data-role="label" x="18" y="9">$466</text></g><g transform="translate(326.7,139.1) scale(1)" class="ticket-marker flag-with-arrow" data-ticket="107~e" data-mrkgrp="default" data-match="1"><use href="#flag-with-arrow-medium" xlink:href="#flag-with-arrow"></use><text data-role="label" x="18" y="9">$472</text></g><g transform="translate(417,97.9) scale(1)" class="ticket-marker flag-with-arrow" data-ticket="211~f" data-mrkgrp="default" data-match="1"><use href="#flag-with-arrow-medium" xlink:href="#flag-with-arrow"></use><text data-role="label" x="18" y="9">$506</text></g><g transform="translate(461.9,358.1) scale(1)" class="ticket-marker flag-with-arrow" data-ticket="231~c" data-mrkgrp="default" data-match="1"><use href="#flag-with-arrow-medium" xlink:href="#flag-with-arrow"></use><text data-role="label" x="18" y="9">$555</text></g><g transform="translate(244,47.1) scale(1)" class="ticket-marker flag-with-arrow" data-ticket="304~ee" data-mrkgrp="default" data-match="1"><use href="#flag-with-arrow-medium" xlink:href="#flag-with-arrow"></use><text data-role="label" x="18" y="9">$594</text></g><g transform="translate(370.4,95) scale(1)" class="ticket-marker flag-with-arrow" data-ticket="209~a" data-mrkgrp="default" data-match="1"><use href="#flag-with-arrow-medium" xlink:href="#flag-with-arrow"></use><text data-role="label" x="18" y="9">$695</text></g><g transform="translate(413.7,322.5) scale(1)" class="ticket-marker flag-with-arrow" data-ticket="133~d" data-mrkgrp="default" data-match="1"><use href="#flag-with-arrow-medium" xlink:href="#flag-with-arrow"></use><text data-role="label" x="18" y="9">$848</text></g><g transform="translate(343.7,365.8) scale(1)" class="ticket-marker flag-with-arrow" data-ticket="236~z" data-mrkgrp="default" data-match="1"><use href="#flag-with-arrow" xlink:href="#flag-with-arrow"></use><text data-role="label" x="20" y="9">$1009</text></g><g transform="translate(393.3,365.8) scale(1)" class="ticket-marker flag-with-arrow" data-ticket="234~s" data-mrkgrp="default" data-match="1"><use href="#flag-with-arrow" xlink:href="#flag-with-arrow"></use><text data-role="label" x="20" y="9">$2642</text></g></g>undefined</g><circle id="svgZoomCenterLoad" r="1" stroke-width="0" fill-opacity="0" cx="397" cy="259.5"></circle></g></g></svg>