<svg xmlns="http://www.w3.org/2000/svg" xmlns:xlink="http://www.w3.org/1999/xlink" id="svgmap" width="100%" height="100%" style="touch-action: none;" viewBox="99.7 -26.6 598.3 559.3"><style>
polygon[id^="spoly_"] { fill: #d0d8e4; stroke: #7a8fa6; stroke-width: 2; }
polygon[id^="spoly_"]:hover { fill: #5b8ccc; cursor: pointer; }
.svgText { font-family: Arial, sans-serif; fill: #333; font-size: 9px; }
</style>
         <g id="svgdefs"><defs id="svgdefstyle">
      <linearGradient id="ticketGradient" x1="0%" y1="0%" x2="100%" y2="0%"><stop offset="0%" stop-color="#840ac9"></stop><stop offset="30%" stop-color="#d60eb2"></stop><stop offset="50%" stop-color="#fa0b81"></stop><stop offset="100%" stop-color="#fa0b81"></stop></linearGradient>
      <radialGradient id="markerGradient" cx="50%" cy="50%" r="50%"><stop offset="0%" stop-color="#fa0b81"></stop><stop offset="95%" stop-color="#d60eb2"></stop><stop offset="100%" stop-color="#840ac9"></stop></radialGradient>
      <linearGradient id="flagGradient" x1="0%" y1="0%" x2="100%" y2="100%">
         <stop offset="0%" stop-color="#840ac9"></stop>
         <stop offset="40%" stop-color="#d60eb2"></stop>
         <stop offset="80%" stop-color="#fa0b81"></stop>
         <stop offset="100%" stop-color="#c40665"></stop> 
      </linearGradient>      
      <linearGradient id="svgmapticket" x1="0%" y1="0%" x2="0%" y2="100%"><stop offset="0%" style="stop-color:#5BADFF;stop-opacity:1"></stop><stop offset="100%" style="stop-color:#0066CC;stop-opacity:1"></stop></linearGradient><linearGradient id="svgdealticket" x1="0%" y1="0%" x2="0%" y2="100%"> <stop offset="0%" style="stop-color:#66FF00;stop-opacity:1"></stop><stop offset="100%" style="stop-color:#61C100;stop-opacity:1"></stop></linearGradient><linearGradient id="svggreatticket" x1="0%" y1="0%" x2="0%" y2="100%"><stop offset="0%" style="stop-color:#00CC33;stop-opacity:1"></stop><stop offset="100%" style="stop-color:#009100;stop-opacity:1"></stop></linearGradient><filter id="coinShadow" x="-40%" y="-40%" width="200%" height="200%">            <feGaussianBlur in="SourceAlpha" stdDeviation="3"></feGaussianBlur><feOffset dx="2" dy="2" result="offsetblur"></feOffset><feMerge><feMergeNode></feMergeNode><feMergeNode in="SourceGraphic"></feMergeNode></feMerge></filter></defs>  </g>
         <g class="testmask" mask="url(#fade)" style="scale: 0.95; transform-origin:center;">
         <g id="viewport" transform="matrix(1,0,0,1,0,0)" data-zoomfactor="100"><g id="scaleSVG" data-scale="1" transform="scale(1)" class="testrotate"><g id="svgelements"><image id="svgOverlay" class="nopointereventsmap" xlink:href="/assets/images/venues/overlays/chase-field-mlb-3-2019.png" x="-90.9" y="-76.0" width="979.3px" height="695.5px"></image><g id="svgpolygroup"><polygon id="spoly_101" data-role="section" data-sectionid="101" data-angle="134.5" points="509.2,50.5 478.8,50.5 495.3,65.8 509.2,50.5 "></polygon><polygon id="spoly_102" data-role="section" data-sectionid="102" data-angle="135.9" points="534.6,52.8 532,50.5 512.2,50.5 512.5,50.5 497.2,67.4 497.2,67.4 493.2,71.6 487.5,78 501.4,90.7 534.6,52.8 "></polygon><polygon id="spoly_103" data-role="section" data-sectionid="103" data-angle="142.6" points="551.8,68.6 536.5,54.5 503,92.3 518.2,106 551.8,68.6 "></polygon><polygon id="spoly_104" data-role="section" data-sectionid="104" data-angle="162.7" points="568.9,84.1 553.6,70.2 520,107.7 535.1,121.4 568.9,84.1 "></polygon><polygon id="spoly_105" data-role="section" data-sectionid="105" data-angle="117.5" points="589.4,102.9 570.6,85.5 540.7,118.7 545.2,122 545.2,125.8 552.7,125.8 552.7,119.9 589.4,102.9 "></polygon><polygon id="spoly_106" data-role="section" data-sectionid="106" data-angle="360" points="590.3,132.4 590.3,105.1 555.1,121.3 555.1,125.8 557.9,125.8 557.9,132.4 590.3,132.4 "></polygon><polygon id="spoly_107" data-role="section" data-sectionid="107" data-angle="360" points="590.3,154.5 590.3,134.7 557.9,134.7 557.9,154.5 590.3,154.5 "></polygon><polygon id="spoly_108" data-role="section" data-sectionid="108" data-angle="180" points="590.3,176.6 590.3,156.8 557.9,156.8 557.9,169.1 539.5,169.1 532,176.6 590.3,176.6 "></polygon><polygon id="spoly_109" data-role="section" data-sectionid="109" data-angle="210.3" points="590.3,204.8 590.3,179 529.6,179 523.1,185.5 590.3,204.8 "></polygon><polygon id="spoly_110" data-role="section" data-sectionid="110" data-angle="219.1" points="579.3,226.5 590.3,207.2 590.3,207 590.3,207.2 521.2,187.4 517.9,190.7 579.3,226.5 "></polygon><polygon id="spoly_111" data-role="section" data-sectionid="111" data-angle="204.7" points="568.2,245.8 578.1,228.6 516,192.6 512.7,195.9 505.2,209.1 568.2,245.8 "></polygon><polygon id="spoly_112" data-role="section" data-sectionid="112" data-angle="192.8" points="557.2,265.1 567.1,247.9 504,211.2 494.6,228.1 557.2,265.1 "></polygon><polygon id="spoly_113" data-role="section" data-sectionid="113" data-angle="200.7" points="546.6,283.7 556,267.2 510.6,240.4 499.5,256.8 546.6,283.7 "></polygon><polygon id="spoly_114" data-role="section" data-sectionid="114" data-angle="211.5" points="530.4,307.4 537.6,299.4 545.4,285.8 498.1,258.7 490.1,270.7 "></polygon><polygon id="spoly_115" data-role="section" data-sectionid="115" data-angle="220.5" points="515.8,323.4 528.7,309.1 500,283.2 487.1,297.8 515.8,323.4 "></polygon><polygon id="spoly_116" data-role="section" data-sectionid="116" data-angle="221.8" points="500.9,339.7 514.1,325.1 485.4,299.4 472.5,314 500.9,339.7 "></polygon><polygon id="spoly_117" data-role="section" data-sectionid="117" data-angle="217.7" points="485.9,356.1 499.3,341.3 470.8,315.7 458.1,330 485.9,356.1 "></polygon><polygon id="spoly_118" data-role="section" data-sectionid="118" data-angle="210.2" points="467.8,375.9 484.2,357.8 456.5,331.9 443.1,347 467.8,375.9 "></polygon><polygon id="spoly_119" data-role="section" data-sectionid="119" data-angle="197" points="451.5,388.6 465.9,377.3 441.4,348.6 433,355 451.5,388.6 "></polygon><polygon id="spoly_120" data-role="section" data-sectionid="120" data-angle="284.2" points="432.7,397.1 449.7,389.8 430.8,356.1 421.4,361.1 432.7,397.1 "></polygon><polygon id="spoly_121" data-role="section" data-sectionid="121" data-angle="298.9" points="412.5,401.8 430.4,397.8 419.1,361.8 409,364.1 412.5,401.8 "></polygon><polygon id="spoly_122" data-role="section" data-sectionid="122" data-angle="270" points="389,402 410.1,402 406.6,364.4 392.5,364.4 389,402 "></polygon><polygon id="spoly_123" data-role="section" data-sectionid="123" data-angle="257.3" points="368.3,397.5 386.6,401.8 390.1,364.1 380,361.8 368.3,397.5 "></polygon><polygon id="spoly_124" data-role="section" data-sectionid="124" data-angle="247.1" points="348.7,389.8 366.1,396.8 377.7,361.1 367.8,356.8 348.7,389.8 "></polygon><polygon id="spoly_125" data-role="section" data-sectionid="125" data-angle="230.1" points="331.8,377.1 346.6,388.6 365.7,355.4 357.7,349.1 331.8,377.1 "></polygon><polygon id="spoly_126" data-role="section" data-sectionid="126" data-angle="211.5" points="314.4,358 329.9,375.4 356,347.4 342.4,332.1 314.4,358 "></polygon><polygon id="spoly_127" data-role="section" data-sectionid="127" data-angle="188.3" points="299.8,341.8 312.7,356.1 340.7,330.5 327.6,315.9 299.8,341.8 "></polygon><polygon id="spoly_128" data-role="section" data-sectionid="128" data-angle="273.1" points="285,325.1 298.4,340.1 326.2,314 313,299.7 285,325.1 "></polygon><polygon id="spoly_129" data-role="section" data-sectionid="129" data-angle="348.9" points="270.4,308.8 283.3,323.4 311.3,297.8 298.4,283.4 270.4,308.8 "></polygon><polygon id="spoly_130" data-role="section" data-sectionid="130" data-angle="349.8" points="254.2,285.8 261.5,299 268.7,307.2 296.7,281.8 296.7,281.6 309,270.7 301.2,258.5 "></polygon><polygon id="spoly_131" data-role="section" data-sectionid="131" data-angle="339.7" points="243.3,266.7 253,283.9 299.6,256.4 289,239.9 243.3,266.7 "></polygon><polygon id="spoly_132" data-role="section" data-sectionid="132" data-angle="341.6" points="232.3,247.4 242.2,264.8 304.5,228.1 294.4,211.2 232.3,247.4 "></polygon><polygon id="spoly_133" data-role="section" data-sectionid="133" data-angle="334.4" points="221.5,228.4 231.1,245.6 293.2,209.3 285.5,196.4 281.9,192.8 221.5,228.4 "></polygon><polygon id="spoly_134" data-role="section" data-sectionid="134" data-angle="338.9" points="209.2,206.7 220.3,226.3 280.3,191.2 277,188.1 209.2,206.7 "></polygon><polygon id="spoly_135" data-role="section" data-sectionid="135" data-angle="354" points="209.2,179 209.2,204.4 275.1,186.3 267.8,179 209.2,179 "></polygon><polygon id="spoly_136" data-role="section" data-sectionid="136" data-angle="360" points="209.2,156.8 209.2,176.6 265.2,176.6 259.1,170.5 239.8,170.5 239.8,156.8 209.2,156.8 "></polygon><polygon id="spoly_137" data-role="section" data-sectionid="137" data-angle="360" points="209.2,135.2 209.2,154.5 239.8,154.5 239.8,135.2 209.2,135.2 "></polygon><polygon id="spoly_138" data-role="section" data-sectionid="138" data-angle="360" points="244,122.7 209.2,107.4 209.2,132.8 239.8,132.8 239.8,125.3 244,125.3 244,122.7 "></polygon><polygon id="spoly_139" data-role="section" data-sectionid="139" data-angle="38.3" points="226.4,86.2 209.2,101.3 209.2,104.8 246.4,121.3 246.4,128.1 263.8,128.1 226.4,86.2 "></polygon><polygon id="spoly_140" data-role="section" data-sectionid="140" data-angle="44.4" points="243.6,71.2 228.3,84.6 266.9,128.1 267.1,128.1 281.9,114.5 243.6,71.2 "></polygon><polygon id="spoly_141" data-role="section" data-sectionid="141" data-angle="35.8" points="260.8,56.1 245.2,69.5 283.8,112.8 298.9,98.9 260.8,56.1 "></polygon><polygon id="spoly_142" data-role="section" data-sectionid="142" data-angle="14.7" points="287.1,54.2 279.3,54.2 275.6,50.5 267.1,50.5 262.4,54.5 300.7,97.3 314.4,84.6 287.1,54.2 "></polygon><polygon id="spoly_143" data-role="section" data-sectionid="143" data-angle="87.8" points="319.8,54.2 290.4,54.2 316,83.2 332,68.3 319.8,54.2 "></polygon><polygon id="spoly_144" data-role="section" data-sectionid="144" data-angle="146.7" points="347.6,54.2 322.9,54.2 333.9,66.9 347.6,54.2 "></polygon><polygon id="spoly_200" data-role="section" data-sectionid="200" data-angle="360" points="596.5,187.9 596.5,199.2 620.9,199.2 620.9,187.9 596.5,187.9 "></polygon><polygon id="spoly_201" data-role="section" data-sectionid="201" data-angle="347.1" points="596.5,201.6 596.5,206.7 594.3,210.3 616,222.3 620.9,213.8 620.9,201.6 596.5,201.6 "></polygon><polygon id="spoly_202" data-role="section" data-sectionid="202" data-angle="338.1" points="593.2,212.4 582.6,231.4 604,243.4 615,224.4 593.2,212.4 "></polygon><polygon id="spoly_203" data-role="section" data-sectionid="203" data-angle="344.6" points="581.4,233.3 570.1,253.3 591.3,266 602.8,245.6 581.4,233.3 "></polygon><polygon id="spoly_204" data-role="section" data-sectionid="204" data-angle="355.3" points="568.9,255.4 558.1,274.7 578.8,288.1 590.1,268.1 568.9,255.4 "></polygon><polygon id="spoly_205" data-role="section" data-sectionid="205" data-angle="213.7" points="556.9,276.8 545.6,296.8 566.1,310.3 577.6,290.3 556.9,276.8 "></polygon><polygon id="spoly_206" data-role="section" data-sectionid="206" data-angle="191.7" points="544.5,299 540.5,306 534.6,312.4 552.5,329.6 559.8,321.6 564.9,312.4 544.5,299 "></polygon><polygon id="spoly_207" data-role="section" data-sectionid="207" data-angle="213.1" points="533.2,314 517.6,331.2 535.5,348.4 550.8,331.2 533.2,314 "></polygon><polygon id="spoly_208" data-role="section" data-sectionid="208" data-angle="220.8" points="516,332.8 500.7,349.8 518.8,366.5 533.9,350 516,332.8 "></polygon><polygon id="spoly_209" data-role="section" data-sectionid="209" data-angle="227.1" points="499.1,351.4 491.1,360.1 481.7,384.4 490.1,393.1 490.1,393.1 492.5,395.4 517.2,368.4 "></polygon><polygon id="spoly_211" data-role="section" data-sectionid="211" data-angle="347.9" points="318.4,385.3 308.5,359.7 301.2,351.9 282.6,368.6 306.9,395.7 318.4,385.3 "></polygon><polygon id="spoly_212" data-role="section" data-sectionid="212" data-angle="334.5" points="299.6,350 284.5,333.6 265.7,349.6 281.2,366.7 299.6,350 "></polygon><polygon id="spoly_213" data-role="section" data-sectionid="213" data-angle="324" points="282.9,331.7 267.3,315 249.2,331 264.3,347.9 282.9,331.7 "></polygon><polygon id="spoly_214" data-role="section" data-sectionid="214" data-angle="325.4" points="265.7,313.3 260,307 255.6,299.2 237.6,309.4 243.5,319.6 250,327.3 265.7,313.3 "></polygon><polygon id="spoly_215" data-role="section" data-sectionid="215" data-angle="324.9" points="254.4,297.1 242.9,277.3 225.1,288.2 236.5,307.4 254.4,297.1 "></polygon><polygon id="spoly_216" data-role="section" data-sectionid="216" data-angle="330.5" points="241.7,275.4 229.9,255 209.2,267.9 221,287.9 241.7,275.4 "></polygon><polygon id="spoly_217" data-role="section" data-sectionid="217" data-angle="334" points="228.8,252.8 217.5,233.3 196.8,247 208.1,265.8 228.8,252.8 "></polygon><polygon id="spoly_218" data-role="section" data-sectionid="218" data-angle="343.1" points="216.3,231.2 205,211.9 183.6,224.1 195.6,244.8 216.3,231.2 "></polygon><polygon id="spoly_219" data-role="section" data-sectionid="219" data-angle="358" points="203.8,209.8 201.2,205.3 201.2,201.6 176.3,201.6 176.3,211.9 182.4,222 203.8,209.8 "></polygon><polygon id="spoly_220" data-role="section" data-sectionid="220" data-angle="360" points="201.2,199.2 201.2,176.6 176.3,176.6 176.3,199.2 201.2,199.2 "></polygon><polygon id="spoly_221" data-role="section" data-sectionid="221" data-angle="360" points="201.2,174.3 201.2,150.7 176.3,150.7 176.3,174.3 201.2,174.3 "></polygon><polygon id="spoly_222" data-role="section" data-sectionid="222" data-angle="360" points="201.2,148.4 201.2,126.2 176.3,126.2 176.3,148.4 201.2,148.4 "></polygon><polygon id="spoly_223" data-role="section" data-sectionid="223" data-angle="360" points="201.2,123.9 201.2,101.3 176.3,90.5 176.3,123.9 201.2,123.9 "></polygon><polygon id="spoly_300" data-role="section" data-sectionid="300" data-angle="360" points="629.9,160.1 629.9,168.1 668,168.1 668,160.1 651.3,160.1 637.4,160.1 629.9,160.1 "></polygon><polygon id="spoly_301" data-role="section" data-sectionid="301" data-angle="360" points="629.9,170.5 629.9,203 668,203 668,170.5 629.9,170.5 "></polygon><polygon id="spoly_302" data-role="section" data-sectionid="302" data-angle="351.2" points="629.9,205.3 629.9,214.7 627.7,218.5 668,231.2 668,205.3 629.9,205.3 "></polygon><polygon id="spoly_303" data-role="section" data-sectionid="303" data-angle="334.7" points="626.3,220.6 620.7,230.3 666.3,256.8 668,253.8 668,233.8 626.3,220.6 "></polygon><polygon id="spoly_304" data-role="section" data-sectionid="304" data-angle="331.7" points="619.5,232.4 606.8,253.8 653.2,281.6 665.2,259 619.5,232.4 "></polygon><polygon id="spoly_305" data-role="section" data-sectionid="305" data-angle="330.7" points="605.6,255.9 591.8,279 639.7,307.2 652.2,283.7 605.6,255.9 "></polygon><polygon id="spoly_306" data-role="section" data-sectionid="306" data-angle="334" points="590.6,281.1 577.9,302.5 626.3,332.1 638.6,309.1 590.6,281.1 "></polygon><polygon id="spoly_307" data-role="section" data-sectionid="307" data-angle="339.8" points="576.7,304.6 565.2,324.1 612,359.4 625.4,334.3 576.7,304.6 "></polygon><polygon id="spoly_308" data-role="section" data-sectionid="308" data-angle="333.7" points="564,326.3 561.2,331 548,345.6 591.8,385.1 610.6,361.3 564,326.3 "></polygon><polygon id="spoly_309" data-role="section" data-sectionid="309" data-angle="277.1" points="546.3,347.4 529.6,366.3 562.8,396.8 572.9,385.1 588.5,385.1 546.3,347.4 "></polygon><polygon id="spoly_310" data-role="section" data-sectionid="310" data-angle="207.1" points="528,367.9 510.1,387.9 544.2,418.7 561.4,398.7 528,367.9 "></polygon><polygon id="spoly_311" data-role="section" data-sectionid="311" data-angle="218.3" points="508.5,389.5 491.8,408.1 525.6,440.6 542.8,420.6 508.5,389.5 "></polygon><polygon id="spoly_312" data-role="section" data-sectionid="312" data-angle="224.3" points="490.1,410 475.1,427 506.6,463.2 524.2,442.5 490.1,410 "></polygon><polygon id="spoly_313" data-role="section" data-sectionid="313" data-angle="229.9" points="473.4,428.6 458.1,440.8 480.2,482 504.7,464.6 473.4,428.6 "></polygon><polygon id="spoly_314" data-role="section" data-sectionid="314" data-angle="225.9" points="456.2,442.2 437.7,450.7 451.8,495.6 478.1,483.2 456.2,442.2 "></polygon><polygon id="spoly_315" data-role="section" data-sectionid="315" data-angle="344.3" points="435.5,451.4 413.7,456.8 418.6,502.5 449.4,496.4 435.5,451.4 "></polygon><polygon id="spoly_316" data-role="section" data-sectionid="316" data-angle="270" points="411.3,457.1 384.7,457.1 379.1,502.7 416.3,502.7 411.3,457.1 "></polygon><polygon id="spoly_317" data-role="section" data-sectionid="317" data-angle="257.5" points="382.6,456.8 360.3,451.2 345.4,494.7 376.7,502.5 382.6,456.8 "></polygon><polygon id="spoly_318" data-role="section" data-sectionid="318" data-angle="237.3" points="358.1,450.2 340.7,440.8 316.5,480.8 343.3,493.8 358.1,450.2 "></polygon><polygon id="spoly_319" data-role="section" data-sectionid="319" data-angle="204" points="338.6,439.4 322.9,426.5 291.1,460.8 314.6,479.4 338.6,439.4 "></polygon><polygon id="spoly_320" data-role="section" data-sectionid="320" data-angle="326.5" points="321.2,424.8 306.2,407.9 271.8,438.7 289.5,459.2 321.2,424.8 "></polygon><polygon id="spoly_321" data-role="section" data-sectionid="321" data-angle="335.5" points="304.7,406 288,387 253.9,417.3 270.2,436.8 304.7,406 "></polygon><polygon id="spoly_322" data-role="section" data-sectionid="322" data-angle="321.7" points="286.4,385.1 269.5,365.5 235.6,395 252.3,415.4 286.4,385.1 "></polygon><polygon id="spoly_323" data-role="section" data-sectionid="323" data-angle="322.9" points="267.8,363.7 250.6,343.9 207.6,380.4 223.3,380.4 233.9,393.3 267.8,363.7 "></polygon><polygon id="spoly_324" data-role="section" data-sectionid="324" data-angle="329.6" points="249,342 235.6,326.7 233.5,323.2 185.9,357.1 203.1,380.4 204.1,380.4 249,342 "></polygon><polygon id="spoly_325" data-role="section" data-sectionid="325" data-angle="349.6" points="232.3,321.1 221,301.1 171.4,329.6 184.5,355 232.3,321.1 "></polygon><polygon id="spoly_326" data-role="section" data-sectionid="326" data-angle="326.7" points="219.8,299 207.1,276.1 158.7,304.6 170.4,327.4 219.8,299 "></polygon><polygon id="spoly_327" data-role="section" data-sectionid="327" data-angle="257.8" points="205.9,274 193.2,251.4 145.2,278.5 157.5,302.5 205.9,274 "></polygon><polygon id="spoly_328" data-role="section" data-sectionid="328" data-angle="202.2" points="192.1,249.6 179.1,226.7 132.5,253.6 144.3,276.4 192.1,249.6 "></polygon><polygon id="spoly_329" data-role="section" data-sectionid="329" data-angle="189.4" points="178.2,224.6 172.5,215.2 129.7,228.1 129.7,248.1 131.4,251.4 178.2,224.6 "></polygon><polygon id="spoly_330" data-role="section" data-sectionid="330" data-angle="180" points="171.4,213.1 169.2,209.1 169.2,198.7 129.7,198.7 129.7,225.8 171.4,213.1 "></polygon><polygon id="spoly_331" data-role="section" data-sectionid="331" data-angle="180" points="169.2,196.4 169.2,165.3 129.7,165.3 129.7,196.4 169.2,196.4 "></polygon><polygon id="spoly_332" data-role="section" data-sectionid="332" data-angle="180" points="169.2,163 169.2,155 129.7,155 129.7,163 169.2,163 "></polygon><polygon id="spoly_100W" data-role="section" data-sectionid="100W" data-angle="90" points="421.9,42 532,42 532,47.6 421.9,47.6 421.9,42 "></polygon><polygon id="spoly_145W" data-role="section" data-sectionid="145W" data-angle="90" points="266.6,41.5 376.7,41.5 376.7,47.2 266.6,47.2 266.6,41.5 "></polygon><polygon id="spoly_210A" data-role="section" data-sectionid="210A" data-angle="221.8" points="480.2,386.3 466.4,401.3 474.6,411 488.5,395 480.2,386.3 "></polygon><polygon id="spoly_210B" data-role="section" data-sectionid="210B" data-angle="219.4" points="464.5,402.7 450.1,412.6 456.7,424.8 472.7,412.4 464.5,402.7 "></polygon><polygon id="spoly_210C" data-role="section" data-sectionid="210C" data-angle="202.1" points="448,413.8 431.5,421.5 435.3,434.7 454.6,426 448,413.8 "></polygon><polygon id="spoly_210D" data-role="section" data-sectionid="210D" data-angle="299.3" points="429.2,422.2 413,426 413,439.9 433,435.4 429.2,422.2 "></polygon><polygon id="spoly_210E" data-role="section" data-sectionid="210E" data-angle="270" points="410.6,426.5 391.3,426.5 391.3,440.1 410.6,440.1 410.6,426.5 "></polygon><polygon id="spoly_210F" data-role="section" data-sectionid="210F" data-angle="264.2" points="389,426.2 370.6,422 366.6,436.8 366.9,436.8 389,439.9 389,426.2 "></polygon><polygon id="spoly_210G" data-role="section" data-sectionid="210G" data-angle="246.7" points="368.5,421.3 351.8,415 345.2,427.4 364.5,435.9 368.5,421.3 "></polygon><polygon id="spoly_210H" data-role="section" data-sectionid="210H" data-angle="227.2" points="349.7,413.8 336,403.4 327.1,412.8 343.3,426 349.7,413.8 "></polygon><polygon id="spoly_210I" data-role="section" data-sectionid="210I" data-angle="199.9" points="334.2,401.8 319.6,387.2 308.5,397.3 325.2,411.4 334.2,401.8 "></polygon><polygon id="spoly_300W" data-role="section" data-sectionid="300W" data-angle="360" points="637.4,87.2 629.9,87.2 629.9,157.8 637.4,157.8 637.4,87.2 "></polygon><polygon id="spoly_332W" data-role="section" data-sectionid="332W" data-angle="180" points="169.2,152.6 169.2,89.1 161.2,89.1 161.2,152.6 169.2,152.6 "></polygon><polygon id="spoly_A" data-role="section" data-sectionid="A" data-angle="210.3" points="497.7,255.4 508.7,239.9 494.1,231 484.2,247.7 497.7,255.4 "></polygon><polygon id="spoly_B" data-role="section" data-sectionid="B" data-angle="215.7" points="488.2,269.1 496.5,257.6 483.1,249.8 477.4,259 488.2,269.1 "></polygon><polygon id="spoly_C" data-role="section" data-sectionid="C" data-angle="222.1" points="489.9,291 498.4,281.6 482.6,267 474.1,276.4 489.9,291 "></polygon><polygon id="spoly_D" data-role="section" data-sectionid="D" data-angle="215.8" points="480,302 488.2,292.8 472.5,278 464.2,287.2 480,302 "></polygon><polygon id="spoly_E" data-role="section" data-sectionid="E" data-angle="212.3" points="470.6,312.6 478.6,303.7 462.8,288.8 454.4,298.3 470.6,312.6 "></polygon><polygon id="spoly_F" data-role="section" data-sectionid="F" data-angle="203.9" points="460,324.1 469,314.3 452.7,299.9 444.2,309.3 460,324.1 "></polygon><polygon id="spoly_G" data-role="section" data-sectionid="G" data-angle="196.1" points="449.7,335.9 458.6,326 445.9,314 442.1,317.8 433.2,309.3 428.5,314.7 449.7,335.9 "></polygon><polygon id="spoly_H" data-role="section" data-sectionid="H" data-angle="322.6" points="431.8,353.1 440,346.7 448,337.6 426.8,316.4 426.6,316.8 417.2,326.3 431.8,353.1 "></polygon><polygon id="spoly_I" data-role="section" data-sectionid="I" data-angle="304.4" points="411.5,361.3 419.5,359.7 429.7,354.3 415.3,328.1 415.3,328.1 408.3,331.2 411.5,361.3 "></polygon><polygon id="spoly_J" data-role="section" data-sectionid="J" data-angle="270" points="389.4,361.8 391.3,362.3 407.3,362.3 409.2,361.8 405.9,331.9 393,331.9 "></polygon><polygon id="spoly_K" data-role="section" data-sectionid="K" data-angle="254.6" points="369,355 379.8,359.7 387.1,361.3 390.6,331.2 384.3,328.4 369,355 "></polygon><polygon id="spoly_L" data-role="section" data-sectionid="L" data-angle="231" points="350.4,337.3 359.1,347 367.1,353.5 382.4,326.7 373,317.8 373,317.8 350.4,337.3 "></polygon><polygon id="spoly_M" data-role="section" data-sectionid="M" data-angle="219.9" points="339.8,325.8 348.7,335.7 371.6,315.9 365.9,308.8 354.6,318.7 351.8,315.4 339.8,325.8 "></polygon><polygon id="spoly_N" data-role="section" data-sectionid="N" data-angle="217.8" points="329.9,314.7 338.4,324.1 355.1,309.6 346.1,299.9 329.9,314.7 "></polygon><polygon id="spoly_O" data-role="section" data-sectionid="O" data-angle="209.2" points="320,303.7 328.3,312.8 344.5,298 336.5,289.1 320,303.7 "></polygon><polygon id="spoly_P" data-role="section" data-sectionid="P" data-angle="198.2" points="309.9,292.6 318.4,302 335.1,287.4 326.6,278.3 309.9,292.6 "></polygon><polygon id="spoly_Q" data-role="section" data-sectionid="Q" data-angle="187.3" points="300.3,281.8 308.5,291 325,276.4 316.5,267.2 300.3,281.8 "></polygon><polygon id="spoly_R" data-role="section" data-sectionid="R" data-angle="185.2" points="302.9,257.3 310.6,269.1 321.4,259.4 316,249.8 302.9,257.3 "></polygon><polygon id="spoly_S" data-role="section" data-sectionid="S" data-angle="348.8" points="305,230.5 290.6,238.7 301.7,255.4 314.9,247.7 305,230.5 "></polygon><polygon id="spoly_aw" data-role="section" data-sectionid="aw" data-angle="210.5" points="483.5,247.1 493.2,230.5 490.9,229.4 481,245.7 "></polygon><polygon id="spoly_bw" data-role="section" data-sectionid="bw" data-angle="216.3" points="476.9,258.5 474.6,256.7 479.9,248.4 482.2,249.9 "></polygon><polygon id="spoly_rfw" data-role="section" data-sectionid="rfw" data-angle="142.2" points="509.5,99.6 506,102.8 530.2,123.8 533,120.6 "></polygon><polygon id="spoly_214L" data-role="section" data-sectionid="214L" data-angle="321.9" points="249.3,327.9 247,329.8 240,321.9 233.9,310.9 236.7,309.8 242.2,320.1 "></polygon><polygon id="spoly_215L" data-role="section" data-sectionid="215L" data-angle="335.7" points="235.6,307.9 233.1,309 221.9,290.3 224.2,288.7 "></polygon><polygon id="spoly_lf_terrace" data-role="section" data-sectionid="lf_terrace" data-angle="38.2" points="174.4,83.7 200,95.4 225.4,74 207.9,55.7 "></polygon><polygon class="is-d epoly_dback_suites" data-role="dynamic" points="416.7,445.6 " style="fill:#; stroke:#; stroke-width:0; fill-opacity:0.0;"></polygon><polygon class="is-d epoly_hr_patio" data-role="dynamic" points="492.7,87.8 " style="fill:#; stroke:#; stroke-width:0; fill-opacity:0.0;"></polygon><polygon class="is-d epoly_pool" data-role="dynamic" points="465.7,60.3 " style="fill:#; stroke:#; stroke-width:0; fill-opacity:0.0;"></polygon><polygon class="is-d epoly_home_run_porch_1" data-role="dynamic" points="377.5,51 " style="fill:#; stroke:#; stroke-width:0; fill-opacity:0.0;"></polygon><polygon class="is-d epoly_diamondback_suites" data-role="dynamic" points="380.9,445 " style="fill:#; stroke:#; stroke-width:0; fill-opacity:0.0;"></polygon><polygon class="is-d epoly_the_draft_room" data-role="dynamic" points="554.9,32.4 608.5,81.6 592.8,100.2 538.7,50.8 " style="fill:#F4F4F4; stroke:#BEBEBE; stroke-width:1; fill-opacity:1.0;"></polygon><polygon class="is-d epoly_patio" data-role="dynamic" points="265.9,22.5 375.6,22.5 375.6,36.6 265.9,36.6 " style="fill:#F4F4F4; stroke:#BEBEBE; stroke-width:1; fill-opacity:1.0;"></polygon><polygon class="is-d epoly_bench_visitor" data-role="dynamic" points="432.3,305.1 473.1,259 480.4,266.1 439.8,312.2 " style="fill:#DDD; stroke:#DDD; stroke-width:0; fill-opacity:1.0;"></polygon><polygon class="is-d epoly_strike_zone" data-role="dynamic" points="420.8,23.1 530.9,23.1 530.9,36.9 420.8,36.9 " style="fill:#F4F4F4; stroke:#BEBEBE; stroke-width:1; fill-opacity:1.0;"></polygon><polygon class="is-d epoly_videoboard_1" data-role="dynamic" points="343,3.4 452.8,3.4 452.8,19.1 343,19.1 " style="fill:#F4F4F4; stroke:#BEBEBE; stroke-width:1; fill-opacity:1.0;"></polygon><polygon class="is-d epoly_bench_home" data-role="dynamic" points="318.3,266.7 326,259.5 365.8,303.7 358.5,310.8 " style="fill:#000; stroke:#000; stroke-width:0; fill-opacity:1.0;"></polygon></g><circle id="mctrmrk" cx="400.7" cy="299.5" r="1" stroke-width="0" stroke="#FFF" opacity="0"></circle><g id="svgsectionnames" style="opacity:1; font-size:5.766666666666667px;"><text data-sectionid="101" data-role="section" x="495.8" y="62">101</text><text data-sectionid="102" data-role="section" x="509.8" y="68.8">102</text><text data-sectionid="103" data-role="section" x="526.5" y="82">103</text><text data-sectionid="104" data-role="section" x="544.6" y="96.5">104</text><text data-sectionid="105" data-role="section" x="560.6" y="109.2">105</text><text data-sectionid="106" data-role="section" x="575.5" y="126.6">106</text><text data-sectionid="107" data-role="section" x="574.6" y="145.3">107</text><text data-sectionid="108" data-role="section" x="574.9" y="167.1">108</text><text data-sectionid="109" data-role="section" x="572.7" y="189.8">109</text><text data-sectionid="110" data-role="section" x="566.7" y="208.9">110</text><text data-sectionid="111" data-role="section" x="555.8" y="227.3">111</text><text data-sectionid="112" data-role="section" x="545.6" y="246.2">112</text><text data-sectionid="113" data-role="section" x="534.5" y="266.2">113</text><text data-sectionid="114" data-role="section" x="523.5" y="286.8">114</text><text data-sectionid="115" data-role="section" x="510.2" y="304.8">115</text><text data-sectionid="116" data-role="section" x="494.8" y="321.2">116</text><text data-sectionid="117" data-role="section" x="480.3" y="337.2">117</text><text data-sectionid="118" data-role="section" x="463.7" y="355.9">118</text><text data-sectionid="119" data-role="section" x="448.7" y="369.2">119</text><text data-sectionid="120" data-role="section" x="434.5" y="377.6">120</text><text data-sectionid="121" data-role="section" x="418.6" y="383.2">121</text><text data-sectionid="122" data-role="section" x="400.2" y="386.2">122</text><text data-sectionid="123" data-role="section" x="381.4" y="383.8">123</text><text data-sectionid="124" data-role="section" x="364.7" y="378.6">124</text><text data-sectionid="125" data-role="section" x="349.4" y="370">125</text><text data-sectionid="126" data-role="section" x="335.2" y="355.8">126</text><text data-sectionid="127" data-role="section" x="319.5" y="336.7">127</text><text data-sectionid="128" data-role="section" x="305.6" y="321.9">128</text><text data-sectionid="129" data-role="section" x="290.9" y="305.4">129</text><text data-sectionid="130" data-role="section" x="275.1" y="286.5">130</text><text data-sectionid="131" data-role="section" x="262.7" y="267">131</text><text data-sectionid="132" data-role="section" x="251.2" y="248.5">132</text><text data-sectionid="133" data-role="section" x="239.4" y="229.9">133</text><text data-sectionid="134" data-role="section" x="227.2" y="211.4">134</text><text data-sectionid="135" data-role="section" x="221.9" y="190.4">135</text><text data-sectionid="136" data-role="section" x="221.9" y="167.5">136</text><text data-sectionid="137" data-role="section" x="222.1" y="145.5">137</text><text data-sectionid="138" data-role="section" x="221.9" y="126.1">138</text><text data-sectionid="139" data-role="section" x="236.5" y="110.3">139</text><text data-sectionid="140" data-role="section" x="252.6" y="97.3">140</text><text data-sectionid="141" data-role="section" x="270.4" y="83.1">141</text><text data-sectionid="142" data-role="section" x="288.1" y="68.2">142</text><text data-sectionid="143" data-role="section" x="316.3" y="70.7">143</text><text data-sectionid="144" data-role="section" x="334.7" y="63">144</text><text data-sectionid="200" data-role="section" x="608.2" y="194.3">200</text><text data-sectionid="201" data-role="section" x="608.1" y="210.1">201</text><text data-sectionid="202" data-role="section" x="600.3" y="229.2">202</text><text data-sectionid="203" data-role="section" x="588.1" y="251.7">203</text><text data-sectionid="204" data-role="section" x="575.3" y="273.3">204</text><text data-sectionid="205" data-role="section" x="563.5" y="295.1">205</text><text data-sectionid="206" data-role="section" x="550.5" y="314.8">206</text><text data-sectionid="207" data-role="section" x="535.8" y="332">207</text><text data-sectionid="208" data-role="section" x="518.4" y="351.2">208</text><text data-sectionid="209" data-role="section" x="499.1" y="373.3">209</text><text data-sectionid="211" data-role="section" x="303.3" y="374.8">211</text><text data-sectionid="212" data-role="section" x="282.6" y="352.1">212</text><text data-sectionid="213" data-role="section" x="266" y="333.4">213</text><text data-sectionid="214" data-role="section" x="250.2" y="315">214</text><text data-sectionid="215" data-role="section" x="238.1" y="294">215</text><text data-sectionid="216" data-role="section" x="225.8" y="272.6">216</text><text data-sectionid="217" data-role="section" x="213.1" y="250.9">217</text><text data-sectionid="218" data-role="section" x="200.6" y="229.2">218</text><text data-sectionid="219" data-role="section" x="189.8" y="209.9">219</text><text data-sectionid="220" data-role="section" x="189.4" y="188.9">220</text><text data-sectionid="221" data-role="section" x="189.7" y="163.8">221</text><text data-sectionid="222" data-role="section" x="189.4" y="137.9">222</text><text data-sectionid="223" data-role="section" x="189.4" y="111">223</text><text data-sectionid="300" data-role="section" x="647.7" y="168.1">300</text><text data-sectionid="301" data-role="section" x="647.7" y="186.8">301</text><text data-sectionid="302" data-role="section" x="647.7" y="216">302</text><text data-sectionid="303" data-role="section" x="645.9" y="236.3">303</text><text data-sectionid="304" data-role="section" x="635.5" y="257">304</text><text data-sectionid="305" data-role="section" x="621.5" y="281.1">305</text><text data-sectionid="306" data-role="section" x="608.7" y="305.6">306</text><text data-sectionid="307" data-role="section" x="594.1" y="329.6">307</text><text data-sectionid="308" data-role="section" x="576.5" y="353.5">308</text><text data-sectionid="309" data-role="section" x="557.1" y="374.3">309</text><text data-sectionid="310" data-role="section" x="537.6" y="395.6">310</text><text data-sectionid="311" data-role="section" x="519.1" y="417.8">311</text><text data-sectionid="312" data-role="section" x="501.8" y="438.3">312</text><text data-sectionid="313" data-role="section" x="480.8" y="456.2">313</text><text data-sectionid="314" data-role="section" x="456.7" y="469.2">314</text><text data-sectionid="315" data-role="section" x="430.3" y="477.9">315</text><text data-sectionid="316" data-role="section" x="397.7" y="483">316</text><text data-sectionid="317" data-role="section" x="365.9" y="477.8">317</text><text data-sectionid="318" data-role="section" x="339.2" y="469.5">318</text><text data-sectionid="319" data-role="section" x="315.5" y="454.5">319</text><text data-sectionid="320" data-role="section" x="294.7" y="435.3">320</text><text data-sectionid="321" data-role="section" x="276.3" y="415">321</text><text data-sectionid="322" data-role="section" x="259.1" y="392.5">322</text><text data-sectionid="323" data-role="section" x="240.2" y="371.4">323</text><text data-sectionid="324" data-role="section" x="219.3" y="350.2">324</text><text data-sectionid="325" data-role="section" x="202.3" y="327.3">325</text><text data-sectionid="326" data-role="section" x="189.2" y="303.8">326</text><text data-sectionid="327" data-role="section" x="175.6" y="279">327</text><text data-sectionid="328" data-role="section" x="162.3" y="253.6">328</text><text data-sectionid="329" data-role="section" x="152.1" y="230.8">329</text><text data-sectionid="330" data-role="section" x="151.8" y="209.1">330</text><text data-sectionid="331" data-role="section" x="151.9" y="182.1">331</text><text data-sectionid="332" data-role="section" x="151.3" y="163.7">332</text><text data-sectionid="100W" data-role="section" x="477.6" y="49.5">100W</text><text data-sectionid="145W" data-role="section" x="321.7" y="47.8">145W</text><text data-sectionid="210A" data-role="section" x="479.9" y="397.5" transform="rotate(676.061 479.9 397.5)">210A</text><text data-sectionid="210B" data-role="section" x="463" y="416" transform="rotate(684.224 463 416)">210B</text><text data-sectionid="210C" data-role="section" x="444.6" y="427.7" transform="rotate(695.45 444.6 427.7)">210C</text><text data-sectionid="210D" data-role="section" x="422.8" y="431.5" transform="rotate(710.433 422.8 431.5)">210D</text><text data-sectionid="210E" data-role="section" x="401" y="435.3" transform="rotate(360 401 435.3)">210E</text><text data-sectionid="210F" data-role="section" x="379.5" y="432.3" transform="rotate(365.652 379.5 432.3)">210F</text><text data-sectionid="210G" data-role="section" x="357.3" y="425.9" transform="rotate(382.249 357.3 425.9)">210G</text><text data-sectionid="210H" data-role="section" x="338.2" y="414.1" transform="rotate(393.503 338.2 414.1)">210H</text><text data-sectionid="210I" data-role="section" x="319.5" y="399.5" transform="rotate(405 319.5 399.5)">210I</text><text data-sectionid="300W" data-role="section" x="631.2" y="121.7" transform="rotate(90 631.2 121.7)">300W</text><text data-sectionid="332W" data-role="section" x="167.7" y="119.7" transform="rotate(270 167.7 119.7)">332W</text><text data-sectionid="A" data-role="section" x="496.5" y="245.2">A</text><text data-sectionid="B" data-role="section" x="486.9" y="261.4">B</text><text data-sectionid="C" data-role="section" x="486.2" y="281">C</text><text data-sectionid="D" data-role="section" x="476.2" y="292">D</text><text data-sectionid="E" data-role="section" x="466.5" y="302.7">E</text><text data-sectionid="F" data-role="section" x="456.6" y="314">F</text><text data-sectionid="G" data-role="section" x="446" y="324.1">G</text><text data-sectionid="H" data-role="section" x="432.8" y="335.8">H</text><text data-sectionid="I" data-role="section" x="417.3" y="346.6">I</text><text data-sectionid="J" data-role="section" x="399.7" y="348.7">J</text><text data-sectionid="K" data-role="section" x="381.8" y="346.7">K</text><text data-sectionid="L" data-role="section" x="366.4" y="337.7">L</text><text data-sectionid="M" data-role="section" x="352.3" y="324.7">M</text><text data-sectionid="N" data-role="section" x="342.5" y="314">N</text><text data-sectionid="O" data-role="section" x="332.3" y="303">O</text><text data-sectionid="P" data-role="section" x="322.5" y="292.1">P</text><text data-sectionid="Q" data-role="section" x="312.6" y="281.1">Q</text><text data-sectionid="R" data-role="section" x="312.2" y="261.4">R</text><text data-sectionid="S" data-role="section" x="302.7" y="245">S</text><text data-sectionid="aw" data-role="section" x="487.1" y="240.3" transform="rotate(305.641 487.1 240.3)">AW</text><text data-sectionid="bw" data-role="section" x="478.4" y="255.4" transform="rotate(305.641 478.4 255.4)">BW</text><text data-sectionid="rfw" data-role="section" x="519.5" y="113.7" transform="rotate(39.6128 519.5 113.7)">RFW</text><text data-sectionid="214L" data-role="section" x="241.6" y="321.8" transform="rotate(58.3135 241.6 321.8)">214L</text><text data-sectionid="215L" data-role="section" x="228.7" y="300.9" transform="rotate(58.3135 228.7 300.9)">215L</text><text data-sectionid="lf_terrace" data-role="section" x="199.9" y="77.3" transform="rotate(319.679 199.9 77.3)">TERRACE</text><text class="is-d " text-anchor="middle" x="416.7" y="446.6" style="fill:#999; font-size:5.9px; " dominant-baseline="central" data-offset="0|0.3" transform="rotate(354 416.7 446.6)">SUITES</text><text class="is-d " text-anchor="middle" x="492.7" y="88.8" style="fill:#999; font-size:5.9px; " dominant-baseline="central" data-offset="0|0.3" transform="rotate(44 492.7 88.8)">HR PATIO</text><text class="is-d " text-anchor="middle" x="465.7" y="61.3" style="fill:#999; font-size:5.9px; " dominant-baseline="central" data-offset="0|0.3" transform="rotate(44 465.7 61.3)">POOL</text><text class="is-d " text-anchor="middle" x="377.5" y="52" style="fill:#999; font-size:5.9px; " dominant-baseline="central" data-offset="0|0.3" null="">HOME RUN PORCH</text><text class="is-d " text-anchor="middle" x="380.9" y="446" style="fill:#999; font-size:5.9px; " dominant-baseline="central" data-offset="0|0.3" transform="rotate(8 380.9 446)">DBACK</text><text class="is-d " text-anchor="middle" x="573.6" y="68.3" style="fill:#999; font-size:5.9px; " dominant-baseline="central" data-offset="0|0.3" transform="rotate(45 573.6 68.3)">THE DRAFT ROOM</text><text class="is-d " text-anchor="middle" x="320.7" y="31.5" style="fill:#999; font-size:5.9px; " dominant-baseline="central" data-offset="0|0.3" null="">PATIO</text><text class="is-d dyn-name-bench bench_visitor rotated" text-anchor="middle" x="456.3" y="287.6" style="fill:#666; font-size:5.9px; " dominant-baseline="central" data-offset="0|0.3" transform="rotate(312 456.3 287.6)">VISITOR</text><text class="is-d " text-anchor="middle" x="475.9" y="32" style="fill:#999; font-size:5.9px; " dominant-baseline="central" data-offset="0|0.3" null="">STRIKE ZONE</text><text class="is-d " text-anchor="middle" x="397.9" y="13.2" style="fill:#999; font-size:5.9px; " dominant-baseline="central" data-offset="0|0.3" null="">VIDEOBOARD</text><text class="is-d dyn-name-bench bench_home rotated" text-anchor="middle" x="340.2" y="286.1" style="fill:#FFF; font-size:5.9px; " dominant-baseline="central" data-offset="0|0.3" transform="rotate(53 340.2 286.1)">HOME</text></g></g><circle id="svgZoomCenter" r="1" stroke-width="0" fill-opacity="0" cx="334" cy="259.5"></circle><circle id="svgNorthWest" r="1" stroke-width="0" fill-opacity="0" cx="0" cy="0"></circle><circle id="svgSouthEast" r="1" stroke-width="0" fill-opacity="0" cx="794" cy="519"></circle><g id="svgmarkers" style="font-size: 10.3px;"><circle id="svg-marker-hover" data-ticket="" style="display: none;"></circle></g>undefined</g><circle id="svgZoomCenterLoad" r="1" stroke-width="0" fill-opacity="0" cx="397" cy="259.5"></circle></g></g></svg>