<svg xmlns="http://www.w3.org/2000/svg" xmlns:xlink="http://www.w3.org/1999/xlink" id="svgmap" width="100%" height="100%" style="touch-action: none;" viewBox="101.4 -28.7 594.4 558.9"><style>
polygon[id^="spoly_"] { fill: #d0d8e4; stroke: #7a8fa6; stroke-width: 2; }
polygon[id^="spoly_"]:hover { fill: #5b8ccc; cursor: pointer; }
.svgText { font-family: Arial, sans-serif; fill: #333; font-size: 9px; }
</style>
         <g id="svgdefs"><defs id="svgdefstyle">
      <linearGradient id="ticketGradient" x1="0%" y1="0%" x2="100%" y2="0%"><stop offset="0%" stop-color="#840ac9"></stop><stop offset="30%" stop-color="#d60eb2"></stop><stop offset="50%" stop-color="#fa0b81"></stop><stop offset="100%" stop-color="#fa0b81"></stop></linearGradient>
      <radialGradient id="markerGradient" cx="50%" cy="50%" r="50%"><stop offset="0%" stop-color="#fa0b81"></stop><stop offset="95%" stop-color="#d60eb2"></stop><stop offset="100%" stop-color="#840ac9"></stop></radialGradient>
      <linearGradient id="flagGradient" x1="0%" y1="0%" x2="100%" y2="100%">
         <stop offset="0%" stop-color="#840ac9"></stop>
         <stop offset="40%" stop-color="#d60eb2"></stop>
         <stop offset="80%" stop-color="#fa0b81"></stop>
         <stop offset="100%" stop-color="#c40665"></stop> 
      </linearGradient>      
      <linearGradient id="svgmapticket" x1="0%" y1="0%" x2="0%" y2="100%"><stop offset="0%" style="stop-color:#5BADFF;stop-opacity:1"></stop><stop offset="100%" style="stop-color:#0066CC;stop-opacity:1"></stop></linearGradient><linearGradient id="svgdealticket" x1="0%" y1="0%" x2="0%" y2="100%"> <stop offset="0%" style="stop-color:#66FF00;stop-opacity:1"></stop><stop offset="100%" style="stop-color:#61C100;stop-opacity:1"></stop></linearGradient><linearGradient id="svggreatticket" x1="0%" y1="0%" x2="0%" y2="100%"><stop offset="0%" style="stop-color:#00CC33;stop-opacity:1"></stop><stop offset="100%" style="stop-color:#009100;stop-opacity:1"></stop></linearGradient><filter id="coinShadow" x="-40%" y="-40%" width="200%" height="200%">            <feGaussianBlur in="SourceAlpha" stdDeviation="3"></feGaussianBlur><feOffset dx="2" dy="2" result="offsetblur"></feOffset><feMerge><feMergeNode></feMergeNode><feMergeNode in="SourceGraphic"></feMergeNode></feMerge></filter></defs>  </g>
         <g class="testmask" mask="url(#fade)" style="scale: 0.95; transform-origin:center;">
         <g id="viewport" transform="matrix(1,0,0,1,0,0)" data-zoomfactor="100"><g id="scaleSVG" data-scale="1" transform="scale(1)" class="testrotate"><g id="svgelements"><image id="svgOverlay" class="nopointereventsmap" xlink:href="/assets/images/venues/overlays/att-park-mlb_4-2020.png" x="-116.8" y="-108.5" width="1030.4px" height="731.9px"></image><g id="svgpolygroup"><polygon id="spoly_101" data-role="section" data-sectionid="101" data-angle="340.4" points="582.2,206.3 572.9,180.9 564,183.1 551.8,195.9 548.6,195.9 547.6,200.6 582.2,206.3 "></polygon><polygon id="spoly_102" data-role="section" data-sectionid="102" data-angle="340.3" points="589,225 582.8,208.3 547.3,202.5 544.4,217.7 589,225 "></polygon><polygon id="spoly_103" data-role="section" data-sectionid="103" data-angle="305.3" points="592.7,265.3 602.5,253.3 595.4,247.5 578.4,239.7 579.2,238 595.4,245.5 595.4,242.4 589.6,226.9 544.1,219.5 543.2,224 592.7,265.3 "></polygon><polygon id="spoly_104" data-role="section" data-sectionid="104" data-angle="268.4" points="581.5,278.7 591.5,266.6 542.2,225.6 532.1,237.6 581.5,278.7 "></polygon><polygon id="spoly_105" data-role="section" data-sectionid="105" data-angle="223" points="570.2,292.3 580.3,280.1 534,241.2 523.4,253.2 570.2,292.3 "></polygon><polygon id="spoly_106" data-role="section" data-sectionid="106" data-angle="196.9" points="559.4,305.3 569,293.6 522.1,254.7 512.2,265.8 559.4,305.3 "></polygon><polygon id="spoly_107" data-role="section" data-sectionid="107" data-angle="209.1" points="553.7,303.2 510.6,267 504.7,273.9 523.2,289.4 524.4,288 532.2,294.5 527.6,300.4 543.9,314.5 "></polygon><polygon id="spoly_108" data-role="section" data-sectionid="108" data-angle="213.8" points="537,332.1 547.4,319.6 525,300.5 527.3,297.8 520.9,292.1 522.1,290.7 506.6,277.9 496,290.3 511.8,303.4 513.1,302 520.9,308.5 516.2,314.4 537,332.1 "></polygon><polygon id="spoly_109" data-role="section" data-sectionid="109" data-angle="217.4" points="525.7,345.7 535.9,333.5 513.6,314.7 515.9,312 509.6,306.2 510.7,304.8 494.9,291.6 487.4,300.4 482.3,296.3 479.5,299.6 500.5,317 501.7,315.6 509.6,322.2 504.9,328 525.7,345.7 "></polygon><polygon id="spoly_110" data-role="section" data-sectionid="110" data-angle="223.4" points="514.4,359.3 524.5,347.1 502.3,328.3 504.5,325.6 498.2,319.8 499.3,318.5 478.3,301 469.9,310.9 490.9,331.4 488.3,334.1 514.4,359.3 "></polygon><polygon id="spoly_112" data-role="section" data-sectionid="112" data-angle="228.9" points="466.4,315.4 465.2,316.7 461.9,319.3 474.9,341.5 476.5,340.6 481.1,348.7 479.5,349.5 492.5,372.7 496.9,369.4 501.1,365.8 505,361.9 508.8,357.7 508.8,357.6 509.3,357 466.4,315.4 466.4,315.4 "></polygon><polygon id="spoly_113" data-role="section" data-sectionid="113" data-angle="235.4" points="461,319.8 459.5,320.5 456.1,322 452.1,323.1 456.3,348.5 458.1,348.2 459.5,356.8 463.7,355.9 467.6,354.7 469.3,354.2 473.7,366.2 480,363.5 484.1,361.5 477.9,350.5 476.3,351.3 471.8,343.3 473.4,342.5 "></polygon><polygon id="spoly_114" data-role="section" data-sectionid="114" data-angle="247.1" points="468.2,356.4 463.3,357.7 458.1,358.7 459.8,370.2 463.1,369.4 466.3,368.6 472,366.7 468.2,356.4 468.2,356.4 "></polygon><polygon id="spoly_115" data-role="section" data-sectionid="115" data-angle="245.3" points="437.9,349.1 436.5,357.1 440.5,357.5 444.4,357.7 446.2,357.7 446.2,371.9 452.3,371.4 458.1,370.6 456,358 454.3,358.2 452.8,349.1 454.5,348.9 450.7,323.4 449.1,323.5 445.1,323.7 440.3,323.4 436.1,348.9 437.9,349.1 437.9,349.1 "></polygon><polygon id="spoly_116" data-role="section" data-sectionid="116" data-angle="316.5" points="444.4,359.4 439.4,359.1 434.4,358.5 432.4,370.7 438.3,371.4 441.4,371.6 444.4,371.8 444.4,359.4 444.4,359.4 "></polygon><polygon id="spoly_117" data-role="section" data-sectionid="117" data-angle="202.5" points="438.5,323.4 436.9,322.9 433.1,321.7 429.7,320.3 417.2,342.5 418.8,343.3 414.5,350.9 418.6,352.8 422.8,354.5 423,354.6 418.7,367.3 424.4,369 430.6,370.4 432.8,357.6 431,357.3 432.4,348.2 434.3,348.5 "></polygon><polygon id="spoly_118" data-role="section" data-sectionid="118" data-angle="229.1" points="420.8,355.6 415.3,353.4 412.7,352.1 410.4,350.8 399,370.5 401.9,372.1 405.9,374.1 410.8,363.9 413.6,365.1 416.8,366.3 420.8,355.6 420.8,355.6 "></polygon><polygon id="spoly_119" data-role="section" data-sectionid="119" data-angle="214.1" points="397.2,369.6 414.1,340.6 415.7,341.5 428.6,319.6 427,318.8 424.6,317.3 422.6,315.8 403.9,335 405.2,336.3 398.8,342.9 397.5,341.6 381.6,357.8 383.4,359.8 386.5,362.7 390.8,366 393.2,367.6 396,369.1 397.2,369.6 397.2,369.6 "></polygon><polygon id="spoly_121" data-role="section" data-sectionid="121" data-angle="219" points="421.2,314.8 420.2,313.6 418.8,312 410.9,302.4 391.3,318.6 392.5,320 386.2,325.7 388.4,328.3 363.3,349.7 372.8,361.3 374.3,362.7 396.1,340.3 394.8,339 401.3,332.5 402.6,333.7 "></polygon><polygon id="spoly_122" data-role="section" data-sectionid="122" data-angle="217" points="409.7,300.8 406.6,297.1 402.4,300.4 394.8,291.6 379.9,303.9 381.1,305.3 374.7,311.1 377,313.7 351.6,335.4 362.1,348.2 385.8,328 381.1,322.2 388.9,315.6 390.1,317 409.7,300.8 "></polygon><polygon id="spoly_123" data-role="section" data-sectionid="123" data-angle="220.8" points="383,277.7 368.6,289.8 369.8,291.2 363.4,297 365.6,299.7 340.2,321.4 350.4,333.9 374.4,313.5 369.8,307.6 377.6,301.1 378.8,302.5 393.7,290.1 383,277.7 "></polygon><polygon id="spoly_124" data-role="section" data-sectionid="124" data-angle="215.7" points="378.8,266.6 329.3,308.1 339.1,320 363,299.4 358.4,293.6 366.2,287.1 367.4,288.4 385,273.8 378.8,266.6 "></polygon><polygon id="spoly_125" data-role="section" data-sectionid="125" data-angle="211.8" points="379.3,263.9 369.6,252 318.5,294.8 328.1,306.6 379.3,263.9 "></polygon><polygon id="spoly_126" data-role="section" data-sectionid="126" data-angle="200.7" points="368.5,250.6 359.9,240.2 303.3,273.2 309.4,283.5 332.7,265.8 333.8,267.3 310.4,285 317.3,293.3 368.5,250.6 "></polygon><polygon id="spoly_127" data-role="section" data-sectionid="127" data-angle="204.6" points="358.9,238.7 351.3,225.4 294.3,258.1 302.3,271.7 358.9,238.7 "></polygon><polygon id="spoly_128" data-role="section" data-sectionid="128" data-angle="223.6" points="350.4,223.8 342.5,210.1 285.3,242.9 293.4,256.5 350.4,223.8 "></polygon><polygon id="spoly_129" data-role="section" data-sectionid="129" data-angle="259.2" points="341.6,208.6 333.6,194.6 276.2,227.4 284.4,241.3 341.6,208.6 "></polygon><polygon id="spoly_130" data-role="section" data-sectionid="130" data-angle="304.2" points="332.7,193.1 324.9,179.6 267.4,212.5 275.3,225.9 332.7,193.1 "></polygon><polygon id="spoly_131" data-role="section" data-sectionid="131" data-angle="331" points="323.9,178.1 317.6,171.5 304.8,171.5 258.7,197.9 266.5,211 323.9,178.1 "></polygon><polygon id="spoly_132" data-role="section" data-sectionid="132" data-angle="341.6" points="251.2,185.1 257.8,196.4 301.1,171.5 274.9,171.5 251.2,185.1 "></polygon><polygon id="spoly_133" data-role="section" data-sectionid="133" data-angle="18.9" points="252.3,161.7 246.5,177 250.3,183.5 272.6,170.7 252.3,161.7 "></polygon><polygon id="spoly_134" data-role="section" data-sectionid="134" data-angle="14.2" points="261.6,152.6 253,160.1 274.8,169.7 300.7,169.7 261.6,152.6 "></polygon><polygon id="spoly_135" data-role="section" data-sectionid="135" data-angle="21" points="315.9,169.7 304.3,157.6 305.7,154 305.5,153.6 285.9,131.2 276.1,140.6 286.8,148 286,149.6 278.3,144.5 271.4,154.7 305.2,169.7 315.9,169.7 "></polygon><polygon id="spoly_136" data-role="section" data-sectionid="136" data-angle="41.7" points="290.7,96.8 281.3,104.7 309.9,139.2 319.4,131.3 290.7,96.8 "></polygon><polygon id="spoly_137" data-role="section" data-sectionid="137" data-angle="144.8" points="308.5,81.7 292,95.6 320.7,130.1 337.2,116.3 308.5,81.7 "></polygon><polygon id="spoly_138" data-role="section" data-sectionid="138" data-angle="148.2" points="326.1,66.9 309.8,80.6 338.6,115.2 352.8,103.3 342.8,91.3 344.9,89.6 326.1,66.9 "></polygon><polygon id="spoly_139" data-role="section" data-sectionid="139" data-angle="135.6" points="343.1,52.4 327.5,65.7 346.3,88.3 349.1,86 359.1,98 372,87.2 343.1,52.4 "></polygon><polygon id="spoly_140" data-role="section" data-sectionid="140" data-angle="131.5" points="361,37.3 344.5,51.2 366.8,78 372.4,73.2 379.1,81.2 390,72.2 361,37.3 "></polygon><polygon id="spoly_141" data-role="section" data-sectionid="141" data-angle="129.5" points="387.2,15 373.7,26.5 384.7,39.7 383.3,40.8 372.4,27.6 362.4,36.1 385.3,63.6 390.8,59 396.9,66.2 403,61.2 387.2,15 "></polygon><polygon id="spoly_142" data-role="section" data-sectionid="142" data-angle="90" points="420.3,14.9 411.2,14.9 411.2,32.9 409.5,32.9 409.5,14.9 389.2,14.9 400.3,47 420.3,47 420.3,14.9 "></polygon><polygon id="spoly_143" data-role="section" data-sectionid="143" data-angle="90" points="491.6,14.9 470.2,14.9 470.2,43.7 488.2,44.6 491.6,44.6 491.6,14.9 "></polygon><polygon id="spoly_144" data-role="section" data-sectionid="144" data-angle="90" points="503.3,14.9 493.4,14.9 493.4,44.6 514.7,44.4 503.3,14.9 "></polygon><polygon id="spoly_145" data-role="section" data-sectionid="145" data-angle="168.6" points="537.9,72.5 533.7,60.8 521.8,60.8 527.5,76.2 537.9,72.5 "></polygon><polygon id="spoly_146" data-role="section" data-sectionid="146" data-angle="169.3" points="545.9,94.6 538.6,74.3 528.1,77.9 535.4,98.3 545.9,94.6 "></polygon><polygon id="spoly_147" data-role="section" data-sectionid="147" data-angle="170" points="550.6,107.6 546.5,96.3 536.1,100 538.3,106 546.1,109.2 550.6,107.6 "></polygon><polygon id="spoly_148" data-role="section" data-sectionid="148" data-angle="178.5" points="567.5,144.8 554.1,108.3 549,110 562.4,146.7 567.5,144.8 "></polygon><polygon id="spoly_149" data-role="section" data-sectionid="149" data-angle="4.2" points="575.7,167.1 568.1,146.6 563,148.3 570.5,168.9 575.7,167.1 "></polygon><polygon id="spoly_150" data-role="section" data-sectionid="150" data-angle="7" points="583.8,189.4 576.3,168.9 571.1,170.6 578.6,191.2 583.8,189.4 "></polygon><polygon id="spoly_151" data-role="section" data-sectionid="151" data-angle="11" points="592,211.7 584.4,191.1 579.3,193 586.7,213.6 592,211.7 "></polygon><polygon id="spoly_152" data-role="section" data-sectionid="152" data-angle="13.8" points="599.9,233.2 599.9,233.2 592.6,213.4 587.4,215.3 594.6,235.1 599.9,233.2 "></polygon><polygon id="spoly_202" data-role="section" data-sectionid="202" data-angle="320" points="610,248.8 599.3,261.5 615.7,275.2 618,272.3 610,248.8 "></polygon><polygon id="spoly_203" data-role="section" data-sectionid="203" data-angle="325.5" points="598.1,263 587.3,276 603.7,289.7 614.5,276.6 598.1,263 "></polygon><polygon id="spoly_204" data-role="section" data-sectionid="204" data-angle="333" points="586.1,277.4 575.4,290.3 591.8,304.1 602.5,291.1 586.1,277.4 "></polygon><polygon id="spoly_205" data-role="section" data-sectionid="205" data-angle="345.1" points="574.1,291.7 563.4,304.7 579.9,318.5 590.6,305.5 574.1,291.7 "></polygon><polygon id="spoly_207" data-role="section" data-sectionid="207" data-angle="336.7" points="562.2,306.2 551.6,318.9 568.2,332.7 578.7,319.9 562.2,306.2 "></polygon><polygon id="spoly_208" data-role="section" data-sectionid="208" data-angle="184.2" points="550.5,320.3 539.9,333 556.4,346.8 567,334.1 550.5,320.3 "></polygon><polygon id="spoly_209" data-role="section" data-sectionid="209" data-angle="201.5" points="538.7,334.4 527.6,347.7 544.1,361.7 555.3,348.2 538.7,334.4 "></polygon><polygon id="spoly_210" data-role="section" data-sectionid="210" data-angle="211.2" points="526.4,349.1 515.1,362.2 515,362.3 531.4,377.1 543,363.1 526.4,349.1 "></polygon><polygon id="spoly_211" data-role="section" data-sectionid="211" data-angle="225.4" points="513.8,363.6 511.8,365.8 509,368.4 505.7,371.5 501.8,374.8 516.7,392.8 519.5,390.4 522.1,387.8 524.7,385 527.1,382.3 530.2,378.5 513.8,363.6 513.8,363.6 "></polygon><polygon id="spoly_212" data-role="section" data-sectionid="212" data-angle="236.3" points="500.4,375.9 494.4,380.4 491,382.6 487.5,384.7 498.3,404.9 502.8,402.4 507.1,399.8 511.2,397 515.2,393.9 500.4,375.9 500.4,375.9 "></polygon><polygon id="spoly_213" data-role="section" data-sectionid="213" data-angle="246.5" points="485.9,385.6 482.8,387.3 479.5,389 476.2,390.5 472.7,391.9 479.2,412.7 483.7,411.2 488.1,409.5 492.5,407.7 496.6,405.7 485.9,385.6 485.9,385.6 "></polygon><polygon id="spoly_214" data-role="section" data-sectionid="214" data-angle="253.9" points="471,392.5 467.3,393.8 463.4,394.9 459.5,395.8 455.4,396.5 457.4,417.3 462.4,416.6 467.5,415.7 472.4,414.6 477.5,413.2 471,392.5 471,392.5 "></polygon><polygon id="spoly_215" data-role="section" data-sectionid="215" data-angle="270" points="453.7,396.7 449.4,397.1 445,397.2 438.2,397 435.6,417.8 440.4,418 445.1,418.1 450.3,417.9 455.6,417.5 453.7,396.7 453.7,396.7 "></polygon><polygon id="spoly_216" data-role="section" data-sectionid="216" data-angle="232.9" points="436.4,396.9 432.4,396.6 428.5,396.2 421.2,394.9 417.8,415.4 425.9,416.7 433.8,417.6 436.4,396.9 436.4,396.9 "></polygon><polygon id="spoly_217" data-role="section" data-sectionid="217" data-angle="245" points="419.4,394.6 415.4,393.6 411.6,392.6 407.9,391.5 404.3,390.3 398.2,410.5 402.7,411.8 407.1,413 411.5,414.1 415.9,415.1 419.4,394.6 419.4,394.6 "></polygon><polygon id="spoly_218" data-role="section" data-sectionid="218" data-angle="243.4" points="402.7,389.7 398.8,388.1 395.1,386.5 391.7,384.9 388.5,383.2 378.4,402.7 382.8,404.7 387.3,406.5 391.9,408.3 396.5,410 402.7,389.7 402.7,389.7 "></polygon><polygon id="spoly_219" data-role="section" data-sectionid="219" data-angle="237.6" points="386.9,382.3 383,380 379.6,377.7 376.6,375.5 373.9,373.6 360.4,391.7 364.3,394.4 368.2,397.1 372.4,399.5 376.8,401.8 386.9,382.3 386.9,382.3 "></polygon><polygon id="spoly_220" data-role="section" data-sectionid="220" data-angle="226.4" points="372.5,372.4 370.1,370.3 368.4,368.7 367,367.2 362,361.3 344.9,376.1 351.2,383.6 354.9,387.1 359,390.6 372.5,372.4 372.5,372.4 "></polygon><polygon id="spoly_221" data-role="section" data-sectionid="221" data-angle="217.1" points="360.7,360 350.1,347.3 333.2,361.9 343.8,374.7 360.7,360 "></polygon><polygon id="spoly_222" data-role="section" data-sectionid="222" data-angle="210.4" points="348.9,345.9 338.1,333.3 321.4,347.8 332,360.6 348.9,345.9 "></polygon><polygon id="spoly_223" data-role="section" data-sectionid="223" data-angle="197.2" points="337,331.9 326,318.9 309.4,333.4 320.3,346.4 337,331.9 "></polygon><polygon id="spoly_224" data-role="section" data-sectionid="224" data-angle="197.2" points="324.9,317.6 314.2,304.9 297.8,319.2 308.3,331.9 324.9,317.6 "></polygon><polygon id="spoly_225" data-role="section" data-sectionid="225" data-angle="355.6" points="313,303.6 301.7,290.3 285.4,304.4 296.5,317.9 313,303.6 "></polygon><polygon id="spoly_226" data-role="section" data-sectionid="226" data-angle="344.3" points="300.6,288.9 294.6,278.4 275.1,289.7 279.5,297.3 284.2,303 300.6,288.9 "></polygon><polygon id="spoly_227" data-role="section" data-sectionid="227" data-angle="340.3" points="293.7,276.8 284.9,261.4 265.3,272.8 274.2,288.1 293.7,276.8 "></polygon><polygon id="spoly_228" data-role="section" data-sectionid="228" data-angle="334.7" points="283.9,259.8 275.7,245.4 256.1,256.8 264.4,271.2 283.9,259.8 "></polygon><polygon id="spoly_229" data-role="section" data-sectionid="229" data-angle="331.7" points="274.8,243.9 266.1,228.7 246.5,240.1 255.2,255.2 274.8,243.9 "></polygon><polygon id="spoly_230" data-role="section" data-sectionid="230" data-angle="330.9" points="265.2,227.1 256.7,212.3 236.9,223.7 245.5,238.5 265.2,227.1 "></polygon><polygon id="spoly_231" data-role="section" data-sectionid="231" data-angle="329.8" points="255.8,210.7 247.2,195.7 227.4,207.2 236.1,222.1 255.8,210.7 "></polygon><polygon id="spoly_232" data-role="section" data-sectionid="232" data-angle="335.8" points="246.3,194.1 238.1,180.2 212,180.6 226.5,205.6 246.3,194.1 "></polygon><polygon id="spoly_233" data-role="section" data-sectionid="233" data-angle="16.8" points="237.2,178.4 244.9,157.8 225.9,144.2 212.5,178.7 237.2,178.4 "></polygon><polygon id="spoly_234" data-role="section" data-sectionid="234" data-angle="45.8" points="245.9,156.2 271,135.3 256.7,117.5 227.2,142.9 245.9,156.2 "></polygon><polygon id="spoly_302" data-role="section" data-sectionid="302" data-angle="325.7" points="644.6,285.8 628.7,304.6 664.9,334.8 665.8,333.8 653.9,296.8 644.6,285.8 "></polygon><polygon id="spoly_304" data-role="section" data-sectionid="304" data-angle="323.3" points="627.5,306 611.6,324.7 648.3,355.3 663.8,336.3 627.5,306 "></polygon><polygon id="spoly_305" data-role="section" data-sectionid="305" data-angle="321.6" points="610.4,326.2 596.7,342.4 594.3,345.2 631.4,376.1 647.1,356.7 610.4,326.2 "></polygon><polygon id="spoly_307" data-role="section" data-sectionid="307" data-angle="326.1" points="593.1,346.6 577.6,364.9 615.1,396.2 630.3,377.5 593.1,346.6 "></polygon><polygon id="spoly_308" data-role="section" data-sectionid="308" data-angle="337.8" points="576.4,366.3 561.3,384.3 599.1,415.8 613.9,397.5 576.4,366.3 "></polygon><polygon id="spoly_310" data-role="section" data-sectionid="310" data-angle="327.1" points="560.2,385.7 550.6,397.2 546.3,402.7 581.9,436.9 583.5,434.9 598,417.2 560.2,385.7 560.2,385.7 "></polygon><polygon id="spoly_311" data-role="section" data-sectionid="311" data-angle="224.3" points="545.2,404.2 543.1,406.8 539.8,410.5 535.1,415.2 532.4,417.8 529.3,420.4 560.9,458.2 564.5,455.2 567.7,452.2 573.3,446.7 577.7,442.1 580.8,438.4 545.2,404.2 545.2,404.2 "></polygon><polygon id="spoly_312" data-role="section" data-sectionid="312" data-angle="218.2" points="527.9,421.6 523.8,424.8 519.2,428 514.3,431.1 508.9,434.2 534.8,476.6 541.8,472.3 548.3,468 554.2,463.7 559.6,459.4 527.9,421.6 527.9,421.6 "></polygon><polygon id="spoly_313" data-role="section" data-sectionid="313" data-angle="243" points="507.3,435.1 502.7,437.4 497.7,439.6 492.5,441.7 487.1,443.5 504.1,490.6 511.9,487.6 519.5,484.4 526.6,481.1 533.2,477.5 507.3,435.1 507.3,435.1 "></polygon><polygon id="spoly_314" data-role="section" data-sectionid="314" data-angle="255.7" points="485.3,444 479.3,445.7 473.1,447.2 466.5,448.3 459.6,449.2 465.6,499.2 470.5,498.6 475.3,497.8 480.2,497 484.8,496 493.7,493.7 502.3,491.1 485.3,444 485.3,444 "></polygon><polygon id="spoly_315" data-role="section" data-sectionid="315" data-angle="270" points="457.8,449.3 451.5,449.8 445,449.8 439.1,449.8 433.3,449.5 427.2,499.5 436,500.1 445,500.2 449.8,500.2 454.6,500 463.7,499.3 457.8,449.3 457.8,449.3 "></polygon><polygon id="spoly_317" data-role="section" data-sectionid="317" data-angle="246.6" points="431.4,449.3 424,448.5 416.9,447.2 410,445.8 403.4,444.1 389.5,492 397.9,494.4 406.8,496.4 415.9,498 420.7,498.7 425.5,499.2 431.4,449.3 431.4,449.3 "></polygon><polygon id="spoly_318" data-role="section" data-sectionid="318" data-angle="246.8" points="401.7,443.7 395.7,441.7 390.1,439.8 384.7,437.5 379.6,435.3 356.7,478.6 363.9,482.1 371.4,485.5 379.4,488.6 387.7,491.5 401.7,443.7 401.7,443.7 "></polygon><polygon id="spoly_319" data-role="section" data-sectionid="319" data-angle="234.8" points="377.9,434.5 372,431.5 366.5,428.5 361.4,425.3 356.7,422.4 329.1,461.4 334.9,465.6 341.1,469.7 347.9,473.8 355.1,477.8 377.9,434.5 377.9,434.5 "></polygon><polygon id="spoly_320" data-role="section" data-sectionid="320" data-angle="203.6" points="355.2,421.3 351.5,418.7 348.2,416.2 342.7,411.7 338.8,408.2 336.4,405.8 300.6,435.9 303.8,439.4 309.4,445 313.1,448.5 317.4,452.2 322.3,456.2 327.6,460.4 355.2,421.3 355.2,421.3 "></polygon><polygon id="spoly_321" data-role="section" data-sectionid="321" data-angle="255.6" points="335.1,404.5 327,395.7 318.5,386 283.3,415.1 299.4,434.5 335.1,404.5 335.1,404.5 "></polygon><polygon id="spoly_323" data-role="section" data-sectionid="323" data-angle="345.3" points="317.2,384.6 309.4,375.3 301.6,365.7 266.3,394.9 282,413.7 317.2,384.6 317.2,384.6 "></polygon><polygon id="spoly_324" data-role="section" data-sectionid="324" data-angle="331.8" points="300.4,364.2 296.6,359.5 284.9,344.8 249.1,374.2 265.1,393.4 300.4,364.2 300.4,364.2 "></polygon><polygon id="spoly_325" data-role="section" data-sectionid="325" data-angle="322.9" points="283.7,343.3 268.4,324.2 232.3,354.2 247.9,372.9 283.7,343.3 283.7,343.3 "></polygon><polygon id="spoly_326" data-role="section" data-sectionid="326" data-angle="326.5" points="267.3,322.8 258.4,311.9 258.4,311.7 253.1,302.7 212.5,325.9 220.8,340.5 231.1,352.8 267.3,322.8 267.3,322.8 "></polygon><polygon id="spoly_327" data-role="section" data-sectionid="327" data-angle="334" points="252.2,301.1 238.5,277.6 198.1,300.7 211.6,324.3 252.2,301.1 "></polygon><polygon id="spoly_328" data-role="section" data-sectionid="328" data-angle="342.3" points="237.7,276 223.6,251.7 183.2,274.7 197.1,299.1 237.7,276 "></polygon><polygon id="spoly_330" data-role="section" data-sectionid="330" data-angle="344.3" points="222.6,250.1 208.5,225.6 168.2,248.5 182.2,273.1 222.6,250.1 "></polygon><polygon id="spoly_331" data-role="section" data-sectionid="331" data-angle="275.9" points="207.6,224 193.5,199.6 153.3,222.5 167.4,247 207.6,224 "></polygon><polygon id="spoly_332" data-role="section" data-sectionid="332" data-angle="195.1" points="192.6,198 184.1,183.3 131.6,183.3 131.4,184 152.5,220.9 192.6,198 "></polygon><polygon id="spoly_333" data-role="section" data-sectionid="333" data-angle="166.6" points="183,181.6 182.9,181.4 193.5,154.7 150.7,136.7 132.4,181.6 183,181.6 "></polygon><polygon id="spoly_334" data-role="section" data-sectionid="334" data-angle="80.1" points="194.2,153 204.1,127.8 173.9,91.7 166.7,97.5 151.4,135 194.2,153 "></polygon><polygon id="spoly_335" data-role="section" data-sectionid="335" data-angle="28.5" points="175.3,90.6 205,126.1 226.9,107.4 197.7,72.3 175.3,90.6 "></polygon><polygon id="spoly_336" data-role="section" data-sectionid="336" data-angle="44.3" points="228.3,106.2 241.6,94.9 212.6,60.1 199,71.2 228.3,106.2 "></polygon><polygon id="spoly_SRO" data-role="section" data-sectionid="SRO" data-angle="320.6" points="562.3,121.5 595.1,210.7 599.3,209.2 566.6,120 562.3,121.5 "></polygon><polygon id="spoly_silver_bullpen" data-role="section" data-sectionid="silver_bullpen" data-angle="161.8" points="516.4,31.7 525.5,56.3 541.6,56.3 533.2,32.4 "></polygon><polygon id="spoly_107_patio_tables" data-role="section" data-sectionid="107_patio_tables" data-angle="160.3" points="545,315.4 548.5,318 557.9,306.6 554.9,304.2 "></polygon><polygon id="spoly_lf_patio_tables" data-role="section" data-sectionid="lf_patio_tables" data-angle="134.5" points="270.3,154.1 263.6,151.2 270.1,141.3 276.2,144 "></polygon><polygon id="spoly_dugout_club" data-role="section" data-sectionid="dugout_club" data-angle="227.8" points="407.5,296.7 411.9,302.4 415.6,307.1 420.3,312.7 423.7,315.8 428.5,318.8 433.2,320.7 438.4,322.6 442.2,322.8 447.4,322.9 452.2,322.4 456.7,320.8 461,318.9 463.8,316.9 469.8,310 474,305.1 479.8,298.4 481.8,295.7 479.5,294.3 472.8,302 468.5,306.9 463.2,311 457.1,313.8 449.3,316 440.2,316 434,314 426.9,310.6 421.4,306.4 416.3,301.8 410.1,294.9 "></polygon><polygon class="is-d epoly_fan_terrace" data-role="dynamic" points="422.1,34.8 422.1,47.4 468.7,47.4 468.7,34.8 " style="fill:#F4F4F4; stroke:#BEBEBE; stroke-width:1; fill-opacity:1.0;"></polygon><polygon class="is-d epoly_champ_suite_press_box_dynamics" data-role="dynamic" points="374,363.4 380.5,369.4 386.8,373.8 394.9,378.5 404.8,383 416.5,386.9 423,388.5 429.8,389.8 437.4,390.5 444.9,390.8 452,390.3 458.8,389.5 465.3,387.9 471.5,386.1 477.3,383.8 482.8,380.9 492.4,374.9 485.1,361.9 479.9,364.5 471,368.1 465.5,369.9 459.3,371.2 452.5,372.3 445.5,372.8 439.2,372.5 433.2,371.8 422,369.2 414.2,366.8 411,365.8 406.3,375.2 400.6,372.5 395.4,369.9 387.3,364.7 382.1,360.3 379.8,357.7 374,363.4 374,363.4 " style="fill:#F4F4F4; stroke:#BEBEBE; stroke-width:1; fill-opacity:1.0;"></polygon><polygon class="is-d epoly_bench_home" data-role="dynamic" points="379.6,266 386.6,274.6 383.7,276.7 402.7,299.4 408.9,294.2 383.2,263.3 " style="fill:#FE5A1D; stroke:#000; stroke-width:0; fill-opacity:1;"></polygon><polygon class="is-d epoly_suites_oracle_mlb" data-role="dynamic" points="618.5,275.8 529.3,382.9 525.4,387.2 521.2,391.4 511.9,398.8 501.8,405 490.9,410.1 479.5,414.2 467.8,417.3 456.1,419.1 444.7,419.9 432.5,419.1 419.8,417.6 406.6,414.7 393.6,410.9 380.9,406 368.9,399.8 358.1,392.6 353.1,388.5 348.5,384.4 348.5,384.4 276.3,297.9 276.3,297.9 208.1,180.5 207.6,179.7 222.4,141.9 222.9,141.4 256.1,112.9 242.1,96.5 205.8,127.3 184.8,180.5 259.7,309.2 277.9,331.8 297.9,356.7 318.1,381.1 327.7,392.1 336.8,402.1 336.8,402.1 338.9,403.9 344.3,408.8 354.9,417.3 366.6,424.7 378.5,430.9 391.3,436.3 404.2,440.4 417.5,443.5 431.2,445.6 444.7,446.1 457.9,445.6 470.9,443.8 483.4,440.7 495.6,436.3 507.2,430.9 518.4,424.2 528.5,416.5 538.1,407.5 542.5,402.4 543.8,400.3 560.7,379.8 594.9,339.5 628.1,300.7 618.5,275.8 618.5,275.8 " style="fill:#F4F4F4; stroke:#BEBEBE; stroke-width:1; fill-opacity:1.0;"></polygon><polygon class="is-d epoly_bench_visitor" data-role="dynamic" points="487.7,298.9 480.4,293.2 506.8,262.3 510.3,265.5 503.2,274 506.3,276.9 " style="fill:#DDD; stroke:#DDD; stroke-width:0; fill-opacity:1.0;"></polygon><polygon class="is-d epoly_fan_lot" data-role="dynamic" points="256.6,92.5 270.2,109.4 377.6,15.5 351.1,15.5 " style="fill:#F4F4F4; stroke:#BEBEBE; stroke-width:1; fill-opacity:1.0;"></polygon><polygon class="is-d epoly_scoreboard" data-role="dynamic" points="421.6,1.3 421.6,32.4 469.5,32.4 469.5,1.3 " style="fill:#F4F4F4; stroke:#BEBEBE; stroke-width:1; fill-opacity:1.0;"></polygon><polygon class="is-d epoly_field_suite_dynamic" data-role="dynamic" points="512,265.4 508.3,262 530.4,238.3 533.7,240.9 " style="fill:#F4F4F4; stroke:#BEBEBE; stroke-width:1; fill-opacity:1.0;"></polygon></g><circle id="mctrmrk" cx="443.9" cy="291.9" r="1" stroke-width="0" stroke="#FFF" opacity="0"></circle><g id="svgsectionnames" style="opacity:1; font-size:5.766666666666667px;"><text data-sectionid="101" data-role="section" x="570.1" y="196.6">101</text><text data-sectionid="102" data-role="section" x="571.2" y="215.4">102</text><text data-sectionid="103" data-role="section" x="572.2" y="237" transform="rotate(396.764 572.2 237)">103</text><text data-sectionid="104" data-role="section" x="567" y="257.4" transform="rotate(400.101 567 257.4)">104</text><text data-sectionid="105" data-role="section" x="557.3" y="272.7" transform="rotate(399.88 557.3 272.7)">105</text><text data-sectionid="106" data-role="section" x="548.5" y="287.4" transform="rotate(399.433 548.5 287.4)">106</text><text data-sectionid="107" data-role="section" x="539.9" y="300.1" transform="rotate(400.536 539.9 300.1)">107</text><text data-sectionid="108" data-role="section" x="528.8" y="313.7" transform="rotate(402.295 528.8 313.7)">108</text><text data-sectionid="109" data-role="section" x="516.1" y="327.9" transform="rotate(400.043 516.1 327.9)">109</text><text data-sectionid="110" data-role="section" x="503.7" y="340.5" transform="rotate(405 503.7 340.5)">110</text><text data-sectionid="112" data-role="section" x="488.4" y="351.2" transform="rotate(411.843 488.4 351.2)">112</text><text data-sectionid="113" data-role="section" x="462.3" y="341.2" transform="rotate(426.93 462.3 341.2)">113</text><text data-sectionid="114" data-role="section" x="462.5" y="364.2" transform="rotate(433.94 462.5 364.2)">114</text><text data-sectionid="115" data-role="section" x="442.6" y="343.5" transform="rotate(447.485 442.6 343.5)">115</text><text data-sectionid="116" data-role="section" x="438.4" y="364.8" transform="rotate(276.754 438.4 364.8)">116</text><text data-sectionid="117" data-role="section" x="429" y="342.3" transform="rotate(284.319 429 342.3)">117</text><text data-sectionid="118" data-role="section" x="414.4" y="357.5" transform="rotate(298.217 414.4 357.5)">118</text><text data-sectionid="119" data-role="section" x="401" y="351.7" transform="rotate(307.93 401 351.7)">119</text><text data-sectionid="121" data-role="section" x="385.8" y="340.5" transform="rotate(317.244 385.8 340.5)">121</text><text data-sectionid="122" data-role="section" x="374.8" y="326.5" transform="rotate(319.541 374.8 326.5)">122</text><text data-sectionid="123" data-role="section" x="363.4" y="311.9" transform="rotate(317.368 363.4 311.9)">123</text><text data-sectionid="124" data-role="section" x="351.9" y="298.6" transform="rotate(320.169 351.9 298.6)">124</text><text data-sectionid="125" data-role="section" x="341.1" y="285.3" transform="rotate(320.248 341.1 285.3)">125</text><text data-sectionid="126" data-role="section" x="326.8" y="265.7" transform="rotate(322.264 326.8 265.7)">126</text><text data-sectionid="127" data-role="section" x="318.5" y="254.1" transform="rotate(328.745 318.5 254.1)">127</text><text data-sectionid="128" data-role="section" x="309.1" y="238.7" transform="rotate(329.642 309.1 238.7)">128</text><text data-sectionid="129" data-role="section" x="299.8" y="223.7" transform="rotate(330.09 299.8 223.7)">129</text><text data-sectionid="130" data-role="section" x="290.6" y="207.9" transform="rotate(329.776 290.6 207.9)">130</text><text data-sectionid="131" data-role="section" x="281.3" y="193.8" transform="rotate(330.298 281.3 193.8)">131</text><text data-sectionid="132" data-role="section" x="272.9" y="180.5" transform="rotate(331.278 272.9 180.5)">132</text><text data-sectionid="133" data-role="section" x="254.3" y="175" transform="rotate(650.772 254.3 175)">133</text><text data-sectionid="134" data-role="section" x="273" y="163.8" transform="rotate(383.407 273 163.8)">134</text><text data-sectionid="135" data-role="section" x="290.8" y="156.1" transform="rotate(386.473 290.8 156.1)">135</text><text data-sectionid="136" data-role="section" x="300.6" y="120.2" transform="rotate(409.667 300.6 120.2)">136</text><text data-sectionid="137" data-role="section" x="314.9" y="108.1" transform="rotate(408.621 314.9 108.1)">137</text><text data-sectionid="138" data-role="section" x="332.6" y="93.2" transform="rotate(410.239 332.6 93.2)">138</text><text data-sectionid="139" data-role="section" x="350.4" y="78" transform="rotate(409.212 350.4 78)">139</text><text data-sectionid="140" data-role="section" x="367.9" y="63.4" transform="rotate(409.199 367.9 63.4)">140</text><text data-sectionid="141" data-role="section" x="386.9" y="47.4" transform="rotate(412.762 386.9 47.4)">141</text><text data-sectionid="142" data-role="section" x="408.9" y="40.3">142</text><text data-sectionid="143" data-role="section" x="481.2" y="38.7">143</text><text data-sectionid="144" data-role="section" x="503.7" y="39">144</text><text data-sectionid="145" data-role="section" x="529.2" y="69.6" transform="rotate(73.8899 529.2 69.6)">145</text><text data-sectionid="146" data-role="section" x="535.1" y="85.6" transform="rotate(71.5651 535.1 85.6)">146</text><text data-sectionid="147" data-role="section" x="543.4" y="104.8">147</text><text data-sectionid="148" data-role="section" x="556.3" y="127.6" transform="rotate(70.2049 556.3 127.6)">148</text><text data-sectionid="149" data-role="section" x="567.4" y="157.6" transform="rotate(70.2049 567.4 157.6)">149</text><text data-sectionid="150" data-role="section" x="576.2" y="179.9" transform="rotate(70.2049 576.2 179.9)">150</text><text data-sectionid="151" data-role="section" x="583.7" y="200.8" transform="rotate(70.2049 583.7 200.8)">151</text><text data-sectionid="152" data-role="section" x="592.3" y="223.3" transform="rotate(70.2049 592.3 223.3)">152</text><text data-sectionid="202" data-role="section" x="607.7" y="263.3" transform="rotate(402.537 607.7 263.3)">202</text><text data-sectionid="203" data-role="section" x="600.9" y="278.3">203</text><text data-sectionid="204" data-role="section" x="589" y="292.8">204</text><text data-sectionid="205" data-role="section" x="577" y="307.1">205</text><text data-sectionid="207" data-role="section" x="565.2" y="321.4">207</text><text data-sectionid="208" data-role="section" x="553.4" y="335.6">208</text><text data-sectionid="209" data-role="section" x="541.4" y="350">209</text><text data-sectionid="210" data-role="section" x="528.7" y="364">210</text><text data-sectionid="211" data-role="section" x="516" y="380.2">211</text><text data-sectionid="212" data-role="section" x="501.3" y="392.4">212</text><text data-sectionid="213" data-role="section" x="484.7" y="401.1">213</text><text data-sectionid="214" data-role="section" x="466.5" y="406.9">214</text><text data-sectionid="215" data-role="section" x="445.6" y="409.4">215</text><text data-sectionid="216" data-role="section" x="427.1" y="408.3">216</text><text data-sectionid="217" data-role="section" x="408.8" y="404.7">217</text><text data-sectionid="218" data-role="section" x="390.5" y="398.6">218</text><text data-sectionid="219" data-role="section" x="373.7" y="389.7">219</text><text data-sectionid="220" data-role="section" x="358.7" y="378">220</text><text data-sectionid="221" data-role="section" x="347" y="363">221</text><text data-sectionid="222" data-role="section" x="335.2" y="348.9">222</text><text data-sectionid="223" data-role="section" x="323.2" y="334.7">223</text><text data-sectionid="224" data-role="section" x="311.3" y="320.4">224</text><text data-sectionid="225" data-role="section" x="299.2" y="306.1">225</text><text data-sectionid="226" data-role="section" x="287.8" y="292.7">226</text><text data-sectionid="227" data-role="section" x="279.5" y="276.8">227</text><text data-sectionid="228" data-role="section" x="270" y="260.3">228</text><text data-sectionid="229" data-role="section" x="260.6" y="243.9">229</text><text data-sectionid="230" data-role="section" x="251.1" y="227.4">230</text><text data-sectionid="231" data-role="section" x="241.6" y="210.9">231</text><text data-sectionid="232" data-role="section" x="231.1" y="191.4">232</text><text data-sectionid="233" data-role="section" x="230" y="164.7">233</text><text data-sectionid="234" data-role="section" x="249.1" y="138.3">234</text><text data-sectionid="302" data-role="section" x="648.5" y="309.7">302</text><text data-sectionid="304" data-role="section" x="635.8" y="330.5">304</text><text data-sectionid="305" data-role="section" x="620.7" y="353.1">305</text><text data-sectionid="307" data-role="section" x="604.6" y="373">307</text><text data-sectionid="308" data-role="section" x="587.6" y="393">308</text><text data-sectionid="310" data-role="section" x="572.1" y="413.3">310</text><text data-sectionid="311" data-role="section" x="555" y="433.2">311</text><text data-sectionid="312" data-role="section" x="533.6" y="448.8">312</text><text data-sectionid="313" data-role="section" x="508.9" y="462.5">313</text><text data-sectionid="314" data-role="section" x="479" y="471.2">314</text><text data-sectionid="315" data-role="section" x="445.5" y="476.8">315</text><text data-sectionid="317" data-role="section" x="413" y="471.9">317</text><text data-sectionid="318" data-role="section" x="381.1" y="463">318</text><text data-sectionid="319" data-role="section" x="355.4" y="449.8">319</text><text data-sectionid="320" data-role="section" x="329.8" y="431.6">320</text><text data-sectionid="321" data-role="section" x="309.2" y="412.2">321</text><text data-sectionid="323" data-role="section" x="291.8" y="391.7">323</text><text data-sectionid="324" data-role="section" x="274.8" y="371.1">324</text><text data-sectionid="325" data-role="section" x="258" y="350.5">325</text><text data-sectionid="326" data-role="section" x="239.9" y="329.8">326</text><text data-sectionid="327" data-role="section" x="225.1" y="302.9">327</text><text data-sectionid="328" data-role="section" x="210.4" y="277.4">328</text><text data-sectionid="330" data-role="section" x="195.4" y="251.3">330</text><text data-sectionid="331" data-role="section" x="180.5" y="225.3">331</text><text data-sectionid="332" data-role="section" x="167.8" y="196.9">332</text><text data-sectionid="333" data-role="section" x="166.8" y="163.9">333</text><text data-sectionid="334" data-role="section" x="179" y="127.8">334</text><text data-sectionid="335" data-role="section" x="201.1" y="101.2">335</text><text data-sectionid="336" data-role="section" x="222.9" y="85.7">336</text><text data-sectionid="SRO" data-role="section" x="604.1" y="231.1" transform="rotate(429.9 604.1 231.1)">SRO</text><text data-sectionid="silver_bullpen" data-role="section" x="527.1" y="44.6" transform="rotate(74.8924 527.1 44.6)">Silver</text><text data-sectionid="107_patio_tables" data-role="section" x="551.4" y="313.1" transform="rotate(313.56 551.4 313.1)">Tables</text><text data-sectionid="lf_patio_tables" data-role="section" x="269.3" y="147.4" transform="rotate(307.072 269.3 147.4)">LF Tables</text><text data-sectionid="dugout_club" data-role="section" x="444.6" y="319.8">DC</text><text class="is-d " text-anchor="middle" x="445.4" y="43.1" style="fill:#999; font-size:5.3px; " dominant-baseline="central" data-offset="0|0.3" null="">FAN TERRACE</text><text class="is-d " text-anchor="middle" x="441.8" y="381" style="fill:#999; font-size:4.7px; " dominant-baseline="central" data-offset="0|0.3" null="">CHAMP SUITE PRESS BOX</text><text class="is-d dyn-name-bench bench_home rotated" text-anchor="middle" x="395.5" y="285.5" style="fill:#FFF; font-size:5.9px; " dominant-baseline="central" data-offset="0|0.3" transform="rotate(48 395.5 285.5)">GIANTS</text><text class="is-d " text-anchor="middle" x="443.5" y="435.6" style="fill:#999; font-size:5.9px; " dominant-baseline="central" data-offset="0|0.3" null="">SUITES</text><text class="is-d dyn-name-bench bench_visitor rotated" text-anchor="middle" x="492.1" y="285.4" style="fill:#666; font-size:5.9px; " dominant-baseline="central" data-offset="0|0.3" transform="rotate(310 492.1 285.4)">VISITOR</text><text class="is-d " text-anchor="middle" x="310.6" y="60.7" style="fill:#999; font-size:5.9px; " dominant-baseline="central" data-offset="0|0.3" transform="rotate(320 310.6 60.7)">COCA-COLA FAN LOT</text><text class="is-d " text-anchor="middle" x="445.5" y="18.8" style="fill:#999; font-size:5.9px; " dominant-baseline="central" data-offset="0|0.3" null="">SCOREBOARD</text><text class="is-d " text-anchor="middle" x="521" y="253.9" style="fill:#999; font-size:4.2px; " dominant-baseline="central" data-offset="0|0.3" transform="rotate(314 521 253.9)">FIELD SUITE</text></g></g><circle id="svgZoomCenter" r="1" stroke-width="0" fill-opacity="0" cx="332.9" cy="259.5"></circle><circle id="svgNorthWest" r="1" stroke-width="0" fill-opacity="0" cx="0" cy="0"></circle><circle id="svgSouthEast" r="1" stroke-width="0" fill-opacity="0" cx="794" cy="519"></circle><g id="svgmarkers" style="font-size: 10.3px;"><circle id="svg-marker-hover" data-ticket="" style="display: none;"></circle></g>undefined</g><circle id="svgZoomCenterLoad" r="1" stroke-width="0" fill-opacity="0" cx="397" cy="259.5"></circle></g></g></svg>