<svg xmlns="http://www.w3.org/2000/svg" xmlns:xlink="http://www.w3.org/1999/xlink" id="svgmap" width="100%" height="100%" style="touch-action: none;" viewBox="109.2 -15.1 580.9 545.3"><style>
polygon[id^="spoly_"] { fill: #d0d8e4; stroke: #7a8fa6; stroke-width: 2; }
polygon[id^="spoly_"]:hover { fill: #5b8ccc; cursor: pointer; }
.svgText { font-family: Arial, sans-serif; fill: #333; font-size: 9px; }
</style>
         <g id="svgdefs"><defs id="svgdefstyle">
      <linearGradient id="ticketGradient" x1="0%" y1="0%" x2="100%" y2="0%"><stop offset="0%" stop-color="#840ac9"></stop><stop offset="30%" stop-color="#d60eb2"></stop><stop offset="50%" stop-color="#fa0b81"></stop><stop offset="100%" stop-color="#fa0b81"></stop></linearGradient>
      <radialGradient id="markerGradient" cx="50%" cy="50%" r="50%"><stop offset="0%" stop-color="#fa0b81"></stop><stop offset="95%" stop-color="#d60eb2"></stop><stop offset="100%" stop-color="#840ac9"></stop></radialGradient>
      <linearGradient id="flagGradient" x1="0%" y1="0%" x2="100%" y2="100%">
         <stop offset="0%" stop-color="#840ac9"></stop>
         <stop offset="40%" stop-color="#d60eb2"></stop>
         <stop offset="80%" stop-color="#fa0b81"></stop>
         <stop offset="100%" stop-color="#c40665"></stop> 
      </linearGradient>      
      <linearGradient id="svgmapticket" x1="0%" y1="0%" x2="0%" y2="100%"><stop offset="0%" style="stop-color:#5BADFF;stop-opacity:1"></stop><stop offset="100%" style="stop-color:#0066CC;stop-opacity:1"></stop></linearGradient><linearGradient id="svgdealticket" x1="0%" y1="0%" x2="0%" y2="100%"> <stop offset="0%" style="stop-color:#66FF00;stop-opacity:1"></stop><stop offset="100%" style="stop-color:#61C100;stop-opacity:1"></stop></linearGradient><linearGradient id="svggreatticket" x1="0%" y1="0%" x2="0%" y2="100%"><stop offset="0%" style="stop-color:#00CC33;stop-opacity:1"></stop><stop offset="100%" style="stop-color:#009100;stop-opacity:1"></stop></linearGradient><filter id="coinShadow" x="-40%" y="-40%" width="200%" height="200%">            <feGaussianBlur in="SourceAlpha" stdDeviation="3"></feGaussianBlur><feOffset dx="2" dy="2" result="offsetblur"></feOffset><feMerge><feMergeNode></feMergeNode><feMergeNode in="SourceGraphic"></feMergeNode></feMerge></filter></defs>  </g>
         <g class="testmask" mask="url(#fade)" style="scale: 0.95; transform-origin:center;">
         <g id="viewport" transform="matrix(1,0,0,1,0,0)" data-zoomfactor="100"><g id="scaleSVG" data-scale="1" transform="scale(1)" class="testrotate"><g id="svgelements"><image id="svgOverlay" class="nopointereventsmap" xlink:href="/assets/images/venues/overlays/petco-park-mlb_3-2020.png" x="-107.9" y="-99.9" width="1015.6px" height="721.3px"></image><g id="svgpolygroup"><polygon id="spoly_1" data-role="section" data-sectionid="1" data-angle="286.6" points="406.2,319.4 403.1,319.9 403.2,328.8 407.5,328.1 411.6,327.2 408.4,318.7 "></polygon><polygon id="spoly_2" data-role="section" data-sectionid="2" data-angle="257.4" points="393.8,319.7 389.9,318.5 385.7,327.6 389.5,328.4 393.8,329 "></polygon><polygon id="spoly_3" data-role="section" data-sectionid="3" data-angle="319.8" points="409.2,318.5 412.5,326.9 416.1,324.8 419.4,322.9 413.8,315.9 "></polygon><polygon id="spoly_4" data-role="section" data-sectionid="4" data-angle="236.8" points="384.3,316.1 377.7,323.9 380.8,325.7 384.7,327.3 389.2,318.2 "></polygon><polygon id="spoly_5" data-role="section" data-sectionid="5" data-angle="340.7" points="419.8,311.3 417.5,313.4 414.8,315.6 420.1,322.4 422.5,320.5 424.3,318.7 425.7,317.2 "></polygon><polygon id="spoly_6" data-role="section" data-sectionid="6" data-angle="230.2" points="383.6,315.7 380.2,313.8 377.9,312.2 371.6,318.6 373.2,320.2 374.9,321.8 376.8,323.5 "></polygon><polygon id="spoly_7" data-role="section" data-sectionid="7" data-angle="199.6" points="441.9,286.1 446.8,290.8 452.1,284.9 447.1,280.5 "></polygon><polygon id="spoly_8" data-role="section" data-sectionid="8" data-angle="215.2" points="338.5,268.8 333.2,272.9 339.6,281.2 343.9,276.9 "></polygon><polygon id="spoly_9" data-role="section" data-sectionid="9" data-angle="203.6" points="448.5,278.8 453.3,283 459.3,275.5 454.4,272.3 "></polygon><polygon id="spoly_10" data-role="section" data-sectionid="10" data-angle="204.2" points="333.8,261.5 327.8,265.6 332.7,272.2 338,268.1 "></polygon><polygon id="spoly_11" data-role="section" data-sectionid="11" data-angle="201.8" points="460.3,266.4 455.5,271.5 461.6,274.9 465.4,269.3 "></polygon><polygon id="spoly_13" data-role="section" data-sectionid="13" data-angle="192.3" points="461.4,265.6 467.8,254.1 471.9,256.4 466,268.2 "></polygon><polygon id="spoly_101" data-role="section" data-sectionid="101" data-angle="285.5" points="413,328.4 399.2,330.7 399.2,355.6 420.6,352 413,328.4 "></polygon><polygon id="spoly_102" data-role="section" data-sectionid="102" data-angle="260" points="397.4,355.8 397.4,330.7 385.3,329.3 376.2,352.5 397.4,355.8 "></polygon><polygon id="spoly_103" data-role="section" data-sectionid="103" data-angle="338.6" points="420,324.6 414.8,327.6 422.2,351.5 437.6,344.2 420,324.6 "></polygon><polygon id="spoly_104" data-role="section" data-sectionid="104" data-angle="240.2" points="383.6,328.8 376.8,325.5 359.7,344.2 374.4,352 383.6,328.8 "></polygon><polygon id="spoly_105" data-role="section" data-sectionid="105" data-angle="224.5" points="432.1,313.5 421.3,323.6 439,343 450.2,332.6 432.1,313.5 "></polygon><polygon id="spoly_106" data-role="section" data-sectionid="106" data-angle="227.3" points="375.5,324.5 365.8,315.1 347.9,332.8 358.3,343 375.5,324.5 "></polygon><polygon id="spoly_107" data-role="section" data-sectionid="107" data-angle="208.4" points="472.8,353.7 488.2,338 448.5,298 433.1,312.5 472.8,353.7 "></polygon><polygon id="spoly_108" data-role="section" data-sectionid="108" data-angle="202.9" points="313.5,337.8 321,333.5 333.2,344.9 364.6,313.9 347.9,297.6 311,335.7 "></polygon><polygon id="spoly_109" data-role="section" data-sectionid="109" data-angle="218.8" points="496.1,343.5 507.7,332.4 457.5,280.8 448.2,291 451.8,294.5 449.6,296.8 496.1,343.5 "></polygon><polygon id="spoly_110" data-role="section" data-sectionid="110" data-angle="219.1" points="294.6,329.5 305.2,339.3 346.7,296.4 345.2,294.8 348.5,291 340.1,283.1 294.6,329.5 "></polygon><polygon id="spoly_111" data-role="section" data-sectionid="111" data-angle="221.2" points="508.9,331.2 511.5,328.9 509.6,326.8 514.1,321.3 518.1,314.1 488.5,297.5 492.5,290 463.9,273.7 459.3,279.4 508.9,331.2 "></polygon><polygon id="spoly_112" data-role="section" data-sectionid="112" data-angle="268.4" points="293.4,328.3 338.9,282.1 328.3,268.1 301.3,285.7 307.2,294.6 280.2,312.8 286.1,321.1 286.1,321.1 286.1,321.1 "></polygon><polygon id="spoly_113" data-role="section" data-sectionid="113" data-angle="207.6" points="519,312.7 531.3,290.5 473.3,257.2 467.4,268.9 465.1,272.7 494.5,289.3 490.6,296.9 519,312.7 "></polygon><polygon id="spoly_114" data-role="section" data-sectionid="114" data-angle="305.6" points="262.2,287.2 279.2,311.5 305,294.2 298.8,285.1 327.2,266.6 326.5,265.2 331.3,261.9 322.3,247.7 262.2,287.2 "></polygon><polygon id="spoly_115" data-role="section" data-sectionid="115" data-angle="206.3" points="532.1,289 541.8,271.6 481.1,236.8 471.1,253.9 532.1,289 "></polygon><polygon id="spoly_116" data-role="section" data-sectionid="116" data-angle="334.2" points="251.5,271.6 261.4,285.8 321.3,246.2 311.7,231.5 251.5,271.6 "></polygon><polygon id="spoly_117" data-role="section" data-sectionid="117" data-angle="202" points="542.5,270.3 551,255 490.2,220.7 482,235.3 542.5,270.3 "></polygon><polygon id="spoly_118" data-role="section" data-sectionid="118" data-angle="349.6" points="236.6,250.3 250.5,270.3 310.7,230.1 309.5,228 236.6,250.3 "></polygon><polygon id="spoly_119" data-role="section" data-sectionid="119" data-angle="191.5" points="551.9,253.5 561.4,236.5 561.4,227.5 530.1,227.5 494.2,218.1 492.9,220.6 551.9,253.5 "></polygon><polygon id="spoly_120" data-role="section" data-sectionid="120" data-angle="357.5" points="236.3,226.3 236.3,248.6 308.5,226.4 308.5,226.3 308.5,226.3 236.3,226.3 "></polygon><polygon id="spoly_121" data-role="section" data-sectionid="121" data-angle="180" points="561.4,225.7 561.4,203.1 514,203.1 497.9,217.5 530.4,225.7 561.4,225.7 "></polygon><polygon id="spoly_122" data-role="section" data-sectionid="122" data-angle="360" points="242.7,203.9 236.3,210.7 236.3,224.5 308.5,224.5 308.5,219.2 294.4,203.9 242.7,203.9 "></polygon><polygon id="spoly_123" data-role="section" data-sectionid="123" data-angle="180" points="561.4,201.3 561.4,178.6 521.2,178.6 521.2,187.5 514.8,193.9 514.8,201.3 561.4,201.3 "></polygon><polygon id="spoly_124" data-role="section" data-sectionid="124" data-angle="359.3" points="273.7,181.1 262.9,181.1 252,188 252,194.1 244.2,202.2 292.9,202.2 273.7,181.1 "></polygon><polygon id="spoly_125" data-role="section" data-sectionid="125" data-angle="180" points="561.4,176.9 561.4,160.3 515.5,160.3 515.5,168.9 521.2,174.8 521.2,176.9 561.4,176.9 "></polygon><polygon id="spoly_126" data-role="section" data-sectionid="126" data-angle="46.3" points="281.2,150.5 265.8,133.9 261.7,138.1 271,160.2 "></polygon><polygon id="spoly_127" data-role="section" data-sectionid="127" data-angle="180" points="561.4,158.5 561.4,149 521.2,149 517.4,153.7 517.4,158.5 561.4,158.5 "></polygon><polygon id="spoly_128" data-role="section" data-sectionid="128" data-angle="34.1" points="267.4,132.9 282.5,149.3 302.2,129.4 286.5,113.7 267.4,132.9 "></polygon><polygon id="spoly_129" data-role="section" data-sectionid="129" data-angle="180" points="568.3,147.3 568.3,120.6 558.3,110.7 534.7,134.3 529.5,134.3 523,141.2 523,146.8 522.6,147.3 568.3,147.3 "></polygon><polygon id="spoly_130" data-role="section" data-sectionid="130" data-angle="15.6" points="303.6,128.2 319.9,111.8 304.3,96.2 287.9,112.5 303.6,128.2 "></polygon><polygon id="spoly_131" data-role="section" data-sectionid="131" data-angle="154.9" points="557.1,109.5 542.5,94.8 510.3,127 522.4,139.1 528.8,132.7 529.2,132.6 533.9,132.6 557.1,109.5 "></polygon><polygon id="spoly_132" data-role="section" data-sectionid="132" data-angle="163" points="321.1,110.6 337.7,94.1 321.8,78.5 305.5,95 321.1,110.6 "></polygon><polygon id="spoly_133" data-role="section" data-sectionid="133" data-angle="141.1" points="541.3,93.6 525.9,78 493.5,110.4 509.1,125.8 541.3,93.6 "></polygon><polygon id="spoly_134" data-role="section" data-sectionid="134" data-angle="149.2" points="338.9,92.9 349.8,82.1 333.9,66.4 323,77.3 338.9,92.9 "></polygon><polygon id="spoly_135" data-role="section" data-sectionid="135" data-angle="136.6" points="524.7,76.8 508.8,61 476.4,93.4 492.3,109.2 524.7,76.8 "></polygon><polygon id="spoly_137" data-role="section" data-sectionid="137" data-angle="137.4" points="507.6,59.8 497.2,49.2 465.3,81.3 465.3,82.3 475.2,92.2 507.6,59.8 "></polygon><polygon id="spoly_201" data-role="section" data-sectionid="201" data-angle="219.4" points="434.7,412.2 438.6,419.9 460.8,407.4 450.9,389.4 438,397.2 439.5,400.1 435.7,402.4 "></polygon><polygon id="spoly_202" data-role="section" data-sectionid="202" data-angle="235.7" points="340,405.3 355.5,418 359.6,413.2 357.5,397.8 350.3,391.9 340,405.3 "></polygon><polygon id="spoly_203" data-role="section" data-sectionid="203" data-angle="227.2" points="462.2,406.5 469.6,402.4 481.6,391.3 467.4,377.1 460.6,383.7 452.5,388.5 462.2,406.5 "></polygon><polygon id="spoly_204" data-role="section" data-sectionid="204" data-angle="218.5" points="335,400.9 338.9,404.3 349,390.9 344.4,386.8 338.4,381 326.5,392.5 "></polygon><polygon id="spoly_205" data-role="section" data-sectionid="205" data-angle="223.5" points="488,395.3 498.7,384.5 479.7,365.1 468.6,375.9 488,395.3 "></polygon><polygon id="spoly_206" data-role="section" data-sectionid="206" data-angle="198.3" points="325.4,391.1 337.3,379.7 321.1,363.7 308.6,376 "></polygon><polygon id="spoly_207" data-role="section" data-sectionid="207" data-angle="224.9" points="499.9,383.3 516.9,366 498,347.3 480.9,363.9 499.9,383.3 "></polygon><polygon id="spoly_208" data-role="section" data-sectionid="208" data-angle="346.5" points="307.5,374.6 320,362.5 304.6,347.1 291.8,359.4 "></polygon><polygon id="spoly_209" data-role="section" data-sectionid="209" data-angle="215.7" points="518.1,364.8 527.6,355.1 505.5,340 499.2,346.1 518.1,364.8 "></polygon><polygon id="spoly_210" data-role="section" data-sectionid="210" data-angle="341.8" points="290.8,358 303.5,345.9 297.8,340 283.5,350.4 "></polygon><polygon id="spoly_211" data-role="section" data-sectionid="211" data-angle="198.4" points="520,317.9 540.6,330.3 548.1,317 527.1,305.4 520,317.9 "></polygon><polygon id="spoly_212" data-role="section" data-sectionid="212" data-angle="327.1" points="247.5,316.5 256.9,329.5 276.6,316.7 267.3,303.7 247.5,316.5 "></polygon><polygon id="spoly_213" data-role="section" data-sectionid="213" data-angle="189.4" points="548.9,315.5 560.5,294.5 539.9,282.6 528,303.9 548.9,315.5 "></polygon><polygon id="spoly_214" data-role="section" data-sectionid="214" data-angle="326.7" points="232.1,294.5 246.7,315.1 266.2,302.1 251.7,281.7 232.1,294.5 "></polygon><polygon id="spoly_215" data-role="section" data-sectionid="215" data-angle="241.7" points="561.4,292.9 574.2,269.7 553.8,258.3 540.8,281.2 561.4,292.9 "></polygon><polygon id="spoly_216" data-role="section" data-sectionid="216" data-angle="327.7" points="216.2,272 231.1,293.1 250.8,280.3 236.3,259.7 216.2,272 "></polygon><polygon id="spoly_217" data-role="section" data-sectionid="217" data-angle="353.1" points="575.1,268.4 586.8,247.2 566.4,236 554.5,256.7 575.1,268.4 "></polygon><polygon id="spoly_218" data-role="section" data-sectionid="218" data-angle="342.9" points="207.9,248.8 207.9,259.9 215.3,270.6 235.2,258.3 231.1,252.2 231.1,248.8 207.9,248.8 "></polygon><polygon id="spoly_219" data-role="section" data-sectionid="219" data-angle="356.2" points="587.5,245.7 593.9,234.2 593.9,222.8 569.4,222.8 569.4,230.6 567.3,234.4 587.5,245.7 "></polygon><polygon id="spoly_220" data-role="section" data-sectionid="220" data-angle="360" points="207.9,222.6 207.9,247.1 231.1,247.1 231.1,222.6 207.9,222.6 "></polygon><polygon id="spoly_221" data-role="section" data-sectionid="221" data-angle="360" points="593.9,221.1 593.9,195.4 569.4,195.4 569.4,221.1 593.9,221.1 "></polygon><polygon id="spoly_222" data-role="section" data-sectionid="222" data-angle="360" points="222.9,191.3 207.9,205.5 207.9,220.9 231.1,220.9 231.1,191.3 222.9,191.3 "></polygon><polygon id="spoly_223" data-role="section" data-sectionid="223" data-angle="360" points="593.9,193.7 593.9,176.9 569.4,176.9 569.4,193.7 593.9,193.7 "></polygon><polygon id="spoly_224" data-role="section" data-sectionid="224" data-angle="360" points="223.8,166.2 223.8,189.5 231.1,189.5 231.1,166.2 223.8,166.2 "></polygon><polygon id="spoly_226" data-role="section" data-sectionid="226" data-angle="44.8" points="237.4,101 259.3,123.8 285.5,97.5 263.2,75 237.4,101 "></polygon><polygon id="spoly_227" data-role="section" data-sectionid="227" data-angle="31.3" points="607.2,84.9 617.4,94.8 593.9,119.9 573.5,119.9 563.1,109.7 573.1,99.4 582.5,109.1 582.5,109.1 582.5,109.1 "></polygon><polygon id="spoly_228" data-role="section" data-sectionid="228" data-angle="29.3" points="286.8,96.3 302.7,80.3 280.3,57.9 264.6,73.5 264.4,73.8 286.8,96.3 "></polygon><polygon id="spoly_229" data-role="section" data-sectionid="229" data-angle="9.4" points="587.6,65.4 563.2,89.3 554.4,80.5 544.2,90.1 560.9,107.5 573.3,95.3 582.9,105.1 605.4,82.9 605.4,82.9 605.4,82.9 "></polygon><polygon id="spoly_230" data-role="section" data-sectionid="230" data-angle="27" points="304,79.1 325.5,57.6 303.1,35 281.8,56.4 281.6,56.6 304,79.1 "></polygon><polygon id="spoly_231" data-role="section" data-sectionid="231" data-angle="105.1" points="568.3,46.1 544,69.8 534.2,60.3 524.1,69.5 542.4,88.2 554.6,77.1 563.3,85.6 585.6,63.3 585.6,63.3 585.6,63.3 "></polygon><polygon id="spoly_233" data-role="section" data-sectionid="233" data-angle="157.6" points="548.7,26.8 566.4,44.1 544.1,66.5 534.2,56.5 522.4,67.7 507.4,52.2 517.1,42.7 524.3,50 548.7,26.8 548.7,26.8 "></polygon><polygon id="spoly_235" data-role="section" data-sectionid="235" data-angle="148.3" points="544.8,22.9 519.8,22.9 498.7,43.1 505.6,50.3 517.2,39.4 524.3,46.5 546.9,24.8 546.9,24.8 546.9,24.8 546.9,24.8 "></polygon><polygon id="spoly_300" data-role="section" data-sectionid="300" data-angle="270" points="381.2,499.7 388.1,500.2 395.5,500.2 408,500 403.9,453.1 386.2,453.1 381.2,499.7 "></polygon><polygon id="spoly_301" data-role="section" data-sectionid="301" data-angle="299.9" points="409.7,499.8 417.9,499.3 425.5,498.5 439.9,496.2 426.7,444.6 416.5,446.2 405.1,447.2 "></polygon><polygon id="spoly_302" data-role="section" data-sectionid="302" data-angle="258.6" points="348.8,494.3 355.9,496 363.3,497.4 371.1,498.6 379.4,499.7 385.2,447.2 374.1,446 364.2,444.1 348.8,494.3 348.8,494.3 "></polygon><polygon id="spoly_303" data-role="section" data-sectionid="303" data-angle="214" points="441.6,495.9 449,494.1 456.1,492.4 468.6,488.4 444.9,440.3 437.1,442.4 428.4,444.3 "></polygon><polygon id="spoly_304" data-role="section" data-sectionid="304" data-angle="241.1" points="320.8,483.9 326.6,486.5 333,489.1 339.8,491.5 347.2,493.8 362.6,443.8 353.6,441.2 346,438.4 320.8,483.9 320.8,483.9 "></polygon><polygon id="spoly_305" data-role="section" data-sectionid="305" data-angle="233.3" points="499.2,473.4 468.8,430.1 462.9,433.2 456,436.3 446.4,439.8 470.2,487.9 481.6,483.2 "></polygon><polygon id="spoly_306" data-role="section" data-sectionid="306" data-angle="207.9" points="292.4,465.9 296.2,469.2 302.1,473.4 309.7,478 319.2,483.2 344.5,437.7 338.6,434.7 333.7,432 328.2,428.2 292.4,465.9 292.4,465.9 "></polygon><polygon id="spoly_307" data-role="section" data-sectionid="307" data-angle="229.5" points="500.6,472.1 519.8,454.1 481.9,413.5 467.4,424.9 500.6,472.1 "></polygon><polygon id="spoly_308" data-role="section" data-sectionid="308" data-angle="309.3" points="275.6,448.8 289.9,463.7 291,464.9 328.4,425.4 314.2,410.7 275.6,448.8 275.6,448.8 "></polygon><polygon id="spoly_309" data-role="section" data-sectionid="309" data-angle="221.7" points="521.2,452.9 545.8,430.1 505.5,389.9 483.1,412.2 521.2,452.9 "></polygon><polygon id="spoly_310" data-role="section" data-sectionid="310" data-angle="336.1" points="254.1,426.1 274.4,447.6 313,409.3 292.5,388 254.1,426.1 "></polygon><polygon id="spoly_311" data-role="section" data-sectionid="311" data-angle="192.6" points="547,428.9 570.1,407.2 529,366 506.7,388.7 547,428.9 "></polygon><polygon id="spoly_312" data-role="section" data-sectionid="312" data-angle="319.6" points="230,400.6 252.9,424.7 291.3,386.8 269.2,363.4 230,400.6 "></polygon><polygon id="spoly_313" data-role="section" data-sectionid="313" data-angle="192" points="539.1,373.8 563.8,349.6 552.4,342.6 530.2,364.8 539.1,373.8 "></polygon><polygon id="spoly_315" data-role="section" data-sectionid="315" data-angle="345.4" points="604.5,372.1 619.7,344.7 568.1,314.8 553.3,341.3 604.5,372.1 "></polygon><polygon id="spoly_316" data-role="section" data-sectionid="316" data-angle="340.6" points="181.9,346.3 200.6,372.8 248.7,340 231.1,314.2 181.9,346.3 "></polygon><polygon id="spoly_317" data-role="section" data-sectionid="317" data-angle="336.7" points="620.4,343.2 634.6,317.5 583,288.1 569,313.2 620.4,343.2 "></polygon><polygon id="spoly_318" data-role="section" data-sectionid="318" data-angle="326.1" points="163.4,319.8 180.9,344.9 230,312.9 212.9,287.6 163.4,319.8 "></polygon><polygon id="spoly_319" data-role="section" data-sectionid="319" data-angle="331.8" points="635.5,316 649.7,290.2 598.8,260.2 583.9,286.5 635.5,316 "></polygon><polygon id="spoly_320" data-role="section" data-sectionid="320" data-angle="247.6" points="146.1,294.8 162.5,318.4 211.9,286.2 197.3,264.7 181.6,264.7 181.6,271.6 146.3,294.8 "></polygon><polygon id="spoly_321" data-role="section" data-sectionid="321" data-angle="343.7" points="650.6,288.6 660.1,271.5 660.1,258.1 616.5,258.1 612.1,266.1 650.6,288.6 "></polygon><polygon id="spoly_322" data-role="section" data-sectionid="322" data-angle="180" points="139.7,264.7 139.7,285.7 145,293.5 179.8,270.4 179.8,264.7 139.7,264.7 "></polygon><polygon id="spoly_323" data-role="section" data-sectionid="323" data-angle="360" points="615.8,256.4 660.1,256.4 660.1,235.8 602.9,235.8 602.9,252.8 599.7,258.7 610.6,265.2 615.8,256.4 "></polygon><polygon id="spoly_324" data-role="section" data-sectionid="324" data-angle="180" points="139.7,233.9 139.7,263 196.6,263 196.6,233.9 139.7,233.9 "></polygon><polygon id="spoly_325" data-role="section" data-sectionid="325" data-angle="360" points="660.1,234.1 660.1,203.6 602.9,203.6 602.9,234.1 660.1,234.1 "></polygon><polygon id="spoly_326" data-role="section" data-sectionid="326" data-angle="180" points="139.7,200.6 139.7,232.2 196.6,232.2 196.6,200.6 139.7,200.6 "></polygon><polygon id="spoly_327" data-role="section" data-sectionid="327" data-angle="360" points="660.1,201.8 660.1,188 602.9,188 602.9,201.8 660.1,201.8 "></polygon><polygon id="spoly_328" data-role="section" data-sectionid="328" data-angle="180" points="196.6,171.7 139.7,171.7 139.7,198.9 196.6,198.9 196.6,171.7 "></polygon><polygon id="spoly_329" data-role="section" data-sectionid="329" data-angle="360" points="615.1,186.3 615.1,164.3 602.9,164.3 602.9,186.3 615.1,186.3 "></polygon><polygon id="spoly_A" data-role="section" data-sectionid="A" data-angle="218.5" points="334.4,346.1 342.2,353.4 354.5,341.8 346.7,334.2 334.4,346.1 "></polygon><polygon id="spoly_B" data-role="section" data-sectionid="B" data-angle="225" points="343.4,354.6 350.5,361.3 361.3,347 358,345.1 355.7,343 343.4,354.6 "></polygon><polygon id="spoly_C" data-role="section" data-sectionid="C" data-angle="239.2" points="351.6,362.9 354.7,367.6 355.9,368.3 366.6,349.9 362.8,347.8 351.6,362.9 "></polygon><polygon id="spoly_D" data-role="section" data-sectionid="D" data-angle="246.1" points="355.4,372.8 369.9,377.1 377.5,354.4 374.8,354.1 374.1,353.9 368.2,350.6 355.6,372.8 "></polygon><polygon id="spoly_E" data-role="section" data-sectionid="E" data-angle="253.5" points="371.6,377.6 383.4,381.2 388.8,356.3 379.3,354.8 371.6,377.6 "></polygon><polygon id="spoly_F" data-role="section" data-sectionid="F" data-angle="261.5" points="383.6,388.2 397.4,388.2 397.4,357.7 390.5,356.5 383.6,388.2 "></polygon><polygon id="spoly_G" data-role="section" data-sectionid="G" data-angle="276.6" points="399.2,388.2 413,388.2 407.8,356 399.2,357.4 399.2,388.2 "></polygon><polygon id="spoly_H" data-role="section" data-sectionid="H" data-angle="296.8" points="413.7,381.2 426,379.2 419.1,354.1 409.6,355.6 413.7,381.2 "></polygon><polygon id="spoly_I" data-role="section" data-sectionid="I" data-angle="340.2" points="427.7,378.7 441.6,374.5 429.1,350.1 422,353.5 421.9,353.5 420.8,353.7 427.7,378.7 "></polygon><polygon id="spoly_J" data-role="section" data-sectionid="J" data-angle="190" points="443.3,374 453.2,369.5 435.2,347.1 430.7,349.4 443.3,374 "></polygon><polygon id="spoly_K" data-role="section" data-sectionid="K" data-angle="200.5" points="454.8,368.8 463.6,362.7 442.8,341.8 439,345.4 438.8,345.6 436.7,346.4 454.6,368.8 "></polygon><polygon id="spoly_L" data-role="section" data-sectionid="L" data-angle="208.6" points="465,361.7 471.5,354.9 451.5,334 444.2,340.7 465,361.7 "></polygon><polygon id="spoly_dugout_box_0" data-role="section" data-sectionid="dugout_box_0" data-angle="270" points="402.3,319.8 398.8,320 394.6,319.8 394.7,329.1 398.4,329.2 402.3,329 "></polygon><polygon id="spoly_Rail_Seats" data-role="section" data-sectionid="Rail_Seats" data-angle="360" points="198.4,92.5 198.4,154 208.6,154 208.6,92.5 208.6,92.5 208.6,92.5 "></polygon><polygon id="spoly_park" data-role="section" data-sectionid="park" data-angle="360" points="380.8,26.1 380.8,30.9 467.9,30.9 467.9,26.1 467.9,26.1 467.9,26.1 "></polygon><polygon id="spoly_point" data-role="section" data-sectionid="point" data-angle="14.4" points="260.3,124.7 265.9,130.6 295.4,101 296.7,99.7 319.2,77.2 320.5,75.9 332.1,64.2 326.5,58.5 260.3,124.7 "></polygon><polygon id="spoly_agave_club" data-role="section" data-sectionid="agave_club" data-angle="360" points="207.2,202.2 207.2,157.5 221.5,157.5 221.5,189.3 "></polygon><polygon id="spoly_tcl_206" data-role="section" data-sectionid="tcl_206" data-angle="189.4" points="324.6,391.4 319.3,396.6 303.5,381.6 308.5,376.6 "></polygon><polygon id="spoly_tcl_208" data-role="section" data-sectionid="tcl_208" data-angle="347" points="306.8,375 291.6,360.1 286.6,365.4 301.8,380.1 "></polygon><polygon id="spoly_tcl_210" data-role="section" data-sectionid="tcl_210" data-angle="335" points="290.2,358.5 284.7,363.6 277.6,356.1 283,351 "></polygon><polygon id="spoly_gallaghers_club_a" data-role="section" data-sectionid="gallaghers_club_a" data-angle="270" points="412,421.4 400.7,421.8 400.6,403 411.3,402.9 "></polygon><polygon id="spoly_gallaghers_club_b" data-role="section" data-sectionid="gallaghers_club_b" data-angle="294.2" points="428.4,418.9 414.5,421.3 413.3,402.9 424.7,401.7 "></polygon><polygon id="spoly_the__landing" data-role="section" data-sectionid="the__landing" data-angle="156.5" points="234.3,99.3 228.1,92.8 293.6,26.5 300.3,32.8 "></polygon><polygon class="is-d epoly_suites" data-role="dynamic" points="235.4,310.1 " style="fill:#; stroke:#; stroke-width:0; fill-opacity:0.0;"></polygon><polygon class="is-d epoly_hot_corner_dynamic" data-role="dynamic" points="341.1,282.1 347.7,289.2 352.1,285.7 346.2,278.9 341.1,282.1 " style="fill:#F4F4F4; stroke:#BEBEBE; stroke-width:1; fill-opacity:1.0;"></polygon><polygon class="is-d epoly_press_box_dynamics" data-role="dynamic" points="396,439.6 " style="fill:#; stroke:#; stroke-width:0; fill-opacity:0.0;"></polygon><polygon class="is-d epoly_suites1left_dynamics" data-role="dynamic" points="355.4,376.8 377.1,382.9 375.8,390.2 354.8,382.9 " style="fill:#; stroke:#; stroke-width:0; fill-opacity:0.0;"></polygon><polygon class="is-d epoly_perch_righ1_dynamics" data-role="dynamic" points="467.5,89.7 " style="fill:#; stroke:#; stroke-width:0; fill-opacity:0.0;"></polygon><polygon class="is-d epoly_suites2right_dynamics" data-role="dynamic" points="443.4,381.7 " style="fill:#; stroke:#; stroke-width:0; fill-opacity:0.0;"></polygon><polygon class="is-d epoly_party3deck_dyanmics" data-role="dynamic" points="495.8,117.5 " style="fill:#; stroke:#; stroke-width:0; fill-opacity:0.0;"></polygon><polygon class="is-d epoly_suites_2" data-role="dynamic" points="568.8,295.4 " style="fill:#; stroke:#; stroke-width:0; fill-opacity:0.0;"></polygon><polygon class="is-d epoly_terrace_tables_dynamics" data-role="dynamic" points="362.6,428.6 379.3,431.7 397.2,432.4 414.5,431.7 431.2,428.6 431.2,418.8 414.5,421.9 397.2,422.5 379.3,421.9 362.6,418.8 362.6,428.6 362.6,428.6 " style="fill:#F4F4F4; stroke:#BEBEBE; stroke-width:1; fill-opacity:1.0;"></polygon><polygon class="is-d epoly_suites_1_dynamics" data-role="dynamic" points="362.6,415.7 379.3,418.8 398.8,419.2 398.5,409.5 379.3,408.9 362.6,406 362.6,415.7 362.6,415.7 " style="fill:#F4F4F4; stroke:#BEBEBE; stroke-width:1; fill-opacity:1.0;"></polygon><polygon class="is-d epoly_bench_home" data-role="dynamic" points="418.6,307.8 427.1,316.4 449.2,294.7 440.3,285.9 " style="fill:#2B221B; stroke:#000; stroke-width:0; fill-opacity:1;"></polygon><polygon class="is-d epoly_omni_club" data-role="dynamic" points="307.4,346.2 341.8,379.4 352.7,369.2 320.2,337.3 " style="fill:#F4F4F4; stroke:#BEBEBE; stroke-width:1; fill-opacity:1.0;"></polygon><polygon class="is-d epoly_bench_visitor" data-role="dynamic" points="346.9,294.7 370,317.2 377.7,309.2 355.2,286.7 " style="fill:#DDD; stroke:#DDD; stroke-width:0; fill-opacity:1.0;"></polygon><polygon class="is-d epoly_right_tower_loft" data-role="dynamic" points="579.3,402.3 597.2,381.9 568.2,355.7 563.4,360.8 559.9,358.6 550.9,367.2 555.7,371 549.4,376.8 " style="fill:#F4F4F4; stroke:#BEBEBE; stroke-width:1; fill-opacity:1.0;"></polygon><polygon class="is-d epoly_patio" data-role="dynamic" points="573.6,123.4 573.6,159.1 595.3,159.1 595.3,123.4 " style="fill:#F4F4F4; stroke:#BEBEBE; stroke-width:1; fill-opacity:1.0;"></polygon><polygon class="is-d epoly_left_tower_loft" data-role="dynamic" points="207.3,374.7 224.2,395.4 254.2,372.1 249.4,366.7 254.5,362.9 247.2,353.9 242.1,357.1 237.6,351.4 " style="fill:#F4F4F4; stroke:#BEBEBE; stroke-width:1; fill-opacity:1.0;"></polygon><polygon class="is-d epoly_batters_eye" data-role="dynamic" points="399.5,59.9 " style="fill:#; stroke:#; stroke-width:0; fill-opacity:0.0;"></polygon><polygon class="is-d epoly_waterfront" data-role="dynamic" points="429.4,63.2 429.4,73.6 466.8,73.6 477,63 " style="fill:#F4F4F4; stroke:#BEBEBE; stroke-width:1; fill-opacity:1.0;"></polygon><polygon class="is-d epoly_sun_diego_beach" data-role="dynamic" points="429.4,53 429.4,62.9 477,62.9 487.4,53 " style="fill:#F4F4F4; stroke:#BEBEBE; stroke-width:1; fill-opacity:1.0;"></polygon><polygon class="is-d epoly_craft_pier" data-role="dynamic" points="429.7,43.1 429.7,52.8 487.2,52.8 497.3,43 " style="fill:#F4F4F4; stroke:#BEBEBE; stroke-width:1; fill-opacity:1.0;"></polygon><polygon class="is-d epoly_picnic_terrace_dynamic" data-role="dynamic" points="323.2,39.9 380,39.9 380,53.8 326.1,53.8 316,44.6 " style="fill:#F4F4F4; stroke:#BEBEBE; stroke-width:1; fill-opacity:1.0;"></polygon><polygon class="is-d epoly_lf_videoboard" data-role="dynamic" points="217,81.4 224.9,90.1 291.1,23.5 282.6,14.9 " style="fill:#F4F4F4; stroke:#BEBEBE; stroke-width:1; fill-opacity:1.0;"></polygon><polygon class="is-d epoly_porch" data-role="dynamic" points="236.1,169 236.1,191.7 249.1,191.7 249.1,187.4 260.8,178 266.4,178 266.4,169 " style="fill:#F4F4F4; stroke:#BEBEBE; stroke-width:1; fill-opacity:1.0;"></polygon><polygon class="is-d epoly_down_the_line" data-role="dynamic" points="236.1,136.5 236.1,165.9 266.5,165.9 266.5,157.1 256.6,136.5 " style="fill:#F4F4F4; stroke:#BEBEBE; stroke-width:1; fill-opacity:1.0;"></polygon><polygon class="is-d epoly_dtl_suites" data-role="dynamic" points="225.9,106.6 225.9,154.1 233.7,154.1 233.7,106.6 " style="fill:#F4F4F4; stroke:#BEBEBE; stroke-width:1; fill-opacity:1.0;"></polygon><polygon class="is-d epoly_western_metal_supply_building" data-role="dynamic" points="139.2,92.1 139.2,166.5 175.7,166.5 175.7,124.9 196.1,124.9 196.1,92.1 " style="fill:#F4F4F4; stroke:#BEBEBE; stroke-width:1; fill-opacity:1.0;"></polygon><polygon class="is-d epoly_western_suites" data-role="dynamic" points="212,92.4 212,154.5 224.1,154.5 224.1,92.4 " style="fill:#F4F4F4; stroke:#BEBEBE; stroke-width:1; fill-opacity:1.0;"></polygon><polygon class="is-d epoly_rooftop_bleachers_dynamic" data-role="dynamic" points="178.8,127.8 178.8,166.2 196.2,166.2 196.2,127.8 " style="fill:#F4F4F4; stroke:#BEBEBE; stroke-width:1; fill-opacity:1.0;"></polygon></g><circle id="mctrmrk" cx="398.6" cy="297.1" r="1" stroke-width="0" stroke="#FFF" opacity="0"></circle><g id="svgsectionnames" style="opacity:1; font-size:5.766666666666667px;"><text data-sectionid="1" data-role="section" x="407.1" y="325">1</text><text data-sectionid="2" data-role="section" x="390.6" y="325.9">2</text><text data-sectionid="3" data-role="section" x="414.2" y="322.4">3</text><text data-sectionid="4" data-role="section" x="383.8" y="322.6">4</text><text data-sectionid="5" data-role="section" x="420.2" y="317.6">5</text><text data-sectionid="6" data-role="section" x="377.7" y="318.2">6</text><text data-sectionid="7" data-role="section" x="447.1" y="286.4">7</text><text data-sectionid="8" data-role="section" x="338.6" y="275.3">8</text><text data-sectionid="9" data-role="section" x="454" y="278.3">9</text><text data-sectionid="10" data-role="section" x="333.1" y="267.9">10</text><text data-sectionid="11" data-role="section" x="461.1" y="271">11</text><text data-sectionid="13" data-role="section" x="466.6" y="263.1">13</text><text data-sectionid="101" data-role="section" x="408.6" y="344.1">101</text><text data-sectionid="102" data-role="section" x="389.3" y="344.4">102</text><text data-sectionid="103" data-role="section" x="423.6" y="338.9">103</text><text data-sectionid="104" data-role="section" x="373.6" y="339">104</text><text data-sectionid="105" data-role="section" x="435.8" y="330.3">105</text><text data-sectionid="106" data-role="section" x="361.7" y="329.9">106</text><text data-sectionid="107" data-role="section" x="473.1" y="338.1">107</text><text data-sectionid="108" data-role="section" x="331.9" y="331.6">108</text><text data-sectionid="109" data-role="section" x="487.2" y="322.5">109</text><text data-sectionid="110" data-role="section" x="316.4" y="318.1">110</text><text data-sectionid="111" data-role="section" x="497.6" y="310.4">111</text><text data-sectionid="112" data-role="section" x="303.8" y="306.4">112</text><text data-sectionid="113" data-role="section" x="509.7" y="290.9">113</text><text data-sectionid="114" data-role="section" x="287.8" y="287.4">114</text><text data-sectionid="115" data-role="section" x="521.2" y="270.1">115</text><text data-sectionid="116" data-role="section" x="274.9" y="266.7">116</text><text data-sectionid="117" data-role="section" x="530.5" y="253.1">117</text><text data-sectionid="118" data-role="section" x="264.7" y="250.2">118</text><text data-sectionid="119" data-role="section" x="540.1" y="235.9">119</text><text data-sectionid="120" data-role="section" x="264.1" y="233.4">120</text><text data-sectionid="121" data-role="section" x="543.8" y="214.8">121</text><text data-sectionid="122" data-role="section" x="264.1" y="214.6">122</text><text data-sectionid="123" data-role="section" x="544.2" y="190.8">123</text><text data-sectionid="124" data-role="section" x="264.7" y="193.4">124</text><text data-sectionid="125" data-role="section" x="544.2" y="169">125</text><text data-sectionid="126" data-role="section" x="269.8" y="145.7">126</text><text data-sectionid="127" data-role="section" x="544.5" y="154.2">127</text><text data-sectionid="128" data-role="section" x="282.6" y="133.3">128</text><text data-sectionid="129" data-role="section" x="543.9" y="138.7">129</text><text data-sectionid="130" data-role="section" x="303.6" y="112.3">130</text><text data-sectionid="131" data-role="section" x="534.3" y="117.4">131</text><text data-sectionid="132" data-role="section" x="320.7" y="95">132</text><text data-sectionid="133" data-role="section" x="518.7" y="101.5">133</text><text data-sectionid="134" data-role="section" x="335.8" y="80">134</text><text data-sectionid="135" data-role="section" x="501.8" y="84.2">135</text><text data-sectionid="137" data-role="section" x="488" y="69.9">137</text><text data-sectionid="201" data-role="section" x="449" y="406.2">201</text><text data-sectionid="202" data-role="section" x="350.1" y="406.9">202</text><text data-sectionid="203" data-role="section" x="468.3" y="392.8">203</text><text data-sectionid="204" data-role="section" x="337.9" y="394.2">204</text><text data-sectionid="205" data-role="section" x="483.7" y="380">205</text><text data-sectionid="206" data-role="section" x="321.9" y="377.9">206</text><text data-sectionid="207" data-role="section" x="498.9" y="365">207</text><text data-sectionid="208" data-role="section" x="305.3" y="361.7">208</text><text data-sectionid="209" data-role="section" x="512.5" y="352.3">209</text><text data-sectionid="210" data-role="section" x="291.8" y="349.8">210</text><text data-sectionid="211" data-role="section" x="536" y="318.8">211</text><text data-sectionid="212" data-role="section" x="258.9" y="318.7">212</text><text data-sectionid="213" data-role="section" x="546.5" y="300.2">213</text><text data-sectionid="214" data-role="section" x="246.6" y="300.2">214</text><text data-sectionid="215" data-role="section" x="560.4" y="277.2">215</text><text data-sectionid="216" data-role="section" x="231.3" y="278">216</text><text data-sectionid="217" data-role="section" x="573.2" y="253.5">217</text><text data-sectionid="218" data-role="section" x="220" y="257.2">218</text><text data-sectionid="219" data-role="section" x="580.6" y="232.7">219</text><text data-sectionid="220" data-role="section" x="219.5" y="235.9">220</text><text data-sectionid="221" data-role="section" x="581" y="209.4">221</text><text data-sectionid="222" data-role="section" x="219.5" y="210.4">222</text><text data-sectionid="223" data-role="section" x="581.3" y="186.7">223</text><text data-sectionid="224" data-role="section" x="227.4" y="180.9" transform="rotate(-90 227.4 180.9)">224</text><text data-sectionid="226" data-role="section" x="261.5" y="101.4">226</text><text data-sectionid="227" data-role="section" x="598.7" y="105.2">227</text><text data-sectionid="228" data-role="section" x="283.6" y="79.1">228</text><text data-sectionid="229" data-role="section" x="582.1" y="88">229</text><text data-sectionid="230" data-role="section" x="303.5" y="59">230</text><text data-sectionid="231" data-role="section" x="563.1" y="69.4">231</text><text data-sectionid="233" data-role="section" x="543.4" y="50.6">233</text><text data-sectionid="235" data-role="section" x="525.8" y="33.2">235</text><text data-sectionid="300" data-role="section" x="395.5" y="480.4">300</text><text data-sectionid="301" data-role="section" x="422.8" y="476.9">301</text><text data-sectionid="302" data-role="section" x="369.8" y="476.6">302</text><text data-sectionid="303" data-role="section" x="447.6" y="470.2">303</text><text data-sectionid="304" data-role="section" x="343.3" y="469.2">304</text><text data-sectionid="305" data-role="section" x="473.2" y="459.8">305</text><text data-sectionid="306" data-role="section" x="319.4" y="457.3">306</text><text data-sectionid="307" data-role="section" x="495.8" y="444.3">307</text><text data-sectionid="308" data-role="section" x="298.1" y="441.4">308</text><text data-sectionid="309" data-role="section" x="518.9" y="425.3">309</text><text data-sectionid="310" data-role="section" x="278.7" y="422.2">310</text><text data-sectionid="311" data-role="section" x="541.6" y="401.9">311</text><text data-sectionid="312" data-role="section" x="255.9" y="397.9">312</text><text data-sectionid="313" data-role="section" x="547" y="357.7">313</text><text data-sectionid="315" data-role="section" x="596.4" y="349.1">315</text><text data-sectionid="316" data-role="section" x="206.4" y="350.1">316</text><text data-sectionid="317" data-role="section" x="610.7" y="320.9">317</text><text data-sectionid="318" data-role="section" x="186.5" y="322.8">318</text><text data-sectionid="319" data-role="section" x="625.1" y="294">319</text><text data-sectionid="320" data-role="section" x="169.4" y="297.4">320</text><text data-sectionid="321" data-role="section" x="632.3" y="268">321</text><text data-sectionid="322" data-role="section" x="159.1" y="275.3">322</text><text data-sectionid="323" data-role="section" x="632.4" y="246.1">323</text><text data-sectionid="324" data-role="section" x="159.2" y="248.8">324</text><text data-sectionid="325" data-role="section" x="632.2" y="218.7">325</text><text data-sectionid="326" data-role="section" x="159.2" y="216.9">326</text><text data-sectionid="327" data-role="section" x="632.2" y="196">327</text><text data-sectionid="328" data-role="section" x="159.5" y="186.1">328</text><text data-sectionid="329" data-role="section" x="609" y="177.3">329</text><text data-sectionid="A" data-role="section" x="344.1" y="344.7">A</text><text data-sectionid="B" data-role="section" x="352" y="353.1">B</text><text data-sectionid="C" data-role="section" x="358.8" y="358.9">C</text><text data-sectionid="D" data-role="section" x="368" y="365">D</text><text data-sectionid="E" data-role="section" x="380.9" y="369.1">E</text><text data-sectionid="F" data-role="section" x="392.8" y="371.1">F</text><text data-sectionid="G" data-role="section" x="404.8" y="371.2">G</text><text data-sectionid="H" data-role="section" x="417.8" y="368.8">H</text><text data-sectionid="I" data-role="section" x="429.6" y="366.1">I</text><text data-sectionid="J" data-role="section" x="441" y="361.7">J</text><text data-sectionid="K" data-role="section" x="449.8" y="356.1">K</text><text data-sectionid="L" data-role="section" x="457.9" y="349.8">L</text><text data-sectionid="dugout_box_0" data-role="section" x="398.6" y="325.8">0</text><text data-sectionid="Rail_Seats" data-role="section" x="206" y="123" transform="rotate(-90 206 123)">Rail Seats</text><text data-sectionid="park" data-role="section" x="424.4" y="29.5">Gallagher Square</text><text data-sectionid="point" data-role="section" x="298.5" y="96.6" transform="rotate(312.475 298.5 96.6)">The Point</text><text data-sectionid="agave_club" data-role="section" x="214.4" y="177.4" transform="rotate(266.774 214.4 177.4)">T Club</text><text data-sectionid="tcl_206" data-role="section" x="314.1" y="387.5" transform="rotate(42.4804 314.1 387.5)">TCL 206</text><text data-sectionid="tcl_208" data-role="section" x="296.7" y="371" transform="rotate(48.9561 296.7 371)">TCL 208</text><text data-sectionid="tcl_210" data-role="section" x="283.9" y="358.2" transform="rotate(48.9561 283.9 358.2)">TCL 210</text><text data-sectionid="gallaghers_club_a" data-role="section" x="406.3" y="414.5">GC A</text><text data-sectionid="gallaghers_club_b" data-role="section" x="420.9" y="414.1">GC B</text><text data-sectionid="the__landing" data-role="section" x="261.6" y="66.2" transform="rotate(315.022 261.6 66.2)">The Landing</text><text class="is-d " text-anchor="middle" x="235.4" y="311.1" style="fill:#999; font-size:5.9px; " dominant-baseline="central" data-offset="0|0.3" transform="rotate(56 235.4 311.1)">SUITES</text><text class="is-d " text-anchor="middle" x="346.6" y="286" style="fill:#999; font-size:5.9px; " dominant-baseline="central" data-offset="0|0.3" null="">HC</text><text class="is-d " text-anchor="middle" x="396" y="440.6" style="fill:#999; font-size:5.9px; " dominant-baseline="central" data-offset="0|0.3" null="">PRESS BOX</text><text class="is-d " text-anchor="middle" x="365.9" y="385.5" style="fill:#999; font-size:5.9px; " dominant-baseline="central" data-offset="0|0.3" transform="rotate(20 365.9 385.5)">SUITES</text><text class="is-d " text-anchor="middle" x="467.5" y="89.7" style="fill:#999; font-size:4.7px; " dominant-baseline="central" data-offset="0|0.3" transform="rotate(47 467.5 89.7)">PERCH</text><text class="is-d " text-anchor="middle" x="443.4" y="382.7" style="fill:#999; font-size:5.9px; " dominant-baseline="central" data-offset="0|0.3" transform="rotate(336 443.4 382.7)">SUITES</text><text class="is-d " text-anchor="middle" x="495.8" y="117.6" style="fill:#999; font-size:4.7px; " dominant-baseline="central" data-offset="0|0.3" transform="rotate(46 495.8 117.6)">THE DECK</text><text class="is-d " text-anchor="middle" x="568.8" y="296.4" style="fill:#999; font-size:5.9px; " dominant-baseline="central" data-offset="0|0.3" transform="rotate(302 568.8 296.4)">SUITES</text><text class="is-d " text-anchor="middle" x="396.9" y="428.1" style="fill:#999; font-size:4.7px; " dominant-baseline="central" data-offset="0|0.3" null="">TERRACE TABLES</text><text class="is-d " text-anchor="middle" x="382.9" y="414.2" style="fill:#999; font-size:5.9px; " dominant-baseline="central" data-offset="0|0.3" null="">SUITES</text><text class="is-d dyn-name-bench bench_home rotated" text-anchor="middle" x="432.7" y="300.8" style="fill:#FFF; font-size:5.9px; " dominant-baseline="central" data-offset="0|0.3" transform="rotate(316 432.7 300.8)">PADRES</text><text class="is-d " text-anchor="middle" x="330.1" y="359.7" style="fill:#999; font-size:5.3px; " dominant-baseline="central" data-offset="0|0.3" transform="rotate(46 330.1 359.7)">PREMIER CLUB</text><text class="is-d dyn-name-bench bench_visitor rotated" text-anchor="middle" x="362.3" y="304.1" style="fill:#666; font-size:5.9px; " dominant-baseline="central" data-offset="0|0.3" transform="rotate(48 362.3 304.1)">VISITOR</text><text class="is-d " text-anchor="middle" x="572" y="380.6" style="fill:#999; font-size:5.9px; " dominant-baseline="central" data-offset="0|0.3" transform="rotate(44 572 380.6)">TOWER LOFT</text><text class="is-d " text-anchor="middle" x="584.5" y="143.2" style="fill:#999; font-size:5.9px; " dominant-baseline="central" data-offset="0|0.3" null="">PATIO</text><text class="is-d " text-anchor="middle" x="231.6" y="371.9" style="fill:#999; font-size:5.9px; " dominant-baseline="central" data-offset="0|0.3" transform="rotate(325 231.6 371.9)">TOWER LOFT</text><text class="is-d " text-anchor="middle" x="399.5" y="60.9" style="fill:#999; font-size:5.9px; " dominant-baseline="central" data-offset="0|0.3" null="">BATTERS EYE</text><text class="is-d " text-anchor="middle" x="450" y="68.8" style="fill:#999; font-size:5.3px; " dominant-baseline="central" data-offset="0|0.3" null="">WATERFRONT</text><text class="is-d " text-anchor="middle" x="454.6" y="59.2" style="fill:#999; font-size:4.7px; " dominant-baseline="central" data-offset="0|0.3" null="">TOYOTA BEACH</text><text class="is-d " text-anchor="middle" x="448.2" y="48.4" style="fill:#999; font-size:5.3px; " dominant-baseline="central" data-offset="0|0.3" null="">CRAFT PIER</text><text class="is-d " text-anchor="middle" x="350.6" y="48" style="fill:#999; font-size:5.9px; " dominant-baseline="central" data-offset="0|0.3" null="">PICNIC TERRACE</text><text class="is-d " text-anchor="middle" x="252.1" y="53.5" style="fill:#999; font-size:5.9px; " dominant-baseline="central" data-offset="0|0.3" transform="rotate(314 252.1 53.5)">VIDEOBOARD</text><text class="is-d " text-anchor="middle" x="251.9" y="174.5" style="fill:#999; font-size:5.9px; " dominant-baseline="central" data-offset="0|0.3" null="">PORCH</text><text class="is-d " text-anchor="middle" x="250.7" y="153.5" style="fill:#999; font-size:5.9px; " null=""><tspan x="250.7" dy="-0.95em">DOWN</tspan><tspan x="250.7" dy="1.2em">THE</tspan><tspan x="250.7" dy="1.2em">LINE</tspan></text><text class="is-d " text-anchor="middle" x="231" y="129.5" style="fill:#999; font-size:5.9px; " dominant-baseline="central" data-offset="0|0.3" transform="rotate(270 231 129.5)">DTL SUITES</text><text class="is-d " text-anchor="middle" x="150.4" y="132.5" style="fill:#999; font-size:5.9px; " null="" transform="rotate(270 150.4 132.5)"><tspan x="150.4" dy="-0.25em">WESTERN METAL</tspan><tspan x="150.4" dy="1.2em">SUPPLY BUILDING</tspan></text><text class="is-d " text-anchor="middle" x="217.4" y="123.9" style="fill:#999; font-size:5.9px; " dominant-baseline="central" data-offset="0|0.3" transform="rotate(270 217.4 123.9)">WESTERN SUITES</text><text class="is-d " text-anchor="middle" x="186.3" y="148.5" style="fill:#999; font-size:5.3px; " null="" transform="rotate(270 186.3 148.5)"><tspan x="186.3" dy="-0.25em">ROOFTOP</tspan><tspan x="186.3" dy="1.2em">BLEACHERS</tspan></text></g></g><circle id="svgZoomCenter" r="1" stroke-width="0" fill-opacity="0" cx="330.05" cy="259.5"></circle><circle id="svgNorthWest" r="1" stroke-width="0" fill-opacity="0" cx="0" cy="0"></circle><circle id="svgSouthEast" r="1" stroke-width="0" fill-opacity="0" cx="794" cy="519"></circle><g id="svgmarkers" style="font-size: 10.3px;"><circle id="svg-marker-hover" data-ticket="" style="display: none;"></circle></g>undefined</g><circle id="svgZoomCenterLoad" r="1" stroke-width="0" fill-opacity="0" cx="397" cy="259.5"></circle></g></g></svg>