<svg xmlns="http://www.w3.org/2000/svg" xmlns:xlink="http://www.w3.org/1999/xlink" id="svgmap" width="100%" height="100%" style="touch-action: none;" viewBox="72.1 -9.9 628.7 538.8"><style>
polygon[id^="spoly_"] { fill: #d0d8e4; stroke: #7a8fa6; stroke-width: 2; }
polygon[id^="spoly_"]:hover { fill: #5b8ccc; cursor: pointer; }
.svgText { font-family: Arial, sans-serif; fill: #333; font-size: 9px; }
</style>
         <g id="svgdefs"><defs id="svgdefstyle">
      <linearGradient id="ticketGradient" x1="0%" y1="0%" x2="100%" y2="0%"><stop offset="0%" stop-color="#840ac9"></stop><stop offset="30%" stop-color="#d60eb2"></stop><stop offset="50%" stop-color="#fa0b81"></stop><stop offset="100%" stop-color="#fa0b81"></stop></linearGradient>
      <radialGradient id="markerGradient" cx="50%" cy="50%" r="50%"><stop offset="0%" stop-color="#fa0b81"></stop><stop offset="95%" stop-color="#d60eb2"></stop><stop offset="100%" stop-color="#840ac9"></stop></radialGradient>
      <linearGradient id="flagGradient" x1="0%" y1="0%" x2="100%" y2="100%">
         <stop offset="0%" stop-color="#840ac9"></stop>
         <stop offset="40%" stop-color="#d60eb2"></stop>
         <stop offset="80%" stop-color="#fa0b81"></stop>
         <stop offset="100%" stop-color="#c40665"></stop> 
      </linearGradient>      
      <linearGradient id="svgmapticket" x1="0%" y1="0%" x2="0%" y2="100%"><stop offset="0%" style="stop-color:#5BADFF;stop-opacity:1"></stop><stop offset="100%" style="stop-color:#0066CC;stop-opacity:1"></stop></linearGradient><linearGradient id="svgdealticket" x1="0%" y1="0%" x2="0%" y2="100%"> <stop offset="0%" style="stop-color:#66FF00;stop-opacity:1"></stop><stop offset="100%" style="stop-color:#61C100;stop-opacity:1"></stop></linearGradient><linearGradient id="svggreatticket" x1="0%" y1="0%" x2="0%" y2="100%"><stop offset="0%" style="stop-color:#00CC33;stop-opacity:1"></stop><stop offset="100%" style="stop-color:#009100;stop-opacity:1"></stop></linearGradient><filter id="coinShadow" x="-40%" y="-40%" width="200%" height="200%">            <feGaussianBlur in="SourceAlpha" stdDeviation="3"></feGaussianBlur><feOffset dx="2" dy="2" result="offsetblur"></feOffset><feMerge><feMergeNode></feMergeNode><feMergeNode in="SourceGraphic"></feMergeNode></feMerge></filter></defs>  </g>
         <g class="testmask" mask="url(#fade)" style="scale: 0.95; transform-origin:center;">
         <g id="viewport" transform="matrix(1,0,0,1,0,0)" data-zoomfactor="100"><g id="scaleSVG" data-scale="1" transform="scale(1)" class="testrotate"><g id="svgelements"><image id="svgOverlay" class="nopointereventsmap" xlink:href="/assets/images/venues/overlays/globe-life-field-2-4-2020.png" x="-122.0" y="-101.6" width="1016.7px" height="722.1px"></image><g id="svgpolygroup"><polygon id="spoly_1" data-role="section" data-sectionid="1" data-angle="48" points="252.2,139 227.2,168.2 243.8,177.6 258.5,162.5 252.2,139 "></polygon><polygon id="spoly_2" data-role="section" data-sectionid="2" data-angle="16.4" points="226.5,169.4 220.8,191.7 257.3,200.9 264,183.4 258.9,164.1 244.4,179 243.6,179.1 226.5,169.4 "></polygon><polygon id="spoly_3" data-role="section" data-sectionid="3" data-angle="13.5" points="220.4,193 216.2,209.6 250.6,218.3 256.8,202.2 220.4,193 "></polygon><polygon id="spoly_4" data-role="section" data-sectionid="4" data-angle="10.3" points="215.8,210.9 211.8,226.5 246.8,229.3 246.7,228.4 250.1,219.6 215.8,210.9 "></polygon><polygon id="spoly_5" data-role="section" data-sectionid="5" data-angle="354.9" points="211.5,227.8 214.8,249.7 249.5,244.9 247.1,230.7 211.5,227.8 "></polygon><polygon id="spoly_6" data-role="section" data-sectionid="6" data-angle="352" points="215,251.1 217.8,268.7 247.1,264.5 246,256.2 250.7,255.3 249.6,246.3 215,251.1 "></polygon><polygon id="spoly_7" data-role="section" data-sectionid="7" data-angle="352.7" points="218,270 220.9,289 250.4,284.9 247.4,265.9 218,270 "></polygon><polygon id="spoly_8" data-role="section" data-sectionid="8" data-angle="353.5" points="221.1,290.4 225.2,316.1 254.8,312 250.7,286.2 221.1,290.4 "></polygon><polygon id="spoly_9" data-role="section" data-sectionid="9" data-angle="353.6" points="225.3,317.6 227.9,334.1 263.2,329.2 263.2,326.6 257.1,327.5 255,313.3 225.3,317.6 "></polygon><polygon id="spoly_10" data-role="section" data-sectionid="10" data-angle="348.4" points="228.1,335.4 231.4,356.4 265.3,342.3 263.4,330.6 228.1,335.4 "></polygon><polygon id="spoly_11" data-role="section" data-sectionid="11" data-angle="336.5" points="231.8,357.7 242,374.9 272,354.7 265.9,343.5 231.8,357.7 "></polygon><polygon id="spoly_12" data-role="section" data-sectionid="12" data-angle="332.9" points="242.7,376.1 249.3,387.3 267.1,375.4 267.9,375.5 269.5,377 280.1,365.2 276.5,362.8 272.7,356 242.7,376.1 "></polygon><polygon id="spoly_13" data-role="section" data-sectionid="13" data-angle="330.6" points="250,388.5 253.7,394.6 277.9,406.8 295.3,375.3 281.3,366 270.1,378.5 269.1,378.5 267.4,376.8 250,388.5 "></polygon><polygon id="spoly_14" data-role="section" data-sectionid="14" data-angle="316.7" points="279.1,407.4 303.5,419.6 306.9,419.6 306.9,400 304.7,399.5 304.2,398.7 307,382.9 306.9,382.9 296.5,376 279.1,407.4 "></polygon><polygon id="spoly_15" data-role="section" data-sectionid="15" data-angle="270" points="308.3,419.6 323.9,419.6 323.9,383.2 308.4,382.9 305.6,398.3 307.8,398.8 308.3,399.5 308.3,419.6 "></polygon><polygon id="spoly_16" data-role="section" data-sectionid="16" data-angle="270" points="325.3,419.6 345.4,419.6 339.6,383.5 339.5,383.5 325.3,383.3 325.3,419.6 "></polygon><polygon id="spoly_17" data-role="section" data-sectionid="17" data-angle="285.6" points="346.8,419.6 347.7,419.6 366.9,413.6 355.2,378.6 341,383.1 346.8,419.6 "></polygon><polygon id="spoly_18" data-role="section" data-sectionid="18" data-angle="289" points="368.2,413.2 387,407.4 376.8,377.6 361.5,382.1 360.2,377.3 356.6,378.2 368.2,413.2 "></polygon><polygon id="spoly_19" data-role="section" data-sectionid="19" data-angle="289.1" points="388.3,406.9 410.8,399.9 401.3,369.9 378.9,377.2 388.3,406.9 "></polygon><polygon id="spoly_20" data-role="section" data-sectionid="20" data-angle="302.6" points="412.1,399.5 432.7,393 423.1,362.7 402.5,369.4 412.1,399.5 "></polygon><polygon id="spoly_21" data-role="section" data-sectionid="21" data-angle="232.5" points="434,392.6 462,383.9 457.2,369.4 446.6,372.3 439.7,352.1 429.1,355.7 430.3,360.4 424.4,362.3 434,392.6 "></polygon><polygon id="spoly_22" data-role="section" data-sectionid="22" data-angle="238.2" points="463.3,383.5 495.1,373.8 487.3,360.6 464.2,367.1 457.3,346.6 457.2,346.6 440.9,351.7 447.2,370.7 457.8,367.8 463.3,383.5 "></polygon><polygon id="spoly_23" data-role="section" data-sectionid="23" data-angle="233.5" points="496.6,372.7 515.3,357.3 502.3,345.4 488.2,355.8 479,339.6 458.7,346.2 464.5,365.1 487.9,358.5 496.6,372.7 "></polygon><polygon id="spoly_24" data-role="section" data-sectionid="24" data-angle="222.2" points="516.4,356.4 529.4,344.4 515.7,331.8 515.4,331.6 503.4,340.9 490.2,328.8 480.3,338.2 488.7,353.8 502.5,343.5 516.4,356.4 "></polygon><polygon id="spoly_25" data-role="section" data-sectionid="25" data-angle="200.3" points="530.1,343.1 537.8,325.8 524.3,318 529.1,305.7 502.7,310.9 501.3,318.5 491.3,327.8 503.5,339.1 515.6,329.7 516.2,330.4 530.1,343.1 "></polygon><polygon id="spoly_26" data-role="section" data-sectionid="26" data-angle="199.9" points="526.2,317.2 538.3,324.5 548.4,301.8 530.7,305.4 526.2,317.2 "></polygon><polygon id="spoly_27" data-role="section" data-sectionid="27" data-angle="90" points="415.9,64.4 443.8,64.4 447.4,55.3 415.9,55.3 415.9,64.4 "></polygon><polygon id="spoly_28" data-role="section" data-sectionid="28" data-angle="90" points="387.1,64.4 414.3,64.4 414.3,55.3 387.1,55.3 387.1,64.4 "></polygon><polygon id="spoly_29" data-role="section" data-sectionid="29" data-angle="90" points="354.2,72.1 385.5,72.1 385.5,55.3 354.2,55.3 354.2,72.1 "></polygon><polygon id="spoly_30" data-role="section" data-sectionid="30" data-angle="90" points="305.8,72.1 352.6,72.1 352.6,55.3 305.8,55.3 305.8,72.1 "></polygon><polygon id="spoly_31" data-role="section" data-sectionid="31" data-angle="90" points="288.6,72.1 304.2,72.1 304.2,55.3 280.3,55.3 279.8,55.9 281.6,57.8 283,59.9 284.3,62.2 285.7,65.2 288.6,72.1 288.6,72.1 "></polygon><polygon id="spoly_32" data-role="section" data-sectionid="32" data-angle="31.1" points="274.9,82.4 283.5,72.1 287,72.1 284.2,65.6 282.8,62.7 281.6,60.4 280.2,58.5 278.5,56.5 264.4,73.3 274.9,82.4 274.9,82.4 "></polygon><polygon id="spoly_33" data-role="section" data-sectionid="33" data-angle="40.7" points="244.3,96 249.2,113.1 273.7,83.8 263.2,74.7 244.3,96 "></polygon><polygon id="spoly_101" data-role="section" data-sectionid="101" data-angle="51.3" points="233,141.8 247.4,124.3 237.7,86.9 232.9,83.4 204.9,119 233,141.8 "></polygon><polygon id="spoly_102" data-role="section" data-sectionid="102" data-angle="35.1" points="217,160.9 232.1,142.8 204,120.1 188.6,139.6 187.4,144.6 217,160.9 "></polygon><polygon id="spoly_103" data-role="section" data-sectionid="103" data-angle="14" points="211.1,180.8 216.2,162.1 187.1,145.9 180.5,172.8 211.1,180.8 "></polygon><polygon id="spoly_104" data-role="section" data-sectionid="104" data-angle="10.6" points="205.1,202.9 210.7,182.2 180.2,174.1 174.9,195.5 205.1,202.9 "></polygon><polygon id="spoly_105" data-role="section" data-sectionid="105" data-angle="6.8" points="199.3,223.9 204.7,204.1 174.6,196.9 168.5,221.6 168.6,221.8 199.3,223.9 "></polygon><polygon id="spoly_106" data-role="section" data-sectionid="106" data-angle="360" points="203.3,251.4 199.4,225.4 168.8,223.2 173.9,255.6 203.3,251.4 "></polygon><polygon id="spoly_107" data-role="section" data-sectionid="107" data-angle="356.1" points="207.3,277.8 203.5,252.7 174.1,257 178,282.1 207.3,277.8 "></polygon><polygon id="spoly_108" data-role="section" data-sectionid="108" data-angle="353.4" points="211.3,304.2 207.6,279.2 178.2,283.4 182.2,308.5 211.3,304.2 "></polygon><polygon id="spoly_109" data-role="section" data-sectionid="109" data-angle="354.6" points="215.4,331.4 211.5,305.7 182.4,309.8 186.5,335.6 215.4,331.4 "></polygon><polygon id="spoly_110" data-role="section" data-sectionid="110" data-angle="346.6" points="218.8,353.6 215.6,332.8 186.7,336.9 191.1,365.1 218.8,353.6 "></polygon><polygon id="spoly_111" data-role="section" data-sectionid="111" data-angle="333.2" points="228.5,375.2 219.7,359.6 219,355 191.3,366.4 191.6,368.2 205.1,390.9 228.5,375.2 "></polygon><polygon id="spoly_112" data-role="section" data-sectionid="112" data-angle="320.8" points="241.4,398.1 229.2,376.4 205.8,392.1 221.8,418.8 241.4,398.1 "></polygon><polygon id="spoly_113" data-role="section" data-sectionid="113" data-angle="305.6" points="224.8,423.8 238.9,431.6 253,406.4 243.2,401.1 242.1,399.4 222.5,419.9 224.8,423.8 "></polygon><polygon id="spoly_114" data-role="section" data-sectionid="114" data-angle="306.1" points="240.1,432.2 261.7,444.1 275.8,418.8 254.2,407 240.1,432.2 "></polygon><polygon id="spoly_115" data-role="section" data-sectionid="115" data-angle="321.9" points="262.9,444.7 289.4,459.3 299.6,431.6 277,419.4 262.9,444.7 "></polygon><polygon id="spoly_116" data-role="section" data-sectionid="116" data-angle="270" points="290.6,460 294.1,461.9 323.5,460.7 323.5,431.7 301.1,432.5 300.8,432.2 290.6,460 "></polygon><polygon id="spoly_117" data-role="section" data-sectionid="117" data-angle="270" points="324.9,460.6 351.2,459.5 346.9,431 324.9,431.7 324.9,460.6 "></polygon><polygon id="spoly_118" data-role="section" data-sectionid="118" data-angle="286.8" points="352.6,459.4 356.6,459.2 379.8,451.9 370.5,424.2 348.3,430.9 348.4,431 348.3,431 352.6,459.4 "></polygon><polygon id="spoly_119" data-role="section" data-sectionid="119" data-angle="288.8" points="381,451.5 399.4,445.8 390.2,418.2 371.9,423.8 381,451.5 "></polygon><polygon id="spoly_120" data-role="section" data-sectionid="120" data-angle="297.2" points="400.7,445.4 423.2,438.4 414.1,410.9 391.6,417.7 400.7,445.4 "></polygon><polygon id="spoly_121" data-role="section" data-sectionid="121" data-angle="338.9" points="424.5,438 445.6,431.3 436.5,404 415.4,410.5 424.5,438 "></polygon><polygon id="spoly_122" data-role="section" data-sectionid="122" data-angle="229.7" points="446.8,430.9 481.5,420.1 472.5,393 437.8,403.6 446.8,430.9 "></polygon><polygon id="spoly_123" data-role="section" data-sectionid="123" data-angle="244.3" points="482.8,419.7 515,409.6 515.2,409.7 516.4,408.7 501.8,383 500.3,384.3 500.4,384.5 473.8,392.6 482.8,419.7 "></polygon><polygon id="spoly_124" data-role="section" data-sectionid="124" data-angle="232.4" points="517.5,407.8 540.4,389 519.1,367.9 502.8,382 517.5,407.8 "></polygon><polygon id="spoly_125" data-role="section" data-sectionid="125" data-angle="215.8" points="541.5,388.1 562.3,371 538.7,350.9 520.2,367 541.5,388.1 "></polygon><polygon id="spoly_126" data-role="section" data-sectionid="126" data-angle="194.3" points="563.4,370.2 577.3,344.1 548.5,330.8 540.4,349.4 539.8,350 563.4,370.2 "></polygon><polygon id="spoly_127" data-role="section" data-sectionid="127" data-angle="187.7" points="577.9,342.8 579.4,340 579.2,339.9 600.2,292.2 561.6,300.3 548.8,329.4 549,329.5 577.9,342.8 "></polygon><polygon id="spoly_128" data-role="section" data-sectionid="128" data-angle="183.3" points="549.5,297.8 585.7,289.7 592,275.7 589.8,261.2 561.6,267 549.5,297.8 "></polygon><polygon id="spoly_129" data-role="section" data-sectionid="129" data-angle="169.6" points="589.6,259.6 586.9,241.8 558.2,246.8 561.3,265.3 589.6,259.6 "></polygon><polygon id="spoly_130" data-role="section" data-sectionid="130" data-angle="176" points="586.8,240.2 581.8,211.3 552.8,216.4 558,245.2 586.8,240.2 "></polygon><polygon id="spoly_131" data-role="section" data-sectionid="131" data-angle="179.1" points="581.8,209.7 577.5,182.7 547.2,187.9 552.6,214.8 581.8,209.7 "></polygon><polygon id="spoly_132" data-role="section" data-sectionid="132" data-angle="177.3" points="577.1,181.3 572.3,148.7 559.9,151 564.8,183.4 "></polygon><polygon id="spoly_133" data-role="section" data-sectionid="133" data-angle="177.3" points="572.1,147.6 567.4,117.5 555.1,119.4 559.9,149.9 "></polygon><polygon id="spoly_134" data-role="section" data-sectionid="134" data-angle="126.7" points="505.5,92.7 545.7,116.8 569.5,108.1 514.5,76.5 505.5,92.7 "></polygon><polygon id="spoly_135" data-role="section" data-sectionid="135" data-angle="118.8" points="455.1,45.4 452.4,54.9 482.1,72.9 479.4,77.9 504,91.5 513.1,75.3 488.4,61.7 485.7,66.6 472.6,58.9 474,56.2 455.1,45.4 "></polygon><polygon id="spoly_136" data-role="section" data-sectionid="136" data-angle="90" points="415.9,52.6 448.3,52.6 451.5,40.4 415.9,40.4 415.9,52.6 "></polygon><polygon id="spoly_137" data-role="section" data-sectionid="137" data-angle="90" points="387.1,52.6 414.3,52.6 414.3,40.4 387.1,40.4 387.1,52.6 "></polygon><polygon id="spoly_138" data-role="section" data-sectionid="138" data-angle="90" points="354.2,52.6 385.5,52.6 385.5,40.4 354.2,40.4 354.2,52.6 "></polygon><polygon id="spoly_139" data-role="section" data-sectionid="139" data-angle="90" points="305.8,52.6 352.6,52.6 352.6,40.4 305.8,40.4 305.8,52.6 "></polygon><polygon id="spoly_140" data-role="section" data-sectionid="140" data-angle="90" points="277.7,52.6 277.6,52.6 304.2,52.6 304.2,40.4 274.5,40.4 269.8,45.6 277.7,52.6 277.7,52.6 "></polygon><polygon id="spoly_141" data-role="section" data-sectionid="141" data-angle="27.3" points="262.1,71.3 276.4,53.9 268.6,47.1 253.6,64 262.1,71.3 262.1,71.3 "></polygon><polygon id="spoly_142" data-role="section" data-sectionid="142" data-angle="46.2" points="239.8,81.1 243.4,93.6 260.8,72.7 252.3,65.4 239.8,81.1 "></polygon><polygon id="spoly_201" data-role="section" data-sectionid="201" data-angle="40.2" points="215.5,57.7 225.6,46.4 208,30.5 197.8,42.2 215.5,57.7 "></polygon><polygon id="spoly_202" data-role="section" data-sectionid="202" data-angle="34" points="193.9,82.1 214.6,58.8 196.9,43.2 176.3,66.8 193.9,82.1 "></polygon><polygon id="spoly_203" data-role="section" data-sectionid="203" data-angle="17.8" points="171.7,106.8 192.9,83.1 175.4,67.8 154.4,91.7 171.7,106.8 "></polygon><polygon id="spoly_204" data-role="section" data-sectionid="204" data-angle="77.3" points="143,104.9 160.3,119.6 170.8,107.8 153.6,92.8 143,104.9 "></polygon><polygon id="spoly_205" data-role="section" data-sectionid="205" data-angle="2.4" points="174.9,146 176.8,138.3 159.5,133.4 157.4,142.1 174.9,146 "></polygon><polygon id="spoly_206" data-role="section" data-sectionid="206" data-angle="2.6" points="169.9,166 174.6,147.4 157,143.4 152.3,162 169.9,166 "></polygon><polygon id="spoly_207" data-role="section" data-sectionid="207" data-angle="78.9" points="162.3,196 169.6,167.3 152,163.3 144.7,192 162.3,196 "></polygon><polygon id="spoly_208" data-role="section" data-sectionid="208" data-angle="179.5" points="157.5,230.3 156.2,220.6 162,197.3 144.4,193.4 138.1,218 138.2,218 140.4,232.8 157.5,230.3 "></polygon><polygon id="spoly_209" data-role="section" data-sectionid="209" data-angle="182.7" points="162.3,263.3 157.8,231.7 140.6,234.1 145.3,265.8 162.3,263.3 "></polygon><polygon id="spoly_210" data-role="section" data-sectionid="210" data-angle="204.8" points="166.2,290.4 162.6,264.8 145.4,267.2 149.3,292.8 166.2,290.4 "></polygon><polygon id="spoly_211" data-role="section" data-sectionid="211" data-angle="356" points="170.1,317.4 166.5,291.8 149.4,294.2 153.2,319.8 170.1,317.4 "></polygon><polygon id="spoly_212" data-role="section" data-sectionid="212" data-angle="359" points="174.3,345.7 170.4,318.8 153.4,321.1 157.4,348.1 174.3,345.7 "></polygon><polygon id="spoly_213" data-role="section" data-sectionid="213" data-angle="356.7" points="180.3,376.7 178.2,373.2 174.4,347 157.6,349.4 161.6,376.7 165.6,383.5 180.3,376.7 "></polygon><polygon id="spoly_214" data-role="section" data-sectionid="214" data-angle="342.9" points="197.5,405.5 181,377.9 166.3,384.7 182.3,412.5 197.5,405.5 "></polygon><polygon id="spoly_215" data-role="section" data-sectionid="215" data-angle="330.3" points="212.9,431.3 198.2,406.7 183,413.7 200.4,443.8 200.9,444.1 212.9,431.3 "></polygon><polygon id="spoly_216" data-role="section" data-sectionid="216" data-angle="303" points="239.9,447.4 214.2,433.4 213.7,432.5 202.1,444.7 230.9,460.7 239.9,447.4 "></polygon><polygon id="spoly_217" data-role="section" data-sectionid="217" data-angle="305.3" points="261.2,459.1 241.2,448.1 232.1,461.3 253,472.8 261.2,459.1 "></polygon><polygon id="spoly_218" data-role="section" data-sectionid="218" data-angle="308.5" points="287.4,473.4 262.4,459.8 254.2,473.6 283.7,489.8 287.4,473.4 "></polygon><polygon id="spoly_219" data-role="section" data-sectionid="219" data-angle="270" points="309.7,473.8 289,474.3 288.7,474.1 284.9,490.4 309.7,491.1 309.7,473.8 "></polygon><polygon id="spoly_220" data-role="section" data-sectionid="220" data-angle="270" points="334.6,473.2 311.1,473.8 311.1,491.1 334.6,490.6 334.6,473.2 "></polygon><polygon id="spoly_221" data-role="section" data-sectionid="221" data-angle="270" points="354.2,472.8 354,472.8 336,473.2 336,490.6 358.3,490.1 354.2,472.8 "></polygon><polygon id="spoly_222" data-role="section" data-sectionid="222" data-angle="287.7" points="388.4,462.5 355.6,472.4 359.7,489.9 394,478.5 388.4,462.5 "></polygon><polygon id="spoly_223" data-role="section" data-sectionid="223" data-angle="297.1" points="422.9,452.2 389.8,462.1 395.4,478.1 428.4,468.1 422.9,452.2 "></polygon><polygon id="spoly_224" data-role="section" data-sectionid="224" data-angle="190.5" points="456.2,441.6 424.9,451.6 424.2,451.8 429.8,467.7 461.8,457.7 456.2,441.6 "></polygon><polygon id="spoly_225" data-role="section" data-sectionid="225" data-angle="238" points="483.9,432.8 457.6,441.1 463.2,457.2 490.2,449 483.9,432.8 "></polygon><polygon id="spoly_226" data-role="section" data-sectionid="226" data-angle="240.9" points="516.3,422.4 485.2,432.4 491.4,448.6 522.7,439.5 516.3,422.4 "></polygon><polygon id="spoly_227" data-role="section" data-sectionid="227" data-angle="227.8" points="546.8,401.4 520.6,421.1 517.6,422 523.9,439.1 529,437.5 558.2,415.6 546.8,401.4 "></polygon><polygon id="spoly_228" data-role="section" data-sectionid="228" data-angle="197" points="573,381.8 566.7,386.5 547.9,400.6 559.3,414.9 587.1,394 573,381.8 "></polygon><polygon id="spoly_229" data-role="section" data-sectionid="229" data-angle="353.5" points="588.5,350.9 575.1,380.2 574.1,380.9 588.1,393.1 605.5,356.8 588.5,350.9 "></polygon><polygon id="spoly_230" data-role="section" data-sectionid="230" data-angle="350.1" points="599.1,327.7 589.1,349.6 606.1,355.6 616.6,333.7 599.1,327.7 "></polygon><polygon id="spoly_231" data-role="section" data-sectionid="231" data-angle="346.1" points="609.1,303 604.7,315.3 599.7,326.4 617.1,332.5 626.9,309.3 609.1,303 "></polygon><polygon id="spoly_232" data-role="section" data-sectionid="232" data-angle="351.4" points="616.2,260.3 616.2,283.2 609.6,301.8 627.2,308 633.5,285.9 633.5,258.2 616.2,260.3 "></polygon><polygon id="spoly_233" data-role="section" data-sectionid="233" data-angle="11.9" points="615.1,257.5 649.5,252.1 644.7,221.6 610.4,227.3 615.1,257.5 "></polygon><polygon id="spoly_234" data-role="section" data-sectionid="234" data-angle="7.6" points="644.6,220 639.9,191.4 605.7,197.1 610.3,225.7 644.6,220 "></polygon><polygon id="spoly_235" data-role="section" data-sectionid="235" data-angle="7.2" points="639.7,189.8 635,160.3 600.8,166 605.6,195.5 639.7,189.8 "></polygon><polygon id="spoly_236" data-role="section" data-sectionid="236" data-angle="7.3" points="634.8,158.7 629.3,124.6 595.3,130.3 600.7,164.4 634.8,158.7 "></polygon><polygon id="spoly_237" data-role="section" data-sectionid="237" data-angle="6.2" points="602.6,111.9 592.2,113.4 595.1,128.7 605.3,126.9 602.6,111.9 "></polygon><polygon id="spoly_238" data-role="section" data-sectionid="238" data-angle="163.7" points="580.7,92.4 584.4,86.5 564.6,75.6 561.4,81.7 580.7,92.4 "></polygon><polygon id="spoly_239" data-role="section" data-sectionid="239" data-angle="142.9" points="563.1,74.5 540.7,61.7 537.1,67.5 559.9,80.5 563.1,74.5 "></polygon><polygon id="spoly_240" data-role="section" data-sectionid="240" data-angle="90" points="431.2,37.2 466.8,37.2 466.8,20.1 431.2,20.1 431.2,37.2 "></polygon><polygon id="spoly_241" data-role="section" data-sectionid="241" data-angle="90" points="389.8,37.2 425.3,37.2 425.3,20.1 389.8,20.1 389.8,37.2 "></polygon><polygon id="spoly_242" data-role="section" data-sectionid="242" data-angle="90" points="348.8,37.2 383.9,37.2 383.9,20.1 348.8,20.1 348.8,37.2 "></polygon><polygon id="spoly_243" data-role="section" data-sectionid="243" data-angle="90" points="307.4,37.2 342.9,37.2 342.9,20.1 307.4,20.1 307.4,37.2 "></polygon><polygon id="spoly_244" data-role="section" data-sectionid="244" data-angle="90" points="265.9,20.1 265.9,37.2 301.5,37.2 301.5,20.1 265.9,20.1 "></polygon><polygon id="spoly_301" data-role="section" data-sectionid="301" data-angle="175.4" points="129.8,111.9 124.6,130.9 152.8,138.4 156.1,125.8 129.8,111.9 "></polygon><polygon id="spoly_302" data-role="section" data-sectionid="302" data-angle="172.7" points="124.2,132.2 118.2,154.1 147,161.4 152.5,139.8 124.2,132.2 "></polygon><polygon id="spoly_303" data-role="section" data-sectionid="303" data-angle="172.6" points="117.8,155.4 110.1,183.5 139.5,191 146.6,162.8 117.8,155.4 "></polygon><polygon id="spoly_304" data-role="section" data-sectionid="304" data-angle="174" points="109.7,184.8 102.1,212.5 102.3,213.6 133.3,215.5 133.2,215.2 139.1,192.2 109.7,184.8 "></polygon><polygon id="spoly_305" data-role="section" data-sectionid="305" data-angle="185.2" points="102.5,215 107,249.5 137.5,245.5 133.5,217 102.5,215 "></polygon><polygon id="spoly_306" data-role="section" data-sectionid="306" data-angle="185.2" points="107.2,250.8 110.2,273.8 140.9,269.9 137.6,246.9 107.2,250.8 "></polygon><polygon id="spoly_307" data-role="section" data-sectionid="307" data-angle="184.6" points="110.4,275.2 113.6,299.4 144.4,295.4 141.1,271.2 110.4,275.2 "></polygon><polygon id="spoly_308" data-role="section" data-sectionid="308" data-angle="184" points="113.8,300.7 117,324.9 148,320.9 144.6,296.7 113.8,300.7 "></polygon><polygon id="spoly_309" data-role="section" data-sectionid="309" data-angle="183.1" points="117.2,326.3 120.4,351.1 151.6,347.1 148.1,322.3 117.2,326.3 "></polygon><polygon id="spoly_310" data-role="section" data-sectionid="310" data-angle="182.2" points="120.6,352.5 124.2,379.5 155.5,373.3 151.8,348.5 120.6,352.5 "></polygon><polygon id="spoly_311" data-role="section" data-sectionid="311" data-angle="190.6" points="124.7,380.8 143.9,412.7 171.5,401.5 155.9,374.6 124.7,380.8 "></polygon><polygon id="spoly_312" data-role="section" data-sectionid="312" data-angle="352.5" points="144.6,413.9 164.2,446.4 189,430.9 172.2,402.7 144.6,413.9 "></polygon><polygon id="spoly_313" data-role="section" data-sectionid="313" data-angle="336.2" points="164.9,447.6 174.7,463.8 199.6,476.8 211.8,453.8 198,446.1 189.6,432.1 164.9,447.6 "></polygon><polygon id="spoly_314" data-role="section" data-sectionid="314" data-angle="301.3" points="200.9,477.5 239.4,497.6 251.5,475.9 213,454.4 200.9,477.5 "></polygon><polygon id="spoly_315" data-role="section" data-sectionid="315" data-angle="306.9" points="248.7,483.8 264.1,492.1 268.2,485.3 252.7,476.7 248.7,483.8 "></polygon><polygon id="spoly_316" data-role="section" data-sectionid="316" data-angle="318.9" points="432.1,472 399,482.6 403.8,496.3 417.5,498.9 441.2,493.1 432.1,472 "></polygon><polygon id="spoly_317" data-role="section" data-sectionid="317" data-angle="217.3" points="467.6,460.9 433.4,471.6 442.5,492.7 476.8,481.9 467.6,460.9 "></polygon><polygon id="spoly_318" data-role="section" data-sectionid="318" data-angle="242" points="496.4,451.8 468.9,460.4 478.1,481.5 505.5,472.8 496.4,451.8 "></polygon><polygon id="spoly_319" data-role="section" data-sectionid="319" data-angle="246.2" points="524.2,443.1 497.7,451.3 506.9,472.4 533.3,464.1 524.2,443.1 "></polygon><polygon id="spoly_320" data-role="section" data-sectionid="320" data-angle="231.4" points="549.1,427.5 528.3,441.7 525.5,442.6 534.7,463.7 540.7,461.8 562.5,450.5 549.1,427.5 "></polygon><polygon id="spoly_321" data-role="section" data-sectionid="321" data-angle="218" points="554.4,423.7 554.5,423.8 550.2,426.7 563.7,449.9 566.5,448.5 565.7,419.2 563,416.5 554.4,423.7 "></polygon><polygon id="spoly_322" data-role="section" data-sectionid="322" data-angle="337.8" points="595.1,388.4 593.7,391.6 585.2,398.5 587.3,401.6 615.6,408.2 616.6,407.4 595.1,388.4 "></polygon><polygon id="spoly_323" data-role="section" data-sectionid="323" data-angle="341.9" points="606.3,364.4 595.8,387.1 617.6,406.5 625.7,399.1 634.6,377.4 606.3,364.4 "></polygon><polygon id="spoly_324" data-role="section" data-sectionid="324" data-angle="338.6" points="620.6,332.1 610,356.6 606.9,363.1 635,376.1 647.9,344.6 620.6,332.1 "></polygon><polygon id="spoly_325" data-role="section" data-sectionid="325" data-angle="336.9" points="632.4,304.5 631.4,307.4 621.2,330.8 648.3,343.3 659.2,316.8 632.4,304.5 "></polygon><polygon id="spoly_326" data-role="section" data-sectionid="326" data-angle="343.8" points="670.8,288.1 638.3,288.1 632.9,303.1 659.7,315.5 670.8,288.1 "></polygon><polygon id="spoly_sb_1" data-role="section" data-sectionid="sb_1" data-angle="42.2" points="230.5,71.3 240.5,59.7 226.7,47.3 216.5,58.8 230.5,71.3 "></polygon><polygon id="spoly_sb_2" data-role="section" data-sectionid="sb_2" data-angle="39.1" points="209.3,95.8 229.6,72.4 215.5,59.8 194.8,83 209.3,95.8 "></polygon><polygon id="spoly_sb_3" data-role="section" data-sectionid="sb_3" data-angle="31.8" points="187.4,121.1 208.4,96.9 193.9,84.1 172.5,107.9 187.4,121.1 "></polygon><polygon id="spoly_sb_4" data-role="section" data-sectionid="sb_4" data-angle="18.4" points="161.4,120.4 176.8,133.4 186.5,122.1 171.6,108.9 161.4,120.4 "></polygon><polygon id="spoly_third_base_lounge_table" data-role="section" data-sectionid="third_base_lounge_table" data-angle="257.9" points="258.5,254.7 254.3,228.4 267.5,195.8 264.7,185.5 248.1,228.4 252.2,255.4 258.5,254.7 "></polygon><polygon id="spoly_first_base_lounge_table" data-role="section" data-sectionid="first_base_lounge_table" data-angle="174.8" points="427.2,348.6 475.3,332.8 492.8,315.3 501.7,311.3 499.8,318.1 477.5,338.6 428.7,354 427.2,348.6 "></polygon><polygon id="spoly_texas_terrace_1" data-role="section" data-sectionid="texas_terrace_1" data-angle="168.6" points="454.8,432.5 456.6,437.6 485.1,428.4 483.3,423.4 454.8,432.5 "></polygon><polygon id="spoly_texas_terrace_2" data-role="section" data-sectionid="texas_terrace_2" data-angle="165.8" points="486,428.4 512.2,419.7 510.4,414.6 484.2,423.4 486,428.4 "></polygon><polygon id="spoly_Home_Plate_Suite_1" data-role="section" data-sectionid="Home_Plate_Suite_1" data-angle="263.2" points="263.9,326.7 265.1,334.5 271.4,333.2 270.4,325.6 263.9,326.7 "></polygon><polygon id="spoly_Home_Plate_Suite_2" data-role="section" data-sectionid="Home_Plate_Suite_2" data-angle="255.1" points="265.1,334.9 266.1,341 266.5,341.8 272.3,339.1 272.1,338.7 271.5,333.6 265.1,334.9 "></polygon><polygon id="spoly_Home_Plate_Suite_3" data-role="section" data-sectionid="Home_Plate_Suite_3" data-angle="225.1" points="266.7,342.1 270.5,349.6 276.7,345.6 272.5,339.4 266.7,342.1 "></polygon><polygon id="spoly_Home_Plate_Suite_4" data-role="section" data-sectionid="Home_Plate_Suite_4" data-angle="219.7" points="270.7,350 274.7,357.8 281.3,352.6 276.9,346 270.7,350 "></polygon><polygon id="spoly_Home_Plate_Suite_5" data-role="section" data-sectionid="Home_Plate_Suite_5" data-angle="212.3" points="274.9,358.2 277,362.3 280.6,364.6 286.5,358.6 284.1,356.8 281.6,353 274.9,358.2 "></polygon><polygon id="spoly_Home_Plate_Suite_6" data-role="section" data-sectionid="Home_Plate_Suite_6" data-angle="195" points="281,364.9 287.6,369.2 292.5,363 286.9,358.9 281,364.9 "></polygon><polygon id="spoly_Home_Plate_Suite_7" data-role="section" data-sectionid="Home_Plate_Suite_7" data-angle="183.5" points="288,369.5 295,374.1 299.2,368 292.8,363.3 288,369.5 "></polygon><polygon id="spoly_Home_Plate_Suite_8" data-role="section" data-sectionid="Home_Plate_Suite_8" data-angle="355.8" points="295.4,374.3 302.8,379.1 306,373.1 299.5,368.3 295.4,374.3 "></polygon><polygon id="spoly_Home_Plate_Suite_9" data-role="section" data-sectionid="Home_Plate_Suite_9" data-angle="354.5" points="303.1,379.4 307.2,382 311.9,382 311.9,374.4 307.7,374.4 306.4,373.4 303.1,379.4 "></polygon><polygon id="spoly_Home_Plate_Suite_10" data-role="section" data-sectionid="Home_Plate_Suite_10" data-angle="360" points="312.3,382 320.1,382 320.1,374.4 312.3,374.4 312.3,382 "></polygon><polygon id="spoly_Home_Plate_Suite_11" data-role="section" data-sectionid="Home_Plate_Suite_11" data-angle="360" points="320.5,382 328.3,382 328.3,374.4 320.5,374.4 320.5,382 "></polygon><polygon id="spoly_Home_Plate_Suite_12" data-role="section" data-sectionid="Home_Plate_Suite_12" data-angle="360" points="328.7,382 337.6,382 337.6,374.4 328.7,374.4 328.7,382 "></polygon><polygon id="spoly_Home_Plate_Suite_13" data-role="section" data-sectionid="Home_Plate_Suite_13" data-angle="360" points="338.1,382 339.5,382 348.4,379.4 346.5,372.2 339.5,374.4 338.1,374.4 338.1,382 "></polygon><polygon id="spoly_Home_Plate_Suite_14" data-role="section" data-sectionid="Home_Plate_Suite_14" data-angle="14.2" points="348.8,379.2 359.8,376 357.5,368.9 347,372.1 348.8,379.2 "></polygon><polygon id="spoly_standing_room_only" data-role="section" data-sectionid="standing_room_only" data-angle="205.7" points="480,42.8 514.5,60 520.2,48.5 487,31.3 "></polygon><polygon class="is-d epoly_hall_of_fame_suites" data-role="dynamic" points="592.8,259.7 612,256.7 589.4,114 570.1,117 592.8,259.7 " style="fill:#F4F4F4; stroke:#BEBEBE; stroke-width:1; fill-opacity:1.0;"></polygon><polygon class="is-d epoly_100_level_suites" data-role="dynamic" points="220.4,166.2 220.3,166.4 203.3,227.1 203.6,227.2 224,359.9 223.8,360 224.1,360.6 224.2,361 224.4,361 247.4,400.3 248.1,400.4 301.9,427.8 302.7,427.8 344.2,427.8 345.5,427.8 499.7,380.1 534.4,349.4 534.8,349.6 553.9,307.7 550.1,306.1 549.3,307.9 531.9,346.1 531.9,346 530.4,347.4 498.5,376.1 496.5,376.8 346.4,423.9 346.4,423.7 344.2,423.7 302.7,423.7 301.2,423.7 250.1,396.8 249.9,396.4 228.1,359.2 228,358.4 207.7,226.8 207.9,226.2 224.1,168.1 224.8,167.3 244.8,142.1 241.6,139.5 220.4,166.2 " style="fill:#F4F4F4; stroke:#BEBEBE; stroke-width:1; fill-opacity:1.0;"></polygon><polygon class="is-d epoly_bench_visitor" data-role="dynamic" points="247.4,257.5 258.5,256.2 269.5,324 258.5,326.1 247.4,257.5 " style="fill:#DDD; stroke:#DDD; stroke-width:0; fill-opacity:1.0;"></polygon><polygon class="is-d epoly_party_suites" data-role="dynamic" points="571.9,370.4 587.1,343.5 612,283.2 606.5,283.2 581.6,343.5 566.4,370.4 571.9,370.4 " style="fill:#F4F4F4; stroke:#BEBEBE; stroke-width:1; fill-opacity:1.0;"></polygon><polygon class="is-d epoly_bench_home" data-role="dynamic" points="428.9,359.7 425.6,349 359.2,370.6 362.9,380 428.9,359.7 " style="fill:#000; stroke:#000; stroke-width:0; fill-opacity:1.0;"></polygon><polygon class="is-d epoly_200_level_suites_dynamic" data-role="dynamic" points="352.5,464.2 290.4,465.1 220.5,426.6 220.5,426.6 186.8,369.3 165.2,221.2 183.5,149.3 179.5,148.2 160.6,221.1 182.7,371.4 217,429.3 289,469.4 352.4,468 449.6,438.3 448.1,434.6 " style="fill:#F4F4F4; stroke:#BEBEBE; stroke-width:1; fill-opacity:1.0;"></polygon><polygon class="is-d epoly_lf_bullpens" data-role="dynamic" points="386.7,65 443.9,65 443.9,74.8 386.7,74.8 " style="fill:#F4F4F4; stroke:#BEBEBE; stroke-width:1; fill-opacity:1.0;"></polygon><polygon class="is-d epoly_rf_bullpens_text" data-role="dynamic" points="551.7,148.1 " style="fill:#; stroke:#; stroke-width:0; fill-opacity:0.0;"></polygon></g><circle id="mctrmrk" cx="311.2" cy="347" r="1" stroke-width="0" stroke="#FFF" opacity="0"></circle><g id="svgsectionnames" style="opacity:1; font-size:5.766666666666667px;"><text data-sectionid="1" data-role="section" x="244.1" y="161.6">1</text><text data-sectionid="2" data-role="section" x="236" y="187">2</text><text data-sectionid="3" data-role="section" x="232" y="206.8">3</text><text data-sectionid="4" data-role="section" x="230.9" y="222.1">4</text><text data-sectionid="5" data-role="section" x="230.5" y="240.8">5</text><text data-sectionid="6" data-role="section" x="232.8" y="259.5">6</text><text data-sectionid="7" data-role="section" x="234.2" y="279.5">7</text><text data-sectionid="8" data-role="section" x="237.9" y="303.2">8</text><text data-sectionid="9" data-role="section" x="244.3" y="325.7">9</text><text data-sectionid="10" data-role="section" x="246.7" y="345.5">10</text><text data-sectionid="11" data-role="section" x="251.9" y="361.2">11</text><text data-sectionid="12" data-role="section" x="261.4" y="373.6">12</text><text data-sectionid="13" data-role="section" x="272.7" y="388.4">13</text><text data-sectionid="14" data-role="section" x="293" y="399.8">14</text><text data-sectionid="15" data-role="section" x="314.7" y="403.2">15</text><text data-sectionid="16" data-role="section" x="335.4" y="403.4">16</text><text data-sectionid="17" data-role="section" x="354" y="401.1">17</text><text data-sectionid="18" data-role="section" x="371.8" y="397.3">18</text><text data-sectionid="19" data-role="section" x="394.9" y="390.4">19</text><text data-sectionid="20" data-role="section" x="417.6" y="383.1">20</text><text data-sectionid="21" data-role="section" x="439.4" y="376.7">21</text><text data-sectionid="22" data-role="section" x="473.1" y="374">22</text><text data-sectionid="23" data-role="section" x="501.1" y="360.7">23</text><text data-sectionid="24" data-role="section" x="515.7" y="346">24</text><text data-sectionid="25" data-role="section" x="514.5" y="326.4">25</text><text data-sectionid="26" data-role="section" x="537.3" y="315.2">26</text><text data-sectionid="27" data-role="section" x="431.7" y="60.9">27</text><text data-sectionid="28" data-role="section" x="400.7" y="60.9">28</text><text data-sectionid="29" data-role="section" x="369.8" y="65.7">29</text><text data-sectionid="30" data-role="section" x="329.2" y="65.7">30</text><text data-sectionid="31" data-role="section" x="292" y="65.7">31</text><text data-sectionid="32" data-role="section" x="275.7" y="71.5" transform="rotate(317.532 275.7 71.5)">32</text><text data-sectionid="33" data-role="section" x="257.7" y="92.9" transform="rotate(317.532 257.7 92.9)">33</text><text data-sectionid="101" data-role="section" x="226.1" y="114.6">101</text><text data-sectionid="102" data-role="section" x="209.8" y="142.5">102</text><text data-sectionid="103" data-role="section" x="198.4" y="165.4">103</text><text data-sectionid="104" data-role="section" x="192.8" y="190.5">104</text><text data-sectionid="105" data-role="section" x="186.6" y="212.4">105</text><text data-sectionid="106" data-role="section" x="186.1" y="241.4">106</text><text data-sectionid="107" data-role="section" x="190.7" y="269.4">107</text><text data-sectionid="108" data-role="section" x="194.8" y="295.8">108</text><text data-sectionid="109" data-role="section" x="198.9" y="322.6">109</text><text data-sectionid="110" data-role="section" x="202.7" y="350.9">110</text><text data-sectionid="111" data-role="section" x="209.9" y="374.9">111</text><text data-sectionid="112" data-role="section" x="223.6" y="399.6">112</text><text data-sectionid="113" data-role="section" x="237.7" y="417.5">113</text><text data-sectionid="114" data-role="section" x="258" y="427.6">114</text><text data-sectionid="115" data-role="section" x="281.2" y="441.3">115</text><text data-sectionid="116" data-role="section" x="307.1" y="448.8">116</text><text data-sectionid="117" data-role="section" x="338" y="447.8">117</text><text data-sectionid="118" data-role="section" x="364" y="443.8">118</text><text data-sectionid="119" data-role="section" x="385.6" y="436.8">119</text><text data-sectionid="120" data-role="section" x="407.4" y="430.1">120</text><text data-sectionid="121" data-role="section" x="430.5" y="423">121</text><text data-sectionid="122" data-role="section" x="459.7" y="414">122</text><text data-sectionid="123" data-role="section" x="495.1" y="403.3">123</text><text data-sectionid="124" data-role="section" x="521.6" y="389.9">124</text><text data-sectionid="125" data-role="section" x="541.3" y="371.5">125</text><text data-sectionid="126" data-role="section" x="558.5" y="352.5">126</text><text data-sectionid="127" data-role="section" x="574.5" y="319.5">127</text><text data-sectionid="128" data-role="section" x="570.7" y="281.5">128</text><text data-sectionid="129" data-role="section" x="573.9" y="255.6">129</text><text data-sectionid="130" data-role="section" x="569.8" y="230.3">130</text><text data-sectionid="131" data-role="section" x="564.5" y="200.8">131</text><text data-sectionid="132" data-role="section" x="568.5" y="168.1">132</text><text data-sectionid="133" data-role="section" x="563.6" y="135.7">133</text><text data-sectionid="134" data-role="section" x="533.7" y="98.9" transform="rotate(26.2905 533.7 98.9)">134</text><text data-sectionid="135" data-role="section" x="493" y="75.5" transform="rotate(26.2905 493 75.5)">135</text><text data-sectionid="136" data-role="section" x="433.7" y="48.5">136</text><text data-sectionid="137" data-role="section" x="400.7" y="48.5">137</text><text data-sectionid="138" data-role="section" x="369.8" y="48.5">138</text><text data-sectionid="139" data-role="section" x="329.2" y="48.5">139</text><text data-sectionid="140" data-role="section" x="287" y="48.5">140</text><text data-sectionid="141" data-role="section" x="265" y="61.2" transform="rotate(317.532 265 61.2)">141</text><text data-sectionid="142" data-role="section" x="250.3" y="78.3" transform="rotate(317.532 250.3 78.3)">142</text><text data-sectionid="201" data-role="section" x="211.7" y="46.1">201</text><text data-sectionid="202" data-role="section" x="195.5" y="64.6">202</text><text data-sectionid="203" data-role="section" x="173.7" y="89.3">203</text><text data-sectionid="204" data-role="section" x="156.9" y="108.2">204</text><text data-sectionid="205" data-role="section" x="167.1" y="141.7">205</text><text data-sectionid="206" data-role="section" x="163.4" y="156.7">206</text><text data-sectionid="207" data-role="section" x="157.1" y="181.7">207</text><text data-sectionid="208" data-role="section" x="150.1" y="215.1">208</text><text data-sectionid="209" data-role="section" x="151.4" y="250.7">209</text><text data-sectionid="210" data-role="section" x="155.8" y="280.8">210</text><text data-sectionid="211" data-role="section" x="159.8" y="307.8">211</text><text data-sectionid="212" data-role="section" x="163.8" y="335.4">212</text><text data-sectionid="213" data-role="section" x="169" y="367.3">213</text><text data-sectionid="214" data-role="section" x="181.9" y="397.2">214</text><text data-sectionid="215" data-role="section" x="198" y="427.4">215</text><text data-sectionid="216" data-role="section" x="221" y="448.6">216</text><text data-sectionid="217" data-role="section" x="246.7" y="462.5">217</text><text data-sectionid="218" data-role="section" x="270.8" y="476.8">218</text><text data-sectionid="219" data-role="section" x="297.3" y="484.4">219</text><text data-sectionid="220" data-role="section" x="322.9" y="484.2">220</text><text data-sectionid="221" data-role="section" x="347.1" y="483.7">221</text><text data-sectionid="222" data-role="section" x="374.8" y="478.2">222</text><text data-sectionid="223" data-role="section" x="409.1" y="467.2">223</text><text data-sectionid="224" data-role="section" x="443" y="456.7">224</text><text data-sectionid="225" data-role="section" x="473.9" y="447">225</text><text data-sectionid="226" data-role="section" x="503.9" y="437.5">226</text><text data-sectionid="227" data-role="section" x="537.9" y="422.2">227</text><text data-sectionid="228" data-role="section" x="567.5" y="400.3">228</text><text data-sectionid="229" data-role="section" x="589.8" y="374">229</text><text data-sectionid="230" data-role="section" x="602.8" y="343.6">230</text><text data-sectionid="231" data-role="section" x="613.3" y="319.8">231</text><text data-sectionid="232" data-role="section" x="624.1" y="285.2">232</text><text data-sectionid="233" data-role="section" x="629.9" y="241.6">233</text><text data-sectionid="234" data-role="section" x="625.1" y="210.6">234</text><text data-sectionid="235" data-role="section" x="620.3" y="179.9">235</text><text data-sectionid="236" data-role="section" x="615.1" y="146.5">236</text><text data-sectionid="237" data-role="section" x="598.8" y="122.3">237</text><text data-sectionid="238" data-role="section" x="572.9" y="86" transform="rotate(37.0717 572.9 86)">238</text><text data-sectionid="239" data-role="section" x="550.1" y="73.1" transform="rotate(37.0717 550.1 73.1)">239</text><text data-sectionid="240" data-role="section" x="449" y="30.7">240</text><text data-sectionid="241" data-role="section" x="407.6" y="30.7">241</text><text data-sectionid="242" data-role="section" x="366.3" y="30.7">242</text><text data-sectionid="243" data-role="section" x="325.1" y="30.7">243</text><text data-sectionid="244" data-role="section" x="283.7" y="30.7">244</text><text data-sectionid="301" data-role="section" x="139.4" y="128.7">301</text><text data-sectionid="302" data-role="section" x="135.4" y="148.8">302</text><text data-sectionid="303" data-role="section" x="128.4" y="175.2">303</text><text data-sectionid="304" data-role="section" x="120.6" y="202.2">304</text><text data-sectionid="305" data-role="section" x="120" y="234.2">305</text><text data-sectionid="306" data-role="section" x="124" y="262.3">306</text><text data-sectionid="307" data-role="section" x="127.4" y="287.3">307</text><text data-sectionid="308" data-role="section" x="130.9" y="312.8">308</text><text data-sectionid="309" data-role="section" x="134.4" y="338.7">309</text><text data-sectionid="310" data-role="section" x="138" y="366">310</text><text data-sectionid="311" data-role="section" x="148.1" y="395.7">311</text><text data-sectionid="312" data-role="section" x="166.8" y="426.6">312</text><text data-sectionid="313" data-role="section" x="188.4" y="456.4">313</text><text data-sectionid="314" data-role="section" x="226.2" y="478">314</text><text data-sectionid="315" data-role="section" x="258.4" y="486.4">315</text><text data-sectionid="316" data-role="section" x="420.1" y="487.5">316</text><text data-sectionid="317" data-role="section" x="455.1" y="478.8">317</text><text data-sectionid="318" data-role="section" x="487.2" y="468.7">318</text><text data-sectionid="319" data-role="section" x="515.5" y="459.7">319</text><text data-sectionid="320" data-role="section" x="544" y="447.6">320</text><text data-sectionid="321" data-role="section" x="560.9" y="431.2">321</text><text data-sectionid="322" data-role="section" x="598.3" y="399.2">322</text><text data-sectionid="323" data-role="section" x="615.2" y="387.5">323</text><text data-sectionid="324" data-role="section" x="627.4" y="356.1">324</text><text data-sectionid="325" data-role="section" x="640.2" y="325.9">325</text><text data-sectionid="326" data-role="section" x="651.9" y="303.8">326</text><text data-sectionid="sb_1" data-role="section" x="228.5" y="61.3">SB1</text><text data-sectionid="sb_2" data-role="section" x="212.2" y="79.8">SB2</text><text data-sectionid="sb_3" data-role="section" x="190.5" y="104.6">SB3</text><text data-sectionid="sb_4" data-role="section" x="173.9" y="123.1">SB4</text><text data-sectionid="third_base_lounge_table" data-role="section" x="256.5" y="215" transform="rotate(289.812 256.5 215)">3B Table</text><text data-sectionid="first_base_lounge_table" data-role="section" x="455.5" y="342.2" transform="rotate(340.2 455.5 342.2)">1B Table</text><text data-sectionid="texas_terrace_1" data-role="section" x="469.9" y="431.4" transform="rotate(341.641 469.9 431.4)">Terrace 1</text><text data-sectionid="texas_terrace_2" data-role="section" x="498.2" y="422.4" transform="rotate(341.641 498.2 422.4)">Terrace 2</text><text data-sectionid="Home_Plate_Suite_1" data-role="section" x="267.6" y="332">1</text><text data-sectionid="Home_Plate_Suite_2" data-role="section" x="268.7" y="339.7">2</text><text data-sectionid="Home_Plate_Suite_3" data-role="section" x="271.7" y="346.5">3</text><text data-sectionid="Home_Plate_Suite_4" data-role="section" x="276" y="353.9">4</text><text data-sectionid="Home_Plate_Suite_5" data-role="section" x="280.7" y="360.8">5</text><text data-sectionid="Home_Plate_Suite_6" data-role="section" x="286.7" y="366">6</text><text data-sectionid="Home_Plate_Suite_7" data-role="section" x="293.6" y="370.7">7</text><text data-sectionid="Home_Plate_Suite_8" data-role="section" x="300.7" y="375.7">8</text><text data-sectionid="Home_Plate_Suite_9" data-role="section" x="307.5" y="379.7">9</text><text data-sectionid="Home_Plate_Suite_10" data-role="section" x="316.2" y="380.2">10</text><text data-sectionid="Home_Plate_Suite_11" data-role="section" x="324.4" y="380.2">11</text><text data-sectionid="Home_Plate_Suite_12" data-role="section" x="333.2" y="380.2">12</text><text data-sectionid="Home_Plate_Suite_13" data-role="section" x="343.2" y="379.1">13</text><text data-sectionid="Home_Plate_Suite_14" data-role="section" x="353.4" y="376.1">14</text><text data-sectionid="standing_room_only" data-role="section" x="500.1" y="47.6" transform="rotate(386.573 500.1 47.6)">SRO</text><text class="is-d " text-anchor="middle" x="591.7" y="190.7" style="fill:#999; font-size:5.9px; " dominant-baseline="central" data-offset="0|0.3" transform="rotate(81 591.7 190.7)">HALL OF FAME SUITES</text><text class="is-d " text-anchor="middle" x="247.1" y="444.5" style="fill:#999; font-size:5.9px; " dominant-baseline="central" data-offset="0|0.3" transform="rotate(30 247.1 444.5)">SUITES</text><text class="is-d dyn-name-bench bench_visitor rotated" text-anchor="middle" x="258.5" y="294.2" style="fill:#666; font-size:5.9px; " dominant-baseline="central" data-offset="0|0.3" transform="rotate(82 258.5 294.2)">VISITOR</text><text class="is-d " text-anchor="middle" x="593" y="323.8" style="fill:#999; font-size:5.9px; " dominant-baseline="central" data-offset="0|0.3" transform="rotate(294 593 323.8)">PARTY SUITES</text><text class="is-d dyn-name-bench bench_home rotated" text-anchor="middle" x="394.1" y="366.5" style="fill:#FFF; font-size:5.9px; " dominant-baseline="central" data-offset="0|0.3" transform="rotate(342 394.1 366.5)">HOME</text><text class="is-d " text-anchor="middle" x="274.1" y="411.8" style="fill:#999; font-size:5.9px; " dominant-baseline="central" data-offset="0|0.3" transform="rotate(28 274.1 411.8)">SUITES</text><text class="is-d " text-anchor="middle" x="415.3" y="71.9" style="fill:#999; font-size:5.9px; " dominant-baseline="central" data-offset="0|0.3" null="">BULLPEN</text><text class="is-d " text-anchor="middle" x="551.7" y="149.1" style="fill:#999; font-size:5.9px; " dominant-baseline="central" data-offset="0|0.3" transform="rotate(80 551.7 149.1)">BULLPEN</text></g></g><circle id="svgZoomCenter" r="1" stroke-width="0" fill-opacity="0" cx="335.4" cy="259.5"></circle><circle id="svgNorthWest" r="1" stroke-width="0" fill-opacity="0" cx="0" cy="0"></circle><circle id="svgSouthEast" r="1" stroke-width="0" fill-opacity="0" cx="794" cy="519"></circle><g id="svgmarkers" style="font-size: 10.3px;"><circle id="svg-marker-hover" data-ticket="" style="display: none;"></circle></g>undefined</g><circle id="svgZoomCenterLoad" r="1" stroke-width="0" fill-opacity="0" cx="397" cy="259.5"></circle></g></g></svg>