<svg xmlns="http://www.w3.org/2000/svg" xmlns:xlink="http://www.w3.org/1999/xlink" id="svgmap" width="100%" height="100%" style="touch-action: none;" viewBox="115.5 -8.1 565.4 538.9"><style>
polygon[id^="spoly_"] { fill: #d0d8e4; stroke: #7a8fa6; stroke-width: 2; }
polygon[id^="spoly_"]:hover { fill: #5b8ccc; cursor: pointer; }
.svgText { font-family: Arial, sans-serif; fill: #333; font-size: 9px; }
</style>
         <g id="svgdefs"><defs id="svgdefstyle">
      <linearGradient id="ticketGradient" x1="0%" y1="0%" x2="100%" y2="0%"><stop offset="0%" stop-color="#840ac9"></stop><stop offset="30%" stop-color="#d60eb2"></stop><stop offset="50%" stop-color="#fa0b81"></stop><stop offset="100%" stop-color="#fa0b81"></stop></linearGradient>
      <radialGradient id="markerGradient" cx="50%" cy="50%" r="50%"><stop offset="0%" stop-color="#fa0b81"></stop><stop offset="95%" stop-color="#d60eb2"></stop><stop offset="100%" stop-color="#840ac9"></stop></radialGradient>
      <linearGradient id="flagGradient" x1="0%" y1="0%" x2="100%" y2="100%">
         <stop offset="0%" stop-color="#840ac9"></stop>
         <stop offset="40%" stop-color="#d60eb2"></stop>
         <stop offset="80%" stop-color="#fa0b81"></stop>
         <stop offset="100%" stop-color="#c40665"></stop> 
      </linearGradient>      
      <linearGradient id="svgmapticket" x1="0%" y1="0%" x2="0%" y2="100%"><stop offset="0%" style="stop-color:#5BADFF;stop-opacity:1"></stop><stop offset="100%" style="stop-color:#0066CC;stop-opacity:1"></stop></linearGradient><linearGradient id="svgdealticket" x1="0%" y1="0%" x2="0%" y2="100%"> <stop offset="0%" style="stop-color:#66FF00;stop-opacity:1"></stop><stop offset="100%" style="stop-color:#61C100;stop-opacity:1"></stop></linearGradient><linearGradient id="svggreatticket" x1="0%" y1="0%" x2="0%" y2="100%"><stop offset="0%" style="stop-color:#00CC33;stop-opacity:1"></stop><stop offset="100%" style="stop-color:#009100;stop-opacity:1"></stop></linearGradient><filter id="coinShadow" x="-40%" y="-40%" width="200%" height="200%">            <feGaussianBlur in="SourceAlpha" stdDeviation="3"></feGaussianBlur><feOffset dx="2" dy="2" result="offsetblur"></feOffset><feMerge><feMergeNode></feMergeNode><feMergeNode in="SourceGraphic"></feMergeNode></feMerge></filter></defs>  </g>
         <g class="testmask" mask="url(#fade)" style="scale: 0.95; transform-origin:center;">
         <g id="viewport" transform="matrix(1,0,0,1,0,0)" data-zoomfactor="100"><g id="scaleSVG" data-scale="1" transform="scale(1)" class="testrotate"><g id="svgelements"><image id="svgOverlay" class="nopointereventsmap" xlink:href="/assets/images/venues/overlays/us-cellular-field-mlb_3-2020.png" x="-69.4" y="-51.5" width="935.7px" height="664.5px"></image><g id="svgpolygroup"><polygon id="spoly_100" data-role="section" data-sectionid="100" data-angle="145.9" points="422.6,100.8 437.2,77.2 444.7,60.5 448.9,61.8 435.3,104.4 429.1,102.5 422.6,100.8 422.6,100.8 "></polygon><polygon id="spoly_101" data-role="section" data-sectionid="101" data-angle="132.5" points="451,62.6 458.5,65.7 468.5,70.4 450.7,110.9 444.4,107.9 437.4,105.1 451,62.6 451,62.6 "></polygon><polygon id="spoly_102" data-role="section" data-sectionid="102" data-angle="125" points="470.5,71.5 480,77 490.3,83.8 466.3,120 460,116 452.8,111.9 470.5,71.5 470.5,71.5 "></polygon><polygon id="spoly_103" data-role="section" data-sectionid="103" data-angle="129.8" points="492.2,85.2 500.8,91.8 509.8,99.7 480.8,132 476.9,128.3 473.1,125.1 468.2,121.3 492.2,85.2 492.2,85.2 "></polygon><polygon id="spoly_104" data-role="section" data-sectionid="104" data-angle="134.5" points="511.4,101.2 490.2,125.1 498.8,134.2 521.6,111.4 511.4,101.2 511.4,101.2 "></polygon><polygon id="spoly_105" data-role="section" data-sectionid="105" data-angle="144.5" points="523.2,113 500.6,135.8 518.2,154 541.8,132.2 523.2,113 523.2,113 "></polygon><polygon id="spoly_108" data-role="section" data-sectionid="108" data-angle="26.6" points="573.3,166.3 548.1,186.2 548.1,194.2 581.4,180.2 579.4,176.1 577.4,172.4 573.3,166.3 573.3,166.3 "></polygon><polygon id="spoly_109" data-role="section" data-sectionid="109" data-angle="13.7" points="582.3,182.3 584,187.4 585.5,192.7 586.5,198.4 586.8,204.3 586.8,206.5 536.1,206.5 542.1,199.2 582.3,182.3 582.3,182.3 "></polygon><polygon id="spoly_110" data-role="section" data-sectionid="110" data-angle="295.3" points="586.5,208.8 585.6,213.8 584.4,219 582.7,224.5 581,230 529.6,214.3 534.1,208.8 586.5,208.8 586.5,208.8 "></polygon><polygon id="spoly_111" data-role="section" data-sectionid="111" data-angle="223" points="580.1,232.2 576.5,241.3 523.9,222.5 526.1,218.3 527.8,216.3 580.1,232.2 580.1,232.2 "></polygon><polygon id="spoly_112" data-role="section" data-sectionid="112" data-angle="210.6" points="575.5,243.3 570.6,254 519.5,230.6 522.8,224.5 575.5,243.3 575.5,243.3 "></polygon><polygon id="spoly_113" data-role="section" data-sectionid="113" data-angle="201.8" points="569.6,256 568.1,258.9 565,265 514.7,239 518.3,232.6 569.6,256 569.6,256 "></polygon><polygon id="spoly_114" data-role="section" data-sectionid="114" data-angle="194.3" points="563.8,267 558.9,275.5 509.6,247.5 513.5,241 563.8,267 563.8,267 "></polygon><polygon id="spoly_115" data-role="section" data-sectionid="115" data-angle="193.3" points="557.7,277.5 551.8,287.5 504.6,255.7 508.5,249.5 557.7,277.5 557.7,277.5 "></polygon><polygon id="spoly_116" data-role="section" data-sectionid="116" data-angle="201.6" points="550.7,289.4 545.5,297.8 498,265.8 503.3,257.6 550.7,289.4 550.7,289.4 "></polygon><polygon id="spoly_117" data-role="section" data-sectionid="117" data-angle="205.8" points="544.3,299.8 539,308 492,274.6 496.7,267.7 544.3,299.8 544.3,299.8 "></polygon><polygon id="spoly_118" data-role="section" data-sectionid="118" data-angle="211.2" points="537.8,310 531.9,319 485.8,283.2 490.6,276.5 537.8,310 537.8,310 "></polygon><polygon id="spoly_119" data-role="section" data-sectionid="119" data-angle="215.3" points="530.6,320.9 525.5,328.2 479.3,292.4 479.3,292.3 484.4,285 530.6,320.9 530.6,320.9 "></polygon><polygon id="spoly_120" data-role="section" data-sectionid="120" data-angle="216.5" points="524.2,330.1 518.9,337.8 474.8,301.8 478.3,294.6 524.2,330.1 524.2,330.1 "></polygon><polygon id="spoly_121" data-role="section" data-sectionid="121" data-angle="217" points="517.4,339.6 512.2,346.9 469.7,312.1 470.7,310.8 473.8,304 517.4,339.6 517.4,339.6 "></polygon><polygon id="spoly_122" data-role="section" data-sectionid="122" data-angle="218.1" points="510.8,348.7 505.6,355.7 469.5,326.2 474.8,319.4 510.8,348.7 510.8,348.7 "></polygon><polygon id="spoly_123" data-role="section" data-sectionid="123" data-angle="215.6" points="504.2,357.6 499.7,363.3 463.4,333.7 468.1,327.9 504.2,357.6 504.2,357.6 "></polygon><polygon id="spoly_124" data-role="section" data-sectionid="124" data-angle="214.7" points="498.2,365.1 492.8,371.8 456.7,342.1 462,335.5 498.2,365.1 498.2,365.1 "></polygon><polygon id="spoly_125" data-role="section" data-sectionid="125" data-angle="212.2" points="491.3,373.6 484.5,381.5 449.9,350.5 455.2,343.8 491.3,373.6 491.3,373.6 "></polygon><polygon id="spoly_126" data-role="section" data-sectionid="126" data-angle="209" points="483.1,383.3 474.6,392.8 442.8,359.4 448.4,352.4 483.1,383.3 483.1,383.3 "></polygon><polygon id="spoly_127" data-role="section" data-sectionid="127" data-angle="203.9" points="473,394.5 464.5,403.5 435.6,368.5 441.3,361.3 473,394.5 473,394.5 "></polygon><polygon id="spoly_128" data-role="section" data-sectionid="128" data-angle="218.1" points="462.9,405.1 457.8,410 452.6,414.2 424.5,369 427.2,365.9 428.6,363.9 462.9,405.1 462.9,405.1 "></polygon><polygon id="spoly_129" data-role="section" data-sectionid="129" data-angle="270.3" points="450.7,415.6 446.3,418.6 441.9,421.5 418,374.6 422.9,370.5 450.7,415.6 450.7,415.6 "></polygon><polygon id="spoly_130" data-role="section" data-sectionid="130" data-angle="342.1" points="439.9,422.7 434.7,425.3 429.5,427.6 418.5,397.6 421.4,396.4 425.5,394.4 439.9,422.7 439.9,422.7 "></polygon><polygon id="spoly_131" data-role="section" data-sectionid="131" data-angle="301.4" points="427.3,428.5 418.8,431.2 410.6,433.1 406.8,401.2 411.7,399.9 416.4,398.4 427.3,428.5 427.3,428.5 "></polygon><polygon id="spoly_132" data-role="section" data-sectionid="132" data-angle="270" points="408.3,433.4 404.5,401.5 398.2,402 391.8,401.5 388.1,433.4 393.1,433.9 397.9,434.2 397.9,434.2 398.2,434.2 398.5,434.2 398.5,434.2 403.2,433.9 408.3,433.4 408.3,433.4 "></polygon><polygon id="spoly_133" data-role="section" data-sectionid="133" data-angle="256.7" points="369,428.5 377.5,431.2 385.8,433.1 389.5,401.2 384.6,399.9 380,398.4 369,428.5 369,428.5 "></polygon><polygon id="spoly_134" data-role="section" data-sectionid="134" data-angle="247.5" points="356.4,422.7 361.6,425.3 366.8,427.6 377.8,397.6 374.9,396.4 370.9,394.4 356.4,422.7 356.4,422.7 "></polygon><polygon id="spoly_135" data-role="section" data-sectionid="135" data-angle="239.5" points="345.6,415.6 350.1,418.6 354.4,421.5 378.4,374.6 373.5,370.5 345.6,415.6 345.6,415.6 "></polygon><polygon id="spoly_136" data-role="section" data-sectionid="136" data-angle="231.1" points="333.5,405.1 338.5,410 343.7,414.2 371.9,369 369.2,365.9 367.7,363.9 333.5,405.1 333.5,405.1 "></polygon><polygon id="spoly_137" data-role="section" data-sectionid="137" data-angle="218" points="323.4,394.5 331.9,403.5 360.9,368.5 355,361.3 323.4,394.5 323.4,394.5 "></polygon><polygon id="spoly_138" data-role="section" data-sectionid="138" data-angle="205.3" points="313.3,383.3 321.8,392.8 353.6,359.4 347.9,352.4 313.3,383.3 313.3,383.3 "></polygon><polygon id="spoly_139" data-role="section" data-sectionid="139" data-angle="192.2" points="305,373.6 311.8,381.5 346.5,350.5 341.1,343.8 305,373.6 305,373.6 "></polygon><polygon id="spoly_140" data-role="section" data-sectionid="140" data-angle="214" points="298.1,365.1 303.6,371.8 339.7,342.1 334.4,335.5 298.1,365.1 298.1,365.1 "></polygon><polygon id="spoly_141" data-role="section" data-sectionid="141" data-angle="247.6" points="292.2,357.6 296.7,363.3 332.9,333.7 328.3,327.9 292.2,357.6 292.2,357.6 "></polygon><polygon id="spoly_142" data-role="section" data-sectionid="142" data-angle="297.4" points="285.5,348.7 290.7,355.7 326.8,326.2 321.5,319.4 285.5,348.7 285.5,348.7 "></polygon><polygon id="spoly_143" data-role="section" data-sectionid="143" data-angle="309.5" points="278.9,339.6 284.1,346.9 326.7,312.1 325.7,310.8 322.5,304 278.9,339.6 278.9,339.6 "></polygon><polygon id="spoly_144" data-role="section" data-sectionid="144" data-angle="324.6" points="272.1,330.1 277.5,337.8 321.5,301.8 318,294.6 272.1,330.1 272.1,330.1 "></polygon><polygon id="spoly_145" data-role="section" data-sectionid="145" data-angle="337" points="265.8,320.9 270.8,328.2 317,292.4 317,292.3 312,285 265.8,320.9 265.8,320.9 "></polygon><polygon id="spoly_146" data-role="section" data-sectionid="146" data-angle="345.6" points="258.5,310 264.5,319 310.5,283.2 305.8,276.5 258.5,310 258.5,310 "></polygon><polygon id="spoly_147" data-role="section" data-sectionid="147" data-angle="339" points="252,299.8 257.4,308 304.3,274.6 299.7,267.7 252,299.8 252,299.8 "></polygon><polygon id="spoly_148" data-role="section" data-sectionid="148" data-angle="335" points="245.7,289.4 250.9,297.8 298.4,265.8 293.1,257.6 245.7,289.4 245.7,289.4 "></polygon><polygon id="spoly_149" data-role="section" data-sectionid="149" data-angle="333.9" points="238.6,277.5 244.5,287.5 291.8,255.7 287.9,249.5 238.6,277.5 238.6,277.5 "></polygon><polygon id="spoly_150" data-role="section" data-sectionid="150" data-angle="334.6" points="232.6,267 237.5,275.5 286.7,247.5 282.8,241 232.6,267 232.6,267 "></polygon><polygon id="spoly_151" data-role="section" data-sectionid="151" data-angle="336.3" points="226.8,256 228.2,258.9 231.4,265 281.6,239 278,232.6 226.8,256 226.8,256 "></polygon><polygon id="spoly_152" data-role="section" data-sectionid="152" data-angle="340.3" points="220.9,243.3 225.8,254 276.9,230.6 273.6,224.5 220.9,243.3 220.9,243.3 "></polygon><polygon id="spoly_153" data-role="section" data-sectionid="153" data-angle="343.3" points="216.2,232.2 219.8,241.3 272.4,222.5 270.2,218.3 268.5,216.3 216.2,232.2 216.2,232.2 "></polygon><polygon id="spoly_154" data-role="section" data-sectionid="154" data-angle="352" points="209.9,208.8 210.7,213.8 211.9,219 213.6,224.5 215.5,230 266.8,214.3 262.3,208.8 209.9,208.8 209.9,208.8 "></polygon><polygon id="spoly_155" data-role="section" data-sectionid="155" data-angle="6.4" points="214.1,182.3 212.3,187.4 210.9,192.7 209.9,198.4 209.6,204.3 209.6,206.5 260.3,206.5 254.2,199.2 214.1,182.3 214.1,182.3 "></polygon><polygon id="spoly_156" data-role="section" data-sectionid="156" data-angle="24.6" points="223,166.3 219,172.4 217,176.1 214.9,180.2 251.9,195.8 249.4,187.1 223,166.3 223,166.3 "></polygon><polygon id="spoly_157" data-role="section" data-sectionid="157" data-angle="35.8" points="236.7,151 225.2,163.3 224.3,164.4 249.7,184.4 261.1,172.5 236.7,151 236.7,151 "></polygon><polygon id="spoly_158" data-role="section" data-sectionid="158" data-angle="37.9" points="252.9,133.9 238.3,149.4 262.9,170.8 277,156.2 252.9,133.9 252.9,133.9 "></polygon><polygon id="spoly_159" data-role="section" data-sectionid="159" data-angle="27.5" points="273.1,113 254.5,132.2 286.6,161.8 303.9,143.9 273.1,113 273.1,113 "></polygon><polygon id="spoly_160" data-role="section" data-sectionid="160" data-angle="10.6" points="285,101.2 274.7,111.4 305.6,142.3 313.8,133.6 285,101.2 285,101.2 "></polygon><polygon id="spoly_161" data-role="section" data-sectionid="161" data-angle="75.2" points="304.2,85.2 295.5,91.8 286.6,99.7 315.6,132 319.5,128.3 323.2,125.1 328.1,121.3 304.2,85.2 304.2,85.2 "></polygon><polygon id="spoly_162" data-role="section" data-sectionid="162" data-angle="149.3" points="325.8,71.5 316.3,77 306,83.8 330.2,120 336.4,116 343.6,111.9 325.8,71.5 325.8,71.5 "></polygon><polygon id="spoly_163" data-role="section" data-sectionid="163" data-angle="118.1" points="345.3,62.6 337.8,65.7 327.9,70.4 345.6,110.9 352,107.9 358.9,105.1 345.3,62.6 345.3,62.6 "></polygon><polygon id="spoly_164" data-role="section" data-sectionid="164" data-angle="111.1" points="373.8,100.8 359.2,77.2 351.7,60.5 347.5,61.8 361.1,104.4 367.3,102.5 373.8,100.8 373.8,100.8 "></polygon><polygon id="spoly_311" data-role="section" data-sectionid="311" data-angle="340.1" points="593.7,227.3 591.5,233.8 589.1,240 598,244.5 600.9,237.2 603.2,230.3 593.7,227.3 593.7,227.3 "></polygon><polygon id="spoly_312" data-role="section" data-sectionid="312" data-angle="339.3" points="597.2,246.5 592.7,256.3 587.8,266.4 579.1,261.4 583,253.8 588.2,242.1 597.2,246.5 597.2,246.5 "></polygon><polygon id="spoly_314" data-role="section" data-sectionid="314" data-angle="345.9" points="586.8,268.4 581.4,278.3 575.8,288.2 567.3,282.7 574.8,269.6 578.1,263.4 586.8,268.4 586.8,268.4 "></polygon><polygon id="spoly_316" data-role="section" data-sectionid="316" data-angle="355.1" points="574.6,290.2 563.1,309.3 554.6,303.7 566,284.8 574.6,290.2 574.6,290.2 "></polygon><polygon id="spoly_318" data-role="section" data-sectionid="318" data-angle="183.7" points="561.8,311.2 549.5,330 541.3,324.2 553.3,305.7 561.8,311.2 561.8,311.2 "></polygon><polygon id="spoly_320" data-role="section" data-sectionid="320" data-angle="194.9" points="548.2,331.8 536.2,348.9 528.3,343.3 540,326.2 548.2,331.8 548.2,331.8 "></polygon><polygon id="spoly_322" data-role="section" data-sectionid="322" data-angle="203.8" points="534.9,350.8 521.8,368.2 514.3,362.5 527,345.1 534.9,350.8 534.9,350.8 "></polygon><polygon id="spoly_324" data-role="section" data-sectionid="324" data-angle="213.8" points="520.3,370.1 506.5,387.6 499.3,381.5 512.8,364.3 520.3,370.1 520.3,370.1 "></polygon><polygon id="spoly_326" data-role="section" data-sectionid="326" data-angle="223.7" points="505,389.3 492,404.8 484.8,398.4 497.8,383.3 505,389.3 505,389.3 "></polygon><polygon id="spoly_328" data-role="section" data-sectionid="328" data-angle="219.9" points="490.4,406.5 483.8,413.9 477.7,420.1 475.3,422.5 468.4,415.7 471.2,412.9 483.2,400.2 490.4,406.5 490.4,406.5 "></polygon><polygon id="spoly_329" data-role="section" data-sectionid="329" data-angle="219.2" points="473.5,424.1 466.3,430.3 458.5,436.1 452.5,428.2 459.7,423.1 466.6,417.3 473.5,424.1 473.5,424.1 "></polygon><polygon id="spoly_330" data-role="section" data-sectionid="330" data-angle="212.1" points="456.7,437.4 449.4,441.9 441.8,445.9 437.4,436.3 444.1,433.1 450.6,429.5 456.7,437.4 456.7,437.4 "></polygon><polygon id="spoly_334" data-role="section" data-sectionid="334" data-angle="237" points="339.7,437.4 346.9,441.9 354.6,445.9 358.9,436.3 352.3,433.1 345.8,429.5 339.7,437.4 339.7,437.4 "></polygon><polygon id="spoly_335" data-role="section" data-sectionid="335" data-angle="214.5" points="322.8,424.1 330,430.3 337.8,436.1 343.9,428.2 336.7,423.1 329.7,417.3 322.8,424.1 322.8,424.1 "></polygon><polygon id="spoly_336" data-role="section" data-sectionid="336" data-angle="186.9" points="305.9,406.5 312.5,413.9 318.6,420.1 321.1,422.5 328,415.7 325.1,412.9 313.1,400.2 305.9,406.5 305.9,406.5 "></polygon><polygon id="spoly_338" data-role="section" data-sectionid="338" data-angle="350.5" points="291.3,389.3 304.3,404.8 311.5,398.4 298.5,383.3 291.3,389.3 291.3,389.3 "></polygon><polygon id="spoly_340" data-role="section" data-sectionid="340" data-angle="336.2" points="276,370.1 289.9,387.6 297.1,381.5 283.5,364.3 276,370.1 276,370.1 "></polygon><polygon id="spoly_342" data-role="section" data-sectionid="342" data-angle="328.1" points="261.4,350.8 274.6,368.2 282.1,362.5 269.4,345.1 261.4,350.8 261.4,350.8 "></polygon><polygon id="spoly_344" data-role="section" data-sectionid="344" data-angle="325.2" points="248.1,331.8 260.1,348.9 268.1,343.3 256.4,326.2 248.1,331.8 248.1,331.8 "></polygon><polygon id="spoly_346" data-role="section" data-sectionid="346" data-angle="329.8" points="234.6,311.2 246.8,330 255.1,324.2 243.1,305.7 234.6,311.2 234.6,311.2 "></polygon><polygon id="spoly_348" data-role="section" data-sectionid="348" data-angle="332.5" points="221.7,290.2 233.3,309.3 241.8,303.7 230.4,284.8 221.7,290.2 221.7,290.2 "></polygon><polygon id="spoly_350" data-role="section" data-sectionid="350" data-angle="338.4" points="209.6,268.4 214.9,278.3 220.6,288.2 229.2,282.7 221.6,269.6 218.3,263.4 209.6,268.4 209.6,268.4 "></polygon><polygon id="spoly_352" data-role="section" data-sectionid="352" data-angle="346.3" points="199.2,246.5 203.7,256.3 208.6,266.4 217.2,261.4 213.3,253.8 208.1,242.1 199.2,246.5 199.2,246.5 "></polygon><polygon id="spoly_354" data-role="section" data-sectionid="354" data-angle="355.7" points="187.6,203.6 187.9,208 188.5,212.7 189.5,217.4 190.7,222.5 194,233 198.3,244.5 207.3,240 204,231.2 201.1,221.9 199.9,217.1 199.1,212.5 198.5,208 198.2,203.6 187.6,203.6 187.6,203.6 "></polygon><polygon id="spoly_356" data-role="section" data-sectionid="356" data-angle="2.9" points="197.9,164.3 195.7,168.6 193.7,172.9 192,177.4 190.5,181.9 189.4,186.7 188.5,191.4 187.9,196.3 187.6,201.3 198.2,201.3 198.5,196.9 199.1,192.6 200.1,188.3 201.2,184.2 204.1,176.7 207.4,170.2 197.9,164.3 197.9,164.3 "></polygon><polygon id="spoly_357" data-role="section" data-sectionid="357" data-angle="24.3" points="215.1,158.3 206.4,151.3 202.5,156.7 199.1,162.2 208.6,168.2 212.2,162.2 215.1,158.3 215.1,158.3 "></polygon><polygon id="spoly_506" data-role="section" data-sectionid="506" data-angle="35" points="626,121.8 628.6,125.7 631.5,130.3 634.8,136.7 607.7,153 606.7,151.3 598.9,156 593.5,148.4 626,121.8 626,121.8 "></polygon><polygon id="spoly_507" data-role="section" data-sectionid="507" data-angle="23" points="636,138.7 638.7,144.8 641.5,151.5 644.1,159.1 646.4,167.4 618.4,176.5 617.8,174.5 609.3,177.4 606.1,169.2 602.2,161.4 609.9,156.7 608.8,155 636,138.7 636,138.7 "></polygon><polygon id="spoly_508" data-role="section" data-sectionid="508" data-angle="6.1" points="647,169.6 648.4,177 649.7,184.8 650.4,192.9 650.9,201.4 623,201.4 623,199.4 613.3,199.4 612.6,191.3 611,183.5 619.7,180.6 619.1,178.7 647,169.6 647,169.6 "></polygon><polygon id="spoly_509" data-role="section" data-sectionid="509" data-angle="352.7" points="650.9,203.7 650.6,211.2 649.7,219 648.4,226.7 646.5,234.5 619.7,227.8 620.1,225.8 610.1,223.4 612.2,214.1 612.9,209.9 613.2,205.7 623,205.7 623,203.7 650.9,203.7 650.9,203.7 "></polygon><polygon id="spoly_510" data-role="section" data-sectionid="510" data-angle="341.3" points="646,236.8 643.9,243.7 641.8,250.8 636.7,264.2 610.6,252 611.4,250.1 602.4,245.9 605.7,237.5 608.4,229.4 618.7,232 619.1,230 646,236.8 646,236.8 "></polygon><polygon id="spoly_512" data-role="section" data-sectionid="512" data-angle="335.4" points="635.9,266.3 630.8,278 625.7,288.5 599.9,273.6 600.9,271.9 592.5,267.1 599.9,251.8 608.7,255.9 609.6,254.1 635.9,266.3 635.9,266.3 "></polygon><polygon id="spoly_514" data-role="section" data-sectionid="514" data-angle="334.6" points="624.6,290.5 617.7,303.4 613,311.5 587.5,295.6 588.6,293.9 580.7,288.9 589.6,272.8 597.7,277.4 598.7,275.7 624.6,290.5 624.6,290.5 "></polygon><polygon id="spoly_516" data-role="section" data-sectionid="516" data-angle="335.9" points="611.7,313.5 611.6,313.6 599.3,332.6 574.6,317.3 586.8,298.1 611.7,313.5 611.7,313.5 "></polygon><polygon id="spoly_518" data-role="section" data-sectionid="518" data-angle="348.6" points="598,334.6 585,354.7 560.8,338.3 561.9,336.6 554.1,331.4 564.4,315.8 571.9,320.6 573,319 598,334.6 598,334.6 "></polygon><polygon id="spoly_520" data-role="section" data-sectionid="520" data-angle="319.8" points="583.7,356.7 572.2,374.6 546.6,356.5 547.8,355 541,350.2 550.5,336.6 558.3,342 559.5,340.2 583.7,356.7 583.7,356.7 "></polygon><polygon id="spoly_522" data-role="section" data-sectionid="522" data-angle="204.3" points="570.9,376.5 558.2,396.1 532.5,376.9 533.8,375.2 526.4,369.7 537.2,355.4 544,360.2 545.2,358.4 570.9,376.5 570.9,376.5 "></polygon><polygon id="spoly_524" data-role="section" data-sectionid="524" data-angle="199.2" points="556.9,398.1 552.2,404.8 542.9,417.2 517.3,396.5 518.6,395 511.2,389 522.6,374.7 529.9,380.4 531.2,378.6 556.9,398.1 556.9,398.1 "></polygon><polygon id="spoly_526" data-role="section" data-sectionid="526" data-angle="213.2" points="541.3,418.9 534.6,426.9 527,435.4 501.7,413.4 503,411.8 496.7,406.4 507.2,393.9 514.7,399.9 515.9,398.3 541.3,418.9 541.3,418.9 "></polygon><polygon id="spoly_527" data-role="section" data-sectionid="527" data-angle="221.8" points="525.4,437 517,445.6 507.8,454.2 484.5,431.8 485.8,430.3 479.9,424.4 480.9,423.4 492.5,411.1 498.8,416.6 500.1,415.2 525.4,437 525.4,437 "></polygon><polygon id="spoly_528" data-role="section" data-sectionid="528" data-angle="225.4" points="506,455.7 496.1,464 485.5,471.8 467.1,448 468.6,446.8 462.6,439 469.1,434.1 475.3,428.7 481.5,434.8 482.9,433.4 506,455.7 506,455.7 "></polygon><polygon id="spoly_529" data-role="section" data-sectionid="529" data-angle="226.3" points="483.7,473.1 477.9,477 472,480.6 465.9,483.9 459.7,487.1 446.7,459.2 448.6,458.5 444.5,449.8 451,446.4 457.2,442.5 463.6,450.7 465.2,449.4 483.7,473.1 483.7,473.1 "></polygon><polygon id="spoly_530" data-role="section" data-sectionid="530" data-angle="209.7" points="457.7,488.1 450.6,491.1 443.5,493.9 436.3,496.2 428.9,498.1 423.9,466.3 425.9,466 424.5,457.5 431.7,455.2 438.7,452.4 442.8,461.1 444.7,460.2 457.7,488.1 457.7,488.1 "></polygon><polygon id="spoly_531" data-role="section" data-sectionid="531" data-angle="281" points="426.6,498.5 421,499.5 415.2,500.2 409.4,500.7 403.7,500.8 399.3,500.8 399.3,468.5 401.4,468.5 401.4,461.4 409.9,460.5 418.4,459.1 419.5,467 421.6,466.6 426.6,498.5 426.6,498.5 "></polygon><polygon id="spoly_533" data-role="section" data-sectionid="533" data-angle="265.4" points="369.7,498.5 375.4,499.5 381.1,500.2 386.9,500.7 392.7,500.8 397,500.8 397,468.5 395,468.5 395,461.4 386.5,460.5 378,459.1 376.8,467 374.8,466.6 369.7,498.5 369.7,498.5 "></polygon><polygon id="spoly_534" data-role="section" data-sectionid="534" data-angle="252.3" points="338.7,488.1 345.8,491.1 352.8,493.9 360.1,496.2 367.4,498.1 372.5,466.3 370.5,466 371.9,457.5 364.7,455.2 357.6,452.4 353.6,461.1 351.7,460.2 338.7,488.1 338.7,488.1 "></polygon><polygon id="spoly_535" data-role="section" data-sectionid="535" data-angle="220.1" points="312.7,473.1 318.5,477 324.4,480.6 330.5,483.9 336.7,487.1 349.7,459.2 347.8,458.5 351.8,449.8 345.3,446.4 339.1,442.5 332.8,450.7 331.2,449.4 312.7,473.1 312.7,473.1 "></polygon><polygon id="spoly_536" data-role="section" data-sectionid="536" data-angle="230.5" points="290.3,455.7 300.3,464 310.8,471.8 329.3,448 327.7,446.8 333.8,439 327.3,434.1 321.1,428.7 314.9,434.8 313.4,433.4 290.3,455.7 290.3,455.7 "></polygon><polygon id="spoly_537" data-role="section" data-sectionid="537" data-angle="352.3" points="271,437 279.3,445.6 288.6,454.2 311.8,431.8 310.5,430.3 316.4,424.4 315.4,423.4 303.9,411.1 297.5,416.6 296.2,415.2 271,437 271,437 "></polygon><polygon id="spoly_538" data-role="section" data-sectionid="538" data-angle="330.8" points="255.1,418.9 261.7,426.9 269.4,435.4 294.6,413.4 293.3,411.8 299.7,406.4 289.2,393.9 281.6,399.9 280.5,398.3 255.1,418.9 255.1,418.9 "></polygon><polygon id="spoly_540" data-role="section" data-sectionid="540" data-angle="324.9" points="239.5,398.1 244.1,404.8 253.6,417.2 279,396.5 277.7,395 285.1,389 273.7,374.7 266.5,380.4 265.2,378.6 239.5,398.1 239.5,398.1 "></polygon><polygon id="spoly_542" data-role="section" data-sectionid="542" data-angle="324.4" points="225.5,376.5 238.2,396.1 263.9,376.9 262.6,375.2 270,369.7 259.1,355.4 252.3,360.2 251.2,358.4 225.5,376.5 225.5,376.5 "></polygon><polygon id="spoly_544" data-role="section" data-sectionid="544" data-angle="329.3" points="212.6,356.7 224.2,374.6 249.7,356.5 248.6,355 255.4,350.2 245.8,336.6 238,342 236.9,340.2 212.6,356.7 212.6,356.7 "></polygon><polygon id="spoly_546" data-role="section" data-sectionid="546" data-angle="333.8" points="198.3,334.6 211.3,354.7 235.6,338.3 234.4,336.6 242.2,331.4 232,315.8 224.5,320.6 223.3,319 198.3,334.6 198.3,334.6 "></polygon><polygon id="spoly_548" data-role="section" data-sectionid="548" data-angle="349.1" points="184.6,313.5 184.8,313.6 197,332.6 222.2,317 210,297.6 184.6,313.5 184.6,313.5 "></polygon><polygon id="spoly_550" data-role="section" data-sectionid="550" data-angle="336.4" points="171.8,290.5 178.7,303.4 183.3,311.5 208.9,295.6 207.7,293.9 215.7,288.9 206.7,272.8 198.6,277.4 197.6,275.7 171.8,290.5 171.8,290.5 "></polygon><polygon id="spoly_552" data-role="section" data-sectionid="552" data-angle="230.5" points="160.5,266.3 165.6,278 170.8,288.5 196.5,273.6 195.4,271.9 203.8,267.1 196.5,251.8 187.6,255.9 186.8,254.1 160.5,266.3 160.5,266.3 "></polygon><polygon id="spoly_554" data-role="section" data-sectionid="554" data-angle="190" points="150.4,236.8 152.4,243.7 154.6,250.8 159.6,264.2 185.8,252 184.9,250.1 194,245.9 190.7,237.5 187.9,229.4 177.7,232 177.2,230 150.4,236.8 150.4,236.8 "></polygon><polygon id="spoly_555" data-role="section" data-sectionid="555" data-angle="182.1" points="145.5,203.7 145.8,211.2 146.6,219 147.9,226.7 149.8,234.5 176.7,227.8 176.2,225.8 186.2,223.4 184.2,214.1 183.5,209.9 183.2,205.7 173.3,205.7 173.3,203.7 145.5,203.7 145.5,203.7 "></polygon><polygon id="spoly_556" data-role="section" data-sectionid="556" data-angle="177.9" points="149.4,169.6 147.9,177 146.6,184.8 145.9,192.9 145.5,201.4 173.3,201.4 173.3,199.4 183,199.4 183.7,191.3 185.3,183.5 176.7,180.6 177.2,178.7 149.4,169.6 149.4,169.6 "></polygon><polygon id="spoly_557" data-role="section" data-sectionid="557" data-angle="170.3" points="160.4,138.7 157.6,144.8 154.9,151.5 152.3,159.1 150,167.4 178,176.5 178.5,174.5 187.1,177.4 190.2,169.2 194.1,161.4 186.5,156.7 187.5,155 160.4,138.7 160.4,138.7 "></polygon><polygon id="spoly_558" data-role="section" data-sectionid="558" data-angle="120.5" points="170.3,121.8 167.7,125.7 164.8,130.3 161.5,136.7 188.7,153 189.7,151.3 197.5,156 202.8,148.4 170.3,121.8 170.3,121.8 "></polygon><polygon id="spoly_133S" data-role="section" data-sectionid="133S" data-angle="261" points="397.1,399.4 397,382 386.9,379.5 380.8,396.3 389.4,398.8 "></polygon><polygon id="spoly_130S" data-role="section" data-sectionid="130S" data-angle="316.4" points="417.7,395.5 411.6,378.6 416.1,376 424.5,392.4 417.7,395.5 417.7,395.5 "></polygon><polygon id="spoly_131S" data-role="section" data-sectionid="131S" data-angle="286.4" points="399,399.3 399,381.8 409.4,379.5 415.5,396.3 406.9,398.4 "></polygon><polygon id="spoly_134S" data-role="section" data-sectionid="134S" data-angle="245.1" points="378.7,395.5 384.7,378.6 380.3,376 371.9,392.4 378.7,395.5 378.7,395.5 "></polygon><polygon id="spoly_gold_coast_tickets_club" data-role="section" data-sectionid="gold_coast_tickets_club" data-angle="360" points="434.4,449.2 430.7,439 422,441.6 413.6,443.5 405.7,444.8 398.2,445.4 390.7,444.8 382.7,443.5 374.3,441.6 365.7,439 361.9,449.2 370.7,452.4 379.7,454.7 388.6,456.2 393.3,456.6 397.9,456.8 398.5,456.8 403.1,456.6 407.7,456.2 416.7,454.7 425.6,452.4 434.4,449.2 434.4,449.2 "></polygon><polygon id="spoly_The_Goose_Island" data-role="section" data-sectionid="The_Goose_Island" data-angle="167.7" points="511.2,164.5 539.4,138 567.3,168.3 537.7,192.1 "></polygon><polygon id="spoly_miller_lite_landing_sro" data-role="section" data-sectionid="miller_lite_landing_sro" data-angle="4.6" points="543.4,133.8 571.5,164.6 567.6,167.9 539.6,137.6 "></polygon><polygon class="is-d epoly_kids_zone" data-role="dynamic" points="221.9,157.9 271.5,108.5 255.7,92.2 205.9,142.2 " style="fill:#FF0000; stroke:#333333; stroke-width:1; fill-opacity:1.0;"></polygon><polygon class="is-d epoly_cf_shrubbery" data-role="dynamic" points="375,96.9 421.4,96.9 432.5,79.9 364.1,79.9 " style="fill:#177416; stroke:#177416; stroke-width:0; fill-opacity:1.0;"></polygon><polygon class="is-d epoly_fan_deck_dynamic" data-role="dynamic" points="363.6,76.6 433.5,76.6 440.8,60 356.1,59.9 " style="fill:#777; stroke:#BEBEBE; stroke-width:0; fill-opacity:1.0;"></polygon><polygon class="is-d epoly_cf_videoboard" data-role="dynamic" points="356.5,58.4 440.8,58.4 440.8,36.1 397.9,21.9 356.7,35.3 " style="fill:#000000; stroke:#333; stroke-width:3; fill-opacity:1.0;"></polygon><polygon class="is-d epoly_bench_visitor" data-role="dynamic" points="434.6,367.6 426.7,359.5 465.8,311.5 474.3,318.4 " style="fill:#DDD; stroke:#DDD; stroke-width:0; fill-opacity:1.0;"></polygon><polygon class="is-d epoly_stadium_club_dynamic" data-role="dynamic" points="583.4,157.9 585.5,160.9 588.1,164.8 590.8,169.5 593.5,174.8 596,180.7 597,183.9 598,187.2 598.8,190.6 599.4,194 599.7,197.6 599.8,201.2 599.7,203.8 599.5,206.6 598.8,212.2 597.5,217.9 595.9,223.7 604.9,226.4 606.8,219.7 608.2,213.4 609.1,207.3 609.2,204.5 609.3,201.8 609.2,198.2 609,194.7 608.5,191.3 607.9,187.9 607.2,184.6 606.4,181.4 605.3,178.2 604.2,175.1 601.5,169 598.3,163 594.8,157.3 590.9,151.8 583.4,157.9 583.4,157.9 " style="fill:#F4F4F4; stroke:#BEBEBE; stroke-width:1; fill-opacity:1.0;"></polygon><polygon class="is-d epoly_bench_home" data-role="dynamic" points="322.8,318.9 331.8,311.5 369.8,358.6 362,367.3 " style="fill:#000000; stroke:#000; stroke-width:0; fill-opacity:1;"></polygon></g><circle id="mctrmrk" cx="399.3" cy="341.7" r="1" stroke-width="0" stroke="#FFF" opacity="0"></circle><g id="svgsectionnames" style="opacity:1; font-size:5.766666666666667px;"><text data-sectionid="100" data-role="section" x="436.9" y="90.3">100</text><text data-sectionid="101" data-role="section" x="452.7" y="87.8">101</text><text data-sectionid="102" data-role="section" x="470.9" y="95">102</text><text data-sectionid="103" data-role="section" x="489.9" y="107.7">103</text><text data-sectionid="104" data-role="section" x="505.9" y="119.7">104</text><text data-sectionid="105" data-role="section" x="520" y="134.3">105</text><text data-sectionid="108" data-role="section" x="570" y="182.1">108</text><text data-sectionid="109" data-role="section" x="566.1" y="198.8">109</text><text data-sectionid="110" data-role="section" x="563" y="216.7">110</text><text data-sectionid="111" data-role="section" x="557.6" y="231.4">111</text><text data-sectionid="112" data-role="section" x="552.2" y="241.5">112</text><text data-sectionid="113" data-role="section" x="546.2" y="252.2">113</text><text data-sectionid="114" data-role="section" x="541.1" y="261.1">114</text><text data-sectionid="115" data-role="section" x="535.3" y="271.9">115</text><text data-sectionid="116" data-role="section" x="528.7" y="281.9">116</text><text data-sectionid="117" data-role="section" x="522.9" y="292.1">117</text><text data-sectionid="118" data-role="section" x="515.9" y="301.9">118</text><text data-sectionid="119" data-role="section" x="509.4" y="311">119</text><text data-sectionid="120" data-role="section" x="504.5" y="321.1">120</text><text data-sectionid="121" data-role="section" x="498" y="330">121</text><text data-sectionid="122" data-role="section" x="491.6" y="339.2">122</text><text data-sectionid="123" data-role="section" x="485.9" y="348.4">123</text><text data-sectionid="124" data-role="section" x="480.4" y="357.3">124</text><text data-sectionid="125" data-role="section" x="473.5" y="365.7">125</text><text data-sectionid="126" data-role="section" x="466.5" y="376.6">126</text><text data-sectionid="127" data-role="section" x="458.7" y="387.2">127</text><text data-sectionid="128" data-role="section" x="448.4" y="397.7">128</text><text data-sectionid="129" data-role="section" x="438.2" y="405.2">129</text><text data-sectionid="130" data-role="section" x="428" y="411.3">130</text><text data-sectionid="131" data-role="section" x="415.6" y="415.4">131</text><text data-sectionid="132" data-role="section" x="398.2" y="416.4">132</text><text data-sectionid="133" data-role="section" x="381.6" y="414.5">133</text><text data-sectionid="134" data-role="section" x="368.9" y="409.5">134</text><text data-sectionid="135" data-role="section" x="359.7" y="402">135</text><text data-sectionid="136" data-role="section" x="351.5" y="392.7">136</text><text data-sectionid="137" data-role="section" x="342.4" y="383.7">137</text><text data-sectionid="138" data-role="section" x="333.4" y="374.6">138</text><text data-sectionid="139" data-role="section" x="325.8" y="364.7">139</text><text data-sectionid="140" data-role="section" x="318.9" y="355.7">140</text><text data-sectionid="141" data-role="section" x="312.5" y="347.6">141</text><text data-sectionid="142" data-role="section" x="306.2" y="339.5">142</text><text data-sectionid="143" data-role="section" x="300.2" y="328.8">143</text><text data-sectionid="144" data-role="section" x="293.6" y="319.9">144</text><text data-sectionid="145" data-role="section" x="287.6" y="310.7">145</text><text data-sectionid="146" data-role="section" x="280.7" y="301">146</text><text data-sectionid="147" data-role="section" x="274.7" y="290.9">147</text><text data-sectionid="148" data-role="section" x="268.8" y="281">148</text><text data-sectionid="149" data-role="section" x="263.4" y="270.4">149</text><text data-sectionid="150" data-role="section" x="257" y="259.9">150</text><text data-sectionid="151" data-role="section" x="251.6" y="250.5">151</text><text data-sectionid="152" data-role="section" x="245.3" y="240.4">152</text><text data-sectionid="153" data-role="section" x="239.6" y="230.5">153</text><text data-sectionid="154" data-role="section" x="234.2" y="217">154</text><text data-sectionid="155" data-role="section" x="230.8" y="200.2">155</text><text data-sectionid="156" data-role="section" x="229.9" y="183.5">156</text><text data-sectionid="157" data-role="section" x="242.7" y="169.7">157</text><text data-sectionid="158" data-role="section" x="257.7" y="154.3">158</text><text data-sectionid="159" data-role="section" x="278" y="137.6">159</text><text data-sectionid="160" data-role="section" x="294.3" y="123.8">160</text><text data-sectionid="161" data-role="section" x="308.5" y="110">161</text><text data-sectionid="162" data-role="section" x="326" y="96.7">162</text><text data-sectionid="163" data-role="section" x="344" y="88.4">163</text><text data-sectionid="164" data-role="section" x="361.2" y="92.6">164</text><text data-sectionid="311" data-role="section" x="597.3" y="236.3">311</text><text data-sectionid="312" data-role="section" x="589.9" y="255.3">312</text><text data-sectionid="314" data-role="section" x="578.2" y="275.6">314</text><text data-sectionid="316" data-role="section" x="565.8" y="297.4">316</text><text data-sectionid="318" data-role="section" x="553.3" y="318.2">318</text><text data-sectionid="320" data-role="section" x="540" y="337.9">320</text><text data-sectionid="322" data-role="section" x="526.4" y="357.6">322</text><text data-sectionid="324" data-role="section" x="511.6" y="376.2">324</text><text data-sectionid="326" data-role="section" x="496.1" y="394.9">326</text><text data-sectionid="328" data-role="section" x="481.2" y="412.2">328</text><text data-sectionid="329" data-role="section" x="465.4" y="427">329</text><text data-sectionid="330" data-role="section" x="447.1" y="439.7">330</text><text data-sectionid="334" data-role="section" x="349.3" y="439.7">334</text><text data-sectionid="335" data-role="section" x="333.3" y="428.7">335</text><text data-sectionid="336" data-role="section" x="315.2" y="412.2">336</text><text data-sectionid="338" data-role="section" x="300.8" y="394.3">338</text><text data-sectionid="340" data-role="section" x="285.4" y="376.8">340</text><text data-sectionid="342" data-role="section" x="270.6" y="357">342</text><text data-sectionid="344" data-role="section" x="256.9" y="338.5">344</text><text data-sectionid="346" data-role="section" x="243.1" y="318.2">346</text><text data-sectionid="348" data-role="section" x="230" y="297.4">348</text><text data-sectionid="350" data-role="section" x="217.7" y="276.2">350</text><text data-sectionid="352" data-role="section" x="207" y="253.6">352</text><text data-sectionid="354" data-role="section" x="195.1" y="224.2">354</text><text data-sectionid="356" data-role="section" x="198.1" y="183">356</text><text data-sectionid="357" data-role="section" x="207.1" y="161.7">357</text><text data-sectionid="506" data-role="section" x="614.2" y="140.9">506</text><text data-sectionid="507" data-role="section" x="624.9" y="161.4">507</text><text data-sectionid="508" data-role="section" x="633.3" y="189.2">508</text><text data-sectionid="509" data-role="section" x="632.3" y="217.9">509</text><text data-sectionid="510" data-role="section" x="624.7" y="245.6">510</text><text data-sectionid="512" data-role="section" x="615.4" y="271.2">512</text><text data-sectionid="514" data-role="section" x="602.6" y="294.1">514</text><text data-sectionid="516" data-role="section" x="592.1" y="318.5">516</text><text data-sectionid="518" data-role="section" x="576.1" y="337.2">518</text><text data-sectionid="520" data-role="section" x="562.4" y="357.6">520</text><text data-sectionid="522" data-role="section" x="548.6" y="377.7">522</text><text data-sectionid="524" data-role="section" x="534.1" y="398">524</text><text data-sectionid="526" data-role="section" x="519" y="416.7">526</text><text data-sectionid="527" data-role="section" x="502.6" y="434.6">527</text><text data-sectionid="528" data-role="section" x="482.5" y="451">528</text><text data-sectionid="529" data-role="section" x="461.2" y="466">529</text><text data-sectionid="530" data-role="section" x="437.2" y="475.8">530</text><text data-sectionid="531" data-role="section" x="413" y="481.9">531</text><text data-sectionid="533" data-role="section" x="385.1" y="480.6">533</text><text data-sectionid="534" data-role="section" x="358.5" y="475.2">534</text><text data-sectionid="535" data-role="section" x="334" y="464.8">535</text><text data-sectionid="536" data-role="section" x="312" y="452.3">536</text><text data-sectionid="537" data-role="section" x="293.7" y="434.6">537</text><text data-sectionid="538" data-role="section" x="277.4" y="416.7">538</text><text data-sectionid="540" data-role="section" x="262.3" y="398">540</text><text data-sectionid="542" data-role="section" x="247.7" y="377.7">542</text><text data-sectionid="544" data-role="section" x="234" y="357.6">544</text><text data-sectionid="546" data-role="section" x="220.3" y="337.2">546</text><text data-sectionid="548" data-role="section" x="203.3" y="315.8">548</text><text data-sectionid="550" data-role="section" x="193.7" y="293.1">550</text><text data-sectionid="552" data-role="section" x="182.2" y="271.2">552</text><text data-sectionid="554" data-role="section" x="171" y="245.6">554</text><text data-sectionid="555" data-role="section" x="163.5" y="217.9">555</text><text data-sectionid="556" data-role="section" x="161.9" y="188.6">556</text><text data-sectionid="557" data-role="section" x="170.3" y="160.8">557</text><text data-sectionid="558" data-role="section" x="179.8" y="140.4">558</text><text data-sectionid="133S" data-role="section" x="391" y="391.7">133S</text><text data-sectionid="130S" data-role="section" x="416" y="386.7">130S</text><text data-sectionid="131S" data-role="section" x="405.2" y="390.5">131S</text><text data-sectionid="134S" data-role="section" x="380.4" y="386.7">134S</text><text data-sectionid="gold_coast_tickets_club" data-role="section" x="397" y="451.7">GR Club</text><text data-sectionid="The_Goose_Island" data-role="section" x="537.7" y="168.7">M Lite Landing</text><text data-sectionid="miller_lite_landing_sro" data-role="section" x="560.3" y="148.8" transform="rotate(48.9632 560.3 148.8)">Landing SRO</text><text class="is-d " text-anchor="middle" x="241.1" y="125.6" style="fill:#FFFFFF; font-size:5.9px; " null="" transform="rotate(314 241.1 125.6)"><tspan x="241.1" dy="-0.95em">KIDS ZONE</tspan><tspan x="241.1" dy="1.2em">FUNDAMENTALS</tspan><tspan x="241.1" dy="1.2em">DECK</tspan></text><text class="is-d " text-anchor="middle" x="398.3" y="90.4" style="fill:#999; font-size:5.9px; " dominant-baseline="central" data-offset="0|0.3" null=""></text><text class="is-d " text-anchor="middle" x="398" y="67.7" style="fill:#FFF; font-size:5.3px; " dominant-baseline="central" data-offset="0|0.3" null="">FAN DECK</text><text class="is-d " text-anchor="middle" x="398.7" y="42.2" style="fill:#FFFFFF; font-size:5.9px; " dominant-baseline="central" data-offset="0|0.3" null="">VIDEOBOARD</text><text class="is-d dyn-name-bench bench_visitor rotated" text-anchor="middle" x="449.3" y="339.4" style="fill:#666; font-size:5.9px; " dominant-baseline="central" data-offset="0|0.3" transform="rotate(309 449.3 339.4)">VISITOR</text><text class="is-d " text-anchor="middle" x="598.1" y="174.5" style="fill:#999; font-size:4.7px; " dominant-baseline="central" data-offset="0|0.3" transform="rotate(64 598.1 174.5)">STADIUM CLUB</text><text class="is-d dyn-name-bench bench_home rotated" text-anchor="middle" x="346.3" y="341.4" style="fill:#FFF; font-size:5.9px; " dominant-baseline="central" data-offset="0|0.3" transform="rotate(50 346.3 341.4)">WHITE SOX</text></g></g><circle id="svgZoomCenter" r="1" stroke-width="0" fill-opacity="0" cx="325.45" cy="259.5"></circle><circle id="svgNorthWest" r="1" stroke-width="0" fill-opacity="0" cx="0" cy="0"></circle><circle id="svgSouthEast" r="1" stroke-width="0" fill-opacity="0" cx="794" cy="519"></circle><g id="svgmarkers" style="font-size: 10.3px;"><circle id="svg-marker-hover" data-ticket="" style="display: none;"></circle></g>undefined</g><circle id="svgZoomCenterLoad" r="1" stroke-width="0" fill-opacity="0" cx="397" cy="259.5"></circle></g></g></svg>