<svg xmlns="http://www.w3.org/2000/svg" xmlns:xlink="http://www.w3.org/1999/xlink" id="svgmap" width="100%" height="100%" style="touch-action: none;" viewBox="115.6 -24.6 559.0 551.5"><style>
polygon[id^="spoly_"] { fill: #d0d8e4; stroke: #7a8fa6; stroke-width: 2; }
polygon[id^="spoly_"]:hover { fill: #5b8ccc; cursor: pointer; }
.svgText { font-family: Arial, sans-serif; fill: #333; font-size: 9px; }
</style>
         <g id="svgdefs"><defs id="svgdefstyle">
      <linearGradient id="ticketGradient" x1="0%" y1="0%" x2="100%" y2="0%"><stop offset="0%" stop-color="#840ac9"></stop><stop offset="30%" stop-color="#d60eb2"></stop><stop offset="50%" stop-color="#fa0b81"></stop><stop offset="100%" stop-color="#fa0b81"></stop></linearGradient>
      <radialGradient id="markerGradient" cx="50%" cy="50%" r="50%"><stop offset="0%" stop-color="#fa0b81"></stop><stop offset="95%" stop-color="#d60eb2"></stop><stop offset="100%" stop-color="#840ac9"></stop></radialGradient>
      <linearGradient id="flagGradient" x1="0%" y1="0%" x2="100%" y2="100%">
         <stop offset="0%" stop-color="#840ac9"></stop>
         <stop offset="40%" stop-color="#d60eb2"></stop>
         <stop offset="80%" stop-color="#fa0b81"></stop>
         <stop offset="100%" stop-color="#c40665"></stop> 
      </linearGradient>      
      <linearGradient id="svgmapticket" x1="0%" y1="0%" x2="0%" y2="100%"><stop offset="0%" style="stop-color:#5BADFF;stop-opacity:1"></stop><stop offset="100%" style="stop-color:#0066CC;stop-opacity:1"></stop></linearGradient><linearGradient id="svgdealticket" x1="0%" y1="0%" x2="0%" y2="100%"> <stop offset="0%" style="stop-color:#66FF00;stop-opacity:1"></stop><stop offset="100%" style="stop-color:#61C100;stop-opacity:1"></stop></linearGradient><linearGradient id="svggreatticket" x1="0%" y1="0%" x2="0%" y2="100%"><stop offset="0%" style="stop-color:#00CC33;stop-opacity:1"></stop><stop offset="100%" style="stop-color:#009100;stop-opacity:1"></stop></linearGradient><filter id="coinShadow" x="-40%" y="-40%" width="200%" height="200%">            <feGaussianBlur in="SourceAlpha" stdDeviation="3"></feGaussianBlur><feOffset dx="2" dy="2" result="offsetblur"></feOffset><feMerge><feMergeNode></feMergeNode><feMergeNode in="SourceGraphic"></feMergeNode></feMerge></filter></defs>  </g>
         <g class="testmask" mask="url(#fade)" style="scale: 0.95; transform-origin:center;">
         <g id="viewport" transform="matrix(1,0,0,1,0,0)" data-zoomfactor="100"><g id="scaleSVG" data-scale="1" transform="scale(1)" class="testrotate"><g id="svgelements"><image id="svgOverlay" class="nopointereventsmap" xlink:href="/assets/images/venues/overlays/yankee-stadium-mlb_3-2020.png" x="-107.8" y="-97.0" width="1005.1px" height="713.9px"></image><g id="svgpolygroup"><polygon id="spoly_11" data-role="section" data-sectionid="11" data-angle="204.4" points="507.6,236.1 502,247.9 518.7,256.1 524.6,244 507.6,236.1 "></polygon><polygon id="spoly_12" data-role="section" data-sectionid="12" data-angle="202.6" points="501.2,249.6 495.5,261.8 512,269.8 518,257.8 501.2,249.6 "></polygon><polygon id="spoly_13" data-role="section" data-sectionid="13" data-angle="205.6" points="494.6,263.4 488.4,276.5 504.8,284.5 511.2,271.5 494.6,263.4 "></polygon><polygon id="spoly_16" data-role="section" data-sectionid="16" data-angle="202.4" points="448.1,343.4 455.5,349.1 464.5,337.7 457.1,332.1 448.1,343.4 "></polygon><polygon id="spoly_18" data-role="section" data-sectionid="18" data-angle="339.4" points="424,357.8 420.3,360.1 415.9,362.4 422.1,380.6 425.6,378.7 429.1,376.6 432.3,374.3 435.5,371.9 424,357.8 424,357.8 "></polygon><polygon id="spoly_19" data-role="section" data-sectionid="19" data-angle="298.7" points="414.1,363.1 410.8,364.1 407.1,364.9 410.8,384.6 415.7,383.2 420.4,381.4 414.1,363.1 414.1,363.1 "></polygon><polygon id="spoly_20" data-role="section" data-sectionid="20" data-angle="270" points="405.3,365.1 402.5,365.2 399.2,365 396,364.6 392.3,384.4 397.3,385.2 402.2,385.5 405.6,385.4 409,384.9 405.3,365.1 405.3,365.1 "></polygon><polygon id="spoly_22" data-role="section" data-sectionid="22" data-angle="227.1" points="376.4,355.5 372.6,352.6 371.2,351.4 370.7,350.8 356.3,363 360.1,366.8 364.3,370.3 376.4,355.5 376.4,355.5 "></polygon><polygon id="spoly_23" data-role="section" data-sectionid="23" data-angle="219.4" points="354.5,345.3 346.5,352 351,357.3 355,361.7 362.6,355.2 354.5,345.3 354.5,345.3 "></polygon><polygon id="spoly_25" data-role="section" data-sectionid="25" data-angle="198.9" points="323.9,307.9 316.3,314.4 324.7,325.1 332.5,318.5 323.9,307.9 "></polygon><polygon id="spoly_26" data-role="section" data-sectionid="26" data-angle="188.5" points="329.8,300.5 321,289.7 306.7,302 315.2,312.9 329.8,300.5 "></polygon><polygon id="spoly_28" data-role="section" data-sectionid="28" data-angle="351.3" points="306.9,262.7 300.8,249.6 283,258.5 289.3,271.5 306.9,262.7 "></polygon><polygon id="spoly_29" data-role="section" data-sectionid="29" data-angle="347.5" points="300.1,247.9 294.8,236.6 276.6,245.5 282.2,256.8 300.1,247.9 "></polygon><polygon id="spoly_103" data-role="section" data-sectionid="103" data-angle="134.1" points="499.8,113.1 482.8,96.8 467.2,112.6 484.1,129.1 499.8,113.1 "></polygon><polygon id="spoly_104" data-role="section" data-sectionid="104" data-angle="139.9" points="520.7,131.8 523.4,124.3 512,124.3 511.5,124.3 501.1,114.3 485.3,130.4 504.1,148.8 520.7,131.8 "></polygon><polygon id="spoly_105" data-role="section" data-sectionid="105" data-angle="143" points="538.5,152.3 520.5,134.6 505.3,150.1 523.5,168 538.5,152.3 "></polygon><polygon id="spoly_106" data-role="section" data-sectionid="106" data-angle="160.7" points="554.3,166 553.9,165.4 541.1,152.2 524.8,169.4 527.9,173.2 530.1,176.2 532.6,179.9 554.3,166 554.3,166 "></polygon><polygon id="spoly_107" data-role="section" data-sectionid="107" data-angle="175.5" points="563.8,186.4 562.2,181.7 560.3,177.3 557.6,171.6 555.3,167.5 533.6,181.5 535.9,185.4 537.7,189.4 563.8,186.4 563.8,186.4 "></polygon><polygon id="spoly_108" data-role="section" data-sectionid="108" data-angle="180" points="566.8,206.8 566.9,204.8 566.7,200.5 566.1,196.3 565.3,192.1 564.3,188.2 538.3,191.2 538.9,193.8 539.2,196.2 539,197.6 538.7,198.9 537.3,201.7 566.8,206.8 566.8,206.8 "></polygon><polygon id="spoly_109" data-role="section" data-sectionid="109" data-angle="190.8" points="562.8,229.7 564.1,224.5 565.3,219.3 566.1,213.9 566.8,208.6 536.2,203.5 534.4,205.7 528.1,212.8 562.8,229.7 562.8,229.7 "></polygon><polygon id="spoly_110" data-role="section" data-sectionid="110" data-angle="185.6" points="562.1,231.3 526.9,214.2 514.7,227 554.6,246.5 562.1,231.3 562.1,231.3 "></polygon><polygon id="spoly_111" data-role="section" data-sectionid="111" data-angle="192.5" points="546,264.1 553.8,248.1 513.3,228.5 509.3,232.6 508.5,234.4 526.3,242.8 527.1,243.2 526.7,244 522.5,252.6 546,264.1 546,264.1 "></polygon><polygon id="spoly_112" data-role="section" data-sectionid="112" data-angle="197.7" points="537.2,282 545.2,265.8 521.6,254.3 513.7,270.6 537.2,282 "></polygon><polygon id="spoly_113" data-role="section" data-sectionid="113" data-angle="201.3" points="528.6,299.6 536.4,283.7 512.9,272.3 505.1,288.1 528.6,299.6 "></polygon><polygon id="spoly_115" data-role="section" data-sectionid="115" data-angle="217.1" points="493.8,344.6 503.3,332.3 483.3,316.9 473.6,329.1 493.8,344.6 "></polygon><polygon id="spoly_116" data-role="section" data-sectionid="116" data-angle="212.5" points="480.5,361.7 492.7,346 472.4,330.5 460.2,346.1 480.5,361.7 "></polygon><polygon id="spoly_118" data-role="section" data-sectionid="118" data-angle="195.8" points="437.7,404 442.1,401.9 446.3,399.5 450.1,397 453.8,394.2 436.6,373.3 433.9,375.5 430.1,378.1 425.9,380.7 437.7,404 437.7,404 "></polygon><polygon id="spoly_119" data-role="section" data-sectionid="119" data-angle="327.1" points="419.5,410.8 423.5,409.5 427.7,408.1 431.9,406.6 436,404.8 424.3,381.6 419.2,383.9 413.9,385.7 419.5,410.8 419.5,410.8 "></polygon><polygon id="spoly_122" data-role="section" data-sectionid="122" data-angle="222" points="335.6,380.6 341,386.6 341.1,386.6 345.3,390.9 349.9,395 365.7,373.8 362.8,371.6 360,369.1 357.4,366.7 354.9,364.1 335.6,380.6 335.6,380.6 "></polygon><polygon id="spoly_123" data-role="section" data-sectionid="123" data-angle="209.6" points="323,365.5 328.8,372.7 334.3,379.1 353.7,362.8 348.2,356.8 341.9,349.5 323,365.5 323,365.5 "></polygon><polygon id="spoly_124" data-role="section" data-sectionid="124" data-angle="196.1" points="309.6,348.6 321.9,364.1 340.8,348 328.3,332.7 309.6,348.6 309.6,348.6 "></polygon><polygon id="spoly_125" data-role="section" data-sectionid="125" data-angle="202.5" points="299,334.7 307.7,346.2 308.5,347.1 327.2,331.3 326.5,330.3 317.6,319 299,334.7 299,334.7 "></polygon><polygon id="spoly_126" data-role="section" data-sectionid="126" data-angle="350.1" points="286.9,318.9 297.9,333.3 316.4,317.5 305.3,303.2 286.9,318.9 286.9,318.9 "></polygon><polygon id="spoly_128" data-role="section" data-sectionid="128" data-angle="339.7" points="257.2,267.5 265.1,283.6 287.7,272.3 279.8,256.2 257.2,267.5 "></polygon><polygon id="spoly_129" data-role="section" data-sectionid="129" data-angle="341" points="245.6,244 256.4,265.9 279,254.5 274.9,246 274.2,244.7 294,234.9 292.5,231.7 284.9,224.4 245.6,244 "></polygon><polygon id="spoly_130" data-role="section" data-sectionid="130" data-angle="338.9" points="235.1,218.4 237,224 239,229.4 241.1,234.7 243.6,239.9 243.6,239.9 244.8,242.4 283.6,223.1 270.3,210 235.1,218.4 235.1,218.4 "></polygon><polygon id="spoly_131" data-role="section" data-sectionid="131" data-angle="348.6" points="230.8,194.1 231.2,199.8 232,205.5 233.2,211.2 234.6,216.7 268.7,208.5 259.8,199.9 259.4,198.5 259,196.6 258.8,194.1 230.8,194.1 230.8,194.1 "></polygon><polygon id="spoly_132" data-role="section" data-sectionid="132" data-angle="5.7" points="233.6,168.1 232.4,174.2 231.5,180.2 230.9,186.2 230.8,191.8 230.8,192.2 258.8,192.2 259,187.3 259.6,182.7 260.3,178.2 261.1,174.1 233.6,168.1 233.6,168.1 "></polygon><polygon id="spoly_133" data-role="section" data-sectionid="133" data-angle="15.7" points="240.7,146.6 238.8,151.4 237,156.4 235.4,161.3 234.1,166.3 261.6,172.2 262.7,168.4 264.2,164.8 265.6,161.5 267.1,158.6 240.7,146.6 240.7,146.6 "></polygon><polygon id="spoly_134" data-role="section" data-sectionid="134" data-angle="30.1" points="252.5,127 249.4,131.1 246.6,135.5 244,140.1 241.6,145 268.1,157 270.4,154 276.4,147.6 252.5,127 252.5,127 "></polygon><polygon id="spoly_135" data-role="section" data-sectionid="135" data-angle="34" points="281.8,115.9 271.9,126 271.4,126.5 254.9,126.5 277.7,146.2 294.9,128.7 281.8,115.9 281.8,115.9 "></polygon><polygon id="spoly_136" data-role="section" data-sectionid="136" data-angle="10.6" points="301.3,95.7 283.1,114.5 296.1,127.4 314.4,108.8 301.3,95.7 "></polygon><polygon id="spoly_202" data-role="section" data-sectionid="202" data-angle="127.7" points="461,76.7 466.7,80.6 472.4,84.7 478,89.1 483.5,93.8 508.7,68.2 505.2,64.8 498.6,59.3 494.3,55.9 489.3,52.2 483.6,48.3 477.3,44.4 461,76.7 461,76.7 "></polygon><polygon id="spoly_203" data-role="section" data-sectionid="203" data-angle="137" points="524.2,90.6 516.5,82.4 511.9,77.7 506.7,72.8 484.9,95.1 502.9,112.3 524.2,90.6 524.2,90.6 "></polygon><polygon id="spoly_204" data-role="section" data-sectionid="204" data-angle="140.5" points="504.3,113.5 512.6,121.5 524.4,121.5 530.8,103.5 522.3,95.3 504.3,113.5 "></polygon><polygon id="spoly_205" data-role="section" data-sectionid="205" data-angle="155.5" points="557.4,129.2 532.3,104.9 522.4,132.6 538.8,148.7 557.4,129.2 "></polygon><polygon id="spoly_206" data-role="section" data-sectionid="206" data-angle="112.3" points="574.7,146.7 571.5,142.8 558.7,130.4 541.5,148.6 554.6,162.1 574.7,146.7 574.7,146.7 "></polygon><polygon id="spoly_207" data-role="section" data-sectionid="207" data-angle="5.9" points="587.6,167.3 585,162.3 582,157.5 579,152.8 575.8,148.3 555.8,163.4 556,163.6 556.1,163.7 558.2,166.8 560,170.2 561.9,173.7 563.5,177.4 587.6,167.3 587.6,167.3 "></polygon><polygon id="spoly_208" data-role="section" data-sectionid="208" data-angle="6.4" points="597.9,196 596.1,189 594,182.2 591.4,175.5 588.4,169 564.1,179.1 565.9,184.2 567.5,189.4 568.6,194.5 569.3,199.5 597.9,196 597.9,196 "></polygon><polygon id="spoly_209" data-role="section" data-sectionid="209" data-angle="360" points="598.8,224.5 599.5,218.2 599.7,213.5 599.6,209.6 599.3,205.6 598.9,201.7 598.2,197.9 569.4,201.3 569.6,204.8 569.5,208.6 569.1,212.4 568.6,216.2 568,220.1 598.8,224.5 598.8,224.5 "></polygon><polygon id="spoly_210" data-role="section" data-sectionid="210" data-angle="354" points="591.8,253.9 592.8,251.7 593.8,249 595.6,242.1 597.2,234.2 598.5,226.2 567.6,221.8 565.4,230.6 565.3,230.8 559.8,242.1 591.8,253.9 591.8,253.9 "></polygon><polygon id="spoly_211" data-role="section" data-sectionid="211" data-angle="349.5" points="578.9,279.3 590.9,255.5 559,243.7 548.9,264.5 578.9,279.3 "></polygon><polygon id="spoly_212" data-role="section" data-sectionid="212" data-angle="266.3" points="567.7,301.5 578.1,280.9 548,266.2 537.9,286.9 567.7,301.5 "></polygon><polygon id="spoly_213" data-role="section" data-sectionid="213" data-angle="191" points="558.2,320.4 566.9,303.1 537.1,288.6 530.4,301.1 527.9,305.1 558.2,320.4 "></polygon><polygon id="spoly_215" data-role="section" data-sectionid="215" data-angle="215" points="518.8,373.1 531.5,356.6 504.2,335.7 491.5,352.1 518.8,373.1 "></polygon><polygon id="spoly_216" data-role="section" data-sectionid="216" data-angle="214.8" points="505,391.1 517.7,374.5 490.3,353.6 477.6,370.1 505,391.1 "></polygon><polygon id="spoly_217" data-role="section" data-sectionid="217" data-angle="216.7" points="490.8,409.5 503.8,392.7 476.4,371.6 464.2,387.3 490.8,409.5 "></polygon><polygon id="spoly_219" data-role="section" data-sectionid="219" data-angle="211.8" points="430.2,430 438.1,427.4 445.8,424.4 437.3,407.3 431.5,409.7 425.7,411.8 430.2,430 430.2,430 "></polygon><polygon id="spoly_222" data-role="section" data-sectionid="222" data-angle="213" points="324.2,403.9 327.1,407.2 330.2,410.3 333.6,413.1 337.2,415.9 350.3,398.8 345.1,394.6 340.4,390 324.2,403.9 324.2,403.9 "></polygon><polygon id="spoly_223" data-role="section" data-sectionid="223" data-angle="185.2" points="303.8,394.3 315.6,408.9 339.1,388.6 339,388.5 339,388.5 333.2,382.1 326.9,374.7 303.8,394.3 303.8,394.3 "></polygon><polygon id="spoly_224" data-role="section" data-sectionid="224" data-angle="298.9" points="289.5,376.7 302.6,392.9 325.7,373.3 312.8,357 289.5,376.7 289.5,376.7 "></polygon><polygon id="spoly_225" data-role="section" data-sectionid="225" data-angle="346.1" points="275.1,358.9 288.3,375.3 311.6,355.6 305.6,347.8 298.7,338.9 275.1,358.9 275.1,358.9 "></polygon><polygon id="spoly_226" data-role="section" data-sectionid="226" data-angle="333" points="260,340.4 273.9,357.5 297.6,337.5 284.2,319.9 260,340.4 "></polygon><polygon id="spoly_228" data-role="section" data-sectionid="228" data-angle="334.7" points="223.1,276.3 233.6,296.7 261.6,282.6 251.5,262.2 223.1,276.3 "></polygon><polygon id="spoly_229" data-role="section" data-sectionid="229" data-angle="336.2" points="241.4,241.6 212.7,255.9 222.2,274.7 250.7,260.4 241.4,241.6 "></polygon><polygon id="spoly_230" data-role="section" data-sectionid="230" data-angle="343.9" points="240.5,239.9 237.2,232.3 234.1,224.3 203,233.9 206.3,242.6 208,246.7 209.9,250.6 211.8,254.3 240.5,239.9 240.5,239.9 "></polygon><polygon id="spoly_231" data-role="section" data-sectionid="231" data-angle="351.8" points="197.8,213.7 199.8,223.1 202.5,232.2 233.5,222.5 231.3,215.2 229.6,207.7 197.8,213.7 197.8,213.7 "></polygon><polygon id="spoly_234" data-role="section" data-sectionid="234" data-angle="29.6" points="252.1,123.2 236.7,88.3 232.4,92.5 228.3,97.1 224.3,101.9 220.6,107.1 217.1,112.5 213.8,118 210.9,123.8 208.1,129.7 239,143.8 241.9,138.1 244.9,132.8 248.4,127.8 252.1,123.2 252.1,123.2 "></polygon><polygon id="spoly_235" data-role="section" data-sectionid="235" data-angle="37" points="256.1,90.5 249.1,97.7 244.9,102.5 254.3,123.8 270.2,123.8 279.8,113.9 256.1,90.5 256.1,90.5 "></polygon><polygon id="spoly_236" data-role="section" data-sectionid="236" data-angle="30.8" points="276.8,71.2 271.2,76 266.1,80.6 257.3,89.1 281.1,112.6 299.4,93.7 276.8,71.2 276.8,71.2 "></polygon><polygon id="spoly_237" data-role="section" data-sectionid="237" data-angle="16.3" points="307.5,48.6 299.6,53.8 292,59.2 284.9,64.6 278.3,69.9 300.7,92.4 302.7,90.4 306,87.5 309.8,84.4 313.8,81.5 317.8,78.8 321.9,76.2 307.5,48.6 307.5,48.6 "></polygon><polygon id="spoly_238" data-role="section" data-sectionid="238" data-angle="137" points="323.5,75.2 328.4,72.4 333.5,69.8 338.7,67.5 344.1,65.3 332.7,31.6 323.4,35.5 316,39.2 310.6,42.1 307.3,44.2 323.5,75.2 323.5,75.2 "></polygon><polygon id="spoly_305" data-role="section" data-sectionid="305" data-angle="175" points="572.9,112.8 540.8,81 536.2,93.9 555.7,112.6 564.7,121.4 572.9,112.8 572.9,112.8 "></polygon><polygon id="spoly_306" data-role="section" data-sectionid="306" data-angle="25" points="597.6,140 593.6,133.9 591.7,131.3 574.2,114 566,122.6 574.8,131.6 578.2,135.2 580.5,137.8 580.5,137.8 580.5,137.8 583.9,142.1 587.3,146.6 597.6,140 597.6,140 "></polygon><polygon id="spoly_307" data-role="section" data-sectionid="307" data-angle="22.3" points="612.6,168.6 609.7,162.2 606.9,156.3 602.6,148.3 598.6,141.6 588.3,148.1 592.2,154.1 595.7,160.3 598.9,166.8 601.6,173.5 612.6,168.6 612.6,168.6 "></polygon><polygon id="spoly_308" data-role="section" data-sectionid="308" data-angle="11.7" points="621.6,202.1 621.1,198 620.4,193.9 618.4,185.8 616.1,177.9 613.2,170.3 602.4,175.2 604.7,182.2 606.7,189.2 608.1,196.2 609.1,203.2 621.6,202.1 621.6,202.1 "></polygon><polygon id="spoly_309" data-role="section" data-sectionid="309" data-angle="360" points="620.6,229.8 621.7,219.1 622.1,211 621.8,203.9 609.3,205 609.5,209 609.6,213 609.5,216.9 609.2,220.7 608.2,228.4 620.6,229.8 620.6,229.8 "></polygon><polygon id="spoly_310" data-role="section" data-sectionid="310" data-angle="347.2" points="612.8,261 613.4,259.7 613.5,259.6 614.5,257.5 615.6,254.7 617.4,247.9 619,240.1 620.3,231.7 607.9,230.1 606.9,235 605.7,239.6 603.5,247.6 601.5,253.5 600.4,256.4 612.8,261 612.8,261 "></polygon><polygon id="spoly_311" data-role="section" data-sectionid="311" data-angle="337.5" points="598.8,289.7 612,262.7 599.6,258.1 587,284 598.8,289.7 "></polygon><polygon id="spoly_312" data-role="section" data-sectionid="312" data-angle="342.7" points="587,313.9 598,291.3 586.2,285.6 575.3,308.1 587,313.9 "></polygon><polygon id="spoly_313" data-role="section" data-sectionid="313" data-angle="347" points="569.2,344.7 576.6,335.3 586.2,315.6 574.4,309.9 564.5,330.2 564.3,330.4 559.2,337 569.2,344.7 "></polygon><polygon id="spoly_314" data-role="section" data-sectionid="314" data-angle="182.5" points="549.6,369.7 568.1,346.1 558.1,338.4 539.6,362.1 549.6,369.7 "></polygon><polygon id="spoly_315" data-role="section" data-sectionid="315" data-angle="197.8" points="532.9,391 548.3,371.2 538.4,363.6 522.9,383.3 532.9,391 "></polygon><polygon id="spoly_316" data-role="section" data-sectionid="316" data-angle="208.9" points="516.3,412.2 531.8,392.4 521.8,384.8 506.2,404.4 516.3,412.2 "></polygon><polygon id="spoly_317" data-role="section" data-sectionid="317" data-angle="216.2" points="497.5,435.4 500.4,432.5 515.2,413.6 505.1,406 490.3,424.6 490.1,424.8 488.5,426.5 497.5,435.4 497.5,435.4 "></polygon><polygon id="spoly_318" data-role="section" data-sectionid="318" data-angle="227.1" points="475.1,452.9 479.9,449.6 484.6,446.3 489.1,442.7 493.5,439 496.1,436.7 487.2,427.7 483.5,431.1 479,434.6 473.8,438.3 467.9,442.1 475.1,452.9 475.1,452.9 "></polygon><polygon id="spoly_319" data-role="section" data-sectionid="319" data-angle="227.3" points="448,466.6 454.6,464 461.1,460.9 467.4,457.5 473.6,453.8 466.3,443 461.1,446 455.5,448.8 449.6,451.6 443.4,454 448,466.6 448,466.6 "></polygon><polygon id="spoly_321" data-role="section" data-sectionid="321" data-angle="236.4" points="329.6,455.7 336,459.2 342.5,462.2 349.4,464.9 356.3,467.3 360.8,455.1 354,452.4 347.7,449.5 342,446.6 336.9,443.5 329.6,455.7 329.6,455.7 "></polygon><polygon id="spoly_322" data-role="section" data-sectionid="322" data-angle="193.3" points="314.1,424.3 303.9,434 306.4,437.1 309.1,439.9 311.9,442.7 314.9,445.3 318,447.9 321.2,450.3 328,454.8 335.3,442.5 330.7,439.3 326.7,436.2 323.2,433.4 320.2,430.7 316,426.5 314.1,424.3 314.1,424.3 "></polygon><polygon id="spoly_323" data-role="section" data-sectionid="323" data-angle="350" points="313,422.8 297,403.2 287.3,411.6 295.5,422.3 302.7,432.6 313,422.8 313,422.8 "></polygon><polygon id="spoly_324" data-role="section" data-sectionid="324" data-angle="337.7" points="270.8,391.1 286.2,410 295.9,401.8 280.5,382.9 270.8,391.1 270.8,391.1 "></polygon><polygon id="spoly_325" data-role="section" data-sectionid="325" data-angle="326.6" points="253.6,370.6 269.7,389.8 279.4,381.5 263.7,362.1 253.6,370.6 253.6,370.6 "></polygon><polygon id="spoly_326" data-role="section" data-sectionid="326" data-angle="323" points="235.5,349.1 252.4,369.1 262.4,360.6 246,340.3 235.5,349.1 235.5,349.1 "></polygon><polygon id="spoly_327" data-role="section" data-sectionid="327" data-angle="335.9" points="215.9,317.4 226,337.4 234.4,347.6 244.7,338.8 239,331.7 238.8,331.5 228.3,311.3 215.9,317.4 215.9,317.4 "></polygon><polygon id="spoly_328" data-role="section" data-sectionid="328" data-angle="340" points="202.4,290.6 215.1,315.8 227.4,309.7 214.3,284.6 202.4,290.6 "></polygon><polygon id="spoly_329" data-role="section" data-sectionid="329" data-angle="349.4" points="190.1,266.3 201.6,289 213.5,282.9 201.8,260.5 190.1,266.3 "></polygon><polygon id="spoly_330" data-role="section" data-sectionid="330" data-angle="357" points="177.5,239.6 179.5,244.8 181.6,249.6 181.6,249.6 189.3,264.6 200.8,258.9 197,251.3 197,251.3 193.3,243.4 190.1,235.3 177.5,239.6 177.5,239.6 "></polygon><polygon id="spoly_331" data-role="section" data-sectionid="331" data-angle="182" points="170.1,206.9 171.2,214.9 172.7,222.7 174.7,230.4 176.9,237.9 189.5,233.6 187.4,226.7 185.6,219.8 184.2,212.8 183.1,205.7 170.1,206.9 170.1,206.9 "></polygon><polygon id="spoly_333" data-role="section" data-sectionid="333" data-angle="4.4" points="192.1,102.5 189.4,107.3 186.8,112.1 184.4,117 182,121.9 179.9,127.1 177.9,132.2 176.2,137.3 174.7,142.6 187.9,146 189.5,140.8 191.2,135.8 193.1,130.9 195.1,126.3 199.3,117.6 203.7,109.7 192.1,102.5 192.1,102.5 "></polygon><polygon id="spoly_334" data-role="section" data-sectionid="334" data-angle="24" points="225.5,63.1 222.4,65.7 217.2,70.7 210.6,77.7 204.3,85.1 198.5,92.9 193.2,100.9 204.7,108.1 208.9,101.6 213.1,95.8 217.1,90.7 220.9,86.4 224.3,82.7 227.2,79.7 231.2,76 225.5,63.1 225.5,63.1 "></polygon><polygon id="spoly_405" data-role="section" data-sectionid="405" data-angle="15.6" points="584.6,93 549,57.8 541.8,78.1 570.9,106.9 584.6,93 "></polygon><polygon id="spoly_406" data-role="section" data-sectionid="406" data-angle="34.1" points="608.1,116.3 585.8,94.2 572.2,108.2 593.5,129.1 608.1,116.3 "></polygon><polygon id="spoly_408" data-role="section" data-sectionid="408" data-angle="9.2" points="644.6,201.9 644.4,198.2 644,194.5 642.7,187.1 640.8,179.6 638.6,172.2 618.8,177.7 620.8,184.1 622.4,190.7 623.6,197 624.5,203.3 644.6,201.9 644.6,201.9 "></polygon><polygon id="spoly_409" data-role="section" data-sectionid="409" data-angle="359.6" points="643.2,231.1 643.7,225 644.2,218.4 644.5,211.5 644.6,204 644.6,203.7 624.7,205.1 624.9,211 624.5,218.5 623.4,228.8 643.2,231.1 643.2,231.1 "></polygon><polygon id="spoly_410" data-role="section" data-sectionid="410" data-angle="348" points="637,262.7 638.3,258.3 639.8,251.8 641.4,243.3 642.9,233 623.2,230.6 622.2,237.4 621.1,244 619.8,250.2 618.1,255.7 637,262.7 637,262.7 "></polygon><polygon id="spoly_411" data-role="section" data-sectionid="411" data-angle="336.6" points="625.1,287.9 636.3,264.8 636.5,264.4 617.5,257.5 615.9,260.9 607.1,279.1 625.1,287.9 625.1,287.9 "></polygon><polygon id="spoly_412" data-role="section" data-sectionid="412" data-angle="336.1" points="611.8,315.2 624.4,289.5 606.2,280.7 593.7,306.4 611.8,315.2 "></polygon><polygon id="spoly_413" data-role="section" data-sectionid="413" data-angle="336.6" points="596.4,346.6 611,316.8 592.8,308.1 579.4,335.6 596.4,346.6 "></polygon><polygon id="spoly_414" data-role="section" data-sectionid="414" data-angle="340.9" points="576.3,372.7 595.5,348.1 578.6,337.1 560.3,360.4 576.3,372.7 "></polygon><polygon id="spoly_415" data-role="section" data-sectionid="415" data-angle="292.1" points="557.9,396.2 575.1,374.1 559.2,361.9 541.9,384 557.9,396.2 "></polygon><polygon id="spoly_416" data-role="section" data-sectionid="416" data-angle="196.4" points="539.4,419.8 556.7,397.7 540.8,385.5 523.5,407.5 539.4,419.8 "></polygon><polygon id="spoly_417" data-role="section" data-sectionid="417" data-angle="212.3" points="517.2,448.1 517.6,447.7 538.3,421.2 522.4,408.9 502.6,434.1 517.2,448.1 517.2,448.1 "></polygon><polygon id="spoly_418" data-role="section" data-sectionid="418" data-angle="230.4" points="491.3,470.7 496,467.3 500.3,464.1 504.1,461 507.4,458.1 512.6,453 516,449.4 501.4,435.5 498.4,438.4 493.7,442.6 487.3,447.7 479.3,453.4 491.3,470.7 491.3,470.7 "></polygon><polygon id="spoly_419" data-role="section" data-sectionid="419" data-angle="236.2" points="459.7,487 468.1,483.5 476,479.7 483.2,475.7 489.7,471.7 477.8,454.4 475.4,455.9 470.2,459.1 464.6,462.1 458.5,465.2 452.2,468 459.7,487 459.7,487 "></polygon><polygon id="spoly_421" data-role="section" data-sectionid="421" data-angle="225.7" points="315.2,472.5 321.7,476.2 328.8,480 336.6,483.6 345,486.9 352,468.8 345.2,466.3 338.4,463.3 332,460.2 325.7,456.6 315.2,472.5 315.2,472.5 "></polygon><polygon id="spoly_422" data-role="section" data-sectionid="422" data-angle="344.5" points="287.2,449.8 290.3,453 295.7,458.1 299.4,461.2 303.5,464.5 308.4,468 313.7,471.5 324.2,455.7 318,451.3 312.1,446.6 306.7,441.5 304.3,438.8 301.9,435.9 287.2,449.8 287.2,449.8 "></polygon><polygon id="spoly_423" data-role="section" data-sectionid="423" data-angle="337" points="266.3,423.7 286.1,448.4 300.8,434.5 300.7,434.4 300.7,434.4 292.2,422.5 282.5,409.9 266.3,423.7 266.3,423.7 "></polygon><polygon id="spoly_424" data-role="section" data-sectionid="424" data-angle="324.2" points="247.6,400.1 265.2,422.2 281.4,408.5 272.6,397.7 263.4,386.6 247.6,400.1 247.6,400.1 "></polygon><polygon id="spoly_425" data-role="section" data-sectionid="425" data-angle="321.4" points="229,376.6 246.5,398.7 262.3,385.2 244.2,363.6 229,376.6 229,376.6 "></polygon><polygon id="spoly_426" data-role="section" data-sectionid="426" data-angle="325.8" points="207.8,350 227.7,375.2 243,362.2 233,350.2 223.8,339 223.7,338.8 223.6,338.6 207.8,350 207.8,350 "></polygon><polygon id="spoly_427" data-role="section" data-sectionid="427" data-angle="340.6" points="195.7,327.5 206.4,348.2 206.7,348.6 222.7,337 213.4,318.7 195.7,327.5 "></polygon><polygon id="spoly_428" data-role="section" data-sectionid="428" data-angle="353" points="182,300.8 194.9,325.8 212.6,317 199.9,291.9 182,300.8 "></polygon><polygon id="spoly_429" data-role="section" data-sectionid="429" data-angle="256" points="168.5,274.4 181.2,299.1 199.1,290.2 186.5,265.3 168.5,274.4 "></polygon><polygon id="spoly_430" data-role="section" data-sectionid="430" data-angle="185.9" points="158.2,252.9 160.3,258.4 167.7,272.7 185.7,263.7 179.2,250.8 179.2,250.8 176.7,245.3 158.2,252.9 158.2,252.9 "></polygon><polygon id="spoly_433" data-role="section" data-sectionid="433" data-angle="172.6" points="160.4,114.4 157.9,120.5 155.6,126.7 153.5,133.1 151.5,139.8 171.2,144.6 172.8,138.7 174.8,133 176.8,127.5 179,122.1 160.4,114.4 160.4,114.4 "></polygon><polygon id="spoly_114A" data-role="section" data-sectionid="114A" data-angle="209.2" points="516.3,315.5 527.5,301.1 504.3,289.7 503.2,291.9 503.1,292 496.5,300.4 516.3,315.5 "></polygon><polygon id="spoly_114B" data-role="section" data-sectionid="114B" data-angle="215.6" points="504.5,330.8 515.2,316.9 495.4,301.8 484.4,315.5 504.5,330.8 "></polygon><polygon id="spoly_117A" data-role="section" data-sectionid="117A" data-angle="206" points="468.5,377.3 479.4,363.2 459,347.5 448,361.5 468.5,377.3 468.5,377.3 "></polygon><polygon id="spoly_117B" data-role="section" data-sectionid="117B" data-angle="201.4" points="455.3,393.1 458.8,389.6 461.8,385.9 461.8,385.8 467.3,378.7 446.9,363 446.5,363.6 446.4,363.6 444.2,366.2 441.5,368.8 438.1,372.1 455.3,393.1 455.3,393.1 "></polygon><polygon id="spoly_120A" data-role="section" data-sectionid="120A" data-angle="279.9" points="401.3,413.6 405.1,413.4 409.1,412.9 413.3,412.2 417.7,411.2 412.1,386.1 407.3,387 402.3,387.3 401.3,387.3 401.3,413.6 401.3,413.6 "></polygon><polygon id="spoly_120B" data-role="section" data-sectionid="120B" data-angle="261.2" points="384.3,411.7 388,412.4 391.9,413 395.7,413.4 399.5,413.6 399.5,387.2 394.8,386.7 390,385.7 384.3,411.7 384.3,411.7 "></polygon><polygon id="spoly_121A" data-role="section" data-sectionid="121A" data-angle="249.5" points="365.6,405 369.7,406.9 373.9,408.6 378.2,410 382.4,411.2 388.3,385.3 382.3,383.2 376.7,380.6 365.6,405 365.6,405 "></polygon><polygon id="spoly_121B" data-role="section" data-sectionid="121B" data-angle="238.3" points="351.3,396.1 354.3,398.4 357.5,400.4 364,404.2 375.1,379.8 371.1,377.4 367.3,374.9 351.3,396.1 351.3,396.1 "></polygon><polygon id="spoly_127A" data-role="section" data-sectionid="127A" data-angle="344" points="274.6,302.8 274.9,303.4 285.7,317.4 304.2,301.8 298.6,294.9 298.5,294.7 297,291.5 274.6,302.8 274.6,302.8 "></polygon><polygon id="spoly_127B" data-role="section" data-sectionid="127B" data-angle="342.6" points="265.9,285.2 273.8,301.2 296.2,289.9 288.5,273.9 265.9,285.2 "></polygon><polygon id="spoly_14A" data-role="section" data-sectionid="14A" data-angle="211.8" points="487.6,278.1 485.3,282.8 480.9,288.4 495.1,299.2 501.7,290.9 504.1,286.1 487.6,278.1 "></polygon><polygon id="spoly_14B" data-role="section" data-sectionid="14B" data-angle="214.8" points="479.7,289.8 471.2,300.7 485.2,311.5 493.9,300.7 479.7,289.8 "></polygon><polygon id="spoly_15A" data-role="section" data-sectionid="15A" data-angle="211" points="468,318.3 475.4,323.9 484.1,312.9 476.7,307.3 468,318.3 "></polygon><polygon id="spoly_15B" data-role="section" data-sectionid="15B" data-angle="206.8" points="458.3,330.6 465.6,336.2 474.3,325.3 466.9,319.7 458.3,330.6 "></polygon><polygon id="spoly_17A" data-role="section" data-sectionid="17A" data-angle="193.2" points="439.1,354.8 446.5,360.4 454.3,350.5 447,344.9 439.1,354.8 439.1,354.8 "></polygon><polygon id="spoly_17B" data-role="section" data-sectionid="17B" data-angle="213.4" points="431.2,351 430.1,352.3 428.9,353.6 425.4,356.6 436.8,370.7 441.8,366.1 444.9,362.5 444.9,362.5 445.4,361.9 431.2,351 431.2,351 "></polygon><polygon id="spoly_214A" data-role="section" data-sectionid="214A" data-angle="194.8" points="546.6,337.1 555.6,325.3 557.2,322 526.8,306.5 519.3,316.2 546.6,337.1 "></polygon><polygon id="spoly_214B" data-role="section" data-sectionid="214B" data-angle="207.6" points="532.6,355.2 545.5,338.5 518.2,317.6 505.3,334.2 532.6,355.2 "></polygon><polygon id="spoly_218A" data-role="section" data-sectionid="218A" data-angle="216.9" points="465.4,413 468.9,410.4 472.1,407.5 475.3,404.5 478.2,401.5 463.1,388.9 461.1,391.2 458.7,393.6 456.2,395.8 453.4,398 465.4,413 465.4,413 "></polygon><polygon id="spoly_218B" data-role="section" data-sectionid="218B" data-angle="210.7" points="447.6,423.6 451.8,421.5 456,419.3 460.1,416.8 464,414.1 452,399 448.9,401 445.7,403 438.9,406.6 447.6,423.6 447.6,423.6 "></polygon><polygon id="spoly_21A" data-role="section" data-sectionid="21A" data-angle="254.7" points="394.2,364.2 390.7,363.1 387.3,361.8 380.9,380.6 385.7,382.4 390.5,384 394.2,364.2 394.2,364.2 "></polygon><polygon id="spoly_21B" data-role="section" data-sectionid="21B" data-angle="241.1" points="385.6,360.9 381.5,358.8 377.9,356.6 365.7,371.5 368.9,373.8 372.2,376 375.7,378 379.1,379.8 385.6,360.9 385.6,360.9 "></polygon><polygon id="spoly_220A" data-role="section" data-sectionid="220A" data-angle="290.6" points="411.4,429.3 417.1,428.3 421.4,427.2 425.7,426 427,425.4 427.1,425.4 423.9,412.3 417.1,414.1 410.6,415.5 411.4,429.3 411.4,429.3 "></polygon><polygon id="spoly_220B" data-role="section" data-sectionid="220B" data-angle="270" points="393.6,429.5 398.3,429.8 403,429.9 406.5,429.8 409.5,429.6 408.7,415.8 404.6,416.2 400.8,416.4 394.4,416.1 393.6,429.5 393.6,429.5 "></polygon><polygon id="spoly_220C" data-role="section" data-sectionid="220C" data-angle="258.5" points="375.9,426.5 383.8,428.2 391.7,429.3 392.5,415.9 385.9,414.9 379.1,413.2 375.9,426.5 375.9,426.5 "></polygon><polygon id="spoly_221A" data-role="section" data-sectionid="221A" data-angle="247.4" points="356.4,425.7 364.6,428.5 372.9,430.7 377.4,412.6 370.9,410.4 364.5,407.6 356.4,425.7 356.4,425.7 "></polygon><polygon id="spoly_221B" data-role="section" data-sectionid="221B" data-angle="236.1" points="338.7,416.9 342.5,419.2 346.5,421.3 350.6,423.3 354.9,425.1 354.7,425 362.9,406.8 357.2,403.5 351.7,399.9 338.7,416.9 338.7,416.9 "></polygon><polygon id="spoly_227A" data-role="section" data-sectionid="227A" data-angle="328" points="245.4,319.9 249.1,327 258.8,338.9 283.1,318.5 273.4,306 245.4,319.9 245.4,319.9 "></polygon><polygon id="spoly_227B" data-role="section" data-sectionid="227B" data-angle="335.3" points="234.4,298.3 244.6,318.3 272.3,304.4 262.4,284.3 234.4,298.3 "></polygon><polygon id="spoly_232A" data-role="section" data-sectionid="232A" data-angle="356.4" points="195.2,193.6 196,202.6 197.5,212 229.3,205.8 228.4,199.1 228.1,192.3 195.2,193.6 195.2,193.6 "></polygon><polygon id="spoly_232B" data-role="section" data-sectionid="232B" data-angle="0.8" points="196.1,172.5 195.3,180.6 195.1,188.5 195.2,191.8 228.1,190.5 228.5,182.9 229.4,175.1 196.1,172.5 196.1,172.5 "></polygon><polygon id="spoly_233A" data-role="section" data-sectionid="233A" data-angle="6.5" points="200.3,151.4 198.1,161.1 196.3,170.6 229.7,173.3 231,167.2 232.6,161.1 200.3,151.4 200.3,151.4 "></polygon><polygon id="spoly_233B" data-role="section" data-sectionid="233B" data-angle="15.3" points="207.4,131.5 203.8,140.5 200.8,149.7 233.2,159.3 235.5,152.3 238.3,145.5 207.4,131.5 207.4,131.5 "></polygon><polygon id="spoly_24A" data-role="section" data-sectionid="24A" data-angle="212.5" points="343.9,332.4 335.9,339.1 345.3,350.6 353.3,343.8 343.9,332.4 343.9,332.4 "></polygon><polygon id="spoly_24B" data-role="section" data-sectionid="24B" data-angle="207" points="333.7,319.9 325.9,326.6 328,329.2 334.8,337.7 342.7,331 333.7,319.9 333.7,319.9 "></polygon><polygon id="spoly_27A" data-role="section" data-sectionid="27A" data-angle="297.1" points="319.9,288.3 317.4,285.1 314.4,278.8 297.1,287.5 300.2,293.9 305.5,300.6 319.9,288.3 319.9,288.3 "></polygon><polygon id="spoly_27B" data-role="section" data-sectionid="27B" data-angle="354.9" points="313.6,277.1 307.6,264.4 290.1,273.1 296.3,285.8 313.6,277.1 "></polygon><polygon id="spoly_320A" data-role="section" data-sectionid="320A" data-angle="354.2" points="419.7,473.8 426.4,472.8 433.1,471.2 439.7,469.4 446.3,467.2 441.7,454.7 436,456.6 430.2,458.2 424.2,459.7 418,460.7 419.7,473.8 419.7,473.8 "></polygon><polygon id="spoly_320B" data-role="section" data-sectionid="320B" data-angle="270" points="386.7,473.8 395.8,474.6 404.6,474.8 411.2,474.6 417.8,474 416.2,461 409.4,461.7 402.5,461.9 402.4,461.9 402.1,461.9 395,461.7 388.3,461.2 386.7,473.8 386.7,473.8 "></polygon><polygon id="spoly_320C" data-role="section" data-sectionid="320C" data-angle="254" points="358.1,467.8 364.7,469.7 371.5,471.3 378.2,472.6 385,473.6 386.5,461 380.1,460.1 373.9,458.7 368.1,457.3 362.6,455.6 358.1,467.8 358.1,467.8 "></polygon><polygon id="spoly_332A" data-role="section" data-sectionid="332A" data-angle="180" points="169,174.3 168.7,179.6 168.6,185 168.9,194.8 169.8,205.1 182.9,203.9 182.2,195.9 182,188.1 182.1,181.6 182.5,175.2 169,174.3 169,174.3 "></polygon><polygon id="spoly_332B" data-role="section" data-sectionid="332B" data-angle="179" points="174.1,144.4 172.4,151.3 171,158.3 169.9,165.4 169.1,172.5 182.7,173.4 183.5,166.6 184.6,160.2 185.9,153.9 187.3,147.9 174.1,144.4 174.1,144.4 "></polygon><polygon id="spoly_407A" data-role="section" data-sectionid="407A" data-angle="30" points="625.2,142.7 620,133.8 615.4,126.4 611.7,121 609.3,117.7 594.6,130.5 598.1,135.6 601.5,140.8 604.8,146.4 608,152.3 625.2,142.7 625.2,142.7 "></polygon><polygon id="spoly_407B" data-role="section" data-sectionid="407B" data-angle="17.4" points="638,170.5 635.2,163.5 632.2,156.9 629.2,150.4 626,144.4 608.9,153.9 611.5,159.2 613.9,164.8 616.2,170.3 618.2,175.9 638,170.5 638,170.5 "></polygon><polygon id="spoly_420A" data-role="section" data-sectionid="420A" data-angle="206.5" points="424.5,495.6 433.5,494.1 442.1,492.3 450.2,490.1 457.9,487.6 450.4,468.7 443.7,471 436.7,473.2 429.4,474.9 421.7,476.3 424.5,495.6 424.5,495.6 "></polygon><polygon id="spoly_420B" data-role="section" data-sectionid="420B" data-angle="270" points="381.9,495.7 387.1,496.2 392.3,496.6 397.9,496.8 403.4,496.9 413.2,496.6 422.6,495.8 419.9,476.5 412.4,477.4 404.6,477.6 399.7,477.5 394.8,477.3 389.8,476.9 384.7,476.3 381.9,495.7 381.9,495.7 "></polygon><polygon id="spoly_420C" data-role="section" data-sectionid="420C" data-angle="251.6" points="346.7,487.5 354.4,489.9 362.5,492.1 371.1,493.9 380.1,495.4 382.8,476 375.6,474.9 368.3,473.4 361,471.5 353.8,469.4 346.7,487.5 346.7,487.5 "></polygon><polygon id="spoly_431A" data-role="section" data-sectionid="431A" data-angle="187.4" points="150.4,226.3 152.3,233.8 154.1,240.5 155.9,246.3 157.6,251.1 176,243.5 174.1,238.5 172.5,233.2 171.1,227.9 169.8,222.3 150.4,226.3 150.4,226.3 "></polygon><polygon id="spoly_431B" data-role="section" data-sectionid="431B" data-angle="183.8" points="146.1,197.4 146.7,204.6 147.6,211.6 148.8,218.2 150,224.5 169.4,220.5 168.3,214.5 167.4,208.4 166.8,202.4 166.3,196.5 146.1,197.4 146.1,197.4 "></polygon><polygon id="spoly_432A" data-role="section" data-sectionid="432A" data-angle="180" points="146.3,169.3 145.8,177.1 145.6,185.2 145.7,190.4 145.9,195.6 166.2,194.7 165.9,185 166.1,177.9 166.5,171 146.3,169.3 146.3,169.3 "></polygon><polygon id="spoly_432B" data-role="section" data-sectionid="432B" data-angle="174.3" points="151.1,141.6 149.6,147.8 148.4,154.2 147.3,160.8 146.5,167.4 166.7,169.2 167.4,163.2 168.3,157.5 169.4,151.9 170.7,146.4 151.1,141.6 151.1,141.6 "></polygon><polygon id="spoly_434A" data-role="section" data-sectionid="434A" data-angle="172.9" points="180.1,79.5 175.1,87 170.2,95 165.5,103.6 161.2,112.8 179.7,120.4 183.3,112.8 187.1,105.6 191.1,99.1 195.1,92.9 196.1,91.5 180.1,79.5 180.1,79.5 "></polygon><polygon id="spoly_434B" data-role="section" data-sectionid="434B" data-angle="18" points="224.4,60.4 215.6,40.7 212.6,43.2 209.2,46.1 204.8,50.2 199.6,55.6 193.8,61.9 187.5,69.4 181.1,78 197.3,89.9 202.2,83.4 207,77.6 211.4,72.7 215.4,68.6 221.5,62.8 224.4,60.4 224.4,60.4 "></polygon><polygon id="spoly_audi_club" data-role="section" data-sectionid="audi_club" data-angle="24.1" points="184.6,173.5 186.1,163.2 188.7,151.7 190.9,143 194,134 198,125.2 204.6,112.5 210.9,102.6 217.1,94.4 223.1,87.4 227.8,82.6 231.9,79.1 235.7,87.1 231,91.4 226.2,96.8 220.6,103.4 216.6,109.2 211.1,118.9 203.7,134 198.8,147.7 195.1,163.7 194,173.9 "></polygon><polygon id="spoly_SRO" data-role="section" data-sectionid="SRO" data-angle="152.6" points="214.5,39.5 212.5,34.6 200.2,45.6 203.2,49.6 "></polygon><polygon id="spoly_Field_SRO" data-role="section" data-sectionid="Field_SRO" data-angle="132.5" points="244.6,101.5 256.3,89.2 263.5,82.2 259.1,76.2 241.4,93.6 "></polygon><polygon id="spoly_Pinstripe_Pass" data-role="section" data-sectionid="Pinstripe_Pass" data-angle="220.4" points="507.8,71.9 516.6,80.5 525.3,89.5 530.3,84.1 521.9,75.5 512.5,66.8 "></polygon><polygon id="spoly_Main_Standing_Room_Only" data-role="section" data-sectionid="Main_Standing_Room_Only" data-angle="204.8" points="523.3,94.7 544.4,115.2 549.2,110.5 528,89.7 "></polygon><polygon id="spoly_pepsi_lounge" data-role="section" data-sectionid="pepsi_lounge" data-angle="90" points="369.3,58.4 375,57.6 380.8,57 386.5,56.6 392.2,56.5 397.8,56.6 403.1,57 408.4,57.5 413.5,58.2 418.5,59.2 423.4,60.4 428.2,61.7 433,63.3 438.3,46.2 434.2,45 430.1,43.8 425.7,42.8 421.2,41.8 416.7,41 412,40.3 407.3,39.8 402.6,39.4 397.8,39.1 393.1,38.9 388.4,39 383.8,39.2 379.2,39.5 374.9,40 370.6,40.7 366.5,41.6 369.3,58.4 369.3,58.4 "></polygon><polygon class="is-d epoly_suite_level_label" data-role="dynamic" points="401.1,453.9 " style="fill:#; stroke:#; stroke-width:0; fill-opacity:0.0;"></polygon><polygon class="is-d epoly_press_box" data-role="dynamic" points="478.4,404.2 476,406.7 473.5,409 470.9,411.2 468.1,413.4 465.3,415.5 462.4,417.5 459.3,419.4 456.3,421.2 453.1,422.9 449.9,424.5 446.6,426 443.3,427.3 439.9,428.7 436.5,429.9 433.1,430.9 429.6,431.9 428.3,432.3 421.8,433.7 415.3,434.7 408.9,435.4 405.8,435.6 402.6,435.7 402.1,435.7 395.6,435.5 388.7,434.9 381.6,434 374.4,432.6 373.1,432.4 366.1,430.6 359.1,428.5 355.7,427.3 352.4,426 349.2,424.5 345.9,423 342.8,421.3 339.8,419.6 336.9,417.7 334.1,415.8 331.4,413.7 328.9,411.5 326.4,409.2 324.2,406.7 317.1,413.2 319.8,415.9 322.9,418.8 326.2,421.7 329.9,424.5 333.9,427.3 338.2,430.1 342.9,432.8 347.9,435.3 353.3,437.7 359.1,439.9 365.2,441.8 371.8,443.5 378.8,444.8 382.4,445.4 386.1,445.8 390,446.2 393.9,446.5 398,446.6 402.2,446.7 406.1,446.6 410,446.4 413.7,446.2 417.4,445.8 421,445.3 424.4,444.7 431.1,443.3 437.5,441.5 443.5,439.4 449.2,437.1 454.6,434.5 459.7,431.8 464.4,429 468.9,426.1 473.1,423.1 477,420.1 480.6,417 483.9,414.1 487.1,411.3 478.4,404.2 478.4,404.2 " style="fill:#F4F4F4; stroke:#BEBEBE; stroke-width:1; fill-opacity:1.0;"></polygon><polygon class="is-d epoly_monument_park" data-role="dynamic" points="431.9,65.8 427.3,64.3 422.6,63 417.8,61.9 412.9,61 407.9,60.2 402.8,59.7 397.6,59.4 392.2,59.3 386.7,59.4 381,59.8 375.5,60.4 369.9,61.2 372.8,78.9 377.3,78.2 381.9,77.7 386.6,77.4 391.4,77.2 396.3,77.4 401,77.7 405.6,78.3 410.1,79.1 414.4,80.1 418.5,81.3 422.6,82.7 426.4,84.1 431.9,65.8 431.9,65.8 " style="fill:#F4F4F4; stroke:#BEBEBE; stroke-width:1; fill-opacity:1.0;"></polygon><polygon class="is-d epoly_visitor_bullpen" data-role="dynamic" points="367.6,61.6 363.4,62.4 359.3,63.4 355.3,64.5 351.2,65.7 347.3,67 343.3,68.5 339.4,70.1 335.6,71.8 331.8,73.6 328.1,75.5 324.4,77.6 320.8,79.7 317.3,82.1 313.9,84.5 310.6,87 307.3,89.6 304.1,92.4 302.1,94.3 315.2,107.4 317.4,105.4 321.2,102.4 326.3,98.6 329.4,96.5 332.8,94.3 336.5,92.2 340.6,90 344.9,87.9 349.4,85.8 354.4,84 359.5,82.2 364.8,80.7 370.5,79.3 367.6,61.6 367.6,61.6 " style="fill:#F4F4F4; stroke:#BEBEBE; stroke-width:1; fill-opacity:1.0;"></polygon><polygon class="is-d epoly_videoboard_cf" data-role="dynamic" points="389.1,16.1 393.4,16.2 397.6,16.3 401.9,16.6 406.2,17 410.4,17.5 414.7,18.1 423,19.5 431.3,21.4 439.4,23.6 447.5,26.3 455.3,29.4 463,32.7 470.5,36.5 477.8,40.6 484.9,45.1 491.8,49.9 498.5,55 504.9,60.4 511,66.2 518.4,58.4 515.1,55.3 511.9,52.3 508.5,49.3 505.1,46.6 498,41.1 490.7,36 483.2,31.3 475.5,26.9 467.5,22.9 459.3,19.3 451,16.1 442.5,13.3 433.8,11 429.5,9.9 425.1,9 420.6,8.1 416.2,7.4 411.8,6.8 407.2,6.3 402.7,5.9 398.2,5.6 393.6,5.4 389.1,5.4 384.7,5.4 380.4,5.6 376,6 371.6,6.5 367.2,7.1 362.8,7.8 358.5,8.7 354.2,9.7 349.8,10.8 345.5,12 341.2,13.3 336.8,14.7 328.3,18 319.8,21.6 311.6,25.6 303.5,30 295.5,34.7 287.8,39.8 280.2,45.2 273,50.7 266,56.6 259.3,62.8 266.6,71.5 271.3,67 276.6,62.4 282.2,57.7 288.3,53 294.7,48.3 301.5,43.7 308.8,39.3 316.3,35.1 324.3,31.1 328.4,29.2 332.6,27.5 336.9,25.8 341.2,24.2 345.7,22.8 350.2,21.5 354.8,20.3 359.5,19.3 364.2,18.3 369,17.5 373.9,16.9 378.9,16.5 384,16.2 389.1,16.1 389.1,16.1 " style="fill:#333; stroke:#BEBEBE; stroke-width:1; fill-opacity:1.0;"></polygon><polygon class="is-d epoly_batters_eye_seats_dynamic" data-role="dynamic" points="438.8,44.5 443.5,29.4 437.6,27.5 431.5,25.8 425.1,24.3 418.5,23 411.7,22 404.7,21.3 397.5,20.8 390.1,20.6 383,20.8 376.3,21.3 369.7,22 363.4,23 366.2,39.9 370.3,38.9 374.7,38.3 379.2,37.7 383.8,37.4 388.5,37.2 393.2,37.1 398,37.3 402.7,37.6 407.6,38 412.3,38.5 417,39.3 421.6,40 426.2,41 430.5,42 434.8,43.2 438.8,44.5 438.8,44.5 " style="fill:#F4F4F4; stroke:#BEBEBE; stroke-width:1; fill-opacity:1.0;"></polygon><polygon class="is-d epoly_yankees_bullpen" data-role="dynamic" points="480.9,95.5 475.3,90.9 469.7,86.6 464,82.5 458.3,78.7 452.4,75.2 446.5,72 440.4,69.1 434.1,66.6 428.6,85 432.5,86.8 436.2,88.6 439.6,90.6 442.9,92.5 446,94.5 448.8,96.5 454,100.4 458.3,103.9 461.6,107.1 464,109.5 465.5,111.1 480.9,95.5 480.9,95.5 " style="fill:#F4F4F4; stroke:#BEBEBE; stroke-width:1; fill-opacity:1.0;"></polygon><polygon class="is-d epoly_bench_home" data-role="dynamic" points="438.2,353.3 475.6,306 467.6,299.7 430,347 " style="fill:#000; stroke:#000; stroke-width:0; fill-opacity:1.0;"></polygon><polygon class="is-d epoly_bench_visitor" data-role="dynamic" points="364.3,354.3 372.5,347 334,299.2 325.3,306.3 " style="fill:#DDD; stroke:#DDD; stroke-width:0; fill-opacity:1.0;"></polygon></g><circle id="mctrmrk" cx="400.8" cy="329.5" r="1" stroke-width="0" stroke="#FFF" opacity="0"></circle><g id="svgsectionnames" style="opacity:1; font-size:5.766666666666667px;"><text data-sectionid="11" data-role="section" x="513.3" y="248.1" transform="rotate(386.783 513.3 248.1)">11</text><text data-sectionid="12" data-role="section" x="506.7" y="261.7" transform="rotate(383.518 506.7 261.7)">12</text><text data-sectionid="13" data-role="section" x="499.8" y="275.9" transform="rotate(385.894 499.8 275.9)">13</text><text data-sectionid="16" data-role="section" x="457.1" y="340.1" transform="rotate(667.451 457.1 340.1)">16</text><text data-sectionid="18" data-role="section" x="425.7" y="371.2" transform="rotate(421.274 425.7 371.2)">18</text><text data-sectionid="19" data-role="section" x="413.7" y="375.8" transform="rotate(435.069 413.7 375.8)">19</text><text data-sectionid="20" data-role="section" x="401.9" y="375.3" transform="rotate(270 401.9 375.3)">20</text><text data-sectionid="22" data-role="section" x="367" y="363.4" transform="rotate(312.628 367 363.4)">22</text><text data-sectionid="23" data-role="section" x="353" y="353.6" transform="rotate(408.013 353 353.6)">23</text><text data-sectionid="25" data-role="section" x="323.5" y="316.7" transform="rotate(407.545 323.5 316.7)">25</text><text data-sectionid="26" data-role="section" x="318.3" y="303.3" transform="rotate(319.347 318.3 303.3)">26</text><text data-sectionid="28" data-role="section" x="295" y="262.5" transform="rotate(332.419 295 262.5)">28</text><text data-sectionid="29" data-role="section" x="288.4" y="248.7" transform="rotate(334.233 288.4 248.7)">29</text><text data-sectionid="103" data-role="section" x="483.5" y="115" transform="rotate(42.3669 483.5 115)">103</text><text data-sectionid="104" data-role="section" x="501.2" y="137.2" transform="rotate(47.6026 501.2 137.2)">104</text><text data-sectionid="105" data-role="section" x="521.9" y="153.3" transform="rotate(-44.1275 521.9 153.3)">105</text><text data-sectionid="106" data-role="section" x="539.6" y="168" transform="rotate(-37.8237 539.6 168)">106</text><text data-sectionid="107" data-role="section" x="548.7" y="180.2" transform="rotate(-18.3442 548.7 180.2)">107</text><text data-sectionid="108" data-role="section" x="552.1" y="199.5">108</text><text data-sectionid="109" data-role="section" x="551.2" y="215.2" transform="rotate(377.432 551.2 215.2)">109</text><text data-sectionid="110" data-role="section" x="544.7" y="233.4" transform="rotate(385.974 544.7 233.4)">110</text><text data-sectionid="111" data-role="section" x="538.1" y="250.5" transform="rotate(383.962 538.1 250.5)">111</text><text data-sectionid="112" data-role="section" x="529.4" y="270.2" transform="rotate(386.878 529.4 270.2)">112</text><text data-sectionid="113" data-role="section" x="520.7" y="288" transform="rotate(386.409 520.7 288)">113</text><text data-sectionid="115" data-role="section" x="488.5" y="332.7" transform="rotate(397.875 488.5 332.7)">115</text><text data-sectionid="116" data-role="section" x="476.4" y="348.1" transform="rotate(396.369 476.4 348.1)">116</text><text data-sectionid="118" data-role="section" x="436.7" y="389.3" transform="rotate(417.728 436.7 389.3)">118</text><text data-sectionid="119" data-role="section" x="423.7" y="396.9" transform="rotate(430.322 423.7 396.9)">119</text><text data-sectionid="122" data-role="section" x="350.7" y="381.6" transform="rotate(313.738 350.7 381.6)">122</text><text data-sectionid="123" data-role="section" x="338.3" y="366.3" transform="rotate(318.883 338.3 366.3)">123</text><text data-sectionid="124" data-role="section" x="325.2" y="350.4" transform="rotate(319.764 325.2 350.4)">124</text><text data-sectionid="125" data-role="section" x="313.1" y="335" transform="rotate(320.05 313.1 335)">125</text><text data-sectionid="126" data-role="section" x="301.7" y="320.3" transform="rotate(319.236 301.7 320.3)">126</text><text data-sectionid="128" data-role="section" x="272.5" y="271.9" transform="rotate(334.084 272.5 271.9)">128</text><text data-sectionid="129" data-role="section" x="262.3" y="250" transform="rotate(334.545 262.3 250)">129</text><text data-sectionid="130" data-role="section" x="254.3" y="226.1" transform="rotate(336.818 254.3 226.1)">130</text><text data-sectionid="131" data-role="section" x="247.2" y="203.9" transform="rotate(348.301 247.2 203.9)">131</text><text data-sectionid="132" data-role="section" x="245.3" y="182.6" transform="rotate(365.86 245.3 182.6)">132</text><text data-sectionid="133" data-role="section" x="250.6" y="162.5" transform="rotate(376.12 250.6 162.5)">133</text><text data-sectionid="134" data-role="section" x="257.4" y="145.5" transform="rotate(391.99 257.4 145.5)">134</text><text data-sectionid="135" data-role="section" x="277.4" y="132.4" transform="rotate(669.32 277.4 132.4)">135</text><text data-sectionid="136" data-role="section" x="298.7" y="113.5" transform="rotate(670.408 298.7 113.5)">136</text><text data-sectionid="202" data-role="section" x="484.8" y="71.1" transform="rotate(-54.2299 484.8 71.1)">202</text><text data-sectionid="203" data-role="section" x="504.6" y="94.6" transform="rotate(-44.1636 504.6 94.6)">203</text><text data-sectionid="204" data-role="section" x="520" y="109" transform="rotate(-44.5133 520 109)">204</text><text data-sectionid="205" data-role="section" x="539.2" y="128.5" transform="rotate(-45.0149 539.2 128.5)">205</text><text data-sectionid="206" data-role="section" x="558.1" y="148.3" transform="rotate(-40.6792 558.1 148.3)">206</text><text data-sectionid="207" data-role="section" x="571.7" y="164.8" transform="rotate(-28.1758 571.7 164.8)">207</text><text data-sectionid="208" data-role="section" x="581" y="186.2" transform="rotate(-13.6367 581 186.2)">208</text><text data-sectionid="209" data-role="section" x="583.8" y="213.2">209</text><text data-sectionid="210" data-role="section" x="581.7" y="237.7" transform="rotate(373.778 581.7 237.7)">210</text><text data-sectionid="211" data-role="section" x="571.1" y="262.5" transform="rotate(384.772 571.1 262.5)">211</text><text data-sectionid="212" data-role="section" x="558" y="285.8" transform="rotate(384.967 558 285.8)">212</text><text data-sectionid="213" data-role="section" x="547.4" y="306.5" transform="rotate(385.475 547.4 306.5)">213</text><text data-sectionid="215" data-role="section" x="511.5" y="356.4" transform="rotate(397.875 511.5 356.4)">215</text><text data-sectionid="216" data-role="section" x="497.6" y="374.3" transform="rotate(395.417 497.6 374.3)">216</text><text data-sectionid="217" data-role="section" x="484" y="392.6" transform="rotate(398.781 484 392.6)">217</text><text data-sectionid="219" data-role="section" x="433.2" y="418.8" transform="rotate(429.285 433.2 418.8)">219</text><text data-sectionid="222" data-role="section" x="337.3" y="404.9" transform="rotate(314.722 337.3 404.9)">222</text><text data-sectionid="223" data-role="section" x="321.5" y="393.8" transform="rotate(321.574 321.5 393.8)">223</text><text data-sectionid="224" data-role="section" x="307.6" y="377" transform="rotate(318.842 307.6 377)">224</text><text data-sectionid="225" data-role="section" x="293.4" y="359.1" transform="rotate(321.248 293.4 359.1)">225</text><text data-sectionid="226" data-role="section" x="278.8" y="340.7" transform="rotate(322.15 278.8 340.7)">226</text><text data-sectionid="228" data-role="section" x="242.4" y="281.4" transform="rotate(334.063 242.4 281.4)">228</text><text data-sectionid="229" data-role="section" x="231.7" y="260.1" transform="rotate(334.079 231.7 260.1)">229</text><text data-sectionid="230" data-role="section" x="221.8" y="241.3" transform="rotate(339.444 221.8 241.3)">230</text><text data-sectionid="231" data-role="section" x="215.6" y="221.9" transform="rotate(347.536 215.6 221.9)">231</text><text data-sectionid="234" data-role="section" x="231.4" y="122.6" transform="rotate(392.151 231.4 122.6)">234</text><text data-sectionid="235" data-role="section" x="262.4" y="109.1" transform="rotate(399.84 262.4 109.1)">235</text><text data-sectionid="236" data-role="section" x="279.6" y="91.7" transform="rotate(402.279 279.6 91.7)">236</text><text data-sectionid="237" data-role="section" x="302" y="71.7" transform="rotate(411.282 302 71.7)">237</text><text data-sectionid="238" data-role="section" x="327.6" y="55.3" transform="rotate(425.513 327.6 55.3)">238</text><text data-sectionid="305" data-role="section" x="554.5" y="103.2" transform="rotate(46.0609 554.5 103.2)">305</text><text data-sectionid="306" data-role="section" x="581.8" y="132.3" transform="rotate(50.326 581.8 132.3)">306</text><text data-sectionid="307" data-role="section" x="600.5" y="159.5" transform="rotate(64.7989 600.5 159.5)">307</text><text data-sectionid="308" data-role="section" x="612" y="188.7" transform="rotate(77.9118 612 188.7)">308</text><text data-sectionid="309" data-role="section" x="613.3" y="215.4" transform="rotate(90 613.3 215.4)">309</text><text data-sectionid="310" data-role="section" x="613.5" y="245.4" transform="rotate(643.201 613.5 245.4)">310</text><text data-sectionid="311" data-role="section" x="600.8" y="274.2" transform="rotate(655.981 600.8 274.2)">311</text><text data-sectionid="312" data-role="section" x="588.5" y="300" transform="rotate(655.641 588.5 300)">312</text><text data-sectionid="313" data-role="section" x="574.6" y="328" transform="rotate(665.218 574.6 328)">313</text><text data-sectionid="314" data-role="section" x="553.8" y="356.1" transform="rotate(673.452 553.8 356.1)">314</text><text data-sectionid="315" data-role="section" x="535.6" y="379.3" transform="rotate(661.464 535.6 379.3)">315</text><text data-sectionid="316" data-role="section" x="520.3" y="399.2" transform="rotate(663.69 520.3 399.2)">316</text><text data-sectionid="317" data-role="section" x="503.7" y="420.1" transform="rotate(666.591 503.7 420.1)">317</text><text data-sectionid="318" data-role="section" x="482" y="442.3" transform="rotate(678.945 482 442.3)">318</text><text data-sectionid="319" data-role="section" x="458.5" y="456.8" transform="rotate(691.947 458.5 456.8)">319</text><text data-sectionid="321" data-role="section" x="345.2" y="457.4" transform="rotate(387.759 345.2 457.4)">321</text><text data-sectionid="322" data-role="section" x="319.6" y="441.5" transform="rotate(405 319.6 441.5)">322</text><text data-sectionid="323" data-role="section" x="300.1" y="419.9" transform="rotate(408.483 300.1 419.9)">323</text><text data-sectionid="324" data-role="section" x="283.3" y="398.5" transform="rotate(415.305 283.3 398.5)">324</text><text data-sectionid="325" data-role="section" x="266.5" y="377.9" transform="rotate(412.853 266.5 377.9)">325</text><text data-sectionid="326" data-role="section" x="249" y="356.7" transform="rotate(412.853 249 356.7)">326</text><text data-sectionid="327" data-role="section" x="230.3" y="331.5" transform="rotate(423.726 230.3 331.5)">327</text><text data-sectionid="328" data-role="section" x="214.9" y="302.2" transform="rotate(421.928 214.9 302.2)">328</text><text data-sectionid="329" data-role="section" x="201.8" y="276.8" transform="rotate(425.556 201.8 276.8)">329</text><text data-sectionid="330" data-role="section" x="189.2" y="252" transform="rotate(430.484 189.2 252)">330</text><text data-sectionid="331" data-role="section" x="177.2" y="221.7" transform="rotate(438.288 177.2 221.7)">331</text><text data-sectionid="333" data-role="section" x="189.2" y="126.2" transform="rotate(650.143 189.2 126.2)">333</text><text data-sectionid="334" data-role="section" x="212.2" y="87.6" transform="rotate(664.645 212.2 87.6)">334</text><text data-sectionid="405" data-role="section" x="563.2" y="84.3" transform="rotate(46.3263 563.2 84.3)">405</text><text data-sectionid="406" data-role="section" x="590.1" y="113.7" transform="rotate(46.3169 590.1 113.7)">406</text><text data-sectionid="408" data-role="section" x="631.7" y="189.8" transform="rotate(80.2948 631.7 189.8)">408</text><text data-sectionid="409" data-role="section" x="631.5" y="214.7" transform="rotate(91.7921 631.5 214.7)">409</text><text data-sectionid="410" data-role="section" x="630.5" y="248.7" transform="rotate(642.507 630.5 248.7)">410</text><text data-sectionid="411" data-role="section" x="621.8" y="274.7" transform="rotate(653.578 621.8 274.7)">411</text><text data-sectionid="412" data-role="section" x="609" y="299.9" transform="rotate(655.153 609 299.9)">412</text><text data-sectionid="413" data-role="section" x="595.2" y="329.4" transform="rotate(659.01 595.2 329.4)">413</text><text data-sectionid="414" data-role="section" x="577.9" y="356.9" transform="rotate(668.032 577.9 356.9)">414</text><text data-sectionid="415" data-role="section" x="558.5" y="381" transform="rotate(665.858 558.5 381)">415</text><text data-sectionid="416" data-role="section" x="540.1" y="404.6" transform="rotate(665.961 540.1 404.6)">416</text><text data-sectionid="417" data-role="section" x="520.5" y="430.5" transform="rotate(667.954 520.5 430.5)">417</text><text data-sectionid="418" data-role="section" x="497.7" y="455.1" transform="rotate(680.528 497.7 455.1)">418</text><text data-sectionid="419" data-role="section" x="471" y="472.7" transform="rotate(692.068 471 472.7)">419</text><text data-sectionid="421" data-role="section" x="333.6" y="473.7" transform="rotate(389.332 333.6 473.7)">421</text><text data-sectionid="422" data-role="section" x="305.7" y="455.7" transform="rotate(403.986 305.7 455.7)">422</text><text data-sectionid="423" data-role="section" x="283.6" y="431.2" transform="rotate(413.746 283.6 431.2)">423</text><text data-sectionid="424" data-role="section" x="264.5" y="406.4" transform="rotate(411.009 264.5 406.4)">424</text><text data-sectionid="425" data-role="section" x="245.6" y="383.1" transform="rotate(411.203 245.6 383.1)">425</text><text data-sectionid="426" data-role="section" x="225.4" y="358.9" transform="rotate(411.557 225.4 358.9)">426</text><text data-sectionid="427" data-role="section" x="209.2" y="335.6" transform="rotate(418.707 209.2 335.6)">427</text><text data-sectionid="428" data-role="section" x="197.3" y="310.8" transform="rotate(425.289 197.3 310.8)">428</text><text data-sectionid="429" data-role="section" x="183.8" y="284.2" transform="rotate(427.505 183.8 284.2)">429</text><text data-sectionid="430" data-role="section" x="171.9" y="261" transform="rotate(426.861 171.9 261)">430</text><text data-sectionid="433" data-role="section" x="165.2" y="131.5" transform="rotate(647.309 165.2 131.5)">433</text><text data-sectionid="114A" data-role="section" x="512" y="304.6" transform="rotate(391.584 512 304.6)">114A</text><text data-sectionid="114B" data-role="section" x="499.8" y="318.3" transform="rotate(396.001 499.8 318.3)">114B</text><text data-sectionid="117A" data-role="section" x="463.7" y="364.4" transform="rotate(396.235 463.7 364.4)">117A</text><text data-sectionid="117B" data-role="section" x="450.2" y="378.7" transform="rotate(403.294 450.2 378.7)">117B</text><text data-sectionid="120A" data-role="section" x="407" y="400.6" transform="rotate(444.046 407 400.6)">120A</text><text data-sectionid="120B" data-role="section" x="395" y="400.4" transform="rotate(277.505 395 400.4)">120B</text><text data-sectionid="121A" data-role="section" x="376.9" y="397.9" transform="rotate(290.158 376.9 397.9)">121A</text><text data-sectionid="121B" data-role="section" x="365.7" y="390.2" transform="rotate(301.139 365.7 390.2)">121B</text><text data-sectionid="127A" data-role="section" x="288.7" y="304.8" transform="rotate(326.099 288.7 304.8)">127A</text><text data-sectionid="127B" data-role="section" x="281" y="289.6" transform="rotate(332.929 281 289.6)">127B</text><text data-sectionid="14A" data-role="section" x="492.5" y="290.7" transform="rotate(392.142 492.5 290.7)">14A</text><text data-sectionid="14B" data-role="section" x="482.6" y="302.7" transform="rotate(396.56 482.6 302.7)">14B</text><text data-sectionid="15A" data-role="section" x="476.5" y="315.6" transform="rotate(664.509 476.5 315.6)">15A</text><text data-sectionid="15B" data-role="section" x="467.1" y="327.8" transform="rotate(664.756 467.1 327.8)">15B</text><text data-sectionid="17A" data-role="section" x="447.5" y="352.5" transform="rotate(666.469 447.5 352.5)">17A</text><text data-sectionid="17B" data-role="section" x="435.4" y="362.8" transform="rotate(405.703 435.4 362.8)">17B</text><text data-sectionid="214A" data-role="section" x="538.9" y="322" transform="rotate(393.179 538.9 322)">214A</text><text data-sectionid="214B" data-role="section" x="525.4" y="338.4" transform="rotate(396.975 525.4 338.4)">214B</text><text data-sectionid="218A" data-role="section" x="463.3" y="401.1" transform="rotate(406.675 463.3 401.1)">218A</text><text data-sectionid="218B" data-role="section" x="449.5" y="410.8" transform="rotate(416.178 449.5 410.8)">218B</text><text data-sectionid="21A" data-role="section" x="389.4" y="373.7" transform="rotate(283.925 389.4 373.7)">21A</text><text data-sectionid="21B" data-role="section" x="378.2" y="369" transform="rotate(298.648 378.2 369)">21B</text><text data-sectionid="220A" data-role="section" x="420.1" y="421" transform="rotate(322.195 420.1 421)">220A</text><text data-sectionid="220B" data-role="section" x="402.8" y="423.8" transform="rotate(331.57 402.8 423.8)">220B</text><text data-sectionid="220C" data-role="section" x="385.5" y="422.1" transform="rotate(331.57 385.5 422.1)">220C</text><text data-sectionid="221A" data-role="section" x="369.4" y="419.9" transform="rotate(292.521 369.4 419.9)">221A</text><text data-sectionid="221B" data-role="section" x="351.4" y="413.3" transform="rotate(300.678 351.4 413.3)">221B</text><text data-sectionid="227A" data-role="section" x="266.8" y="322" transform="rotate(324.364 266.8 322)">227A</text><text data-sectionid="227B" data-role="section" x="253.4" y="303.3" transform="rotate(334.474 253.4 303.3)">227B</text><text data-sectionid="232A" data-role="section" x="212.2" y="202" transform="rotate(353.815 212.2 202)">232A</text><text data-sectionid="232B" data-role="section" x="212.2" y="184.1" transform="rotate(361.364 212.2 184.1)">232B</text><text data-sectionid="233A" data-role="section" x="213.8" y="165.4" transform="rotate(370.37 213.8 165.4)">233A</text><text data-sectionid="233B" data-role="section" x="219.6" y="146.6" transform="rotate(380.462 219.6 146.6)">233B</text><text data-sectionid="24A" data-role="section" x="343.5" y="341.2" transform="rotate(410.528 343.5 341.2)">24A</text><text data-sectionid="24B" data-role="section" x="333.2" y="328.6" transform="rotate(409.399 333.2 328.6)">24B</text><text data-sectionid="27A" data-role="section" x="308.5" y="291.9" transform="rotate(330.433 308.5 291.9)">27A</text><text data-sectionid="27B" data-role="section" x="301.9" y="277.1" transform="rotate(334.496 301.9 277.1)">27B</text><text data-sectionid="320A" data-role="section" x="432.1" y="466.2" transform="rotate(706.799 432.1 466.2)">320A</text><text data-sectionid="320B" data-role="section" x="402.3" y="469.9" transform="rotate(360 402.3 469.9)">320B</text><text data-sectionid="320C" data-role="section" x="372.3" y="466.6" transform="rotate(375.945 372.3 466.6)">320C</text><text data-sectionid="332A" data-role="section" x="173.3" y="189" transform="rotate(450 173.3 189)">332A</text><text data-sectionid="332B" data-role="section" x="178.9" y="159.5" transform="rotate(639.941 178.9 159.5)">332B</text><text data-sectionid="407A" data-role="section" x="609.9" y="137" transform="rotate(58.7938 609.9 137)">407A</text><text data-sectionid="407B" data-role="section" x="623.4" y="162.2" transform="rotate(72.434 623.4 162.2)">407B</text><text data-sectionid="420A" data-role="section" x="439.8" y="484.1" transform="rotate(704.857 439.8 484.1)">420A</text><text data-sectionid="420B" data-role="section" x="402.3" y="488.6" transform="rotate(360 402.3 488.6)">420B</text><text data-sectionid="420C" data-role="section" x="364.8" y="484.4" transform="rotate(378.138 364.8 484.4)">420C</text><text data-sectionid="431A" data-role="section" x="163.2" y="238.7" transform="rotate(434.588 163.2 238.7)">431A</text><text data-sectionid="431B" data-role="section" x="157.8" y="212.5" transform="rotate(443.632 157.8 212.5)">431B</text><text data-sectionid="432A" data-role="section" x="156" y="184.4" transform="rotate(450 156 184.4)">432A</text><text data-sectionid="432B" data-role="section" x="158.6" y="157.4" transform="rotate(639.877 158.6 157.4)">432B</text><text data-sectionid="434A" data-role="section" x="178.6" y="101.9" transform="rotate(655.165 178.6 101.9)">434A</text><text data-sectionid="434B" data-role="section" x="202.7" y="67.3" transform="rotate(667.619 202.7 67.3)">434B</text><text data-sectionid="audi_club" data-role="section" x="200" y="133.1" transform="rotate(291.255 200 133.1)">Audi</text><text data-sectionid="SRO" data-role="section" x="207.3" y="43.2" transform="rotate(319.693 207.3 43.2)">SRO</text><text data-sectionid="Field_SRO" data-role="section" x="254" y="87.6" transform="rotate(313 254 87.6)">Field SRO</text><text data-sectionid="Pinstripe_Pass" data-role="section" x="517.8" y="77.5" transform="rotate(404.444 517.8 77.5)">Pass</text><text data-sectionid="Main_Standing_Room_Only" data-role="section" x="534.3" y="102.4" transform="rotate(46.7921 534.3 102.4)">Main SRO</text><text data-sectionid="pepsi_lounge" data-role="section" x="401.1" y="49.2">PEPSI LOUNGE</text><text class="is-d " text-anchor="middle" x="401.1" y="454.9" style="fill:#999; font-size:5.9px; " dominant-baseline="central" data-offset="0|0.3" null="">SUITE LEVEL</text><text class="is-d " text-anchor="middle" x="400.2" y="442.2" style="fill:#999; font-size:5.9px; " dominant-baseline="central" data-offset="0|0.3" null="">PRESS</text><text class="is-d " text-anchor="middle" x="399" y="70.7" style="fill:#999; font-size:5.3px; " null=""><tspan x="399" dy="-0.25em">MONUMENT</tspan><tspan x="399" dy="1.2em">PARK</tspan></text><text class="is-d " text-anchor="middle" x="337.5" y="83.6" style="fill:#999; font-size:5.9px; " null="" transform="rotate(334 337.5 83.6)"><tspan x="337.5" dy="-0.25em">VISITOR</tspan><tspan x="337.5" dy="1.2em">BULLPEN</tspan></text><text class="is-d " text-anchor="middle" x="393.3" y="11.9" style="fill:#FFF; font-size:5.9px; " dominant-baseline="central" data-offset="0|0.3" null="">VIDEO</text><text class="is-d " text-anchor="middle" x="400.9" y="30.4" style="fill:#999; font-size:4.7px; " null=""><tspan x="400.9" dy="-0.25em">BATTERS EYE</tspan><tspan x="400.9" dy="1.2em">SEATS</tspan></text><text class="is-d " text-anchor="middle" x="454.1" y="90.4" style="fill:#999; font-size:5.9px; " null="" transform="rotate(34 454.1 90.4)"><tspan x="454.1" dy="-0.25em">YANKEES</tspan><tspan x="454.1" dy="1.2em">BULLPEN</tspan></text><text class="is-d dyn-name-bench bench_home rotated" text-anchor="middle" x="452.2" y="327.6" style="fill:#FFF; font-size:5.9px; " dominant-baseline="central" data-offset="0|0.3" transform="rotate(308 452.2 327.6)">HOME</text><text class="is-d dyn-name-bench bench_visitor rotated" text-anchor="middle" x="346.4" y="325.9" style="fill:#666; font-size:5.9px; " dominant-baseline="central" data-offset="0|0.3" transform="rotate(51 346.4 325.9)">VISITOR</text></g></g><circle id="svgZoomCenter" r="1" stroke-width="0" fill-opacity="0" cx="322.3" cy="259.5"></circle><circle id="svgNorthWest" r="1" stroke-width="0" fill-opacity="0" cx="0" cy="0"></circle><circle id="svgSouthEast" r="1" stroke-width="0" fill-opacity="0" cx="794" cy="519"></circle><g id="svgmarkers" style="font-size: 10.3px;"><circle id="svg-marker-hover" data-ticket="" style="display: none;"></circle></g>undefined</g><circle id="svgZoomCenterLoad" r="1" stroke-width="0" fill-opacity="0" cx="397" cy="259.5"></circle></g></g></svg>